<?xml version="1.0" encoding="UTF-8" standalone="no"?>
<svg
   width="613.75903"
   height="859.76312"
   viewBox="0 0 613.75903 859.76312"
   version="1.1"
   id="svg4"
   xmlns="http://www.w3.org/2000/svg"
   xmlns:svg="http://www.w3.org/2000/svg">
  <defs
     id="defs8" />
  <path
     d="m 504.02157,2.786 c -1.091,1.532 -3.139,3.404 -4.551,4.16 -1.412,0.756 -2.833,2.209 -3.156,3.229 -0.324,1.02 -0.937,1.639 -1.363,1.376 -0.426,-0.264 -1.335,2.655 -2.019,6.485 -0.685,3.83 -1.622,6.964 -2.083,6.964 -1.269,0 -3.116,10.179 -2.861,15.769 0.168,3.679 -0.358,5.881 -2.061,8.637 -1.257,2.035 -2.543,3.442 -2.857,3.128 -0.314,-0.314 -0.888,-2.475 -1.275,-4.803 -0.594,-3.573 -0.693,-3.143 -0.638,2.769 0.115,12.191 -1.002,18.775 -3.505,20.664 -1.225,0.924 -2.581,1.461 -3.013,1.194 -0.432,-0.267 -0.256,0.676 0.391,2.096 0.994,2.181 0.821,3.292 -1.117,7.172 -1.705,3.415 -2.524,4.242 -3.199,3.232 -0.594,-0.891 -0.691,-0.432 -0.281,1.338 0.401,1.728 0.053,3.513 -0.969,4.972 -0.877,1.252 -1.611,3.189 -1.63,4.305 -0.02,1.115 -0.614,3.068 -1.32,4.341 -1.271,2.291 -1.302,2.273 -3.121,-1.76 -1.01,-2.241 -2,-3.912 -2.198,-3.713 -0.199,0.199 0.462,2.201 1.469,4.45 l 1.831,4.089 -2.979,9.229 c -2.418,7.495 -3.128,8.822 -3.78,7.06 -1.173,-3.17 -1.42,-2.687 -1.065,2.081 0.173,2.338 -0.316,6.042 -1.088,8.232 l -1.403,3.983 -0.702,-6.202 c -0.386,-3.411 -1.083,-6.438 -1.548,-6.725 -0.466,-0.288 -0.456,1.16 0.022,3.219 1.91,8.225 1.138,12.883 -4.242,25.573 -2.837,6.693 -5.453,12.514 -5.814,12.934 -0.36,0.42 -1.238,-2.172 -1.951,-5.759 -0.713,-3.588 -1.63,-6.729 -2.038,-6.981 -0.407,-0.252 0.101,3.095 1.13,7.438 l 1.87,7.896 -2.632,5.821 c -1.448,3.201 -2.767,5.371 -2.932,4.821 -0.164,-0.55 -0.585,-2.291 -0.935,-3.868 -0.35,-1.577 -0.814,-2.69 -1.031,-2.473 -0.218,0.217 0.029,2.285 0.548,4.594 0.784,3.49 0.618,4.735 -0.984,7.369 l -1.927,3.168 -0.654,-3.895 c -0.36,-2.142 -1.071,-5.02 -1.579,-6.395 l -0.924,-2.5 0.473,2.542 c 0.26,1.398 0.763,5.009 1.117,8.025 0.597,5.083 0.435,5.708 -2.217,8.553 -1.573,1.688 -3.722,5.614 -4.773,8.725 -1.052,3.11 -2.196,5.655 -2.542,5.655 -1.518,0 -8.928,-8.736 -9.33,-11 l -0.444,-2.5 -0.136,2.469 c -0.095,1.721 1.363,3.992 4.814,7.5 l 4.949,5.031 -4.551,13 c -2.504,7.15 -4.72,13.176 -4.925,13.392 -0.205,0.215 -1.295,-0.685 -2.421,-2 l -2.048,-2.392 1.927,3.5 c 1.343,2.438 1.674,4.151 1.093,5.648 -1.127,2.901 -2.856,3.824 -3.588,1.915 -0.33,-0.859 -1.072,-1.563 -1.648,-1.563 -0.576,0 -0.284,0.844 0.65,1.876 1.598,1.766 1.594,2.105 -0.056,5.75 -0.964,2.131 -2.395,4.653 -3.181,5.605 -1.133,1.374 -1.313,4.16 -0.874,13.5 0.506,10.773 1.11,13.992 3.989,21.269 1.668,4.214 2.564,17.139 1.64,23.662 -0.93,6.564 -4.717,17.861 -5.668,16.909 -0.312,-0.312 -0.5,-4.791 -0.417,-9.953 0.123,-7.715 -0.176,-9.807 -1.678,-11.752 -1.005,-1.301 -2.377,-5.207 -3.048,-8.68 -0.671,-3.472 -2.027,-8.197 -3.012,-10.5 -1.136,-2.656 -1.504,-4.917 -1.007,-6.186 1.255,-3.203 0.971,-4.212 -0.459,-1.633 -1.218,2.197 -1.366,2.233 -2.045,0.5 -0.402,-1.027 -1.129,-4.271 -1.614,-7.209 -0.701,-4.239 -0.559,-5.892 0.685,-8 1.446,-2.452 1.443,-2.507 -0.038,-0.717 -1.533,1.854 -1.611,1.764 -1.747,-2 l -0.142,-3.941 -0.608,3.849 -0.608,3.85 -2.241,-3.047 c -1.232,-1.675 -1.831,-3.299 -1.331,-3.608 0.501,-0.309 1.412,-2.902 2.025,-5.762 0.614,-2.86 1.888,-6.111 2.831,-7.224 1.527,-1.8 1.532,-1.881 0.045,-0.734 -1.473,1.137 -1.602,1.016 -1.086,-1.017 0.322,-1.269 1.234,-3.432 2.027,-4.807 1.398,-2.426 1.39,-2.441 -0.299,-0.5 -1.55,1.781 -1.671,1.8 -1.106,0.168 0.349,-1.007 0.635,-4.702 0.635,-8.211 0,-5.308 0.378,-6.742 2.25,-8.541 l 2.25,-2.163 -2.225,1.146 c -2.004,1.031 -2.287,0.868 -2.838,-1.627 -0.337,-1.525 -0.728,-3.222 -0.871,-3.772 -0.142,-0.55 0.108,-2.35 0.556,-4 0.756,-2.787 0.709,-2.862 -0.654,-1.059 -1.352,1.788 -1.468,1.538 -1.468,-3.177 0,-4.339 0.402,-5.435 2.635,-7.191 1.449,-1.14 2.272,-2.073 1.829,-2.073 -0.444,0 -1.629,0.745 -2.635,1.655 -1.737,1.571 -1.829,1.489 -1.829,-1.64 0,-1.952 0.713,-3.85 1.75,-4.657 1.422,-1.108 1.449,-1.259 0.144,-0.809 -1.327,0.458 -1.705,-0.523 -2.169,-5.641 -0.363,-4.008 -1.297,-7.19 -2.644,-9.012 l -2.083,-2.817 1.998,-5.069 c 1.254,-3.182 2.218,-8.687 2.59,-14.789 0.522,-8.583 0.286,-10.775 -2.018,-18.721 -3.395,-11.708 -4.248,-13.239 -8.075,-14.502 -1.81,-0.598 -3.794,-2.237 -4.572,-3.777 l -1.373,-2.721 -0.334,3.75 c -0.184,2.063 -0.721,3.75 -1.193,3.75 -0.472,0 -1.801,1.526 -2.954,3.392 -4.046,6.546 -4.69,35.712 -1.013,45.88 1.398,3.868 0.733,5.915 -1.271,3.911 -0.651,-0.65 -1.593,-1.183 -2.094,-1.183 -0.501,0 0.068,0.792 1.264,1.761 2.018,1.634 2.124,2.314 1.472,9.507 -0.494,5.445 -1.032,7.494 -1.814,6.895 -1.443,-1.107 -5.266,-2.484 -4.348,-1.567 0.386,0.386 1.722,1.21 2.969,1.83 2.12,1.055 2.287,1.84 2.553,12.003 0.245,9.32 0.082,10.706 -1.14,9.692 -0.909,-0.755 -0.67,0.343 0.661,3.033 1.478,2.987 1.737,4.332 0.89,4.614 -0.658,0.219 -1.196,1.636 -1.196,3.149 0,3.753 -0.955,4.408 -3.419,2.342 -1.908,-1.6 -1.899,-1.538 0.107,0.748 2.04,2.323 2.125,2.997 1.258,9.902 -0.512,4.075 -1.157,7.635 -1.432,7.911 -0.276,0.275 -1.314,-0.134 -2.307,-0.909 -0.993,-0.776 -0.806,-0.451 0.414,0.723 2.372,2.279 2.768,4.439 2.53,13.807 -0.14,5.519 -0.259,5.803 -1.677,4 -0.839,-1.067 -0.595,-0.079 0.543,2.197 2.087,4.175 4.239,14.362 3.034,14.362 -0.358,0 -1.088,-0.338 -1.622,-0.75 -0.534,-0.413 -0.284,-0.075 0.557,0.75 0.84,0.825 2.998,3.515 4.794,5.979 2.722,3.732 3.001,4.572 1.676,5.037 -1.14,0.399 -0.608,0.943 1.874,1.917 5.029,1.973 8.172,9.043 7.973,17.934 -0.16,7.19 -1.702,12.622 -3.301,11.634 -0.551,-0.34 -1.002,-1.466 -1.002,-2.501 0,-1.035 -0.401,-2.13 -0.892,-2.433 -0.49,-0.303 -0.435,1.246 0.122,3.442 0.768,3.025 0.699,4.371 -0.283,5.555 -1.76,2.121 -2.511,0.565 -3.41,-7.064 -0.389,-3.3 -1.552,-7.932 -2.585,-10.293 -1.033,-2.361 -2.186,-5.961 -2.564,-8 -1.903,-10.273 -8.708,-23.405 -13.887,-26.798 -2.242,-1.469 -3.16,-1.532 -6.797,-0.466 -10.199,2.99 -14.532,6.781 -19.83,17.35 -1.711,3.414 -3.307,6.419 -3.547,6.678 -0.938,1.014 -2.297,-2.663 -2.312,-6.253 -0.033,-8.167 -5.774,-15.474 -12.912,-16.431 -5.112,-0.686 -11.784,1.701 -15.318,5.481 -3.836,4.102 -11.58,18.215 -12.342,22.493 -0.368,2.069 -1.069,4.008 -1.556,4.309 -0.488,0.301 -0.919,2.884 -0.957,5.739 -0.039,2.855 -0.429,6.091 -0.866,7.191 -0.699,1.755 -1.003,1.511 -2.486,-2 -1.344,-3.182 -1.484,-4.812 -0.685,-7.968 0.553,-2.182 0.806,-4.166 0.563,-4.409 -0.243,-0.244 -0.726,0.979 -1.074,2.717 -0.348,1.738 -0.929,3.16 -1.291,3.16 -1.508,0 -4.092,-6.084 -4.1,-9.654 -0.007,-3.104 0.62,-4.389 3.25,-6.663 3.161,-2.733 3.17,-2.763 0.307,-1.003 -2.856,1.755 -2.929,1.755 -2.25,-0.014 0.386,-1.006 0.702,-2.018 0.702,-2.248 0,-0.23 0.625,-0.418 1.389,-0.418 0.764,0 2.452,-0.927 3.75,-2.059 l 2.361,-2.06 -2.75,1.675 c -3.871,2.357 -3.443,1.291 1.896,-4.72 5.988,-6.742 9.256,-13.986 10.025,-22.216 0.496,-5.307 0.987,-6.694 2.547,-7.189 1.063,-0.338 1.712,-0.834 1.443,-1.103 -0.269,-0.27 -1.368,-0.02 -2.442,0.555 -1.796,0.961 -2.003,0.615 -2.581,-4.308 -0.44,-3.742 -0.175,-6.438 0.88,-8.963 0.83,-1.987 1.263,-3.612 0.963,-3.612 -0.3,0 -0.952,1.012 -1.45,2.25 -0.699,1.74 -0.959,0.776 -1.146,-4.25 -0.133,-3.575 -0.238,-7.288 -0.234,-8.25 0.004,-0.962 -0.365,-1.75 -0.822,-1.75 -0.456,0 -0.829,-0.693 -0.829,-1.54 0,-0.847 -0.936,-3.374 -2.079,-5.616 -2.263,-4.435 -1.987,-7.882 0.907,-11.344 l 1.672,-2 -2.388,2 -2.387,2 0.518,-7.449 c 0.463,-6.652 0.825,-7.71 3.388,-9.893 l 2.869,-2.443 -2.75,1.665 c -2.74,1.66 -2.75,1.656 -2.744,-1.107 0.004,-1.525 0.679,-4.062 1.5,-5.637 1.902,-3.647 1.914,-4.573 0.026,-2.077 -1.367,1.807 -1.471,1.653 -1.5,-2.242 -0.025,-3.255 0.391,-4.317 1.878,-4.788 1.05,-0.334 2.513,-1.343 3.25,-2.242 1.107,-1.352 0.857,-1.322 -1.441,0.174 -1.53,0.995 -2.968,1.624 -3.195,1.396 -0.228,-0.228 -0.403,-2.426 -0.39,-4.885 0.067,-12.491 0.506,-17.699 1.683,-19.972 1.211,-2.34 1.194,-2.376 -0.262,-0.559 -0.855,1.068 -1.555,1.576 -1.555,1.128 0,-2.941 -3.257,-22.55 -4.1,-24.688 -1.189,-3.012 -7.9,-9.874 -7.9,-8.077 0,0.658 -1.28,1.196 -2.845,1.196 -4.216,0 -5.736,2.52 -7.536,12.5 -2.055,11.396 -2.067,22.52 -0.032,29.532 0.874,3.007 1.792,7.268 2.04,9.468 l 0.453,4 -3.04,-3.462 c -1.672,-1.904 -3.04,-3.158 -3.04,-2.785 0,0.373 1.298,2.156 2.884,3.962 2.559,2.916 2.797,3.735 2.115,7.285 -0.423,2.2 -0.823,3.325 -0.889,2.5 -0.066,-0.825 -1.28,-2.85 -2.698,-4.5 l -2.577,-3 2.332,3.5 c 2.042,3.063 2.333,4.706 2.331,13.158 -0.002,5.36 0.365,9.143 0.824,8.5 0.455,-0.637 0.465,0.642 0.021,2.842 -0.977,4.847 -0.983,13.076 -0.014,20.5 0.785,6.014 0.856,13.149 0.138,13.867 -0.25,0.25 -1.267,-0.181 -2.26,-0.956 -0.993,-0.776 -0.799,-0.444 0.432,0.737 2.556,2.456 4.856,12.82 3.856,17.375 -0.618,2.815 -0.647,2.825 -2.56,0.912 -1.064,-1.064 -2.497,-1.905 -3.185,-1.867 -0.687,0.037 -0.238,0.556 1,1.152 2.351,1.134 2.961,3.222 1.25,4.28 -0.55,0.34 -1,-0.057 -1,-0.882 0,-0.825 -0.432,-1.767 -0.96,-2.093 -0.562,-0.348 -0.515,0.681 0.114,2.486 2.093,6.005 0.639,14.788 -4.098,24.756 -3.809,8.015 -4.584,9.05 -5.967,7.972 -1.391,-1.085 -1.425,-1.029 -0.273,0.443 1.013,1.294 1.071,2.561 0.255,5.5 -0.583,2.1 -1.062,5.654 -1.065,7.898 -0.006,3.985 4.795,22.977 8.826,34.918 1.111,3.291 1.857,6.146 1.658,6.345 -0.198,0.199 -2.967,-4.956 -6.151,-11.455 -5.135,-10.478 -5.86,-12.726 -6.41,-19.852 -0.434,-5.631 -0.688,-6.689 -0.847,-3.536 l -0.228,4.5 -1.964,-5.5 c -2.768,-7.753 -3.112,-9.991 -3.588,-23.354 -0.37,-10.37 -0.196,-12.124 1.388,-14 1.804,-2.139 1.803,-2.14 -0.341,-0.331 -2.8,2.364 -3.313,1.291 -2.299,-4.815 1.849,-11.13 0.487,-25.98 -2.619,-28.557 -0.787,-0.653 -1.484,-2.595 -1.549,-4.315 l -0.119,-3.128 -0.651,3 c -0.587,2.705 -0.884,2.221 -3.011,-4.912 -1.297,-4.352 -2.695,-10.202 -3.105,-13 -0.411,-2.798 -0.837,-4.188 -0.948,-3.088 -0.129,1.279 -0.656,0.558 -1.461,-2 -0.799,-2.538 -0.93,-4.66 -0.359,-5.805 0.496,-0.993 0.683,-2.343 0.416,-3 -0.267,-0.657 -0.522,-0.407 -0.565,0.555 -0.168,3.718 -1.737,1.462 -3.447,-4.954 -0.983,-3.687 -2.605,-7.854 -3.606,-9.259 -2.979,-4.185 -4.099,-10.352 -3.672,-20.233 0.22,-5.117 0.23,-7.504 0.02,-5.304 -0.21,2.2 -0.617,5.416 -0.904,7.147 l -0.522,3.147 -2.972,-2.972 c -4.734,-4.734 -14.227,-33.609 -11.951,-36.352 0.64,-0.771 0.932,-1.98 0.648,-2.686 -0.324,-0.807 -0.544,-0.634 -0.594,0.466 -0.172,3.819 -1.779,1.4 -3.304,-4.972 -1.111,-4.643 -1.305,-7.287 -0.629,-8.551 0.539,-1.007 0.788,-2.819 0.553,-4.029 -0.361,-1.862 -0.447,-1.787 -0.563,0.493 -0.136,2.69 -2.116,5.092 -2.158,2.618 -0.012,-0.72 -0.902,-2.434 -1.978,-3.809 -1.076,-1.375 -1.972,-3.625 -1.993,-5 -0.021,-1.375 -0.51,-3.175 -1.088,-4 -0.81,-1.158 -0.91,-0.929 -0.437,1 0.439,1.79 0.346,2.074 -0.328,1 -1.992,-3.173 -6.157,-21.467 -6.224,-27.339 -0.048,-4.215 -0.329,-5.529 -0.89,-4.161 -0.45,1.1 -0.573,3.307 -0.273,4.905 0.384,2.047 0.203,2.695 -0.611,2.191 -0.636,-0.393 -1.158,-1.7 -1.16,-2.905 -0.002,-1.205 -1.322,-5.566 -2.933,-9.691 -2.426,-6.212 -2.865,-8.617 -2.554,-14 0.302,-5.241 0.219,-5.725 -0.426,-2.5 -0.439,2.2 -0.863,3.313 -0.941,2.472 -0.078,-0.84 -1.067,-2.319 -2.197,-3.287 -1.415,-1.211 -1.851,-2.405 -1.4,-3.825 1.145,-3.61 0.64,-13.185 -0.969,-18.36 -0.855,-2.75 -1.559,-5.957 -1.565,-7.128 -0.006,-1.17 -0.613,-2.627 -1.349,-3.238 -0.736,-0.61 -1.912,-3.026 -2.614,-5.368 C 145.42257,9.777 137.10857,1 133.87657,1 c -3.495,0 -7.938,2.877 -8.616,5.579 -0.351,1.398 -0.4,4.315 -0.11,6.481 0.3,2.232 0.079,4.217 -0.508,4.581 -1.513,0.934 -0.321,15.854 1.746,21.859 0.947,2.75 2.956,6.575 4.465,8.5 2.66,3.393 4.443,9.668 2.905,10.226 -0.416,0.151 -0.13,2.955 0.635,6.232 0.766,3.278 1.185,6.166 0.931,6.42 -0.254,0.254 -2.548,-1.752 -5.097,-4.458 -3.727,-3.955 -4.095,-4.183 -1.873,-1.163 1.519,2.066 3.877,4.569 5.24,5.561 1.537,1.12 3.387,4.409 4.878,8.672 1.321,3.778 2.997,7.8 3.724,8.939 0.727,1.139 1.634,2.915 2.015,3.947 0.668,1.812 0.597,1.816 -2.075,0.118 -1.522,-0.967 -3.696,-2.599 -4.831,-3.626 -1.136,-1.028 -2.435,-1.868 -2.888,-1.868 -1.29,0 6.6,6.061 10.077,7.741 1.739,0.84 3.864,3.061 4.792,5.008 1.866,3.912 1.192,5.805 -0.999,2.808 -0.78,-1.066 -1.418,-1.441 -1.418,-0.832 0,0.61 1.177,1.966 2.615,3.013 2.273,1.656 2.612,2.617 2.59,7.334 -0.029,6.18 1.961,14.234 7.756,31.381 2.221,6.574 4.039,12.139 4.039,12.365 0,0.227 -1.237,-0.345 -2.75,-1.27 -2.463,-1.508 -2.418,-1.389 0.434,1.135 2.429,2.148 3.793,4.846 5.75,11.369 3.078,10.257 3.226,12.464 0.566,8.448 -1.093,-1.65 -1.99,-2.519 -1.993,-1.93 -0.004,0.588 1.319,2.555 2.94,4.371 2.632,2.948 4.885,8.56 3.852,9.593 -0.848,0.848 -6.921,-3.677 -7.77,-5.79 -0.635,-1.581 -0.921,-1.753 -0.966,-0.583 -0.069,1.825 4.791,6.341 7.88,7.321 1.891,0.6 3.763,4.145 2.734,5.174 -0.278,0.278 -1.557,-0.005 -2.841,-0.63 -2.194,-1.067 -2.221,-1.044 -0.444,0.383 1.04,0.835 2.269,1.648 2.729,1.805 0.658,0.225 9.879,35.173 9.879,37.442 0,0.307 -0.787,0.279 -1.75,-0.062 -1.283,-0.455 -1.17,-0.15 0.422,1.143 2.924,2.373 4.502,8.931 3.73,15.499 -0.523,4.45 -0.237,6.164 1.638,9.827 2.676,5.229 4.149,10.937 2.823,10.937 -0.51,0 -2.504,-0.659 -4.432,-1.464 -1.928,-0.806 -3.245,-1.043 -2.926,-0.528 0.318,0.515 2.36,1.471 4.537,2.123 3.806,1.14 3.958,1.35 3.958,5.446 0,2.342 0.303,5.049 0.674,6.015 0.519,1.353 0.29,1.608 -1,1.113 -0.921,-0.353 -1.674,-0.206 -1.674,0.326 0,0.533 0.655,0.969 1.455,0.969 0.897,0 1.707,1.437 2.113,3.75 0.363,2.063 1.46,7.277 2.439,11.589 1.739,7.66 1.737,7.827 -0.114,7.343 -1.041,-0.272 -1.893,-0.087 -1.893,0.412 0,0.498 0.887,0.906 1.972,0.906 1.548,0 2.318,1.237 3.578,5.75 0.884,3.162 1.827,6.537 2.096,7.5 0.561,2.008 -0.403,2.173 -4.22,0.722 -1.487,-0.565 -2.91,-0.822 -3.162,-0.569 -0.252,0.252 1.377,1.008 3.62,1.68 4.477,1.342 5.333,2.83 5.576,9.7 0.123,3.479 -0.14,4.18 -1.404,3.736 -0.956,-0.335 -0.756,0.134 0.519,1.218 1.142,0.97 2.686,3.788 3.433,6.263 0.746,2.475 3.045,7.65 5.11,11.5 2.064,3.85 4.68,9.475 5.812,12.5 2.056,5.495 6.688,12.049 14.957,21.164 3.752,4.136 4.088,4.836 2.322,4.836 -1.135,0 -3.267,-1.462 -4.738,-3.25 -1.471,-1.787 -2.38,-2.693 -2.021,-2.011 0.438,0.829 0.127,1.036 -0.941,0.626 -0.877,-0.336 -2.449,-2.287 -3.494,-4.335 -1.045,-2.048 -4.513,-6.11 -7.707,-9.028 -8.205,-7.493 -10.305,-10.635 -10.323,-15.446 -0.009,-2.231 -0.446,-4.731 -0.972,-5.556 -0.655,-1.028 -0.775,-0.24 -0.381,2.5 l 0.575,4 -1.902,-3.5 c -1.046,-1.925 -2.442,-4.4 -3.103,-5.5 -0.661,-1.1 -2.679,-5.6 -4.485,-10 -2.967,-7.23 -3.155,-8.264 -1.948,-10.745 0.845,-1.737 1.01,-3.327 0.45,-4.328 -0.665,-1.189 -0.886,-0.816 -0.886,1.495 0,3.094 -1.293,5.443 -1.97,3.578 -1.071,-2.95 -10.086,-17.988 -12.06,-20.119 -1.267,-1.366 -2.303,-2.937 -2.303,-3.492 0,-0.554 -0.416,-0.75 -0.925,-0.436 -1.309,0.809 -12.441,-12.046 -13.227,-15.274 -0.358,-1.473 -0.95,-4.412 -1.314,-6.531 -0.365,-2.119 -0.859,-3.656 -1.099,-3.416 -0.24,0.24 -0.044,2.536 0.435,5.102 0.48,2.566 0.725,4.666 0.546,4.666 -0.179,0 -4.014,-4.388 -8.522,-9.75 -4.508,-5.363 -9.413,-10.491 -10.901,-11.398 -1.955,-1.191 -2.884,-2.769 -3.351,-5.692 -0.356,-2.225 -1.166,-4.366 -1.799,-4.757 -0.645,-0.399 -0.882,-0.276 -0.539,0.28 0.337,0.545 1.021,2.807 1.519,5.025 0.832,3.702 0.748,3.993 -1.013,3.532 -1.056,-0.276 -4.595,-4.016 -7.865,-8.312 -5.222,-6.861 -5.945,-8.357 -5.945,-12.31 0,-2.475 -0.346,-4.714 -0.768,-4.975 -0.423,-0.261 -0.614,1.4 -0.426,3.691 l 0.343,4.166 -2.563,-3 c -1.411,-1.65 -2.766,-3.9 -3.013,-5 -2.757,-12.28 -3.91,-16.59 -4.541,-16.98 -0.411,-0.254 0.089,2.553 1.11,6.237 1.022,3.685 1.858,7.383 1.858,8.218 0,2.544 -6.743,-7.794 -7.413,-11.364 -0.56,-2.986 -4.332,-7.874 -5.101,-6.611 -0.914,1.501 -4.470996,-5.407 -5.055996,-9.819 -0.381,-2.867 -1.402,-5.707 -2.307,-6.414 -1.38,-1.077 -1.455,-1.043 -0.499,0.233 0.618,0.825 1.438,3.671 1.822,6.324 0.667,4.607 0.609,4.776 -1.304,3.752 -4.071,-2.179 -5.866,-6.181 -5.64,-12.576 0.141,-4.001 0.075,-4.418 -0.197,-1.25 -0.225,2.613 -0.724,4.735 -1.107,4.716 -1.195,-0.058 -11.198,-15.587 -11.198,-17.383 0,-0.935 -0.412,-1.447 -0.915,-1.136 -1.658,1.025 -5.042,-5.846 -4.684,-9.512 0.185,-1.889 0.141,-2.423 -0.099,-1.185 -0.239,1.238 -0.803,2.25 -1.253,2.25 -1.381,0 -4.049,-4.793 -4.049,-7.274 0,-1.289 -0.7,-3.217 -1.555,-4.285 -1.502,-1.875 -1.519,-1.867 -0.5,0.243 2.209,4.573 0.9,4.615 -2.075,0.066 -1.709,-2.613 -3.51,-4.75 -4.003,-4.75 -0.493,0 -1.788,-1.463 -2.878,-3.25 -1.514,-2.484 -2.022,-5.255 -2.153,-11.75 -0.095,-4.675 -0.349,-6.812 -0.564,-4.75 -0.216,2.063 -0.779,3.75 -1.251,3.75 -2.172,0 -4.021,-1.372 -4.021,-2.985 0,-0.973 -0.675,-2.33 -1.5,-3.015 -0.889,-0.738 -1.558,-3.129 -1.642,-5.872 l -0.142,-4.628 -0.608,3.732 -0.608,3.732 -5,-4.612 c -4.132,-3.811 -5.694,-4.627 -9,-4.699 -2.208,-0.047 -4.492,-0.73 -5.098,-1.522 -2.033,-2.658 -3.402,-0.152 -3.402,6.228 0,3.433 -0.498,6.739 -1.107,7.348 -1.52,1.52 1.994,10.702 7.685,20.078 2.432,4.007 4.422,7.531 4.422,7.83 0,0.815 -6.312,-0.694 -7.75,-1.853 -0.851,-0.685 -1.25,-0.66 -1.25,0.077 0,1.334 7.24,3.39 9.237,2.624 0.944,-0.363 2.904,1.367 5.607,4.947 2.286,3.027 4.156,5.798 4.156,6.157 0,1.358 6.323,10.343 7.632,10.845 1.84,0.707 1.745,2.588 -0.132,2.588 -0.825,0 -1.5,0.436 -1.5,0.969 0,0.532 0.664,0.714 1.475,0.402 3.123,-1.198 10.23,5.062 15.928,14.033 l 1.845,2.904 -5.374,-0.574 c -3.34,-0.357 -4.617,-0.252 -3.374,0.276 1.1,0.467 3.688,0.881 5.75,0.92 3.497,0.065 3.75,0.275 3.75,3.115 0,2.044 0.905,3.876 2.75,5.57 1.513,1.389 3.538,3.247 4.5,4.13 2.063,1.892 2.261,3.255 0.473,3.255 -2.009,0 -5.781,-3.002 -6.731,-5.357 -0.503,-1.246 -0.878,-1.515 -0.897,-0.643 -0.067,3.169 4.77,7 8.839,7 2.454,0 2.908,3.592 0.546,4.325 -1.055,0.327 -0.978,0.419 0.25,0.3 1.654,-0.16 8.832,7.146 7.918,8.06 -0.229,0.229 -2.974,-0.446 -6.1,-1.502 -3.126,-1.055 -5.239,-1.474 -4.696,-0.931 0.542,0.542 3.665,1.72 6.939,2.617 5.256,1.44 6.504,2.309 10.669,7.422 4.626,5.679 4.662,5.778 1.879,5.104 -4.673,-1.132 -7.72,-2.438 -9.837,-4.215 -1.99,-1.67 -1.991,-1.667 -0.076,0.593 1.059,1.251 4.434,2.992 7.5,3.871 6.069,1.739 7.653,2.701 9.196,5.584 0.971,1.815 0.886,1.828 -2.054,0.307 -1.688,-0.873 -3.068,-1.359 -3.068,-1.081 0,0.278 1.892,1.47 4.204,2.65 4.044996,2.063 6.932996,4.892 9.510996,9.313 2.021,3.467 1.458,3.883 -2.275,1.68 -1.958,-1.155 -3.28,-1.646 -2.937,-1.092 0.343,0.555 2.058,1.744 3.81,2.642 3.117,1.596 4.641,3.098 4.672,4.603 0.027,1.319 -2.341,0.796 -7.985,-1.763 -3.024996,-1.372 -4.638996,-1.826 -3.586996,-1.011 1.616996,1.253 7.763996,3.796 12.319996,5.096 0.678,0.194 0.968,1.044 0.643,1.89 -0.35,0.913 -0.038,1.552 0.767,1.571 1.704,0.042 5.857,3.446 5.857,4.801 0,0.557 1.572,3.072 3.493,5.589 1.922,2.518 3.242,4.577 2.935,4.577 -1.137,0 -4.995,-2.311 -7.178,-4.299 -1.238,-1.127 -2.25,-1.622 -2.25,-1.099 0,1.307 8.012,6.398 10.067,6.398 0.917,0 2.807,1.723 4.2,3.828 1.394,2.105 4.828,6.45 7.633,9.655 5.207,5.951 6.323,8.2 3.536,7.131 -0.86,-0.33 0.092,0.961 2.116,2.87 2.167,2.044 3.453,4.061 3.128,4.907 -0.342,0.891 1.694,3.543 5.366,6.99 8.502,7.983 6.87,10.038 -5.546,6.98 -1.553,-0.382 -1.679,-0.271 -0.565,0.497 0.789,0.544 4.063,1.294 7.276,1.667 5.011,0.581 6.189,1.133 8.284,3.88 1.344,1.761 3.129,4.843 3.967,6.849 l 1.523,3.646 -4.491,-1.352 c -2.47,-0.743 -4.274,-1.001 -4.009,-0.573 0.264,0.429 2.468,1.279 4.896,1.891 3.624,0.912 4.613,1.678 5.517,4.272 0.606,1.738 1.102,3.318 1.102,3.511 0,0.961 -3.823,0.164 -5.777,-1.206 -1.223,-0.856 -2.223,-1.153 -2.223,-0.66 0,1.139 4.504,3.217 6.972,3.217 1.242,0 2.86,1.814 4.782,5.362 2.526,4.664 2.663,5.298 1.051,4.877 -1.019,-0.267 -2.742,-1.615 -3.829,-2.997 -1.087,-1.381 -1.976,-2.033 -1.976,-1.448 0,1.615 3.058,4.33 6.052,5.374 1.47,0.512 3.197,2.083 3.838,3.489 1.154,2.534 1.128,2.555 -2.778,2.182 -2.169,-0.207 -3.73,-0.03 -3.469,0.393 0.261,0.422 2.218,0.768 4.348,0.768 3.2,0 4.261,0.545 6.107,3.138 l 2.234,3.137 -5.709,-0.473 c -3.161,-0.262 -5.133,-0.107 -4.416,0.347 0.711,0.451 3.355,0.827 5.876,0.836 4.156,0.014 4.889,0.397 7.882,4.121 2.578,3.208 2.833,3.856 1.167,2.965 -1.305,-0.699 -2.132,-0.757 -2.132,-0.151 0,0.544 1.591,1.288 3.536,1.653 2.791,0.523 3.834,1.376 4.949,4.045 0.777,1.86 1.886,3.382 2.464,3.382 2.248,0 0.89,2.166 -2.199,3.509 -1.788,0.777 -2.549,1.43 -1.691,1.452 0.857,0.021 2.432,-0.622 3.5,-1.429 2.762,-2.089 4.876,-1.875 8.114,0.823 1.555,1.295 4.402,2.879 6.327,3.52 2.369,0.788 3.985,2.205 5,4.387 1.145,2.46 2.683,3.642 6.5,4.998 16.078,5.709 16.292,6.12 3.793,7.292 -5.502,0.515 -7.734,0.347 -9.048,-0.684 -1.58,-1.239 -1.616,-1.203 -0.373,0.382 1.164,1.483 1.164,1.752 0,1.764 -0.754,0.007 -2.369,0.281 -3.587,0.607 -1.922,0.515 -2.544,-0.149 -4.695,-5.014 -1.364,-3.084 -2.741,-5.607 -3.061,-5.607 -0.319,0 0.049,1.237 0.819,2.75 0.769,1.512 1.729,3.82 2.134,5.129 0.732,2.369 0.711,2.376 -5.124,1.663 -9.479,-1.158 -17.041,-3.192 -20.565,-5.53 -2.949,-1.957 -3.051,-1.971 -0.976,-0.134 l 2.316,2.051 -10.236,0.285 c -9.455,0.264 -10.663,0.076 -15.817,-2.464 -5.373,-2.649 -15.511,-5.257 -14.581,-3.751 0.249,0.402 2.161,0.96 4.249,1.24 2.088,0.28 6.129,1.513 8.98,2.739 5.046,2.171 5.143,2.29 3.682,4.519 -1.615,2.464 -5.539,3.689 -11.91,3.716 -2.954,0.013 -3.477,0.219 -2,0.791 1.704,0.658 1.265,1.094 -2.962,2.94 -3.042,1.328 -5.944,1.94 -7.5,1.581 -1.859,-0.429 -2.144,-0.324 -1.066,0.391 1.24,0.823 1.162,1.088 -0.5,1.685 -7.364,2.644 -14.397,6.521 -16.616,9.159 -2.056,2.442 -2.882,2.845 -3.931,1.916 -1.098,-0.972 -1.106,-0.882 -0.048,0.522 1.427,1.891 1.08,2.735 -3.377,8.22 -8.505,10.467 -12.845996,14.582 -15.394996,14.597 -1.433,0.009 -3.28,0.472 -4.105,1.031 -1.098,0.743 -0.696,0.838 1.5,0.357 l 3,-0.657 -4.458,4.627 c -3.789,3.933 -5.037,4.627 -8.316,4.627 -2.122,0 -4.84,-0.475 -6.042,-1.055 -2.11,-1.019 -2.118,-1.002 -0.243,0.5 1.068,0.855 3.522,1.555 5.453,1.555 h 3.512 l -3.937,4.032 c -2.166,2.218 -5.295,4.427 -6.953,4.91 -1.659,0.483 -2.375,0.918 -1.592,0.968 1.012,0.064 0.738,0.821 -0.944,2.612 -1.303,1.386 -2.475,3.245 -2.605,4.13 -0.456,3.106 -2.037,3.68 -7.285,2.642 -2.762,-0.546 -4.822,-0.67 -4.578,-0.275 0.244,0.395 2.288,1.013 4.541,1.374 5.165,0.825 4.78,2.96 -0.63,3.495 -3.118,0.309 -3.457,0.514 -1.651,1 2.144,0.577 2.183,0.739 0.693,2.862 -1.364,1.945 -2.554,2.273 -8.772,2.423 l -7.193,0.172 6.438,0.578 c 5.719,0.513 6.277,0.747 5,2.101 -0.791,0.838 -1.587,2.186 -1.77,2.996 -0.687,3.044 -2.55,4.154 -6.362,3.79 -2.093,-0.2 -3.806,-0.013 -3.806,0.414 0,0.427 1.36,0.776 3.023,0.776 2.992,0 3.006,0.026 1.391,2.492 -1.299,1.982 -2.173,2.363 -4.273,1.862 -1.453,-0.347 -3.203,-1.073 -3.891,-1.614 -0.846,-0.667 -1.25,-0.614 -1.25,0.163 0,0.631 1.35,1.417 3,1.747 3.654,0.731 3.718,1.327 0.473,4.375 -2.282,2.144 -2.911,2.271 -6.5,1.313 -2.185,-0.583 -3.973,-0.752 -3.973,-0.375 0,0.376 1.66,1.101 3.688,1.611 l 3.688,0.926 -3.839,2.916 c -3.503,2.661 -4.177,2.826 -7.688,1.889 -2.117,-0.565 -3.849,-0.679 -3.849,-0.254 0,1.031 7.645,2.286 8.963,1.472 2.513,-1.554 0.73,1.643 -2.063,3.697 -3.069,2.257 -6.9,8.412 -6.9,11.085 0,2.778 -3.568,4.692 -9.079,4.87 -4.947,0.159 -5.053,0.208 -1.211,0.555 l 4.21,0.381 -6.932,6.54 c -4.3379997,4.091 -7.8429997,8.469 -9.3639997,11.694 -2.62999997,5.577 -4.24399997,15.127 -3.14299997,18.597 l 0.68499997,2.157 3.543,-2.09 c 3.207,-1.892 3.705,-1.944 5.246,-0.55 2.4549997,2.222 3.0079997,2.05 10.6379997,-3.319 7.212,-5.074 13.224,-12.619 15.317,-19.225 1.25,-3.944 7.781,-11.083 6.783,-7.415 -1.159,4.262 -1.829,8.5 -1.343,8.5 0.279,0 1.021,-2.472 1.648,-5.492 1.328,-6.395 5.741,-11.793 8.417,-10.296 1.28,0.717 1.586,0.349 1.591,-1.912 0.01,-5.331 1.987,-9.887 5.982,-13.788 l 4.012,-3.918 v 5.003 c 0,2.752 -0.562,5.634 -1.25,6.405 -1.063,1.192 -0.989,1.204 0.5,0.077 1.335,-1.01 1.75,-2.789 1.75,-7.505 0,-5.73 0.251,-6.425 3.436,-9.512 l 3.436,-3.33 0.389,4.384 c 0.363,4.08 0.402,3.995 0.564,-1.216 0.173,-5.526 0.254,-5.669 6.175,-10.819 5.829,-5.07 7.64,-5.092 4.42,-0.054 l -1.58,2.473 2.08,-2.361 c 1.144,-1.298 2.08,-3.327 2.08,-4.509 0,-1.182 0.871,-2.693 1.935,-3.357 1.675,-1.046 1.992,-0.911 2.364,1.009 0.267,1.384 0.48,0.851 0.565,-1.415 0.093,-2.476 0.694,-3.83 1.886,-4.251 0.962,-0.34 2.313,-0.879 3,-1.2 0.896,-0.418 1.254,0.644 1.265,3.751 0.009,2.383 0.367,4.886 0.796,5.562 0.43,0.676 0.64,-1.574 0.467,-5 l -0.315,-6.229 5.356996,-5.825 5.357,-5.825 -0.274,5.825 c -0.275,5.817 0.134,4.618 1.174,-3.444 0.303,-2.348 1.564,-5.446 2.802,-6.885 l 2.251,-2.617 -0.274,3.885 -0.275,3.886 0.935,-4.415 c 0.886,-4.18 7.046,-12.939 9.728,-13.833 0.665,-0.222 1.29,1.187 1.524,3.436 0.385,3.707 0.4,3.686 0.564,-0.764 0.163,-4.439 1.798,-6.989 6.031,-9.404 1.336,-0.762 1.195,4.266 -0.421,14.98 -0.354,2.354 -0.262,2.569 0.428,1 0.483,-1.1 1.202,-5.6 1.596,-10 0.826,-9.217 1.717,-10.294 11.208,-13.56 7.173,-2.468 7.162,-2.47 4.263,0.856 -1.34,1.538 -0.968,1.313 0.826,-0.5 l 3.264,-3.296 h 10.601 10.602 l -1.671,2.75 -1.67,2.75 2.343,-2.75 c 1.582,-1.856 3.308,-2.75 5.312,-2.75 1.633,0 4.531,-0.448 6.44,-0.995 3.789,-1.087 7.016,-0.513 7.016,1.248 0,0.615 -1.012,2.272 -2.25,3.683 l -2.25,2.564 2.75,-2.424 c 1.512,-1.334 2.75,-3.08 2.75,-3.88 0,-1.137 0.999,-1.344 4.549,-0.943 2.503,0.282 4.821,0.783 5.152,1.115 0.331,0.331 -1.117,3.196 -3.217,6.367 -2.101,3.171 -3.182,5.239 -2.402,4.596 0.78,-0.643 2.768,-3.449 4.418,-6.236 1.828,-3.088 3.52,-4.878 4.332,-4.581 0.732,0.267 2.307,0.493 3.5,0.501 4.005,0.029 4.941,1.337 3.831,5.358 -0.554,2.007 -0.644,3.424 -0.199,3.149 0.445,-0.275 1.106,-2.08 1.468,-4.011 0.437,-2.329 1.232,-3.539 2.363,-3.595 0.938,-0.047 4.244,-0.403 7.346,-0.791 l 5.642,-0.706 -2.392,3.135 c -1.315,1.724 -2.391,3.497 -2.391,3.94 0,0.444 1.353,-1.061 3.006,-3.344 l 3.007,-4.15 h 7.059 c 3.883,0 7.916,0.459 8.964,1.019 3.021,1.617 0.631,5.454 -4.655,7.473 -2.41,0.921 -4.381,2.091 -4.381,2.6 0,0.51 -1.913,3.865 -4.25,7.455 -3.754,5.766 -4.571,6.485 -7,6.164 -3.254,-0.431 -3.561,0.054 -0.703,1.111 1.913,0.707 1.717,1.192 -3.034,7.467 -3.425,4.525 -5.802,6.749 -7.297,6.827 -1.661,0.087 -1.783,0.23 -0.486,0.569 1.461,0.383 1.092,1.299 -2.37,5.884 -2.565,3.397 -4.898,5.474 -6.23,5.547 -1.612,0.088 -1.717,0.225 -0.431,0.563 1.38,0.364 0.57,1.97 -4.313,8.556 -3.307,4.46 -6.683,9.405 -7.502,10.99 -0.82,1.585 -2.412,3.803 -3.538,4.929 -2.982,2.982 -5.62,9.551 -6.364,15.846 -0.845,7.146 -5.266,17.975 -7.382,18.079 -0.997,0.049 -1.138,0.266 -0.374,0.575 0.868,0.352 0.315,2.303 -1.891,6.671 -4.533,8.98 -5.031,11.377 -3.648,17.589 1.164,5.23 1.123,5.468 -1.187,7 -1.315,0.872 -3.316,2.413 -4.446,3.423 -1.327,1.187 -0.884,1.06 1.254,-0.359 1.819,-1.208 3.519,-1.985 3.778,-1.726 1.239,1.24 -1.92,5.864 -6.019,8.808 -2.512,1.803 -4.567,3.454 -4.567,3.669 0,0.585 2.08,-0.738 6.226,-3.962 l 3.725,-2.896 -0.395,6.814 c -1.007,17.389 -4.154,25.548 -12.155,31.513 -2.066,1.541 -3.268,2.802 -2.671,2.802 0.598,0 3.219,-2.073 5.826,-4.606 2.607,-2.534 4.413,-3.771 4.015,-2.75 -0.996,2.55 -5.571,23.283 -5.573,25.257 -0.001,0.88 -2.026,2.878 -4.5,4.441 -2.474,1.563 -4.498,3.052 -4.498,3.309 0,0.542 1.433,-0.241 5.154,-2.815 1.46,-1.01 2.868,-1.836 3.129,-1.836 0.261,0 0.037,2.052 -0.498,4.559 -0.535,2.508 -0.608,5.77 -0.163,7.25 0.967,3.214 1.143,10.162 0.244,9.608 -0.349,-0.216 -1.209,0.998 -1.913,2.696 -0.703,1.699 -2.385,4.718 -3.737,6.711 -1.459,2.15 -1.769,3.05 -0.763,2.215 0.933,-0.774 2.766,-3.462 4.075,-5.973 1.487,-2.854 2.396,-3.847 2.425,-2.648 0.045,1.837 -1.515,12.497 -2.551,17.441 -0.272,1.297 -2.821,4.897 -5.664,8 l -5.17,5.641 5.36,-5 c 2.947,-2.75 5.12,-4.308 4.828,-3.461 -0.292,0.846 -1.123,5.721 -1.847,10.833 l -1.315,9.295 -3.797,1.937 c -2.088,1.065 -3.79,2.49 -3.782,3.166 0.011,0.857 0.239,0.896 0.75,0.13 0.937,-1.403 5.263,-3.705 5.854,-3.115 0.246,0.247 0.144,2.343 -0.226,4.66 -0.506,3.166 -1.259,4.434 -3.033,5.108 -2.892,1.1 -3.12,1.958 -0.326,1.228 1.964,-0.514 2.01,-0.243 1.355,7.844 -0.576,7.097 -1.129,8.985 -3.625,12.375 l -2.945,4 3.091,-3.462 c 1.938,-2.172 3.133,-2.917 3.204,-2 0.063,0.804 0.261,2.702 0.44,4.217 0.261,2.202 -0.264,3.061 -2.614,4.276 -1.617,0.836 -2.94,1.745 -2.94,2.02 0,0.275 1.407,-0.227 3.127,-1.117 l 3.127,-1.617 -0.576,2.842 c -0.316,1.562 -1.503,6.201 -2.637,10.309 -1.213,4.394 -2.16,11.184 -2.301,16.5 -0.203,7.655 0.103,9.728 2.01,13.598 1.238,2.511 2.25,5.603 2.25,6.872 0,1.873 0.266,2.086 1.411,1.136 0.965,-0.801 1.616,-0.839 2.059,-0.123 1.182,1.913 3.375,1.173 2.82,-0.951 -0.364,-1.391 -0.031,-2 1.093,-2 0.89,0 2.517,-0.9 3.617,-2 2.63,-2.63 2.803,-2.564 3.277,1.25 0.329,2.651 0.432,2.421 0.563,-1.25 0.089,-2.475 1.133,-6.975 2.321,-10 1.683,-4.285 2.262,-8.341 2.621,-18.362 0.254,-7.074 0.744,-12.474 1.09,-12 0.345,0.474 1.528,1.52 2.628,2.324 1.235,0.902 0.978,0.328 -0.67,-1.5 -2.839,-3.149 -3.765,-8.551 -2.354,-13.739 0.646,-2.378 0.982,-2.593 2.341,-1.5 1.324,1.065 1.305,0.867 -0.115,-1.196 -1.288,-1.87 -1.702,-4.622 -1.702,-11.309 0,-4.86 0.337,-8.627 0.75,-8.372 0.412,0.254 0.59,-1.552 0.393,-4.015 -0.479,-6.019 2.973,-29.278 3.968,-26.739 0.412,1.05 0.841,3.258 0.955,4.908 0.169,2.451 0.286,2.585 0.642,0.733 0.24,-1.247 -0.057,-3.762 -0.66,-5.587 -0.876,-2.656 -0.602,-6.325 1.371,-18.35 1.357,-8.266 3.169,-16.552 4.026,-18.413 l 1.56,-3.383 -0.395,4.885 c -0.246,3.043 -0.064,4.363 0.482,3.5 0.483,-0.762 0.884,-3.32 0.893,-5.685 0.008,-2.364 0.747,-5.714 1.641,-7.443 0.935,-1.809 1.935,-7.2 2.354,-12.7 0.401,-5.256 0.81,-8.657 0.91,-7.557 0.099,1.1 0.871,3.125 1.715,4.5 1.04,1.695 1.316,1.856 0.86,0.5 -2.197,-6.526 -2.477,-8.558 -1.899,-13.787 0.57,-5.163 0.817,-5.654 2.287,-4.549 1.387,1.044 1.45,1.018 0.397,-0.162 -0.688,-0.771 -1.25,-2.973 -1.25,-4.893 0,-3.293 0.084,-3.381 1.486,-1.55 1.359,1.774 1.392,1.659 0.392,-1.338 -0.809,-2.426 -0.774,-4.972 0.136,-9.795 1.227,-6.504 1.233,-6.513 3.358,-4.721 2.105,1.776 2.109,1.773 0.378,-0.284 -1.826,-2.168 -2.147,-5.546 -0.845,-8.874 0.645,-1.65 0.868,-1.431 1.436,1.41 0.37,1.849 0.87,3.165 1.111,2.925 0.24,-0.241 0.027,-2.226 -0.476,-4.41 -0.689,-2.998 -0.517,-5.019 0.7,-8.244 1.832,-4.853 2.309,-4.782 3.437,0.511 0.595,2.786 0.661,2.241 0.258,-2.105 -0.513,-5.535 -0.336,-6.168 3.156,-11.238 2.036,-2.955 4.045,-5.161 4.465,-4.901 0.421,0.26 1.04,-0.758 1.377,-2.261 0.337,-1.504 1.791,-4.084 3.232,-5.734 1.44,-1.65 2.278,-2.325 1.862,-1.5 -0.498,0.987 -0.421,1.158 0.225,0.5 0.54,-0.55 1.754,-3.101 2.698,-5.669 0.945,-2.568 2.819,-5.391 4.166,-6.273 1.904,-1.248 2.448,-2.47 2.448,-5.499 0,-5.094 0.953,-7.739 2.124,-5.893 0.581,0.916 0.85,0.478 0.861,-1.401 0.008,-1.504 1.404,-4.992 3.101,-7.75 3.633,-5.905 4.758,-6.598 2.052,-1.265 -5.972,11.772 -12.138,38.999 -12.138,53.601 0,6.061 -0.431,9.683 -1.25,10.508 -1.002,1.009 -0.932,1.139 0.349,0.651 1.256,-0.478 2.082,0.847 3.861,6.191 1.244,3.74 3.976,11.524 6.07,17.299 2.094,5.775 4.602,13.158 5.575,16.407 0.972,3.249 3.876,9.137 6.454,13.086 4.172,6.391 4.508,7.308 3.063,8.363 -1.365,0.997 -1.303,1.038 0.395,0.254 1.681,-0.776 2.78,-0.126 6.603,3.901 l 4.587,4.831 -4.854,2.641 c -2.669,1.453 -4.853,2.882 -4.853,3.175 0,0.293 2.449,-0.849 5.443,-2.539 l 5.444,-3.072 7.138,4.401 c 7.144,4.405 30.435,14.552 33.401,14.552 0.866,0 1.574,0.697 1.574,1.55 0,5.196 6.019,10.45 11.972,10.45 3.213,0 4.094,-1.177 5.608,-7.5 l 0.719,-3 1.109,3.708 c 1.47,4.916 2.196,5.47 8.21,6.266 4.959,0.656 5.285,0.542 10.5,-3.679 2.96,-2.396 7.971,-5.614 11.134,-7.15 7.172,-3.484 18.397,-13.567 22.299,-20.03 1.622,-2.686 6.025,-8.288 9.784,-12.447 7.516,-8.316 11.332,-15.058 16.222,-28.668 l 3.234,-9 0.601,5.5 c 1.187,10.859 1.31,11.431 1.399,6.5 0.049,-2.75 -0.267,-7.173 -0.704,-9.829 -0.499,-3.035 -0.332,-7.307 0.45,-11.5 3.125,-16.757 3.355,-21.936 1.398,-31.49 -1.024,-4.998 -1.721,-9.228 -1.549,-9.401 0.56,-0.56 9.614,23.55 9.614,25.601 0,1.094 -0.449,3.169 -0.997,4.611 -0.663,1.743 -0.663,2.416 0,2.006 0.548,-0.339 0.997,-1.238 0.997,-1.998 0,-0.76 0.386,-1.621 0.858,-1.912 0.472,-0.292 2.341,5.539 4.153,12.957 2.944,12.05 3.149,13.78 1.924,16.222 -2.197,4.381 -2.244,4.929 -0.166,1.928 l 1.943,-2.805 1.761,15.161 c 1.981,17.052 1.708,23.926 -1.077,27.192 -1.794,2.103 -1.796,2.145 -0.034,0.774 1.024,-0.796 2.233,-2.363 2.686,-3.482 0.578,-1.424 0.853,-0.233 0.918,3.965 0.063,4.089 0.984,8.198 2.89,12.9 2.405,5.931 2.686,7.609 2,11.946 -0.438,2.775 -0.586,5.258 -0.327,5.517 0.259,0.259 0.471,-0.28 0.471,-1.196 0,-0.917 0.384,-1.667 0.853,-1.667 0.47,0 1.613,5.962 2.541,13.25 0.928,7.288 1.914,14.415 2.191,15.838 0.436,2.245 -0.092,2.903 -3.988,4.97 -2.47,1.31 -4.309,2.564 -4.086,2.786 0.222,0.222 2.055,-0.57 4.072,-1.761 2.018,-1.19 3.852,-1.982 4.075,-1.758 0.223,0.223 0.891,4.508 1.484,9.522 1.01,8.542 0.945,9.341 -1.032,12.692 -2.6,4.407 -2.781,5.998 -0.244,2.151 l 1.853,-2.81 0.629,3.81 c 1.019,6.163 0.76,8.505 -1.098,9.952 -1.667,1.298 -1.667,1.334 0,0.753 1.499,-0.522 1.75,0.042 1.75,3.939 0,4.852 -0.576,5.567 -5.413,6.723 -2.478,0.593 -2.63,0.758 -0.771,0.841 1.273,0.056 3.138,-0.338 4.143,-0.876 1.518,-0.813 1.819,-0.602 1.784,1.25 -0.024,1.225 0.31,5.253 0.742,8.951 0.777,6.645 0.755,6.735 -1.85,7.726 -1.449,0.551 -2.635,1.226 -2.635,1.501 0,0.275 1.013,0.119 2.25,-0.346 2.192,-0.826 2.253,-0.67 2.354,6.024 0.057,3.78 -0.168,6.882 -0.5,6.894 -0.332,0.012 -1.729,0.966 -3.104,2.119 l -2.5,2.096 2.715,-1.618 c 1.493,-0.891 3.119,-1.619 3.613,-1.619 0.908,0 3.314,7.157 4.874,14.5 0.567,2.665 1.592,4.329 3.074,4.987 1.223,0.543 2.224,1.33 2.224,1.748 0,0.418 1.559,2.414 3.465,4.434 2.924,3.1 3.568,3.409 4.119,1.973 0.608,-1.585 0.744,-1.58 2.002,0.079 0.939,1.237 1.36,1.366 1.382,0.423 0.018,-0.745 1.185,-2.725 2.593,-4.399 2.443,-2.903 2.547,-3.525 2.25,-13.397 -0.171,-5.694 0.056,-10.351 0.505,-10.35 0.448,10e-4 1.798,0.477 3,1.057 2.11,1.019 2.118,1.002 0.243,-0.5 -1.068,-0.855 -2.418,-1.558 -3,-1.563 -1.24,-0.008 -5.676,-14.571 -6.318,-20.742 -0.275,-2.64 -0.035,-4.25 0.633,-4.25 0.68,0 0.838,-1.197 0.429,-3.25 l -0.647,-3.25 2.757,3 2.758,3 -2.455,-3.5 c -2.403,-3.428 -3.455,-8.328 -4.246,-19.776 -0.269,-3.895 -0.051,-5.094 0.833,-4.578 0.658,0.384 0.449,-0.167 -0.465,-1.224 -1.371,-1.584 -3.838,-11.071 -3.838,-14.756 0,-0.531 1.353,0.901 3.006,3.184 1.654,2.282 3.252,4.15 3.551,4.15 0.3,0 -0.55,-1.462 -1.888,-3.25 -3.72,-4.969 -5.344,-8.77 -6.09,-14.25 -0.374,-2.75 -0.91,-6.575 -1.191,-8.5 -0.484,-3.306 -0.425,-3.392 1.05,-1.559 0.859,1.068 1.562,1.553 1.562,1.079 0,-0.474 -0.725,-1.664 -1.611,-2.643 -1.011,-1.116 -1.794,-4.316 -2.102,-8.579 -0.475,-6.597 -0.44,-6.729 1.216,-4.479 0.939,1.275 2.071,3.525 2.516,5 0.617,2.045 0.828,2.207 0.891,0.681 0.045,-1.1 -1.265,-4.025 -2.91,-6.5 -1.645,-2.475 -2.993,-5.513 -2.996,-6.75 -0.004,-2.259 1.394,-3.033 2.435,-1.348 0.557,0.901 6.561,3.313 6.561,2.635 0,-0.197 -2.069,-1.36 -4.598,-2.584 -4.256,-2.061 -4.553,-2.448 -4,-5.215 0.329,-1.643 0.608,-4.169 0.62,-5.613 l 0.022,-2.625 2.035,2.5 c 2.026,2.49 2.026,2.483 -0.022,-1.71 -1.132,-2.316 -2.057,-5.119 -2.057,-6.23 0,-1.11 -1.818,-11.355 -4.04,-22.765 -4.511,-23.166 -4.727,-27.326 -1.058,-20.35 1.286,2.445 2.927,6.045 3.648,8 0.72,1.955 1.336,2.88 1.37,2.055 0.076,-1.877 -4.242,-11.239 -6.915,-14.993 -2.164,-3.039 -2.542,-8.571 -1.36,-19.884 0.642,-6.147 0.653,-6.164 2.75,-4.397 2.078,1.752 2.083,1.748 0.355,-0.305 -1.041,-1.237 -1.75,-3.731 -1.75,-6.161 0,-2.245 -0.894,-6.934 -1.987,-10.421 -1.093,-3.486 -1.993,-6.54 -2,-6.785 -0.007,-0.246 1.562,1.08 3.487,2.946 1.925,1.866 3.479,2.967 3.454,2.446 -0.026,-0.52 -1.713,-2.27 -3.75,-3.888 -3.352,-2.662 -4.169,-4.373 -8.594,-18 -2.689,-8.282 -5.089,-15.62 -5.333,-16.308 -0.863,-2.433 2.581,-1.207 5.134,1.827 1.424,1.692 2.589,2.676 2.589,2.187 0,-0.489 -1.386,-2.212 -3.08,-3.827 -2.287,-2.181 -15.337,-22.576 -19.576,-30.594 -0.191,-0.361 0.666,-0.449 1.905,-0.195 1.553,0.319 1.314,0.024 -0.771,-0.949 -1.662,-0.776 -4.319,-3.388 -5.904,-5.805 -1.586,-2.417 -6.654,-9.48 -11.262,-15.697 -4.609,-6.217 -7.494,-10.829 -6.411,-10.25 1.082,0.579 2.785,1.021 3.783,0.983 0.999,-0.039 0.066,-0.712 -2.073,-1.496 -4.902,-1.797 -17.625,-14.651 -17.579,-17.762 0.038,-2.607 1.696,-4.934 4.628,-6.496 1.685,-0.897 3.106,-0.817 6.456,0.365 2.362,0.833 4.828,1.311 5.479,1.061 2.135,-0.819 16.854,3.506 19.122,5.619 2.24,2.087 4.851,8.763 5.584,14.279 l 0.399,3 0.15,-3.072 c 0.184,-3.76 -2.477,-11.873 -4.423,-13.488 -2.651,-2.201 -1.452,-2.561 5.823,-1.747 3.987,0.446 9.124,1.017 11.415,1.269 5.567,0.611 9.298,1.549 12.425,3.121 1.425,0.717 4.8,1.441 7.5,1.61 4.492,0.281 4.936,0.535 5.22,2.991 0.171,1.476 -0.404,4.063 -1.276,5.75 -0.872,1.686 -1.365,3.066 -1.095,3.066 0.89,0 2.921,-4.444 3.496,-7.648 l 0.565,-3.149 11,5.975 c 6.559,3.562 13.008,7.956 15.974,10.884 l 4.974,4.91 -1.868,3.264 c -2.875,5.023 -5.677,7.723 -9.025,8.696 -2.259,0.656 -2.504,0.911 -0.94,0.978 2.808,0.12 6.933,-3.234 10.048,-8.168 l 2.531,-4.01 2.924,2.925 c 2.702,2.701 2.837,3.175 1.772,6.227 -0.639,1.833 -2.54,4.151 -4.271,5.206 -1.715,1.047 -2.657,1.904 -2.092,1.906 2.019,0.008 5.699,-3.303 6.932,-6.237 l 1.255,-2.984 3.35,4.665 c 3.218,4.48 3.341,4.989 3.114,12.862 -0.13,4.509 0.128,8.739 0.573,9.401 0.445,0.662 0.636,-1.854 0.425,-5.591 -0.64,-11.336 -0.247,-11.519 5.853,-2.728 3.009,4.336 5.907,8.479 6.439,9.207 0.631,0.863 0.57,2.814 -0.175,5.608 -1.448,5.422 -0.829,6.322 0.742,1.079 l 1.173,-3.916 2.772,2.569 c 1.524,1.413 4.809,4.107 7.3,5.987 4.98,3.76 5.102,5.316 0.599,7.645 -1.584,0.818 -2.879,1.718 -2.879,1.998 0,0.679 4.097,-1.468 6.069,-3.18 1.357,-1.179 1.863,-0.965 3.75,1.588 2.537,3.431 2.603,3.739 0.931,4.314 -0.687,0.237 -0.433,0.304 0.566,0.15 1.281,-0.198 3.085,1.678 6.135,6.379 4.614,7.11 4.711,8.943 0.729,13.686 -1.664,1.983 -1.659,1.984 0.544,0.12 1.224,-1.035 2.504,-2.762 2.845,-3.837 0.607,-1.909 0.655,-1.906 2.09,0.143 0.859,1.226 1.208,3.027 0.84,4.336 -0.479,1.704 -0.388,1.888 0.381,0.769 0.556,-0.809 1.175,-1.259 1.376,-1 4.339,5.603 6.762,11.234 6.912,16.059 0.135,4.336 0.246,4.663 0.562,1.643 l 0.393,-3.768 3.938,5.241 c 4.167,5.545 4.494,6.335 3.01,7.252 -0.51,0.315 -1.124,-0.446 -1.363,-1.691 -0.377,-1.96 -0.454,-1.895 -0.572,0.485 -0.145,2.933 0.742,3.472 2.622,1.592 0.876,-0.876 1.531,-0.847 2.7,0.123 1.805,1.498 2.146,12.442 0.559,17.974 -0.712,2.485 -0.681,3.125 0.114,2.33 0.603,-0.603 1.432,-4.623 1.843,-8.933 0.41,-4.31 0.809,-7.281 0.886,-6.604 0.077,0.678 1.979,4.238 4.227,7.911 3.57,5.832 3.951,7.006 3.008,9.267 -1.077,2.584 -1.075,2.585 0.528,0.351 l 1.607,-2.24 4.966,4.465 c 5.296,4.762 9.715,6.499 16.554,6.508 3.073,0.004 4.25,-0.401 4.25,-1.463 0,-0.962 0.577,-1.247 1.674,-0.826 1.306,0.501 1.52,0.243 0.975,-1.178 -0.384,-1.001 -1.101,-4.66 -1.592,-8.131 -0.823,-5.812 -3.562,-12.396 -5.156,-12.396 -1.222,0 -1.708,-3.896 -0.545,-4.373 0.629,-0.258 0.379,-0.505 -0.556,-0.548 -4.293,-0.199 -17.8,-12.262 -17.8,-15.897 0,-1.014 -1.055,-3.928 -2.346,-6.476 -1.29,-2.548 -1.852,-4.385 -1.25,-4.083 0.603,0.303 -0.029,-0.363 -1.404,-1.479 -2.656,-2.156 -3.23,-4.172 -1.533,-5.379 0.614,-0.437 0.379,-0.741 -0.583,-0.75 -2.464,-0.023 -12.371,-10.073 -13.697,-13.895 l -1.173,-3.379 3.743,0.601 c 2.569,0.413 3.273,0.301 2.243,-0.355 -0.825,-0.526 -2.893,-0.963 -4.595,-0.972 -1.813,-0.009 -3.847,-0.846 -4.911,-2.021 -2.03,-2.244 -1.94,-2.474 1.543,-3.931 2.158,-0.903 2.022,-0.961 -1.103,-0.47 -3.304,0.519 -3.764,0.262 -6.25,-3.495 -1.476,-2.23 -2.684,-4.478 -2.684,-4.995 0,-0.517 3.038,-1.932 6.75,-3.145 3.712,-1.213 7.183,-2.606 7.713,-3.095 0.814,-0.751 -9.315,2.437 -14.615,4.601 -1.308,0.534 -2.09,-0.495 -3.75,-4.932 -1.154,-3.084 -2.098,-5.82 -2.098,-6.081 0,-0.261 1.913,-0.255 4.25,0.013 l 4.25,0.488 -4.473,-1.079 c -2.46,-0.593 -5.547,-1.923 -6.859,-2.956 -2.368,-1.862 -15.168,-17.304 -15.168,-18.299 0,-0.285 2.587,-0.681 5.75,-0.879 l 5.75,-0.361 -6.665,-0.189 -6.666,-0.189 -5.584,-6.361 c -3.072,-3.498 -5.586,-6.536 -5.587,-6.75 -10e-4,-0.214 2.973,-0.236 6.61,-0.049 3.636,0.187 6.988,-0.038 7.447,-0.5 0.46,-0.462 -2.765,-0.84 -7.168,-0.84 -7.36,0 -8.158,-0.201 -9.919,-2.5 -1.053,-1.375 -2.869,-5.553 -4.035,-9.285 -2.653,-8.486 -5.096,-11.399 -14.611,-17.422 -7.27,-4.6 -7.458,-4.815 -4.698,-5.338 2.523,-0.478 2.288,-0.63 -1.907,-1.235 -4.611,-0.666 -11.589,-4.654 -20.717,-11.839 -1.925,-1.515 -4.792,-3.071 -6.372,-3.457 l -2.872,-0.702 3.122,-1.313 c 4.534,-1.906 3.836,-2.529 -0.795,-0.709 -3.542,1.391 -4.762,1.383 -12.75,-0.083 -4.858,-0.892 -12.744,-1.62 -17.524,-1.619 -4.78,0.001 -8.91,-0.353 -9.178,-0.786 -0.268,-0.433 0.857,-1.382 2.499,-2.109 1.641,-0.727 2.801,-1.505 2.576,-1.73 -0.225,-0.225 -1.713,0.272 -3.307,1.103 -3.716,1.938 -7.512,1.925 -12.181,-0.042 -2.5,-1.052 -5.11,-1.36 -7.968,-0.938 -2.337,0.344 -4.25,0.22 -4.25,-0.277 0,-0.498 4.163,-4.463 9.25,-8.813 l 9.25,-7.908 3.5,1.749 c 3.992,1.996 6,2.228 6,0.694 0,-0.582 -0.43,-0.793 -0.956,-0.468 -0.526,0.325 -2.627,-0.107 -4.669,-0.961 l -3.712,-1.551 2.856,-2.98 c 1.57,-1.64 3.274,-2.981 3.786,-2.981 1.595,0 8.9,-7.884 8.478,-9.15 -0.22,-0.661 1.256,-2.697 3.279,-4.525 2.024,-1.829 4.75,-4.897 6.059,-6.818 1.308,-1.921 2.626,-3.496 2.929,-3.5 0.302,-0.004 1.104,2.675 1.781,5.953 0.677,3.278 1.58,6.176 2.008,6.44 0.427,0.264 -0.022,-2.661 -0.997,-6.501 l -1.773,-6.981 4.581,-6.709 c 3.583,-5.248 5.263,-6.844 7.715,-7.327 3.058,-0.603 3.067,-0.622 0.385,-0.75 -1.513,-0.073 -2.737,-0.469 -2.722,-0.882 0.016,-0.413 1.478,-3.45 3.25,-6.75 3.136,-5.84 3.342,-6.008 7.722,-6.313 2.475,-0.172 4.817,-0.624 5.204,-1.004 0.386,-0.379 -1.301,-0.531 -3.75,-0.336 -2.45,0.195 -4.454,0.068 -4.454,-0.281 0,-0.899 2.665,-5.059 7.887,-12.316 4.189,-5.82 4.778,-6.259 8.556,-6.382 4.036,-0.131 4.04,-0.134 0.745,-0.75 l -3.312,-0.618 3.034,-4 c 2.375,-3.131 3.04,-5.032 3.062,-8.75 0.015,-2.613 0.365,-4.76 0.778,-4.772 0.413,-0.011 3.225,-3.366 6.25,-7.454 4.22,-5.704 6.082,-7.447 8,-7.494 1.375,-0.033 3.175,-0.503 4,-1.044 1.056,-0.692 0.492,-0.789 -1.905,-0.329 -3.974,0.764 -4.1,1.098 3.472,-9.178 2.846,-3.862 5.481,-8.422 5.857,-10.133 1.31,-5.965 5.688,-11.304 10.576,-12.898 4.451,-1.452 4.459,-1.462 0.676,-0.899 l -3.823,0.569 2.323,-3.148 c 1.278,-1.732 4.124,-4.23 6.324,-5.55 2.2,-1.321 3.538,-2.405 2.973,-2.411 -0.566,-0.005 -2.137,0.767 -3.491,1.716 l -2.464,1.726 2.196,-3.476 c 1.904,-3.012 2.877,-3.561 7.307,-4.124 2.81,-0.357 5.382,-0.921 5.715,-1.254 0.333,-0.333 -1.496,-0.318 -4.065,0.035 -2.569,0.352 -4.671,0.334 -4.671,-0.039 0,-0.373 1.851,-3.13 4.113,-6.127 3.27,-4.331 4.551,-5.338 6.25,-4.916 1.175,0.293 3.937,0.075 6.137,-0.484 l 4,-1.015 -4.747,0.535 c -2.611,0.295 -5.192,0.261 -5.736,-0.075 -0.549,-0.34 1.116,-3.459 3.747,-7.02 3.569,-4.83 5.352,-6.423 7.236,-6.465 1.375,-0.031 3.175,-0.499 4,-1.04 1.056,-0.692 0.495,-0.79 -1.899,-0.33 l -3.399,0.654 2.619,-4.405 c 2.368,-3.984 3.075,-4.467 7.399,-5.054 l 4.78,-0.65 -5.251,0.15 c -2.887,0.082 -5.25,-0.256 -5.25,-0.751 10e-4,-0.495 1.22,-3.308 2.71,-6.25 l 2.709,-5.35 5.541,-0.18 5.541,-0.18 -4.75,-0.375 c -2.612,-0.206 -4.75,-0.721 -4.75,-1.145 0,-0.424 1.075,-1.781 2.389,-3.015 2.713,-2.549 12.029,-3.648 14.611,-1.723 0.825,0.615 0.038,-0.585 -1.75,-2.667 -1.788,-2.081 -3.24,-4.331 -3.228,-5 0.042,-2.304 3.716,-6.01 8.04,-8.11 2.385,-1.158 4.527,-2.724 4.762,-3.48 0.234,-0.756 -0.53,-0.419 -1.699,0.75 -3.529,3.529 -4.559,2.383 -1.247,-1.388 1.696,-1.933 3.78,-4.858 4.629,-6.5 1.083,-2.095 2.283,-2.987 4.019,-2.987 1.361,0 2.474,-0.388 2.474,-0.861 0,-0.474 -1.148,-0.642 -2.551,-0.374 -2.368,0.453 -2.499,0.284 -1.837,-2.355 0.392,-1.564 1.54,-3.73 2.551,-4.815 1.01,-1.085 1.837,-2.508 1.837,-3.162 0,-0.655 1.277,-1.719 2.837,-2.366 5.006,-2.073 12.89,-11.05 15.632,-17.797 2.959,-7.283 3.152,-11.077 0.869,-17.054 -1.842,-4.825 -1.177,-4.733 -12.022,-1.665 -5.09,1.44 -9.798,5.541 -9.047,7.881 0.188,0.587 -1.82,3.044 -4.463,5.459 -4.7,4.295 -4.806,4.335 -4.806,1.809 0,-1.42 -0.346,-2.796 -0.768,-3.057 -0.423,-0.261 -0.623,1.175 -0.445,3.191 0.269,3.051 -0.399,4.599 -3.982,9.231 -2.368,3.061 -5.356,6.661 -6.64,8 -1.284,1.339 -5.706,7.835 -9.827,14.435 -4.121,6.6 -7.908,12.427 -8.415,12.95 -0.567,0.583 -0.982,-1.927 -1.077,-6.5 l -0.154,-7.45 -0.673,9.5 c -0.573,8.097 -1.135,10.312 -3.806,15 -1.724,3.025 -4.484,7.075 -6.133,9 l -2.999,3.5 -0.111,-4 c -0.061,-2.2 -0.486,-4.9 -0.945,-6 -0.507,-1.215 -0.621,0.256 -0.29,3.747 0.502,5.303 0.33,5.959 -2.225,8.5 -1.524,1.514 -4.233,4.917 -6.021,7.563 l -3.251,4.81 -1.052,-4.81 -1.052,-4.81 0.551,5.772 c 0.628,6.579 0.457,6.913 -12.094,23.728 l -7.091,9.5 -0.625,-4.5 c -0.614,-4.414 -0.622,-4.398 -0.41,0.844 0.204,5.078 -0.017,5.602 -4.44,10.5 -2.56,2.836 -5.416,6.273 -6.347,7.638 -1.641,2.408 -1.678,2.244 -1.216,-5.5 0.547,-9.177 -0.041,-8.157 -0.973,1.688 -0.573,6.052 -0.926,6.872 -3.81,8.856 -1.748,1.203 -7.004,6.815 -11.679,12.473 l -8.5,10.286 -0.303,-4.358 c -0.167,-2.398 0.195,-5.387 0.805,-6.643 1.061,-2.187 1.042,-2.201 -0.447,-0.343 -1.003,1.252 -1.555,3.991 -1.555,7.715 0,4.916 -0.424,6.263 -2.853,9.059 -1.57,1.807 -3.386,4.297 -4.036,5.535 -0.65,1.238 -1.962,2.25 -2.916,2.25 -3.043,0 -13.421,18.029 -17.371,30.179 -1.449,4.454 -2.78,6.838 -3.998,7.156 -2.189,0.573 -2.196,0.456 -0.354,-5.614 0.797,-2.629 1.946,-9.604 2.551,-15.5 0.942,-9.164 1.533,-11.374 4.071,-15.221 l 2.969,-4.5 -3.065,3.5 -3.066,3.5 0.588,-11.327 c 0.588,-11.33 1.425,-15.403 3.418,-16.635 0.584,-0.361 1.062,-1.165 1.062,-1.788 0,-0.623 -0.667,-0.259 -1.482,0.809 -1.377,1.803 -1.439,1.691 -0.877,-1.559 0.586,-3.384 1.07,-4.037 5.022,-6.77 1.583,-1.095 1.514,-1.119 -0.499,-0.169 -1.284,0.605 -2.47,0.952 -2.634,0.77 -0.165,-0.182 0.616,-4.679 1.735,-9.993 l 2.035,-9.662 4.35,-1.218 c 2.392,-0.67 4.35,-1.586 4.35,-2.037 0,-0.45 -1.561,-0.167 -3.468,0.63 -1.907,0.797 -3.932,1.449 -4.5,1.449 -1.886,0 -1.066,-5.332 1.218,-7.928 2.027,-2.305 2.041,-2.382 0.135,-0.782 -2.063,1.732 -2.145,1.704 -3.321,-1.135 -1.033,-2.494 -0.82,-4.145 1.494,-11.565 2.534,-8.129 2.964,-8.812 7.07,-11.218 2.405,-1.409 4.372,-2.789 4.372,-3.066 0,-0.277 -1.632,0.459 -3.626,1.636 -1.994,1.177 -3.777,1.989 -3.96,1.805 -1.004,-1.004 1.197,-5.021 3.461,-6.317 2.138,-1.224 2.22,-1.395 0.443,-0.921 -2.084,0.556 -2.135,0.412 -1.142,-3.213 1.471,-5.366 2.636,-7.267 5.139,-8.381 2.143,-0.953 2.139,-0.962 -0.164,-0.511 -2.008,0.394 -2.264,0.144 -1.764,-1.722 0.322,-1.2 0.592,-3.135 0.599,-4.299 0.009,-1.338 1.424,-3.051 3.846,-4.653 4.814,-3.186 11.533,-9.388 8.505,-7.851 -1.189,0.604 -2.314,1.459 -2.5,1.901 -0.515,1.227 -7.832,6.558 -8.325,6.065 -0.238,-0.238 0.525,-3.035 1.697,-6.215 1.841,-4.999 2.648,-5.989 5.96,-7.314 2.107,-0.843 3.831,-1.96 3.831,-2.481 0,-0.522 -1,-0.248 -2.223,0.608 -4.342,3.042 -4.752,1.759 -1.67,-5.22 2.427,-5.493 3.836,-7.309 7.443,-9.592 2.448,-1.548 4.45,-3.025 4.45,-3.282 0,-0.546 -1.438,0.244 -5.25,2.883 -1.513,1.047 -2.75,1.634 -2.75,1.304 0,-1.727 3.044,-7.536 3.949,-7.536 0.578,0 1.051,-0.477 1.051,-1.059 0,-0.582 -0.404,-0.809 -0.897,-0.504 -0.494,0.305 0.547,-3.156 2.312,-7.691 l 3.21,-8.246 5.687,-1.82 c 3.129,-1.001 5.688,-2.204 5.688,-2.673 0,-0.47 -1.237,-0.265 -2.75,0.454 -1.513,0.718 -3.974,1.589 -5.469,1.934 l -2.72,0.628 2.002,-4.762 c 1.101,-2.618 2.888,-5.508 3.97,-6.421 1.082,-0.913 1.967,-1.981 1.967,-2.373 0,-0.391 -0.668,-0.158 -1.483,0.519 -2.946,2.445 -4.265,-6.713 -1.511,-10.486 0.401,-0.55 1.528,-3.446 2.504,-6.436 1.005,-3.08 3.122,-6.736 4.882,-8.434 1.71,-1.648 2.32,-2.41 1.358,-1.691 -2.427,1.811 -2.217,0.734 1.379,-7.067 3.403,-7.383 3.529,-7.452 15.024,-8.15 2.008,-0.122 3.463,-0.53 3.231,-0.906 -0.231,-0.376 -1.987,-0.489 -3.902,-0.25 -1.915,0.239 -5.037,0.627 -6.937,0.864 l -3.454,0.43 2.606,-5.68 c 1.433,-3.124 3.035,-6.805 3.559,-8.18 0.525,-1.375 1.553,-3.85 2.284,-5.5 0.731,-1.65 1.365,-6.086 1.409,-9.858 0.074,-6.347 0.342,-7.164 3.602,-10.973 4.98,-5.818 8.26,-18.593 8.44,-32.869 0.134,-10.626 -1.296,-12.8 -8.423,-12.8 -3.707,0 -4.756,0.456 -6.416,2.786 m -35.152,62.597 c 0,1.073 2.975,6.617 3.551,6.617 0.275,0 -0.243,-1.463 -1.152,-3.25 -1.857,-3.65 -2.399,-4.411 -2.399,-3.367 m -331,40.01 c 0,0.216 0.698,0.661 1.552,0.989 0.89,0.341 1.291,0.173 0.941,-0.393 -0.587,-0.951 -2.493,-1.406 -2.493,-0.596 m 4.083,1.938 c 1.733,1.376 9.84,5.353 9.373,4.598 -0.619,-1.001 -7.857,-4.929 -9.083,-4.929 -0.388,0 -0.519,0.149 -0.29,0.331 m 426.952,57.603 c -1.304,2.438 -1.319,3.36 -0.04,2.569 1.606,-0.992 3.224,-4.503 2.075,-4.503 -0.55,0 -1.465,0.87 -2.035,1.934 m -187.031,7.562 c -1.29,1.373 -2.156,2.664 -1.925,2.868 0.232,0.205 1.468,-0.918 2.747,-2.496 2.863,-3.53 2.359,-3.758 -0.822,-0.372 M 34.869574,188.028 c 0,0.784 6.933,2.372 7.571,1.735 0.201,-0.202 -1.42,-0.843 -3.603,-1.426 -2.182,-0.582 -3.968,-0.722 -3.968,-0.309 m 210.812996,8.655 c 0.721,0.289 1.584,0.253 1.916,-0.079 0.332,-0.332 -0.258,-0.568 -1.312,-0.525 -1.165,0.048 -1.402,0.285 -0.604,0.604 m 322.361,8.631 c -1.196,1.273 -2.174,2.554 -2.174,2.846 0,0.293 1.955,0.489 4.345,0.436 l 4.345,-0.096 -2.033,-2.75 c -1.118,-1.512 -2.095,-2.75 -2.171,-2.75 -0.075,0 -1.116,1.042 -2.312,2.314 m -324.256,11.049 c 1.331,1.64 5.082,4.12 5.082,3.36 0,-0.191 -1.462,-1.418 -3.25,-2.726 -2.011,-1.472 -2.71,-1.714 -1.832,-0.634 m -141.896,9.265 c 0.012,0.479 0.894,1.997 1.96,3.372 1.842,2.376 1.91,2.39 1.37,0.283 -0.569,-2.221 -3.372,-5.297 -3.33,-3.655 M 279.86957,264 c -0.589,1.1 -0.845,2 -0.57,2 0.275,0 0.981,-0.9 1.57,-2 0.589,-1.1 0.845,-2 0.57,-2 -0.275,0 -0.981,0.9 -1.57,2 m 89.441,42.445 c 1.068,0.855 2.38,1.555 2.917,1.555 1.27,0 0.703,-0.462 -2.358,-1.92 -2.357,-1.122 -2.389,-1.102 -0.559,0.365 m -2.441,0.832 c 0,0.191 1.462,1.418 3.25,2.726 2.011,1.472 2.71,1.714 1.832,0.634 -1.331,-1.64 -5.082,-4.12 -5.082,-3.36 m 70.564,3.43 c -0.542,1.425 -0.428,1.54 0.56,0.56 0.684,-0.679 0.991,-1.486 0.683,-1.793 -0.308,-0.308 -0.867,0.247 -1.243,1.233 m -6.529,42.227 c -0.569,1.064 -1.035,2.527 -1.036,3.25 0,0.724 -1.35,4.169 -3,7.656 -3.453,7.3 -3.421,7.16 -1.677,7.16 1.379,0 4.321,-6.006 7.07,-14.428 1.895,-5.808 1.868,-5.572 0.643,-5.572 -0.53,0 -1.43,0.87 -2,1.934 m -9.934,22.143 c -1.251,1.693 -4.349,4.393 -6.884,6 -2.581,1.637 -3.854,2.923 -2.893,2.923 3.408,0 14.676,-8.558 14.676,-11.146 0,-1.916 -2.768,-0.66 -4.899,2.223 m -21.682,11.964 c -3.344,1.06 -6.862,2.792 -7.818,3.847 -1.453,1.606 -0.242,1.379 7.403,-1.389 5.027,-1.821 9.408,-3.578 9.735,-3.905 1.152,-1.152 -3.308,-0.46 -9.32,1.447 m -14.919,6.959 -3,0.763 2.691,0.119 c 1.48,0.065 2.969,-0.332 3.309,-0.882 0.34,-0.55 0.479,-0.947 0.309,-0.882 -0.17,0.065 -1.659,0.462 -3.309,0.882 M 90.682574,488.683 c 0.721,0.289 1.584,0.253 1.916,-0.079 0.332,-0.332 -0.258,-0.568 -1.312,-0.525 -1.165,0.048 -1.402,0.285 -0.604,0.604 m 342.137996,3.802 c 1.127,2.192 2.085,5.342 2.128,7 0.043,1.658 0.314,2.428 0.601,1.711 0.862,-2.152 -0.589,-7.53 -2.751,-10.196 -2.014,-2.484 -2.014,-2.474 0.022,1.485 m -41.623,67.518 c 2.433,5.223 5.464,12.749 6.737,16.724 1.273,3.975 2.505,7.037 2.738,6.803 0.871,-0.871 -4.113,-15.311 -7.949,-23.03 -5.676,-11.423 -6.782,-11.783 -1.526,-0.497 m 193.172,33.312 c 1.65,0.771 3.188,1.24 3.417,1.043 0.721,-0.62 -0.322,-1.175 -3.419,-1.82 l -2.998,-0.624 3,1.401 m -417.894,40.533 -1.894,2.652 2.338,-2.222 c 1.287,-1.222 2.139,-2.416 1.894,-2.652 -0.244,-0.237 -1.296,0.763 -2.338,2.222 m 26.515,3.152 c -0.017,0.825 0.587,2.85 1.343,4.5 1.768,3.862 1.794,2.066 0.036,-2.5 -0.741,-1.925 -1.362,-2.825 -1.379,-2 m 35.895,18.057 c -1.917,1.069 -4.579,1.943 -5.917,1.943 -1.338,0 -2.153,0.279 -1.812,0.62 1.059,1.06 7.089,-0.566 9.713,-2.62 3.14,-2.456 2.491,-2.438 -1.984,0.057 m 157.816,20.443 c -0.349,2.2 -0.911,4.9 -1.248,6 -0.337,1.1 0.093,0.481 0.956,-1.376 0.863,-1.857 1.424,-4.557 1.248,-6 -0.259,-2.116 -0.444,-1.849 -0.956,1.376 m -231.391,28.055 c -1.864,1.494 -1.852,1.512 0.309,0.465 1.238,-0.6 2.25,-1.3 2.25,-1.555 0,-0.765 -0.519,-0.544 -2.559,1.09"
     stroke="none"
     fill="#000000"
     fill-rule="evenodd"
     id="path2" />
</svg>
