<?xml version="1.0" encoding="UTF-8" standalone="no"?>
<!-- Created with Inkscape (http://www.inkscape.org/) -->

<svg
   version="1.2"
   width="835"
   height="1471"
   viewBox="0 0 835 1471"
   id="Layer_1"
   xml:space="preserve"
   style="overflow:inherit"
   xmlns="http://www.w3.org/2000/svg"
   xmlns:svg="http://www.w3.org/2000/svg"><defs
   id="defs7" />
<path
   d="m 0,162 c 5.791,1.458 6.338,-2.329 11,-2 0.395,1.72 -1.484,2.563 0,3 7.71,-1.956 16.55,-2.783 24,-5 -1.496,-0.17 -3.69,0.357 -4,-1 1.753,-0.914 4.99,-0.344 6,-2 -6.51,-0.823 -17.229,2.563 -18,-4 6.974,0.974 7.102,-4.898 15,-3 1.411,-4.411 -5.984,-0.016 -6,-3 2.174,-2.16 9.01,0.343 10,-3 -3.729,-0.604 -9.093,0.426 -10,-3 4,0 8,0 12,0 -0.774,-5.088 -6.467,-1.383 -5,-7 -6.28,-0.538 -7.828,-1.316 -13,-4 6.241,-3.58 15.243,6.425 21,0 -0.726,-2.274 -6.921,0.921 -6,-3 0.788,-3.546 5.23,-3.436 6,-7 1.018,-0.028 11.509,0.876 14,-1 -8.509,-1.157 -15.938,-3.395 -20,-9 4.134,0.866 5.958,4.042 12,3 -2.883,-2.806 -11.119,-5.518 -9,-10 4.859,7.635 19.292,9.93 27,9 -4.442,-1.558 -10.822,-1.178 -12,-6 6.604,-1.598 16.42,5.628 24,5 -12.466,-6.486 -22.706,-6.296 -32,-13 5.039,-0.807 12.179,4.317 20,4 -8.024,-5.149 -18.466,-15.168 -27,-23 6.76,1.907 9.565,7.768 18,8 -4.884,9.161 11.189,6.657 13,13 3.19,0.857 3.093,-1.574 5,-2 0.321,6.679 8.763,5.237 12,9 C 80.825,93.623 66.977,94.798 58,86 c 9.658,-0.647 15.225,8.095 23,6 -6.226,-4.774 -15.331,-6.669 -18,-15 8.151,1.857 14.679,10.643 23,9 -7.765,-2.902 -14.651,-6.683 -20,-12 -2.804,0.445 -1.946,1.344 -5,3 -1.25,-3.652 -2.449,-1.147 -4,-4 15.294,-1.878 18.35,8.906 29,7 -3.578,-0.782 -5.84,-6 -6,-2 -0.895,-5.058 -4.139,-2.981 -6,-8 3.766,-1.053 4.554,4.334 6,0 -4.486,-5.126 -9.209,-7.168 -13,-11 6.374,-0.63 15.581,8.611 19,11 4.359,-8.372 -10.475,-13.034 -16,-18 9.103,-1.765 9.948,4.272 13,7 7.724,6.904 18.612,13.716 26,20 1.117,3.199 -0.214,1.887 2,3 0.17,1.496 -0.357,3.69 1,4 0.156,-1.177 -0.172,-2.838 1,-3 2.727,2.273 3.136,6.864 7,8 -3.725,-15.081 -23.562,-17.025 -29,-35 -4.517,-1.171 -7.599,-5.647 -8,-9 8.657,3.358 16.006,24.295 25,21 -3.293,-0.374 -3.811,-3.522 -5,-6 10.534,7.984 16.449,14.424 26,23 0.928,-3.928 -3.477,-2.523 -2,-7 -7.298,-2.779 -9.479,-11.968 -14,-17 -3.15,-3.506 -12.308,-6.237 -7,-11 -0.57,4.779 4.447,3.88 5,3 -1.611,0.428 -3.356,-3.728 -1,-4 15.038,20.819 29.883,38.569 45,55 -8.39,-16.328 -18.116,-28.859 -29,-43 0.191,0.248 1.682,-1.256 1,-2 -2.313,-2.524 -10.187,-6.405 -8,-12 1.708,1.626 3.542,3.124 5,5 3.354,-2.076 -2.417,-3.409 0,-4 1.003,0.003 1.19,-0.81 2,-1 5.491,11.548 15.712,26.925 26,37 -6.178,-16.956 -18.982,-29.828 -23,-47 5.399,1.954 7.569,14.84 14,19 -2.86,-4.312 -3.969,-13.993 -8,-14 1.387,-1.613 0.845,-5.155 3,-6 2.521,10.145 7.376,17.957 12,26 -1.003,0.003 -1.19,-0.81 -2,-1 4.275,6.877 8.932,12.209 9,20 7.343,2.61 5.671,11.848 11,15 -2.283,-25.675 -19.588,-45.519 -23,-61 4.619,2.67 5.295,11.335 9,12 2.134,-1.694 -6.03,-9.397 0,-12 6.578,18.854 14.644,40.089 21,56 -0.556,-23.705 -18.579,-41.012 -14,-58 1.665,1.668 -0.635,7.302 3,7 0.587,-3.97 -0.857,-11.077 0,-12 3.984,9.683 2.417,24.917 11,30 -1.436,-11.569 -8.987,-22.339 -5,-36 -0.025,10.7 3.313,23.343 9,25 -1.673,-1.417 -1.988,-9.93 1,-10 1.393,15.222 5.495,23.463 9,35 1.405,-14.231 -5.659,-30.124 -2,-40 1.263,4.737 1.184,10.816 4,14 3.759,-17.43 -13.233,-19.427 -12,-31 21.615,14.642 19.09,59.587 24,94 7.159,-18.136 2.791,-45.635 1,-66 -1.22,3.063 -1.963,-7.88 0,-8 4.709,-0.329 1.741,12.473 5,5 0.875,4.259 -3.062,8.871 0,12 1.703,-5.964 0.329,-15.005 5,-18 -0.07,8.049 -3.738,18.729 -2,23 0.917,2.254 2.665,1.306 3,4 1.762,14.172 -3.596,27.162 1,42 5.832,-16.976 5.096,-42.589 10,-63 0,5 0,10 0,15 4.64,-3.36 1.867,-14.133 8,-16 -0.573,19.439 -5.716,30.893 -6,52 1.824,-4.072 9.714,-20.167 5,-26 6.523,1.041 2.583,-10.489 7,-16 3.946,-4.923 10.428,-6.056 13,-13 -0.776,3.891 -0.649,8.685 -5,9 4.362,14.592 -6.409,22.089 -6,36 -4.345,1.586 -3.74,12.913 -9,15 1.891,0.224 2.206,-1.127 4,-1 0,2.333 0,4.667 0,7 -4.505,-0.868 -4.629,1.673 -2,3 -3.146,1.146 -2.43,-1.57 -4,-2 -1.599,8.098 4.422,9.183 0,13 -0.228,-1.772 1.008,-5.008 -2,-4 0.254,5.317 0.981,8.239 2,11 12.229,-19.147 20.939,-47.827 36,-64 0.368,7.702 -6.036,8.631 -6,16 2.299,-0.824 4.908,-3.974 3,-6 4.679,2.393 7.869,-9.91 13,-7 -12.207,11.793 -19.427,28.573 -28,44 0.012,1.322 1.753,0.914 2,2 -1.891,0.224 -2.207,-1.127 -4,-1 0.921,5.618 -5.847,8.779 -3,13 9.077,-15.778 24.716,-33.145 38,-48 4.155,1.222 5.975,-4.996 8,0 -7.885,-1.358 -5.125,9.374 -9,5 0.748,3.081 -3.448,1.219 -2,5 2.399,-0.659 6.184,-5.073 8,-3 -10.915,11.752 -23.925,21.409 -31,37 -3.265,-0.265 -2.12,3.88 -5,4 0.005,7.069 -11.077,12.373 -7,17 -0.568,-5.536 9.171,-8.142 5,-11 9.264,-5.657 19.461,-14.84 25,-23 9.249,0.238 13.545,-18.443 23,-18 -1.526,1.593 -7.962,7.413 -4,8 3.329,-1.038 6.451,-7.503 10,-5 -13.411,12.256 -27.439,23.894 -40,37 12.131,-6.738 23.151,-17.482 34,-24 1.227,-1.474 8.98,-10.318 15,-7 -5.33,2.004 -9.351,5.316 -12,10 4.562,-2.454 13.65,-5.662 18,-5 -2.384,0.95 -2.966,3.701 -7,3 0,1.667 0,3.333 0,5 6.052,-3.269 13.256,-9.635 20,-9 -3.603,5.064 -11.702,5.631 -15,11 8.604,0.271 9.67,-6.997 18,-7 -0.725,-3.059 1.725,-2.941 1,-6 6.13,2.778 4.891,-3.377 7,-7 1.029,4.75 3.189,10.204 0,14 -3.564,-7.818 -6.3,2.878 -12,2 -1.519,5.009 -2.674,16.087 4,16 1.147,-4.33 -0.872,-6.622 2,-8 -0.404,4.404 -0.267,8.267 5,7 -4.545,-4.845 2.636,-8.636 -3,-10 2.945,-0.388 1.955,-4.711 4,-6 5.062,1.327 -2.429,9.041 3,10 3.093,-0.24 -1.563,-8.23 3,-7 2.556,4.7 -6.223,15.611 1,18 2.955,-2.378 -0.955,-11.622 2,-14 4.111,1.842 -0.588,7.708 3,11 2.094,-4.573 1.831,-11.502 5,-15 2.65,10.517 -6.762,15.643 -3,28 3.761,-3.905 2.537,-12.796 5,-18 1.293,3.04 4,4.666 3,10 3.329,-6.004 6.087,-12.579 8,-20 2.113,10.211 -7.243,22.681 -4,34 2.615,-3.69 7.835,-16.338 3,-18 7.491,0.824 4.079,-9.254 9,-11 -0.15,12.849 -7.932,18.068 -7,32 -1.003,0.003 -1.19,-0.81 -2,-1 2.175,9.191 -3.854,15.458 -1,22 5.957,-13.377 6.873,-31.794 15,-43 1.078,10.024 -8.815,18.8 -3,27 4.722,-9.362 7.077,-18.754 3,-29 3.412,-6.363 2.381,-22.139 1,-30 2.182,0.182 3.182,-0.818 3,-3 1.572,-24.761 3.55,-49.117 11,-68 4.069,1.289 6.406,9.561 7,11 -0.787,-3.433 0.935,-5.154 3,-3 0.642,-4.025 -1.3,-10.633 1,-13 1.961,2.099 0.318,7.087 3,6 -4.819,4.698 1.022,7.433 1,13 4.219,1.552 -0.219,-5.552 4,-4 -2.365,6.564 5.853,2.541 6,4 -1.062,0.416 -2.322,5.483 -1,5 3.24,-4.134 0.609,5.979 4,5 -0.599,-2.599 0.401,-3.599 3,-3 0.689,5.813 -0.596,7.43 -2,9 6.24,-1.262 4.862,-7.735 8,-10 -0.055,5.569 -4.359,8.996 1,12 -3.437,5.229 -4.844,12.49 -7,19 3.368,-0.966 2.797,-5.869 5,-8 2.211,0.447 2.502,5.218 4,1 -5.938,-0.483 -0.005,-8.251 1,-11 1.173,4.008 2.686,4.693 6,2 -0.643,7.67 -10.896,15.341 -7,21 -0.2,-5.613 1.676,-1.094 4,-1 -0.299,-1.966 1.351,-1.983 2,-3 -1.862,-0.956 -3.342,2.995 -4,0 2.814,-7.852 8.827,-12.506 13,-19 2.251,7.761 -8.014,11.189 -10,18 4.776,-0.558 3.936,-6.731 9,-7 -2.496,6.504 -7.611,10.389 -9,18 4.396,-1.938 5.91,-6.756 7,-12 4.475,-1.035 11.235,-7.968 15,-13 -1.432,8.338 -7.471,11.183 -11,15 3.296,2.955 4.997,-2.504 7,0 -2.804,5.529 -7.085,9.582 -11,14 7.065,1.233 10.454,-9.424 14,-15 -1.177,-0.157 -2.839,0.172 -3,-1 2.76,-0.24 1.062,-4.937 3,-6 6.91,-1.434 0.613,5.137 5,5 1.233,-0.689 2.751,-5.481 6,-7 -3.115,3.06 4.828,7.374 1,11 -2.652,0.319 0.936,-5.602 -3,-4 -1.576,0.09 -0.783,2.55 -3,2 1.479,20.304 16.717,29.851 26,45 -2.877,-12.42 -11.855,-22.852 -17,-38 -1.721,-0.395 -2.563,1.484 -3,0 2.784,0.451 -0.784,-5.451 2,-5 3.597,3.012 6.838,14.987 10,12 -0.523,4.233 2.489,10.119 5,8 -3.011,-6.762 -3.76,-4.468 -5,-13 -2.729,-0.09 -2.013,1.666 -4,0 5.326,-2.814 -4.239,-10.623 2,-14 -0.918,7.251 2.244,10.422 5,14 5.892,-5.013 -5.258,-11.702 -1,-18 3.032,7.968 5.818,16.181 12,21 -0.023,-3.643 -2.563,-4.77 -4,-7 4.689,-2.881 -2.982,-6.434 1,-14 3.071,3.098 0.846,16.112 8,18 -2.043,-7.403 -7.73,-17.995 -3,-26 -0.291,7.624 4.145,10.522 3,19 5.305,-2.029 -1.122,-15.789 4,-18 0.718,4.949 1.373,9.96 1,16 4.926,1.029 4.572,15.627 5,21 4.629,-4.238 -0.866,10.156 4,9 -1.32,-17.357 -10.897,-43.644 -1,-63 0.532,8.545 -2.973,18.343 0,26 1.688,-3.646 -0.909,-11.576 3,-13 2.4,18.476 4.324,41.589 7,54 1.529,-26.32 -5.982,-52.284 1,-75 3.438,10.229 -2.047,29.38 3,38 0.277,-13.39 1.968,-25.366 4,-37 1.427,0.239 1.687,1.646 3,2 -0.861,-8.469 5.557,-14.803 1,-21 1.332,1.001 3.018,1.648 4,3 -1.316,13.688 -6.797,28.531 -3,44 1.7,-6.448 1.104,-20.028 5,-21 0.559,-4.441 -1.742,-11.742 3,-12 -0.609,2.404 -0.509,11.507 1,15 2.658,-7.342 3.23,-16.77 9,-21 -2.566,7.245 -1.052,13.314 -1,22 2.904,-10.762 5.877,-21.457 10,-31 2.787,5.977 -1.763,15.699 -3,18 -0.684,5.532 1.799,4.096 4,5 1.287,-10.046 5.576,-17.091 9,-25 -0.841,8.894 -4.678,22.951 0,31 0.6,-10.382 1.187,-21.54 7,-29 -0.783,5.783 1.451,8.549 1,14 7.684,-2.983 3.612,-17.721 8,-24 3.39,9.588 -1.457,17.26 -2,26 3.604,0.545 1.684,4.454 5,7 1.27,-4.328 -4.457,-11.217 0,-7 0.633,-3.367 -1.288,-9.289 1,-11 1.966,-0.299 1.982,1.35 3,2 0.756,-5.911 2.919,-10.415 5,-15 0.027,8.361 -3.39,13.277 -2,23 3.944,0.611 1.176,-5.49 2,-8 4.527,1.861 1.738,-3.595 4,-4 0.168,1.165 1.581,1.086 3,1 1.168,5.166 -2.439,15.106 2,17 -0.91,-13.244 4.122,-20.544 7,-30 0.05,6.05 0.591,12.591 -2,16 3.613,-0.947 1.395,3.938 2,6 5.082,-5.475 2.418,-12.761 7,-18 0,3.333 0,6.667 0,10 2.279,1.373 3.759,-2.578 4,0 -3.47,-0.469 -0.573,5.427 -3,6 -2.652,0.319 0.936,-5.602 -3,-4 -1.483,5.15 3.033,4.301 2,9 4.209,1.542 0.159,-5.174 3,-5 3.599,2.625 2.073,7.753 2,12 4.789,-3.211 3.482,-12.518 8,-16 5.938,-0.357 5.982,-4.909 9,-10 4.441,2.492 -2.706,8.639 -1,12 -0.113,-1.22 -0.299,-2.368 -2,-2 0.599,2.599 -0.401,3.599 -3,3 -0.708,3.708 1.708,4.292 1,8 1.811,2.704 0.168,-6.42 3,-6 7.62,-0.393 7.574,-13.742 14,-12 -4.089,3.578 -6.611,8.722 -9,14 4.771,-0.711 2.243,5.162 5,4 2.177,11.156 -12.527,12.384 -10,23 2.043,-4.957 5.47,-8.531 10,-11 -2.509,7.436 -10.794,16.453 -14,19 1.481,5.815 -3.1,5.567 -2,11 5.537,-8.796 10.062,-18.605 18,-25 -2.486,10.18 -11.758,13.576 -13,25 3.09,-0.243 2.4,-4.267 5,-5 0.299,-1.966 -1.351,-1.983 -2,-3 1.78,-0.598 4.152,2.931 5,0 -2.51,-0.426 0.96,-2.857 3,-2 1.298,-2.48 -2.231,-4.853 0,-5 3.264,3.466 6.63,-5.426 9,-3 -5.28,7.72 -11.678,14.322 -18,21 0.61,0.057 1.184,0.149 1,1 1.278,0.055 1.385,1.282 3,1 -2.908,-6.539 3.635,-0.681 1,-6 7.107,-0.461 4.941,-6.866 13,-10 -0.399,6.934 -7.021,7.645 -9,13 5.777,-1.571 9.983,-9.997 15,-9 -6.623,8.675 -11.544,8.015 -15,18 5.625,-3.718 12.271,-11.716 19,-11 -2.715,4.951 -11.221,4.112 -12,11 11.591,-7.076 26.904,-10.429 26,-30 9.15,13.233 -8.283,28.25 -19,28 -0.194,3.139 -3.955,2.711 -3,7 2.279,1.373 3.759,-2.578 4,0 -2.535,5.114 -6.001,4.877 -8,9 2.743,2.013 5.497,-2.646 8,-4 2.203,5.497 7.87,-2.67 10,0 -2.162,2.838 -5.935,4.065 -11,4 -2.662,5.463 -17.18,9.318 -14,14 2.2,-1.555 8.355,-9.904 18,-9 -0.145,1.182 -1.78,2.267 0,3 0.261,-1.556 2.193,-0.693 3,0 0.395,-1.72 -1.484,-2.563 0,-3 2.072,0.595 6.569,-1.236 7,1 -1.078,2.588 -8.296,-0.962 -7,4 2.323,-0.543 8.09,-0.647 11,1 -23.317,3.088 -33.47,13.666 -53,21 16.912,-2.377 31.615,-13.214 47,-7 -8.331,0.145 -13.494,1.841 -20,4 0.708,-0.235 -7.45,0.343 -6,4 2.068,2.111 7.371,-2.133 10,0 2.449,-1.329 -1.1,-3.721 1,-4 2.725,2.942 12.814,-1.48 14,3 -5.138,-0.138 -9.854,0.146 -13,2 4.185,2.815 14.858,-0.858 19,2 -17.476,2.857 -35.888,4.779 -49,12 11.394,0.642 23.748,-7.915 39,-5 -1.893,1.774 -6.604,0.729 -10,1 0.414,5.252 12.464,-1.13 13,4 -0.994,2.673 -8.659,-1.326 -8,3 3.367,0.633 9.288,-1.289 11,1 -3.939,3.727 -18.147,-2.814 -19,4 5.349,0.651 13.312,-1.313 17,1 -4.153,0.138 -0.202,0.658 0,2 -5.027,3.317 -24.591,-2.606 -22,5 5.984,-1.107 15.752,-2.93 20,0 -6.138,2.195 -17.066,-0.399 -21,4 4.485,1.454 16.295,-3.673 23,0 -0.055,1.278 -1.282,1.385 -1,3 -11.256,0.648 -28.664,1.422 -42,5 18.351,3.187 33.354,-7.667 43,3 -5.125,-2.595 -13.977,0.494 -18,-1 0.238,5.095 9.418,1.249 12,4 -7.162,3.504 -23.447,-2.113 -29,3 16.738,0.928 32.57,2.764 46,7 -16.271,0.83 -22.871,-4.222 -36,-1 4.547,1.543 9.031,1.07 13,0 -2.656,5.949 12.655,1.798 13,8 -9.929,-2.41 -23.552,-6.44 -36,-3 18.643,-1.098 31.303,11.475 47,7 -15.639,10.25 -27.651,-7.157 -46,-4 5.398,3.602 10.808,7.193 20,7 -0.729,2.729 1.987,2.013 2,4 -2.306,-0.306 -1.111,2.889 -3,3 -0.138,-4.153 -0.658,-0.202 -2,0 0.039,-6.443 -6.222,-3.665 -10,-5 -15.516,-5.48 -34.747,-12.184 -49,-16 6.759,3.99 14.523,10.463 23,12 1.137,0.206 3.688,-1.4 5,-1 0.699,0.213 1.661,2.861 2,3 1.826,0.747 4.61,-0.638 7,0 4.938,1.318 9.806,5.741 14,7 2.918,0.876 9.23,-1.712 7,3 3.146,0.479 3.909,-1.424 6,-2 -1.957,1.869 -0.309,3.663 0,6 -2.432,-0.649 -7.837,0.674 -5,2 1.595,-3.679 -0.229,4.045 3,2 1.946,-3.505 5.244,-4.724 7,-6 3.236,5.031 -6.709,4.29 -6,10 2.66,2.753 3.504,-0.734 6,-1 0.375,2.292 4,1.333 5,3 -12.984,11.83 -18.604,24.86 -33,37 14.303,-3.069 21.369,-21.936 33,-31 0.075,-1.742 -0.224,-3.11 -1,-4 3.557,4.11 3.86,-6.883 8,-2 -1.519,1.815 -3.222,3.445 -4,6 3.855,-1.145 4.512,-5.488 8,-7 -0.128,7.206 -6.46,8.207 -8,14 8.693,-6.442 12.488,-12.571 19,-20 3.385,5.94 -10.828,8.479 -4,15 -3.949,4.324 -6.836,2.481 -11,9 7.713,0.046 8.267,-7.067 14,-9 1.236,-3.236 -3.236,-0.764 -2,-4 5.501,-0.188 7.387,-9.25 13,-6 -2.796,6.158 -10.002,4.385 -9,10 2.134,0.454 3.706,1.08 4,4 0.562,-3.438 4.911,-3.089 7,-5 -4.062,-1.949 5.168,-6.533 8,-3 1.062,-3.729 -3.75,-1.583 -3,-5 2.091,0.576 2.854,2.479 6,2 3.536,-2.464 11.857,-10.383 17,-7 -7.803,3.197 -15.434,6.566 -21,12 12.309,2.314 9.38,-5.741 21,-5 1.553,-4.219 -5.553,0.219 -4,-4 6.717,6.015 17.218,-3.92 23,2 -7.75,0.916 -16.454,0.879 -20,6 3.867,3.853 11.811,-5.5 15,1 -11.771,1.229 -19.275,6.724 -28,11 9.072,0.798 23.832,-10.107 37,-10 0.396,2.396 -4.555,-0.555 -3,3 5.922,-0.388 7.189,-1.296 13,1 0.877,3.21 -2.594,2.073 -3,4 2.868,-1.069 10.873,-4.459 13,0 -3.402,-0.069 -6.979,-0.312 -8,2 4.848,1.541 8.072,-1.461 11,2 -2.005,1.996 -8.106,-0.106 -9,3 5.349,0.651 13.312,-1.313 17,1 -10.352,2.083 -19.019,2.228 -29,6 11.2,2.19 18.946,-4.373 28,-1 -0.431,2.236 -4.928,0.405 -7,1 2.847,5.167 18.254,4.995 14,11 3.16,-0.16 6.035,-0.035 7,2 -1.007,2.66 -4.903,2.43 -6,5 9.09,-0.682 11.18,4.858 18,4 -3.709,-0.708 -4.291,1.708 -8,1 -1.302,3.948 3.669,2.42 1,5 -3.906,-2.762 -14.701,-4.679 -19,-1 12.326,1.407 18.535,-1.045 25,5 -2.835,2.981 -15.376,1.243 -17,4 11.52,1.82 16.309,4.814 26,9 -7.431,3.53 -11.771,-4.937 -17,-2 3.541,1.125 7.214,2.119 8,6 -4.64,-0.694 -6.773,-3.893 -13,-3 3.604,5.459 8.734,1.049 9,7 -5.153,2.096 -7.633,-3.624 -10,-1 2.693,1.307 4.596,3.404 7,5 -5.377,0.376 -7.307,-2.693 -11,-4 1.062,4.271 6.094,4.572 7,9 -4.478,1.477 -3.071,-2.928 -7,-2 0.979,3.355 5.166,3.501 7,6 -5.104,4.832 -5.954,-4.07 -12,-4 7.138,7.528 14.023,15.31 21,23 -1.431,-7.569 -5.475,-12.526 -9,-18 0.998,2.335 5.452,1.214 7,3 0.689,7.644 5.377,11.289 8,17 -6.083,0.254 -2.314,4.064 -3,5 -4.371,1.848 -8.433,-15.679 -14,-12 1.742,5.03 7.311,12.805 11,19 4.484,1.134 4.465,-5.241 8,-2 -3.087,3.914 -7.4,6.6 -15,6 -0.547,1.453 1.169,5.168 -1,5 -6.229,1.31 -9.386,-10.269 -15,-3 -0.175,2.841 6.542,-1.208 5,3 -5.229,1.229 -6.368,-1.632 -10,-2 -1.627,1.707 -5.613,1.053 -6,4 2.767,-0.125 3.434,-1.909 2,1 3.541,0.541 2.459,-3.541 6,-3 1.211,3.557 9.82,1.256 10,3 -2.244,3.756 -11.525,0.474 -12,6 6.969,0.126 4.725,-2.746 12,-2 -0.729,2.729 1.987,2.013 2,4 -3.555,-1.555 -0.604,3.396 -3,3 -3.326,1.007 -10.878,-2.211 -11,2 4.331,0.335 10.475,-1.142 12,2 -8.688,3.885 -15.808,-6.892 -21,1 6.636,-1.524 12.959,2.924 21,3 -0.573,2.427 -6.469,-0.469 -6,3 2.651,0.015 5.889,-0.555 6,2 -3.523,1.453 -4.64,0.04 -9,0 -0.156,1.177 0.172,2.838 -1,3 -9.754,0.081 -19.479,-0.555 -22,-5 -3.16,-0.16 -6.035,-0.035 -7,2 9.68,0.423 15.673,9.521 26,6 -2.535,7.66 7.322,5.319 10,10 -3.376,3.258 -3.572,-2.304 -8,-1 -0.16,2.827 3.004,2.329 3,5 -1.329,-1.298 -3.721,-1.318 -4,1 4.055,-0.583 3.176,4.113 1,5 -1.356,-5.564 -11.953,-8.967 -11,-15 -2.442,-2.535 -2.131,2.108 -6,1 0.171,-2.837 -3.382,-1.952 -2,-6 -6.108,-0.083 -3.595,-3.271 -9,-3 4.744,12.259 23.795,15.534 26,27 -0.328,-1.268 -1.938,-3.003 -5,-4 -0.395,1.721 1.484,2.563 0,3 -10.568,-8.099 -18.545,-18.789 -30,-26 9.548,12.634 19.295,19.207 29,32 -1.173,-0.283 -4.155,-4.405 -4,0 0.672,3.174 5.448,6.337 7,8 -3.485,0.466 -2.365,3.984 -3,5 -4.08,-6.635 -2.99,-7.537 -11,-11 -1.373,2.279 2.578,3.759 0,4 -7.24,-7.759 -11.694,-18.305 -21,-24 4.825,8.847 12.183,20.478 13,30 -1.363,-2.303 -3.134,-4.2 -6,-5 0.613,2.497 5.705,6.743 0,7 -0.069,-3.417 -1.893,-7.557 -1,-11 -0.297,0.886 -2.003,5.081 -3,2 -0.171,-2.837 3.382,-1.952 2,-6 -9.879,-11.428 -12.956,-25.267 -25,-33 6.541,10.322 9.057,19.046 18,26 -1.215,4.758 3.835,3.862 0,6 1.177,0.157 2.839,-0.172 3,1 -1.464,2.32 -3.17,-1.954 -3,2 2.556,2.439 2.722,9.184 6,8 -1.643,3.659 2.333,4.742 1,12 3.256,2.95 6.723,2.221 5,6 1.377,0.043 2.195,-0.471 3,-1 -3.69,4.42 3.829,4.313 3,9 -4.678,-2.139 -7.687,-4.887 -11,-6 5.113,-1.584 -7.467,-13.334 -9,-15 1.206,5.452 2.301,2.829 0,6 5.233,7.473 6.334,9.537 11,15 -6.646,-1.021 -3.095,1.646 -4,3 -2.758,-6.545 -10.22,-13.159 -11,-15 -0.43,-1.015 3.713,-7.953 -2,-9 3.891,1.803 -1.328,-1.375 1,-5 -9.586,-12.395 -11.252,-29.368 -23,-41 5.223,16.585 12.761,34.333 21,52 -7.99,7.254 4.969,17.065 1,22 -5.481,-5.518 -7.178,-14.823 -8,-25 -9.818,-16.921 -10.154,-38.453 -23,-51 4.839,20.178 18.66,40.311 15,70 -1.443,-8.828 -1.644,-23.317 -7,-25 -0.359,-10.646 -4.684,-25.979 -12,-33 1.316,6.159 4.686,8.945 4,19 2.453,9.695 9.727,17.746 8,30 -2.479,-1.667 -3.234,-3.724 -8,-5 -4.72,15.936 5.453,21.304 -2,28 0.805,-6.123 -6.29,-17.644 0,-17 0.642,-4.025 -1.3,-10.633 1,-13 3.962,-2.447 -1.118,1.493 3,1 -2.092,-8.922 -1.869,-22.558 -10,-28 -3.218,9.867 4.872,19.77 1,28 5.467,0.398 -0.324,-4.256 4,-5 0.438,4.365 -2.622,9.609 -3,16 -5.76,-15.841 -10.929,-42.039 -12,-56 -0.012,1.009 -1.753,1.258 -2,0 0.43,-1.57 3.146,-0.854 2,-4 -1.492,-1.433 -3.158,-4.857 -5,-3 -0.748,3.081 3.447,1.219 2,5 -5.678,13.235 8.847,33.63 1,49 -6.286,-15.716 -3.858,-39.841 -12,-46 0.07,18.531 5.582,35.699 3,50 -1.352,-2.427 -1.998,-0.623 -3,-2 1.266,-19.6 -5.528,-31.138 -9,-46 -1.098,17.101 1.309,36.021 2,48 -2.256,-5.196 -9.235,-12.045 -14,-6 -4.203,-14.763 0.953,-23.215 0,-41 -9.738,17.659 -2.086,48.592 -2,67 -0.168,-1.165 -1.581,-1.086 -3,-1 0.449,-7.267 0.069,-9.214 0,-17 -1.44,-2.213 -2.44,1.259 -3,-1 -1.759,-18.054 0.713,-39.112 1,-58 -3.236,1.236 -0.764,-3.236 -4,-2 1.292,5.238 0.278,6.879 2,12 -7.963,3.766 -1.007,19.015 -3,25 -4.53,1.53 0.53,-6.53 -4,-5 -2.913,8.823 0.902,17.059 0,25 -4.482,-0.851 0.557,-11.223 -4,-12 -2.155,0.845 0.375,6.375 -2,7 -5.012,-8.772 -0.573,-4.587 1,-14 1.661,-9.94 4.786,-29.189 -2,-32 -0.816,3.597 1.927,14.688 -2,12 0.083,11.75 -0.275,23.058 -2,33 -1.391,-5.662 1.947,-9.895 -2,-13 -1.324,6.452 -2.234,14.145 -3,16 -5.588,-9.034 8.147,-30.353 -2,-38 -6.521,4.671 -3.441,16.94 -7,23 -0.431,-3.236 1.315,-8.649 -2,-9 0.25,5.553 -4.588,10.328 -2,15 -5.404,-2.071 -1.216,5.451 -4,6 -1.496,-0.17 -3.69,0.357 -4,-1 1.846,-4.558 4.286,-7.377 5,-15 -3.14,-0.493 -2.642,3.447 -5,1 -0.199,-6.552 4.679,-13.296 3,-18 -1.893,1.753 1.745,3.474 -3,3 0.738,13.739 -8.071,17.928 -11,28 -1.788,-7.092 4.141,-10.774 1,-16 1.278,0.055 1.385,1.282 3,1 0.792,-3.458 -1.111,-4.222 -2,-6 5.819,-0.256 6.774,-10.449 5,-17 -6.84,5.109 -4.689,14.184 -7,21 -1.49,4.396 -7.542,8.544 -5,17 -4.745,-0.869 -2.768,2.442 -4,3 -3.33,-2.612 -6.035,3.927 -10,4 -3.521,4.816 0.619,14.216 -4,16 -5.314,-6.229 2.308,-17.217 3,-21 -0.068,2.867 7.456,-4.667 13,-5 0,-2.333 0,-4.667 0,-7 -4.213,0.454 -2.259,7.075 -7,7 0.384,-3.211 3.984,-6.516 1,-10 1.278,0.055 1.385,1.282 3,1 1.055,-14.187 13.855,-24.005 10,-38 -9.689,14.868 -13.719,30.3 -27,43 0.461,-6.286 1.736,-7.837 8,-14 0.132,-2.465 0.151,-4.818 -1,-6 5.617,0.007 4.213,-11.407 8,-10 -1.78,-9.83 1.396,-10.039 1,-16 -0.738,6.014 -7.924,10.519 -10,17 -0.684,2.135 0.885,4.812 0,7 -0.131,0.323 -1.979,-1.088 -2,-1 -0.232,0.96 0.729,9.939 -4,7 1.785,-0.004 2.795,-1.876 0,-4 -3.24,6.949 -5.295,9.52 -12,16 3.553,-14.643 15.514,-23.586 20,-44 -2.207,6.119 -20.247,22.81 -25,37 -2.052,-3.123 -2.771,-1.091 -4,1 4.054,-13.929 16.777,-27.448 20,-43 -4.53,2.021 -5.087,7.406 -8,11 -1.467,1.81 -4.571,2.221 -6,4 -1.673,2.083 -0.735,5.015 -2,7 -2.503,3.928 -7.619,6.315 -10,10 -2.069,3.204 -2.203,7.126 -4,10 0.869,-1.391 -4.747,0.175 -1,2 -9.177,-1.313 -6.586,12.085 -15,17 0.319,-2.319 -0.16,-3.839 -1,-5 12.2,-15.123 23.087,-30.494 33,-52 -4.488,0.845 -2.559,8.108 -9,7 -0.951,7.049 -6.192,9.807 -8,16 -4.769,-1.645 -6.057,2.825 -8,1 1.228,5.156 -5.319,8.333 -6,3 6.432,1.563 5.778,-12.073 13,-13 1.73,-12.761 14.703,-14.593 18,-28 -13.064,13.771 -23.75,27.72 -40,40 2.718,-8.949 9.345,-13.989 14,-21 -11.592,3.845 -15.477,10.366 -23,17 0.291,-3.376 3.762,-3.572 3,-8 -3.377,0.661 -7.486,5.796 -11,3 4.438,-2.735 12.171,-5.791 13,-9 7.934,0.91 11.34,-8.226 19,-9 0,-2 0,-4 0,-6 -12.54,3.126 -19.194,12.139 -35,12 -1.275,2.503 0.509,3.13 -1,4 0.235,-1.607 -5.873,-2.062 -9,-2 2.55,-2.445 8.78,-3.125 8,-6 0.125,2.208 4.242,0.425 6,1 1.198,-3.866 9.979,-3.288 15,-6 -1.753,-7.672 5.53,-10.79 3,-16 4.836,2.128 3.886,-10.221 8,-7 0.075,-1.742 -0.224,-3.11 -1,-4 6.972,-3.568 18.079,-16.35 22,-23 2.078,1.36 6.431,-3.531 7,-7 -1.778,-1.485 -4.096,2.554 -9,1 -17.668,16.929 -36.211,33.628 -51,48 -0.075,1.742 0.223,3.11 1,4 -10.875,4.049 -14.455,15.197 -24,26 1.257,0.41 2.044,1.29 2,3 -4.932,-1.389 -4.689,3.008 -2,4 -4.376,-2.302 -10.748,8.439 -7,11 -2.729,0.09 -2.013,-1.666 -4,0 -10.613,23.821 -24.895,38.954 -26,71 2.503,1.9 3.927,-0.831 7,1 4.423,12.005 -2.841,24.473 -5,36 4.692,1.678 4.674,-0.345 8,-2 2.895,1.105 3.8,4.2 6,6 -0.675,-4.675 4.283,-3.717 7,-5 0.693,3.307 5.696,2.304 5,7 -4.396,24.27 -15.11,42.223 -20,66 3,0 6,0 9,0 4.975,2.609 4.49,13.125 2,17 -4.603,7.162 -10.885,15.066 -11,25 -0.038,3.327 2.78,6.399 3,9 0.845,10.02 -2.403,18.36 -4,24 9.854,11.013 12.08,27.229 8,43 6.879,0.879 6.627,-5.374 12,-6 17.206,12.203 -15.478,25.236 -4,44 -3.402,10.599 4.647,13.412 10,18 1.283,15.039 -13.48,39.546 -2,55 3.541,-0.792 1.548,-7.119 7,-6 13.739,17.351 -19.427,28.706 -13,45 4.891,-6.443 6.979,-15.687 14,-20 1.278,0.055 1.385,1.282 3,1 7.82,26.354 -18.403,34.54 -17,61 2.322,0.678 3.446,2.554 5,4 -1.9,22.537 -7.908,37.921 0,57 5.328,-5.692 12.209,-21.335 21,-9 -1.626,3.277 0.226,3.823 0,8 -12.823,17.843 -24.52,36.813 -26,66 5.888,-0.113 0.356,-11.643 8,-10 2.187,0.147 2.147,2.52 2,5 3.555,1.555 0.604,-3.396 3,-3 1.177,1.49 2.511,2.823 4,4 -0.525,25.142 -17.429,33.904 -16,61 4.91,-1.756 7.268,-6.066 10,-10 9.285,-1.041 10.661,8.678 10,13 -0.763,4.982 -9.468,9.72 -11,18 -1.103,5.957 1.497,8.296 0,15 3.649,0.888 5.326,-1.766 7,0 1.318,16.985 -10.726,20.608 -7,40 2.506,-0.172 2.428,2.239 4,3 -7.863,22.115 -1.005,48.343 10,63 -6.583,10.645 -4.58,21.838 -2,32 -6.164,6.585 -4.521,18.379 -1,27 -3.267,0.399 -1.785,5.548 -4,7 3.611,3.253 2.217,16.181 1,21 7.084,-1.417 7.166,7.346 3,9 3.106,2.605 7.44,0.035 10,-1 -2.015,4.028 -3.494,5.36 -2,11 4.343,-1.01 4.457,2.209 6,4 -7.006,-1.006 -2.899,9.101 -4,14 8.318,1.554 4.349,12.597 0,15 4.153,6.433 12.254,12.121 7,20 8.783,17.567 13.086,29.85 31,40 -0.043,1.377 0.471,2.195 1,3 -1.377,-0.043 -2.195,0.471 -3,1 -10.804,-3.862 -15.346,-13.987 -23,-21 1.109,14.671 13.171,28.674 10,41 -3.262,-1.738 -4.228,-5.772 -5,-10 -4.919,2.995 -6.061,-2.172 -9,-4 -0.126,8.01 4.025,10.852 1,18 -10.424,-1.243 -2.364,-20.969 -14,-21 -0.663,8.538 6.998,13.632 2,21 -2.848,-4.819 -5.318,-10.015 -6,-17 -7.703,2.445 3.588,18.504 -2,22 -5.248,-5.419 -6.676,-14.657 -7,-25 -5.209,6.568 0.095,18.578 -3,26 -6.711,-3.289 -2.258,-17.742 -8,-22 -2.918,4.942 5.363,13.332 1,17 -1.678,-1.988 -2.54,-4.793 -5,-6 -2.761,4.52 1.957,7.263 -2,10 -5.45,-5.55 -0.649,-21.351 -8,-25 -0.918,4.281 1.511,19.126 -1,25 -2.638,-2.029 -4.846,-4.487 -4,-10 -4.209,-1.542 -0.159,5.175 -3,5 -3.957,-3.71 -5.927,-9.406 -7,-16 -1.595,3.679 0.228,-4.045 -3,-2 1.176,7.157 1.833,14.834 4,21 -7.281,0.844 -2.369,-5.497 -6,-7 -0.408,4.259 -0.462,8.871 -2,12 -6.083,-2.251 0.079,-16.746 -5,-20 0.843,9.224 -3.043,16.031 -3,19 -4.113,-0.888 -2.591,-7.409 -7,-8 -1.244,1.771 0.577,5.596 -4,6 -0.635,-4.075 -0.113,-11.629 -4,-15 2.162,3.941 -0.08,7.363 -2,10 -3.938,-1.729 -3.994,-7.34 -4,-13 -6.067,4.328 0.808,18.276 -5,21 -2.086,-1.974 -1.96,-5.444 -6,-3 -2.295,-5.705 -2.389,-13.611 -6,-18 -4.008,4.992 -2.787,15.213 -7,20 -3.67,-0.997 -3.139,-6.195 -3,-11 -3.597,2.069 -1.968,9.365 -8,9 -3.27,-5.397 1.988,-19.321 -3,-23 0.354,10.687 -1.151,19.516 -5,26 0.212,-6.004 -1.114,-18.338 -1,-25 -0.485,1.78 -1.066,-0.434 -2,-1 -2.717,4.616 -1.027,13.639 -3,19 -3.093,-0.24 1.563,-8.23 -3,-7 -2.939,1.395 -1.388,7.278 -4,9 -5.212,-3.121 -2.414,-14.253 -8,-17 -0.952,6.049 2.757,16.757 -4,17 -4.216,-9.416 3.491,-14.124 2,-24 -4.789,2.211 -3.263,10.737 -6,15 -1,0 -2,0 -3,0 1.845,-10.155 4.045,-19.955 9,-27 1.281,-2.758 -2.914,-4.892 -3,-3 -3.048,7.951 -6.584,22.335 -13,28 -1.2,-7.706 8.117,-14.982 3,-20 -4.513,9.153 -9.093,18.241 -17,24 -1.406,-0.261 -1.14,-2.193 -2,-3 5.641,-7.025 10.146,-15.187 14,-24 -12.86,1.151 -15.983,17.896 -26,17 4.594,-7.739 11.382,-13.284 18,-19 -1.182,-0.484 -2.267,-1.066 -3,-2 3.519,-10.147 14.121,-13.212 17,-24 -3.673,0.993 -4.529,4.805 -9,5 2.622,-3.676 -1.058,-5.201 -2,-10 5.217,0.016 1.827,2.843 5,4 7.042,-3.25 16.705,-16.624 11,-23 -2.835,2.156 -9.245,9.165 -13,4 2.915,-5.752 11.711,-5.622 13,-13 -1.77,-2.736 -4.23,3.479 -6,-1 0.702,-3.299 2.132,-5.868 7,-5 -2.309,-4.599 1.691,-8.072 5,-10 0.872,-3.872 -4.366,-1.634 -3,-6 6.19,0.189 4.336,-7.664 13,-5 0.394,-6.272 -1.316,-14.65 2,-18 -8.618,-5.02 -1.517,-24.669 -7,-32 2.812,-0.188 2.737,-3.263 5,-4 0.748,-5.154 -2.647,-9.082 2,-11 -6.004,-10.237 0.171,-22.377 -5,-31 1.494,-1.506 5.701,-0.299 5,-4 -3.74,-21.495 -0.417,-43.436 -7,-65 4.289,-1.039 3.861,-0.571 7,1 -1.038,-10.687 1.713,-23.142 -4,-34 0.385,-2.615 3.207,-2.793 2,-7 1.772,-0.228 5.008,1.008 4,-2 -2.847,-14.82 -13.288,-22.046 -14,-39 3.001,-0.999 4.161,-3.839 7,-5 1.378,1.289 0.99,4.344 1,7 5.073,-0.406 4.966,4.367 9,5 -4.01,-7.542 -0.438,-16.837 -5,-23 9.061,-22.987 -3.748,-42.491 -7,-66 2.827,-2.506 11.173,0.506 14,-2 3.703,-15.628 -1.363,-25.826 -7,-37 3.454,-2.546 3.769,-8.231 10,-8 -3.833,-16.942 -9.956,-26.533 -15,-41 5.171,-3.369 8.812,-2.123 14,-5 0.165,2.868 0.552,6.998 4,9 -3.713,1.614 -0.199,4.65 0,8 1.667,0 3.333,0 5,0 0.971,-2.578 2.149,-7.95 -1,-9 1.376,0.043 2.196,-0.471 3,-1 1.13,-19.797 -4.768,-32.565 -8,-48 4.851,-0.815 9.333,-2.001 11,-6 -4.432,-8.054 -8.038,-21.597 -9,-36 0.984,-2.682 6.294,-1.039 8,-3 -7.171,-23.496 -18.051,-43.282 -24,-68 -6.997,-7.875 0.913,-14.922 9,-11 1.917,4.721 -1.381,9.157 1,14 1.721,0.395 2.563,-1.484 3,0 0.146,6.533 3.927,18.065 11,21 8.942,-22.885 -9.965,-41.356 -15,-60 2.867,-1.8 5.604,-3.729 9,-5 2.332,1.018 4.449,5.257 2,8 2.333,0 4.667,0 7,0 -4.305,-26.695 -11.192,-50.808 -16,-77 3.754,-1.604 6.673,-9.293 12,-6 -3.247,1.086 -1.647,7.019 -2,11 1.667,0 3.333,0 5,0 2.438,6.562 3.397,14.603 8,19 4.603,-17.118 1.709,-41.371 -6,-59 4.087,0.42 4.042,-3.292 9,-2 5.413,-23.163 -6.201,-42.785 -13,-60 -0.746,-9.87 -1.05,-23.011 1,-35 1.907,-0.426 1.81,-2.857 5,-2 -0.598,3.931 2.958,3.709 4,6 -6.043,12.753 2.565,26.256 4,38 2.826,-0.827 2.591,1.41 5,1 2.854,-8.024 -0.901,-16.556 5,-21 -2.428,-18.297 -11.436,-31.746 -11,-51 5.464,1.13 4.137,-4.529 9,-4 -1.146,5.292 -0.454,7.412 0,13 3.989,-0.549 3.011,-0.549 7,0 -2.251,-33.567 -14.317,-71.66 -21,-94 -1.721,-0.395 -2.563,1.484 -3,0 3.415,-4.789 -2.26,-9.043 -2,-14 -1.72,-0.395 -2.563,1.484 -3,0 -1.189,-14.148 -9.226,-30.104 -17,-41 -1.158,11.509 -7.848,17.486 -8,30 -4.31,-15.316 5.727,-24.936 6,-39 -5.214,-3.422 -3.909,-7.339 -9,-14 -3.839,4.828 -4.094,13.239 -5,21 -3.031,-3.363 -0.969,4.363 -4,1 -0.658,3.658 2.164,3.836 2,7 -6.695,1.638 -3.798,12.869 -6,19 -3.06,-5.168 0.058,-14.168 -3,-21 1.57,0.43 0.854,3.146 4,2 -1.496,-9.163 2.428,-12.906 2,-21 2.89,-0.403 4.958,-9.494 7,-14 -2.085,-1.582 -4.074,-3.26 -7,-4 -1.899,4.767 -6,7.333 -7,13 2.21,1.063 7.936,4.884 3,7 -0.088,-4.523 -4.387,-4.656 -7,-4 2.601,2.065 4.935,4.399 7,7 -8.042,1.376 -6.472,-5.835 -12,-2 -0.17,-1.496 0.357,-3.69 -1,-4 -5.948,-1.689 -20.531,-16.579 -31,-17 5.265,1.769 4.955,8.487 12,6 -0.239,1.427 -1.646,1.687 -2,3 11.773,-0.44 11.262,11.405 22,12 -0.15,2.483 0.517,4.15 2,5 0.168,-1.165 1.581,-1.086 3,-1 -0.24,4.607 6.424,7.531 3,12 -1.945,-2.055 -1.122,-6.878 -5,-7 -1.099,3.612 -0.705,11.036 -5,14 -1.36,-6.027 2.325,-7.008 2,-12 -0.667,0 -1.333,0 -2,0 -0.776,0.224 -1.973,0.028 -2,1 0.545,1.483 0.618,1.556 3,3 -7.37,5.288 -8.277,-6.748 -15,-8 4.011,8.287 10.003,8.263 9,17 -13.335,-15.958 -30.588,-35.865 -48,-51 4.96,6.917 10.66,17.718 17,20 -2.803,2.399 4.221,0.376 2,7 2.48,1.298 4.853,-2.231 5,0 3.042,1.763 -2.729,3.097 0,4 8.131,3.543 21.706,15.62 22,27 -2.516,-0.818 -2.104,-4.562 -2,-8 -5.557,-1.224 -4.084,4.583 -6,7 -2.057,-2.647 -4.201,-9.287 -8,-7 0.119,3.265 6.369,5.564 3,9 -4.937,-3.73 -7.127,-10.206 -12,-14 -0.731,9.742 10.605,12.714 8,21 -2.53,-3.137 -3.899,-7.435 -8,-9 0.574,4.123 4.159,10.467 1,15 -5.782,-6.651 -2.103,-30.401 -12,-31 1.509,-0.87 -0.275,-1.497 1,-4 -1.72,-0.395 -2.563,1.484 -3,0 0.839,-1.161 1.319,-2.681 1,-5 -5.011,-0.74 1.331,3.685 -2,4 -3.77,-3.38 3.187,-6.797 -3,-9 -2.39,12.725 15.1,23.882 10,36 3.46,0.491 1.46,4.889 4,4 -4.254,0.079 0.564,9.23 -4,9 0.334,-13.736 -7.179,-16.078 -12,-26 -0.211,1.208 -1.11,0.615 -2,0 -1.881,6.068 5.588,10.535 0,14 -0.575,-1.758 1.208,-5.875 -1,-6 -2.458,2.959 -0.203,7.607 2,9 1.595,-0.738 -0.228,-4.895 3,-4 -0.132,2.465 -0.151,4.818 1,6 -2.081,-0.565 -3.232,-2.857 -5,-1 0.181,8.829 5.765,17.555 6,23 -7.27,-3.063 -5.386,-15.28 -9,-22 -1.72,-0.395 -2.563,1.484 -3,0 1.182,-6.063 -2.736,-21.077 -7,-28 -4.934,14.289 11.063,27.369 6,43 0.069,-8.069 -2.873,-13.127 -6,-18 -1.663,2.004 0.083,7.417 -2,9 -3.377,-6.957 -4.276,-16.39 -4,-27 -3.36,13.739 -4.426,35.547 -3,48 -7.227,-7.036 0.536,-23.65 -5,-33 -1.934,1.732 0.858,8.191 -3,8 -0.601,-5.423 1.614,-16.64 -2,-16 3.391,-2.298 2.429,-14.208 1,-18 -4.352,11.223 -1.039,27.411 -6,36 -1.047,-3.62 2.269,-11.602 -2,-12 -0.534,3.466 1.485,9.485 -2,10 -4.166,-11.101 4.855,-21.374 1,-32 -2.839,12.161 -4.235,25.765 -7,38 -4.552,-5.884 3.746,-14.841 -1,-18 -1.475,4.917 -3.105,14.364 -5,13 2.687,7.167 -1.303,14.512 2,20 -2.078,0.56 -2.119,1.56 -1,3 -1.278,-0.055 -1.385,-1.282 -3,-1 0.492,4.159 -1.186,6.147 -4,7 -0.908,-6.444 9.041,-20.755 2,-30 -2.984,0.016 1.411,7.411 -3,6 -2.323,-6.554 3.232,-5.354 2,-13 -6.191,4.188 -3.061,11.561 -9,16 -0.502,-11.499 10.994,-28.289 11,-36 -2.78,9.702 -14.307,19.697 -12,28 -1.208,0.211 -0.615,1.11 0,2 -1.161,-0.839 -2.681,-1.319 -5,-1 -0.004,1.786 2.693,5.817 0,7 -0.914,-1.753 -0.344,-4.99 -2,-6 -1.451,3.883 -4.733,5.934 -8,8 -0.443,-1.89 1.36,-6.027 -2,-5 -1.483,5.15 3.033,4.301 2,9 -3.242,-3.028 -1.61,11.307 -6,7 1.782,-8.786 4.178,-19.87 2,-23 1.102,5.433 -2.942,5.75 -5,3 -1.298,2.48 2.231,4.853 0,5 -2.516,-0.818 -2.104,-4.562 -2,-8 4.53,1.53 -0.53,-6.53 4,-5 0,-2 0,-4 0,-6 2.359,-2.244 -2.755,0.702 -1,4 -2.036,0.297 -2.664,2.003 -4,3 -0.293,4.04 0.845,9.512 -4,9 2.47,5.236 -5.931,6.76 -9,3 2.351,4.649 1.066,12.934 4,17 -3.339,-0.006 -0.161,6.506 -4,6 0,-4 0,-8 0,-12 -2.279,-1.373 -3.759,2.578 -4,0 2.561,-1.105 1.964,-5.37 2,-9 -5.707,1.707 -5.37,-2.63 -5,-7 -3.923,2.804 -3.077,2.804 -7,0 0.147,2.48 0.186,4.853 -2,5 0.15,-2.483 -0.517,-4.15 -2,-5 -0.821,7.808 -1.643,4.805 -5,9 -0.351,-8.433 7.302,-12.194 5,-21 -4.932,13.936 -6.453,16.315 -13,28 1.717,-2.95 0.31,-9.023 3,-11 -5.337,0.663 -3.802,8.198 -9,9 -0.322,-3.446 4.147,-4.734 1,-8 3.585,3.265 5.342,-6.338 4,-8 1.987,1.666 1.271,-0.09 4,0 -2.167,-5.549 4.118,-7.816 1,-11 -3.76,7.57 -9.225,21.21 -17,24 1.049,-3.952 6.973,-7.232 4,-12 1.278,0.055 1.385,1.282 3,1 -1.378,-3.16 2.476,-6.035 0,-7 -2.365,5.635 -7.521,8.479 -10,14 -4.619,0.189 -4.43,-1.215 -8,5 -0.981,-10.887 9.611,-20.061 7,-26 -3.729,6.084 -4.41,10.779 -7,15 0.74,-1.206 -8.504,5.836 -4,9 -1.278,-0.055 -1.385,-1.282 -3,-1 0.16,3.16 0.035,6.035 -2,7 -2.592,-4.515 1.427,-6.805 2,-11 -2.824,-2.706 -2.755,3.121 -6,3 0.675,-5.658 4.158,-8.508 6,-13 -7.052,1.615 -4.912,12.421 -12,14 0.371,-4.794 4.688,-3.007 2,-7 -3.656,2.344 -3.22,8.78 -9,9 -1.113,-1.887 -1.405,-4.595 -4,-5 0.754,4.754 -2.521,5.479 -4,8 -3.398,-3.898 2.468,-4.936 1,-10 -4.219,-1.552 0.219,5.552 -4,4 -1.32,-4.653 3.32,-3.347 2,-8 -5.806,8.572 -12.532,13.225 -15,21 -0.559,1.76 0.89,9.394 -2,14 -1.003,-0.003 -1.19,0.81 -2,1 -9.716,-8.037 1.264,-15.067 3,-24 4.154,2.726 5.714,-3.122 7,-4 -2.082,-2.94 -5.169,2.39 -3,-3 -4.015,3.209 -8.125,0.237 -11,4 -0.7,-3.078 -0.7,-1.922 0,-5 -3.804,-1.47 -0.196,4.47 -4,3 -2.197,-1.47 -4.036,-3.298 -5,-6 -0.26,-4.927 4.88,-4.454 4,-10 -4.658,-0.88 0.674,3.296 -2,3 -3.357,-2.055 -0.703,-2.066 0,-5 -2.506,-0.172 -2.428,2.239 -4,3 1.759,0.241 2.279,1.721 2,4 -1.575,0.837 -5.575,4.319 -7,2 2.513,-0.821 5.358,-1.309 5,-5 -9.064,4.072 -7.015,8.686 -15,15 0.696,-7.637 7.842,-8.825 8,-17 3.697,0.255 9.025,-4.211 8,-8 7.631,-1.156 8.29,-8.224 14,-14 1.095,-1.108 3.333,-0.696 5,-2 4.041,-3.16 8.222,-9.52 13,-13 3.776,-2.751 9.785,-4.046 13,-7 1.122,-1.03 1.329,-3.546 2,-4 2.003,-1.354 5.951,-1.09 9,-3 2.85,-1.785 4.955,-5.422 8,-7 4.362,-2.26 10.941,-4.475 16,-7 3.42,-1.707 7.678,-4.192 7,-4 -0.211,0.06 1.684,2.12 3,2 3.84,-0.35 18.643,-8.475 17,-8 1.488,-0.431 3.99,1.257 6,1 8.06,-1.032 18.362,-5.107 26,-9 -3.608,-2.145 -4.92,-9.348 -5,-12 -5.844,2.79 -6.155,7.034 -11,12 -1.121,-11.693 11.044,-8.447 11,-23 3.948,1.302 2.42,-3.669 5,-1 -0.575,-1.758 1.208,-5.875 -1,-6 0.003,0.555 -0.81,1.135 -1,0 -6.644,2.689 -5.323,13.344 -13,15 1.392,-4.194 3.757,-6.906 3,-9 -1.363,2.154 -4.397,4.556 -6,1 0.913,4.246 -1.633,5.034 -4,6 0.892,-6.774 5.717,-9.616 8,-15 -4.994,1.006 -6.313,5.687 -9,9 -0.575,-10.33 11.953,-15.982 16,-25 -2.615,0.385 -2.793,3.207 -7,2 -4.172,9.494 -11.268,16.065 -18,23 1.106,-4.561 3.347,-7.986 6,-11 -5.233,-1.358 -2.828,2.382 -4,3 -0.261,-1.556 -2.193,-0.693 -3,0 0.34,-2.66 2.496,-3.504 3,-6 -2.018,-2.99 -4.018,5.21 -6,2 2.355,-3.979 6.298,-6.369 8,-11 -6.62,3.411 -5.37,7.871 -12,8 3.509,-7.825 12.191,-10.476 15,-19 -7.414,4.777 -17.014,16.213 -28,23 0.294,-4.706 4.644,-5.356 7,-8 0.704,-4.704 -4.984,-3.016 -7,-5 5.78,-5.636 17.899,-9.989 18,-18 -4.19,6.195 -15.611,14.496 -24,16 3.525,-3.809 8.676,-5.99 11,-11 -4.966,2.206 -14.056,3.906 -15,7 -2.829,-1.047 -6.86,1.65 -7,0 4.648,-4.352 12.35,-5.65 16,-11 -9.64,1.034 -16.601,10.056 -26,8 3.008,-2.508 7.836,-3.444 13,-6 0.745,-3.078 -2.745,-1.922 -2,-5 2.071,1.093 7.047,-1.822 9,-4 -9.229,0.664 -13.847,7.793 -23,8 3.112,-3.555 8.588,-4.745 12,-8 -1.948,-0.189 -4.284,-2.602 -1,-3 -6.385,-5.82 -17.047,4.986 -20,1 9.935,-5.398 25.587,-5.08 34,-12 -5.577,-0.219 -12.158,3.809 -16,2 3.566,-3.1 10.194,-3.14 14,-6 -7.196,-3.317 -13.736,6.529 -20,4 -1.667,-2.008 5.489,-2.888 3,-5 -0.319,0.52 -3.095,1.551 -4,0 -1.146,-3.146 1.57,-2.43 2,-4 -3.236,-0.431 -8.649,1.316 -9,-2 1.668,-1.665 7.302,0.635 7,-3 -4.226,-1.107 -13.021,2.354 -14,-2 4.239,-0.761 11.843,1.843 13,-2 -5.248,-0.085 -8.934,-1.733 -13,-3 -1.018,2.919 -11.707,3.625 -12,1 10.025,-1.521 11.428,-1.005 20,-5 -6.184,-0.149 -9.23,-3.437 -15,-4 0.745,-2.255 5.609,-0.391 8,-1 -3.567,-4.566 -6.129,-4.657 -12,-3 0,-1.333 0,-2.667 0,-4 -6.948,1.8 -5.921,-1.417 -12,-2 -1.611,1.723 -4.119,2.547 -5,5 -0.239,-1.427 -1.646,-1.687 -2,-3 1.073,-4.159 4.348,-0.322 5,-4 -2.496,-0.504 -3.34,-2.66 -6,-3 -3.679,6.569 -15.588,1.258 -24,1 1.289,-1.378 4.344,-0.99 7,-1 -3.558,-3.724 -2.086,-2.584 0,-7 -6.507,0.708 -12.471,-0.357 -21,0 0,-0.667 0,-1.333 0,-2 z M 652,75 c -1.112,4.221 -5.835,11.587 -4,10 0.168,-1.165 1.581,-1.086 3,-1 -1.553,-5.263 6.596,-6.012 4,-9 0.004,0.555 -0.811,1.135 -1,0 0.555,0.003 1.135,-0.81 0,-1 -0.221,0.779 -0.838,1.163 -2,1 z m 9,5 c 0.181,4.514 -4.488,4.178 -5,8 2.793,-1.145 10.243,-5.089 5,-8 z m 5,12 c -0.168,-1.165 -1.581,-1.086 -3,-1 -0.337,3.33 -4.084,3.25 -4,7 5.268,-1.733 8.115,-5.885 12,-9 0.057,0.61 0.149,1.184 1,1 1.602,-2.785 -4.318,-2.765 -4,-1 1.535,0.473 -2.693,0.784 -2,3 z m -1,7 c 2.409,0.409 2.174,-1.826 5,-1 0,-1 0,-2 0,-3 -3.264,-0.263 -2.89,3.111 -5,4 z m -58,88 c 2.651,-0.015 5.889,0.555 6,-2 -5.263,1.263 -5.93,-2.071 -10,-2 -1.553,4.219 5.553,-0.219 4,4 z m 63,38 c -2.274,10.393 -10.049,15.284 -14,24 10.53,-4.223 12.26,-14.481 21,-22 -1.165,-0.168 -1.086,-1.581 -1,-3 -1.453,0.547 -5.168,-1.168 -5,1 1.535,0.39 0.146,1.2 -1,0 z m 83,176 c 1.113,1.887 1.405,4.595 4,5 1.887,-2.005 -1.229,-4.648 -4,-5 z M 326,1427 c -4.137,-0.01 -6.801,5.221 -5,8 3.866,-0.468 4.12,-4.547 5,-8 z M 285,359 c 1.678,1.446 2.541,6.341 5,4 -0.617,4.283 3.256,4.077 3,8 2.544,-0.122 3.878,-1.456 4,-4 -3.81,2.854 -5.862,-10.783 -12,-8 z m 1,10 c 0.092,-5.28 -7.471,-11.058 -11,-16 2.366,6.634 6.212,11.788 11,16 z m -27,-21 c -0.409,-2.409 1.826,-2.174 1,-5 -1.44,-2.212 -2.44,1.259 -3,-1 0.261,-8.373 -10.186,-16.212 -12,-23 -0.749,9.007 2.292,4.143 2,11 7.695,2.305 6.712,13.288 12,18 z m -1,17 c -2.983,-7.683 -7.955,-13.379 -9,-23 -3.21,-0.832 -2.073,-0.852 -4,1 -1.126,-2.874 -0.203,-7.797 -2,-10 -2.385,3.769 2.049,16.685 4,13 0.196,8.521 4.519,14.357 7,23 2.544,-0.122 3.878,-1.456 4,-4 z m -80,22 c 0.789,4.06 -1.073,6.968 2,7 -0.729,-2.271 1.802,-7.802 -2,-7 z m 18,-92 c -0.683,2.321 -0.271,-13.353 -1,-16 -6.262,-0.429 -1.083,13.583 -5,17 -3.591,-2.742 -3.205,-9.461 -3,-16 -4.692,0.641 -1.358,9.308 -4,12 -3.938,-0.552 -4.402,-11.301 -1,-13 -2.729,-0.09 -2.013,1.666 -4,0 -0.976,5.691 2.163,15.497 -2,18 1.014,-5.681 -0.949,-8.384 -3,-11 1.789,-2.41 2.787,-5.606 1,-9 3.986,0.637 3.067,-6.639 6,-4 -0.516,-11.327 7.811,-13.999 7,-23 -4.637,3.188 -8.972,11.479 -8,17 -4.76,-1.105 -5.075,10.523 -6,12 -0.242,0.387 -1.944,-1.166 -2,-1 -1.646,4.869 -1.422,9.04 -2,15 -3.781,-1.448 -1.919,2.748 -5,2 -0.888,3.649 1.766,5.326 0,7 7.062,-1.722 21.486,-1.621 25,-6 5.885,4.953 7.288,-1.979 7,-1 z m -33,-29 c -0.292,0.614 -2.487,3.85 0,4 0.41,-1.705 1.29,0.21 3,0 0.169,-2.503 -1.536,-3.13 -3,-4 z m 1,-3 c -0.474,3.141 1.247,4.086 3,5 3.207,-6.793 7.686,-12.314 11,-19 -6.965,2.368 -7.148,11.519 -14,14 z m -48,-11 c 0.122,2.544 1.456,3.878 4,4 1.209,-3.792 5.104,-4.896 7,-8 -4.131,0.869 -6.869,3.131 -11,4 z M 79,73 c 4.791,1.543 6.997,5.67 13,6 -2.009,-6.143 -7.146,-2.952 -9,-9 -2.503,-0.169 -3.13,1.536 -4,3 z m 9,-3 c 0.057,-0.61 0.149,-1.184 1,-1 -0.039,2.772 5.124,5.453 6,4 -1.524,-1.898 -8.391,-7.2 -7,-3 z m 39,27 c -0.011,-4.119 -5.151,-6.871 -7,-6 1.633,2.7 4.202,4.465 7,6 z M 240,68 c 3.067,-5.611 6.873,-15.779 6,-22 -3.788,5.545 -6.214,12.452 -6,22 z M 424,42 c 0.729,2.271 -1.802,7.802 2,7 -0.729,-2.271 1.802,-7.802 -2,-7 z m 30,30 c 0.18,3.26 -2.351,4.813 2,5 -1.447,-3.781 2.748,-1.919 2,-5 -1.333,0 -2.667,0 -4,0 z m 47,20 c -1.957,3.46 3.301,9.998 5,10 -1.457,0.747 -0.122,12.511 2,7 4.028,15.638 9.205,30.128 14,45 -0.726,-3.059 1.726,-2.941 1,-6 -9.119,-17.057 -7.264,-34.938 -20,-52 2.971,-4.734 -3.262,-7.716 -4,-14 -1.721,-0.395 -2.563,1.484 -3,0 0.583,-0.447 1.967,-4.303 -1,-5 -4.94,4.689 3.201,15.022 6,15 z M 623,31 c 0.408,-2.004 2.477,-7.417 0,-9 -1.146,1.265 -2.009,7.885 0,9 z m -36,11 c -0.653,-5.68 1.315,-13.982 -1,-18 -0.965,3.644 -2.938,16.019 1,18 z m 18,0 c -0.499,-4.198 1.103,-15.729 -1,-15 0.654,8.306 -2.85,9.268 1,15 z m 6,-6 c 0.938,-0.845 2.136,-6.375 0,-7 -0.938,0.845 -2.136,6.375 0,7 z m -34,24 c -1.165,-10.348 3.252,-18.063 -3,-26 -0.323,7.256 -4.188,23.302 3,26 z m -27,8 c -1.029,-6.304 2.241,-16.908 -2,-20 0.003,7.331 -0.436,15.102 2,20 z M 419,62 c 2.32,-2.395 7.737,-9.922 3,-13 0.914,6.248 -2.464,8.203 -3,13 z m -241,6 c 0.421,-4.421 -0.991,-7.009 -3,-9 0.018,3.982 0.957,7.043 3,9 z m 292,7 c -2.826,-0.826 -2.591,1.409 -5,1 1.298,2.48 -2.231,4.853 0,5 2.7,-2.673 2.867,-0.089 2,3 1,0 2,0 3,0 0.41,-6.122 -2.887,-4.589 0,-9 z m 2,18 c 3.781,-1.448 1.919,2.748 5,2 -1.435,-4.566 -4.041,-7.958 -7,-11 -2.719,3.219 3.863,3.541 2,9 z M 180,86 c 3.802,0.802 1.271,-4.729 2,-7 -3.236,1.236 -0.764,-3.236 -4,-2 1.316,2.35 2.788,4.546 2,9 z m 10,-3 c -2.611,7.871 3.674,8.642 0,0 z m 272,8 c -0.004,-2.671 3.16,-2.173 3,-5 -2.503,1.275 -3.131,-0.509 -4,1 2.807,-0.428 -2.506,3.728 1,4 z m 111,5 c -0.084,-3.249 -0.516,-6.151 -2,-8 0.311,3.023 -1.11,7.777 2,8 z m -428,9 c -2.108,-6.559 -7.619,-9.714 -12,-14 0.222,4.646 8.539,9.313 12,14 z m -19,4 c -2.347,-5.094 -13.338,-15.245 -20,-16 6.829,5.171 13.06,10.94 20,16 z m 428,1 c 1.192,-4.166 1.995,-13.972 0,-18 -1.489,3.869 -1.788,14.179 0,18 z m 9,-9 c 1.958,-2.252 0.838,-7.489 -1,-9 0.619,2.714 -1.27,7.936 1,9 z m -370,-1 c 1.063,-2.901 1.282,-4.805 -1,-7 0.595,2.072 -1.236,6.569 1,7 z m 272,-2 c 2.409,0.409 2.174,-1.826 5,-1 0,-1.333 0,-2.667 0,-4 -3.312,0.021 -4.979,1.688 -5,5 z m 76,2 c -0.729,-2.271 1.802,-7.802 -2,-7 0.389,2.611 0.514,5.487 2,7 z m -356,2 c 3.156,1.286 3.156,-8.286 0,-7 0,2.333 0,4.667 0,7 z m 401,-1 c 0.818,-0.726 2.682,-6.921 -1,-6 0.575,1.758 -1.209,5.875 1,6 z m -450,5 c -1.278,-4.389 -4.832,-6.502 -9,-8 2.599,3.068 5.367,5.966 9,8 z m 336,-5 c -0.091,1.576 -2.551,0.783 -2,3 3.236,1.236 0.764,-3.236 4,-2 0.172,-2.506 -2.239,-2.428 -3,-4 -0.043,1.376 0.471,2.196 1,3 z m 76,13 c -0.647,-4.686 1.308,-11.975 -1,-15 -0.598,3.101 -3.16,13.671 1,15 z m 21,-9 c 3.073,1.53 3.073,-6.53 0,-5 0,1.667 0,3.333 0,5 z m -380,4 c -0.605,-2.062 1.614,-6.947 -2,-6 0.605,2.062 -1.614,6.947 2,6 z m -32,2 c 2.555,-1.078 3.5,4.305 5,1 -1.606,-3.061 -4.394,-4.939 -6,-8 -2.994,2.979 2.524,2.551 1,7 z m 39,0 c -0.171,-2.829 0.86,-6.86 -2,-7 0.729,2.271 -1.802,7.802 2,7 z m 484,-7 c -6.709,-1.042 -8.245,3.088 -13,4 4.22,2.135 11.551,-0.146 13,-4 z m -385,7 c 0,2.333 0,4.667 0,7 3.63,-1.37 6.278,-3.722 8,-7 -0.396,2.98 8.041,-0.84 6,-6 -7.474,1.108 -6.073,5.117 -14,6 z m 244,13 c 3.456,-2.106 3.057,-16.824 0,-19 0,6.333 0,12.667 0,19 z m 22,-11 c 0.605,-2.2 2.513,-7.453 -1,-8 0.609,2.391 -1.256,7.255 1,8 z m -27,23 c -1.271,-9.396 2.582,-23.916 -2,-30 1.053,9.614 -2.274,23.607 2,30 z M 143,114 c -0.197,-3.503 -5.216,-9.305 -7,-5 4.96,-0.96 3.336,4.664 7,5 z m 343,2 c -1.803,-2.328 -4.746,-7.275 -7,-6 1.812,2.521 3.057,5.609 7,6 z m -165,-4 c 0.948,5.094 0.948,7.906 0,13 2,0 4,0 6,0 0.244,-5.423 1.603,-9.73 1,-16 -1,0 -2,0 -3,0 1.004,3.338 -1.388,3.279 -4,3 z m 206,8 c -0.824,-2.51 1.944,-8.611 -2,-8 0.311,3.023 -1.11,7.777 2,8 z m -389,19 c -10.271,-11.299 -23.001,-18.75 -35,-26 0,0.667 0,1.333 0,2 -0.61,0.057 -1.184,0.149 -1,1 2.917,-0.279 3.438,0.241 2,2 14.072,4.261 22.717,13.95 34,21 z m 173,-19 c 7.483,-2.11 0.069,7.337 7,9 -0.885,-6.405 1.685,-13.377 -2,-15 0.263,3.93 -2.438,4.896 -5,6 z m -90,3 c -0.609,-2.391 1.255,-7.255 -1,-8 -1.344,1.462 -2.044,7.92 1,8 z m 331,1 c -0.271,-2.141 0.774,-10.668 -1,-8 0.271,2.141 -0.774,10.668 1,8 z m -347,2 c -0.958,-3.042 2.142,-10.142 -2,-10 0.534,3.466 -1.485,9.485 2,10 z m -76,13 c -9.089,-9.911 -21.941,-16.059 -36,-21 11.38,7.62 25.229,12.771 36,21 z m 95,-4 c 2.523,-2.332 8.354,-13.293 2,-15 1.472,7.138 -3.179,8.155 -2,15 z m 298,-7 c 1.93,-2.048 0.677,-6.553 -1,-8 0.609,2.391 -1.256,7.255 1,8 z m 40,-3 c 3.073,1.53 3.073,-6.53 0,-5 0,1.667 0,3.333 0,5 z m -254,5 c -0.465,-2.548 3.632,-8.65 -1,-9 -1.127,2.734 -0.616,6.417 1,9 z m -29,-3 c 3.749,0.749 4.873,-1.127 5,-4 -1.667,0 -3.333,0 -5,0 0,1.333 0,2.667 0,4 z m 214,3 c 0,-1.667 0,-3.333 0,-5 -1,0 -2,0 -3,0 0.924,1.743 -0.034,5.367 3,5 z m -276,2 c 3.979,1.717 1.911,-9.602 0,-5 2.231,0.147 -1.298,2.52 0,5 z m 409,-2 c 2.963,4.309 16.554,-0.742 14,-3 -5.553,1.805 -6.312,2.805 -14,3 z m -326,4 c 3.073,1.53 3.073,-6.53 0,-5 0,1.667 0,3.333 0,5 z m 225,3 c 0,-2.667 0,-5.333 0,-8 -3.184,-1.1 -3.184,9.1 0,8 z M 71,134 c 0.003,1.003 -0.81,1.19 -1,2 2.391,-0.609 7.255,1.255 8,-1 -4.46,1.582 -6.37,-4.021 -10,-2 1.278,0.055 1.385,1.282 3,1 z m 29,1 c -5.629,1.296 -4.371,-4.296 -10,-3 1.467,2.47 8.411,6.921 10,3 z m 12,-1 c -2.495,3.701 -2.104,-3.801 -6,-2 -0.349,2.812 9.046,5.711 6,2 z m 386,5 c 3.295,0.039 1.726,4.941 6,4 -2.387,-4.132 -4.384,-10.149 -9,-10 2.029,2.031 4.638,2.767 3,6 z m 116,-5 c 2.829,-0.171 6.86,0.86 7,-2 -3.16,-0.16 -6.035,-0.035 -7,2 z m 33,0 c 2.072,-0.595 6.569,1.236 7,-1 -1.349,-1.364 -6.981,-1.906 -7,1 z m -541,4 c -1.182,-1.151 -3.535,-1.132 -6,-1 -1.411,3.192 5.984,2.527 6,1 z m 247,1 c 0.627,3.04 -1.28,8.613 1,10 -1.033,-4.438 4.924,-11.185 1,-12 -0.113,1.22 -0.299,2.368 -2,2 z m 270,0 c 2.714,-0.619 7.936,1.27 9,-1 -3.362,-1.436 -8.156,-1.497 -9,1 z m -110,9 c 1.884,-2.862 -1.874,-6.996 -3,-10 -2.736,3.715 1.624,7.245 3,10 z M 63,141 c 2.062,-0.605 6.947,1.614 6,-2 -2.651,0.015 -5.888,-0.555 -6,2 z m 216,3 c 4.137,0.866 3.046,-4.995 0,-5 0,1.667 0,3.333 0,5 z m 246,-4 c -0.774,14.569 3.77,4.542 0,0 z m -24,15 c 2.023,-5.94 -6.245,-9.572 -10,-13 0,1.333 0,2.667 0,4 5.959,0.343 8.425,7.348 10,9 z M 108,145 c -0.726,-0.818 -6.921,-2.682 -6,1 3.537,-0.338 5.152,-0.058 6,-1 z m 161,3 c 2.333,0 4.667,0 7,0 -0.075,-1.742 0.223,-3.11 1,-4 -5.194,-1.194 -5.445,2.555 -8,4 z m 111,15 c 3.607,-3.867 11.299,-13.843 7,-19 -3.189,5.478 -7.008,10.326 -7,19 z m 133,1 c -2.726,-0.92 1.396,-3.126 0,-6 -4.201,-2.482 -4.053,-14.59 -9,-13 1.556,0.261 0.693,2.193 0,3 7.12,0.256 3.217,15.785 9,16 z m 124,-20 c -5.681,0.653 -13.981,-1.315 -18,1 3.978,0.541 14.48,2.507 18,-1 z m -567,2 c -3,0 -6,0 -9,0 -0.5,3.59 9.299,2.619 9,0 z m 26,1 c -2.103,-2.435 -4.446,0.886 -6,-1 -1.411,3.192 5.984,2.527 6,1 z m 13,1 c 1.89,-0.443 6.027,1.36 5,-2 -1.667,0 -3.333,0 -5,0 0,0.667 0,1.333 0,2 z m -28,1 c -7.87,-2.611 -8.642,3.674 0,0 z m 574,1 c 2.714,-0.619 7.936,1.27 9,-1 -3.031,0.274 -6.949,-2.674 -9,1 z m -55,5 c 16.188,-0.32 38.545,0.924 53,-4 -17.687,0.791 -35.682,0.78 -53,4 z m -344,2 c 1.887,-1.113 4.595,-1.405 5,-4 -1,0 -2,0 -3,0 1.236,3.236 -3.236,0.764 -2,4 z m 248,13 c -1.188,-7.44 -9.378,-17.549 -14,-15 7.849,4.039 8.239,9.515 14,15 z m -117,8 c -0.378,-4.745 4.827,-9.127 3,-12 0.003,0.555 -0.81,1.135 -1,0 -3.555,-1.555 -0.604,3.396 -3,3 -0.976,-4.974 6.88,-10.665 1,-14 0.521,7.325 -6.255,19.457 0,23 z m 120,-19 c -1.539,-1.127 -2.461,-2.873 -4,-4 -2.807,1.834 2.293,6.935 4,4 z m -242,5 c 4.699,1.033 3.85,-3.483 9,-2 1.027,-3.36 -3.11,-1.557 -5,-2 1.552,4.219 -5.552,-0.219 -4,4 z m 358,-2 c 0.775,-3.508 -8.247,-2.33 -9,-1 3.291,0.042 4.979,1.688 9,1 z m 6,2 c 7.263,1.28 8.88,-3.267 13,0 0.229,-4.802 -9.691,-2.459 -13,0 z m -134,14 c -4.219,-7.455 -14.035,-14.623 -22,-15 7.861,4.472 15.957,8.71 22,15 z m -226,-8 c 4.365,1.985 14.188,1.797 15,-3 -3.662,-3.421 -10.62,1.201 -15,3 z m -197,1 c 1.23,-3.325 -6.76,-2.446 -7,-1 1.289,1.378 4.344,0.99 7,1 z m 544,4 c -3.37,-1.155 -2.9,-2.58 -6,-1 0,-1 0,-2 0,-3 -5.824,2.125 -10.889,-5.942 -14,0 8.115,-0.767 14.024,5.956 20,4 z m -358,1 c 5.625,0.175 7.819,-2.148 9,-4 -1.778,-1.386 -7.258,2.032 -9,4 z m 202,-3 c 3.14,1.131 2.642,-0.288 5,1 0.963,-3.675 -4.913,-3.975 -5,-1 z m -179,7 c 4.207,-1.207 4.385,1.615 7,2 1.32,-2.503 -3.954,-3.13 -1,-4 4.048,-1.382 3.163,2.17 6,2 0.17,-1.496 -0.357,-3.69 1,-4 -0.224,1.891 1.127,2.206 1,4 11.516,0.356 -0.768,-1.426 -2,-5 -5.763,2.12 -9.363,0.279 -12,5 z m 338,-2 c 3.667,0 7.333,0 11,0 0.076,-3.554 -10.922,-2.763 -11,0 z m -234,11 c 3.992,-1.466 9.987,-7.722 5,-12 -2.034,4.783 -2.721,6.424 -5,12 z m 96,-8 c -4.14,0.139 -3.564,-4.436 -9,-3 1.598,2.103 7.129,7.392 9,3 z m 132,22 c 2.928,0.261 3.072,-2.261 6,-2 1.447,3.781 -2.748,1.919 -2,5 5.74,-2.446 8.985,-0.854 14,2 0,-1.667 0,-3.333 0,-5 -20.197,-6.87 -32.846,-16.414 -51,-22 6.027,4.306 12.428,8.239 20,11 -1.046,2.75 10.274,5.869 13,11 z M 254,187 c 3.683,-2.426 18.482,-1.197 26,-3 -7.333,-2.177 -25.477,-1.598 -26,3 z m 202,0 c 4.426,0.092 7.396,-1.271 9,-4 -3.655,0.678 -7.42,1.246 -9,4 z m 1,12 c 6.665,0.665 8.858,-3.142 15,-3 -0.091,-2.729 1.666,-2.013 0,-4 -6.713,0.621 -11.311,3.356 -15,7 z m 33,-11 c -2.63,0.296 -0.787,-3.879 -4,-3 -4.578,1.755 -8.174,4.492 -14,5 0.122,2.544 1.455,3.878 4,4 2.793,-3.23 12.129,-2.897 12,-6 0.012,1.009 1.753,1.258 2,0 z m 93,2 c -5.563,-0.103 -6.656,-4.677 -12,-5 2.018,2.974 8.648,9.762 12,5 z m 64,-2 c -13.477,-1.752 -4.841,4.229 0,0 z m -382,4 c 14.14,-1.17 25.449,1.5 34,-2 -10.792,1.208 -26.494,-2.494 -34,2 z m 292,3 c -4.293,-0.374 -5.148,-4.185 -9,-5 1.096,2.943 5.756,7.526 9,5 z m -159,6 c 4.638,-0.695 4.35,-6.317 7,-9 -3.759,1.574 -5.599,5.067 -7,9 z m 93,-7 c 1.026,-3.36 -3.11,-1.557 -5,-2 0.642,3.642 -4.764,1.236 -5,4 8.569,0.99 4.926,-4.829 10,-2 z m 85,7 c 1.862,-0.138 3.342,-0.658 4,-2 -6.202,-2.012 -7.781,-3.327 -13,-7 0.828,5.172 7.787,4.213 9,9 z m 13,-5 c -0.676,-2.324 -1.8,-4.2 -5,-4 -0.018,3.141 2.913,5.968 5,4 z m -190,14 c 3.807,-5.527 8.824,-9.843 13,-15 -6.531,4.822 -11.357,6.745 -13,15 z m -5,-5 c 0,-3 0,-6 0,-9 -5.557,0.964 -3.5,8.264 0,9 z m 110,-8 c -1.891,0.224 -2.206,-1.127 -4,-1 -5.912,3.754 -7.768,11.566 -12,17 4.367,0.701 5.633,-1.701 10,-1 0.935,3.775 0.056,4.695 1,7 -7.18,-0.179 -10.691,3.309 -18,3 0.164,3.164 -2.658,3.342 -2,7 5.349,0.651 13.312,-1.313 17,1 -2.228,2.772 -11.277,-1.277 -12,3 5.333,0 11.795,-1.128 12,4 -6.451,-0.921 -18.656,-4.35 -24,0 2.078,0.56 2.119,1.56 1,3 12.173,-1.506 18.235,3.098 26,6 -7.828,1.395 -8.689,-1.199 -17,-1 -0.921,4.254 6.601,0.066 6,4 -9.479,-1.205 -10.521,-1.205 -20,0 -2.038,3.473 -6.079,9.125 -4,11 -0.164,-1.641 6.164,-1.641 6,0 -5.533,0.301 0.659,6.468 -4,8 -0.729,-2.271 -3.009,-2.991 -5,-4 -0.189,4.438 2.05,2.474 2,8 2.611,0.389 5.486,0.514 7,2 -2.435,1.275 -5.475,7.134 -9,4 0.738,-1.595 4.895,0.228 4,-3 -3,0 -6,0 -9,0 -0.962,3.629 4.493,0.84 4,4 -2,0 -4,0 -6,0 0.649,3.649 -0.674,5.326 -2,7 3.021,1.313 4.559,4.108 10,3 -4.045,4.164 2.987,2.889 3,6 -6.408,0.742 -10.239,-1.094 -13,-4 0.129,1.795 -0.993,2.34 -3,2 0,2.333 0,4.667 0,7 4.449,-0.551 11.55,1.549 13,-2 0.862,3.471 4.226,4.441 7,6 1.329,-1.004 3.721,-0.946 4,-3 -0.691,-2.642 -2.358,-4.309 -5,-5 3.056,-0.723 3.645,1.022 6,1 2.223,-7.981 7.596,-7.151 7,-17 6.907,-0.426 5.944,-8.723 10,-12 -0.845,-2.155 -6.375,0.375 -7,-2 10.988,2.988 10.51,-5.49 16,-8 0.225,-1.891 -1.127,-2.207 -1,-4 4.668,-1.652 11.719,-9.376 8,-13 9.694,-0.274 10.943,-13.276 6,-20 -2.182,0.531 -6.469,2.419 -7,-1 2.038,-1.479 7.003,-1.95 3,-4 1.891,-0.224 2.206,1.127 4,1 -0.549,-9.174 -9.229,-16.115 -9,-20 z m 101,13 c -0.811,-7.856 -8.798,-8.535 -13,-13 0.998,7.668 8.986,8.348 13,13 z m -310,-6 c -1.078,-2.922 -8.922,0.922 -10,-2 2.039,-2.295 8.305,-0.362 12,-1 -15.696,-3.521 -40.066,-2.194 -59,-1 1.978,1.966 7.687,2.887 11,10 3.626,-2.005 3.465,-1.103 7,1 -4.153,0.138 -0.202,0.658 0,2 -1.496,0.17 -3.69,-0.357 -4,1 6.155,1.538 14.74,8.651 18,14 3.13,5.135 12.123,11.218 14,17 10.671,-0.662 23.994,1.328 33,-1 -1.406,-0.261 -1.14,-2.193 -2,-3 -3.147,3.442 -22.509,2.631 -29,0 5.208,-3.458 19.456,2.123 23,-3 -4.849,-1.151 -14.416,2.416 -16,-2 6,0 12,0 18,0 0.003,1.003 -0.81,1.19 -1,2 5.376,-0.624 13.625,1.625 16,-2 -12.088,1.755 -15.754,-4.912 -28,-3 -0.003,-1.003 0.81,-1.19 1,-2 -10.315,0.648 -18.816,-0.517 -25,-4 5.795,0.461 10.647,-0.019 13,-3 -4.517,-0.817 -12.594,1.927 -14,-2 19.562,-0.896 32.624,4.709 48,8 0.164,2.831 -6.164,-0.831 -6,2 4.437,2.348 12.711,-4.545 16,2 1.932,-3.783 -5.508,-6.113 -8,-6 1.931,-1.069 4.087,-1.913 3,-6 -8.587,0.216 -17.465,-4.904 -29,-7 -12.802,-2.326 -29.083,-0.898 -38,-6 0.71,0.407 2.139,-0.963 2,-1 -7.075,-1.869 -11.701,0.719 -14,-5 2.762,2.731 0.938,-1.464 3,-2 18.335,-3.619 31.825,8.109 45,3 z m 30,11 c -0.595,-2.072 1.236,-6.569 -1,-7 -0.984,3.815 -5.822,-4.479 -7,-7 -4.333,0 -8.667,0 -13,0 1.253,4.414 9.325,2.008 10,7 -7.951,2.583 -16.494,-6.713 -19,0 13.405,-1.072 17.786,6.88 30,7 z m 154,-14 c 2.271,-0.729 7.802,1.802 7,-2 -2.333,0 -4.667,0 -7,0 0,0.667 0,1.333 0,2 z m -8,2 c 2.391,-0.609 7.256,1.255 8,-1 -2.2,-0.605 -7.453,-2.513 -8,1 z m -216,2 c 13.908,0.885 32.133,9.286 46,6 -13.275,-0.874 -31.232,-10.62 -46,-6 z m 148,19 c 2.829,-0.171 6.86,0.86 7,-2 -10.186,-3.105 2.616,-11.797 4,-16 -5.309,4.274 -13.369,9.147 -11,18 z m 143,10 c 4.119,-10.203 -8.143,-21.128 -14,-28 5.133,8.867 11.767,16.233 14,28 z m 16,-22 c -0.862,-3.471 -4.226,-4.441 -7,-6 0.862,3.471 4.226,4.441 7,6 z m 71,0 c 3.613,0.28 2.287,-4.38 4,-6 -1.333,0 -2.667,0 -4,0 0,2 0,4 0,6 z m -230,-3 c -0.719,2.614 -3.601,3.065 -4,6 3.177,-1.157 4.353,-4.314 6,-7 -1.72,0.395 -2.563,-1.484 -3,0 0.61,0.057 1.184,0.149 1,1 z m 249,1 c 1.496,-0.17 3.69,0.357 4,-1 -1.067,-0.802 -8.238,-3.204 -6,-1 1.22,0.113 2.367,0.299 2,2 z m -392,27 c 1.04,1.055 7.141,2.065 8,0 -2.081,-0.586 -3.232,-2.102 -5,-3 1.555,3.555 -3.396,0.604 -3,3 z m -2,-13 c -8.728,-2.613 -12.678,-15.313 -21,-15 3.038,8.304 10.805,16.664 15,25 5.426,-2.379 12.531,1.557 13,-2 -3.392,-1.608 -8.432,-1.568 -7,-8 z m 186,-7 c 11.3,-4.034 32.991,2.325 37,-9 -12.183,3.151 -27.616,3.051 -37,9 z m 201,0 c 0.753,-6.419 -1.914,-9.419 -8,-9 0.87,4.797 2.399,8.934 8,9 z m 20,-2 c 1.667,0 3.333,0 5,0 0,-1 0,-2 0,-3 -1.475,1.895 -4,2.366 -6,-2 -1.667,0 -3.333,0 -5,0 -0.384,6.288 6.767,-0.905 6,5 z m -89,16 c 6.342,-8.737 -9.743,-16.583 -14,-18 2.869,4.008 6.335,10.904 10,11 -1.685,1.428 1.533,6.41 4,7 z m 71,-12 c 2.729,-0.729 2.013,1.987 4,2 0.291,-3.376 3.762,-3.572 3,-8 -4.386,1.136 -3.285,-0.006 -7,-1 0,2.333 0,4.667 0,7 z m -338,-4 c 1.015,-3.427 -7.512,-2.382 -8,-1 1.454,1.546 5.119,0.881 8,1 z m 246,3 c 2.036,0.297 2.664,2.003 4,3 0.969,-4.92 -4.85,-1.5 -2,-6 -3.236,1.236 -0.765,-3.236 -4,-2 -0.748,3.081 3.447,1.219 2,5 z m -225,-1 c -4.958,0.11 -4.913,-0.981 -9,0 1.304,5.757 8.635,0.116 13,0 -1,0 -2,0 -3,0 -0.003,-1.003 0.81,-1.19 1,-2 -4.013,-0.207 -4.473,0.253 -2,2 z m 161,0 c 2.651,-0.015 5.889,0.555 6,-2 -2.651,0.015 -5.889,-0.555 -6,2 z m 163,5 c 4.609,-0.058 6.942,-2.391 7,-7 -1.667,0 -3.333,0 -5,0 1.477,4.477 -2.929,3.072 -2,7 z m -122,0 c 3.073,1.53 3.073,-6.53 0,-5 0,1.667 0,3.333 0,5 z m 122,9 c 0.547,1.453 -1.168,5.168 1,5 0.211,-1.208 1.109,-0.615 2,0 3.393,-7.145 6.083,-9.694 8,-19 -3.804,-1.47 -0.196,4.47 -4,3 1.43,3.209 -1.287,6.156 -5,7 -1.755,3.537 3.359,5.152 1,6 -0.41,-1.257 -1.289,-2.044 -3,-2 z m -28,-7 c 3.368,0.91 7.149,5.348 9,0 -4.463,0.463 -5.539,-2.461 -8,-4 0.225,1.891 -1.127,2.206 -1,4 z m 14,0 c 1.333,0 2.667,0 4,0 -0.345,-2.322 -0.647,-4.686 -4,-4 0,1.333 0,2.667 0,4 z m 25,4 c 3.582,0.582 3.04,-2.959 3,-6 -3.093,-0.093 -2.98,3.02 -3,6 z m -94,10 c 1.483,-5.15 -3.033,-4.301 -2,-9 -4.939,-0.727 -5.103,-6.23 -9,-8 2.636,6.698 6.187,12.48 11,17 z M 459,224 c 4.86,-1.625 5.119,4.041 13,2 0,-1 0,-2 0,-3 -2.47,1.96 -9.157,-3.812 -13,1 z m 77,7 c 2.406,-3.669 0.848,-5.094 -1,-9 -0.727,1.021 -0.473,7.123 1,9 z m 113,-3 c -1.687,-2.717 1.586,-4.683 -2,-6 0.605,2.062 -1.613,6.947 2,6 z m -402,26 c 1.72,0.395 2.563,-1.484 3,0 -1.272,4.297 3.619,11.029 4,17 1.966,0.299 1.983,-1.351 3,-2 -0.921,4.142 -0.033,9.156 2,15 5.371,-1.704 3.889,3.444 4,7 5.375,1.009 3.843,-5.485 9,-2 0.183,-3.516 -2.363,-4.304 -4,-6 0.279,2.279 -0.241,3.759 -2,4 -6.785,-12.215 -10.123,-27.877 -15,-42 -1.862,-0.956 -3.342,2.995 -4,0 5.281,-1.818 -4.948,-12.213 -6,-18 -2.877,7.305 5.053,15.436 6,27 z m 193,-23 c 1.89,-0.443 6.026,1.36 5,-2 -1.667,0 -3.333,0 -5,0 0,0.667 0,1.333 0,2 z m 296,4 c 6.553,1.273 4.417,-4.6 10,-2 -0.228,-1.772 1.008,-5.008 -2,-4 -1.227,3.44 -7.306,2.027 -8,6 z m -93,-4 c 0.122,2.544 1.455,3.878 4,4 0.147,-2.48 0.187,-4.853 -2,-5 -0.221,0.779 -0.838,1.163 -2,1 z m -250,8 c -0.458,-4.103 2.137,0.407 5,-1 -0.595,-2.072 1.236,-6.569 -1,-7 0.643,5.3 -6.884,2.851 -4,8 z m 53,-8 c 1.351,4.98 11.054,4.049 17,7 9.31,-6.184 -7.635,-6.281 -17,-7 z m 76,26 c 1.505,-2.829 0.621,-8.045 3,-10 -5.555,-2.598 0.439,-10.538 -4,-14 0.658,7.675 -1.322,17.989 1,24 z m 16,-12 c 1.265,-3.735 1.154,-8.845 3,-12 -1.333,0 -2.667,0 -4,0 0.638,3.695 -1.295,9.961 1,12 z m 24,-1 c 2.355,-0.022 2.944,1.723 6,1 -1.156,-2.511 -2.191,-5.143 -5,-6 -0.839,1.161 -1.319,2.681 -1,5 z m 2,-8 c -3.639,0.973 -0.462,-4.871 -5,-3 -0.489,3.156 1.802,3.531 1,7 2.545,-0.122 3.878,-1.456 4,-4 z m -311,1 c 1.283,1.375 5.979,1.741 6,-1 -3.049,0.391 -5.091,-2.629 -6,1 z m 332,3 c 1.146,-3.146 -1.57,-2.43 -2,-4 0.776,-0.224 1.973,-0.027 2,-1 -1.667,0 -3.333,0 -5,0 -0.454,3.788 3.064,3.603 5,5 z m 39,-4 c 0.676,2.324 1.8,4.2 5,4 0.807,-4.867 -1.779,-5.625 -5,-4 z m -209,9 c 1.333,0 2.667,0 4,0 -1.643,-4.357 -5.267,-6.733 -9,-9 0.633,4.034 5.406,3.927 5,9 z m 24,-9 c -3.135,-0.468 -2.819,2.514 -4,4 4.082,-0.083 3.079,4.92 7,5 1.776,-1.156 6.895,-4.076 8,0 -1.667,0 -3.333,0 -5,0 0,1.333 0,2.667 0,4 6.117,2.17 7.961,-2.249 13,1 -1.062,-3.729 3.75,-1.583 3,-5 -2.319,0.319 -3.839,-0.161 -5,-1 -0.17,1.496 0.357,3.69 -1,4 -0.613,-1.386 -3.85,-0.15 -4,-2 0.168,-1.165 1.581,-1.086 3,-1 0.16,-2.827 -3.004,-2.329 -3,-5 -2.062,-0.605 -6.947,1.614 -6,-2 -3.808,-1.713 -6.242,2.963 -7,1 2.078,-0.56 2.119,-1.56 1,-3 z m -114,4 c 2.667,0 5.333,0 8,0 -0.156,-1.177 0.172,-2.838 -1,-3 -0.24,3.093 -8.23,-1.563 -7,3 z m 328,3 c 1.375,-1.283 1.741,-5.979 -1,-6 -1.375,1.283 -1.741,5.979 1,6 z m -247,4 c 1.333,0 2.667,0 4,0 -0.473,-4.193 -1.833,-7.5 -5,-9 0.549,3.7 0.925,3.598 1,9 z m 238,-6 c 0,-0.667 0,-1.333 0,-2 0.61,-0.057 1.184,-0.149 1,-1 -1.667,0 -3.333,0 -5,0 -0.895,3.228 3.262,1.405 4,3 z m 33,8 c 0,1 0,2 0,3 3.817,-4.516 9.197,-7.469 11,-14 -4.581,2.709 -5.369,6.323 -9,8 1.787,-0.296 0.062,3.879 -2,3 z m 25,-7 c 1.887,-1.113 4.595,-1.405 5,-4 -1,0 -2,0 -3,0 1.236,3.236 -3.236,0.764 -2,4 z m -422,26 c 5.426,0.093 11.003,0.336 12,-4 -5.63,-2.907 -16.878,6.594 -23,0 5.453,-2.547 14.593,-1.407 19,-5 -4.307,-4.187 -14.473,4.102 -21,-2 5.812,-1.786 6.65,-3.81 16,-3 -1.776,-5.846 -15.31,0.922 -21,-3 1.938,-4.062 10.907,-1.093 16,-2 -1.057,-8.4 -11.7,-1.443 -18,-5 0.91,-5.503 12.304,1.535 12,-3 -3.478,-1.825 -13.84,-1.076 -16,-1 4.062,12.439 9.905,17.686 11,32 5.897,-0.28 14.557,-2.052 13,-4 z m 260,-13 c 3.263,-2.6 -1.89,-9.74 2,-10 3.555,-1.555 0.604,3.396 3,3 0.422,-4.421 -0.99,-7.009 -3,-9 -0.752,4.606 -5.264,10.704 -2,16 z m 38,-12 c -1.209,-0.211 -0.615,-1.11 0,-2 -1.904,-0.429 -2.512,-2.154 -5,-2 -1.522,3.935 4.568,5.325 5,4 z m -44,11 c -3.666,-1.667 -1.371,-9.295 -2,-14 -4.439,10.854 -2.723,32.664 5,38 2.598,-11.52 -7.638,-11.982 -3,-24 z m 21,-5 c -4.633,0.299 0.833,-9.5 -4,-9 -2.612,1.718 1.41,5.178 0,9 2.279,-1.373 3.76,2.578 4,0 z m -164,3 c 1.142,-2.454 3.71,-6.79 7,-4 -0.595,-2.072 1.236,-6.569 -1,-7 0.426,5.418 -10.841,7.569 -6,11 z m 210,-4 c -3.917,-0.75 -4.353,-4.981 -8,-6 0.61,-0.057 1.184,-0.149 1,-1 -2.232,0.435 -3.565,1.768 -4,4 4.24,-6.001 7.254,8.949 11,3 z m -384,48 c 2.492,-0.841 5.357,-1.309 9,-1 -3.543,-1.79 -0.056,-10.611 -4,-12 -0.591,4.688 1.193,10.209 -2,10 -3.854,-14.879 -1.858,-35.31 -7,-51 0.087,16.562 -6.481,36.661 -1,52 -1.177,0.157 -2.838,-0.172 -3,1 1.161,0.839 2.681,1.319 5,1 1.951,-2.38 -1.002,-4.771 2,-7 -0.054,1.871 0.77,2.117 2,1 -1.275,2.6 -2.194,3.016 -1,6 z m 566,-53 c -2.391,0.609 -7.256,-1.255 -8,1 3.361,1.291 5.822,1.223 8,-1 z m -465,4 c 6.297,0.993 13.304,-1.611 17,0 -1.518,-3.474 -15.4,-3.009 -17,0 z m 155,-2 c -1.453,0.547 -5.168,-1.168 -5,1 1.481,1.581 5.168,3.47 5,-1 z m -180,9 c 3,0 6,0 9,0 1.23,-4.563 -6.76,0.093 -7,-3 12.729,-6.678 32.078,6.783 48,1 -4.838,0.639 -7.072,-1.321 -10,0 0,-1.333 0,-2.667 0,-4 -14.271,3.746 -30.044,-4.479 -45,0 3.054,4.949 5.027,-0.063 5,6 z m 133,2 c 0.083,-5.417 -3.68,-6.987 -7,-9 -0.154,5.488 1.646,9.02 7,9 z m 147,-1 c 0.493,-3.827 -3.474,-3.193 -2,-8 -3.36,-1.027 -1.557,3.11 -2,5 3.804,-1.47 0.196,4.47 4,3 z m -347,26 c 4.273,-3.13 -1.991,-25.346 -4,-31 0.912,12.931 -0.292,22.514 4,31 z m 180,-31 c 2.296,4.511 1.491,1.811 0,5 1.064,2.27 6.286,0.381 9,1 0.632,-3.965 -3.802,-2.864 -3,-7 -3.056,-0.723 -3.644,1.022 -6,1 z m 41,7 c -3.505,-2.829 -6.9,-5.766 -11,-8 -3.233,8.007 8.189,12.777 11,8 z m 172,-4 c 2.671,-0.004 2.173,3.16 5,3 0,-1.333 0,-2.667 0,-4 -3.146,1.146 -2.43,-1.57 -4,-2 0.043,1.376 -0.471,2.196 -1,3 z m 16,6 c -1.969,-4.703 4.625,-5.952 1,-9 0.851,4.125 -6.046,6.774 -1,9 z m -245,-1 c 4.653,1.32 3.347,-3.32 8,-2 -0.547,-1.453 1.168,-5.168 -1,-5 -0.396,4.271 -7.017,2.317 -7,7 z m 66,-2 c 0.299,-1.966 -1.351,-1.983 -2,-3 1.22,-0.113 2.367,-0.299 2,-2 -1.667,0 -3.333,0 -5,0 0.021,3.312 1.688,4.979 5,5 z m -226,-3 c -0.61,0.057 -1.184,0.149 -1,1 3.651,7.648 3.008,20.522 10,32 0.28,-12.342 -4.417,-22.099 -8,-34 -0.057,0.61 -0.149,1.184 -1,1 z m 407,13 c 2.901,-5.083 8.241,-8.495 8,-14 -3.938,2.746 -8.178,10.466 -8,14 z m 17,-11 c -0.61,-0.057 -1.184,-0.149 -1,-1 1.571,-0.095 3.467,0.134 3,-2 -1.333,0 -2.667,0 -4,0 -0.854,2.037 0.871,6.213 2,3 z m -468,24 c 5.922,1.428 1.528,-3.417 5,-1 -1.006,-12.127 1.426,-14.618 5,-25 -8.197,3.803 -7.532,16.468 -10,26 z m 145,-25 c -6.667,0 -13.333,0 -20,0 2.254,3.294 17.746,3.294 20,0 z m 212,0 c 0.609,2.391 -1.256,7.255 1,8 0.057,-0.61 0.149,-1.184 1,-1 0.004,1.003 -0.811,1.19 -1,2 6.792,-0.57 2.7,-7.866 -1,-9 z m 5,16 c 3.802,0.802 1.271,-4.729 2,-7 -1.377,0.043 -2.195,-0.471 -3,-1 -0.875,0.994 -2.783,8.659 1,8 z m 100,-11 c -0.057,-0.61 -0.149,-1.184 -1,-1 0.171,1.496 -0.357,3.69 1,4 1.117,-1.55 3.251,-2.083 3,-5 -1.966,-0.299 -1.983,1.35 -3,2 z m -350,2 c 12.104,-1.229 29.192,2.525 38,-2 -14.638,2.05 -30.864,-4.167 -38,2 z m 91,4 c 3.718,0.051 3.96,-3.374 9,-2 -0.17,-1.496 0.357,-3.69 -1,-4 1.027,3.36 -3.11,1.557 -5,2 0.877,3.21 -2.593,2.073 -3,4 z m 20,2 c 4,-3.608 7.621,1.669 12,1 1.035,-5.368 -3.359,-5.307 -4,-9 -3,0 -6,0 -9,0 0.609,2.391 -1.255,7.255 1,8 z m -60,-6 c -3.667,0 -7.333,0 -11,0 -0.076,3.554 10.922,2.763 11,0 z m 100,9 c 1.316,-2.35 2.787,-4.546 2,-9 -4.958,-0.11 -4.913,0.981 -9,0 2.017,3.316 3.113,7.554 7,9 z m 74,0 c 5.046,-2.908 -1.636,-5.345 2,-9 -1,0 -2,0 -3,0 -0.785,4.118 1.535,5.132 1,9 z m 76,-3 c 0,-1.333 0,-2.667 0,-4 -1.496,-0.17 -3.69,0.357 -4,-1 0.555,0.003 1.135,-0.81 0,-1 -2.282,2.576 0.993,5.658 4,6 z m -396,15 c -1.004,-5.996 2.205,-16.205 -2,-19 1.004,5.996 -2.205,16.205 2,19 z m 99,-18 c 3.503,6.759 24.429,1.902 31,-1 -10.058,0.609 -22.589,-1.255 -31,1 z m 131,-1 c 0,2.333 0,4.667 0,7 1.667,0 3.333,0 5,0 0,-1.333 0,-2.667 0,-4 -1.721,-0.395 -2.563,1.484 -3,0 1.787,0.296 0.062,-3.88 -2,-3 z m 148,7 c -0.004,-1.786 2.693,-5.817 0,-7 -0.211,1.208 -1.109,0.615 -2,0 1.214,1.786 0.183,5.817 2,7 z m -19,5 c 2.67,0.997 4.601,2.732 7,4 -2.729,-2.503 -6.612,-13.737 -9,-10 1.717,-0.065 2.484,1.564 2,6 z m -315,21 c 3.586,1.935 3.664,-0.385 7,-1 7.147,3.95 15.219,2.607 25,5 5.034,-6.054 19.995,-7.22 22,-13 2.043,2.135 3.957,-0.282 6,-1 -0.194,-3.139 -3.956,-2.711 -3,-7 -15.093,3.954 -26.995,13.996 -43,14 0.066,-4.066 -3.17,-4.83 -3,-9 -2.503,-1.32 -3.13,3.954 -4,1 -0.15,-4.192 0.517,-2.408 2,-1 0.73,-7.73 -5.704,-8.296 -5,-16 -4.77,5.949 3.116,16.085 3,24 -1.161,0.839 -2.681,1.319 -5,1 -1.305,-2.072 -0.895,-9.05 -4,-12 -5.262,7.057 6.506,11.619 2,15 z m 140,-24 c 6.268,-1.268 7.849,2.151 11,4 0.363,-1.97 1.503,-7.304 -2,-8 1.7,5.846 -7.962,-1.005 -9,4 z m -221,8 c 3.819,0.415 7.868,-8.241 3,-10 -0.143,4.19 -4.204,4.462 -3,10 z m 129,-7 c 0,0.667 0,1.333 0,2 -8.482,1.851 -16.538,4.129 -20,11 8.359,-2.974 15.36,-7.307 25,-9 0.33,-4.33 -5.538,-2.462 -5,-7 -3.023,0.31 -7.777,-1.11 -8,2 2.391,0.609 7.255,-1.255 8,1 z m 12,-1 c 2.496,0.504 3.34,2.66 6,3 -1.063,-3.729 3.75,-1.583 3,-5 -3.236,0.431 -8.649,-1.316 -9,2 z m 101,5 c 5.22,-3.671 4.181,4.063 13,3 1.081,-2.919 2.239,-5.761 2,-10 -5,0 -10,0 -15,0 0,2.333 0,4.667 0,7 z m 135,3 c -0.627,-3.04 1.28,-8.613 -1,-10 -0.709,2.381 -2.643,9.276 1,10 z m -98,1 c 1.815,-5.482 -4.815,-2.518 -3,-8 -3.114,-0.552 -6.517,-0.817 -9,-2 0.479,7.521 2.235,13.765 11,13 0.505,-3.12 -2.356,-4.842 1,-3 z m 116,2 c -0.43,-3.869 -1.095,-3.558 1,-6 -4.028,0.695 -1.691,-4.975 -4,-6 -2.415,5.883 0.01,8.304 3,12 z m -365,-5 c -0.605,-2.062 1.614,-6.947 -2,-6 0.015,2.651 -0.555,5.888 2,6 z m 73,-1 c -3.008,1.008 -1.772,-2.228 -2,-4 -4.836,-0.126 0.456,5.207 -2,6 2.775,-0.993 2.829,5.682 5,2 -3.363,-0.396 3.144,-5.677 0,-3 -2.078,1.119 -2.119,1.078 -1,-1 z m 2,-1 c 1.165,0.168 1.086,1.581 1,3 3.724,-1.965 11.958,-4.678 13,-6 -5.877,-0.21 -9.206,2.127 -14,3 z m 262,22 c 1.016,-3.479 -0.666,-10.006 -3,-15 0.263,7.62 0.263,9.38 0,17 2.503,-0.125 3.131,-1.909 4,1 -5.62,0.107 0.326,5.599 -3,8 -8.954,-6.396 -0.67,-26.604 -10,-34 -0.738,7.5 -0.283,14.236 -1,25 -3.391,-2.151 -2.609,6.978 -6,8 0.589,-8.837 3.204,-16.735 0,-24 -2.395,4.605 -1.975,12.025 -5,16 -2.206,-11.549 4.535,-19.452 3,-27 -2.098,3.45 -4.181,6.354 -6,7 -2.542,0.903 -3.008,6.026 -4,8 -2.271,4.517 -8.418,8.085 -11,12 -2.384,3.615 -2.344,8.89 -5,12 -0.398,0.467 -2.644,-0.492 -3,0 -0.641,0.883 0.54,3.039 0,4 -2.493,4.433 -7.402,6.879 -11,9 -0.113,-1.22 -0.299,-2.368 -2,-2 1.075,3.924 3.139,6.861 7,8 -3.521,3.777 -5.205,-2.737 -10,-1 -4.934,6.277 -8.165,18.816 -11,24 0.277,-0.507 -1.236,-1.38 -2,-1 0.893,8.554 -13.084,17.887 -3,23 1.772,-6.648 7.605,-9.738 12,-15 -0.212,0.254 -2.405,-0.397 -2,-1 5.836,-8.676 19.451,-12.975 25,-22 3.527,2.482 6.771,-3.861 11,-4 1.32,-2.503 -3.953,-3.13 -1,-4 5.223,4.292 19.069,-2.707 22,-6 0.431,2.236 4.928,0.405 7,1 0.228,-1.772 -1.008,-5.008 2,-4 0.004,1.003 -0.811,1.19 -1,2 16.244,1.245 22.535,-7.465 33,-12 0.395,-1.72 -1.484,-2.563 0,-3 1.892,1.174 9.38,-0.582 8,-6 -3.781,1.448 -1.919,-2.748 -5,-2 -1.551,0.239 0.594,3.718 -2,5 0,-2.667 0,-5.333 0,-8 -1.904,-0.429 -2.513,-2.154 -5,-2 -2.147,6.594 5.582,11.316 0,15 0.792,-4.618 -1.111,-2.859 -2,-4 0,-4.333 0,-8.667 0,-13 -4.382,0.049 -4.527,-4.14 -9,-4 1.74,3.387 0.894,3.562 4,6 0.1,3.1 -0.453,5.547 -2,7 -0.729,-2.271 1.802,-7.802 -2,-7 -1.746,4.92 -1.538,11.795 -4,16 -4.145,-9.966 3.818,-12.509 1,-25 -3.724,0.057 -2.495,-4.838 -7,-4 -0.443,7.535 5.553,13.129 1,19 -0.239,-1.427 -1.646,-1.687 -2,-3 z m -88,76 c 0.639,5.973 -3.175,7.491 -3,13 3.599,-1.735 4.964,-5.703 7,-9 -0.122,-2.544 -1.455,-3.878 -4,-4 z M 313,277 c -0.059,4.059 2.038,5.962 5,7 9.223,-6.597 20.911,-5.411 33,-8 -12.882,-3.785 -24.543,2.052 -38,1 z m -108,19 c 5.18,-0.973 3.846,-17.479 1,-20 1.351,4.784 -6.447,14.883 -1,20 z m 347,-9 c 2.935,-3.147 1.053,-6 0,-10 -1.333,0 -2.667,0 -4,0 1.305,3.362 1.325,8.008 4,10 z m -200,-7 c -12.381,-2.956 -21.074,6.19 -34,6 0.625,2.375 1.345,4.655 4,5 4.86,-4.474 12.367,-6.299 21,-7 0.156,-1.177 -0.172,-2.838 1,-3 2.431,2.138 5.782,-1.147 8,-1 z m -188,0 c -3.342,1.612 -4.805,11.767 0,13 -1.638,-5.021 4.646,-7.288 1,-11 0.003,0.555 -0.81,1.135 -1,0 1.009,-0.012 1.258,-1.753 0,-2 z m 159,15 c 3.36,-1.027 1.557,3.11 2,5 1.453,-0.547 5.168,1.168 5,-1 3.127,-5.548 15.805,-10.189 23,-15 -13.358,0.309 -20.429,6.905 -30,11 z m 36,-13 c -2.041,3.685 -6.255,-3.981 -7,1 0.655,1.627 10.952,1.725 7,-1 z m 62,2 c -5.815,1.482 -5.567,-3.1 -11,-2 1.327,2.078 9.38,6.729 11,2 z m 180,4 c 2.32,0.237 6.046,-6.237 2,-6 0.171,2.837 -3.382,1.952 -2,6 z m -371,8 c 1.102,-5.245 0.842,-9.885 -2,-13 3.925,4.303 -5.052,-0.236 -2,0 -0.607,6.273 1.179,10.154 4,13 z m 3,-1 c 1.891,-0.224 2.206,1.127 4,1 1.134,-3.368 -2.564,-10.767 -4,-12 0,3.667 0,7.333 0,11 z m 154,13 c 5.242,11.551 9.024,27.632 16,34 -2.242,-13.181 -2.282,-30.766 -2,-49 -2.242,-1.731 -8.034,-2.363 -5,-6 -4.254,-3.358 -10.122,4.263 -12,-2 -8.574,7.917 -0.225,15.894 3,23 z M 240,295 c 1.891,-0.224 2.206,1.127 4,1 -1.305,-3.362 -0.8,-8.533 -4,-10 0,3 0,6 0,9 z m 177,-6 c -4.027,1.027 -4.443,-1.557 -6,-3 -0.41,1.705 -1.29,-0.21 -3,0 0.102,4.725 5.515,1.942 3,5 2.062,-0.605 6.947,1.614 6,-2 z m 138,2 c 3.073,1.53 3.073,-6.53 0,-5 0,1.667 0,3.333 0,5 z m -357,5 c 5.315,1.573 1.374,-9.691 1,-8 0.769,3.769 -1.22,4.78 -1,8 z m 366,0 c 0,-2.333 0,-4.667 0,-7 -3.236,1.236 -0.764,-3.236 -4,-2 0.678,3.655 1.246,7.42 4,9 z m -216,-7 c -0.279,2.279 0.241,3.759 2,4 -0.129,-1.795 0.993,-2.34 3,-2 0.144,-4.02 -2.564,-2.646 -5,-2 z m -12,23 c 0,2 0,4 0,6 7.273,-6.117 10.607,-11.934 17,-19 1.771,-1.957 5.604,-6.61 8,-10 -4.016,-0.333 -13.291,7.026 -12,12 -6.526,-2.618 -10.487,12.535 -13,11 z m 95,-19 c 1.742,-0.075 3.11,0.223 4,1 -0.331,-3.003 -1.529,-5.137 -4,-6 0,1.667 0,3.333 0,5 z m -118,2 c -0.504,-2.496 -2.66,-3.34 -3,-6 -9.323,2.677 -16.746,7.254 -23,13 3.729,1.95 4.071,2.744 8,3 1.004,-2.822 1.465,-2.506 2,-4 5.857,2.388 10.433,-7.774 16,-6 z m 272,0 c 2.545,-0.122 3.878,-1.456 4,-4 -2.355,0.022 -2.944,-1.723 -6,-1 -0.745,3.078 2.745,1.922 2,5 z m -7,5 c -2.225,-3.776 -5.225,-6.776 -9,-9 2.827,3.172 3.736,8.264 9,9 z m -226,27 c 1.879,-13.787 6.056,-25.278 12,-35 -10.406,7.927 -16.691,19.976 -23,32 3.775,0.892 3.773,5.561 8,6 1.753,-2.873 -0.883,-2.257 3,-3 z m -22,-20 c 1.22,0.113 2.368,0.299 2,2 6.504,-3.496 10.232,-9.768 15,-15 -3.869,-0.668 -3.558,-0.002 -6,-1 -1.441,9.062 -11.632,3.958 -11,14 z m 48,4 c 3.729,-4.181 -1.64,-14.458 -5,-18 -13.623,0.874 -14.081,22.53 -16,30 -0.06,0.232 -2,-1.001 -2,-1 -0.765,5.136 0.601,11.172 0,15 18.583,15.75 31.556,37.111 41,62 3.213,-0.616 1.37,3.599 4,1 -0.63,6.364 3.654,13.668 7,21 3.515,-20.887 -6.972,-36.333 -9,-55 -1.44,-2.212 -2.44,1.259 -3,-1 2.174,-6.198 -4.167,-29.02 -7,-24 -1.829,-4.843 1.845,-3.173 1,-9 -1.72,-0.395 -2.563,1.484 -3,0 2.276,-6.943 -3.759,-18.456 -7,-20 1.052,-0.055 0.787,-1.282 -1,-1 z m 36,42 c 2.013,-19.372 4.93,-39.554 5,-58 -4.982,-0.236 -8.325,-2.719 -10,-1 -0.057,-0.61 -0.149,-1.184 -1,-1 1.941,20.059 1.758,42.242 6,60 z m 152,-55 c 1.936,1.064 2.613,3.387 4,5 0.168,-1.165 1.581,-1.086 3,-1 -1.636,-3.031 -3.854,-5.479 -6,-8 0.225,1.891 -1.127,2.207 -1,4 z m -267,9 c 6.449,-0.115 10.064,2.602 14,5 3.474,-0.192 3.796,-3.537 7,-4 -0.182,-4.376 -1.963,-9.004 -7,-11 -3.008,4.992 -12.605,3.395 -14,10 z m 136,-2 c -0.977,-1.023 -1.977,-2.023 -3,-3 -0.553,3.748 -4.712,13.542 0,16 2.6,-2.099 0.428,-7.087 -1,-6 1.942,-1.724 3.621,-3.713 4,-7 z m 28,18 c -0.596,-4.596 0.344,-7.657 3,-9 0.877,-3.21 -2.594,-2.073 -3,-4 2.08,-2.19 3.232,0.877 5,-1 0.337,-4.003 -2.858,-4.475 -7,-4 0.545,2.775 3.242,2.829 0,5 -3.316,-4.204 -8.031,-2.939 -14,-7 1.235,3.236 -3.235,0.764 -2,4 4.428,-1.304 4.624,4.258 8,1 -2.71,2.829 2.473,3.404 4,5 -4.727,3.213 -8.454,-1.841 -12,-3 -9.965,25.036 -14.556,55.444 -19,86 5.036,-3.203 7.772,-8.667 6,-14 1.278,0.055 1.385,1.282 3,1 1.755,-3.537 -3.359,-5.152 -1,-6 0.168,1.165 1.581,1.086 3,1 -0.081,-4.748 3.763,-5.57 3,-11 0.432,-0.302 1.904,1.183 2,1 6.779,-12.969 11.8,-29.941 21,-42 -4.867,-3.133 -10.665,-5.334 -14,-10 5.773,1.227 8.948,5.052 14,7 z m -166,4 c 1.702,-3.007 9.39,-3.983 12,-11 -9.542,-4.258 -22.28,-7.236 -30,-3 1.499,-2.168 5.004,-2.329 5,-6 -8.79,2.106 -15.096,-3.548 -21,-1 3.158,0.192 4.842,4.864 8,2 5.485,9.304 17.763,12.309 26,19 z m 23,-15 c 0.222,3.778 4.301,3.699 7,5 1.292,-3.958 -3.292,-2.042 -2,-6 -2.319,-0.319 -3.839,0.161 -5,1 z m 237,6 c 1.667,0 3.333,0 5,0 -0.229,-1.772 1.008,-5.008 -2,-4 1.471,3.804 -4.47,0.196 -3,4 z m -234,3 c -5.127,2.144 -4.522,-2.198 -10,-2 -3.312,4.311 -9.574,4.813 -11,13 8.173,-1.355 5.6,3.545 14,3 -0.697,-3.95 6.08,-3.79 3,-9 2.201,2.083 4.684,-1.192 4,-5 z m 470,6 c 3.816,1.517 6.444,4.222 8,8 3.492,-0.508 3.39,-4.61 9,-3 0.129,-6.796 -3.59,-9.744 -9,-11 0.398,3.553 3.281,3.068 4,4 -0.862,0.745 -0.842,4.959 -3,7 -2.053,-1.986 -6.366,-6.916 -9,-5 z m -574,4 c -2.379,0.589 2.848,-5.973 -2,-5 -0.318,2.101 -0.151,8.662 2,5 z m 313,-4 c -4.938,1.395 -8.524,4.142 -16,3 -40.845,14.853 -59.727,47.005 -76,85 -0.288,12.212 -9.198,25.908 -5,36 -1.128,-6.13 7.341,-6.865 4,-12 6.287,0.351 -0.905,-7.428 5,-4 1.082,-5.109 3.395,-3.471 3,-9 0.444,-0.315 1.889,1.2 2,1 2.725,-4.876 7.727,-14.753 8,-20 1.278,0.055 1.385,1.282 3,1 -0.465,-3.814 5.289,-4.417 2,-8 5.262,2.881 4.599,-7.792 10,-8 0.075,-1.742 -0.224,-3.11 -1,-4 3.658,2.681 3.867,-5.002 8,-5 0.075,-1.742 -0.224,-3.11 -1,-4 4.215,3.237 3.571,-5.298 8,-5 -2.908,-6.539 3.635,-0.681 1,-6 1.352,0.314 1.91,1.423 4,1 1.461,-7.662 13.066,-10.101 12,-17 3.402,2.657 5.999,-3.947 6,-5 6.865,-3.475 17.177,-12.151 23,-20 z m 23,5 c -0.043,1.376 0.471,2.196 1,3 -3.47,-0.873 -3.431,1.539 -2,3 -1.278,-0.055 -1.385,-1.282 -3,-1 -5.623,7.427 -11.294,15.348 -17,23 -0.677,0.907 -3.305,0.834 -4,2 -1.486,2.493 -2.544,12.521 -5,9 0,1.667 0,3.333 0,5 4.788,0.788 4.687,-3.314 9,-3 -0.516,-3.704 -1.704,-2.516 2,-2 0.097,-3.549 7.688,-17.764 12,-20 1.447,-3.781 -2.748,-1.919 -2,-5 0.774,2.084 6.013,-0.737 3,-2 -1.807,1.921 0.307,-2.36 3,0 0.602,-6.772 12.016,-12.136 8,-17 0.454,3.788 -3.064,3.603 -5,5 z m -322,7 c -1.007,-3.326 2.211,-10.878 -2,-11 1.007,3.326 -2.211,10.878 2,11 z m -104,7 c 3.58,-7.087 12.469,-8.864 16,-16 -5.471,4.537 -16.79,8.532 -16,16 z m 173,9 c 0.013,-1.987 2.729,-1.271 2,-4 -1.862,-0.956 -3.342,2.995 -4,0 5.262,-0.82 -2.874,-2.257 -2,-5 -1.966,-0.299 -1.983,1.35 -3,2 1.301,-5.445 -4.604,-4.426 -3,-7 -1.496,-0.17 -3.69,0.357 -4,-1 2.521,-0.787 -7.356,-11.106 -11,-9 9.696,6.637 15.219,17.448 25,24 z m 0,2 c 1.333,0 2.667,0 4,0 0,-1.333 0,-2.667 0,-4 -2.544,0.122 -3.878,1.456 -4,4 z m 497,-20 c 0,-0.667 0,-1.333 0,-2 -0.057,-0.61 -0.149,-1.184 -1,-1 -1.494,3.299 -1.178,-3.345 -4,-2 0.021,3.312 1.688,4.979 5,5 z m -242,16 c -2.262,0.118 -5.476,6.915 -7,11 1.907,1.877 1.81,-0.593 5,0 1.199,-11.206 9.425,-17.635 11,-31 -3.27,6.397 -7.875,11.458 -9,20 z m 237,-12 c 0,-1.333 0,-2.667 0,-4 -4.357,1.358 -3.618,-2.382 -6,-3 -0.871,1.849 1.881,6.989 6,7 z m -683,7 c 6.615,-2.962 10.667,-6.916 16,-13 -6.81,2.857 -12.352,6.981 -16,13 z m 155,-4 c 1.045,-4.25 -1.911,-7.032 -5,-9 -0.09,2.729 1.666,2.013 0,4 3.244,0.09 3.227,3.44 5,5 z m 537,-5 c 1.667,0 3.333,0 5,0 0,-1 0,-2 0,-3 -1.72,-0.395 -2.563,1.484 -3,0 0.555,0.003 1.135,-0.81 0,-1 -0.013,1.987 -2.729,1.271 -2,4 z m -606,3 c 1.494,-1.506 4.482,-1.518 4,-5 -2.116,0.296 -5.46,4.434 -4,5 z m -19,-1 c 0,1 0,2 0,3 2.595,-0.405 2.887,-3.113 4,-5 -3.236,-1.236 -0.764,3.236 -4,2 z m 34,4 c 3.979,1.717 1.911,-9.602 0,-5 0.762,0.789 0.72,3.498 0,5 z m 359,7 c -1.784,-5.189 5.912,-10.196 0,-13 2.043,5.98 -5.471,9.861 0,13 z m -3,-1 c 0.164,3.164 -2.658,3.342 -2,7 4.538,1.871 1.361,-3.973 5,-3 0.17,-2.503 -1.536,-3.13 -3,-4 z m 238,-7 c 2.803,2.197 2.039,7.961 4,11 3.333,0 6.667,0 10,0 -1.016,-5.152 -5.671,-11.287 -10,-16 0.762,3.761 -5.311,0.69 -4,5 z m -3,9 c -2.615,-0.282 -4.302,0.365 -4,3 1.871,0.054 2.117,-0.77 1,-2 1.454,1.546 5.119,0.88 8,1 -1.18,-4.844 -9.402,-5.624 -7,-11 -3.146,1.146 -2.43,-1.57 -4,-2 1.098,4.569 4.113,7.22 6,11 z M 88,364 c 6.579,-5.421 11.521,-12.479 16,-20 -6.625,5.375 -13.079,10.921 -16,20 z m 265,-20 c 16.333,39.62 38.291,81.5 50,129 5.729,-1.777 2.237,-13.937 0,-17 -0.547,1.453 1.168,5.168 -1,5 0.514,-25.499 -10.538,-57.091 -21,-73 -0.673,-9.476 -9.556,-24.245 -16,-28 -1.086,-7.894 -8.463,-10.582 -12,-16 z m -45,6 c -0.435,-2.232 -1.768,-3.565 -4,-4 -0.464,3.131 0.869,4.464 4,4 z m 486,3 c 1,0 2,0 3,0 0.279,-2.279 -0.24,-3.759 -2,-4 -0.314,1.352 -1.424,1.91 -1,4 z m -692,4 c 4.723,0.39 6.173,-2.493 7,-6 -1,0 -2,0 -3,0 0.114,3.448 -4.114,2.552 -4,6 z m 211,-2 c -0.122,-2.544 -1.456,-3.878 -4,-4 -1.01,3.934 2.209,5.806 4,4 z m 453,7 c -1.149,-3.184 -3.886,-4.781 -6,-7 0.954,3.379 2.807,5.86 6,7 z m -181,3 c 1.891,0.224 2.206,-1.127 4,-1 0,-2 0,-4 0,-6 -2.681,0.986 -3.152,4.181 -4,7 z m 57,6 c 0.585,-4.251 -0.979,-6.355 -4,-7 0.848,2.819 1.319,6.014 4,7 z m -66,7 c 0,1 0,2 0,3 4.652,-5.343 8.303,-6.818 11,-15 -6.488,1.893 -2.619,4.608 -9,8 -0.228,1.772 1.008,5.008 -2,4 z m 22,-6 c 1.02,-1.314 0.98,-3.686 2,-5 -1.377,0.043 -2.195,-0.471 -3,-1 0.392,3.049 -2.629,5.091 1,6 z m -331,4 c 0.478,-4.811 -1.856,-6.811 -4,-9 1.284,3.05 0.969,7.698 4,9 z m 279,0 c 3.471,-0.862 4.44,-4.226 6,-7 -4.739,-0.406 -6.504,2.163 -6,7 z m -26,2 c 4.475,1.762 3.596,-5.292 1,-5 0.826,2.826 -1.409,2.591 -1,5 z m 16,2 c 3.436,1.116 7.703,-5.387 3,-6 0.045,3.044 -2.111,3.889 -3,6 z m 99,2 c -0.605,-2.062 1.613,-6.947 -2,-6 0.016,2.651 -0.555,5.888 2,6 z m 63,-2 c -2.056,-0.945 -2.066,-3.934 -5,-4 0.608,1.804 3.31,6.584 5,4 z m -106,12 c 2.917,-2.949 10.777,-10.952 7,-14 -3.246,5.319 -7.006,7.467 -7,14 z m 94,-7 c 1.478,-4.477 -2.929,-3.072 -2,-7 -1,0 -2,0 -3,0 0.867,3.133 2.478,5.522 5,7 z m -35,5 c -0.439,-5.228 -2.157,-9.176 -6,-11 -1,5.418 5.75,4.77 1,6 2.35,0.983 1.66,5.007 5,5 z m -513,1 c -0.77,-4.508 2.737,-9.092 1,-9 -2.481,0.792 -5.046,7.774 -1,9 z m 14,-6 c 1.092,5.425 -2.018,6.649 -2,11 3.284,-1.635 9.189,-10.466 5,-13 0.129,1.795 -0.993,2.34 -3,2 z m 486,11 c 0.113,-1.22 0.299,-2.368 2,-2 -3.389,-1.944 -0.049,-10.618 -5,-11 -0.278,5.612 -0.105,10.772 3,13 z m 34,5 c -0.477,-9.19 -7.786,-11.547 -11,-18 1.643,8.024 6.041,13.292 11,18 z m 21,-16 c -0.748,3.081 3.447,1.219 2,5 0.667,0 1.333,0 2,0 -0.003,-1.003 0.81,-1.19 1,-2 -2.358,-0.309 -1.86,-3.473 -5,-3 z m 14,9 c -0.073,-5.26 -3.836,-6.831 -7,-9 2.127,3.207 2.71,7.957 7,9 z m 84,-7 c 2.072,-0.595 6.569,1.236 7,-1 -1.349,-1.364 -6.981,-1.906 -7,1 z m -181,18 c 5.073,-0.475 4.725,-16.315 3,-17 -0.019,6.648 -0.831,12.502 -3,17 z m 37,-6 c 0.862,-6.195 -2.484,-8.183 -4,-12 0.891,4.443 1.083,9.584 4,12 z m 41,-3 c 0.38,-5.38 -3.915,-6.085 -6,-9 1.25,3.75 2.07,7.929 6,9 z m -64,5 c 3.772,-1.593 3.048,-8.42 1,-11 0.125,4.125 -1.738,6.262 -1,11 z m 156,21 c -7.908,-12.925 -15.939,-19.889 -27,-30 7.582,11.418 16.987,21.013 27,30 z M 663,398 c 0.096,1.571 -0.134,3.467 2,3 0.585,-4.251 -0.979,-6.355 -4,-7 0.016,2.631 -0.555,6.644 2,4 z m 16,1 c 0.2,-3.2 -1.676,-4.324 -4,-5 1.113,1.887 1.405,4.595 4,5 z m 32,16 c -3.396,-3.952 -0.699,-19.281 -7,-17 1.091,3.519 -0.679,16.907 7,17 z m -78,-9 c 3.156,1.286 3.156,-8.286 0,-7 0,2.333 0,4.667 0,7 z m -16,20 c 0.465,-8.535 3.748,-14.251 5,-22 -1.322,-0.012 -0.914,-1.753 -2,-2 -2.729,5.268 -6.213,19.331 -3,24 z m 52,7 c 0.985,-7.466 2.975,-24.199 -1,-30 1.743,7.443 -2.587,22.189 1,30 z m 82,3 c 5.965,-6.013 -3.92,-18.441 -8,-24 1.357,-3.14 -2.382,-6.128 -3,-4 3.812,9.188 10.418,15.582 11,28 z m 7,2 c 0.156,1.177 -0.172,2.838 1,3 2.205,-2.706 -1.453,-5.951 -4,-7 -0.869,4.745 2.442,2.768 3,4 z m -425,924 c 2.999,1.393 6.959,1.158 6,-4 -1.667,0 -3.333,0 -5,0 0.075,1.742 -0.223,3.11 -1,4 z m 152,21 c 1.742,-0.075 3.11,0.223 4,1 0.336,-3.67 -1.536,-5.131 -4,-6 0,1.667 0,3.333 0,5 z m -176,44 c 6.564,-0.567 15.303,-7.268 16,-17 -7.653,3.347 -13.4,8.6 -16,17 z m 191,1 c 1.64,-3.65 -1.673,-14.543 -5,-8 0.003,-0.555 -0.81,-1.135 -1,0 2.045,2.622 1.594,7.739 6,8 z m -81,15 c -1.047,-3.62 2.269,-11.602 -2,-12 1.417,5.426 -3.533,11.003 2,12 z m 84,-1 c 0.012,-1.321 1.753,-0.914 2,-2 -1.762,-2.509 -1.652,-0.702 -4,-2 -0.279,2.279 0.241,3.76 2,4 z m -160,7 c -0.729,-2.271 1.802,-7.802 -2,-7 -1.658,1.776 -1.451,7.327 2,7 z m 64,2 c 0.261,-1.406 2.193,-1.14 3,-2 0.1,-3.1 -0.453,-5.547 -2,-7 -2.313,1.682 -3.916,7.701 -1,9 z m -16,10 c 0.902,-4.867 1.296,-9.311 0,-16 -5.494,2.373 -4.605,13.275 0,16 z"
   id="path3"
   style="fill-rule:evenodd" />
</svg>
