<?xml version="1.0" encoding="UTF-8" standalone="no"?>
<svg
   width="468.4209"
   height="331.60028"
   viewBox="0 0 468.4209 331.60028"
   version="1.1"
   id="svg4"
   xmlns="http://www.w3.org/2000/svg"
   xmlns:svg="http://www.w3.org/2000/svg">
  <defs
     id="defs8" />
  <path
     d="m 114.155,3.6328734 c -4.04,2.109 -7.962,4.451 -8.715,5.205 -3.222,3.2209996 -8.301,13.1779996 -10.781,21.1329996 -2.643,8.475 -2.763,8.649 -10.416,15.019 -4.259,3.544 -10.443,8.154 -13.743,10.244 -3.3,2.09 -6.225,4.101 -6.5,4.468 -0.275,0.368 -4.325,3.084 -9,6.036 -4.675,2.952 -9.625,6.208 -11,7.236 -8.048,6.018 -35.92,22.835 -37.525,22.642 -0.279,-0.034 -1.851,0.233 -3.492,0.594 -2.48,0.544 -2.983,1.147 -2.983,3.575 0,1.606997 0.113,2.948997 0.25,2.982997 0.137,0.035 2.275,0.28 4.75,0.547 4.268,0.458 6.968,-0.759 52.271,-23.562997 51.44,-25.893 49.759,-25.255 61.229,-23.221 l 4,0.709 0.076,10.983 c 0.042,6.041 -0.295,12.66 -0.75,14.71 -0.652,2.942 -0.306,5.108 1.637,10.272 5.703,15.149997 10.704,25.193997 15.62,31.367997 3.458,4.342 15.726,14.888 26.417,22.707 2.2,1.609 4.45,3.418 5,4.02 0.85,0.93 10.176,7.023 17,11.106 1.1,0.658 4.925,2.942 8.5,5.075 7.415,4.425 13.717,6.926 19.5,7.739 3.749,0.527 14.649,3.534 20.678,5.705 2.505,0.902 6.388,5.713 8.298,10.281 0.46,1.1 1.137,4.475 1.504,7.5 0.367,3.025 1.946,12.817 3.509,21.759 l 2.842,16.26 -2.115,2.252 c -1.164,1.238 -2.414,4.118 -2.779,6.399 -0.777,4.86 -5.741,13.546 -20.96,36.676 -3.313,5.035 -7.548,11.704 -9.411,14.822 -1.864,3.117 -7.254,9.45 -11.977,14.074 -8.031,7.86 -8.979,8.482 -14.589,9.571 -3.3,0.641 -10.725,1.104 -16.5,1.029 -6.134,-0.079 -11.718,0.359 -13.428,1.054 -1.917,0.779 -5.285,0.958 -9.75,0.518 -7.021,-0.692 -8.475,0.073 -4.664,2.452 1.734,1.084 6.785,1.214 25.75,0.667 12.975,-0.374 24.267,-0.865 25.092,-1.091 0.879,-0.24 2.191,0.801 3.169,2.514 3.131,5.485 13.831,5.149 13.831,-0.435 0,-1.386 -0.45,-2.521 -1,-2.521 -0.55,0 -1,-0.45 -1,-1 0,-1.519 2.594,-1.195 4,0.5 1.346,1.622 9,2.12 9,0.585 0,-0.503 -2.087,-2.752 -4.638,-4.998 l -4.639,-4.083 3.199,-6.496 c 1.759,-3.574 4.208,-7.737 5.443,-9.253 1.235,-1.515 4.617,-6.277 7.515,-10.582 2.899,-4.304 5.904,-8.579 6.679,-9.5 0.774,-0.92 4.546,-6.173 8.381,-11.673 3.836,-5.5 8.006,-11.282 9.267,-12.848 7.284,-9.05 9.144,-15.405 6.398,-21.868 -2.394,-5.634 -7.78,-32.918 -8.051,-40.784 -0.335,-9.685 0.354,-11 5.761,-11 5.344,0 25.939,-2.53 36.312,-4.461 4.33,-0.806 9.207,-1.694 10.837,-1.975 1.63,-0.28 7.575,-1.908 13.212,-3.617 l 10.249,-3.109 7.787,2.999 c 4.284,1.649 12.431,4.723 18.105,6.831 9.881,3.67 10.505,4.08 14.75,9.681 2.438,3.217 4.433,6.815 4.433,7.994 0,1.18 1.317,6.873 2.927,12.651 4.639,16.65 9.796,35.777 12.135,45.006 1.185,4.675 2.621,9.379 3.19,10.453 0.569,1.074 0.958,4.538 0.863,7.698 -0.16,5.327 0.048,5.91 2.856,7.986 1.666,1.231 3.029,2.814 3.029,3.516 0,0.702 1.012,1.809 2.25,2.459 1.238,0.65 4.827,3.402 7.977,6.115 7.153,6.159 11.294,8.968 15.773,10.697 1.925,0.743 4.223,2.159 5.106,3.146 1.547,1.73 11.555,5.602 12.371,4.786 0.22,-0.219 -0.284,-2.475 -1.119,-5.012 -1.256,-3.815 -2.211,-4.925 -5.522,-6.418 -3.678,-1.659 -9.836,-7.742 -9.836,-9.718 0,-0.46 2.671,1.038 5.935,3.327 3.264,2.29 6.426,3.86 7.026,3.489 0.6,-0.371 0.988,-2.209 0.862,-4.084 -0.208,-3.083 -1.131,-4.044 -9.632,-10.028 -5.171,-3.641 -11.717,-7.698 -14.546,-9.017 -2.83,-1.319 -6.27,-3.288 -7.645,-4.374 -2.088,-1.651 -2.203,-1.98 -0.7,-1.999 0.989,-0.012 3.058,0.629 4.596,1.424 3.48,1.8 6.744,1.037 7.472,-1.745 0.304,-1.162 0.458,-2.203 0.342,-2.312 -0.115,-0.109 -4.22,-1.254 -9.122,-2.544 -5.885,-1.549 -8.985,-2.854 -9.129,-3.845 -0.121,-0.825 -1.422,-4.979 -2.893,-9.231 -1.47,-4.252 -2.828,-8.527 -3.017,-9.5 -0.188,-0.973 -1.701,-7.169 -3.361,-13.769 -3.561,-14.161 -7.345,-31.772 -7.736,-36 -0.152,-1.65 -0.755,-4.238 -1.34,-5.75 -0.584,-1.512 -0.837,-2.75 -0.562,-2.75 1.166,0 -2.739,-6.031 -4.523,-6.985 -1.073,-0.575 -5.006,-1.68 -8.739,-2.456 -9.432,-1.96 -22.623,-5.612 -23.613,-6.537 -0.453,-0.424 0.672,-1.055 2.5,-1.401 1.829,-0.346 4.285,-0.816 5.458,-1.045 1.173,-0.229 4.07,-1.352 6.438,-2.496 4.074,-1.968 5.971,-2.081 35.367,-2.096 27.894,-0.014 43.312,-0.675 60.812,-2.607 5.638,-0.623 8.096,-2.377 3.33,-2.377 -1.331,0 -7.518,-1.1 -13.75,-2.444 -6.231,-1.344 -13.58,-2.738 -16.33,-3.097 -5.403,-0.707 -13.491,-2.679 -17.5,-4.268 -1.892,-0.75 -2.135,-1.138 -1,-1.598 5.974,-2.417 23.898,-8.123 30.5,-9.709 4.4,-1.058 10.925,-2.625 14.5,-3.482 3.575,-0.858 7.522,-2.512 8.771,-3.675 4.166,-3.88 1.583,-4.57 -21.146,-5.65 -11.48,-0.545 -21.063,-1.181 -21.295,-1.414 -0.233,-0.232 0.723,-0.71 2.123,-1.062 1.401,-0.351 2.547,-0.971 2.547,-1.377 0,-1.184 -8.423,-5.938 -11.857,-6.693 -1.729,-0.379 -3.143,-1.065 -3.143,-1.523 0,-0.458 -1.687,-1.091 -3.75,-1.408 -38.398,-5.893997 -57.289,-10.737997 -85.33,-21.875997 -11.781,-4.68 -25.92,-9.86 -31.42,-11.513 -14.632,-4.396 -32.412,-9.068 -37,-9.722 -2.2,-0.314 -12.759,-1.956 -23.463,-3.65 -25.631,-4.054 -36.126,-3.801 -50.396,1.215 -11.291,3.969 -11.102,4.063 -12.094,-5.95 -0.884,-8.923 -4.223,-22.264 -6.994,-27.947 -1.249,-2.561 -2.863,-6.907 -3.586,-9.657 -2.031,-7.7179996 -3.372,-9.0899996 -12.294,-12.5859996 -6.609,-2.589 -9.895,-3.26100001 -17.173,-3.51200001 -8.76,-0.302 -9.196,-0.208 -16.345,3.52500001"
     stroke="none"
     fill="#000000"
     fill-rule="evenodd"
     id="path2" />
</svg>
