<?xml version="1.0" encoding="UTF-8" standalone="no"?>
<svg
   width="972.99805"
   height="1376.5569"
   viewBox="0 0 972.99805 1376.5569"
   version="1.1"
   id="svg4"
   xmlns="http://www.w3.org/2000/svg"
   xmlns:svg="http://www.w3.org/2000/svg">
  <defs
     id="defs8" />
  <path
     d="m 604.38461,1.25 c -0.546,0.688 -1.561,3.05 -2.256,5.25 -1.362,4.308 -3.88,9.69 -4.914,10.5 -0.351,0.275 -1.482,2.412 -2.512,4.75 -1.031,2.337 -2.256,4.25 -2.723,4.25 -0.466,0 -0.848,0.879 -0.848,1.953 0,2.471 -2.052,7.047 -3.161,7.047 -0.461,0 -0.766,0.337 -0.677,0.75 0.299,1.387 -2.399,10.278 -3.285,10.826 -0.482,0.298 -0.877,2.064 -0.877,3.924 0,1.86 -0.457,3.665 -1.016,4.01 -0.559,0.346 -0.797,0.983 -0.529,1.417 0.268,0.434 -0.645,5.465 -2.03,11.181 -1.385,5.716 -2.941,14.667 -3.458,19.892 -0.517,5.225 -1.319,11.8 -1.782,14.612 -0.464,2.812 -0.702,5.962 -0.53,7 0.434,2.622 -2.258,13.191 -4.589,18.016 -1.065,2.204 -2.249,5.326 -2.631,6.939 -0.383,1.613 -3.026,7.883 -5.874,13.933 -2.848,6.05 -5.824,12.463 -6.614,14.25 -0.795,1.801 -2.182,3.25 -3.109,3.25 -0.921,0 -2.333,0.253 -3.138,0.562 -1.679,0.644 -10.429,-10.201 -12.153,-15.062 -0.585,-1.65 -1.342,-3.45 -1.683,-4 -0.34,-0.55 -1.358,-3.573 -2.26,-6.719 -0.903,-3.145 -2.758,-6.923 -4.123,-8.396 -1.364,-1.472 -2.538,-2.949 -2.609,-3.281 -0.07,-0.332 -0.284,-1.504 -0.476,-2.604 -0.191,-1.1 -1.709,-7.625 -3.373,-14.5 -1.665,-6.875 -3.276,-13.85 -3.581,-15.5 -0.305,-1.65 -1.66,-4.156 -3.012,-5.569 -1.352,-1.413 -2.152,-2.876 -1.777,-3.25 0.374,-0.375 0.129,-0.681 -0.545,-0.681 -0.674,0 -1.005,-0.357 -0.735,-0.794 0.788,-1.275 -3.248,-9.43 -5.42,-10.952 -1.093,-0.765 -1.727,-1.81 -1.411,-2.322 0.317,-0.513 0.182,-0.932 -0.299,-0.932 -0.481,0 -1.86,-1.753 -3.064,-3.895 -1.204,-2.142 -2.862,-4.153 -3.684,-4.469 -0.822,-0.315 -1.495,-1.225 -1.495,-2.021 0,-1.658 -12.372,-14.615 -13.955,-14.615 -0.575,0 -1.05,-0.562 -1.055,-1.25 -0.012,-1.426 -2.955,-4.005 -7.853,-6.882 -1.849,-1.087 -3.152,-2.186 -2.895,-2.444 0.637,-0.637 -8.317,-10.424 -9.537,-10.424 -0.535,0 -2.037,-1.237 -3.337,-2.75 -1.301,-1.512 -2.366,-2.343 -2.367,-1.845 0,0.498 -0.904,0.088 -2.007,-0.911 -1.104,-0.998 -2.254,-1.567 -2.557,-1.264 -1.646,1.646 -19.437,-5.143 -19.437,-7.417 0,-0.63 -0.27,-0.877 -0.599,-0.547 -0.329,0.329 -2.242,-0.239 -4.25,-1.263 -2.912,-1.484 -5.614,-1.825 -13.352,-1.682 -6.208,0.115 -10.15,0.629 -10.95,1.429 -0.687,0.687 -1.946,1.259 -2.799,1.27 -0.852,0.011 -2.9,1.589 -4.55,3.506 -1.65,1.918 -4.975,5.621 -7.388,8.23 -2.414,2.609 -5.561,6.319 -6.995,8.244 -1.433,1.925 -3.058,3.831 -3.611,4.235 -0.553,0.404 -0.631,0.741 -0.172,0.75 0.459,0.008 -0.494,1.703 -2.117,3.765 -3.664,4.656 -7.342,11.792 -6.507,12.626 0.343,0.343 0.098,0.624 -0.543,0.624 -0.642,0 -1.068,0.337 -0.947,0.75 0.38,1.3 -6.392,14.143 -8.864,16.811 -1.301,1.403 -2.813,2.275 -3.36,1.936 -0.548,-0.338 -0.996,-0.112 -0.996,0.503 0,0.615 -0.45,0.84 -1,0.5 -0.55,-0.34 -1,-0.115 -1,0.5 0,0.615 -0.453,0.838 -1.008,0.495 -0.554,-0.342 -1.711,0.081 -2.571,0.941 -1.397,1.397 -3.509,2.024 -5.671,1.682 -0.413,-0.065 -0.75,0.359 -0.75,0.941 0,0.582 -0.45,0.781 -1,0.441 -0.55,-0.34 -1,-0.115 -1,0.5 0,0.615 -0.45,0.84 -1,0.5 -0.55,-0.34 -1,-0.115 -1,0.5 0,0.615 -0.45,0.84 -1,0.5 -0.55,-0.34 -1,-0.244 -1,0.214 0,0.457 -1.575,1.68 -3.501,2.716 -5.578,3.005 -15.439,14.113 -17.688,19.926 -1.094,2.829 -2.387,5.819 -2.873,6.644 -0.485,0.825 -1.659,3.075 -2.608,5 -0.949,1.925 -3.185,5.649 -4.969,8.276 -1.783,2.628 -3.525,5.665 -3.869,6.75 -0.345,1.086 -1.073,1.974 -1.618,1.974 -0.546,0 -0.736,0.414 -0.423,0.92 0.92,1.49 -4.359,4.997 -9.981,6.632 -3.916,1.138 -6.617,1.296 -10.845,0.633 -4.326,-0.679 -5.887,-0.574 -6.737,0.449 -0.858,1.035 -0.507,1.56 1.568,2.349 1.471,0.56 3.042,1.017 3.492,1.017 0.451,0 1.039,0.841 1.307,1.869 0.371,1.418 1.787,2.026 5.867,2.522 6.535,0.793 12.503,-0.86 25.324,-7.016 2.721,-1.306 5.731,-2.375 6.689,-2.375 0.958,0 3.22,-1.35 5.026,-3 1.807,-1.65 3.653,-3 4.104,-3 0.45,0 1.785,-0.9 2.965,-2 1.181,-1.1 2.94,-2 3.909,-2 0.969,0 2.121,-0.563 2.561,-1.252 0.44,-0.688 2.494,-2.705 4.565,-4.482 2.071,-1.778 3.646,-3.424 3.5,-3.658 -0.146,-0.235 0.935,-1.371 2.402,-2.524 2.147,-1.69 3.169,-1.907 5.25,-1.116 1.42,0.541 2.608,1.556 2.638,2.257 0.094,2.15 5.895,6.032 10.285,6.882 2.288,0.443 6.521,0.825 9.407,0.849 4.536,0.038 5.76,0.507 9.025,3.457 2.078,1.877 6.467,4.616 9.753,6.085 5.428,2.428 7.898,2.789 26.975,3.944 11.55,0.7 21.788,1.61 22.75,2.022 1.893,0.811 2.373,4.033 0.75,5.036 -0.55,0.34 -1,2.166 -1,4.059 0,1.893 -0.397,3.441 -0.881,3.441 -2.548,0 -4.503,25.216 -2.139,27.58 0.613,0.613 0.646,2.279 0.088,4.45 -0.49,1.909 -1.188,5.634 -1.55,8.278 -0.385,2.816 -1.266,5.042 -2.125,5.372 -1.85,0.709 -5.393,-2.414 -5.393,-4.753 0,-2.156 -7.28,-9.927 -9.299,-9.927 -0.801,0 -2.016,-0.675 -2.701,-1.5 -0.685,-0.825 -2.54,-1.5 -4.122,-1.5 -1.583,0 -2.878,-0.45 -2.878,-1 0,-0.55 -0.631,-1 -1.402,-1 -0.771,0 -1.857,-1.304 -2.413,-2.898 -0.851,-2.442 -1.82,-3.073 -6.147,-4 -2.825,-0.606 -6.014,-1.102 -7.087,-1.102 -1.073,0 -1.951,-0.45 -1.951,-1 0,-0.55 -1.607,-1 -3.571,-1 -5.5,0 -8.4,4.119 -4.929,7 0.825,0.685 1.5,1.849 1.5,2.587 0,0.739 0.9,1.824 2,2.413 1.1,0.589 2,0.84 2,0.558 0,-1.563 7.952,8.803 10.501,13.689 1.65,3.16 3.509,5.748 4.132,5.75 0.624,10e-4 1.353,1.016 1.622,2.253 0.268,1.238 0.847,3.111 1.286,4.164 0.485,1.163 0.423,1.682 -0.159,1.322 -0.527,-0.325 -1.527,0.695 -2.223,2.267 -0.959,2.167 -1.883,2.815 -3.819,2.678 -4.506,-0.319 -8.951,8.565 -5.841,11.675 2.165,2.165 1.889,3.902 -0.499,3.144 -2.68,-0.851 -6,0.293 -6,2.067 0,0.788 -0.884,1.433 -1.965,1.433 -1.08,0 -2.446,0.9 -3.035,2 -0.589,1.1 -1.856,2 -2.816,2 -0.96,0 -4.094,2.455 -6.965,5.457 l -5.219,5.456 v 7.967 c 0,6.867 0.322,8.357 2.33,10.793 1.281,1.555 2.617,3.614 2.968,4.577 0.352,0.962 1.231,1.75 1.955,1.75 1.882,0 11.747,-10.245 11.747,-12.2 0,-2.648 1.119,-4.8 2.496,-4.8 1.55,0 2.807,-5.944 1.965,-9.298 -0.333,-1.33 0.078,-4.057 0.915,-6.06 1.396,-3.34 1.858,-3.642 5.573,-3.642 2.228,0 4.051,-0.414 4.051,-0.921 0,-0.506 1.312,-1.208 2.916,-1.561 3.387,-0.743 7.084,1.148 7.084,3.625 0,0.926 1.257,2.1 2.842,2.652 1.564,0.545 5.545,3.402 8.849,6.348 3.303,2.946 8.162,6.433 10.798,7.747 5.924,2.955 11.971,8.881 13.988,13.709 2.054,4.917 1.938,5.405 -0.969,4.057 -1.371,-0.636 -2.496,-1.667 -2.5,-2.291 -0.014,-2.021 -4.833,-4.365 -8.973,-4.365 -2.219,0 -4.078,0.337 -4.129,0.75 -0.512,4.059 -0.334,11.094 0.314,12.463 0.462,0.977 1.448,1.468 2.295,1.143 0.934,-0.358 1.485,0.027 1.485,1.037 0,0.884 -0.45,1.607 -1,1.607 -0.55,0 -1,1.35 -1,3 0,1.65 0.498,3 1.107,3 0.629,0 0.827,0.731 0.457,1.693 -0.908,2.366 1.539,11.307 3.094,11.307 0.71,0 1.03,0.649 0.719,1.459 -0.794,2.07 1.526,8.541 3.062,8.541 0.83,0 1.115,0.883 0.806,2.5 -0.279,1.459 -0.013,2.5 0.638,2.5 0.615,0 1.117,0.675 1.117,1.5 0,1.447 1.118,1.916 3.75,1.575 0.762,-0.099 1.25,1.026 1.25,2.881 0,2.992 0.718,3.948 6.766,9 1.87,1.562 2.769,3.108 2.47,4.25 -0.258,0.986 0.033,1.794 0.647,1.794 0.615,0 1.117,0.675 1.117,1.5 0,0.825 0.835,1.5 1.855,1.5 1.553,0 1.954,1.05 2.458,6.445 0.619,6.637 1.639,9.237 5.316,13.555 2.713,3.186 3.841,9.253 2.267,12.194 -0.654,1.222 -1.291,3.141 -1.415,4.264 -0.124,1.123 -0.283,2.37 -0.353,2.771 -0.179,1.017 -5.454,-1.41 -6.428,-2.958 -0.44,-0.699 -1.622,-1.271 -2.627,-1.271 -1.006,0 -2.439,-0.736 -3.186,-1.636 -3.001,-3.616 -21.708,-13.364 -25.646,-13.364 -0.784,0 -2.568,-0.898 -3.964,-1.997 -1.396,-1.098 -4.347,-2.483 -6.558,-3.079 -2.211,-0.595 -4.659,-1.722 -5.441,-2.503 -0.781,-0.782 -2.141,-1.421 -3.021,-1.421 -0.88,0 -2.426,-0.748 -3.435,-1.661 -5.341,-4.834 -22.26,-12.148 -29.614,-12.802 -2.91,-0.259 -5.835,-0.807 -6.499,-1.217 -0.664,-0.41 -2.468,-0.614 -4.009,-0.453 -1.54,0.162 -3.453,-0.247 -4.25,-0.909 -0.798,-0.661 -1.45,-0.934 -1.45,-0.605 0,0.329 -1.229,0.13 -2.731,-0.441 -2.583,-0.982 -12.679,-2.878 -23.769,-4.463 -2.75,-0.393 -11.3,-0.916 -19,-1.161 -13.996,-0.446 -21.87,0.453 -28,3.196 -1.65,0.739 -5.333,1.633 -8.184,1.988 -2.852,0.356 -6.902,1.457 -9,2.448 -2.099,0.99 -5.269,2.076 -7.045,2.411 -1.777,0.336 -6.052,1.915 -9.5,3.509 -7.426,3.432 -20.247,6.551 -34.791,8.464 -5.785,0.761 -12.108,2.137 -14.049,3.059 -1.942,0.921 -4.491,1.86 -5.666,2.086 -1.174,0.226 -2.955,0.85 -3.958,1.387 -2.213,1.184 -12.147,4.006 -18.307,5.2 -12.243,2.373 -23.237,3.936 -24.07,3.421 -0.512,-0.316 -0.93,-0.183 -0.93,0.295 0,0.872 -15.398,4.87 -17.75,4.609 -0.687,-0.076 -1.25,0.225 -1.25,0.671 0,0.764 -5.212,2.305 -6.622,1.958 -0.36,-0.088 -0.93,0.267 -1.266,0.79 -0.634,0.986 -9.612,5.796 -9.612,5.15 0,-1.323 -15.31,14.043 -24.499997,24.59 -4.125,4.734 -8.355,9.366 -9.4,10.294 -1.045,0.927 -2.733,2.474 -3.75,3.436 -1.018,0.963 -2.284,1.75 -2.815,1.75 -0.53,0 -1.415,0.841 -1.965,1.87 -0.551,1.028 -2.649,2.651 -4.663,3.607 -3.802,1.804 -17.407,14.781 -17.407,16.603 0,0.571 -0.563,0.714 -1.25,0.319 -0.688,-0.396 -0.912,-0.347 -0.498,0.11 0.414,0.456 0.114,1.54 -0.667,2.41 -3.101,3.454 -9.84,16.641 -11.219,21.953 -0.803,3.095 -1.892,5.779 -2.42,5.963 -0.527,0.185 -0.71,0.738 -0.406,1.23 1.275,2.063 -8.232,24.645 -12.287,29.185 -0.86,0.962 -1.262,1.75 -0.894,1.75 0.368,0 -1,3.187 -3.04,7.081 -3.573,6.82 -6.607,18.802 -7.829,30.919 -0.399,3.955 -0.959,7.09 -1.8759997,10.5 -0.147,0.55 -1.696,5.482 -3.441,10.96 -1.745,5.478 -3.173,11.02 -3.173,12.316 0,1.296 -0.433,3.164 -0.961,4.152 -1.75999999,3.287 -2.28699999,8.456 -2.14999999,21.072 0.149,13.778 0.223,14.515 2.10099999,21 0.717,2.475 1.381,5.175 1.475,6 0.094,0.825 0.927,2.94 1.853,4.7 0.925,1.761 1.682,4.096 1.682,5.191 0,1.095 0.421,2.251 0.936,2.57 0.515,0.318 0.923,1.357 0.906,2.309 -0.041,2.388 0.697,5.19 2.5119997,9.535 0.849,2.032 1.252,3.695 0.895,3.695 -0.357,0 -0.109,0.54 0.551,1.2 1.411,1.411 1.645,8.193 0.252,7.332 -0.565,-0.349 -0.751,1.04 -0.462,3.441 0.291,2.414 0.072,4.027 -0.546,4.027 -0.567,0 -0.879,0.999 -0.693,2.22 0.187,1.221 -0.071,3.809 -0.573,5.75 -0.502,1.942 -1.1039997,5.105 -1.3369997,7.03 -0.699,5.771 -0.374,22.25 0.4729997,23.933 0.433,0.862 1.337,4.267 2.008,7.567 1.03,5.064 0.967,7.093 -0.399,13 -3.3409997,14.447 -5.6099997,32.965 -5.0239997,41.007 0.222,3.05 1.316,9.247 2.43,13.77 2.3149997,9.391 2.9949997,15.475 3.5509997,31.766 0.466,13.649 3.278,28.445 6.844,36.019 1.408,2.991 2.872,7.913 3.251,10.938 0.38,3.025 1.029,5.95 1.443,6.5 0.413,0.55 1.081,2.575 1.484,4.5 0.849,4.05 5.025,17.762 7.086,23.269 1.735,4.634 6.369,12.107 7.072,11.405 1.099,-1.1 2.09,-7.71 1.235,-8.239 -1.227,-0.758 -0.247,-32.306 1.052,-33.871 0.57,-0.687 0.807,-1.477 0.527,-1.757 -0.28,-0.28 0.325,-2.374 1.346,-4.654 1.021,-2.279 2.191,-3.809 2.601,-3.399 0.41,0.41 0.596,0.283 0.412,-0.282 -0.183,-0.565 0.739,-3.265 2.05,-6 5.023,-10.482 6.122,-13.006 6.12,-14.048 -0.002,-0.591 1.122,-2.132 2.497,-3.424 1.375,-1.292 2.5,-2.875 2.5,-3.519 0,-0.644 0.882,-1.969 1.96,-2.945 1.078,-0.976 1.866,-2.084 1.75,-2.464 -0.115,-0.379 1.365,-2.381 3.29,-4.449 4.618,-4.961 15.279,-11.039 20.25,-11.546 0.412,-0.043 1.542,-0.869 2.509,-1.836 2.06,-2.06 7.194,-5.218 16.240997,-9.991 3.575,-1.886 6.95,-3.786 7.5,-4.224 0.55,-0.437 2.431,-1.101 4.181,-1.475 1.749,-0.374 3.717,-1.326 4.372,-2.115 0.656,-0.79 1.717,-1.436 2.358,-1.436 0.641,0 2.88,-0.874 4.975,-1.942 2.095,-1.068 5.115,-2.229 6.712,-2.579 1.596,-0.351 2.902,-1.043 2.902,-1.538 0,-0.866 6.442,-4.564 8.5,-4.88 0.55,-0.084 2.35,-1.424 4,-2.977 3.533,-3.325 11.555,-8.084 13.627,-8.084 0.799,0 4.359,-1.512 7.912,-3.36 3.554,-1.849 7.55,-3.703 8.881,-4.122 6.32,-1.987 30.383,-20.748 31.623,-24.655 0.344,-1.083 2.204,-4.757 4.133,-8.166 4.032,-7.122 6.247,-13.135 6.932,-18.82 0.264,-2.187 0.979,-5.192 1.589,-6.677 0.611,-1.485 1.221,-3.229 1.357,-3.875 0.388,-1.848 5.965,-9.575 8.84,-12.249 1.433,-1.334 2.606,-2.998 2.606,-3.699 0,-0.701 1.188,-2.535 2.64,-4.075 9.612,-10.203 16.219,-27.01 17.809,-45.302 0.875,-10.065 2.556,-18.348 4.062,-20.012 0.819,-0.905 1.489,-1.94 1.489,-2.301 0,-0.36 2.942,-5.05 6.538,-10.421 3.596,-5.371 6.771,-10.891 7.056,-12.266 0.285,-1.375 1.393,-4.425 2.462,-6.777 1.069,-2.352 1.944,-5.813 1.944,-7.691 0,-1.878 0.457,-3.697 1.016,-4.042 0.559,-0.346 0.774,-1.02 0.478,-1.499 -0.296,-0.479 0.315,-2.272 1.356,-3.985 2.307,-3.794 3.554,-1.902 2.097,3.18 -1.943,6.773 -0.826,19.814 1.697,19.814 0.997,0 1.211,0.73 0.751,2.561 -0.517,2.061 -0.227,2.67 1.481,3.117 1.19,0.311 2.124,1.361 2.124,2.387 0,1.008 1.086,3.003 2.413,4.435 l 2.412,2.603 -2.4,4.199 c -1.321,2.309 -2.406,5.11 -2.413,6.226 -0.007,1.115 -0.912,2.798 -2.012,3.74 -1.1,0.942 -2,2.665 -2,3.829 0,1.487 -0.454,1.943 -1.526,1.531 -1.065,-0.408 -2.048,0.543 -3.25,3.143 -0.948,2.051 -2.227,4.056 -2.843,4.455 -0.615,0.4 -1.608,1.975 -2.206,3.5 -1.298,3.311 -2.987,21.279 -3.158,33.596 l -0.123,8.821 2.693,-0.321 c 2.364,-0.283 2.96,-1.148 4.877,-7.084 1.213,-3.753 3.433,-8.065 4.99,-9.69 1.569,-1.638 2.56,-3.569 2.248,-4.382 -0.584,-1.521 2.57,-4.935 5.518,-5.974 0.946,-0.334 2.003,-1.638 2.348,-2.899 0.689,-2.518 8.781,-9.793 10.892,-9.793 0.727,0 2.028,1.762 2.889,3.915 1.276,3.187 1.379,5.085 0.556,10.195 -0.704,4.373 -0.682,7.661 0.074,10.834 2.188,9.186 4.234,22.724 4.39,29.056 0.265,10.738 2.258,11.611 8.764,3.841 4.77,-5.697 6.849,-9.225 6.901,-11.705 0.019,-0.9 0.903,-3.436 1.966,-5.636 1.063,-2.2 1.947,-4.983 1.966,-6.184 0.025,-1.614 0.735,-2.266 2.724,-2.5 2.417,-0.284 2.948,-1.131 5.213,-8.316 2.787,-8.839 5.566,-12.978 7.075,-10.535 1.358,2.196 2.342,15.406 1.626,21.821 -1.887,16.912 -1.92,21.155 -0.172,21.826 1.861,0.715 7.568,-4.036 7.568,-6.299 0,-0.722 0.675,-1.313 1.5,-1.313 0.825,0 1.5,-0.418 1.5,-0.929 0,-0.51 0.589,-1.523 1.309,-2.25 3.333,-3.362 7.662,-14.995 7.68,-20.637 0.006,-1.823 0.497,-4.223 1.091,-5.333 1.036,-1.936 1.158,-1.946 3.036,-0.246 1.076,0.974 2.862,3.824 3.968,6.333 2.132,4.835 9.453,13.062 11.624,13.062 0.711,0 1.292,0.402 1.292,0.894 0,1.347 11.314,12.079 12.75,12.094 1.574,0.015 1.565,0.397 -0.222,9.234 -0.809,4.003 -1.823,9.511 -2.253,12.241 -0.738,4.692 -0.984,5.011 -4.5,5.843 -3.189,0.754 -3.81,1.365 -4.358,4.287 -0.352,1.874 -0.955,3.407 -1.34,3.407 -0.386,0 -2.613,-0.924 -4.95,-2.053 -2.336,-1.129 -5.008,-1.977 -5.938,-1.884 -0.929,0.092 -1.914,0.095 -2.189,0.008 -0.275,-0.088 -2.644,-0.315 -5.264,-0.504 -2.62,-0.19 -5.341,-0.824 -6.046,-1.409 -0.705,-0.586 -2.161,-1.038 -3.236,-1.006 -1.075,0.031 -5.866,-0.037 -10.647,-0.153 -8.12,-0.197 -8.958,-0.023 -12.728,2.645 -2.22,1.571 -4.046,3.433 -4.058,4.137 -0.011,0.705 -0.693,1.54 -1.515,1.855 -0.822,0.316 -1.246,0.976 -0.941,1.469 0.304,0.492 0.05,0.895 -0.565,0.895 -0.615,0 -0.84,0.45 -0.5,1 0.34,0.55 0.141,1 -0.441,1 -0.582,0 -0.985,0.338 -0.895,0.75 0.09,0.413 -0.194,2.028 -0.631,3.591 -1.119,3.995 1.851,6.936 5.467,5.415 5.987,-2.518 15.967,-2.748 19.68,-0.454 0.543,0.336 2.525,0.866 4.404,1.178 4.252,0.705 14.243,3.697 14.916,4.467 1.238,1.416 9.59,6.386 10.73,6.386 0.699,0 1.27,0.402 1.27,0.893 0,0.49 0.478,0.596 1.063,0.235 1.433,-0.885 4.93,2.393 4.301,4.032 -0.275,0.717 -0.02,1.602 0.568,1.965 1.334,0.824 1.434,16.198 0.111,17.016 -0.527,0.325 -0.949,1.814 -0.938,3.309 0.042,5.881 -1.164,13.921 -2.38,15.866 -0.395,0.632 -0.962,3.091 -1.26,5.465 -0.298,2.374 -0.907,4.557 -1.353,4.851 -0.445,0.294 -0.868,1.21 -0.94,2.035 -0.332,3.831 -0.807,5.673 -2.022,7.836 -0.722,1.284 -1.066,2.581 -0.766,2.881 0.3,0.3 0.016,1.499 -0.632,2.664 -0.647,1.166 -1.081,2.456 -0.964,2.869 0.116,0.413 -0.268,0.75 -0.855,0.75 -0.613,0 -0.797,0.853 -0.433,2 0.349,1.1 0.197,2 -0.339,2 -0.536,0 -0.738,0.9 -0.451,2 0.304,1.162 0.031,2 -0.652,2 -0.647,0 -0.917,0.419 -0.601,0.931 0.317,0.512 0.111,1.218 -0.457,1.569 -0.568,0.351 -0.793,1.026 -0.5,1.5 0.293,0.474 0.068,1.149 -0.5,1.5 -0.568,0.351 -0.774,1.057 -0.457,1.569 0.316,0.512 0.05,0.931 -0.591,0.931 -0.641,0 -0.907,0.675 -0.59,1.5 0.316,0.825 0.153,1.5 -0.362,1.5 -0.515,0 -0.676,0.681 -0.357,1.513 0.32,0.832 0.084,2.111 -0.522,2.842 -0.607,0.731 -0.808,1.625 -0.446,1.987 0.362,0.362 0.085,0.658 -0.615,0.658 -0.722,0 -1.024,0.651 -0.698,1.5 0.316,0.825 0.139,1.5 -0.393,1.5 -0.533,0 -0.916,0.337 -0.851,0.75 0.066,0.413 0.009,1.087 -0.125,1.5 -0.133,0.413 -0.356,1.2 -0.493,1.75 -0.137,0.55 -0.363,1.225 -0.5,1.5 -0.137,0.275 -0.321,0.837 -0.408,1.25 -0.639,3.023 -4.048,10.25 -4.835,10.25 -0.534,0 -0.712,0.675 -0.395,1.5 0.316,0.825 0.113,1.5 -0.452,1.5 -0.566,0 -0.75,0.45 -0.41,1 0.34,0.55 0.115,1 -0.5,1 -0.615,0 -0.84,0.45 -0.5,1 0.34,0.55 0.093,1 -0.548,1 -0.641,0 -0.907,0.675 -0.59,1.5 0.316,0.825 0.113,1.5 -0.452,1.5 -0.566,0 -0.774,0.412 -0.463,0.915 0.311,0.503 0.088,1.073 -0.495,1.268 -0.584,0.194 -1.169,1.087 -1.3,1.984 -0.132,0.897 -0.838,2.352 -1.568,3.232 -0.731,0.881 -0.936,1.608 -0.456,1.616 0.479,0.009 0.293,0.383 -0.414,0.831 -0.707,0.449 -1.521,2.13 -1.808,3.735 -0.288,1.605 -0.95,3.07 -1.471,3.254 -0.521,0.185 -0.693,0.747 -0.382,1.25 0.311,0.503 0.013,0.915 -0.661,0.915 -0.674,0 -0.932,0.293 -0.574,0.651 0.358,0.358 0.011,1.146 -0.772,1.75 -0.783,0.605 -3.872,5.824 -6.866,11.599 -7.846,15.137 -8.985,17.16 -10.895,19.343 -0.944,1.078 -1.511,2.291 -1.261,2.695 0.249,0.405 -0.216,1.291 -1.035,1.971 -0.819,0.68 -1.489,1.626 -1.489,2.102 0,1.367 -2.982,4.827 -10,11.603 -3.575,3.452 -6.52,6.616 -6.544,7.031 -0.025,0.415 -1.558,3.842 -3.408,7.614 -3.787,7.725 -4.926,15.106 -3.036,19.67 2.062,4.978 8.666,9.971 13.188,9.971 4.045,0 18.664,-6.744 24.219,-11.173 11.456,-9.133 16.943,-15.781 30.303,-36.712 2.323,-3.638 4.235,-7.318 4.25,-8.176 0.016,-0.859 0.901,-2.499 1.968,-3.644 1.067,-1.145 1.667,-2.355 1.333,-2.689 -0.333,-0.333 -0.055,-0.606 0.619,-0.606 0.674,0 0.981,-0.397 0.681,-0.882 -0.3,-0.486 0.368,-2.045 1.485,-3.465 1.118,-1.42 2.072,-2.936 2.122,-3.368 0.166,-1.439 2.268,-5.777 3.085,-6.366 0.443,-0.32 1.007,-1.69 1.253,-3.046 0.246,-1.356 1.578,-4.695 2.96,-7.419 1.383,-2.725 2.516,-5.516 2.518,-6.204 0.002,-0.687 0.502,-1.25 1.111,-1.25 0.609,0 0.853,-0.662 0.542,-1.471 -0.31,-0.809 0.124,-2.159 0.965,-3 0.841,-0.841 1.217,-1.529 0.835,-1.529 -0.382,0 -0.227,-0.562 0.344,-1.25 0.57,-0.687 1.041,-1.595 1.046,-2.017 0.032,-2.65 1.492,-6.733 2.407,-6.733 0.598,0 0.813,-0.274 0.478,-0.609 -0.335,-0.335 0.265,-2.827 1.334,-5.537 1.068,-2.71 1.942,-5.811 1.942,-6.891 0,-1.08 0.477,-1.963 1.059,-1.963 0.582,0 0.804,-0.412 0.493,-0.916 -0.312,-0.504 -0.052,-2.191 0.576,-3.75 0.628,-1.559 1.279,-3.885 1.448,-5.169 0.168,-1.285 1.026,-3.435 1.906,-4.779 0.881,-1.343 1.35,-2.849 1.043,-3.345 -0.307,-0.497 -0.093,-1.19 0.475,-1.541 0.568,-0.351 0.774,-1.057 0.457,-1.569 -0.316,-0.512 -0.068,-0.931 0.551,-0.931 0.672,0 0.87,-0.808 0.492,-2 -0.356,-1.121 -0.18,-2 0.401,-2 0.57,0 0.749,-0.749 0.398,-1.664 -0.465,-1.21 -0.277,-1.44 0.689,-0.844 0.995,0.616 1.186,0.282 0.763,-1.335 -0.31,-1.185 -0.148,-2.412 0.359,-2.725 0.508,-0.314 0.669,-0.98 0.36,-1.48 -0.309,-0.501 -0.01,-1.932 0.666,-3.181 0.675,-1.249 1.333,-3.171 1.462,-4.271 0.13,-1.1 0.792,-3.35 1.472,-5 0.679,-1.65 1.401,-3.865 1.603,-4.922 0.202,-1.056 0.863,-2.519 1.469,-3.25 0.607,-0.73 0.768,-1.328 0.358,-1.328 -0.41,0 -0.266,-0.576 0.318,-1.281 0.585,-0.705 1.268,-2.392 1.518,-3.75 1.069,-5.809 5.046,-17.969 5.877,-17.969 0.498,0 0.664,-0.39 0.37,-0.866 -0.682,-1.102 6.348,-22.521 7.539,-22.969 0.49,-0.185 0.647,-0.73 0.349,-1.213 -0.298,-0.482 0.906,-1.252 2.675,-1.71 1.77,-0.459 3.419,-1.438 3.666,-2.177 0.248,-0.745 -0.014,-1.058 -0.589,-0.703 -0.649,0.401 -0.825,-0.166 -0.472,-1.517 0.386,-1.479 0.2,-1.933 -0.593,-1.442 -2.453,1.515 -0.983,-0.566 2.834,-4.014 2.195,-1.984 3.786,-3.94 3.534,-4.347 -0.556,-0.9 2.976,-4.009 6.822,-6.006 1.552,-0.805 4.157,-2.986 5.791,-4.847 1.633,-1.86 3.507,-3.464 4.165,-3.564 0.658,-0.099 1.759,-0.533 2.446,-0.962 0.687,-0.43 1.257,-0.417 1.265,0.028 0.009,0.445 0.366,0.258 0.794,-0.416 0.428,-0.673 1.658,-1.361 2.734,-1.529 1.077,-0.167 2.52,-0.655 3.207,-1.084 0.688,-0.429 1.669,-0.521 2.181,-0.205 0.512,0.317 1.218,0.111 1.569,-0.457 0.351,-0.568 1.026,-0.793 1.5,-0.5 0.474,0.293 1.139,0.084 1.478,-0.465 0.339,-0.548 2.795,-0.948 5.457,-0.888 2.663,0.06 5.342,-0.2 5.953,-0.578 0.612,-0.378 1.112,-0.225 1.112,0.341 0,0.565 0.672,0.769 1.493,0.454 0.822,-0.315 3.297,0.367 5.5,1.516 2.739,1.427 4.02,1.697 4.048,0.854 0.054,-1.617 7.71,6.875 9.696,10.755 0.848,1.656 1.866,3.236 2.263,3.511 1.367,0.948 3.778,6.517 5.517,12.744 2.888,10.343 1.26,41.374 -2.611,49.756 -0.825,1.785 -2.894,11.836 -4.427,21.5 -0.306,1.925 -1.189,6.233 -1.962,9.573 -5.108,22.061 -6.299,44.222 -3.195,59.427 0.955,4.675 2.14,9.4 2.634,10.5 0.493,1.1 3.058,7.85 5.699,15 2.641,7.15 6.006,14.696 7.478,16.768 1.472,2.073 3.222,6.045 3.89,8.827 0.667,2.782 1.831,5.295 2.586,5.585 0.755,0.29 1.894,2.266 2.53,4.391 0.637,2.125 1.515,3.643 1.951,3.374 0.436,-0.27 0.628,11.557 0.427,26.282 -0.321,23.579 -0.129,27.966 1.611,36.773 4.03,20.404 8.351,31.322 16.384,41.394 18.676,23.42 23.488,29.724 23.488,30.768 0,0.657 0.563,1.798 1.25,2.535 2.042,2.188 4.989,7.897 4.387,8.499 -0.306,0.307 0.082,1.793 0.863,3.304 0.781,1.511 1.138,3.028 0.793,3.373 -0.344,0.345 -0.107,0.627 0.529,0.627 0.635,0 1.444,1.81 1.798,4.022 0.353,2.212 1.041,4.268 1.528,4.569 0.486,0.301 0.66,0.91 0.386,1.354 -0.801,1.296 4.261,15.147 7.106,19.445 2.667,4.031 9.249,10.597 10.631,10.605 0.425,0 2.45,1.103 4.5,2.444 2.051,1.342 4.948,2.736 6.438,3.098 1.49,0.363 3.181,1.228 3.758,1.923 0.576,0.695 2.17,1.14 3.541,0.99 1.37,-0.151 2.492,0.136 2.492,0.638 0,0.502 0.69,0.912 1.533,0.912 2.277,0 11.467,4.869 11.467,6.076 0,0.573 0.45,0.764 1,0.424 0.55,-0.34 1,-0.141 1,0.441 0,0.582 0.47,1.059 1.044,1.059 0.574,0 2.856,1.677 5.071,3.727 4.755,4.399 10.103,14.977 12.839,25.395 2.987,11.368 3.555,12.979 6.656,18.862 2.706,5.134 17.043,21.001 19.002,21.028 0.488,0.01 2.752,1.745 5.031,3.861 2.278,2.117 6.216,5.338 8.75,7.157 2.534,1.82 4.607,3.683 4.607,4.14 0,0.456 0.563,0.832 1.25,0.833 0.688,0 4.4,2.748 8.25,6.102 3.85,3.354 9.5,7.773 12.555,9.82 5.26,3.524 8.223,4.868 22.445,10.177 3.3,1.231 7.125,3.009 8.5,3.95 4.564,3.124 24.124,8.607 26.177,7.338 0.453,-0.279 0.823,-0.144 0.823,0.301 0,0.445 1.237,0.848 2.75,0.895 5.748,0.179 14.522,1.489 16.284,2.432 1.009,0.54 3.241,0.982 4.959,0.982 2.108,0 2.893,0.376 2.412,1.155 -0.395,0.637 -0.279,0.885 0.258,0.553 1.515,-0.936 14.693,4.082 16.337,6.222 0.275,0.358 3.816,2.815 7.87,5.46 4.053,2.646 7.593,5.665 7.866,6.71 0.274,1.045 1.08,1.9 1.792,1.9 0.712,0 2.464,1.463 3.893,3.25 3.51,4.39 3.446,4.33 8.727,8.334 2.556,1.938 15.204,8.829 28.107,15.314 12.902,6.484 28.586,14.968 34.852,18.854 12.224,7.58 21.497,11.313 29.214,11.761 5.585,0.324 6.817,-1.127 4.265,-5.022 -2.197,-3.353 -9.959,-10.484 -14.328,-13.164 -1.949,-1.195 -4.492,-3.089 -5.651,-4.209 -1.159,-1.119 -5.905,-5.45 -10.546,-9.624 -4.641,-4.174 -9.121,-8.58 -9.954,-9.791 -0.833,-1.212 -2.017,-2.653 -2.631,-3.203 -2.625,-2.352 -8.716,-13.684 -10.881,-20.244 -3.056,-9.256 -6.564,-34.876 -6.539,-47.756 0.007,-3.85 -0.452,-9.475 -1.019,-12.5 -1.73,-9.212 -4.02,-26.289 -4.029,-30.039 -0.004,-1.946 0.892,-5.303 1.992,-7.461 1.1,-2.158 2,-5.151 2,-6.652 0,-1.502 0.443,-3.004 0.985,-3.339 0.541,-0.334 0.96,-1.598 0.931,-2.809 -0.08,-3.312 0.583,-6.325 3.568,-16.2 3.729,-12.337 4.333,-15.328 4.085,-20.25 -0.117,-2.338 0.205,-4.25 0.716,-4.25 0.511,0 0.684,-0.639 0.384,-1.419 -0.768,-2.004 1.117,-31.81 2.056,-32.507 0.426,-0.316 0.849,-1.249 0.94,-2.074 0.487,-4.427 2.268,-11.026 4.047,-15 7.521,-16.802 10.941,-34.754 8.426,-44.228 -1.245,-4.69 -2.135,-22.656 -1.152,-23.264 0.339,-0.209 0.725,-2.321 0.859,-4.694 0.135,-2.373 0.751,-8.364 1.37,-13.314 1.469,-11.743 1.774,-28.332 0.67,-36.5 -1.412,-10.452 -2.981,-15.979 -6.996,-24.647 -4.198,-9.064 -6.493,-19.407 -7.955,-35.853 -1.874,-21.066 -6.579,-33.661 -18.211,-48.75 -1.59,-2.062 -2.516,-3.751 -2.057,-3.751 0.798,-10e-4 -1.86,-2.91 -8.022,-8.779 -4.805,-4.577 -8.602,-13.316 -9.113,-20.975 -0.473,-7.102 -3.693,-19.157 -6.142,-22.995 -0.789,-1.237 -1.087,-2.257 -0.662,-2.265 0.425,-0.009 0.301,-0.346 -0.275,-0.75 -0.576,-0.404 -2.233,-2.76 -3.681,-5.235 -4.845,-8.282 -12.564,-16.882 -15.694,-17.485 -1.288,-0.248 -3.529,-1.781 -4.98,-3.406 -1.451,-1.626 -3.877,-3.267 -5.391,-3.647 -1.514,-0.38 -3.417,-1.639 -4.229,-2.799 -0.812,-1.159 -1.492,-1.67 -1.51,-1.136 -0.019,0.535 -0.969,-0.152 -2.113,-1.527 -1.144,-1.375 -2.195,-2.275 -2.337,-2 -0.287,0.558 -7.473,-7.812 -7.594,-8.845 -0.446,-3.828 -4.78,-15.046 -7.081,-18.333 -1.031,-1.473 -4.68,-4.737 -8.109,-7.253 -3.428,-2.517 -6.696,-4.949 -7.262,-5.405 -0.566,-0.456 -3.266,-1.669 -6,-2.695 -2.734,-1.027 -5.302,-2.339 -5.706,-2.918 -0.404,-0.578 -0.741,-0.757 -0.75,-0.397 -0.021,0.927 -10.376,-3.119 -11.138,-4.352 -0.346,-0.561 -2.71,-1.254 -5.253,-1.541 -2.543,-0.287 -4.624,-0.814 -4.624,-1.173 0,-0.358 -1.013,-0.754 -2.25,-0.88 -3.537,-0.358 -5.171,-0.716 -6.25,-1.372 -0.55,-0.334 -3.25,-0.901 -6,-1.259 -2.75,-0.359 -7.025,-0.92 -9.5,-1.247 -2.475,-0.327 -6.075,-0.572 -8,-0.543 -6.694,0.1 -21.366,-2.966 -32.846,-6.863 -6.353,-2.156 -12.002,-4.372 -12.552,-4.922 -0.551,-0.551 -2.037,-1.002 -3.302,-1.002 -1.265,0 -2.3,-0.436 -2.3,-0.969 0,-0.532 -0.675,-0.709 -1.5,-0.393 -0.825,0.317 -1.5,0.051 -1.5,-0.59 0,-0.641 -0.34,-0.956 -0.757,-0.698 -0.724,0.447 -15.511,-2.348 -20.064,-3.793 -2.757,-0.875 -11.779,-1.409 -29.966,-1.772 -8.035,-0.16 -14.599,-0.723 -15,-1.285 -0.392,-0.55 -1.613,-1.061 -2.713,-1.135 -1.1,-0.075 -5.73,-1.103 -10.288,-2.285 -4.558,-1.182 -10.183,-2.382 -12.5,-2.666 -2.317,-0.284 -5.562,-0.694 -7.212,-0.911 -3.299,-0.433 -21.404,-0.76 -23,-0.415 -0.55,0.119 -1.45,0.304 -2,0.411 -0.55,0.107 -1.675,0.476 -2.5,0.821 -2.091,0.874 -10.055,2.817 -12.685,3.096 -1.202,0.127 -2.889,0.816 -3.75,1.53 -0.861,0.714 -1.565,1.003 -1.565,0.641 0,-0.361 -0.809,-0.225 -1.797,0.304 -2.415,1.293 -10.223,2.321 -18.453,2.432 -3.712,0.049 -6.75,0.413 -6.75,0.809 0,0.395 -1.812,0.589 -4.027,0.432 -2.214,-0.158 -4.266,0.101 -4.559,0.574 -0.292,0.474 -1.968,0.869 -3.723,0.877 -1.755,0.008 -5.131,0.69 -7.503,1.516 -2.371,0.826 -5.408,1.592 -6.75,1.703 -1.341,0.111 -2.438,0.581 -2.438,1.043 0,0.463 -0.419,0.582 -0.931,0.266 -0.512,-0.317 -1.178,-0.176 -1.479,0.312 -0.445,0.72 -4.194,1.945 -7.757,2.535 -0.366,0.06 -0.973,0.416 -1.347,0.791 -0.375,0.375 -1.209,0.479 -1.853,0.232 -0.644,-0.248 -5.55,1.786 -10.902,4.52 -5.352,2.733 -9.731,4.653 -9.73,4.268 0,-0.386 0.951,-3.176 2.114,-6.201 2.083,-5.419 4.058,-20.158 3.893,-29.052 -0.081,-4.344 0.26,-4.913 7.454,-12.441 4.146,-4.339 7.538,-8.62 7.538,-9.514 0,-0.895 3.182,-6.407 7.07,-12.251 5.069,-7.617 7.498,-10.461 8.581,-10.046 0.997,0.383 1.3,1.298 0.891,2.692 -4.971,16.964 -5.599,24.318 -2.915,34.152 0.894,3.278 1.914,7.53 2.265,9.449 0.895,4.894 2.995,4.818 8.702,-0.316 6.26,-5.631 12.594,-16.803 15.727,-27.743 2.657,-9.278 6.136,-16.93 7.696,-16.93 2.229,0 9.102,7.559 11.52,12.67 1.874,3.96 3.021,5.33 4.112,4.911 0.833,-0.32 1.682,-0.581 1.886,-0.581 0.328,0 1.751,-2.991 4.52,-9.5 3.011,-7.079 3.749,-16.412 1.772,-22.429 -2.233,-6.797 -5.765,-13.581 -8.291,-15.926 -2.78,-2.581 -3.203,-5.683 -1.144,-8.395 1.905,-2.509 2.608,-2.172 2.608,1.25 0,1.65 0.337,3.034 0.75,3.077 0.413,0.042 1.518,0.224 2.456,0.405 0.939,0.18 2.231,-0.304 2.873,-1.077 1.858,-2.239 4.294,-1.65 7.634,1.845 4.596,4.81 6.294,9.705 5.542,15.985 -1.138,9.516 -0.645,18.573 1.239,22.752 0.982,2.177 2.153,3.731 2.602,3.454 0.449,-0.278 1.541,0.601 2.426,1.952 2.39,3.647 10.478,6.152 10.478,3.245 0,-1.151 5.176,-13.119 9.318,-21.543 1.693,-3.444 1.252,-20.452 -0.7,-27.018 -1.805,-6.07 -8.222,-16.077 -10.309,-16.077 -0.747,0 -1.75,-1.013 -2.228,-2.25 -0.478,-1.238 -1.996,-3.298 -3.373,-4.578 -2.219,-2.064 -2.492,-3.093 -2.398,-9.04 0.108,-6.773 -1.34,-12.11 -4.191,-15.45 -1.444,-1.692 -1.057,-2.302 5.575,-8.792 8.152,-7.977 9.418,-8.157 15.973,-2.276 2.108,1.892 4.958,3.689 6.333,3.994 1.375,0.305 3.729,1.019 5.232,1.587 4.087,1.545 6.009,0.497 4.482,-2.442 -4.655,-8.96 -21.452,-25.157 -27.562,-26.578 -5.825,-1.356 -14.38,-0.61 -19.624,1.709 -2.66,1.177 -4.953,2.022 -5.094,1.878 -0.142,-0.144 -1.176,-2.683 -2.299,-5.643 -2.038,-5.369 -2.038,-5.388 -0.068,-9.25 1.085,-2.128 1.747,-3.869 1.47,-3.869 -0.276,0 0.389,-1.589 1.48,-3.53 2.234,-3.979 2.618,-9.076 0.733,-9.752 -1.58,-0.566 -3.845,0.605 -9.452,4.884 -2.448,1.869 -5.008,3.398 -5.688,3.398 -2.07,0 -21.866,10.108 -25.754,13.149 -2.004,1.568 -4.061,2.851 -4.572,2.851 -0.51,0 -1.908,-2.169 -3.106,-4.82 -2.817,-6.232 -2.883,-16.105 -0.178,-26.68 2.643,-10.336 2.629,-15.093 -0.049,-16.526 -2.767,-1.481 -7.742,0.22 -13.504,4.618 -2.455,1.874 -4.685,3.408 -4.956,3.408 -1.207,0 -0.175,-4.362 4.128,-17.451 2.541,-7.727 4.704,-14.499 4.808,-15.049 0.103,-0.55 2.154,-5.05 4.558,-10 4.181,-8.611 7.359,-13.651 11.352,-17.999 1.01,-1.101 2.653,-3.576 3.65,-5.501 0.997,-1.925 3.208,-4.526 4.913,-5.78 1.965,-1.445 3.1,-3.154 3.1,-4.669 0,-4.524 10.723,-12.283 22.965,-16.616 7.068,-2.502 22.139,-2.678 28.015,-0.326 2.211,0.884 4.02,2.002 4.02,2.483 0,0.791 6.79,7.513 17.458,17.283 2.177,1.994 4.493,3.625 5.146,3.625 1.432,0 7.717,12.672 6.923,13.957 -0.308,0.498 -0.179,1.14 0.286,1.427 0.465,0.288 1.418,3.131 2.119,6.319 6.876,31.303 15.21,48.477 30.768,63.402 14.545,13.954 16.677,15.895 17.452,15.895 0.466,0 0.751,0.337 0.633,0.75 -0.118,0.413 0.926,2.55 2.321,4.75 3.373,5.322 5.782,15.51 6.94,29.361 1.435,17.149 2.754,24.025 5.908,30.811 1.577,3.395 2.608,6.432 2.29,6.75 -0.317,0.318 -0.123,0.578 0.432,0.578 0.555,0 1.867,1.674 2.917,3.72 1.629,3.177 4.322,7.463 12.329,19.621 1.964,2.982 21.579,20.659 22.924,20.659 1.72,0 15.285,8.892 19.154,12.555 14.099,13.349 22,21.759 22,23.418 0,0.515 2.362,3.327 5.25,6.247 4.058,4.103 6.726,5.81 11.75,7.516 7.43,2.523 24.585,5.638 26.054,4.731 1.55,-0.958 23.013,1.48 26.396,2.998 1.677,0.753 4.85,1.957 7.05,2.675 4.803,1.567 8.705,4.292 7.716,5.388 -0.394,0.436 -0.207,0.502 0.415,0.147 0.623,-0.356 2.786,0.476 4.809,1.849 2.022,1.372 5.563,3.451 7.868,4.62 2.306,1.168 4.523,2.627 4.927,3.24 0.404,0.614 0.741,0.799 0.75,0.411 0.008,-0.388 3.053,0.442 6.765,1.844 5.003,1.889 7.839,2.402 10.956,1.98 2.318,-0.313 4.478,-0.131 4.81,0.406 0.331,0.536 1.052,0.975 1.602,0.975 0.55,0 0.722,-0.45 0.382,-1 -0.347,-0.562 0.449,-1 1.818,-1 1.34,0 6.879,-1.419 12.309,-3.153 13.548,-4.327 19.549,-4.895 25.873,-2.447 2.75,1.065 5.428,2.31 5.95,2.768 0.523,0.458 1.744,0.832 2.715,0.832 0.971,0 3.356,1.397 5.3,3.104 1.944,1.707 3.535,2.776 3.535,2.377 0,-1.717 3.147,2.143 7.153,8.771 3.162,5.234 4.764,9.358 5.993,15.427 0.922,4.556 1.452,9.141 1.178,10.189 -0.274,1.049 -0.009,2.209 0.589,2.578 1.365,0.844 1.441,6.554 0.087,6.554 -0.55,0 -1,0.814 -1,1.809 0,2.968 -5.848,18.074 -8.519,22.004 -1.365,2.008 -2.481,4.124 -2.481,4.702 0,4.48 -20.447,23.807 -32.782,30.985 -2.178,1.267 -2.783,4.526 -1.045,5.628 1.765,1.119 9.177,1.106 10.377,-0.018 0.522,-0.49 3.258,-1.125 6.079,-1.411 6.011,-0.611 10.758,-3.387 18.091,-10.579 2.871,-2.816 5.736,-5.12 6.367,-5.12 0.631,0 4.135,-3.037 7.787,-6.75 6.333,-6.439 8.688,-10.291 15.128,-24.75 1.225,-2.75 3.374,-7.475 4.777,-10.5 1.402,-3.025 2.86,-6.176 3.238,-7.001 1.254,-2.733 1.08,-17.422 -0.261,-21.999 -0.725,-2.475 -1.45,-10.575 -1.611,-18 -0.33,-15.227 -1.185,-18.982 -7.043,-30.936 l -4.134,-8.436 1.575,-9.064 c 0.867,-4.985 2.068,-10.189 2.67,-11.564 1.237,-2.828 1.067,-1.962 3.14,-16 1.956,-13.244 2.084,-17.934 0.701,-25.779 -0.609,-3.453 -2.217,-15.603 -3.574,-27 -3.61,-30.323 -4.378,-35.537 -5.33,-36.16 -0.472,-0.308 -2.301,-3.261 -4.065,-6.561 -1.763,-3.3 -7.272,-10.5 -12.24,-16 -9.125,-10.1 -16.941,-20.945 -18.345,-25.453 -0.42,-1.35 -1.384,-3.073 -2.141,-3.831 -0.758,-0.757 -1.153,-1.74 -0.879,-2.183 0.274,-0.444 -0.285,-1.42 -1.241,-2.17 -1.61,-1.262 -1.628,-1.215 -0.239,0.637 1.389,1.852 1.371,1.899 -0.239,0.637 -0.956,-0.75 -1.504,-1.744 -1.216,-2.21 0.287,-0.465 0.108,-1.651 -0.399,-2.636 -0.507,-0.985 -2.151,-4.379 -3.653,-7.541 -1.502,-3.163 -3.015,-5.757 -3.362,-5.766 -0.347,-0.008 -2.881,-2.043 -5.631,-4.522 -6.208,-5.595 -15.069,-10.92 -38.5,-23.135 -2.475,-1.29 -5.4,-3.354 -6.5,-4.586 -1.1,-1.233 -3.719,-3.117 -5.821,-4.187 -3.658,-1.862 -7.27,-5.725 -12.338,-13.193 -1.287,-1.897 -2.341,-3.81 -2.341,-4.25 0,-0.441 -0.9,-1.616 -2,-2.611 -1.1,-0.995 -2,-2.367 -2,-3.048 0,-0.681 -0.564,-1.454 -1.254,-1.719 -0.689,-0.265 -1.883,-2.225 -2.654,-4.357 -1.247,-3.451 -4.365,-7.454 -10.592,-13.599 -4.997,-4.931 -19.542,-12.948 -30.5,-16.81 -3.575,-1.26 -6.927,-2.668 -7.45,-3.129 -0.522,-0.461 -1.872,-0.848 -3,-0.861 -1.127,-0.012 -4.975,-1.639 -8.55,-3.614 -3.575,-1.975 -7.85,-4.304 -9.5,-5.174 -1.65,-0.87 -3.872,-2.393 -4.939,-3.385 -1.827,-1.7 -3.07,-2.197 -4.811,-1.922 -0.413,0.065 -0.75,-0.407 -0.75,-1.049 0,-0.641 -0.274,-0.892 -0.61,-0.556 -0.335,0.335 -2.248,-0.419 -4.25,-1.676 -2.002,-1.257 -6.452,-3.543 -9.89,-5.08 -3.437,-1.537 -6.25,-3.108 -6.25,-3.491 0,-0.383 -0.562,-0.744 -1.25,-0.802 -0.687,-0.058 -3.05,-0.572 -5.25,-1.143 -2.2,-0.57 -11.297,-1.048 -20.215,-1.061 -11.105,-0.016 -17.566,-0.464 -20.5,-1.42 -7.829,-2.551 -14.172,-3.542 -25.785,-4.031 -6.325,-0.266 -17.125,-0.943 -24,-1.505 -13.716,-1.12 -25.516,-0.855 -34,0.762 -7.555,1.44 -19.949,5.814 -22.169,7.823 -1.007,0.911 -1.838,1.25 -1.846,0.752 -0.009,-0.498 -0.346,-0.454 -0.75,0.097 -0.404,0.55 -1.885,1.592 -3.29,2.314 -1.405,0.722 -3.968,2.634 -5.696,4.249 -1.727,1.614 -3.536,2.935 -4.02,2.935 -0.484,0 -1.965,1.154 -3.29,2.565 -1.325,1.41 -3.991,3.283 -5.924,4.162 -1.933,0.879 -4.652,2.637 -6.041,3.908 -2.531,2.315 -9.768,3.963 -21.639,4.929 -2.84,0.232 -6.357,0.874 -7.815,1.428 -3.502,1.332 -4.52,1.271 -4.52,-0.269 0,-1.944 5.647,-7.706 7.694,-7.851 4.777,-0.337 6.145,-0.717 8.869,-2.464 5.567,-3.569 8.687,-7.076 8.687,-9.766 0,-1.964 1.591,-4.014 6.375,-8.214 3.506,-3.079 6.375,-6.136 6.375,-6.794 0,-1.887 11.227,-12.323 14,-13.014 2.719,-0.678 12,-8.847 12,-10.562 0,-0.582 0.717,-1.058 1.594,-1.058 0.876,0 1.818,-0.858 2.092,-1.908 0.274,-1.049 1.391,-2.14 2.481,-2.425 1.09,-0.285 2.203,-1.364 2.473,-2.398 0.27,-1.034 3.185,-3.36 6.477,-5.17 3.292,-1.81 8.492,-5.835 11.555,-8.945 6.675,-6.775 18.788,-22.183 21.318,-27.116 0.999,-1.946 2.984,-4.629 4.413,-5.962 1.428,-1.334 2.597,-2.766 2.597,-3.184 0,-0.417 1.371,-2.965 3.047,-5.661 1.676,-2.696 3.174,-5.989 3.328,-7.317 0.154,-1.328 0.55,-3.089 0.88,-3.914 0.329,-0.825 0.861,-4.537 1.181,-8.25 0.541,-6.286 0.443,-6.75 -1.427,-6.75 -1.105,0 -2.009,-0.402 -2.009,-0.893 0,-1.803 -2.872,-1.907 -7.626,-0.278 -2.68,0.919 -5.099,1.899 -5.374,2.177 -0.275,0.278 -2.3,1.819 -4.5,3.424 -2.2,1.606 -5.957,4.866 -8.349,7.245 -2.392,2.379 -4.562,4.325 -4.822,4.325 -1.802,0 -22.938,22.909 -25.918,28.092 -0.599,1.042 -1.906,2.797 -2.905,3.901 -3.072,3.395 -9.505,14.406 -9.505,16.271 -10e-4,0.97 -0.563,2.77 -1.251,4 -6.815,12.193 -41.089,48.736 -45.71,48.736 -0.572,0 -1.04,-1.125 -1.04,-2.5 0,-1.375 0.45,-2.5 1,-2.5 0.55,0 1,-1.575 1,-3.5 0,-1.925 0.466,-3.5 1.036,-3.5 1.398,0 5.155,-8.731 5.45,-12.666 0.13,-1.742 1.209,-4.402 2.397,-5.913 1.188,-1.51 2.411,-3.91 2.717,-5.333 0.684,-3.185 1.248,-4.591 5.747,-14.308 2.936,-6.344 4.172,-7.97 6.934,-9.124 2.504,-1.046 4.044,-2.8 6.04,-6.88 1.474,-3.011 2.679,-6.866 2.679,-8.567 0,-1.7 0.45,-3.369 1,-3.709 0.55,-0.34 1,-1.443 1,-2.452 0,-1.009 0.619,-2.071 1.375,-2.362 0.756,-0.29 1.593,-1.8 1.859,-3.357 0.566,-3.31 4.442,-16.07 8.756,-28.829 1.674,-4.95 3.268,-10.244 3.543,-11.765 0.276,-1.52 1.241,-4.895 2.146,-7.5 0.988,-2.841 1.566,-7.272 1.446,-11.078 l -0.201,-6.343 8.788,0.695 c 8.318,0.657 16.566,3.324 18.523,5.99 0.404,0.551 0.741,0.608 0.75,0.129 0.008,-0.48 0.632,-0.361 1.386,0.265 1.886,1.565 10.009,3.808 16.629,4.591 3.025,0.357 7.958,1.335 10.962,2.172 4.304,1.2 11.509,1.523 34,1.525 l 28.538,0.003 7.486,-2.724 c 8.052,-2.929 10.012,-4.01 17.125,-9.44 2.536,-1.936 5.574,-4.182 6.75,-4.991 1.176,-0.809 2.139,-1.891 2.139,-2.406 0,-1.937 8.022,-8.3 16.545,-13.123 8.098,-4.583 21.455,-16.057 21.455,-18.431 0,-0.509 0.58,-1.521 1.29,-2.248 1.165,-1.193 6.1,-7.511 18.483,-23.659 2.351,-3.065 4.652,-5.818 5.115,-6.117 0.464,-0.3 1.158,-1.558 1.545,-2.795 0.386,-1.238 1.121,-2.25 1.634,-2.25 0.513,0 0.933,-0.653 0.933,-1.45 0,-0.798 0.788,-1.909 1.75,-2.47 0.962,-0.561 1.391,-1.033 0.952,-1.05 -0.439,-0.016 0.498,-1.942 2.082,-4.28 1.584,-2.338 3.744,-6.475 4.798,-9.195 3.113,-8.026 12.448,-16.735 24.418,-22.782 2.475,-1.25 4.725,-2.51 5,-2.801 2.211,-2.333 9.852,-3.885 21.658,-4.398 14.957,-0.651 26.339,-2.559 34.342,-5.758 7.458,-2.982 15.723,-9.352 18.05,-13.913 2.653,-5.202 5.584,-16.658 7.08,-27.673 1.125,-8.292 1.087,-9.442 -0.366,-10.895 -1.5,-1.5 -1.908,-1.325 -5.305,2.27 -2.024,2.142 -5.482,7.495 -7.685,11.895 -3.523,7.035 -7.143,12 -8.751,12 -0.287,0 -1.536,1.012 -2.773,2.25 -1.237,1.237 -2.7,2.25 -3.25,2.25 -1.726,0 -2.461,0.318 -3.779,1.636 -0.703,0.703 -2.015,0.997 -2.914,0.652 -1.013,-0.389 -1.387,-0.226 -0.982,0.428 1.229,1.989 -3.841,2.601 -23.325,2.815 -19.203,0.211 -22.818,0.674 -30.25,3.879 -2.062,0.889 -3.757,1.273 -3.765,0.853 -0.009,-0.419 -0.346,-0.289 -0.75,0.29 -0.404,0.579 -3.119,2.063 -6.034,3.298 -2.914,1.236 -6.066,3.014 -7.003,3.951 -2.019,2.019 -10.814,2.142 -26.753,0.375 -5.53,-0.614 -11.155,-0.936 -12.5,-0.717 -1.345,0.218 -4.92,0.639 -7.945,0.935 -7.176,0.701 -8.46,1.004 -15,3.542 -4.613,1.79 -15.285,4.345 -23.5,5.627 -6.908,1.078 -22.468,7.306 -24.997,10.006 -2.105,2.246 -6.203,4.177 -11.503,5.422 -3.025,0.71 -7.3,1.725 -9.5,2.255 -2.2,0.531 -4.175,0.879 -4.388,0.773 -0.214,-0.105 -0.664,0.236 -1,0.758 -0.337,0.521 -3.449,2.418 -6.917,4.215 -6.114,3.168 -20.666,16.203 -19.448,17.421 0.322,0.322 0.061,0.586 -0.58,0.586 -0.642,0 -1.054,0.379 -0.917,0.843 0.288,0.97 -6.256,11.488 -7.461,11.992 -0.441,0.185 -0.545,0.751 -0.232,1.257 0.313,0.507 -0.131,1.191 -0.988,1.52 -0.857,0.329 -1.309,1 -1.004,1.493 0.304,0.492 0.181,0.895 -0.274,0.895 -0.455,0 -1.896,2.475 -3.202,5.5 -1.305,3.025 -2.786,5.5 -3.29,5.5 -0.505,0 -0.639,0.45 -0.299,1 0.34,0.55 0.066,1 -0.608,1 -0.674,0 -0.937,0.288 -0.585,0.64 0.7,0.7 -2.327,6.36 -3.401,6.36 -0.365,0 -1.248,1.463 -1.962,3.25 -0.715,1.787 -3.014,5.275 -5.11,7.75 -2.096,2.475 -5.278,6.221 -7.072,8.325 -1.794,2.104 -4.162,4.266 -5.262,4.805 -1.1,0.538 -3.575,1.833 -5.5,2.876 -5.156,2.796 -10.28,2.494 -16.609,-0.98 -2.981,-1.636 -5.642,-2.966 -5.913,-2.956 -2.664,0.096 -7.478,-1.565 -7.478,-2.58 0,-0.708 9.942,-11.345 22.094,-23.639 12.152,-12.293 24.343,-25.163 27.091,-28.601 2.749,-3.437 5.406,-6.25 5.906,-6.25 0.5,0 0.909,-0.675 0.909,-1.5 0,-0.825 0.42,-1.5 0.933,-1.5 0.513,0 1.247,-0.992 1.632,-2.203 0.384,-1.212 1.319,-2.823 2.076,-3.581 0.758,-0.757 1.122,-1.791 0.809,-2.297 -0.312,-0.505 -0.091,-0.919 0.491,-0.919 0.582,0 1.059,-0.675 1.059,-1.5 0,-0.825 0.4,-1.5 0.889,-1.5 0.83,0 2.651,-6.592 2.279,-8.25 -0.092,-0.413 0.282,-0.75 0.832,-0.75 0.55,0 0.914,-0.338 0.81,-0.75 -0.396,-1.556 1.387,-7.25 2.269,-7.25 0.507,0 0.868,-0.337 0.803,-0.75 -0.066,-0.412 -0.009,-1.088 0.125,-1.5 0.133,-0.412 0.338,-1.088 0.454,-1.5 0.246,-0.87 1.371,-3.881 2.524,-6.75 0.442,-1.1 1.567,-4.148 2.501,-6.774 1.708,-4.804 4.222,-8.674 12.514,-19.268 2.475,-3.162 5.502,-7.534 6.726,-9.715 1.224,-2.182 3.249,-4.858 4.5,-5.946 1.251,-1.089 5.761,-4.971 10.024,-8.628 4.263,-3.656 7.75,-7.048 7.75,-7.536 0,-1.87 -8.956,0.662 -20,5.653 -6.325,2.859 -11.837,5.089 -12.25,4.956 -0.413,-0.133 -0.75,0.208 -0.75,0.758 0,0.55 -0.373,1 -0.829,1 -1.523,0 -15.69,8.457 -19.685,11.75 -2.168,1.788 -4.541,3.25 -5.273,3.25 -0.732,0 -1.073,0.418 -0.757,0.928 0.315,0.51 -0.338,1.217 -1.452,1.571 -1.114,0.353 -2.654,1.848 -3.423,3.322 -0.768,1.473 -3.23,4.479 -5.472,6.679 -2.241,2.2 -4.083,4.547 -4.092,5.215 -0.009,0.668 -0.93,1.703 -2.045,2.3 -1.115,0.597 -1.793,1.466 -1.506,1.93 0.287,0.465 -0.178,1.114 -1.035,1.443 -0.857,0.329 -1.278,1.051 -0.935,1.605 0.342,0.554 0.145,1.007 -0.437,1.007 -0.582,0 -1.059,0.675 -1.059,1.5 0,0.825 -0.675,1.5 -1.5,1.5 -0.825,0 -1.5,-0.675 -1.5,-1.5 0,-0.825 0.477,-1.5 1.059,-1.5 0.582,0 0.799,-0.42 0.482,-0.934 -0.318,-0.514 0.841,-6.476 2.574,-13.25 3.891,-15.206 4.389,-18.372 4.37,-27.816 -0.037,-18.492 -0.944,-25 -3.485,-25 -0.415,0 -1.202,0.563 -1.747,1.25 m -150.003,145.412 c -1.907,0.77 -1.523,2.516 1.654,7.526 1.598,2.519 3.065,5.419 3.26,6.446 0.255,1.338 1.481,2.007 4.337,2.366 4.662,0.585 6.552,3.497 7.296,11.241 0.523,5.443 1.334,5.753 7.203,2.759 8.358,-4.264 15.593,-1.157 11.75,5.044 -1.03,1.663 -0.986,2.185 0.25,2.971 2.344,1.491 2.798,1.247 5.619,-3.015 1.456,-2.2 3.193,-4 3.861,-4 1.96,0 5.15,-3.296 5.82,-6.014 0.716,-2.905 9.938,-8.986 13.626,-8.986 2.179,0 2.297,0.305 1.845,4.75 -0.266,2.613 -2.052,8.891 -3.97,13.953 -2.702,7.131 -3.185,9.319 -2.144,9.719 0.739,0.283 1.347,1.092 1.351,1.797 0.009,1.466 4.469,3.781 7.285,3.781 1.053,0 2.126,0.888 2.417,2 0.288,1.1 1.12,2 1.85,2 0.73,0 1.963,0.908 2.74,2.018 1.349,1.926 1.485,1.823 2.962,-2.25 0.851,-2.347 1.801,-7.976 2.111,-12.507 0.528,-7.738 0.418,-8.377 -1.809,-10.5 -2.91,-2.773 -6.55,-8.729 -6.576,-10.761 -0.029,-2.188 -4.816,-7.245 -9.988,-10.55 -3.367,-2.152 -6.389,-3.082 -12,-3.696 -4.125,-0.451 -11.1,-1.215 -15.5,-1.698 -4.4,-0.483 -10.025,-1.4 -12.5,-2.037 -8.521,-2.193 -20.166,-3.399 -22.75,-2.357 m 47.082,73.229 c -1.423,2.535 -3.348,5.734 -4.277,7.109 -0.93,1.375 -1.97,3.253 -2.311,4.172 -0.342,0.92 -1.616,1.82 -2.831,2 -1.215,0.181 -2.52,1.003 -2.9,1.828 -0.381,0.825 -1.911,3.855 -3.4,6.732 -6.051,11.69 -6.509,14.385 -6.114,35.975 0.199,10.886 0.73,22.718 1.181,26.293 0.759,6.015 1.015,6.523 3.431,6.803 l 2.61,0.303 0.173,-21.803 c 0.103,-12.973 0.564,-21.938 1.139,-22.136 0.532,-0.184 0.967,-0.971 0.967,-1.75 0,-0.78 0.399,-1.417 0.886,-1.417 0.488,0 1.207,-2.137 1.599,-4.75 0.829,-5.526 2.087,-8.25 3.81,-8.25 2.241,0 3.593,-3.691 3.178,-8.68 -0.302,-3.632 0.098,-5.73 1.545,-8.11 1.074,-1.765 2.357,-3.21 2.851,-3.21 0.494,0 1.133,-0.9 1.421,-2 0.287,-1.1 1.168,-2 1.956,-2 2.987,0 4.144,5.271 4.703,21.419 0.58,16.769 1.865,20.747 3.832,11.868 3.366,-15.193 4.249,-18.624 5.053,-19.65 1.448,-1.848 2.202,-11.702 1.058,-13.839 -0.574,-1.072 -1.853,-2.759 -2.843,-3.749 -0.989,-0.989 -1.968,-2.266 -2.174,-2.837 -0.206,-0.571 -2.981,-1.914 -6.166,-2.984 l -5.79,-1.945 -2.587,4.608 m -102.532,150 c -2.035,0.951 -8.56,6.376 -14.5,12.055 -11.618,11.108 -22.595,19.789 -28.445,22.496 -2.004,0.927 -5.451,3.232 -7.659,5.122 -2.208,1.89 -4.405,3.436 -4.883,3.436 -1.105,0 -4.313,3.711 -4.313,4.988 0,0.531 -1.012,1.63 -2.25,2.442 -3.118,2.045 -6.378,8.647 -7.441,15.07 -0.274,1.65 -0.86,3.45 -1.304,4 -1.203,1.49 -3.026,24.235 -3.086,38.5 -0.055,12.845 -0.276,16.396 -1.186,19 -0.288,0.825 -1.741,5.1 -3.229,9.5 -1.488,4.4 -3.786,9.432 -5.105,11.183 -1.319,1.751 -2.399,3.626 -2.399,4.167 0,0.541 -0.364,1.133 -0.808,1.317 -0.445,0.183 -2.191,2.361 -3.88,4.839 -3.195,4.687 -10.836,12.994 -11.951,12.994 -1.722,0 -7.92,10.806 -6.794,11.847 0.389,0.359 0.908,0.091 1.153,-0.597 0.246,-0.687 1.948,-1.25 3.784,-1.25 2.858,0 3.427,0.41 3.965,2.857 0.677,3.083 8.336,12.992 10.114,13.086 1.471,0.077 8.417,7.109 8.417,8.521 0,1.213 7.114,8.536 8.292,8.536 0.389,0 0.708,-2.003 0.708,-4.451 0,-10.613 5.037,-23.84 9.506,-24.961 1.251,-0.314 2.211,-1.137 2.134,-1.83 -0.077,-0.692 0.31,-1.258 0.86,-1.258 0.55,0 0.878,0.675 0.729,1.5 -0.149,0.825 -0.528,4.314 -0.842,7.754 -0.51,5.577 -0.39,6.184 1.108,5.609 1.937,-0.743 18.505,-17.152 18.505,-18.326 0,-1.233 -7.963,-8.244 -14,-12.325 -7.035,-4.757 -7.67,-5.301 -12.65,-10.837 -3.655,-4.063 -4.07,-5.007 -3.478,-7.903 1.229,-6.007 4.274,-7.224 17.727,-7.083 l 11.807,0.124 6.735,4.002 c 3.885,2.308 8.902,6.492 11.856,9.888 2.816,3.237 6.199,6.092 7.518,6.345 2.112,0.403 2.274,0.226 1.357,-1.487 -0.573,-1.07 -1.217,-3.332 -1.431,-5.028 -0.215,-1.695 -0.831,-3.523 -1.369,-4.061 -0.638,-0.638 -0.574,-1.708 0.183,-3.075 1.115,-2.012 1.188,-1.976 1.799,0.903 l 0.637,3 0.979,-2.392 0.98,-2.393 3.24,2.896 c 2.788,2.49 3.271,3.627 3.458,8.125 0.286,6.872 1.623,8.148 4.483,4.279 1.574,-2.13 3.369,-3.183 6.193,-3.635 2.187,-0.35 3.976,-1.158 3.976,-1.796 0,-0.639 0.93,-2.944 2.066,-5.123 2.239,-4.293 4.051,-11.694 6.441,-26.31 2.009,-12.29 4.159,-16.151 8.993,-16.151 4.292,0 5.703,2.55 10.659,19.25 1.746,5.882 2.727,7.75 4.071,7.75 1.218,0 1.77,-0.774 1.77,-2.481 0,-3.284 4.816,-24.524 6.078,-26.81 0.545,-0.985 0.796,-2.11 0.56,-2.5 -0.237,-0.39 -0.023,-3.184 0.474,-6.209 5.025,-30.545 6.359,-52.804 3.867,-64.5 -1.117,-5.239 -2.052,-6.8 -7.379,-12.312 -5.314,-5.499 -18.758,-15.188 -21.074,-15.188 -0.443,0 -1.305,-0.624 -1.916,-1.387 -1.665,-2.08 -12.169,-5.624 -16.398,-5.532 -2.041,0.044 -5.377,0.859 -7.412,1.81 m 128.95,165.276 c -2.612,2.674 -4.75,5.236 -4.75,5.693 0,0.456 -0.9,1.645 -2,2.64 -1.1,0.995 -2,2.17 -2,2.611 0,0.44 -1.132,2.468 -2.516,4.507 -2.193,3.232 -2.558,6.365 -0.957,8.201 0.687,0.788 4.473,-2.46 4.473,-3.837 0,-2.44 2.939,-5.982 4.963,-5.982 1.343,0 1.71,-0.535 1.338,-1.956 -0.368,-1.408 0.884,-3.298 4.469,-6.75 4.105,-3.951 4.839,-5.172 4.175,-6.942 -1.316,-3.511 -2.213,-3.285 -7.195,1.815 m -141.75,5.756 c 0,1.6 2.565,9.506 3.519,10.851 0.107,0.15 0.938,-0.012 1.845,-0.36 1.738,-0.667 2.021,-6.414 0.316,-6.414 -0.492,0 -0.663,-0.603 -0.38,-1.339 0.294,-0.767 -0.728,-2.074 -2.393,-3.057 -2.82,-1.666 -2.907,-1.656 -2.907,0.319 m 15.937,0.195 c -1.011,1.889 -0.698,11.218 0.507,15.122 0.214,0.693 0.656,2.482 0.983,3.975 0.804,3.679 3.665,2.69 3.051,-1.055 -0.504,-3.07 -1.347,-13.377 -1.425,-17.41 -0.063,-3.277 -1.541,-3.576 -3.116,-0.632 m 67.074,12.369 c -1.712,2.063 -0.524,5.956 2.74,8.983 1.501,1.392 3.039,2.53 3.417,2.53 1.638,0 3.829,-3.358 3.799,-5.821 -0.07,-5.596 -6.829,-9.46 -9.956,-5.692"
     stroke="none"
     fill="#000000"
     fill-rule="evenodd"
     id="path2" />
</svg>
