<?xml version="1.0" encoding="UTF-8" standalone="no"?>
<svg
   width="424.51611"
   height="495.45294"
   viewBox="0 0 424.51611 495.45294"
   version="1.1"
   id="svg4"
   xmlns="http://www.w3.org/2000/svg"
   xmlns:svg="http://www.w3.org/2000/svg">
  <defs
     id="defs8" />
  <path
     d="m 102.55761,3.0313212 c -1.24,1.678 -3.462998,3.548 -4.937998,4.156 l -2.683,1.106 3.761,0.688 c 2.068998,0.379 3.983998,0.912 4.255998,1.1839998 0.565,0.565 0.944,14.443 0.547,20.03 -0.191,2.681 -0.814,3.889 -2.239,4.342 -1.087,0.344 -2.210998,0.392 -2.497998,0.105 -0.914,-0.914 -10.222,5.383 -12.327,8.34 l -2.026,2.844 -4.237,-2.363 c -8.161,-4.55 -21.942,-8.482 -29.73,-8.482 -12.845,0 -15.445,3.465 -15.388,20.5 0.048,14.335 3.663,25.902 12.057,38.587 l 2.463,3.722 -2.165,6.844999 c -3.004,9.494 -2.9,15.947 0.362,22.544 6.134,12.405 15.98,20.124 32.496,25.478 5.864,1.901 12.713,4.718 15.22,6.261 2.507,1.542 5.534998,3.115 6.730998,3.494 1.488,0.472 2.512,2.009 3.25,4.879 5.854,22.763 14.112,40.114 25.196,52.94 2.733,3.163 4.362,5.746 3.62,5.74 -0.742,-0.005 -3.756,-1.13 -6.698,-2.5 -6.221,-2.896 -6.151,-2.882 -6.151,-1.205 0,0.706 3.209,4.531 7.13,8.5 3.922,3.968 6.927,7.215 6.678,7.215 -0.248,0 -2.55,-0.715 -5.114,-1.589 -8.211,-2.797 -7.248,-0.986 3.159,5.942 5.581,3.715 10.147,6.961 10.147,7.213 0,0.252 -1.8,0.17 -4,-0.182 -2.2,-0.352 -4,-0.374 -4,-0.049 0,0.325 2.588,2.362 5.75,4.527 5.911,4.047 13.381,11.15 11.696,11.122 -0.52,-0.008 -3.523,-0.622 -6.672,-1.363 -6.679,-1.572 -10.515,-4.281 -20.774,-14.674 -12.085,-12.241 -18.352,-13.96 -42.112998,-11.547 -8.316,0.844 -8.788,0.779 -13.688,-1.888 -3.61,-1.965 -7.04,-5.25 -11.887,-11.387 -15.477,-19.594 -17.526,-20.944 -34.441,-22.678 -9.05,-0.927 -13.156,-1.841 -17.2259995,-3.832 -2.939,-1.438 -5.64300004,-2.615 -6.00900004,-2.615 -0.366,0 0.688,2.681 2.34200004,5.957 4.159,8.238 7.7229995,19.252 11.1529995,34.46 4.073,18.063 10.258,29.993 21.346,41.172 12.038,12.137 24.669,17.351 42.137,17.394 10.299,0.025 15.597,-1.242 31.292998,-7.481 9.5,-3.776 16.037,-5.756 20.302,-6.15 9.199,-0.848 21.935,1.042 35.531,5.272 l 11.971,3.725 -0.785,3.477 c -3.028,13.428 -1.553,29.037 4.533,47.971 5.338,16.606 12.561,42.272 13.144,46.703 0.29,2.2 0.158,6.448 -0.293,9.439 l -0.82,5.44 -4.363,-14.44 c -6.509,-21.54 -9.259,-26.369 -22.487,-39.482 -10.458,-10.367 -22.376,-19.457 -25.512,-19.457 -1.147,0 -1.304,2.823 -0.907,16.25 0.548,18.524 1.901,23.847 10.817,42.582 6.921,14.542 12.897,23.061 22.045,31.428 7.193,6.579 7.916,7.582 7.916,10.99 0.001,4.259 -0.054,4.29 -3.992,2.254 -5.063,-2.619 -4.045,-0.187 3.325,7.942 7.017,7.739 7.099,7.89 3.917,7.254 -2.889,-0.578 -3.247,-0.404 -3.234,1.575 0.022,3.212 0.765,4.018 7.985,8.657 l 6.5,4.177 -4.22,-0.304 c -2.322,-0.168 -4.288,0.138 -4.371,0.679 -0.082,0.542 4.067,3.132 9.221,5.757 14.345,7.307 22.478,13.432 24.43,18.399 1.216,3.093 1.36,4.641 0.569,6.119 -0.582,1.088 -0.771,2.266 -0.419,2.618 0.747,0.746 3.398,-2.964 6.805,-9.522 l 2.412,-4.645 -7.465,-28.355 c -7.979,-30.307 -9.17,-38.59 -9.54,-66.368 l -0.147,-11.014 7.752,-13.986 c 8.123,-14.656 13.655,-27.52 18.157,-42.221 2.327,-7.601 2.683,-10.494 2.677,-21.766 -0.006,-11.894 -0.243,-13.58 -2.781,-19.82 -1.525,-3.751 -2.617,-6.949 -2.427,-7.106 0.191,-0.157 4.397,-1.363 9.347,-2.68 8.601,-2.288 10.417,-2.394 41,-2.394 h 32 l 12,-3.292 c 6.6,-1.811 20.1,-6.053 30,-9.428 16.569,-5.648 18.835,-6.17 28.5,-6.568 8.79,-0.363 12.292,-0.015 21.5,2.138 10.093,2.359 14.096,3.071 15.547,2.765 1.153,-0.243 -28.733,-29.931 -32.208,-31.994 -4.61,-2.738 -28.342,-10.586 -36.442,-12.051 -4.224,-0.765 -8.225,-0.801 -13,-0.117 -15.944,2.282 -26.412,7.258 -46.397,22.054 -10.086,7.467 -18.023,12.27 -31.388,18.994 -9.838,4.949 -18.305,8.999 -18.815,8.999 -0.51,0 2.365,-2.617 6.39,-5.815 9.567,-7.603 13.692,-12.403 24.884,-28.955 5.106,-7.551 10.441,-15.312 11.856,-17.245 5.983,-8.174 22.239,-26.949 27.179,-31.39 4.564,-4.104 24.193,-16.678 25.84,-16.553 0.305,0.023 2.939,5.006 5.855,11.073 l 5.301,11.032 7.492,3.558 c 6.848,3.252 8.067,3.516 14.199,3.076 16.446,-1.182 41.925,-20.05 43.78,-32.421 0.93,-6.203 -0.186,-9.55 -5.544,-16.628 -11.138,-14.713 -26.335,-24.775 -38.601,-25.556 -5.665,-0.36 -6.853,-0.086 -11.195,2.586 l -4.858,2.989 3.289,-8.126 c 1.809,-4.469 4.281,-12.540999 5.492,-17.937999 2.17,-9.668 2.241,-9.804 4.773,-9.156 11.097,2.837 16.361,3.468 20.235,2.425 4.426,-1.192 8.546,-4.952 9.473,-8.647 1.375,-5.475 -4.646,-12.592 -14.447,-17.079 -6.662,-3.05 -10.195,-2.712 -24.983,2.395 -13.811,4.768 -20.13,4.502 -34.786,-1.464 -15.911,-6.477 -27.578,-6.85 -33.362,-1.066 -1.638,1.638 -3.957,5.662 -5.153,8.942 -1.196,3.279 -2.773,5.963 -3.506,5.963 -3.411,0 -8.708,3.683 -10.583,7.36 -5.114,10.023 -2.788,20.906999 5.74,26.861999 3.078,2.15 5.32,4.725 6.513,7.482 1.616,3.733 5.187,7.116 11.399,10.797 1.572,0.932 1.58,1.478 0.105,7.836 -3.03,13.063 -9.801,34.211 -13.513,42.203 -2.054,4.422 -6.884,12.747 -10.734,18.5 -3.85,5.753 -9.575,14.847 -12.722,20.21 -3.147,5.363 -5.879,9.75 -6.072,9.75 -0.192,0 1.186,-3.038 3.062,-6.75 1.877,-3.712 5.257,-11.925 7.512,-18.25 2.254,-6.325 4.953,-13.851 5.996,-16.725 2.032,-5.597 2.505,-11.275 0.939,-11.275 -0.527,0 -2.133,2.006 -3.571,4.458 -2.663,4.545 -8.69,10.542 -10.594,10.542 -0.674,0 -0.81,-1.438 -0.377,-4 1.114,-6.596 -0.84,-4.561 -5.04,5.25 l -3.96,9.25 -0.546,-5.5 c -0.582,-5.868 -0.956,-5.634 -3.576,2.233 -1.515,4.552 -1.514,4.528 0.321,-6.003 0.489,-2.808 0.324,-3.176 -1.166,-2.604 -1.625,0.623 -1.633,0.468 -0.134,-2.431 2.459,-4.756 2.004,-5.63 -1.772,-3.402 l -3.373,1.99 1.095,-3.568 c 0.716,-2.332 0.749,-3.682 0.097,-3.9 -0.548,-0.182 -0.826,-2.128 -0.617,-4.324 0.406,-4.254 -0.355,-5.022 -2.317,-2.338 -1.067,1.459 -1.339,1.283 -2.309,-1.5 -1.35,-3.875 -2.501,-3.99 -4.13,-0.413 -1.147,2.517 -1.352,2.598 -2.521,1 -1.854,-2.535 -2.299,-2.198 -3.063,2.325 -0.638,3.777 -0.81,3.955 -2.417,2.5 -2.658,-2.405 -3.083,-1.927 -2.442,2.751 0.512,3.736 0.231,4.709 -2.094,7.25 l -2.685,2.934 0.548,-9.023 c 0.301,-4.963 1.014,-10.363 1.585,-12 1.012,-2.903 1.205,-2.977 7.777,-2.992 5.586,-0.012 7.667,-0.525 12.161,-3 7.902,-4.351 9.595,-7.124 9.501,-15.566 l -0.076,-6.919 h 4.692 c 6.098,0 8.596,2.014 14.614,11.783 2.615,4.244 5.9,9.258 7.3,11.141 2.484,3.339 9.537,9.076 11.158,9.076 1.872,0 3.283,-9.308 3.334,-22 0.049,-12.036 -0.196,-14.054 -2.257,-18.607 -1.271,-2.809 -4.106,-6.859 -6.299,-9 l -3.986,-3.893 -12.202,-0.15 c -10.778,-0.133 -13.268,-0.512 -21.349,-3.25 -9.537,-3.232 -15.957,-3.88 -19.668,-1.984 -1.201,0.613 -4.321,3.184 -6.934,5.712 l -4.75,4.597 v -5.884 c 0,-4.079 0.509,-6.446 1.661,-7.718 2.557,-2.826 1.094,-3.068 -3.491,-0.578 -4.347,2.36 -5.6,4.362 -2.17,3.465 1.863,-0.487 1.999,-0.034 1.985,6.634 -0.017,7.624 -1.313,11.763 -2.547,8.128 -0.368,-1.085 -1.967,-4.835 -3.554,-8.334 -1.586,-3.5 -2.884,-6.519 -2.884,-6.711 0,-0.192 0.98,-1.262 2.177,-2.377 3.944,-3.675 1.122,-3.261 -4.312,0.631 l -5.331,3.819 3.327,0.32 c 3.027,0.292 3.591,0.9 6.234,6.728 1.598,3.525 2.905,6.699 2.905,7.055 0,1.348 -6.482,-0.728 -11.054,-3.541 -9.211,-5.668 -21.008,-7.633 -27.053,-4.506 -3.608,1.865 -10.125,11.614 -12.457,18.636 -2.547,7.669 -1.604,17.616 2.424,25.558 1.743,3.438 3.5,6.25 3.904,6.25 0.405,0 0.736,-2.588 0.736,-5.75 0,-4.394 0.754,-7.342 3.197,-12.5 1.759,-3.712 3.586,-6.75 4.061,-6.75 1.338,0 12.129,12.857 14.18,16.894 3.939,7.755 7.064,20.006 6.992,27.408 -0.039,3.959 -0.406,8.053 -0.816,9.099 -0.655,1.669 -0.906,1.516 -2.051,-1.25 -0.718,-1.733 -1.645,-3.151 -2.059,-3.151 -0.836,0 -1.962,4.808 -2.08,8.875 -0.073,2.522 -0.122,2.498 -1.25,-0.61 -2.029,-5.592 -3.191,-3.283 -2.887,5.735 l 0.287,8.5 -1.948,-2.25 c -4.307,-4.977 -4.212,-1.034 0.193,7.987 3.063,6.272 3.133,6.634 1.02,5.25 -4.543,-2.977 -4.499,-1.205 0.149,6.062 2.537,3.965 2.959,5.122 1.546,4.24 -4.214,-2.631 -2.897,0.624 5.208,12.875 l 8.456,12.784 -5.599,6.698 c -3.998,4.782 -5.815,6.313 -6.356,5.352 -1.203,-2.139 -4.519,-19.247 -6.734,-34.748 -3.15,-22.043 -5.282,-33.75 -6.146,-33.75 -0.434,0 -0.545,5.288 -0.246,11.75 l 0.543,11.75 -2.321,-3.476 c -3.168,-4.743 -3.457,-2.333 -0.978,8.136 1.443,6.09 1.602,7.826 0.593,6.446 -0.76,-1.039 -1.561,-2.388 -1.781,-2.998 -0.22,-0.609 -0.769,-0.762 -1.221,-0.34 -0.452,0.423 -0.105,3.01 0.771,5.75 0.876,2.74 1.384,4.982 1.129,4.982 -1.464,0 -8.384,-20.922 -16.207,-49 -5.941,-21.323 -8.173,-49.997 -4.592,-59 4.264,-10.72 14.64,-20.926 27.822,-27.366 6.648,-3.247 24.653,-8.651999 36.125,-10.842999 13.181,-2.518 19.203,-10.506 15.436,-20.476 -1.648,-4.364 -5.538,-7.853 -15.378,-13.796 -11.363,-6.863 -18.875,-9.51 -29.058,-10.242 -7.846,-0.563 -8.101,-0.667 -13.238,-5.342 -9.569,-8.707 -20.506,-10.19 -30.292,-4.107 l -5.02,3.121 -4.397,-3.356 c -4.231,-3.23 -15.003,-7.593 -18.747,-7.593 -2.2,0 -2.251,-0.998 -0.293,-5.686 1.482,-3.547 1.169,-6.035 -0.434,-3.443 -1.447,2.342 -3.083,-22.1099998 -1.68,-25.1209998 1.333,-2.862 -0.837,-2.00099995 -3.278,1.3 m 94.337,394.6549988 c -1.532,2.637 -3.123,5.023 -3.537,5.302 -1.053,0.709 3.651,10.295 6.171,12.576 l 2.081,1.884 -0.715,-11.984 c -0.393,-6.59 -0.828,-12.116 -0.965,-12.278 -0.138,-0.163 -1.503,1.862 -3.035,4.5 m 5.621,10.878 c 0.048,1.165 0.285,1.402 0.604,0.605 0.289,-0.722 0.253,-1.585 -0.079,-1.917 -0.332,-0.332 -0.568,0.258 -0.525,1.312 m 8,9 c 0.048,1.165 0.285,1.402 0.604,0.605 0.289,-0.722 0.253,-1.585 -0.079,-1.917 -0.332,-0.332 -0.568,0.258 -0.525,1.312"
     stroke="none"
     fill="#000000"
     fill-rule="evenodd"
     id="path2" />
</svg>
