<?xml version="1.0" encoding="UTF-8" standalone="no"?>
<!-- Created with Inkscape (http://www.inkscape.org/) -->

<svg
   width="53.897446mm"
   height="61.084843mm"
   viewBox="0 0 53.897446 61.084843"
   version="1.1"
   id="svg2374"
   xmlns="http://www.w3.org/2000/svg"
   xmlns:svg="http://www.w3.org/2000/svg">
  <defs
     id="defs2371" />
  <g
     id="layer1"
     transform="translate(-2.3892435,-10.946921)">
    <g
       id="g149"
       transform="matrix(0.19483939,0,0,-0.19483939,22.839391,49.749917)">
      <path
         d="m 0,0 c 3.315,-2.168 6.183,-2.7 8.546,-6.137 2.498,-3.634 0.418,-6.521 0.739,-10.665 0.258,-3.322 2.696,-6.029 4.748,-8.489 1.78,-2.134 6.181,-4.778 5.883,-8.126 -2.672,0.339 -5.437,0.271 -7.982,0.498 -1.076,0.096 -1.955,0.774 -3.012,0.767 -1.352,-0.01 -2.564,-1.316 -3.839,-1.431 -1.658,-0.15 -2.515,0.753 -4.377,0.039 -2.045,-0.783 -3.194,-1.787 -5.498,-2.062 -1.941,-0.231 -3.318,0.013 -5.057,-1.056 -1.048,-0.645 -1.781,-1.366 -2.863,-1.934 -2.854,-1.494 -5.545,-0.831 -8.464,0 -1.722,0.491 -6.855,1.673 -2.707,2.409 2.346,0.416 5.492,-0.549 7.831,-1.058 2.482,-0.54 3.305,-0.88 5.209,1.458 0.803,0.986 2.208,1.764 0.008,2.428 -2.544,0.767 -1.689,-1.162 -2.832,-2.224 -1.654,-1.539 -6.316,-0.546 -8.167,-0.084 2.745,0.812 5.406,1.644 8.082,2.547 0.989,0.334 2.567,0.802 3.647,0.62 1.057,-0.179 2.259,-1.722 3.329,-1.172 1.439,0.739 0.512,3.583 -0.984,3.354 -0.908,-0.139 -0.351,-0.67 -0.907,-0.932 -0.452,-0.213 -0.793,-0.421 -1.538,-0.685 -2.05,-0.725 -6.284,-1.787 -8.379,-1.815 0.797,2.042 1.668,5.834 3.417,7.333 0.794,0.682 3.189,0.24 1.812,2.441 -0.501,0.801 -2.354,0.595 -3.395,0.559 0.098,-1.515 0.585,-2.305 0.164,-3.788 -0.349,-1.23 -1.275,-2.514 -1.772,-3.723 -0.362,-0.88 -0.612,-2.53 -1.394,-2.983 -1.895,-1.101 -1.722,0.679 -3.082,1.578 -0.621,-1.155 -0.994,-2.429 -2.416,-2.75 3.134,6.562 6.958,12.589 11.035,18.605 2.179,3.215 4.227,6.417 6.227,9.741 C -6.386,-4.077 -3.885,1.185 0,0 m -40.334,-67.438 c 2.393,0.681 3.351,-0.931 4.503,-2.66 -2.389,0.113 -3.517,1.261 -5.44,2.66 z m 6.625,0.063 c 3.327,0 5.761,-2.625 9.256,-2.625 -2.89,-0.38 -5.322,-0.58 -8.218,-0.349 1.646,1.558 -0.996,0.768 -1.679,0.938 -0.937,0.232 -1.755,1.212 -2.296,2.036 z M 170.166,61.25 c -3.121,3.688 -6.112,7.843 -10.05,10.7 -4.657,3.379 -9.587,6.466 -14.323,9.737 -8.167,5.638 -18.972,7.272 -28.737,7.938 C 94.919,91.135 71.291,89.338 51.309,79.171 45.408,76.169 40.562,72.273 36.356,67.149 c -2.2,-2.681 -5.074,-6.207 -8.124,-7.826 -2.875,-1.527 -6.443,-2.145 -9.566,-2.948 1.337,2.613 4.835,3.392 7.099,4.898 1.28,0.853 2.442,1.924 3.659,2.868 0.688,0.533 1.605,1.617 2.419,1.86 0.337,0.101 1.373,-0.129 1.511,-0.063 3.158,1.495 -0.182,6.281 -1.813,2.812 -0.317,-0.676 0.003,-1.419 -0.333,-2.067 -0.358,-0.694 -1.557,-1.558 -2.146,-2.044 -1.175,-0.97 -2.515,-1.773 -3.771,-2.639 1.369,2.053 2.514,6.309 4.125,7.875 1.448,1.407 2.9,0.072 2.914,2.539 0.01,1.633 -1.853,3.33 -3.199,2.426 -1.645,-1.106 -0.026,-2.358 -0.168,-3.883 -0.128,-1.381 -1.376,-3.694 -2.047,-4.999 -1.5,-2.921 -5.564,-7.764 -9.25,-6.958 0.966,1.452 2.313,1.935 3.625,3 0.683,0.555 3.263,2.431 3.44,3.167 0.383,1.587 -1.648,1.993 -2.597,1.122 -0.219,-0.201 -0.747,-2.285 -1.032,-2.745 -0.802,-1.293 -2.162,-2.822 -3.561,-3.419 0,1.421 -0.346,4.015 0.561,5.227 0.407,0.544 1.337,0.252 1.822,1.078 0.34,0.578 -0.076,1.97 -0.258,2.57 -5.089,-1.44 -1.596,-7.206 -3.625,-10.375 -1.7,1.672 -1.868,5.74 -1.422,7.938 0.585,2.875 3.492,5.172 5.388,7.369 3.286,3.808 9.152,8.969 8.889,14.526 -0.076,1.576 -1.157,2.529 -0.537,4.222 0.489,1.335 1.881,1.941 2.932,2.945 2.219,2.119 3.06,4.879 3.75,7.875 0.71,3.076 1.152,6.146 1.605,9.271 0.175,1.213 0.501,2.503 0.583,3.729 0.058,0.886 0.216,1.199 -0.079,2.109 -0.602,1.862 -0.505,0.784 -1.787,1.65 -1.392,0.942 -2.21,1.735 -0.713,3.444 1.382,1.577 1.748,0.985 2.391,3.297 0.776,2.795 0.568,5.402 0.495,8.309 -0.148,5.843 -1.326,12.862 -3.411,18.345 -1.059,2.784 -1.544,5.843 -3.208,8.348 -0.838,1.262 -1.625,2.328 -3.208,2.4 -1.053,0.048 -3.585,-1.549 -4.293,-0.098 -0.655,1.343 1.061,2.11 1.75,2.821 1.073,1.105 1.504,1.549 1.537,3.167 0.062,2.944 -1.905,5.562 -2.162,8.458 -0.243,2.756 0.346,6.277 1.059,8.924 0.88,3.273 2.581,6.33 1.377,9.79 -1.517,4.355 -2.598,-0.847 -2.958,-2.88 -0.628,-3.543 -2.182,-5.337 -4.317,-8.315 -1.613,-2.252 -3.497,-3.696 -5.571,-5.54 -1.309,-1.166 -2.559,-2.216 -3.347,-3.761 -1.066,-2.092 -0.559,-3.087 -0.657,-5.195 -0.249,-5.404 -5.031,-10.325 -6.806,-15.413 -3.97,-11.382 -5.927,-24.039 -7.165,-36.059 -0.585,-5.692 -1.337,-12.273 -0.782,-17.955 0.362,-3.72 1.536,-7.53 2.283,-11.191 0.477,-2.333 0.658,-5.067 1.68,-7.205 C 4.178,73.823 18.034,64.567 13.65,51.951 9.376,39.648 5.488,27.32 0.426,15.32 -0.66,12.747 -1.651,10.262 -3.459,8.125 -4.022,10.097 -3.866,10.949 -6.084,11 c 1.191,-1.205 2.055,-3.006 2.063,-4.75 0.008,-1.916 -1.166,-3.278 -2.188,-5 -0.909,2.378 -2.252,5.001 -1.868,7.653 0.359,2.481 2.435,5.245 3.92,7.231 1.552,2.077 3.834,3.732 4.911,5.908 0.225,0.452 0.032,1.103 0.26,1.556 0.339,0.672 1.336,1.009 1.679,1.679 0.447,0.868 0.363,2.265 0.483,3.246 0.303,2.492 0.971,5.192 0.738,7.681 -0.321,3.437 -1.53,6.992 -2.268,10.363 -1.238,5.648 -3.007,10.524 -6.155,15.468 -1.447,2.275 -3.098,4.371 -4.404,6.734 -1.83,3.314 -2.331,4.825 -2.405,8.6 -0.117,5.939 0.482,11.615 -1.553,17.231 -2.055,5.668 -3.679,9.413 -2.199,15.33 0.738,2.952 2.341,4.312 4.527,6.484 0.844,0.838 6.521,5.038 5.834,6.336 -1.127,2.132 -6.731,-2.713 -7.629,-3.272 -2.484,-1.551 -5.291,-2.122 -7.996,-3.207 -5.233,-2.101 -11.003,-3.864 -15.575,-7.259 -3.951,-2.936 -7.088,-6.638 -9.366,-10.951 -2.42,-4.583 -5.557,-9.463 -6.685,-14.57 -2.705,-12.249 -1.769,-23.744 1.378,-35.752 1.5,-5.723 3.757,-10.997 6.582,-16.234 2.088,-3.871 5.077,-8.915 8.589,-11.531 4.281,-3.191 9.669,-6.678 14.808,-8.344 3.239,-1.05 5.66,-1.256 8.457,-3.192 2.708,-1.876 3.477,-3.709 4.096,-7.108 0.814,-4.463 -4.85,-10.37 -6.99,-14.009 -2.65,-4.509 -4.867,-9.295 -7.715,-13.682 -1.677,-2.582 -3.471,-5.094 -5.204,-7.639 -2.468,3.496 -5.517,6.655 -4.75,11.125 0.707,4.115 2.58,8.098 2.705,12.293 0.273,9.21 -2.966,17.331 -7.604,25.185 -9.291,15.732 -20.826,31.058 -38.229,38.092 -4.693,1.897 -9.657,3.446 -14.553,4.722 -2.691,0.701 -4.534,1.37 -6.983,2.649 -2.201,1.15 -5.038,2.926 -7.586,3.059 0.238,-2.516 4.304,-4.37 6.002,-6.168 1.836,-1.942 2.54,-4.254 2.967,-6.918 0.194,-1.209 0.056,-2.45 0.242,-3.655 0.286,-1.861 0.814,-2.058 2.09,-3.606 1.401,-1.699 2.147,-3.479 2.781,-5.584 3.011,-9.997 6.394,-20.283 12.212,-29.009 2.956,-4.434 5.612,-9.288 9.233,-13.216 3.411,-3.701 6.866,-9.033 11.218,-11.547 4.857,-2.806 10.725,-5.385 16.005,-7.297 2.995,-1.084 4.432,-1.099 6.857,-3.276 1.72,-1.543 4.304,-3.609 5.271,-5.674 2.337,-4.988 -2.961,-10.762 -5.552,-14.766 -3.27,-5.055 -6.534,-10.013 -9.367,-15.326 -0.609,1.759 -0.142,3.114 0.448,4.754 0.346,0.962 0.797,2.424 1.408,3.25 0.434,0.585 1.543,0.635 1.6,1.299 0.077,0.892 -0.653,1.304 -1.529,1.286 -1.264,-0.027 -1.066,-0.591 -1.511,-1.505 -0.746,-1.534 -0.701,-3.476 -1.416,-5.084 -0.84,0.938 -3.269,4.998 -4.531,5.284 -0.759,0.172 -1.876,-0.354 -1.469,-1.466 0.213,-0.583 2.067,-0.923 2.674,-1.378 2.354,-1.762 1.928,-3.358 2.211,-5.883 0.332,-2.96 -0.152,-3.522 -1.613,-6.282 -4.958,-9.365 -10.256,-18.53 -16.582,-27.072 -1.295,-1.749 -3.555,-3.438 -3.982,-5.5 -0.896,-4.344 1.276,-4.748 4.625,-6.036 0.773,4.499 1.332,7.832 3.621,11.812 2.281,3.969 4.616,7.96 7.173,11.759 1.267,1.883 2.435,3.84 3.695,5.711 1.413,2.098 1.906,4.184 3.259,6.398 1.296,2.117 1.032,4.786 3.86,3.756 1.532,-0.559 3.958,-1.972 3.642,-3.769 -0.193,-1.099 -1.765,-0.935 -1.21,-2.198 0.234,-0.534 2.498,-1.109 2.966,-0.512 0.851,1.085 -1.618,3.395 0.338,2.988 1.823,-0.379 2.195,-3.716 2.791,-5.137 0.812,-1.941 1.586,-3.501 2.925,-5.077 5.839,-6.872 11.909,-13.948 19.19,-19.314 4.002,-2.949 7.606,-4.605 12.243,-6.464 3.466,-1.39 6.912,-3.15 10.576,-3.807 4.959,-0.887 10.007,-1.226 14.971,-2.126 4.795,-0.87 10.038,-1.115 14.858,-0.308 5.398,0.903 10.01,2.752 15.579,1.221 0.943,-0.259 6.39,-3.646 7.023,-1.1 0.498,2.004 -4.245,2.311 -5.478,2.666 -2.535,0.731 -4.855,1.661 -6.189,4.001 -1.104,1.937 -1.832,4.024 -3.194,5.839 -2.595,3.453 -6.569,6.307 -9.846,9.121 -1.865,1.602 -3.599,3.637 -5.585,5.04 -1.816,1.284 -4.338,2.246 -6.312,3.312 -4.759,2.573 -9.754,4.612 -14.563,7.063 -5.503,2.806 -10.722,6.358 -16.967,7.272 -4.941,0.723 -10.166,0.284 -15.096,-0.364 -0.269,1.42 -8.203,-0.106 -9.687,2.092 2.757,-0.465 7.852,-0.898 10,1.25 -0.023,-4.871 7.305,1.281 2.336,1.773 -1.775,0.176 -3.489,-1.439 -5.078,-1.984 -2.027,-0.696 -3.986,-0.352 -6.07,-0.352 -0.014,0 0.818,0.976 1.04,1.102 1.239,0.706 0.256,0.074 1.481,0.278 1.214,0.203 2.42,-0.37 2.854,1.308 -2.336,1.537 -3.626,0.064 -5.371,-1.243 -1.771,-1.328 -3.688,-0.958 -5.942,-0.507 0.205,-0.041 1.491,2.421 1.625,2.687 -0.652,0.125 -1.787,0.358 -2.469,0.188 -2.004,-0.499 -0.285,-0.018 -1.498,-1.796 -0.925,-1.353 0.435,-0.879 -1.526,-1.115 -0.594,-0.071 -2.372,0.181 -2.914,0.499 -2.853,1.678 1.378,5.26 2.643,7.332 2.019,3.309 4.001,6.644 5.953,9.994 1.352,2.317 3.472,7.565 6.104,8.779 2.273,1.049 7.604,-1.672 9.771,-2.904 2.66,-1.513 4.16,-5.696 5.75,-8.415 3.432,-5.866 9.638,-10.759 14.805,-15.174 5.487,-4.688 11.691,-8.236 17.51,-12.487 6.563,-4.794 12.96,-7.24 20.746,-9.475 7.396,-2.123 13.938,-3.664 21.585,-4.081 3.972,-0.217 7.868,-0.304 11.846,-0.125 3.964,0.18 8.312,2.191 12.124,0.453 1.641,-0.749 4.637,-3.048 5.633,-4.61 0.949,-1.489 1.766,-5.494 3.133,-1.765 1.562,4.263 -2.297,7.009 -5.13,9.359 -1.373,1.138 -3.364,2.314 -4.423,3.737 -1.049,1.41 -1.553,3.716 -2.205,5.344 -1.509,3.775 -3.216,7.455 -4.896,11.158 7.991,-1.145 15.954,-1.832 23.876,-3.481 4.342,-0.905 6.362,-2.767 8.807,-6.306 2.111,-3.058 4.567,-7.179 7.9,-8.963 1.197,1.865 -1.197,4.772 -1.91,6.519 -1.224,2.997 -2.682,4.56 -4.506,7.231 -0.69,1.01 -1.154,2.174 -1.833,3.192 -1.353,2.031 -1.408,1.725 -1.046,4.097 0.456,2.983 -0.355,6.105 -0.84,9.094 -1.737,10.727 -6.98,21.93 -14.365,30.034 -3.812,4.185 -8.841,7.818 -13.114,11.535 -4.929,4.285 -9.445,6.534 -15.391,9.39 C 61.756,-3.35 56.558,-0.918 51.275,1.276 46.043,3.45 41.304,3.892 35.639,4.169 31.99,4.347 29.068,4.323 25.569,3.343 22.638,2.521 20.202,0.588 17.333,-0.333 14.736,-1.167 10.465,-2.026 7.751,-1.805 4.78,-1.562 1.14,0.598 -1.584,1.75 -0.642,3.653 1.479,5.832 3.533,6.29 4.711,6.553 7.241,6.059 8.372,5.658 11.098,4.693 9.061,5.101 9.88,2.817 10.961,-0.194 16.077,3.53 11.833,5.694 9.286,6.993 6.14,6.625 3.416,7.5 c 1.759,0.15 9.378,5.93 8.23,6.354 C 10.879,14.138 7.725,10.444 6.899,9.825 6.298,9.373 4.716,7.703 3.754,8.256 3.3,8.518 3.384,10.638 3.333,11.25 3.969,10.48 4.801,10.663 5.833,10.583 6.476,14.387 3.026,14.826 2.625,11.063 2.452,9.442 3.322,8.451 2.291,7.099 1.61,6.205 -0.266,5.684 -1.25,5.167 c -0.85,2.874 2.245,6.459 3.485,8.909 1.526,3.011 3.161,6.084 4.412,9.218 2.683,6.72 4.57,13.887 6.81,20.771 0.956,2.938 1.598,7.279 3.414,9.661 1.561,2.046 5.775,2.892 8.222,2.958 6.547,0.176 13.618,-4.188 19.904,-5.813 15.326,-3.961 30.358,-5.449 46.177,-4.783 6.604,0.277 12.971,2.097 19.534,2.689 7.132,0.644 13.76,1.095 20.814,2.592 4.122,0.875 8.598,1.506 12.582,2.867 2.836,0.969 7.385,2.704 9.425,4.796 2.825,2.897 6.471,3.973 10.458,2.428 1.597,-0.619 3.045,-1.526 4.179,-2.793 1.284,-1.435 1.21,-3.673 3.5,-2.417 -0.5,1.667 -1,3.333 -1.5,5"
         style="fill:#231f20;fill-opacity:1;fill-rule:nonzero;stroke:none"
         id="path151" />
    </g>
  </g>
</svg>
