<?xml version="1.0" encoding="UTF-8" standalone="no"?>
<svg
   width="1791.7841"
   height="1440.7506"
   viewBox="0 0 1791.7841 1440.7506"
   version="1.1"
   id="svg4"
   xmlns="http://www.w3.org/2000/svg"
   xmlns:svg="http://www.w3.org/2000/svg">
  <defs
     id="defs8" />
  <path
     d="m 1441.47,0.57761688 c -6.149,0.43800002 -14.024,1.49800002 -17.5,2.35600002 -3.476,0.857 -8.795,1.847 -11.82,2.2 -9.934,1.158 -25.88,5.4850001 -33.429,9.0690001 -6.637,3.152 -8.683,3.61 -19.549,4.372 -7.394,0.519 -12.776,1.37 -13.774,2.177 -6.372,5.156 -42.255,42.978 -48.748,51.382 -13.309,17.226 -24.344,30.223003 -28.488,33.554003 -2.159,1.734 -6.082,5.907 -8.717,9.271 -2.636,3.365 -8.887,10.618 -13.891,16.118 -5.004,5.5 -13.068,15.625 -17.92,22.5 -5.529,7.833 -13.732,17.54 -21.971,26 -16.65,17.095 -23.205,25.262 -33.359,41.564 -4.476,7.185 -11.585,17.085 -15.798,22 -4.213,4.915 -9.344,11.186 -11.402,13.936 -3.785,5.059 -11.954,20.499 -11.954,22.594 0,0.626 -1.578,3.287 -3.506,5.914 -6.187,8.429 -8.346,14.527 -9.916,28.009 l -1.442,12.381 -5.6,4.911 c -3.079,2.702 -6.197,6.1 -6.929,7.551 -0.731,1.452 -1.623,6.619 -1.981,11.483 -0.446,6.051 -1.753,12.132 -4.138,19.263 -1.918,5.732 -4.131,13.902 -4.919,18.158 -0.788,4.255 -2.172,10.211 -3.077,13.236 -1.092,3.651 -1.915,11.888 -2.448,24.5 -0.912,21.559 -3.621,54.532 -5.094,62 -0.542,2.75 -1.406,18.444 -1.92,34.875 -1.052,33.679 -1.665,42.169 -3.509,48.625 -1.963,6.876 -14.358,32.941 -18.545,39 -0.951,1.375 -3.77,6.55 -6.265,11.5 -2.495,4.95 -6.383,11.453 -8.64,14.452 -4.536,6.028 -5.61,9.202 -6.611,19.548 -0.786,8.129 -2.296,10.12 -15.96,21.044 -4.4,3.518 -10.25,9.2 -13,12.627 -2.75,3.427 -6.95,8.365 -9.334,10.974 -2.384,2.608 -4.184,5.45 -4,6.315 0.257,1.21 3.559,-0.307 14.334,-6.582 7.7,-4.484 17.375,-10.024 21.5,-12.31 4.125,-2.287 9.353,-5.395 11.617,-6.908 3.981,-2.659 21.167,-10.245 30.383,-13.412 2.475,-0.85 5.4,-2.317 6.5,-3.26 1.1,-0.943 5.825,-3.177 10.5,-4.964 4.675,-1.787 17.275,-6.62 28,-10.739 48.519,-18.635 53.76,-20.497 60,-21.318 4.061,-0.535 9.7,-2.356 15.03,-4.856 4.691,-2.201 10.766,-4.538 13.5,-5.195 12.626,-3.033 16.24,-4.235 19.894,-6.617 2.158,-1.406 6.593,-3.18 9.855,-3.941 3.262,-0.761 9.146,-2.903 13.076,-4.761 3.93,-1.858 9.62,-4.165 12.645,-5.128 3.025,-0.962 8.998,-3.497 13.272,-5.632 9.398,-4.693 15.413,-6.982 31.186,-11.863 6.623,-2.05 15.417,-5.106 19.542,-6.792 8.349,-3.413 28.266,-10.358 34.615,-12.071 2.263,-0.611 5.267,-2.017 6.676,-3.125 2.256,-1.775 2.451,-2.399 1.635,-5.244 -0.509,-1.776 -0.926,-6.789 -0.926,-11.139 0,-7.166 0.326,-8.494 3.464,-14.104 6.445,-11.526 24.97,-24.172 40.227,-27.461 4.845,-1.045 10.384,-1.846 12.309,-1.78 2.608,0.089 4.73,-0.821 8.327,-3.57 2.655,-2.029 5.805,-3.909 7,-4.179 12.62,-2.849 34.268,-3.412 39.948,-1.038 1.936,0.808 5.607,3.913 8.158,6.899 3.762,4.404 4.749,6.373 5.231,10.437 1.025,8.659 0.015,11.131 -6.822,16.693 -3.38,2.75 -8.878,7.355 -12.218,10.234 -4.384,3.779 -9.83,6.928 -19.594,11.333 -9.5,4.285 -19.026,9.754 -32.026,18.386 -20.522,13.627 -21.338,14.106 -27.308,16.022 -2.308,0.74 -9.371,3.208 -15.696,5.484 -6.325,2.276 -13.982,4.993 -17.015,6.037 -3.034,1.044 -25.984,10.06 -51,20.037 -25.017,9.976 -48.41,19.281 -51.985,20.678 -9.238,3.609 -9.436,4.289 -1.245,4.289 5.109,0 8.954,-0.681 13.45,-2.383 3.462,-1.31 8.095,-3.062 10.295,-3.893 2.2,-0.831 7.32,-2.242 11.378,-3.135 4.795,-1.055 8.646,-2.619 11,-4.466 2.751,-2.158 5.185,-3.013 10.122,-3.554 3.575,-0.393 9.65,-1.377 13.5,-2.188 3.85,-0.811 13.3,-1.881 21,-2.377 14.443,-0.932 18.748,-1.809 31.414,-6.395 5.792,-2.097 10.389,-2.885 21,-3.599 27.931,-1.88 32.125,-2.734 46.427,-9.454 12.924,-6.073 20.694,-7.632 42.519,-8.532 l 19.359,-0.799 6.141,-5.985 c 4.83,-4.708 7.194,-6.239 11.081,-7.175 4.473,-1.077 17.138,-8.28 31.458,-17.891 2.97,-1.993 20.348,-18.485 38.619,-36.649 29.638,-29.466 33.351,-33.51 34.45,-37.525 0.678,-2.475 3.438,-8.754 6.132,-13.952 2.695,-5.199 4.9,-9.947 4.9,-10.552 0,-1.204 8.33,-15.756 20.611,-36.005 8.628,-14.226 10.389,-17.679 10.389,-20.363 0,-0.978 2.087,-4.445 4.639,-7.703 5.82,-7.434 7.768,-11.766 10.342,-22.994 1.126,-4.912 4.851,-16.051 8.278,-24.752 4.961,-12.596 7.417,-17.388 12.044,-23.5 8.198,-10.832 9.662,-14.079 10.779,-23.909 1.668,-14.68 -0.187,-22.899 -11.119,-49.27 -7.061,-17.033 -8.779,-22.071 -10.972,-32.177 -1.867,-8.605 -4.232,-14.227 -10.438,-24.823 -1.772,-3.025 -5.849,-10.164 -9.059,-15.864 -6.226,-11.056 -15.677,-21.901 -28.006,-32.136 -3.644,-3.025 -8.957,-7.586 -11.807,-10.135 -4.998,-4.472 -5.438,-4.65 -12.442,-5.034 l -7.261,-0.398 -5.901,-6.466 c -5.842,-6.401 -5.909,-6.544 -6.582,-13.967 -1.96,-21.608003 -9.582,-41.098003 -21.143,-54.061003 -27.161,-30.454 -29.839,-33.156 -35.846,-36.171 -3.303,-1.658 -8.931,-4.7400001 -12.506,-6.8500001 -11.142,-6.57500002 -15.208,-7.15800002 -52,-7.45300002 -17.875,-0.144 -37.531,0.098 -43.68,0.536 M 420.827,5.6766169 c -7.665,1.803 -23.782,14.1990001 -42.592,32.7600001 -16.649,16.427 -17.928,17.949 -18.608,22.14 -0.402,2.475 -1.799,6.918 -3.104,9.874 -1.305,2.956 -2.373,6.824 -2.373,8.595 0,1.995 -0.794,3.939 -2.085,5.108 -3.665,3.317 -8.88,11.071 -10.463,15.56 -2.509,7.111003 -4.794,37.777003 -3.52,47.242003 0.587,4.367 1.079,9.78 1.093,12.03 0.023,3.743 1.658,10.892 7.909,34.591 1.233,4.675 4.246,14.6 6.695,22.056 6.398,19.473 8.201,42.037 4.871,60.944 -2.061,11.699 -1.897,16.034 1.04,27.545 3.9,15.288 5.455,19.124 12.344,30.455 7.694,12.654 14.456,21.349 21.574,27.739 2.917,2.618 9.798,10.161 15.291,16.761 5.493,6.6 16.805,19.052 25.139,27.672 13.053,13.499 16.987,16.885 28.383,24.43 7.276,4.817 16.309,10.467 20.074,12.555 3.765,2.087 10.29,6.295 14.5,9.35 16.027,11.63 28.017,19.833 38.155,26.102 5.775,3.571 13.65,8.692 17.5,11.379 3.974,2.774 9.479,5.582 12.736,6.497 5.369,1.507 25.472,9.761 32.007,13.141 1.609,0.832 6.282,4.44 10.384,8.017 9.472,8.261 14.821,10.584 31.855,13.835 17.263,3.296 23.176,5.67 40.171,16.134 7.493,4.614 13.757,8.388 13.919,8.388 0.162,0 2.463,1.33 5.112,2.955 2.649,1.625 9.117,4.319 14.375,5.986 6.234,1.976 11.451,4.414 15,7.009 2.992,2.189 8.644,6.219 12.56,8.957 3.915,2.737 12.567,10.74 19.226,17.785 6.66,7.044 15.357,15.508 19.328,18.808 3.97,3.3 15.456,14.084 25.523,23.965 21.001,20.612 21.212,21.018 13.951,26.968 -5.934,4.863 -8.862,4.703 -17.094,-0.933 -5.653,-3.871 -7.278,-4.5 -11.62,-4.5 -5.555,0 -13.933,1.802 -13.933,2.996 0,1.51 3.837,4.019 15.5,10.133 3.3,1.73 7.565,4.434 9.478,6.008 1.913,1.575 3.87,2.863 4.349,2.863 0.479,0 3.455,1.594 6.612,3.543 3.157,1.949 8.461,4.367 11.787,5.374 8.432,2.553 12.824,5.869 29.836,22.526 8.177,8.006 14.926,14.557 14.997,14.557 0.072,0 2.294,-2.945 4.937,-6.545 2.642,-3.6 6.046,-7.538 7.564,-8.75 1.517,-1.213 4.608,-4.565 6.868,-7.449 2.308,-2.946 5.648,-5.888 7.62,-6.711 3.137,-1.311 3.439,-1.763 2.843,-4.256 -0.367,-1.534 -1.055,-3.547 -1.529,-4.473 -0.474,-0.927 -0.862,-2.696 -0.862,-3.932 0,-1.236 -1.843,-6.743 -4.096,-12.237 -4.246,-10.355 -5.339,-16.016 -7.995,-41.404 -1.147,-10.955 -1.528,-12.418 -3.588,-13.768 -2.221,-1.455 -6.254,-8.37 -7.813,-13.396 -0.413,-1.331 -2.228,-4.729 -4.033,-7.551 -4.008,-6.266 -5.546,-9.784 -10.717,-24.528 l -4.033,-11.5 -0.47,-25.037 c -0.626,-33.397 1.62,-55.278 8.107,-78.963 0.753,-2.75 1.935,-10.4 2.626,-17 0.85,-8.124 2.052,-13.938 3.722,-18 1.357,-3.3 4.864,-12.525 7.794,-20.5 2.93,-7.975 6.479,-17.2 7.888,-20.5 1.408,-3.3 2.571,-6.861 2.584,-7.912 0.013,-1.052 1.868,-7.577 4.121,-14.5 4.904,-15.067 7.724,-27.411 9.044,-39.588 0.536,-4.95 1.371,-12.6 1.854,-17 0.484,-4.4 0.907,-16.686 0.942,-27.303 0.056,-17.088 -0.284,-21.334 -2.959,-37 -1.662,-9.733 -3.507,-19.047 -4.099,-20.697 -0.593,-1.65 -3.056,-8.786 -5.473,-15.858 -5.379,-15.734 -12.226,-28.341 -31.846,-58.642 -2.315,-3.575 -5.388,-8.563 -6.83,-11.084 -1.441,-2.522 -6.873,-9.134 -12.07,-14.693 -19.706,-21.080003 -23.607,-23.972003 -38.18,-28.311003 -11.118,-3.31 -13.337,-3.744 -25.192,-4.928 -12.798,-1.279 -39.778,0.191 -46.739,2.546 -2.227,0.753 -12.518,2.765 -22.869,4.471 -10.351,1.706 -20.026,3.593 -21.5,4.194 -4.45,1.814003 -22.127,1.466003 -25.88,-0.51 -1.761,-0.927 -4.029,-1.685 -5.042,-1.685 -1.013,0 -3.784,-1.98 -6.159,-4.399 -4.262,-4.343 -4.416,-4.404 -11.99,-4.75 l -7.673,-0.351 -7.468,-6.167 c -8.513,-7.03 -29.461,-20.333 -32.018,-20.333 -0.938,0 -2.323,-0.748 -3.078,-1.663 -0.754,-0.915 -6.322,-4.885 -12.372,-8.822 -8.099,-5.271 -13.446,-9.748 -20.276,-16.977 l -9.276,-9.819 -9.224,-2.609 c -8.792,-2.488 -10.372,-2.611 -33.724,-2.631 -13.475,-0.011 -26.075,-0.402 -28,-0.869 -1.987,-0.481 -5.673,-2.892 -8.526,-5.574 -4.677,-4.3970001 -5.568,-4.8070001 -12.791,-5.8810001 -8.969,-1.334 -24.447,-1.362 -30.006,-0.055 m 613.374,89.2670001 c -0.531,1.395 -2.222,3.2 -3.758,4.009 -1.536,0.81 -5.34,4.094003 -8.453,7.298003 -4.409,4.539 -6.453,7.762 -9.25,14.588 -1.974,4.819 -3.59,9.468 -3.59,10.332 0,0.864 -2.636,6.146 -5.857,11.738 -3.221,5.593 -7.225,13.318 -8.896,17.168 -1.672,3.85 -4.656,10.6 -6.631,15 -1.975,4.4 -3.597,9.298 -3.604,10.885 -0.007,1.587 -1.766,7.258 -3.91,12.601 -2.143,5.343 -5.094,14.845 -6.556,21.114 -1.462,6.27 -3.339,14.316 -4.171,17.879 -0.832,3.563 -2.576,12.338 -3.876,19.5 -1.299,7.162 -3.303,15.621 -4.453,18.8 -1.536,4.249 -2.322,9.807 -2.97,21 -0.484,8.371 -1.119,15.896 -1.411,16.721 -0.292,0.825 -2.176,7.575 -4.186,15 -2.011,7.425 -4.748,17.03 -6.081,21.344 -1.334,4.314 -3.114,12.125 -3.956,17.357 -1.418,8.817 -3.086,16.832 -6.929,33.299 -0.834,3.575 -1.932,11.225 -2.438,17 -0.507,5.775 -1.615,14.1 -2.462,18.5 -3.457,17.952 -3.903,23.422 -4.613,56.5 -0.581,27.079 -1.087,35.683 -2.351,40 -0.886,3.025 -2.079,11.35 -2.651,18.5 -0.573,7.15 -1.704,17.95 -2.514,24 -0.811,6.05 -2.112,15.95 -2.891,22 -1.486,11.532 -4.729,24.929 -7.183,29.675 -2.329,4.503 -7.463,9.825 -9.479,9.825 -1.024,0 -3.452,-1.397 -5.396,-3.104 -3.502,-3.074 -3.535,-3.081 -3.547,-0.75 -0.019,3.591 2.922,25.773 4.085,30.806 0.565,2.449 2.58,7.983 4.477,12.299 1.898,4.315 3.45,8.921 3.45,10.236 0,4.372 5.231,18.973 7.783,21.723 2.753,2.967 7.252,4.202 21.003,5.767 8.443,0.962 16.962,3.062 23.172,5.713 1.902,0.812 6.627,1.825 10.5,2.251 l 7.042,0.775 4.05,-3.608 c 7.922,-7.057 9.45,-10.034 9.45,-18.412 0,-4.533 0.761,-9.992 1.93,-13.841 4.004,-13.183 9.07,-38.113 9.07,-44.631 0,-5.456 3.545,-14.56 8.826,-22.668 5.038,-7.736 5.174,-8.136 5.174,-15.27 0,-6.413 0.481,-8.352 3.857,-15.556 7.416,-15.825 7.917,-17.199 12.667,-34.73 2.011,-7.425 4.263,-14.85 5.002,-16.5 2.666,-5.945 7.564,-21.951 9.602,-31.379 1.144,-5.292 2.959,-11.871 4.034,-14.621 4.776,-12.22 7.929,-21.801 9.266,-28.157 0.794,-3.773 2.546,-8.881 3.895,-11.352 1.349,-2.47 2.74,-6.133 3.091,-8.14 0.351,-2.006 1.552,-4.81 2.669,-6.229 1.116,-1.42 3.371,-6.528 5.009,-11.352 2.826,-8.319 2.998,-9.772 3.354,-28.27 0.207,-10.725 0.862,-24.675 1.456,-31 1.303,-13.882 1.424,-141.497 0.143,-151 -0.482,-3.575 -1.59,-9.792 -2.461,-13.815 -0.871,-4.024 -1.584,-8.577 -1.584,-10.119 0,-1.541 -2.247,-10.174 -4.993,-19.184 -10.472,-34.354 -12.064,-39.44 -12.958,-41.382 -0.506,-1.1 -1.606,-5.538 -2.443,-9.863 -1.804,-9.311 -5.902,-18.474 -10.945,-24.472003 l -3.646,-4.336 -0.964,2.538 M 1451.15,494.03662 c -7.774,1.224 -11.09,2.587 -16.944,6.965 -2.629,1.965 -4.641,2.578 -8.5,2.59 -8.502,0.025 -17.372,2.73 -26.993,8.232 -19.645,11.234 -25.701,21.408 -22.069,37.072 1.125,4.848 1.269,7.256 0.518,8.658 -1.803,3.369 -7.559,7.02 -14.148,8.973 -10.866,3.221 -32.087,10.693 -38.098,13.414 -3.153,1.428 -9.903,3.744 -15,5.146 -12.761,3.512 -19.678,6.118 -30.766,11.593 -5.225,2.58 -11.484,5.224 -13.908,5.875 -2.424,0.651 -7.463,2.741 -11.197,4.644 -3.735,1.903 -9.626,4.055 -13.092,4.781 -3.467,0.726 -8.433,2.672 -11.037,4.324 -2.603,1.652 -6.653,3.475 -9,4.052 -14.316,3.515 -18.071,4.741 -25.379,8.286 -4.846,2.35 -9.564,3.935 -11.716,3.935 -3.816,0 -18.655,4.847 -37.671,12.306 -6.325,2.481 -22.3,8.628 -35.5,13.66 -13.2,5.032 -25.575,10.22 -27.5,11.529 -1.925,1.308 -4.85,2.686 -6.5,3.061 -1.65,0.375 -3.9,1.229 -5,1.897 -1.1,0.668 -5.375,2.506 -9.5,4.085 -4.125,1.578 -10.875,4.894 -15,7.37 -4.125,2.475 -10.425,6.137 -14,8.138 -22.995,12.869 -47.813,27.414 -49.592,29.065 -1.894,1.757 -3.158,1.89 -13.343,1.403 -7.587,-0.363 -12.767,-1.147 -15.908,-2.408 -5.541,-2.225 -20.34,-5.53 -32.157,-7.182 -9.61,-1.344 -11.251,-1.984 -15.572,-6.067 -3.064,-2.896 -3.082,-2.9 -6.983,-1.269 -2.152,0.899 -4.578,2.597 -5.391,3.773 -0.813,1.176 -4.42,5.36 -8.016,9.297 -3.596,3.937 -8.489,9.451 -10.873,12.253 l -4.335,5.096 -0.481,23.74 c -0.519,25.664 -0.771,26.801 -6.073,27.447 -2.313,0.281 -2.533,0.748 -2.739,5.806 -0.398,9.813 -2.324,22.425 -4.125,27.016 -2.924,7.454 -13.378,19.142 -21.365,23.887 -3.844,2.283 -8.972,5.827 -11.396,7.874 -2.424,2.048 -6.502,5.298 -9.064,7.223 -2.561,1.925 -6.778,5.179 -9.372,7.231 -2.593,2.053 -8.518,6.731 -13.167,10.396 -4.649,3.665 -18.824,12.604 -31.5,19.866 -12.676,7.261 -26.154,15.108 -29.951,17.438 -3.797,2.329 -7.847,4.6 -9,5.047 -1.153,0.446 -9.747,4.931 -19.097,9.966 -34.283,18.461 -100.515,46.29 -126.958,53.344 -11.91,3.177 -12.277,3.21 -33.542,3.061 -11.825,-0.082 -24.17,-0.645 -27.434,-1.25 -8.03,-1.488 -38.746,-1.425 -43.801,0.09 -5.175,1.55 -18.734,16.15498 -23.754,25.58598 -1.969,3.699 -4.802,8.629 -6.296,10.955 -1.493,2.327 -2.715,4.877 -2.715,5.667 0,1.94 10.34,10.91 16.364,14.198 7.118,3.884 15.178,4.285 26.542,1.32 8.06,-2.103 9.462,-2.214 13.302,-1.05 9.503,2.88 9.873,2.806 15.831,-3.202 4.816,-4.856 6.878,-6.053 17.461,-10.14 6.6,-2.549 14.726,-6.339 18.058,-8.422 3.332,-2.083 7.282,-4.095 8.777,-4.47 1.495,-0.376 4.894,-2.021 7.553,-3.657 2.658,-1.636 5.275,-2.974 5.815,-2.974 0.54,0 5.289,-1.8 10.555,-4 5.265,-2.2 10.222,-4 11.015,-4 3.227,0 41.809,-15.65498 59.727,-24.23398 6.875,-3.291 14.138,-6.573 16.139,-7.292 2.001,-0.719 8.976,-4.214 15.5,-7.766 6.524,-3.553 16.586,-8.814 22.361,-11.691 5.775,-2.877 11.85,-6.226 13.5,-7.443 1.65,-1.217 8.85,-5.718 16,-10.003 7.15,-4.285 20.2,-12.829 29,-18.986 8.8,-6.157 21.625,-14.793 28.5,-19.191 10.686,-6.835 27.613,-19.285 34.5,-25.375 1.1,-0.973 3.497,-1.796 5.327,-1.829 5.007,-0.091 8.173,-2.594 8.173,-6.463 0,-6.658 16.069,-24.872 38.288,-43.399 7.926,-6.609 9.21,-7.328 13.095,-7.328 5.955,0 7.617,2.071 7.617,9.491 0,5.733 -0.759,9.046 -5.731,25.009 -4.45,14.285 -5.192,15.924 -9.741,21.5 -9.963,12.21 -14.09,18.795 -23.952,38.209 -5.669,11.16 -11.033,21.641 -11.92,23.291 -0.887,1.65 -4.34,8.625 -7.673,15.5 -5.603,11.554 -6.845,13.309 -16.41,23.193 -7.654,7.908 -11.554,12.903 -14.973,19.175 -9.499,17.42798 -25.928,35.82298 -40.378,45.21298 -3.329,2.163 -6.283,5.151 -8,8.092 -4.064,6.96 -5.712,8.327 -10.035,8.327 -2.931,0 -4.477,-0.694 -6.687,-3 -1.581,-1.65 -3.76,-3 -4.843,-3 -3.413,0 -8.508,4.735 -9.648,8.965 -1.493,5.545 -7.162,12.373 -24.524,29.535 -8.346,8.25 -15.947,16.493 -16.891,18.317 -0.943,1.825 -1.8,5.819 -1.904,8.877 -0.187,5.482 -0.138,5.586 3.588,7.545 2.078,1.093 6.128,2.273 9,2.624 4.869,0.594 5.354,0.907 7.175,4.637 1.32,2.703 2.087,6.8 2.367,12.637 l 0.414,8.637 8.883,8.842 c 6.963,6.931 8.883,8.382 8.883,6.712 0,-1.171 2.026,-4.825 4.501,-8.118 2.838,-3.774 5.839,-9.634 8.119,-15.849 1.989,-5.424 4.576,-11.811 5.748,-14.195 2.238,-4.549 7.774,-10.166 10.021,-10.166 0.725,0 5.556,-1.98 10.735,-4.4 5.179,-2.421 10.518,-4.558 11.863,-4.75 1.534,-0.22 2.985,-1.469 3.891,-3.35 2.127,-4.416 2.435,-4.953 4.594,-8.023 1.609,-2.288 2.096,-5.207 2.649,-15.89 0.71,-13.711 -0.373,-28.838 -2.105,-29.415 -3.02,-1.007 0.635,-12.041 5.687,-17.172 1.895,-1.925 5.187,-6.288 7.314,-9.694 2.127,-3.407 5.131,-6.863 6.675,-7.68 1.545,-0.816 5.78,-4.393 9.413,-7.948 5.843,-5.71698 7.031,-7.56198 10.294,-15.98298 2.029,-5.236 5.51,-12.339 7.736,-15.783 2.226,-3.444 4.471,-7.376 4.989,-8.737 0.517,-1.362 3.313,-6.345 6.212,-11.075 2.899,-4.73 6.468,-11.075 7.931,-14.1 1.463,-3.025 5.189,-8.65 8.282,-12.5 3.092,-3.85 6.538,-8.777 7.658,-10.949 1.12,-2.171 3.514,-6.221 5.32,-9 1.806,-2.778 4.338,-7.945 5.628,-11.481 2.421,-6.639 14.156,-30.707 18.191,-37.309 5.59,-9.148 10.932,-11.287 15.647,-6.269 3.883,4.134 3.891,11.442 0.022,20.008 -1.739,3.85 -4.962,11.95 -7.162,18 -2.199,6.05 -5.534,14.15 -7.409,18 -1.876,3.85 -5.004,11.229 -6.951,16.397 -4.758,12.631 -12.414,27.583 -18.464,36.062 -2.732,3.828 -6.333,9.382 -8.003,12.34 -3.249,5.757 -8.026,18.515 -8.026,21.435 0,0.974 -2.515,8.96998 -5.588,17.76898 -3.074,8.798 -7.743,23.521 -10.377,32.717 -2.988,10.435 -5.922,18.517 -7.804,21.5 -1.66,2.629 -3.339,5.905 -3.733,7.28 -0.394,1.375 -2.219,5.425 -4.056,9 -3.671,7.145 -10.442,22.347 -10.442,23.446 0,0.381 -1.293,2.575 -2.874,4.874 -3.966,5.769 -10.357,21.382 -13.173,32.18 -1.41,5.407 -4.855,13.964 -8.629,21.433 -3.455,6.838 -7.454,15.953 -8.887,20.255 -1.433,4.303 -6.393,15.254 -11.023,24.336 -5.515,10.818 -9.62,20.476 -11.902,28.007 -1.917,6.322 -4.353,13.197 -5.414,15.277 -2.323,4.553 -10.355,12.191 -12.826,12.196 -1.154,0 -2.407,1.549 -3.593,4.432 -3.597,8.747 -13.988,22.98 -24.17,33.107 -8.385,8.339 -11.701,10.869 -19.553,14.92 -8.503,4.387 -36.181,22.03 -43.238,27.561 -5.031,3.944 -8.751,13.556 -12.643,32.668 -2.352,11.553 -2.632,20.744 -0.864,28.403 0.943,4.084 2.405,6.537 6.596,11.064 7.062,7.627 16.348,14.537 21.347,15.883 3.846,1.035 4.212,0.918 9.176,-2.926 2.843,-2.202 12.915,-11.803 22.382,-21.336 l 17.212,-17.333 8.571,-17.474 c 4.714,-9.61 10.131,-20.325 12.038,-23.81 3.188,-5.828 3.47,-7.034 3.502,-15 0.038,-9.397 2.028,-22.545 3.96,-26.154 0.664,-1.241 1.292,-5.932 1.395,-10.423 0.147,-6.396 0.656,-8.925 2.346,-11.659 1.187,-1.92 2.65,-5.727 3.251,-8.459 0.601,-2.732 2.365,-6.768 3.921,-8.968 1.555,-2.2 3.714,-5.846 4.798,-8.103 1.084,-2.257 4.518,-7.256 7.631,-11.109 6.155,-7.618 10.143,-15.614 13.61,-27.288 1.225,-4.125 4.395,-11.55 7.045,-16.5 2.649,-4.95 7.513,-15.76 10.81,-24.022 6.793,-17.026 11.387,-25.407 16.706,-30.478 4.725,-4.506 7.506,-10.05 11.433,-22.792 1.744,-5.661 4.655,-13.761 6.469,-18 1.815,-4.239 4.088,-11.083 5.053,-15.208 3.237,-13.844 9.684,-33.447 13.026,-39.604 1.822,-3.357 4.436,-9.207 5.809,-13 1.373,-3.793 5.195,-12.071 8.492,-18.396 6.355,-12.189 15.21,-36.52098 15.21,-41.79298 0,-2.337 0.772,-3.718 3,-5.365 1.65,-1.22 3,-2.982 3,-3.916 0,-5.252 8.417,-25.312 14.025,-33.426 1.743,-2.523 2.963,-5.847 3.302,-9 0.306,-2.837 4.028,-13.754 8.606,-25.235 4.437,-11.128 8.067,-20.701 8.067,-21.271 0,-0.571 1.292,-3.888 2.871,-7.371 2.99,-6.593 9.402,-14.623 11.677,-14.623 0.724,0 2.215,1.263 3.314,2.806 1.62,2.276 2.183,5.452 2.972,16.786 0.851,12.229 1.423,15.181 4.569,23.582 3.222,8.601 3.6,10.632 3.628,19.464 0.037,11.921 1.217,21.568 3.986,32.595 2.513,10.009 3.817,22.272 4.971,46.76698 0.48,10.175 1.354,20.072 1.942,21.993 0.589,1.922 1.077,8.447 1.085,14.5 0.011,7.622 0.626,13.429 2,18.884 1.133,4.496 1.985,11.209 1.985,15.643 0,4.271 0.67,11.077 1.49,15.123 0.819,4.046 1.933,13.207 2.476,20.357 1.043,13.749 2.42,26.596 4.048,37.769 0.55,3.778 0.986,30.143 0.986,59.684 0,56.141 -0.127,57.996 -5.073,74.017 -1.544,5.001 -2.215,11.357 -2.953,28 -1.036,23.368 -1.426,27.449 -3.488,36.53 -4.074,17.937 -4.742,23.375 -4.254,34.627 0.398,9.167 1.034,12.828 3.282,18.873 1.533,4.125 3.17,7.927 3.637,8.45 0.467,0.522 0.849,1.947 0.849,3.166 0,2.562 8.493,15.641 12.667,19.508 6.535,6.054 13.013,9.692 18.47,10.374 l 5.412,0.676 5.456,-6.337 c 3,-3.485 6.632,-7.465 8.071,-8.844 1.912,-1.833 3.09,-4.655 4.381,-10.5 0.972,-4.396 3.332,-13.393 5.245,-19.993 4.535,-15.649 5.271,-20.047 6.356,-38 0.499,-8.25 1.196,-19.282 1.549,-24.517 0.419,-6.226 0.089,-14.523 -0.957,-24 -0.879,-7.965 -2.115,-20.783 -2.747,-28.483 -0.916,-11.151 -1.72,-15.443 -3.953,-21.092 -3.091,-7.818 -5.423,-18.18 -6.507,-28.908 -0.391,-3.872 -2.378,-11.692 -4.446,-17.5 -5.849,-16.421 -7.097,-23.473 -7.967,-45 -0.715,-17.71 -1.034,-20.138 -3.474,-26.447 -6.114,-15.808 -11.608,-45.774 -12.569,-68.553 -1.297,-30.773 -2.927,-45.773 -5.703,-52.5 -2.27,-5.5 -2.543,-7.873 -3.284,-28.49998 -0.573,-15.955 -1.297,-24.235 -2.491,-28.465 -1.365,-4.837 -1.732,-11.36 -1.941,-34.5 -0.303,-33.563 -1.66,-48.557 -5.334,-58.949 -1.842,-5.21 -2.638,-9.521 -2.678,-14.5 -0.056,-7.046 -0.04,-7.088 2.765,-7.409 2.413,-0.277 4.186,1.058 12.285,9.25 5.206,5.265 10.278,9.573 11.271,9.573 2.216,0 14.123,12.194 14.123,14.463 0,2.468 3.108,7.974 3.851,6.821 0.357,-0.554 2.186,-0.957 4.065,-0.896 3.582,0.117 5.643,2.267 13.047,13.612 4.569,7.001 9.158,13.218 12.18,16.5 1.519,1.65 5.751,8.84 9.404,15.977 8.068,15.759 13.057,23.032 19.559,28.515 5.459,4.603 18.942,24.183 23.946,34.774 1.707,3.614 4.194,8.17398 5.526,10.13398 1.332,1.96 2.422,4.517 2.422,5.681 0,2.576 8.992,14.813 19.634,26.72 10.52,11.77 20.814,24.949 24.836,31.797 1.809,3.078 6.55,10.014 10.537,15.412 3.987,5.398 8.067,11.664 9.067,13.924 1,2.261 3.123,5.075 4.718,6.254 5.379,3.977 6.207,7.37 6.217,25.463 0.01,16.168 0.048,16.46 3.555,26.349 1.95,5.5 3.962,11.355 4.472,13.012 0.953,3.098 12.379,15.504 21.758,23.625 4.443,3.846 6.694,4.942 14,6.816 4.788,1.229 10.001,3.148 11.584,4.265 2.481,1.751 3.786,1.939 9.439,1.36 5.174,-0.53 6.884,-1.138 8.092,-2.875 3.255,-4.683 6.021,-6.703 9.178,-6.703 1.747,0 4.642,-0.906 6.433,-2.013 5.882,-3.634 5.586,-12.338 -0.721,-21.237 -1.267,-1.787 -2.8,-4.15 -3.405,-5.25 -0.606,-1.1 -3.868,-3.575 -7.25,-5.5 -7.843,-4.465 -10.372,-8.219 -13.564,-20.135 -3.031,-11.32 -3.933,-13.529 -8.54,-20.921 -3.854,-6.185 -9.341,-10.382 -27.39,-20.955 l -11.116,-6.511 -17.33,-21.489 c -9.532,-11.819 -23.563,-29.609 -31.179,-39.533 -7.617,-9.924 -18.57,-23.029 -24.342,-29.122 -15.258,-16.10898 -52.533,-66.43398 -67.565,-91.22198 -6.665,-10.989 -12.118,-20.699 -12.118,-21.578 0,-0.878 0.715,-1.871 1.589,-2.206 3.826,-1.469 55.558,53.986 114.9,123.17198 32.582,37.986 56.951,65.34 73.054,82 25.375,26.255 83.415,88.805 89.541,96.5 1.97,2.475 5.931,9.9 8.801,16.5 6.166,14.181 11.769,23.145 17.765,28.423 3.808,3.352 5.124,3.893 10.399,4.274 7.253,0.525 10.625,3.265 12.951,10.526 2.086,6.51 7.653,10.791 30.797,23.681 3.558,1.981 8.391,2.268 17.958,1.064 4.462,-0.562 5.347,-1.027 5.863,-3.08 0.333,-1.33 1.97,-3.486 3.637,-4.791 2.784,-2.178 3.07,-2.977 3.508,-9.8 0.442,-6.897 0.213,-8.032 -3.21,-15.863 -4.233,-9.684 -10.614,-16.957 -19.798,-22.565 -3.468,-2.117 -7.549,-5.852 -10.297,-9.423 -4.642,-6.034 -10.186,-10.946 -12.352,-10.946 -3.004,0 -6.973,-3.118 -7.6,-5.97 -0.905,-4.122 -4.443,-6.612 -11.255,-7.922 -3.163,-0.609 -9.421,-2.122 -13.906,-3.362 l -8.155,-2.255 -35.018,-34.65 c -31.369,-31.039 -46.847,-47.306 -72.654,-76.356 -4.39,-4.942 -12.298,-13.71 -17.574,-19.485 -5.276,-5.775 -24.841,-27.825 -43.478,-49 -18.637,-21.17498 -48.105,-53.34998 -65.483,-71.49998 -29.252,-30.55 -41.501,-43.577 -68.878,-73.25 -7.855,-8.515 -10.981,-11.25 -12.857,-11.25 -2.842,0 -9.248,-6.346 -9.248,-9.161 0,-0.974 -0.763,-3.37 -1.695,-5.325 -2.612,-5.479 -0.723,-6.737 11.428,-7.613 5.492,-0.396 12.612,-1.65 16.267,-2.866 7.399,-2.461 14.822,-2.353 21.75,0.317 2.337,0.901 8.862,1.923 14.5,2.271 7.856,0.486 11.768,1.266 16.75,3.34 3.575,1.489 10.1,3.281 14.5,3.982 8.21,1.309 13.557,3.452 19.234,7.708 1.779,1.333 5.071,3.073 7.316,3.865 2.245,0.792 5.29,2.292 6.766,3.334 3.944,2.782 14.629,7.094 23.117,9.327 4.089,1.075 13.744,5.166 21.456,9.089 13.379,6.807 14.35,7.137 21.14,7.202 7.304,0.07 12.471,2.091 12.471,4.879 0,0.716 1.013,2.243 2.25,3.392 3.046,2.829 19.09,11.259 21.428,11.259 1.032,0 2.874,0.698 4.093,1.552 6.379,4.468 26.586,7.62 34.21,5.336 2.141,-0.642 6.002,-2.909 8.579,-5.039 2.578,-2.13 5.869,-4.132 7.313,-4.45 14.742,-3.237 20.785,-8.291 17.503,-14.64 -2.096,-4.056 -8.476,-12.706 -10.993,-14.904 -3.011,-2.631 -19.173,-12.123 -27.883,-16.378 -4.4,-2.149 -11.245,-6.011 -15.211,-8.583 -9.677,-6.274 -14.642,-7.394 -32.789,-7.394 h -15 l -10.148,5.214 c -9.952,5.114 -10.254,5.197 -15.645,4.32 -14.981,-2.439 -33.701,-11.12 -33.705,-15.632 0,-3.409 10.569,-12.711 17.502,-15.399 5.371,-2.083 8.084,-2.373 26.015,-2.775 13.892,-0.312 21.238,-0.082 24,0.75 2.429,0.732 16.559,1.533 36.236,2.055 17.74,0.47 32.604,1.071 33.03,1.334 0.426,0.264 8.411,1.231 17.744,2.151 9.332,0.919 17.222,1.828 17.533,2.02 0.31,0.192 6.386,0.41 13.501,0.484 8.998,0.093 15.41,0.729 21.06,2.089 6.197,1.491 10.882,1.888 19.765,1.672 l 11.643,-0.283 -3.765,-6.391 c -2.5,-4.243 -5.615,-7.773 -9.266,-10.5 l -5.5,-4.109 -68.5,-0.26 -68.5,-0.259 -1.813,-2.179 c -1.661,-1.996 -2.794,-2.189 -13.541,-2.302 -6.45,-0.068 -12.259,-0.452 -12.909,-0.853 -0.65,-0.402 -5.029,-1.168 -9.732,-1.702 -7.958,-0.904 -8.747,-0.826 -11.394,1.131 -2.389,1.766 -5.071,2.247 -16.728,3.001 -7.636,0.494 -21.614,0.871 -31.064,0.838 -10.43,-0.036 -17.968,0.362 -19.184,1.013 -1.102,0.59 -4.648,1.072 -7.88,1.072 -3.991,0 -7.941,0.829 -12.315,2.584 -3.542,1.422 -7.79,2.999 -9.44,3.506 -5.016,1.539 -16.568,2.036 -21.934,0.944 -2.786,-0.568 -9.116,-1.44 -14.066,-1.939 -4.95,-0.499 -10.8,-1.429 -13,-2.068 -2.2,-0.638 -5.575,-1.517 -7.5,-1.954 -1.925,-0.436 -4.625,-1.256 -6,-1.821 -1.375,-0.565 -7,-2.48 -12.5,-4.256 -10.007,-3.229 -15.725,-6.979 -17.06,-11.185 -0.448,-1.413 -1.618,-1.811 -5.32,-1.811 -3.905,0 -5.189,-0.487 -7.244,-2.75 -9.796,-10.783 -4.09,-23.653 14.624,-32.984 3.3,-1.645 7.8,-3.558 10,-4.251 4.518,-1.422 12.111,-6.818 21.083,-14.981 3.346,-3.044 7.396,-6.706 9,-8.14 1.604,-1.433 5.392,-5.187 8.417,-8.343 6.147,-6.414 8.291,-7.551 14.239,-7.551 3.727,0 4.77,-0.641 11.199,-6.875 5.629,-5.457 8.27,-7.246 12.816,-8.679 3.44,-1.084 5.945,-2.497 6.275,-3.538 0.334,-1.051 3.393,-2.756 7.761,-4.326 23.764,-8.541 44.01,-15.157 56.71,-18.53 7.975,-2.118 26.65,-7.058 41.5,-10.978 26.038,-6.873 28.937,-7.901 81.359,-28.85 29.898,-11.948 57.573,-22.903 61.5,-24.343 3.928,-1.441 10.966,-4.047 15.641,-5.792 4.675,-1.745 14.125,-5.106 21,-7.469 16.155,-5.553 22.834,-9.243 46.092,-25.469 5.005,-3.492 13.22,-8.11 18.254,-10.262 16.261,-6.951 17.313,-7.637 37.377,-24.389 1.814,-1.514 2.41,-3.034 2.454,-6.253 0.048,-3.488 -0.622,-5.084 -3.724,-8.87 -2.081,-2.54 -5.27,-5.238 -7.086,-5.997 -3.91,-1.634 -14.707,-1.6 -25.367,0.08 m -964.5,85.52 c -38.376,0.727 -57.629,2.131 -69,5.029 -2.2,0.561 -10.15,1.434 -17.666,1.941 -16.686,1.126 -20.871,2.677 -32.951,12.213 -9.814,7.747 -16.473,11.807 -19.392,11.825 -3.238,0.019 -26.3,15.683 -35.491,24.106 l -5.5,5.041 3.5,-0.561 c 5.394,-0.864 14.887,1.085 19.206,3.944 4.674,3.093 6.916,3.214 17.223,0.933 6.246,-1.382 8.559,-1.516 10.897,-0.634 1.632,0.616 3.464,0.797 4.071,0.401 0.606,-0.395 5.603,-1.045 11.103,-1.444 5.5,-0.399 11.86,-1.004 14.133,-1.344 2.562,-0.383 4.39,-0.202 4.809,0.476 0.372,0.602 1.973,1.094 3.558,1.094 1.585,0 3.16,0.45 3.5,1 0.34,0.55 2.546,1 4.902,1 2.357,0 6.943,0.934 10.191,2.075 3.249,1.142 10.035,2.447 15.08,2.901 9.326,0.838 16.571,3.623 24.827,9.54 2.972,2.129 19.037,9.713 23.119,10.913 1.166,0.343 7.235,3.986 13.487,8.097 6.252,4.111 12.287,7.474 13.412,7.474 1.126,0 4.507,0.719 7.514,1.598 3.007,0.88 8.618,1.955 12.468,2.389 18.564,2.096 18.907,2.175 22,5.083 4.16,3.911 23.401,10.618 35.5,12.374 6.507,0.945 20.45,5.234 28.139,8.656 4.205,1.871 9.154,3.177 13.5,3.56 4.419,0.39 8.996,1.612 12.861,3.433 4.383,2.064 9.369,3.272 18.5,4.48 7.28,0.963 13.962,2.425 16,3.501 1.925,1.017 5.352,2.317 7.615,2.89 2.264,0.572 5.813,2.39 7.888,4.038 2.075,1.649 4.273,3.002 4.885,3.008 0.611,0.005 3.066,1.563 5.455,3.462 2.388,1.899 5.313,3.741 6.5,4.094 2.223,0.661 5.451,2.06 16.657,7.217 3.575,1.645 8.278,3.556 10.451,4.248 2.173,0.691 7.968,3.667 12.878,6.613 4.909,2.946 9.454,5.356 10.099,5.356 0.644,0 1.613,0.441 2.151,0.979 0.539,0.539 4.523,1.473 8.855,2.075 4.331,0.602 13.993,3.128 21.47,5.613 19.421,6.453 35.702,10.139 45.396,10.278 2.089,0.03 5.024,0.688 6.52,1.462 1.496,0.774 4.624,1.544 6.95,1.712 3.732,0.27 4.554,-0.08 6.98,-2.974 2.053,-2.449 3.816,-3.422 6.96,-3.839 l 4.21,-0.559 -0.06,-13.623 c -0.034,-7.493 -0.037,-16.279 -0.008,-19.523 0.039,-4.435 -0.446,-6.546 -1.955,-8.5 -1.105,-1.431 -3.574,-4.732 -5.488,-7.337 -1.914,-2.605 -9.369,-10.146 -16.567,-16.759 -12.297,-11.296 -13.518,-12.149 -20.215,-14.126 -7.163,-2.114 -18.972,-8.332 -23.627,-12.439 -1.375,-1.213 -4.721,-3.17 -7.435,-4.349 -5.914,-2.567 -14.529,-8.124 -20.188,-13.023 -4.865,-4.21 -19.39,-13.027 -24.377,-14.796 -1.925,-0.683 -5.528,-1.249 -8.007,-1.257 -9.007,-0.03 -10.267,-0.905 -31.423,-21.823 -22.389,-22.136 -32.06,-29.35 -46.591,-34.753 -4.698,-1.746 -10.327,-4.073 -12.51,-5.169 -6.847,-3.44 -16.51,-6.099 -29.969,-8.247 -21.011,-3.353 -24.679,-4.089 -31,-6.221 -15.363,-5.184 -32.236,-6.032 -96,-4.822 m -214.592,63.917 c -4.44,0.479 -6.504,1.35 -10.016,4.228 -4.047,3.316 -5.147,3.688 -12.908,4.361 -12.553,1.088 -40.351,11.141 -62.984,22.777 -27.591,14.186 -33.403,17.938 -44.338,28.624 -8.731,8.531 -19.662,22.405 -19.662,24.955 0,1.416 -16.681,15.994 -22.962,20.067 -8.523,5.527 -31.05,23.371 -35.65,28.239 -7.584,8.026 -12.129,14.677 -15.403,22.542 -1.788,4.296 -4.497,10.06 -6.022,12.81 -3.516,6.346 -4.806,12.642 -6.041,29.5 -0.544,7.425 -1.641,15.791 -2.438,18.592 -5.116,17.99 -1.365,40.635 10.847,65.47 6.586,13.393 6.669,13.664 6.669,21.789 0,6.143 -0.485,9.169 -1.912,11.939 -2.355,4.569 -7.741,9.756 -11.088,10.679 -13.873,3.824 -20.323,8.363 -25.051,17.631 -1.176,2.304 -4.286,7.162 -6.911,10.795 l -4.774,6.60498 -0.707,15.264 -0.707,15.264 3.475,4.736 c 1.912,2.605 4.179,7.211 5.039,10.236 2.675,9.409 5.636,25.106 5.642,29.909 0.01,7.741 1.806,16.132 4.6,21.486 9.572,18.345 31.253,40.007 48.854,48.809 3.322,1.661 6.715,3.567 7.54,4.236 0.825,0.668 3.525,1.776 6,2.461 2.475,0.685 9.886,3.972 16.469,7.305 14.303,7.241 15.048,7.473 28.298,8.821 12.38,1.259 19.102,3.588 29.467,10.206 5.205,3.324 11.91,6.337 20.5,9.213 7.021,2.351 15.466,5.451 18.766,6.89 3.3,1.439 7.18,2.627 8.623,2.64 1.442,0.013 4.812,0.992 7.487,2.176 10.187,4.506 35.256,3.047 44.916,-2.615 2.37,-1.388 6.425,-5.002 9.013,-8.031 4.991,-5.842 6.426,-6.368 11.065,-4.054 2.31,1.153 9.207,1.514 33.403,1.75 l 30.493,0.298 13.188,-6.755 c 7.253,-3.715 16.028,-7.472 19.5,-8.349 3.472,-0.877 12.162,-4.297 19.312,-7.6 7.15,-3.303 17.702,-7.965 23.45,-10.361 5.747,-2.395 11.822,-5.372 13.5,-6.616 13.376,-9.918 17.053,-11.955 20.927,-11.599 3.69,0.34 4.148,0.041 9.475,-6.181 6.707,-7.834 25.482,-26.442 40.648,-40.288 18.275,-16.684 46.272,-44.809 52.015,-52.251 9.699,-12.569 17.492,-23.501 16.731,-23.469 -0.41,0.017 -2.546,1.14 -4.746,2.495 -2.2,1.355 -4.573,2.466 -5.273,2.469 -0.7,0 -4.785,2.046 -9.077,4.54 -4.293,2.494 -12.869,6.532 -19.059,8.973 -9.648,3.804 -11.927,5.155 -15.973,9.465 -4.676,4.98 -4.778,5.027 -10.872,5.027 -3.384,0 -7.3,-0.523 -8.703,-1.163 -2.032,-0.925 -4.145,-0.798 -10.371,0.624 -5.649,1.29 -10.584,1.675 -17.777,1.386 -11.493,-0.462 -14.091,-1.62 -25.895,-11.544 -6.836,-5.747 -7.007,-6.005 -7.3,-11.031 -0.267,-4.571 0.227,-6.073 4.421,-13.459 8.513,-14.989 10.201,-17.26998 19.601,-26.48898 6.945,-6.81 10.308,-9.382 13.288,-10.163 5.987,-1.569 38.524,-1.307 47.99,0.386 4.4,0.787 15.425,1.535 24.5,1.663 15.618,0.22 17.202,0.06 29.643,-2.992 23.495,-5.764 97.225,-36.582 125.857,-52.606 6.6,-3.694 15.287,-8.267 19.305,-10.164 4.018,-1.896 10.768,-5.623 15,-8.281 4.232,-2.659 16.695,-9.925 27.695,-16.147 11,-6.222 23.444,-14.06 27.653,-17.417 4.209,-3.356 10.908,-8.578 14.887,-11.603 3.979,-3.025 11.56,-8.923 16.847,-13.107 5.287,-4.185 11.471,-8.553 13.742,-9.709 4.315,-2.196 14.021,-12.524 16.62,-17.684 1.989,-3.951 2.717,-7.571 3.177,-15.789 l 0.38,-6.789 -14.153,0.625 c -8.247,0.364 -16.206,1.272 -19.073,2.176 -3.97,1.251 -7.446,1.411 -18,0.828 -7.194,-0.398 -20.955,-0.833 -30.58,-0.967 -26.264,-0.365 -41.296,-1.859 -48.58,-4.828 -3.345,-1.363 -8.295,-2.805 -11,-3.206 -2.706,-0.4 -12.974,-3.387 -22.819,-6.639 -14.392,-4.753 -19.162,-5.911 -24.346,-5.911 -8.097,0 -15.026,-1.998 -25.542,-7.363 -8.608,-4.393 -16.385,-7.188 -28.213,-10.141 -6.053,-1.511 -7.748,-2.475 -12.529,-7.122 -4.304,-4.184 -6.224,-5.374 -8.669,-5.374 -2.606,0 -4.217,-1.175 -9.471,-6.906 l -6.331,-6.905 -9.287,-1.999 c -7.983,-1.718 -10.238,-2.692 -16.064,-6.943 -3.728,-2.72 -8.804,-6.133 -11.282,-7.585 -3.274,-1.918 -5.815,-4.709 -9.306,-10.221 -3.66,-5.777 -6.143,-8.445 -10.432,-11.209 -3.096,-1.996 -6.754,-4.607 -8.129,-5.803 -1.375,-1.195 -4.444,-2.467 -6.82,-2.824 -4.623,-0.697 -5.3,-1.05 -17.918,-9.353 -4.531,-2.982 -11.056,-6.456 -14.5,-7.721 -3.444,-1.265 -9.187,-3.904 -12.762,-5.864 -20.142,-11.047 -23.273,-12.359 -31,-12.991 -4.125,-0.338 -10.425,-1.583 -14,-2.768 -12.592,-4.173 -22.225,-4.89 -48,-3.575 -6.875,0.351 -14.3,1.084 -16.5,1.628 -2.2,0.545 -6.821,1.002 -10.27,1.015 -5.172,0.02 -7.01,-0.457 -10.5,-2.726 -3.927,-2.553 -5.001,-2.755 -14.996,-2.816 -7.605,-0.047 -11.128,-0.457 -12,-1.397 -0.991,-1.069 -0.958,-1.173 0.171,-0.529 0.941,0.537 1.169,0.42 0.69,-0.353 -0.759,-1.23 -19.192,-1.39 -29.687,-0.258 m 1016.092,37.035 c -6.875,0.342 -13.76,1.17 -15.3,1.839 -1.541,0.67 -12.341,2.818 -24,4.773 -18.286,3.067 -22.368,4.093 -29.7,7.463 -4.675,2.15 -15.025,5.672 -23,7.828 -7.975,2.155 -19,5.285 -24.5,6.955 -5.5,1.671 -12.475,3.536 -15.5,4.147 -3.025,0.61 -7.525,1.759 -10,2.553 -4.246,1.361 -20.17,4.189 -45.84,8.141 -9.83,1.513 -12.293,1.574 -18.5,0.458 -3.938,-0.708 -10.435,-1.634 -14.437,-2.058 -7.486,-0.793 -11.223,-2.775 -11.223,-5.953 0,-0.887 2.124,-4.041 4.721,-7.009 4.688,-5.359 4.7,-5.392 1.75,-4.662 -3.341,0.827 -7.803,4.688 -10.302,8.916 -0.918,1.552 -5.606,5.97 -10.419,9.816 -4.812,3.846 -8.75,7.327 -8.75,7.734 0,1.482 -13.194,10.383 -17.292,11.665 -3.902,1.221 -10.642,4.542 -18.433,9.082 -4.033,2.351 -8.447,10.127 -7.169,12.63 0.492,0.962 1.278,2.538 1.747,3.5 0.612,1.256 2.292,1.835 5.954,2.051 4.373,0.257 5.458,0.756 7.61,3.5 1.381,1.759 3.131,3.916 3.889,4.792 1.208,1.394 20.829,8.153 32.194,11.089 2.2,0.568 5.575,1.627 7.5,2.352 4.366,1.646 18.504,2.972 31,2.907 7.099,-0.037 10.347,-0.498 12.852,-1.824 5.348,-2.831 12.227,-4.594 17.964,-4.606 2.923,-0.006 6.298,-0.558 7.5,-1.227 1.473,-0.821 9.183,-1.314 23.684,-1.516 11.825,-0.165 24.65,-0.46 28.5,-0.657 3.85,-0.196 8.22,-0.414 9.711,-0.484 1.491,-0.07 3.516,-0.96 4.5,-1.978 3.075,-3.182 8.234,-4.303 26.182,-5.69 9.565,-0.739 17.868,-1.82 18.45,-2.402 1.777,-1.777 26.388,-1.259 39.924,0.84 6.728,1.043 18.533,2.17 26.233,2.503 7.7,0.333 23,1.085 34,1.671 11,0.586 53.075,1.517 93.5,2.069 40.425,0.552 81.15,1.218 90.5,1.481 11.901,0.334 20.812,0.013 29.708,-1.072 6.99,-0.852 14.249,-1.549 16.132,-1.549 3.109,0 4.856,-1.478 19.041,-16.1 8.591,-8.855 15.619,-16.435 15.619,-16.845 0,-0.41 -0.9,-1.56 -2,-2.555 -1.1,-0.995 -2,-2.908 -2,-4.251 0,-5.249 -2.972,-7.977 -15.447,-14.176 -6.629,-3.294 -13.403,-6.29 -15.053,-6.658 -5.086,-1.134 -18.553,-6.423 -28,-10.997 -5.975,-2.892 -14.378,-5.718 -25,-8.407 -8.8,-2.227 -17.8,-4.708 -20,-5.512 -3.524,-1.289 -15.231,-3.364 -36.5,-6.47 -8.715,-1.273 -16.894,-1.809 -54,-3.54 -17.325,-0.809 -33.525,-1.723 -36,-2.031 -2.475,-0.309 -15.525,-0.986 -29,-1.506 -13.475,-0.52 -25.85,-1.102 -27.5,-1.294 -1.65,-0.191 -8.625,-0.068 -15.5,0.274 m 194.5,137.684 c -1.65,0.245 -9.3,2.426 -17,4.846 -29.717,9.342 -37.375,11.553 -46.531,13.433 -5.208,1.069 -13.912,3.33 -19.342,5.025 -5.43,1.694 -10.543,3.08 -11.361,3.08 -0.818,0 -5.375,1.569 -10.127,3.486 -14.572,5.88 -29.865,9.142 -52.368,11.173 l -6.729,0.607 2.834,3.617 c 4.245,5.417 5.124,7.548 5.124,12.423 0,3.721 -0.605,5.107 -3.75,8.594 -3.717,4.122 -12.001,8.1 -16.866,8.1 -1.179,0 -4.764,2.035 -7.966,4.521 -8.291,6.438 -13.326,7.715 -25.313,6.42 -12.922,-1.397 -19.851,-2.953 -22.532,-5.062 -1.227,-0.965 -3.545,-2.065 -5.152,-2.445 -4.759,-1.123 -20.732,-9.412 -23.251,-12.065 -1.361,-1.433 -3.023,-2.241 -4,-1.942 -6.816,2.086 -20.156,4.573 -24.525,4.573 -7.326,0 -15.653,-1.675 -21.878,-4.402 -3.889,-1.703 -8.015,-2.469 -15.767,-2.928 -5.775,-0.342 -12.975,-1.302 -16,-2.134 -3.025,-0.832 -7.525,-1.523 -10,-1.536 -2.475,-0.013 -6.975,-0.721 -10,-1.573 -3.025,-0.852 -10.664,-2.147 -16.976,-2.877 -10.989,-1.272 -11.588,-1.463 -14.142,-4.523 -2.526,-3.025 -3.164,-3.239 -12.025,-4.023 -10.764,-0.953 -17.822,-2.417 -21.959,-4.557 -1.594,-0.824 -2.898,-1.121 -2.898,-0.659 0,1.007 12.397,14.26 60.999,65.212 20.199,21.175 52.155,56.05 71.014,77.49998 18.859,21.45 38.911,43.976 44.561,50.058 5.65,6.082 12.219,13.351 14.599,16.153 8.149,9.594 38.076,42.787 40.203,44.59 1.168,0.99 15.912,15.547 32.763,32.349 l 30.64,30.548 14.385,3.651 c 15.042,3.818 18.22,5.445 21.651,11.088 1.218,2.003 4.087,4.338 7.3,5.944 3.784,1.891 6.947,4.685 11.096,9.801 3.192,3.935 7.943,8.472 10.557,10.08 2.614,1.609 7.898,6.033 11.743,9.831 5.905,5.836 7.51,8.196 10.348,15.218 3.234,8.006 3.344,8.718 2.98,19.354 -0.368,10.748 -0.455,11.108 -3.287,13.544 -1.6,1.376 -3.616,3.917 -4.48,5.646 -1.365,2.731 -2.295,3.261 -7.072,4.024 -3.025,0.484 -9.354,0.914 -14.065,0.956 l -8.565,0.077 -12.435,-7.361 c -17.026,-10.078 -22.293,-14.643 -23.948,-20.757 -1.727,-6.383 -2.583,-7.293 -6.859,-7.3 -6.317,-0.01 -10.602,-1.843 -15.744,-6.739 -7.174,-6.831 -12.314,-14.94 -18.856,-29.755 -3.85,-8.719 -7.271,-14.798 -10.385,-18.46 -9.024,-10.612 -67.838,-73.859 -90.702,-97.54 -14.641,-15.164 -40.382,-44.066 -69.916,-78.5 -39.922,-46.54698 -78.041,-89.14698 -84.215,-94.11398 -6.999,-5.631 46.327,65.269 59.88,79.61398 5.716,6.05 16.089,18.425 23.052,27.5 6.962,9.075 20.443,26.167 29.958,37.982 l 17.3,21.482 12.5,7.532 c 24.642,14.847 29.744,20.59 35.674,40.148 1.829,6.034 3.342,11.507 3.362,12.163 0.064,2.127 4.364,6.413 8.532,8.506 2.238,1.123 5.613,3.851 7.5,6.062 9.575,11.214 11.317,15.304 10.756,25.242 -0.384,6.785 -0.578,7.264 -4.401,10.829 -2.805,2.617 -5.303,3.939 -8.366,4.429 -2.401,0.384 -4.745,0.932 -5.209,1.219 -0.463,0.286 1.723,3.982 4.857,8.213 3.541,4.78 8.494,13.753 13.078,23.693 14.086,30.547 25.123,49.195 37.878,64 3.791,4.4 9.533,11.6 12.761,16 9.207,12.553 52.058,53.834 64.273,61.917 6.914,4.575 20.01,7.583 33.016,7.583 h 11.226 l 11.781,5.933 c 13.79,6.945 17.289,7.978 30.745,9.081 5.52,0.453 14.537,1.802 20.037,2.999 18.356,3.994 30.552,2.262 34.802,-4.943 0.992,-1.681 2.792,-3.567 4,-4.191 1.209,-0.625 7.503,-4.267 13.987,-8.093 14.69,-8.67 21.053,-11.27 31.211,-12.754 4.4,-0.643 9.575,-1.566 11.5,-2.051 5.041,-1.27 21.905,-2.884 41.5,-3.971 26.087,-1.447 37.251,-5.28 55.355,-19.007 4.89,-3.707 11.086,-7.555 13.768,-8.55 8.295,-3.079 15.453,-8.361 26.578,-19.613 13.802,-13.961 14.474,-16.261 15.009,-51.34 0.378,-24.774 -0.338,-27.366 -10.647,-38.562 -10.74,-11.663 -12.265,-15.682 -8.644,-22.78 4.412,-8.647 20.546,-23.182 30.081,-27.099 7.047,-2.895 7.347,-3.323 22.067,-31.453 l 14.567,-27.838 -0.743,-5.134 c -0.408,-2.824 -2.339,-9.037 -4.291,-13.807 -2.452,-5.992 -4.134,-12.492 -5.438,-21.022 -1.179,-7.708 -2.746,-14.031 -4.172,-16.827 -4.083,-8.008 -13.407,-19.08 -34.506,-40.978 -11.393,-11.825 -21.842,-23.179 -23.22,-25.23098 -2.347,-3.496 -2.471,-4.314 -1.975,-13 0.292,-5.098 1.284,-13.769 2.206,-19.269 1.871,-11.161 1.52,-23.955 -0.866,-31.586 -1.729,-5.526 -6.881,-15.923 -10.614,-21.414 -1.495,-2.2 -5.086,-8.411 -7.98,-13.801 -2.895,-5.391 -6.899,-11.979 -8.899,-14.641 -3.717,-4.947 -25.793,-26.254 -34.052,-32.866 -2.521,-2.019 -7.548,-6.262 -11.17,-9.431 l -6.586,-5.761 h -14.836 c -20.635,0 -31.126,-2.101 -60.492,-12.112 -7.098,-2.42 -10.314,-2.93 -19.5,-3.092 -6.716,-0.119 -13.003,0.336 -16.143,1.167 -4.921,1.301 -5.552,1.225 -14.582,-1.769 -9.355,-3.103 -23.547,-4.726 -31.275,-3.578 m -602.094,8.424 c -13.438,11.467 -24.124,21.923 -30.081,29.433 -5.225,6.586 -6.325,8.626 -6.325,11.724 0,2.062 -0.886,5.674 -1.969,8.026 -1.083,2.352 -3.33,7.792 -4.994,12.089 -3.383,8.734 -8.405,16.688 -10.537,16.688 -0.772,0 -2.86,2.138 -4.639,4.75 -1.779,2.612 -5.775,7.675 -8.88,11.25 -8.739,10.061 -18.302,22.89 -21.991,29.5 -1.841,3.3 -5.56,9.305 -8.263,13.344 -2.703,4.039 -6.489,10.339 -8.413,14 -1.924,3.661 -4.858,8.8 -6.52,11.42 -4.571,7.209 -9.794,23.12698 -9.794,29.84998 0,3.099 -0.675,7.548 -1.5,9.886 -0.825,2.338 -1.5,4.4 -1.5,4.582 0,0.183 3.038,-1.742 6.75,-4.277 14.504,-9.901 29.522,-26.703 37.25,-41.67298 3.88,-7.515 13.465,-19.31 20.154,-24.801 3.444,-2.827 5.659,-6.241 10.67,-16.449 3.479,-7.085 7.257,-14.682 8.397,-16.882 1.139,-2.2 6.471,-12.67 11.849,-23.266 10.237,-20.174 15.406,-28.557 22.508,-36.503 4.436,-4.964 8.422,-12.108 8.422,-15.096 0,-0.954 0.689,-3.066 1.53,-4.694 2.068,-3.999 7.673,-25.804 6.938,-26.992 -1.135,-1.838 -3.215,-0.899 -9.062,4.091 m 18.923,38.244 c -6.285,10.874 -13.115,24.78 -15.324,31.203 -3.144,9.137 -12.193,24.868 -20.429,35.513 -3.191,4.125 -7.276,10.425 -9.077,14 -1.801,3.575 -5.462,10.192 -8.137,14.705 -10.902,18.398 -13.99,24.183 -17.237,32.295 -1.871,4.675 -4.702,10.32298 -6.29,12.55098 -2.898,4.065 -12.113,12.586 -16.89,15.618 -1.405,0.892 -4.008,4.348 -5.784,7.681 -1.776,3.332 -4.49,7.092 -6.03,8.354 -3.739,3.066 -6.02,8.628 -4.041,9.852 2.136,1.32 2.055,44.32 -0.09,48.057 -0.825,1.437 -2.953,5.343 -4.728,8.678 -3.306,6.212 -6.383,9.209 -9.451,9.209 -2.04,0 -23.809,9.739 -25.433,11.378 -1.96,1.976 -5.158,8.858 -8.736,18.794 -2.225,6.18 -4.957,11.538 -7.567,14.84 -4.539,5.742 -4.703,6.231 -2.652,7.932 0.979,0.813 1.583,4.096 1.906,10.373 0.26,5.051 1.015,19.533 1.679,32.183 0.663,12.65 1.268,29.142 1.344,36.649 0.124,12.265 0.303,13.561 1.764,12.781 3.231,-1.724 7.731,-10.607 10.349,-20.43 1.874,-7.034 5.579,-15.933 12.491,-30 5.405,-11 10.83,-23.15 12.057,-27 1.226,-3.85 3.725,-9.496 5.552,-12.546 4.255,-7.103 8.718,-18.29 11.352,-28.454 2.363,-9.12 8.058,-22.645 12.632,-30 1.71,-2.75 4.782,-9.05 6.827,-14 2.045,-4.95 5.22,-11.925 7.057,-15.5 1.836,-3.575 3.677,-7.619 4.091,-8.987 0.413,-1.368 1.797,-4.068 3.075,-6 2.642,-3.995 2.608,-3.9 8.936,-25.513 2.577,-8.8 6.844,-22.075 9.484,-29.5 2.64,-7.425 5.523,-16.64898 6.407,-20.49698 2.117,-9.218 5.846,-16.933 13.791,-28.526 7.675,-11.2 12.671,-20.847 19.666,-37.977 2.808,-6.875 5.845,-13.85 6.75,-15.5 0.905,-1.65 2.662,-5.7 3.904,-9 1.242,-3.3 4.031,-10.725 6.197,-16.5 2.166,-5.775 4.725,-12.017 5.686,-13.871 1.681,-3.245 1.526,-10.179 -0.225,-10.095 -0.388,0.019 -2.582,3.281 -4.876,7.25 m 108.075,32.966 c 0.45,2.483 4.896,16.423 7.734,24.25 1.596,4.4 3.312,11.375 3.813,15.5 0.715,5.887 1.911,9.418 5.555,16.413 6.809,13.069 9.733,21.895 12.454,37.587 0.429,2.475 1.719,8.99998 2.866,14.49998 3.563,17.078 5.405,31.643 4.781,37.805 -0.323,3.193 -0.822,18.943 -1.108,35 -0.467,26.292 -0.326,30.119 1.421,38.485 1.067,5.109 2.829,11.184 3.914,13.5 1.515,3.229 2.079,7.046 2.424,16.379 0.384,10.397 0.782,12.728 2.733,16 1.256,2.107 2.863,5.856 3.571,8.331 3.547,12.398 8.87,26.054 11.995,30.771 1.92,2.899 6.546,8.749 10.279,13 3.733,4.251 8.622,10.443 10.865,13.76 4.465,6.606 15.474,17.419 20.569,20.204 2.62,1.432 5.684,1.764 16.23,1.758 17.062,-0.01 18.807,-0.679 29.282,-11.249 l 8.398,-8.474 -0.711,-7.08 c -0.708,-7.053 -3.023,-15.207 -5.609,-19.76 -0.748,-1.316 -4.649,-5.992 -8.669,-10.391 -4.731,-5.177 -8.598,-10.651 -10.964,-15.519 -2.01,-4.136 -7.449,-13.595 -12.086,-21.02 -16.704,-26.743 -20.133,-32.523 -20.137,-33.936 0,-0.789 -1.804,-3.57 -4.004,-6.179 -3.92,-4.649 -4,-4.9 -4.004,-12.564 -0.01,-12.734 -1.9,-35.441 -3.404,-40.821 -0.769,-2.75 -2.751,-10.736 -4.404,-17.747 -1.654,-7.01 -3.947,-14.69 -5.097,-17.065 -1.15,-2.376 -2.091,-5.233 -2.091,-6.349 0,-2.334 2.589,-4.945 5.5,-5.545 1.1,-0.227 1.917,-0.836 1.815,-1.353 -0.461,-2.346 -13.095,-24.67798 -18.557,-32.80098 -3.332,-4.956 -8.509,-11.29 -11.503,-14.075 -6.919,-6.437 -14.022,-16.87 -20.775,-30.516 -2.92,-5.902 -7.105,-12.805 -9.299,-15.339 -3.43,-3.964 -12.3,-16.514 -17.181,-24.31 -1.598,-2.554 -7.022,-3.499 -6.596,-1.15 m -126.404,89.88 c 0,5.438 -8.698,29.29598 -15.338,42.07498 -3.514,6.762 -6.963,14.095 -7.665,16.295 -0.701,2.2 -3.185,7.825 -5.518,12.5 -4.379,8.772 -9.772,24.985 -13.38,40.219 -1.136,4.796 -3.846,12.896 -6.023,18 -2.177,5.105 -4.939,12.881 -6.138,17.281 -2.851,10.461 -6.785,18.058 -11.912,23 -5.586,5.386 -8.735,11.177 -16.022,29.461 -3.389,8.503 -8.34,19.528 -11.004,24.5 -2.663,4.971 -5.841,12.414 -7.061,16.539 -3.321,11.225 -7.065,18.772 -12.899,26 -2.886,3.575 -6.156,8.3 -7.269,10.5 -1.112,2.2 -3.48,6.025 -5.262,8.5 -1.783,2.475 -3.558,6.3 -3.946,8.5 -0.387,2.2 -1.757,6.25 -3.043,9 -1.286,2.75 -2.654,6.688 -3.041,8.75 -0.615,3.288 -0.462,3.75 1.242,3.75 1.07,0 3.328,1.722 5.019,3.826 4.828,6.008 14.219,25.152 15.113,30.809 0.594,3.755 1.991,6.613 5.394,11.036 2.525,3.282 5.903,8.186 7.505,10.898 8.039,13.61 24.416,37.312 26.915,38.954 1.863,1.224 5.508,2.06 10.645,2.44 l 7.812,0.577 -0.645,-5.02 c -1.64,-12.76 -3.589,-18.855 -10.165,-31.787 -2.676,-5.262 -3.645,-8.707 -4.359,-15.5 -1.5,-14.25 -1.167,-37.898 0.622,-44.233 0.855,-3.025 2.385,-9.1 3.4,-13.5 1.015,-4.4 4.297,-15.425 7.292,-24.5 5.666,-17.168 9.916,-38.803 13.191,-67.16 3.198,-27.69 5.191,-36.641 16.137,-72.48 1.984,-6.495 3.403,-13.283 3.403,-16.28 0,-3.232 0.928,-7.345 2.5,-11.08 1.467,-3.486 2.509,-7.914 2.521,-10.72 0.02,-4.537 1.036,-9.829 4.277,-22.28 0.788,-3.025 1.931,-8.143 2.54,-11.373 0.704,-3.729 2.693,-8.473 5.453,-13 5.295,-8.687 9.709,-17.365 9.709,-19.089 0,-0.703 0.841,-3.924 1.868,-7.158 2.844,-8.95 3.656,-20.46598 1.708,-24.23298 -0.867,-1.676 -1.576,-3.97 -1.576,-5.097 0,-1.128 -0.45,-2.05 -1,-2.05 -0.55,0 -1,1.409 -1,3.13 m -132.765,52.11998 c -1.78,1.237 -3.124,2.888 -2.986,3.667 0.5,2.821 2.409,2.037 4.62,-1.899 1.243,-2.21 2.111,-4.018 1.931,-4.018 -0.181,0 -1.785,1.013 -3.565,2.25"
     stroke="none"
     fill="#000000"
     fill-rule="evenodd"
     id="path2" />
</svg>
