<?xml version="1.0" standalone="no"?>
<!DOCTYPE svg PUBLIC "-//W3C//DTD SVG 20010904//EN"
 "http://www.w3.org/TR/2001/REC-SVG-20010904/DTD/svg10.dtd">
<svg version="1.0" xmlns="http://www.w3.org/2000/svg"
 width="1536.000000pt" height="1485.000000pt" viewBox="0 0 1536.000000 1485.000000"
 preserveAspectRatio="xMidYMid meet">
<metadata>
Created by potrace 1.16, written by Peter Selinger 2001-2019
</metadata>
<g transform="translate(0.000000,1485.000000) scale(0.100000,-0.100000)"
fill="#000000" stroke="none">
<path d="M8144 14831 c-85 -31 -250 -120 -368 -199 l-111 -74 -100 -9 c-55 -4
-113 -8 -129 -9 -27 0 -28 -2 -22 -32 4 -18 17 -49 31 -70 l24 -36 -74 -47
c-41 -25 -109 -71 -151 -101 -62 -45 -101 -63 -212 -99 -74 -25 -138 -47 -141
-50 -2 -3 12 -23 33 -44 21 -22 33 -41 28 -45 -14 -8 -71 78 -67 101 2 10 6
39 9 66 5 37 3 47 -9 47 -8 0 -41 26 -73 58 -138 138 -301 184 -517 146 -55
-9 -111 -18 -125 -19 -21 -2 -156 -59 -169 -71 -2 -2 3 -14 11 -26 14 -21 13
-26 -9 -58 -13 -19 -27 -35 -31 -35 -4 0 -58 26 -120 58 -63 32 -120 56 -128
53 -10 -4 -14 -25 -14 -83 l0 -78 -106 103 c-58 56 -109 102 -113 102 -24 0
-55 -133 -71 -308 -11 -121 -10 -156 12 -279 l10 -62 -36 -42 c-20 -24 -36
-46 -36 -51 0 -19 -17 -5 -39 34 -30 53 -113 141 -159 170 -44 27 -52 16 -52
-71 l0 -63 -32 6 c-102 21 -235 36 -320 36 -114 0 -115 -1 -73 -96 14 -32 23
-59 20 -62 -3 -3 -45 -24 -94 -47 l-89 -43 -83 60 c-89 64 -337 192 -428 221
-155 50 -225 1 -224 -158 0 -92 28 -213 73 -312 17 -37 29 -67 28 -68 -2 -1
-55 -21 -118 -45 -162 -61 -224 -92 -309 -155 l-75 -54 -15 22 c-8 12 -16 24
-18 26 -9 12 -47 -41 -84 -118 -23 -47 -62 -110 -86 -140 -25 -30 -74 -99
-109 -153 -61 -93 -76 -108 -88 -90 -6 10 -96 2 -96 -9 0 -5 7 -26 15 -45 14
-35 14 -37 -10 -56 -35 -27 -40 -73 -17 -136 29 -76 26 -77 -192 -77 -193 0
-212 -4 -242 -50 -23 -35 -12 -79 36 -154 39 -60 39 -63 24 -87 -21 -31 -14
-103 16 -166 l21 -45 -21 -104 c-12 -57 -23 -105 -25 -107 -2 -3 -31 5 -64 16
l-61 21 0 -42 c0 -23 8 -72 19 -108 l18 -65 -57 -51 -57 -52 -139 41 c-104 30
-164 41 -235 45 l-97 6 -38 -36 -39 -35 1 -79 c0 -53 8 -97 22 -138 12 -32 22
-61 22 -62 0 -2 -33 -19 -72 -39 -129 -65 -358 -224 -358 -249 0 -20 90 -73
205 -120 l105 -42 -128 -42 c-130 -43 -187 -74 -209 -113 -42 -77 26 -184 185
-289 82 -54 81 -71 -4 -34 -59 26 -84 31 -84 17 0 -5 -33 -7 -72 -5 -61 4 -78
1 -105 -16 -47 -30 -64 -105 -44 -195 8 -31 6 -44 -10 -70 -42 -68 -9 -133
103 -208 20 -13 56 -51 81 -83 24 -33 71 -86 105 -117 l62 -57 -80 -7 c-44 -3
-80 -9 -80 -13 0 -11 42 -75 77 -118 l34 -43 -57 -92 c-31 -51 -62 -111 -68
-133 -11 -39 -14 -40 -66 -48 -30 -4 -64 -14 -77 -22 -40 -27 -27 -91 34 -172
41 -53 30 -71 -70 -120 -80 -39 -87 -45 -77 -63 6 -11 33 -37 60 -57 32 -24
48 -43 45 -53 -26 -84 -47 -191 -52 -267 -3 -51 -8 -93 -10 -93 -2 0 -25 11
-52 24 -72 37 -170 60 -198 47 -59 -27 -2 -167 102 -249 21 -17 24 -25 16 -40
-16 -30 -174 -88 -276 -102 -100 -12 -260 -62 -357 -111 -128 -64 -284 -165
-340 -219 -78 -76 -87 -124 -33 -188 25 -30 132 -91 197 -111 l36 -12 -24 -42
c-14 -26 -24 -58 -24 -83 0 -84 96 -132 285 -141 101 -5 220 8 301 32 18 6 24
1 35 -36 20 -62 52 -81 132 -80 78 0 162 27 266 82 71 38 73 39 67 16 -3 -13
-9 -64 -12 -113 -5 -64 -12 -96 -26 -113 -22 -29 -17 -52 21 -101 15 -19 33
-54 39 -77 7 -23 22 -49 35 -58 25 -17 70 -20 98 -5 14 8 44 7 102 -1 45 -7
83 -13 85 -14 1 -1 -16 -44 -37 -95 l-39 -94 -70 -12 c-38 -6 -87 -17 -108
-24 -66 -21 -225 -107 -297 -161 -55 -40 -66 -53 -57 -64 25 -30 271 -115 334
-115 50 -1 50 -11 7 -136 -38 -106 -48 -125 -96 -174 -59 -61 -111 -139 -144
-215 -21 -48 -25 -52 -120 -98 -104 -50 -165 -102 -177 -154 -4 -16 -16 -40
-27 -55 -35 -48 -4 -102 81 -139 24 -10 49 -19 55 -19 7 0 59 -23 115 -51
l104 -52 -60 -61 c-68 -69 -82 -92 -82 -134 0 -91 160 -150 377 -139 80 4 103
2 103 -8 0 -17 61 -70 108 -94 105 -53 247 -74 347 -51 35 8 47 5 110 -26 115
-56 210 -76 363 -77 105 0 132 -3 132 -14 0 -23 30 -77 54 -95 50 -41 172 -12
293 70 l63 42 -8 -32 c-4 -18 -7 -61 -7 -95 0 -52 4 -66 25 -88 23 -25 30 -27
90 -23 64 5 127 28 211 79 l36 21 94 -46 c62 -32 99 -56 110 -76 15 -24 42
-45 107 -86 2 -1 -1 -11 -7 -21 -7 -14 -6 -26 3 -44 11 -21 8 -30 -22 -76 -21
-32 -36 -69 -39 -97 -5 -40 -2 -48 24 -75 44 -43 116 -61 249 -61 295 0 504
113 696 377 49 68 72 89 126 120 37 21 80 42 97 48 16 5 35 21 42 35 7 14 23
36 37 49 22 20 35 23 133 26 171 4 333 25 333 42 0 35 -102 184 -193 280 l-30
32 27 93 c14 51 29 108 32 126 4 17 9 32 13 32 3 0 23 -43 45 -96 73 -180 204
-391 422 -679 312 -415 502 -634 866 -999 l278 -279 2 -1141 3 -1141 33 -67
c38 -77 92 -130 171 -167 l56 -26 445 0 445 0 56 26 c79 37 133 90 171 167
l33 67 3 920 2 921 38 13 c82 29 273 120 363 173 148 88 293 200 415 322 295
295 463 631 587 1178 l32 140 112 29 c292 75 541 208 783 419 l65 57 110 -5
110 -5 65 -56 c161 -141 287 -212 485 -274 112 -35 370 -77 473 -77 102 0 144
19 168 76 29 68 -17 206 -111 334 l-46 61 28 45 c32 50 74 70 126 58 17 -4 82
-10 142 -13 l110 -6 2 -60 c4 -83 32 -297 49 -373 48 -216 162 -239 340 -70
146 139 250 331 284 524 l13 70 47 17 c26 9 58 17 70 17 36 0 247 49 345 81
94 30 159 72 170 112 4 12 16 29 27 37 30 24 38 81 23 155 -8 35 -21 77 -29
94 -9 16 -16 32 -16 34 0 2 26 2 58 -1 49 -4 64 -10 106 -45 128 -106 213
-102 268 14 35 77 49 161 49 304 l0 125 32 0 c92 1 296 20 327 31 57 19 80 46
80 93 -1 23 -7 52 -15 66 -21 36 -19 40 23 40 110 0 144 93 96 258 -6 21 -3
22 42 22 70 0 116 16 149 50 24 25 29 38 28 78 0 26 -10 71 -21 101 l-21 54
51 83 c28 46 56 84 62 84 6 0 39 18 72 40 114 74 120 147 19 245 -60 59 -192
131 -305 166 -41 13 -77 24 -78 25 -2 2 9 25 25 53 20 37 32 49 43 44 8 -3 36
-8 62 -11 38 -3 57 2 100 25 64 34 189 156 246 240 163 240 204 473 141 800
l-22 112 30 78 c58 146 95 278 120 427 17 104 22 151 14 159 -15 15 -106 -12
-233 -68 -56 -25 -103 -43 -105 -41 -2 2 -14 41 -27 87 -12 46 -26 94 -30 105
-6 19 -2 22 33 28 87 14 129 86 112 193 -32 200 -208 466 -397 600 l-41 29 69
28 c74 31 81 37 73 59 -8 20 -115 96 -215 152 -173 98 -312 132 -501 122 -64
-4 -125 -10 -135 -13 -11 -4 4 14 31 38 49 44 52 46 127 50 99 6 184 46 266
127 77 75 129 150 112 161 -24 15 -145 20 -223 10 -43 -5 -106 -21 -140 -34
-45 -18 -73 -24 -102 -19 l-41 5 32 32 c18 18 37 51 43 74 11 39 14 42 46 42
60 0 135 21 145 40 21 40 -31 112 -124 172 -58 38 -60 40 -78 110 -36 144
-102 252 -224 368 -44 41 -111 96 -150 122 l-70 47 -17 78 c-10 43 -20 87 -23
98 -4 16 10 30 73 72 88 58 276 218 281 240 10 42 -425 163 -589 163 -39 0
-52 6 -97 44 -29 25 -66 54 -82 66 -16 12 -49 51 -73 88 -24 37 -68 94 -98
126 -65 71 -197 178 -210 171 -5 -4 -12 -24 -15 -46 -4 -21 -8 -39 -9 -39 -1
0 -31 13 -67 29 -35 16 -81 32 -101 36 -20 4 -37 12 -37 17 0 5 13 28 28 51
52 77 123 207 118 216 -24 38 -437 4 -593 -48 -29 -10 -53 -15 -53 -11 0 3 11
40 25 80 23 69 75 292 75 325 0 22 -47 19 -127 -7 -89 -29 -344 -156 -413
-205 l-55 -39 -75 34 c-89 40 -206 72 -267 72 -24 0 -60 7 -81 16 -20 9 -62
24 -92 34 -53 17 -56 20 -92 89 -39 76 -71 123 -127 186 -32 37 -34 38 -48 20
-19 -26 -41 -105 -56 -192 -8 -54 -16 -73 -27 -73 -8 0 -24 -3 -35 -6 -19 -5
-20 0 -21 83 -2 101 -28 193 -95 324 -52 105 -129 221 -143 216 -6 -2 -21 -20
-32 -41 l-21 -37 -5 123 c-4 81 -15 164 -33 243 -29 128 -114 366 -133 373
-31 10 -221 -246 -304 -412 -22 -44 -42 -83 -44 -85 -2 -3 -38 12 -79 33 -110
54 -215 90 -376 130 -139 34 -410 73 -429 61 -20 -12 -2 -77 55 -201 l33 -72
-85 29 c-47 16 -91 29 -98 29 -8 0 -38 30 -68 68 -142 177 -330 303 -530 353
-44 11 -48 14 -42 36 12 51 35 220 35 266 0 55 -6 57 -86 28z m-3518 -2188
c27 -9 52 -21 56 -26 3 -6 -25 -24 -67 -42 -41 -18 -100 -47 -131 -65 l-58
-32 43 48 c23 26 54 67 69 91 15 23 30 42 33 43 3 0 28 -7 55 -17z m6523 -151
c-13 -54 -15 -57 -37 -43 -11 7 -11 19 -1 70 12 61 12 62 31 44 17 -17 17 -24
7 -71z m2676 -1842 l60 -42 -83 6 c-66 5 -288 50 -300 60 -1 2 12 46 29 99
l31 96 101 -88 c56 -49 129 -108 162 -131z m245 -1208 c0 -5 -12 -14 -27 -21
l-28 -12 25 21 c29 22 30 23 30 12z m-4837 -3874 c42 -33 104 -21 161 31 19
18 30 22 33 13 10 -28 94 -131 126 -156 l36 -27 -63 -97 c-128 -197 -265 -455
-321 -604 -10 -27 -20 -48 -24 -48 -3 0 -16 17 -28 38 -25 44 -216 257 -238
265 -9 4 -15 18 -15 35 l0 29 185 5 c119 3 190 9 197 16 16 16 -36 115 -120
227 l-67 90 24 49 c19 38 25 69 29 147 l5 99 29 -48 c17 -26 40 -55 51 -64z
m1023 -288 c24 -22 49 -40 55 -40 6 0 -22 -36 -62 -80 -184 -201 -216 -288
-137 -362 36 -34 39 -30 -82 -103 -60 -35 -210 -105 -226 -105 -15 0 108 260
186 396 66 114 209 334 218 334 2 0 24 -18 48 -40z m-4451 -106 l70 -6 -3 -38
c-7 -76 88 -219 203 -305 78 -58 160 -90 288 -110 21 -3 35 -10 32 -15 -3 -5
-1 -20 6 -32 10 -19 8 -25 -15 -44 -14 -13 -26 -28 -26 -33 0 -18 81 -58 194
-97 102 -35 109 -39 123 -73 8 -20 33 -62 54 -93 l39 -58 0 -355 0 -355 -26
17 c-63 41 -578 607 -754 828 -88 111 -192 273 -246 382 -44 91 -115 292 -129
367 l-8 39 64 -7 c35 -3 96 -8 134 -12z m-3388 -282 c10 -6 6 -25 -17 -78 -16
-38 -32 -67 -37 -65 -4 2 -29 16 -55 31 l-48 27 68 45 c75 52 72 51 89 40z
m281 -79 c6 -11 6 -28 1 -42 -11 -29 -15 -26 -22 22 -6 39 6 50 21 20z m5581
-196 c29 -18 53 -21 165 -23 105 -2 140 -7 175 -22 44 -20 85 -17 114 7 7 5
59 14 117 20 58 5 152 19 209 30 58 12 106 19 108 17 2 -2 -10 -39 -25 -82
l-29 -78 -139 -27 c-222 -43 -407 -112 -671 -249 l-113 -58 0 242 c0 134 3
246 7 249 9 9 40 -1 82 -26z m590 -953 c-44 -114 -131 -278 -191 -359 -105
-141 -284 -292 -435 -369 l-53 -26 0 184 0 185 60 51 c151 125 377 277 540
364 57 30 106 54 107 52 1 -1 -11 -38 -28 -82z"/>
</g>
</svg>
