<?xml version="1.0" encoding="UTF-8" standalone="no"?>
<svg
   width="1714.2178"
   height="1728.8862"
   viewBox="0 0 1714.2178 1728.8862"
   version="1.1"
   id="svg4"
   xmlns="http://www.w3.org/2000/svg"
   xmlns:svg="http://www.w3.org/2000/svg">
  <defs
     id="defs8" />
  <path
     d="m 865.5,1.0681849 c -1.1,0.616 -4.051,2.965 -6.557,5.219 -2.507,2.255 -7.798,6.7480001 -11.758,9.9860001 -10.031,8.2 -18.19,17.125 -28.685,31.38 l -9,12.223 -4.295,0.005 c -5.002,0.006 -7.77,2.251 -11.245,9.121 -2.496,4.934 -12.103,16.565 -23.238,28.134 -7.689,7.987995 -10.403,9.246995 -13.643,6.327995 -5.1,-4.593995 -9.894,-2.246 -13.493,6.608 -1.27,3.126 -4.55,9.2 -7.288,13.499 -2.738,4.298 -6.412,10.533 -8.166,13.855 -3.37,6.388 -22.709,29.628 -26.215,31.504 -3.054,1.635 -9.732,0.185 -12.195,-2.648 -1.394,-1.604 -3.151,-2.396 -5.313,-2.396 -4.44,0 -7.623,4.043 -10.385,13.189 -2.849,9.435 -8.171,19.554 -13.08,24.872 -4.132,4.476 -3.916,4.437 -13.134,2.341 -2.06,-0.469 -3.29,-0.012 -5.25,1.947 -2.212,2.212 -2.56,3.428 -2.56,8.946 0,11.883 -4.547,25.018 -11.197,32.342 -1.664,1.833 -2.347,1.984 -4.801,1.058 -3.769,-1.423 -7.721,0.336 -8.597,3.827 -0.396,1.579 0.179,5.113 1.473,9.055 2.39,7.283 2.546,9.357 1.092,14.593 -1.558,5.608 -4.087,8.125 -8.512,8.473 -5.767,0.454 -7.509,2.846 -8.499,11.667 -0.466,4.159 -1.312,9.286 -1.879,11.392 -1.387,5.153 -6.269,12.771 -11.886,18.548 -4.069,4.185 -5.12,4.75 -8.834,4.75 -6.278,0 -8.36,3.099 -8.36,12.441 0,8.615 -2.348,16.165 -8.276,26.614 -4.187,7.381 -4.263,7.448 -8.722,7.765 -5.663,0.402 -7.784,2.306 -8.403,7.545 -2.026,17.146 -3.012,23.31 -5.062,31.635 -2.644,10.734 -6.614,20.389 -9.762,23.74 -1.443,1.536 -3.278,2.26 -5.727,2.26 -8.223,0 -10.353,4.897 -6.413,14.746 3.902,9.752 5.342,18.667 6.019,37.254 0.733,20.141 -0.026,24.009 -5.067,25.832 -4.633,1.676 -5.627,4.888 -3.913,12.651 2.947,13.352 3.326,16.135 3.315,24.403 -0.016,12.233 -0.742,15.68 -3.575,16.971 -4.017,1.831 -4.104,5.551 -0.301,13.005 3.103,6.082 3.379,7.35 3.287,15.138 -0.054,4.675 -0.223,9.743 -0.375,11.262 -0.169,1.699 0.773,4.346 2.449,6.878 3.732,5.639 6.842,16.87 5.07,18.308 -2.086,1.692 -2.586,7.122 -1.082,11.756 3.486,10.748 9.73,25.434 11.393,26.796 1.007,0.825 3.08,5.1 4.605,9.5 6.686,19.282 24.566,47.912 38.096,61 3.412,3.3 11.839,12.576 18.727,20.614 l 12.525,14.614 -13.154,-0.31 c -11.641,-0.274 -30.099,-2.724 -40.654,-5.396 -1.925,-0.488 -9.23,-1.667 -16.233,-2.62 -11.561,-1.574 -15.934,-1.625 -47.5,-0.553 -42.271,1.435 -72.002,3.863 -113.267,9.249 -44.419,5.799 -56.866,7.005 -80.5,7.806 -13.75,0.465 -29.725,0.469 -35.5,0.009 -5.775,-0.461 -24.675,-1.758 -42,-2.883 -67.47,-4.381 -111.658,-8.529 -143.5,-13.471 -8.25,-1.281 -19.05,-2.873 -24,-3.538 -4.95,-0.665 -13.275,-2.271 -18.5,-3.568 -11.566,-2.871 -26.069,-5.453 -30.631,-5.453 H 0 v 19.816 19.815 l 15.75,2.181 c 8.663,1.2 22.05,2.864 29.75,3.698 15.94,1.726 22.682,2.738 55.5,8.331 42.515,7.246 76.866,9.943 138.223,10.852 59.007,0.875 97.322,-1.452 150.777,-9.158 12.925,-1.863 29.35,-4.098 36.5,-4.965 7.15,-0.868 18.175,-2.236 24.5,-3.04 25.636,-3.257 39.316,-4.528 55.554,-5.162 22.375,-0.873 52.079,1.027 67.446,4.315 6.325,1.353 13.975,2.871 17,3.373 9.317,1.547 14.354,2.747 17.978,4.282 l 3.479,1.473 -5.979,1.774 c -8.123,2.41 -15.805,2.305 -29.749,-0.405 -10.745,-2.089 -12.768,-2.195 -23.229,-1.222 -19.757,1.839 -41.792,8.687 -69.488,21.597 -6.868,3.201 -15.418,7.472 -19,9.49 -3.582,2.019 -9.544,5.328 -13.25,7.355 -3.706,2.026 -8.881,5.474 -11.5,7.661 -2.619,2.187 -6.639,5.543 -8.933,7.458 -4.895,4.087 -6.425,8.612 -3.868,11.438 1.114,1.231 3.82,2.053 8.344,2.533 8.248,0.877 28.449,6.591 34.957,9.889 4.156,2.106 7.053,4.831 14.748,13.871 0.82,0.963 2.87,1.75 4.558,1.75 1.687,0 7.996,1.194 14.018,2.654 12.239,2.966 12.409,3.207 7.195,10.164 -6.352,8.476 -20.502,15.519 -53.32,26.542 -28.194,9.469 -38.219,11.97 -54.368,13.561 -5.998,0.592 -13.351,1.846 -16.338,2.788 -5.792,1.825 -6.738,2.738 -14.515,13.994 -2.617,3.789 -6.819,8.611 -9.336,10.715 -7.775,6.5 -21.315,14.43802 -28.66,16.80402 -8.463,2.725 -10.276,4.84 -14.335,16.713 -3.114,9.108 -17.789,36.525 -25.193,47.065 -6.233,8.875 -26.461,32.238 -31.01,35.818 -2.039,1.604 -5.612,3.882 -7.941,5.062 -5.849,2.963 -7.166,5.461 -8.851,16.789 -1.772,11.908 -4.851,18.502 -16.966,36.331 -14.275,21.009 -19.767,33.325 -27.202,61 -3.332,12.402 -3.613,14.503 -3.452,25.828 0.217,15.297 -0.492,17.594 -13.351,43.286 -10.165,20.308 -10.638,22.401 -5.786,25.581 2.2,1.441 3.087,1.437 10.127,-0.046 23.711,-4.994 47.941,-7.033 51.617,-4.345 3.534,2.584 3.78,9.621 1.106,31.626 -5.749,47.31 -6.067,52.486 -4.044,65.879 2.539,16.812 6.863,22.283 13.471,17.045 1.633,-1.295 5.067,-3.929 7.63,-5.854 2.562,-1.925 7.053,-5.412 9.979,-7.749 7.97,-6.366 21.251,-14.135 27.041,-15.818 6.596,-1.918 15.083,-3.432 24.014,-4.284 7.01,-0.669 7.204,-0.767 15.674,-7.9 4.718,-3.972 11.424,-10.406 14.903,-14.297 3.479,-3.891 9.925,-9.855 14.325,-13.253 17.714,-13.679 35.107,-30.637 49.437,-48.199 10.103,-12.382 30.553,-39.719 37.03,-49.5 7.049,-10.644 25.63,-29.786 38.034,-39.18 7.199,-5.452 14.804,-9.779 19.905,-11.325 l 2.405,-0.729 -0.588,8.867 c -0.654,9.866 -3.909,20.944 -10.684,36.367 -18.196,41.427 -26.458,63.644 -35.511,95.5 -5.31,18.684 -6.719,25.153 -8.048,36.929 -0.368,3.261 -1.266,6.861 -1.996,8 -0.73,1.139 -2.9,6.571 -4.821,12.071 -1.922,5.5 -4.872,13.3 -6.556,17.333 -1.684,4.034 -6.046,15.959 -9.693,26.5 -12.151,35.121 -18.615,49.169 -31.078,67.536 -3.497,5.153 -6.626,10.438 -6.954,11.745 -0.422,1.683 0.363,3.872 2.693,7.502 l 3.288,5.126 -1.048,7.276 c -0.619,4.297 -2.331,9.909 -4.181,13.708 -3.77,7.737 -3.852,9.777 -0.656,16.274 3.929,7.987 2.823,21.003 -2.877,33.874 -4.528,10.227 -3.509,13.009 7.401,20.196 7.468,4.92 14.308,11.379 16.575,15.65 2.386,4.495 2.936,16.505 1.053,22.982 -2.149,7.391 -2.062,11.097 0.312,13.245 2.199,1.991 3.207,2.058 15.193,1.02 l 8.635,-0.748 1.826,2.788 c 1.235,1.884 1.839,4.712 1.865,8.728 0.033,5.012 0.409,6.241 2.4,7.853 1.298,1.052 3.575,1.912 5.059,1.912 3.514,0 5.453,1.619 7.647,6.385 1.889,4.102 9.212,9.615 12.774,9.615 4.431,0 17.143,-7.462 28.193,-16.549 10.671,-8.776 16.73,-13.069 30.218,-21.413 6.176,-3.821 12.216,-10.306 20.524,-22.038 11.848,-16.731 27.158,-34.1 35.062,-39.776 l 4.335,-3.114 3.499,4.695 c 1.924,2.582 4.564,6.495 5.866,8.695 1.302,2.2 4.908,6.7 8.012,10 3.104,3.3 7.802,8.7 10.441,12 4.309,5.389 20.235,23.037 24.803,27.484 0.987,0.961 2.856,3.186 4.153,4.944 5.022,6.807 19.982,22.048 23.089,23.522 5.243,2.488 7.213,1.926 13.288,-3.791 3.122,-2.938 11.91,-9.913 19.529,-15.5 11.796,-8.651 14.414,-10.159 17.639,-10.159 5.024,0 7.355,-2.224 9.957,-9.5 2.996,-8.376 8.027,-15.345 15.786,-21.866 5.096,-4.283 7.163,-5.447 8.901,-5.011 3.709,0.931 6.75,-3.214 10.187,-13.889 3.14,-9.754 8.618,-21.45 11.889,-25.384 0.984,-1.183 4.337,-3.76 7.452,-5.726 5.566,-3.513 5.692,-3.698 7.25,-10.547 0.872,-3.835 1.586,-8.95 1.586,-11.368 0,-5.166 2.658,-13.345 7.566,-23.277 2.274,-4.603 3.843,-9.578 4.425,-14.032 2.416,-18.493 6.328,-29.315 12.413,-34.33 1.998,-1.647 1.757,-4.973 -1.569,-21.57 -2.359,-11.774 -2.064,-15.335 1.92,-23.175 3.327,-6.546 3.195,-7.709 -1.665,-14.661 -2.457,-3.515 -3.097,-5.801 -4.107,-14.664 -0.658,-5.775 -2.471,-17.7 -4.029,-26.5 -1.558,-8.8 -5.334,-31.075 -8.391,-49.5 -7.681,-46.287 -18.681,-93.081 -30.207,-128.5 -3.972,-12.203 -18.618,-49.29 -25.821,-65.379 -19.029,-42.511 -38.671,-126.635 -36.051,-154.401 0.811,-8.587 4.164,-20.09202 9.205,-31.58002 l 3.668,-8.36 4.831,0.464 c 2.658,0.255 5.694,1.244 6.746,2.197 3.952,3.576 7.736,15.802 18.127,58.55902 1.003,4.125 3.659,13.8 5.904,21.5 2.245,7.7 6.126,21.425 8.625,30.5 2.499,9.075 5.837,21 7.418,26.5 3.895,13.554 12.171,49.755 15.431,67.5 1.465,7.975 4.66,23.725 7.099,35 2.44,11.275 6.916,34 9.948,50.5 3.031,16.5 7.098,37.65 9.038,47 7.174,34.59 13.725,67.522 17.106,86 1.912,10.45 5.284,28.348 7.493,39.773 4.246,21.964 4.182,20.384 1.688,41.936 -1.267,10.947 -0.651,12.791 4.276,12.791 3.751,0 4.788,2.139 5.942,12.251 0.573,5.03 1.635,9.186 2.741,10.73 0.993,1.385 3.095,5.669 4.672,9.519 1.577,3.85 3.651,8.8 4.609,11 0.958,2.2 2.951,6.925 4.43,10.5 1.478,3.575 4.525,9.875 6.772,14 3.124,5.737 4.375,9.464 5.323,15.857 1.371,9.25 2.203,10.643 6.361,10.643 2.477,0 3.749,1.329 10.046,10.5 12.21,17.783 13.64,20.271 15.832,27.552 1.86,6.18 2.632,7.385 6.243,9.75 2.348,1.537 5.525,2.698 7.383,2.698 2.163,0 5.472,1.451 9.819,4.306 6.036,3.965 12.881,6.761 20.118,8.217 1.583,0.319 5.408,2.974 8.5,5.901 8.609,8.148 9.885,8.576 25.571,8.576 h 13.549 l 4.251,4.159 c 6.138,6.006 15.319,12.59 18.504,13.27 1.511,0.322 5.772,0.215 9.47,-0.239 7.614,-0.935 12.273,0.498 23.085,7.102 7.844,4.791 18.252,8.396 29.692,10.282 16.482,2.718 17.813,2.779 20.613,0.944 5.456,-3.575 8.798,-17.094 9.893,-40.018 0.678,-14.202 2.775,-24.562 9.068,-44.802 2.917,-9.381 3.162,-20.486 0.886,-40.198 -0.826,-7.15 -1.755,-15.925 -2.066,-19.5 l -0.565,-6.5 3.738,4.5 c 7.768,9.351 20.536,20.772 31.719,28.372 13.319,9.052 19.262,11.008 38.416,12.643 8.202,0.7 12.085,1.495 14.5,2.967 1.814,1.106 4.144,2.012 5.177,2.014 1.034,0 4.543,-2.668 7.8,-5.935 7.122,-7.145 10.688,-8.539 21.821,-8.535 11.605,0 15.425,0.917 16.839,4.02 2.689,5.902 10.167,4.784 12.547,-1.876 6.885,-19.266 12.514,-39.351 15.792,-56.344 l 2.155,-11.174 -2.169,-13.326 c -2.576,-15.833 -2.721,-23.886 -0.58,-32.151 1.85,-7.14 1.513,-10.608 -1.971,-20.273 -1.852,-5.137 -2.742,-10.113 -3.222,-18.015 -0.636,-10.47 -0.555,-11.129 1.973,-16.119 3.718,-7.336 3.438,-9.235 -2.333,-15.83 -7.693,-8.791 -9.42,-13.117 -8.591,-21.524 l 0.685,-6.949 -4.598,-5.232 c -6.294,-7.165 -10.27,-15.314 -8.698,-17.83 2.405,-3.851 1.256,-8.375 -5.579,-21.974 -13.127,-26.116 -30.473,-56.648 -37.584,-66.152 -6.498,-8.687 -32.005,-36.197 -51.593,-55.645 -23.51,-23.343 -63.056,-57.931 -86.573,-75.719 -21.189,-16.027 -76.68,-53.695 -137.224,-93.149 -52.946,-34.502 -106.899,-82.28602 -140.108,-124.08602 -9.046,-11.385 -11.305,-15.29 -14.811,-25.597 -2.6,-7.646 -2.451,-8.052 3.366,-9.173 8.373,-1.613 35.069,8.224 74.333,27.391 12.344,6.026 32.344,15.772 44.444,21.658 21.997,10.701 65.802,34.007 79,42.032 3.85,2.341 13.456,7.934 21.346,12.429 7.891,4.494 19.591,11.675 26,15.95702 6.41,4.282 15.029,9.729 19.154,12.105 14.626,8.424 44.642,28.882 54.5,37.146 16.009,13.42 55.582,44.104 74,57.378 6.05,4.36 17.576,12.668 25.614,18.462 8.037,5.794 23.337,17.077 34,25.075 19.257,14.443 52.013,36.44 67.444,45.291 24.743,14.192 61.26,28.668 72.316,28.668 2.24,0 4.349,0.801 5.868,2.227 2.929,2.752 8.257,2.898 13.484,0.37 3.952,-1.911 4.8,-1.893 21.375,0.471 10.704,1.527 13.798,0.72 17.912,-4.673 2.514,-3.297 2.793,-3.395 9.676,-3.395 3.898,0 12.088,0.513 18.199,1.14 15.189,1.557 17.327,0.581 25.112,-11.467 0.902,-1.395 1.837,-1.396 9.5,-0.013 12.095,2.184 27.455,0.653 35.821,-3.57 7.716,-3.895 16.033,-11.591 19.721,-18.251 2.933,-5.293 2.956,-5.459 2.674,-19.339 -0.624,-30.761 5.364,-48.277 21.296,-62.302 8.039,-7.076 12.359,-8.548 25.325,-8.628 11.281,-0.07 11.348,-0.084 13.878,-3.025 2.37,-2.756 2.505,-3.46 1.98,-10.389 -0.544,-7.205 -0.458,-7.587 2.824,-12.46 1.862,-2.765 5.545,-6.641 8.183,-8.612 4.155,-3.104 5.769,-5.503 12.048,-17.908 8.189,-16.18 8.85,-19.673 4.786,-25.278 -4.934,-6.804 -8.517,-13.453 -8.527,-15.819 -0.014,-3.7 -7.161,-9.75302 -20.071,-16.99902 -16.324,-9.163 -19.353,-11.417 -23.924,-17.801 -3.918,-5.471 -4.044,-5.888 -3.43,-11.32 0.601,-5.31 0.478,-5.765 -2.108,-7.799 -1.51,-1.188 -3.461,-2.16 -4.334,-2.16 -2.713,0 -41.84,-13.942 -58.142,-20.718 -22.151,-9.206 -33.19,-15.899 -46,-27.889 -3.025,-2.832 -7.727,-6.269 -10.45,-7.64 -4.005,-2.016 -4.577,-2.602 -3,-3.07 3.653,-1.085 13.929,-2.582 24.986,-3.64 27.949,-2.674 46.648,-5.99 68.423,-12.134 31.459,-8.875 65.12,-19.868 72.737,-23.754 2.125,-1.084 6.428,-2.717 9.562,-3.628 10.345,-3.007 12.096,-8.815 6.711,-22.264 -4.83,-12.062 -4.916,-16.918 -0.532,-30.075 3.846,-11.541 6.537,-16.184 9.386,-16.194 0.922,-0.003 3.364,-0.474 5.425,-1.046 4.598,-1.277 6.249,-4.212 7.086,-12.593 0.337,-3.38 1.121,-7.205 1.741,-8.5 0.62,-1.295 6.508,-7.08 13.084,-12.855 12.903,-11.332 14.177,-12.9 14.051,-17.308 -0.141,-4.978 -5.285,-8.755 -18.822,-13.82 -3.547,-1.327 -7.19,-3.693 -9.772,-6.347 -2.693,-2.768 -8.61,-6.539 -17.116,-10.909 -20.979,-10.777 -26.654,-15.883 -28.507,-25.652 -0.559,-2.948 -1.912,-6.313 -3.006,-7.478 -1.095,-1.165 -7.052,-4.299 -13.239,-6.965 -11.825,-5.094 -24.43,-12.528 -25.362,-14.957 -0.303,-0.79 0.656,-4.932 2.131,-9.205 2.202,-6.38 2.614,-9.092 2.307,-15.172 -0.318,-6.3 -0.722,-7.686 -2.71,-9.296 -3.418,-2.768 -7.975,-2.329 -16.26,1.566 -4.907,2.307 -11.68,4.298 -20.354,5.984 -7.15,1.39 -17.95,4.072 -24,5.96 -6.05,1.888 -14.488,4.235 -18.75,5.216 -7.703,1.773 -7.797,1.77 -15.5,-0.485 -6.469,-1.893 -8.413,-2.986 -11.758,-6.609 -6.431,-6.967 -9.503,-7.045 -40.992,-1.052 -9.9,1.885 -21.825,3.921 -26.5,4.525 -16.45,2.126 -26.664,4.144 -43.5,8.594 -25.548,6.753 -63.657,19.074 -75.5,24.411 -5.775,2.602 -17.658,7.97 -26.406,11.928 -13.26,6 -18.917,7.924 -34,11.562 -9.952,2.401 -25.76,6.825 -35.13,9.831 -9.37,3.005 -26.245,7.595 -37.5,10.199 -21.976,5.083 -45.773,11.936 -63.464,18.275 -6.05,2.168 -15.275,4.94 -20.5,6.159 -5.225,1.22 -13.721,3.568 -18.879,5.219 -10.261,3.285 -54.27,13.553 -74.121,17.295 -6.875,1.296 -14.584,2.835 -17.131,3.421 -11.982,2.756 -65.092,11.133 -76.531,12.072 -7.061,0.579 -14.638,1.318 -16.838,1.642 -4.716,0.695 -24.903,5.839 -28.945,7.375 -1.545,0.587 -6.113,1.347 -10.152,1.689 l -7.343,0.62 -1.121,-2.894 c -2.859,-7.378 1.449,-17.967 9.587,-23.567 11.885,-8.179 44.148,-20.341 76.464,-28.824 8.287,-2.176 18.14,-5.305 21.897,-6.953 8.437,-3.703 44.301,-16.683 67.613,-24.471 15.874,-5.302 33.793,-12.126 50,-19.04 8.25,-3.519 22.257,-9.322 31.127,-12.896 8.869,-3.575 21.606,-9.006 28.304,-12.071 6.698,-3.065 12.463,-5.572 12.811,-5.572 0.348,0 6.286,-2.685 13.196,-5.966 22.38,-10.628 52.281,-24.162 64.062,-28.996 6.325,-2.596 13.525,-5.763 16,-7.038 2.475,-1.276 6.75,-3.263 9.5,-4.415 5.044,-2.114 11.433,-5.504 37,-19.629 7.7,-4.254 21.65,-11.44 31,-15.969 9.35,-4.529 20.238,-10.236 24.196,-12.681 8.383,-5.179 20.878,-10.627 30.473,-13.285 3.715,-1.03 8.832,-3.302 11.371,-5.049 2.539,-1.746 7.356,-4.289 10.704,-5.649 6.919,-2.812 15.336,-7.995 18.173,-11.19 2.372,-2.672 2.477,-7.487 0.218,-9.984 -1.621,-1.791 -1.421,-2.183 4.378,-8.583 3.343,-3.688 8.262,-8.645 10.931,-11.017 6.255,-5.555 22.13,-16.58 28.556,-19.833 11.323,-5.73 18.325,-13.161 21.104,-22.397 1.778,-5.905 11.086,-18.965 20.58,-28.874 8.606,-8.983 9.807,-11.274 9.836,-18.76 0.011,-2.852 0.475,-8.335 1.031,-12.185 1.637,-11.334 9.08,-22.737 32.949,-50.479 15.774,-18.333 18.24,-21.487 21.392,-27.362 4.7,-8.76 1.604,-14.298 -6.499,-11.624 -6.022,1.988 -24.012,-1.147 -30.891,-5.381 -5.153,-3.172 -17.244,-8.614 -19.186,-8.636 -0.926,-0.01 -7.293,1.28 -14.149,2.866 -18.905,4.375 -21.163,3.413 -35.509,-15.129 -4.7,-6.074 -9.545,-8.755 -15.82,-8.755 -8.724,0 -27.288,7.479 -63.433,25.554 -24.842,12.423 -33.031,17.093 -52.379,29.87 -17.824,11.771 -19.499,10.982 -12.48,-5.88 3.864,-9.282 16.16,-30.059 22.594,-38.177 2.673,-3.374 10.063,-11.924 16.421,-19 19.808,-22.045 26.139,-31.788 30.461,-46.884 2.679,-9.359 11.754,-26.156 19.17,-35.483 16.431,-20.665 24.345,-39.654 21.203,-50.875 -0.698,-2.493 -2.801,-6.229 -4.674,-8.302 -4.979,-5.511995 -5.277,-9.872995 -1.266,-18.574995 4.129,-8.958 3.902,-12.773 -0.955,-16.034 -5.75,-3.861 -9.724,-13.281 -11.06,-26.214 -1.385,-13.414 -2.848,-21.947 -4.207,-24.539 -2.98,-5.6880001 -12.325,-9.4690001 -15.516,-6.2780001 -0.65,0.65 -3.163,1.2660001 -5.585,1.3680001 -2.984,0.125 -7.903,1.873 -15.267,5.422 -12.773,6.157 -26.435,11.027 -30.934,11.027 -1.956,0 -8.765,2.774 -17.562,7.156 -14.561,7.251 -23.27,9.77 -26.957,7.797 -3.043,-1.629 -17.792,-4.2 -20.374,-3.552 -1.628,0.409 -4.211,3.142 -7.429,7.863 -2.713,3.98 -6.278,8.677 -7.922,10.439 -2.613,2.801 -3.473,3.14 -6.838,2.696 -10.05,-1.324 -9.845,-1.218 -15.198,-7.898 -3.044,-3.799 -6.247,-6.738 -7.756,-7.117 -3.473,-0.871 -7.356,2.14 -9.043,7.013 -1.965,5.677 -15.717,26.079 -22.188,32.918 -3.115,3.293 -8.339,7.971 -11.608,10.397 l -5.944,4.411 -10.596,-0.311 c -15.964,-0.47 -17.83,1.329995 -23.021,22.208995 -4.786,19.246 -7.732,25.046 -22.646,44.578 -32.856,43.028 -53.551,73.284 -62.532,91.423 -3.125,6.313 -13.318,27.068 -22.65,46.123 -17.48,35.693 -22.776,44.953 -41.374,72.355 -15.603,22.988 -23.094,33.064 -42.678,57.398 -25.038,31.111 -33.357,42.275 -54.101,72.602 -23.619,34.531 -47.343,75.084 -68.449,117.004 -9.773,19.412 -24.884,44.619 -25.353,42.292 -0.492,-2.444 6.512,-24.099 11.725,-36.247 4.701,-10.955 17.42,-34.652 33.575,-62.549 3.981,-6.875 9.384,-16.325 12.006,-21 7.382,-13.161 26.986,-43.784 40.034,-62.535 6.494,-9.331 14.954,-21.69 18.801,-27.465 29.334,-44.035 47.751,-69.752 61.743,-86.218 8.072,-9.499 12.024,-16.18 17.911,-30.282 2.296,-5.5 8.133,-18.78 12.971,-29.511 14.534,-32.236 17.758,-43.099 18.737,-63.131 0.451,-9.228 0.196,-13.227 -1.229,-19.279 -1.732,-7.354 -1.732,-7.865 0.01,-13.857 0.992,-3.422 2.831,-9.942 4.086,-14.489 1.255,-4.546 4.077,-12.871 6.271,-18.5 4.528,-11.617 7.15,-23.063 7.15,-31.212 0,-5.742 7.356,-53.609995 9.086,-59.126995 1.324,-4.221 -0.267,-8.15 -3.643,-8.998 -2.078,-0.521 -3.839,0.195 -8.416,3.422 -15.178,10.704 -78.706,44.750995 -94.865,50.841995 -3.485,1.314 -8.161,3.319 -10.389,4.456 -4.024,2.053 -4.069,2.054 -6.662,0.118 -2.759,-2.06 -5.556,-8.58 -9.111,-21.234 -1.159,-4.125 -2.814,-9.075 -3.677,-11 -2.034,-4.539 -7.139,-24.290995 -8.892,-34.405995 -0.99,-5.715 -1.095,-9.13 -0.38,-12.322 1.281,-5.716 -0.352,-9.376 -4.834,-10.829 -3.457,-1.122 -5.471,-3.359 -6.7,-7.443 -0.414,-1.375 -2.262,-5.538 -4.108,-9.251 -1.845,-3.713 -4.082,-9.563 -4.971,-13 -0.889,-3.437 -2.119,-6.856 -2.733,-7.599 -0.613,-0.742 -0.992,-3.0570001 -0.841,-5.1450001 0.217,-3.006 -0.203,-4.129 -2.018,-5.4 -2.679,-1.87699999 -3.639,-1.94099999 -6.346,-0.423"
     stroke="none"
     fill="#000000"
     fill-rule="evenodd"
     id="path2" />
</svg>
