<?xml version="1.0" standalone="no"?>
<!DOCTYPE svg PUBLIC "-//W3C//DTD SVG 20010904//EN"
 "http://www.w3.org/TR/2001/REC-SVG-20010904/DTD/svg10.dtd">
<svg version="1.0" xmlns="http://www.w3.org/2000/svg"
 width="1271.000000pt" height="1536.000000pt" viewBox="0 0 1271.000000 1536.000000"
 preserveAspectRatio="xMidYMid meet">
<metadata>
Created by potrace 1.16, written by Peter Selinger 2001-2019
</metadata>
<g transform="translate(0.000000,1536.000000) scale(0.100000,-0.100000)"
fill="#000000" stroke="none">
<path d="M7238 15349 c-135 -18 -234 -71 -379 -208 -113 -105 -154 -166 -178
-265 -11 -43 -25 -84 -31 -90 -6 -6 -34 -15 -63 -21 -47 -9 -54 -14 -73 -50
-26 -52 -56 -65 -168 -75 -152 -13 -245 -78 -307 -216 -67 -146 -73 -257 -21
-368 33 -70 174 -284 220 -333 50 -54 211 -122 376 -158 155 -34 154 -54 -14
-479 -212 -538 -284 -805 -310 -1144 -6 -75 -25 -265 -42 -422 -30 -266 -32
-307 -31 -610 3 -687 39 -1193 153 -2109 27 -223 50 -425 50 -451 0 -74 -53
-144 -190 -250 -54 -42 -54 -42 -61 -19 -3 13 -9 96 -12 184 -15 364 -78 729
-188 1080 -126 402 -357 862 -607 1208 -50 71 -92 132 -92 135 0 4 12 43 26
87 38 117 44 277 15 373 -11 39 -21 80 -21 91 0 42 39 97 134 189 53 51 112
117 131 145 83 126 85 318 5 480 -66 135 -265 365 -449 519 -243 203 -549 369
-837 453 -233 67 -778 135 -1094 135 -460 0 -761 -156 -915 -473 -62 -129 -92
-243 -105 -396 -18 -205 9 -422 73 -592 51 -134 145 -300 231 -404 128 -156
417 -439 531 -521 180 -128 438 -225 822 -308 296 -65 426 -81 648 -80 184 0
208 3 298 27 54 14 146 49 204 77 58 27 109 50 114 50 13 0 226 -278 320 -418
105 -158 174 -295 265 -527 131 -335 158 -441 228 -885 65 -414 96 -727 82
-821 -5 -37 -28 -77 -104 -186 -54 -77 -128 -191 -165 -254 -88 -147 -103
-166 -125 -152 -44 27 -339 500 -423 678 -60 127 -65 158 -38 209 11 21 27 71
34 111 32 164 64 199 183 197 95 -2 152 22 236 99 76 69 129 151 151 233 47
174 -19 478 -154 710 -42 74 -162 200 -258 272 -170 128 -409 255 -568 302
-148 44 -245 55 -465 49 -208 -6 -275 -15 -393 -56 -164 -57 -284 -159 -355
-302 -58 -117 -66 -165 -59 -349 13 -373 118 -719 288 -950 168 -228 446 -463
638 -538 60 -23 79 -26 216 -26 129 -1 161 2 228 22 43 13 86 20 97 17 11 -4
32 -30 46 -58 42 -83 91 -162 195 -312 113 -164 214 -322 292 -456 l55 -97
-34 -108 c-42 -136 -140 -517 -153 -603 -6 -36 -15 -69 -20 -74 -15 -15 -69
25 -184 132 -238 221 -478 378 -991 647 -103 54 -199 109 -213 122 -28 25 -28
38 -3 184 30 177 -51 380 -219 549 -134 134 -234 179 -399 179 -126 0 -203
-18 -465 -109 -118 -41 -170 -50 -182 -30 -13 20 26 47 168 117 216 108 303
196 314 321 7 78 -9 121 -63 171 -58 53 -133 86 -263 116 -315 71 -643 48
-1081 -77 -423 -120 -915 -413 -1222 -725 -281 -287 -427 -515 -491 -764 -18
-70 -21 -113 -21 -245 0 -138 4 -176 28 -280 64 -275 183 -491 334 -606 312
-237 1002 -350 1507 -248 444 90 1084 385 1425 658 117 93 270 253 371 387
141 186 117 175 246 120 132 -57 419 -209 529 -281 204 -132 425 -315 613
-505 200 -202 179 -152 191 -456 12 -309 25 -469 51 -664 29 -214 33 -250 24
-250 -5 0 -34 25 -66 55 -69 66 -89 70 -89 19 0 -70 176 -559 261 -726 11 -22
19 -42 17 -44 -2 -2 -33 22 -68 53 -113 98 -174 127 -204 98 -14 -14 -12 -24
16 -103 53 -153 158 -379 208 -449 59 -85 400 -419 728 -714 38 -34 62 -64 62
-77 0 -11 -15 -56 -32 -99 -33 -80 -34 -85 -38 -326 0 -4 -17 -15 -37 -24 -31
-12 -61 -14 -153 -10 -118 6 -160 15 -315 62 -67 21 -113 28 -181 29 -84 1
-93 -1 -125 -26 -20 -14 -59 -61 -89 -105 -76 -111 -122 -156 -234 -226 -55
-34 -117 -78 -139 -99 -33 -32 -38 -41 -35 -75 l3 -38 56 2 c135 6 430 86 465
125 31 34 32 37 45 139 15 126 19 133 78 126 25 -3 102 -27 171 -53 l125 -47
220 -9 c121 -6 224 -13 229 -18 15 -15 -3 -76 -32 -103 -18 -17 -47 -30 -80
-37 -28 -5 -62 -16 -74 -24 -13 -8 -75 -31 -138 -51 -235 -75 -203 -54 -304
-200 -186 -269 -241 -301 -585 -340 -168 -18 -206 -32 -301 -110 -48 -38 -74
-68 -90 -102 -12 -26 -29 -63 -38 -81 -13 -25 -14 -36 -5 -50 18 -28 55 -17
141 42 95 64 167 89 324 111 273 38 314 46 374 74 77 36 123 78 232 209 136
163 189 194 447 256 230 56 269 71 307 117 l33 40 55 -41 c30 -23 82 -57 115
-77 143 -86 149 -115 56 -273 -57 -96 -135 -177 -239 -248 -166 -115 -197
-165 -235 -395 -27 -157 -22 -145 -119 -290 -102 -151 -124 -377 -53 -534 35
-78 76 -80 131 -8 26 35 27 38 19 123 -22 221 -12 257 112 393 42 46 84 102
94 124 9 22 24 88 33 146 9 59 20 119 26 135 16 42 55 80 134 131 147 95 244
214 355 432 l71 139 76 -15 c223 -42 334 -143 334 -305 0 -38 -7 -112 -15
-164 -23 -138 -15 -162 82 -282 33 -40 81 -112 106 -161 56 -106 68 -118 102
-103 27 12 41 54 51 148 7 70 1 87 -80 203 l-51 73 0 207 c0 224 -5 245 -69
354 -60 103 -226 218 -335 232 -113 15 -119 23 -101 139 14 96 9 116 -68 250
-46 80 -70 141 -60 151 2 2 51 -5 108 -16 156 -30 462 -37 644 -14 76 9 149
14 162 11 14 -4 35 -25 51 -54 24 -39 28 -58 28 -117 -1 -82 -23 -140 -87
-222 l-40 -53 -9 -119 c-7 -107 -33 -250 -73 -398 -8 -28 -11 -54 -8 -57 14
-15 73 -3 114 23 72 45 108 142 108 290 1 98 15 144 76 246 84 141 96 180 102
322 2 67 1 143 -2 168 -9 60 -52 109 -108 125 -26 7 -173 15 -363 20 -414 12
-508 24 -630 81 -78 36 -154 111 -231 229 -75 116 -91 162 -74 215 19 56 132
220 285 410 259 321 275 353 365 750 28 121 68 287 91 368 22 81 39 153 37
159 -3 7 -25 -7 -51 -32 -26 -23 -50 -40 -54 -37 -14 15 335 453 616 772 150
171 185 223 172 258 -19 50 -82 62 -134 25 -120 -85 -337 -317 -507 -543 -134
-178 -206 -258 -327 -363 -49 -43 -86 -86 -115 -135 -35 -59 -43 -68 -46 -49
-4 27 7 66 143 492 189 591 260 852 375 1379 33 151 64 279 70 285 6 6 58 -23
154 -88 80 -53 169 -107 198 -121 179 -81 591 -145 850 -131 315 16 629 94
760 189 241 173 471 559 598 999 47 166 63 291 50 407 -21 186 -119 562 -212
811 -170 458 -385 734 -662 849 -148 62 -215 74 -386 74 -135 0 -167 -3 -250
-26 -53 -14 -133 -41 -178 -61 -156 -65 -227 -118 -270 -200 -23 -44 -27 -62
-26 -136 0 -74 5 -98 37 -179 21 -52 36 -99 34 -105 -2 -6 -36 54 -76 134 -41
79 -96 184 -123 234 -40 74 -49 98 -45 127 13 102 305 711 567 1184 181 326
315 587 385 750 26 61 63 140 82 178 42 79 30 77 238 47 200 -29 616 -44 807
-31 303 21 817 162 1203 328 612 265 879 468 1130 864 262 411 280 688 68
1008 -112 168 -310 349 -473 431 -201 101 -503 176 -890 220 -640 73 -1313 36
-1716 -95 -146 -47 -370 -160 -474 -238 -202 -153 -372 -377 -417 -550 -12
-49 -14 -90 -9 -193 5 -111 3 -134 -11 -155 -9 -13 -71 -80 -138 -149 -67 -69
-134 -145 -148 -170 -44 -76 -60 -161 -54 -275 12 -222 109 -448 262 -613 80
-87 204 -184 295 -231 124 -65 118 -54 72 -147 -21 -43 -47 -104 -57 -134 -23
-72 -70 -165 -360 -715 -352 -667 -473 -916 -559 -1151 l-38 -100 -261 0 -262
1 -74 -33 c-211 -93 -382 -262 -481 -476 -68 -148 -120 -390 -120 -565 0 -81
-4 -114 -18 -141 -37 -75 -80 -26 -81 92 -1 64 -25 290 -76 718 -72 613 -90
927 -81 1415 10 475 23 724 57 1085 31 330 53 491 89 628 85 334 286 733 440
875 119 111 168 123 436 106 169 -11 199 -11 272 4 78 16 136 37 192 71 14 8
61 31 104 51 44 19 99 51 123 71 51 42 103 126 103 169 0 50 19 104 77 228 69
145 75 187 40 259 -33 67 -74 106 -162 156 -41 23 -79 53 -93 73 -12 19 -37
39 -55 46 -37 13 -37 15 4 105 60 132 61 232 5 350 -74 155 -298 340 -475 392
-60 17 -199 20 -313 5z m-398 -7429 c161 -304 275 -482 454 -708 58 -72 106
-137 106 -142 0 -6 -9 -38 -21 -72 -11 -33 -44 -203 -74 -377 -73 -432 -87
-491 -226 -981 -109 -383 -152 -519 -234 -740 -65 -176 -75 -197 -71 -150 16
166 17 261 7 758 -12 546 -17 642 -46 828 -12 79 -16 218 -19 620 -3 339 -11
601 -21 754 -18 248 -16 331 11 381 13 27 18 29 29 18 7 -8 55 -93 105 -189z
m-371 -110 c37 -325 64 -1025 65 -1705 1 -473 -1 -575 -13 -600 -14 -29 -15
-28 -28 65 -18 132 -44 231 -126 480 l-70 215 -8 315 c-4 173 -8 493 -9 710
-1 438 -2 433 66 535 42 65 95 110 105 92 4 -7 12 -55 18 -107z m-449 -472 c0
-68 -10 -236 -26 -453 l-7 -89 -54 59 c-102 112 -111 146 -72 266 39 121 126
289 149 289 6 0 10 -31 10 -72z m-215 -727 c53 -81 94 -168 124 -265 18 -58
26 -138 46 -469 14 -220 29 -434 34 -476 4 -42 7 -78 5 -79 -1 -2 -13 16 -25
40 -34 66 -103 179 -202 328 -156 235 -182 306 -175 464 3 56 15 137 26 181
12 44 26 112 32 150 10 66 63 195 81 195 4 0 28 -31 54 -69z m-166 -1266 c134
-233 249 -492 346 -777 32 -96 68 -238 62 -245 -2 -1 -45 37 -97 85 -106 99
-199 210 -237 286 -14 28 -45 69 -70 92 -41 38 -45 46 -58 123 -13 71 -44 358
-61 561 l-6 65 21 -25 c11 -14 56 -88 100 -165z m1048 -2957 c72 -75 137 -221
162 -362 6 -33 11 -61 11 -63 0 -11 -89 45 -127 80 -55 50 -90 109 -99 164 -7
48 4 213 15 213 4 0 21 -15 38 -32z"/>
</g>
</svg>
