<?xml version="1.0" standalone="no"?>
<!DOCTYPE svg PUBLIC "-//W3C//DTD SVG 20010904//EN"
 "http://www.w3.org/TR/2001/REC-SVG-20010904/DTD/svg10.dtd">
<svg version="1.0" xmlns="http://www.w3.org/2000/svg"
 width="1282.000000pt" height="1545.000000pt" viewBox="0 0 1282.000000 1545.000000"
 preserveAspectRatio="xMidYMid meet">
<metadata>
Created by potrace 1.16, written by Peter Selinger 2001-2019
</metadata>
<g transform="translate(0.000000,1545.000000) scale(0.100000,-0.100000)"
fill="#000000" stroke="none">
<path d="M1180 15343 c54 -95 197 -301 295 -423 95 -118 143 -172 394 -441
529 -566 1155 -1308 1570 -1858 381 -507 524 -730 761 -1191 86 -168 246 -460
354 -650 338 -592 438 -825 477 -1117 15 -114 6 -329 -19 -458 -14 -70 -22
-165 -26 -320 -8 -245 -17 -326 -47 -396 -31 -72 -50 -83 -199 -119 -187 -44
-534 -148 -725 -216 -88 -31 -172 -57 -186 -57 -15 0 -139 54 -275 121 -235
113 -316 147 -374 154 -16 2 -26 10 -28 23 -6 32 -30 52 -71 58 -20 2 -90 34
-154 70 -64 35 -160 79 -212 96 -98 32 -255 61 -337 61 -31 0 -84 15 -161 45
-129 50 -231 77 -282 73 -27 -2 -42 5 -67 28 -62 58 -166 117 -275 155 -59 21
-231 33 -483 33 -132 0 -181 -24 -320 -160 -58 -56 -120 -109 -137 -118 -32
-16 -33 -18 -33 -80 0 -76 -37 -199 -79 -260 -92 -134 -203 -371 -242 -515
-45 -167 -31 -386 33 -558 64 -168 157 -274 307 -345 393 -186 434 -214 496
-338 39 -77 116 -153 206 -203 32 -17 60 -36 62 -42 2 -5 -18 -111 -44 -235
-155 -719 -270 -1323 -287 -1495 -5 -51 -18 -110 -29 -135 -47 -104 -160 -223
-263 -275 -83 -42 -98 -41 -212 9 -57 24 -125 50 -151 57 -153 38 -306 -56
-357 -220 -24 -77 -27 -221 -5 -304 17 -66 53 -142 63 -132 4 3 5 39 3 79 -4
117 8 136 125 191 116 54 152 57 216 16 25 -16 49 -34 52 -40 4 -6 -16 -22
-46 -37 -143 -72 -282 -194 -334 -295 -25 -47 -29 -64 -28 -139 0 -80 4 -93
53 -210 62 -146 80 -180 99 -180 11 0 12 9 5 43 -4 23 -8 92 -8 152 0 122 16
169 72 216 31 26 110 65 118 58 2 -3 -2 -27 -10 -54 -21 -69 -19 -177 6 -265
24 -86 77 -204 108 -240 l21 -25 -7 75 c-18 169 -1 262 57 319 20 20 85 65
146 100 86 50 128 84 201 157 50 52 96 94 102 94 7 0 11 -23 11 -58 0 -82 18
-168 46 -224 50 -98 223 -285 281 -302 35 -11 36 9 4 79 -26 57 -30 77 -30
148 1 46 -7 141 -17 213 -16 123 -16 135 0 249 20 139 44 205 76 205 31 0 113
-82 191 -190 38 -52 103 -131 144 -175 l75 -80 0 185 0 185 -50 100 c-34 68
-53 121 -60 167 -11 73 -10 78 31 163 43 89 69 204 69 306 0 177 74 460 200
764 43 105 82 202 85 218 4 15 11 30 17 33 14 9 74 -42 131 -113 79 -99 102
-108 277 -108 143 0 146 0 219 -33 41 -19 133 -49 206 -68 73 -18 154 -43 179
-55 42 -21 51 -22 135 -12 106 12 171 4 246 -31 138 -63 815 -521 895 -605 67
-71 143 -121 235 -157 60 -24 87 -28 188 -30 l119 -3 106 -78 c337 -244 541
-377 737 -479 157 -82 257 -121 383 -149 115 -26 166 -56 177 -103 9 -45 -27
-207 -125 -552 -147 -520 -210 -798 -210 -929 0 -122 -78 -289 -180 -385 -60
-56 -240 -184 -386 -273 -55 -33 -74 -65 -130 -211 -31 -81 -34 -182 -5 -182
10 0 21 6 24 14 12 31 347 248 491 317 51 25 92 39 111 37 51 -5 40 -53 -58
-251 -93 -187 -113 -237 -123 -318 -3 -30 -19 -108 -35 -174 -33 -134 -35
-163 -16 -190 16 -21 19 -17 37 49 8 30 26 60 46 80 19 18 41 50 50 72 24 58
40 72 146 125 65 33 105 60 124 84 20 26 30 33 39 25 27 -23 48 -145 56 -330
6 -152 12 -202 33 -280 37 -133 36 -130 51 -130 16 0 83 105 132 204 l34 71
-7 178 c-5 147 -4 177 8 177 16 0 166 -150 234 -235 26 -33 67 -100 90 -150
23 -49 67 -127 97 -173 50 -75 56 -92 68 -168 7 -47 16 -81 20 -77 11 11 26
146 34 288 5 105 3 127 -15 180 -34 100 -98 222 -147 282 -37 45 -54 79 -80
162 -31 99 -42 171 -25 171 11 0 63 -34 118 -76 68 -52 115 -70 220 -87 100
-16 140 -34 229 -99 130 -96 162 -151 149 -254 -7 -61 4 -70 34 -26 54 75 67
202 31 300 -11 31 -36 101 -55 155 -41 115 -75 172 -118 195 -20 10 -71 18
-146 23 -216 12 -255 49 -305 279 -14 69 -40 178 -57 243 -16 65 -28 131 -25
145 3 15 19 61 36 102 59 144 213 702 270 980 52 254 65 390 57 609 -7 211
-20 357 -38 438 -22 103 -58 146 -358 440 -284 276 -428 405 -521 466 -27 18
-47 36 -46 41 2 6 70 32 153 58 622 203 867 324 938 467 32 62 63 154 76 223
8 43 23 72 57 115 54 69 89 142 98 209 4 27 9 52 11 56 2 3 43 -3 91 -13 310
-69 376 -81 515 -89 228 -14 340 -36 833 -165 610 -159 859 -186 1050 -114
110 41 189 142 215 275 17 88 8 156 -35 258 -25 59 -48 144 -71 259 -19 94
-40 188 -46 209 -6 21 -8 41 -5 44 13 13 96 -47 163 -118 74 -78 130 -164 140
-217 13 -63 32 -52 60 34 9 28 34 80 56 117 38 64 39 69 27 103 -16 43 -4 69
34 73 36 4 75 -18 160 -92 91 -80 160 -123 267 -170 134 -59 146 -69 171 -137
24 -67 88 -146 125 -155 30 -8 54 -40 54 -72 0 -33 19 -24 52 25 36 53 53 119
44 168 -6 33 -24 56 -94 125 -48 47 -154 139 -236 205 -81 65 -144 121 -138
123 6 2 75 -34 154 -79 191 -110 291 -157 363 -170 81 -15 143 -48 217 -118
67 -63 113 -89 252 -145 99 -40 169 -89 253 -180 112 -119 162 -219 163 -319
0 -70 14 -72 47 -7 32 65 56 167 51 220 -3 25 -16 71 -30 102 -33 71 -147 192
-225 237 -107 62 -167 103 -253 172 -75 59 -102 73 -215 114 -72 26 -155 59
-185 74 -42 21 -256 154 -374 233 -6 4 -8 10 -4 13 3 4 71 -15 150 -40 127
-42 158 -48 273 -55 83 -5 177 -19 260 -38 72 -16 169 -33 217 -36 114 -8 277
-40 397 -77 164 -52 181 -66 181 -154 0 -25 4 -45 9 -45 16 0 70 72 82 108 16
50 -10 110 -72 166 -86 77 -122 88 -469 146 -361 60 -631 113 -809 161 -104
27 -160 51 -338 140 -223 113 -316 149 -387 149 -46 0 -155 18 -171 28 -5 4
94 10 220 13 127 4 246 10 265 14 30 6 40 3 62 -20 15 -15 30 -40 33 -56 15
-65 39 -14 39 81 0 66 -23 113 -61 128 -15 6 -89 13 -163 16 -74 3 -173 12
-220 20 -64 12 -154 15 -370 13 l-285 -2 -130 32 c-173 43 -266 53 -471 53
-192 0 -313 -16 -397 -54 -75 -33 -93 -59 -100 -148 -4 -40 -18 -107 -32 -148
-24 -66 -26 -86 -22 -170 5 -85 19 -161 42 -212 5 -12 3 -18 -6 -18 -8 0 -104
38 -214 85 -277 119 -739 302 -930 370 -165 58 -368 115 -411 115 -80 0 -129
84 -209 356 -145 488 -169 564 -216 692 -177 476 -424 893 -704 1192 -34 36
-95 115 -135 175 -662 988 -1715 2321 -2699 3415 -417 464 -797 831 -1336
1291 -346 296 -901 739 -925 739 -7 0 2 -25 20 -57z m-640 -11722 c0 -15 -38
-56 -45 -49 -8 8 23 58 36 58 5 0 9 -4 9 -9z"/>
</g>
</svg>
