<?xml version="1.0" standalone="no"?>
<!DOCTYPE svg PUBLIC "-//W3C//DTD SVG 20010904//EN"
 "http://www.w3.org/TR/2001/REC-SVG-20010904/DTD/svg10.dtd">
<svg version="1.0" xmlns="http://www.w3.org/2000/svg"
 width="1684.000000pt" height="1021.000000pt" viewBox="0 0 1684.000000 1021.000000"
 preserveAspectRatio="xMidYMid meet">
<metadata>
Created by potrace 1.16, written by Peter Selinger 2001-2019
</metadata>
<g transform="translate(0.000000,1021.000000) scale(0.100000,-0.100000)"
fill="#000000" stroke="none">
<path d="M9632 10188 c-17 -17 -15 -38 6 -69 163 -244 178 -273 163 -303 -6
-12 -14 -68 -18 -125 l-8 -104 -50 -1 c-44 -1 -50 -4 -53 -24 -2 -12 6 -47 17
-77 l21 -55 -52 21 c-140 55 -417 -9 -625 -143 -194 -126 -392 -355 -449 -518
-37 -107 -44 -242 -16 -307 39 -91 94 -344 79 -360 -6 -6 -113 23 -174 47 -12
5 -29 25 -39 45 -9 21 -32 52 -49 71 -41 43 -77 45 -133 4 -45 -33 -62 -60
-85 -136 -12 -42 -13 -55 -2 -81 7 -16 20 -33 29 -36 9 -4 16 -13 16 -20 0
-30 54 -135 116 -228 35 -53 64 -98 64 -100 0 -3 -44 -5 -97 -5 -54 0 -120 -1
-148 -3 -27 -2 -131 0 -230 4 -268 12 -2204 7 -2555 -5 -168 -6 -395 -17 -505
-25 -268 -19 -489 -32 -732 -45 -206 -10 -429 -33 -728 -75 -93 -13 -199 -26
-235 -30 -69 -7 -232 -29 -340 -46 -36 -6 -150 -28 -255 -49 -104 -21 -255
-51 -335 -65 -80 -15 -201 -41 -270 -57 -69 -16 -174 -41 -235 -54 -397 -86
-673 -184 -940 -332 -138 -76 -375 -237 -466 -317 -160 -138 -315 -415 -296
-528 6 -36 120 -228 175 -296 19 -24 61 -60 91 -80 31 -20 79 -54 108 -76 89
-69 235 -165 251 -165 3 0 26 -9 51 -21 25 -12 69 -32 96 -44 28 -13 83 -37
123 -54 39 -17 102 -44 140 -60 37 -16 105 -40 152 -55 47 -14 150 -45 230
-70 202 -62 238 -71 385 -100 535 -105 972 -129 1620 -91 426 25 796 66 1170
131 264 46 856 223 1014 303 21 11 68 32 103 45 236 91 614 288 649 338 3 4
42 34 87 66 45 31 132 96 194 143 62 47 140 103 173 124 104 67 206 152 342
286 l132 131 61 -33 c84 -44 100 -67 100 -141 0 -68 15 -102 72 -164 59 -64
82 -61 168 21 38 38 82 70 101 75 34 10 50 9 142 -12 l47 -10 -56 -61 c-67
-72 -150 -237 -168 -332 l-11 -60 -61 -30 c-120 -59 -311 -245 -406 -395 -49
-77 -100 -181 -144 -291 -20 -52 -41 -99 -45 -105 -5 -6 -44 -32 -87 -57 -42
-24 -118 -80 -168 -123 -50 -44 -128 -108 -173 -144 -92 -73 -215 -219 -259
-307 -16 -32 -39 -98 -51 -146 -20 -79 -22 -111 -20 -280 2 -252 7 -281 81
-501 16 -49 27 -98 24 -110 -3 -12 -63 -87 -134 -167 -143 -159 -739 -774
-787 -810 -16 -13 -68 -57 -115 -100 -47 -42 -101 -84 -120 -94 -44 -22 -201
-140 -257 -192 -33 -30 -43 -47 -43 -71 0 -17 5 -34 10 -37 6 -3 10 -15 10
-25 0 -27 33 -41 87 -38 l46 3 17 -69 c24 -95 69 -125 107 -71 111 155 198
256 354 410 100 99 215 223 257 275 93 118 135 163 237 253 87 76 401 383 532
521 45 47 85 96 89 109 3 15 -8 70 -29 138 -57 188 -70 263 -73 404 -1 72 2
164 6 205 10 89 67 250 117 328 26 40 129 174 169 221 13 15 9 -15 -11 -86
-71 -245 -115 -542 -149 -1011 -22 -298 2 -604 75 -967 27 -133 101 -420 138
-531 97 -296 459 -1058 560 -1181 l55 -65 53 5 c76 8 132 44 253 165 67 67
132 121 178 149 97 57 219 156 415 336 85 77 184 217 373 522 182 294 456 835
527 1040 25 72 73 186 106 255 l60 125 0 -86 c1 -66 -7 -116 -33 -220 -19 -74
-44 -156 -57 -184 -46 -104 -280 -546 -299 -565 -44 -44 -51 -66 -51 -157 0
-49 7 -110 16 -138 8 -28 15 -66 15 -85 0 -19 5 -51 10 -71 17 -62 50 -222 50
-243 0 -12 11 -61 24 -111 47 -174 57 -221 66 -305 5 -47 14 -132 20 -190 7
-58 23 -150 37 -205 14 -55 33 -138 42 -185 10 -47 23 -101 29 -120 5 -19 18
-96 27 -170 24 -186 26 -195 55 -195 18 0 34 15 63 57 l39 57 43 -24 c23 -14
49 -25 57 -25 22 0 65 36 71 59 3 11 -14 61 -38 115 -54 120 -81 197 -89 261
-4 28 -13 75 -21 105 -17 67 -40 185 -60 305 -9 50 -24 124 -34 165 -11 41
-25 102 -31 135 -7 33 -23 107 -35 165 -13 58 -33 164 -46 235 -12 72 -26 157
-32 190 -6 33 -10 98 -9 144 2 84 19 137 80 246 173 313 280 542 341 730 110
334 106 316 106 465 0 111 -6 165 -33 305 -69 356 -66 339 -54 438 22 174 25
469 7 617 -19 158 -69 381 -118 530 -44 133 -101 384 -93 406 11 30 122 14
198 -29 60 -34 64 -38 86 -101 36 -102 46 -106 221 -106 91 0 172 -6 216 -15
39 -8 98 -15 132 -15 59 0 63 -2 78 -30 8 -16 15 -37 15 -46 0 -9 12 -44 26
-78 14 -33 34 -81 44 -106 10 -25 45 -106 78 -180 33 -74 76 -182 97 -238 20
-57 57 -150 82 -205 25 -56 60 -136 78 -177 141 -325 264 -502 614 -883 156
-170 168 -181 418 -369 254 -192 542 -378 838 -540 344 -190 422 -231 525
-281 198 -95 323 -150 595 -261 148 -61 420 -150 705 -230 129 -37 265 -76
302 -87 100 -29 457 -86 588 -93 134 -8 386 13 519 43 47 11 109 23 136 26 61
8 264 100 357 162 38 24 85 64 105 88 l38 43 -3 148 c-3 169 -20 250 -101 491
-80 238 -245 495 -547 853 -104 123 -274 281 -494 460 -109 88 -208 161 -448
330 -106 75 -484 311 -552 345 -19 10 -96 57 -170 105 -74 48 -220 136 -325
195 -104 60 -230 134 -280 166 -49 31 -157 94 -240 139 -82 45 -195 107 -250
138 -55 31 -158 87 -230 125 -231 123 -605 349 -729 440 -43 32 -107 76 -141
97 -35 21 -92 60 -126 85 -35 26 -91 61 -124 77 -33 17 -116 65 -185 106 -69
41 -145 84 -170 95 -24 11 -74 38 -110 60 -36 22 -135 75 -220 117 -140 69
-185 94 -300 165 -19 12 -56 34 -83 49 l-47 27 27 34 c65 81 209 117 463 117
187 -1 205 6 197 71 -8 66 -54 218 -75 246 -10 15 -36 32 -58 40 -36 13 -45
12 -137 -18 -53 -17 -110 -31 -125 -31 -16 0 -56 -11 -89 -25 -34 -13 -101
-33 -149 -44 -49 -11 -130 -31 -180 -45 -86 -23 -93 -24 -158 -10 -83 17 -83
17 -90 52 -10 44 40 260 69 301 14 20 45 64 68 98 24 34 73 90 108 125 82 80
121 137 170 250 78 178 109 381 90 588 -10 122 -21 155 -103 315 -35 67 -113
180 -178 255 -18 21 -170 130 -181 130 -4 0 -24 10 -44 21 l-36 22 25 26 c42
44 29 87 -32 106 -31 9 -25 35 29 126 34 59 38 71 28 95 -9 24 -7 30 13 46 22
17 190 108 293 158 59 29 70 60 32 85 -31 20 -46 17 -213 -50 -77 -31 -163
-74 -208 -105 -47 -31 -84 -49 -93 -46 -42 16 -90 -67 -77 -132 6 -28 4 -30
-15 -25 -33 8 -76 -15 -93 -49 l-14 -31 -36 37 c-26 26 -43 36 -67 36 -41 0
-41 24 2 80 64 86 61 78 44 104 -9 13 -39 34 -66 47 -44 20 -51 27 -56 58 -11
66 -49 133 -122 215 -92 103 -149 136 -181 104z m-2794 -2675 c-6 -27 -11 -49
-13 -51 -5 -6 -394 -33 -625 -43 -350 -15 -389 -17 -600 -29 -102 -6 -367 -15
-590 -20 -223 -5 -466 -14 -540 -20 -631 -48 -867 -58 -1430 -63 -337 -3 -389
-2 -352 9 55 17 77 20 672 99 337 45 522 64 765 80 132 8 384 25 560 36 531
36 859 46 1526 47 l637 2 -10 -47z m921 38 c8 -5 -16 -11 -65 -15 -44 -4 -146
-13 -229 -21 -186 -18 -494 -45 -517 -45 -21 0 -31 30 -22 64 l6 26 407 0
c223 0 412 -4 420 -9z m-234 -196 c-66 -24 -160 -59 -210 -78 l-90 -36 -56 52
c-31 29 -57 55 -58 59 0 3 52 9 117 13 64 4 171 13 237 20 187 19 190 18 60
-30z m-915 -57 c-47 -11 -143 -35 -215 -55 -71 -20 -179 -48 -240 -63 -60 -15
-159 -41 -220 -58 -60 -17 -225 -63 -365 -102 -253 -70 -361 -103 -805 -240
-356 -111 -429 -135 -580 -189 -162 -58 -159 -59 -200 42 l-22 55 91 26 c50
14 181 50 291 81 208 58 446 136 575 187 101 40 260 86 345 99 39 6 104 19
145 29 41 11 131 31 200 45 70 15 143 37 165 50 71 41 248 73 475 86 113 6
239 14 280 19 41 4 95 7 120 8 39 0 34 -3 -40 -20z m-1220 -64 c-25 -8 -85
-21 -133 -30 -49 -8 -143 -31 -210 -50 -134 -39 -243 -63 -447 -96 -132 -22
-151 -23 -770 -20 -349 1 -687 -2 -750 -7 -63 -5 -117 -8 -118 -6 -2 2 13 8
34 13 275 66 340 83 376 100 37 18 77 22 293 32 231 10 454 25 780 51 115 10
624 25 890 26 l100 1 -45 -14z m1675 -12 c4 -11 -1 -23 -14 -34 -32 -25 -449
-160 -490 -158 -97 5 -113 1 -146 -34 -34 -37 -152 -91 -329 -153 -56 -19
-138 -50 -183 -68 -44 -19 -110 -41 -145 -49 -36 -8 -100 -31 -143 -51 -43
-19 -105 -42 -139 -51 -71 -18 -84 -25 -209 -103 l-95 -59 -53 19 c-30 10 -65
18 -79 19 -18 0 -52 25 -115 83 -49 46 -84 86 -79 89 5 3 65 22 134 42 69 21
181 55 250 76 147 46 442 129 625 177 173 45 440 114 600 157 225 59 458 109
503 107 24 -1 51 3 60 8 20 11 39 4 47 -17z m-4873 -43 c12 -7 85 -16 162 -21
179 -13 165 -12 401 -5 l200 6 -175 -43 c-96 -24 -206 -48 -245 -55 -221 -36
-270 -45 -367 -67 -58 -13 -157 -29 -220 -35 -62 -5 -144 -19 -183 -29 -38
-11 -128 -24 -200 -30 -71 -6 -193 -17 -270 -26 -77 -9 -174 -14 -215 -12
l-75 3 40 21 c48 26 265 103 390 138 126 36 180 49 435 107 124 28 227 53 229
55 9 8 73 3 93 -7z m5489 -32 c26 -22 79 -105 79 -124 0 -5 -30 -25 -66 -43
-36 -19 -97 -63 -135 -98 -81 -75 -78 -75 -217 -12 -49 22 -95 40 -101 40 -29
0 -2 24 97 83 59 35 139 80 177 100 39 19 81 44 95 56 31 26 39 26 71 -2z
m-526 -107 c-33 -22 -71 -40 -85 -40 -24 0 -24 0 -5 20 18 17 112 57 140 59 6
1 -17 -17 -50 -39z m-187 -90 c-7 -12 -30 -30 -50 -41 -21 -11 -44 -32 -52
-48 -16 -29 -41 -45 -57 -35 -16 9 -10 19 22 38 18 11 56 41 86 68 56 50 75
57 51 18z m-2613 11 c55 0 97 -2 94 -5 -3 -3 -70 -23 -150 -45 -79 -21 -225
-62 -324 -90 -232 -65 -398 -107 -562 -141 -73 -16 -147 -33 -165 -39 -18 -5
-73 -17 -123 -26 -49 -9 -135 -28 -190 -41 -55 -14 -145 -29 -200 -34 -55 -5
-140 -18 -189 -30 -49 -11 -116 -25 -150 -29 -34 -5 -108 -16 -166 -25 -145
-21 -495 -38 -562 -26 -29 5 -102 14 -163 21 -60 6 -128 15 -151 21 -28 6 -89
6 -187 -1 -153 -12 -226 -30 -532 -132 -66 -22 -183 -59 -260 -83 -77 -24
-159 -53 -183 -65 -23 -12 -42 -18 -42 -14 0 15 72 128 119 186 83 105 351
303 577 427 l61 33 32 -22 c45 -33 142 -44 321 -37 249 10 407 25 525 51 61
13 148 27 195 30 47 3 128 15 180 26 52 11 134 26 182 34 48 8 125 21 170 30
143 28 245 30 1003 27 407 -1 785 -2 840 -1z m3435 -71 c0 -33 27 -66 68 -83
115 -48 143 -57 171 -57 27 0 30 -4 40 -50 6 -28 22 -78 36 -111 15 -34 24
-63 21 -66 -12 -12 -141 60 -190 107 -58 55 -88 65 -238 79 -51 5 -72 12 -92
30 l-26 25 42 43 c43 44 132 102 156 103 6 0 12 -9 12 -20z m-1352 -97 c3 -18
-18 -35 -115 -99 -125 -82 -314 -225 -476 -361 -54 -45 -137 -108 -185 -141
-136 -94 -388 -307 -620 -526 -55 -52 -84 -98 -70 -111 2 -2 26 12 54 31 27
20 80 54 117 76 37 21 107 72 155 111 117 97 331 256 477 356 66 44 199 144
295 221 140 111 367 274 437 314 13 7 101 -52 102 -68 1 -6 -16 -30 -37 -55
-21 -25 -68 -89 -105 -141 -165 -233 -452 -577 -566 -678 -67 -59 -87 -92 -58
-92 32 0 187 111 283 203 126 121 332 354 434 492 41 55 96 126 123 157 l49
58 52 -6 c59 -7 73 -2 151 56 28 21 59 41 71 44 28 9 142 -28 178 -57 l29 -24
-26 -34 c-23 -31 -199 -200 -290 -279 -21 -18 -73 -58 -117 -89 -43 -31 -130
-95 -192 -143 -63 -47 -136 -98 -164 -113 -27 -15 -56 -33 -64 -40 -8 -6 -35
-23 -60 -37 -25 -14 -85 -49 -135 -78 -141 -83 -352 -184 -480 -229 -28 -10
-73 -30 -100 -43 -86 -44 -522 -188 -705 -233 -263 -66 -430 -95 -730 -130
-74 -9 -168 -20 -208 -25 -95 -13 -555 -42 -593 -38 -29 3 -29 3 63 109 159
180 439 441 633 588 40 31 157 121 260 201 103 80 208 161 234 180 26 19 89
69 141 110 52 42 125 98 162 125 38 27 71 57 74 68 5 16 12 18 44 13 21 -3 59
-15 84 -26 l46 -19 -37 -58 c-20 -32 -59 -92 -86 -133 -153 -226 -316 -613
-363 -856 -15 -77 -15 -97 -4 -123 7 -17 16 -31 20 -31 8 0 33 55 94 205 156
388 246 572 373 763 76 113 107 151 152 183 92 67 211 129 288 150 40 11 105
35 145 53 40 18 100 39 132 46 33 6 93 27 135 45 42 17 135 53 208 79 72 25
160 59 195 76 72 33 92 34 96 3z m4377 -90 c28 -18 70 -46 95 -63 71 -49 156
-98 274 -157 60 -30 150 -78 200 -106 50 -28 130 -72 177 -97 225 -119 568
-333 749 -466 93 -69 517 -325 675 -409 50 -26 135 -73 190 -105 55 -31 177
-99 270 -150 94 -51 208 -118 255 -148 47 -30 173 -105 280 -167 107 -61 231
-135 275 -163 123 -79 207 -131 365 -225 169 -100 217 -135 110 -79 -138 72
-591 312 -653 346 -34 18 -116 62 -182 96 -148 76 -274 146 -408 225 -56 34
-187 107 -292 164 -443 241 -541 296 -565 312 -14 9 -92 55 -175 101 -165 94
-329 192 -475 286 -114 73 -293 181 -410 247 -47 26 -116 68 -155 92 -138 88
-357 224 -388 240 -18 9 -45 27 -61 40 -16 13 -66 43 -110 65 -143 71 -196
107 -196 132 0 20 4 22 53 21 40 0 63 -8 102 -32z m-6914 -105 c9 -35 19 -70
23 -80 6 -14 -25 -27 -216 -88 -310 -100 -738 -272 -842 -338 -45 -28 -291
-152 -302 -152 -9 0 -201 -107 -304 -168 -105 -63 -256 -161 -389 -251 -41
-28 -80 -51 -87 -51 -7 0 -26 13 -43 29 -93 87 -188 133 -351 171 -337 78
-406 101 -507 168 -133 87 -196 151 -244 246 -22 43 -46 87 -52 98 -19 30 -16
31 308 122 149 42 169 45 300 48 133 2 231 -7 457 -44 44 -7 135 -9 258 -5
166 6 244 15 523 57 32 5 100 18 150 29 51 11 135 25 187 30 90 10 205 33 505
101 72 17 157 35 190 41 33 6 92 20 130 31 74 23 250 65 275 67 11 1 20 -17
31 -61z m882 -23 c26 -33 47 -64 47 -70 0 -5 -35 -35 -78 -65 -264 -188 -648
-496 -911 -731 -104 -93 -343 -341 -411 -426 l-41 -53 -22 25 c-26 29 -233
111 -327 130 -36 7 -121 16 -190 20 -250 13 -359 39 -486 118 -48 31 -124 92
-124 100 0 12 219 133 465 257 383 193 618 293 940 397 94 30 283 93 420 140
138 47 291 99 340 115 50 17 140 48 200 69 61 21 115 37 120 35 6 -1 31 -29
58 -61z m6034 -219 l123 -130 0 -51 c0 -45 -3 -54 -30 -73 -16 -12 -33 -22
-37 -22 -5 0 -24 26 -43 58 -70 118 -144 228 -181 273 -45 54 -46 61 -18 100
l21 30 21 -28 c12 -16 77 -86 144 -157z m-244 -3 c103 -141 312 -511 330 -584
l7 -27 -58 18 c-32 10 -112 26 -177 35 -66 9 -129 18 -140 20 -15 3 -37 40
-83 136 -34 73 -67 153 -73 178 -6 25 -21 65 -35 89 -14 24 -23 50 -20 58 3 8
43 32 88 53 46 21 92 46 103 55 11 8 21 16 22 16 1 0 17 -21 36 -47z m500 -56
c31 -22 57 -41 57 -42 0 -2 -17 1 -37 5 -23 6 -53 25 -82 55 -52 54 -33 48 62
-18z m-819 -98 c10 -22 24 -68 32 -101 8 -33 30 -93 48 -134 19 -41 32 -74 28
-74 -4 0 -52 25 -107 56 -101 57 -230 114 -259 114 -20 0 -29 16 -21 39 11 36
193 138 251 140 5 1 18 -17 28 -40z m853 -2 c4 -7 44 -44 88 -82 44 -38 190
-179 325 -314 135 -136 315 -314 400 -396 86 -83 257 -254 380 -381 124 -127
258 -259 298 -293 65 -56 89 -91 62 -91 -5 0 -26 -23 -47 -50 -34 -46 -40 -50
-69 -44 -18 3 -35 1 -38 -5 -4 -6 -22 -3 -53 10 -25 11 -74 25 -109 31 -40 8
-65 18 -67 28 -47 153 -255 474 -445 688 -43 48 -112 128 -154 177 -123 147
-417 449 -499 514 -44 35 -88 81 -107 111 -18 28 -32 53 -32 55 0 7 44 53 52
54 4 1 11 -5 15 -12z m-10576 -137 c44 -102 57 -122 113 -175 67 -64 147 -125
163 -125 6 0 27 -12 48 -26 75 -50 170 -78 475 -140 153 -31 191 -44 277 -100
91 -58 112 -76 113 -95 0 -26 26 -41 58 -34 16 3 78 35 138 72 60 36 143 85
185 109 l76 43 49 -47 c107 -103 263 -182 401 -202 37 -6 139 -17 226 -25 146
-14 172 -20 331 -73 l173 -58 -24 -34 c-14 -19 -33 -53 -43 -76 l-18 -41 -241
-6 c-230 -5 -373 1 -711 32 -153 14 -502 74 -655 112 -129 33 -456 141 -555
184 -30 13 -93 40 -140 60 -96 41 -267 121 -290 135 -8 5 -43 25 -77 46 -33
20 -92 59 -130 88 -38 28 -94 68 -125 89 -43 29 -73 63 -134 153 -112 165
-113 167 -109 175 3 3 26 9 52 12 27 4 104 20 173 36 69 16 131 28 138 27 7 0
36 -53 63 -116z m10936 -9 c37 -21 99 -55 137 -76 47 -26 111 -78 207 -170 76
-74 174 -156 216 -184 274 -178 417 -289 602 -466 69 -66 191 -176 271 -244
80 -68 177 -154 215 -191 39 -37 113 -100 165 -141 130 -99 260 -209 260 -217
-1 -4 -35 -29 -78 -57 -53 -34 -86 -65 -107 -97 l-30 -47 -311 312 c-171 172
-398 398 -505 503 -107 104 -293 292 -414 416 -121 124 -330 332 -465 461
-135 130 -242 236 -238 237 3 0 37 -17 75 -39z m-456 -45 c12 -15 26 -22 37
-20 12 4 42 -20 97 -78 84 -88 274 -299 322 -358 15 -19 95 -114 177 -210 162
-189 315 -389 347 -451 10 -21 39 -69 62 -107 24 -37 54 -96 66 -132 13 -36
32 -80 43 -98 16 -25 24 -68 34 -175 24 -249 20 -443 -14 -755 l-7 -64 -29 69
c-28 64 -106 225 -176 358 -17 33 -103 206 -190 385 -88 179 -197 395 -244
480 l-84 155 25 24 c31 29 56 86 48 110 -11 37 -52 62 -113 71 -33 4 -69 13
-80 19 -19 10 -163 254 -208 352 -12 26 -27 50 -33 53 -14 9 -74 127 -91 181
-7 22 -26 64 -42 92 l-30 53 22 35 c26 41 36 43 61 11z m1530 -597 c32 -22
304 -176 404 -229 117 -61 438 -241 470 -263 29 -21 63 -40 345 -192 80 -43
226 -122 325 -175 99 -54 259 -140 355 -190 96 -51 213 -113 260 -138 47 -24
146 -76 220 -114 152 -77 253 -135 335 -192 61 -41 119 -55 154 -36 20 10 30
5 94 -46 109 -87 303 -261 367 -329 98 -103 276 -322 268 -330 -2 -3 -62 24
-132 60 -132 67 -210 122 -356 250 -217 190 -582 477 -680 533 -25 14 -72 44
-105 67 -87 60 -115 75 -375 208 -129 65 -247 128 -263 139 -15 11 -54 30 -87
43 -33 13 -72 32 -87 43 -16 10 -86 49 -158 87 -71 37 -148 81 -171 96 -22 15
-78 49 -125 77 -46 27 -115 68 -154 92 -76 47 -376 203 -412 214 -35 11 -207
111 -323 187 -108 71 -280 192 -280 197 0 4 84 -40 111 -59z m-1827 5 c14 -5
14 -9 0 -36 -12 -24 -18 -28 -25 -17 -12 18 -11 59 0 59 5 0 16 -3 25 -6z
m436 -122 c-14 -5 -16 -3 -24 28 l-7 25 21 -25 c14 -15 18 -26 10 -28z m-319
-152 c35 -18 215 -70 404 -118 33 -8 67 -18 75 -21 8 -4 139 -254 291 -556
151 -303 291 -581 311 -620 49 -95 129 -275 162 -362 15 -40 35 -83 45 -94 30
-38 101 -22 101 23 0 10 9 31 21 47 15 21 23 52 30 127 5 54 14 146 20 204 20
198 21 295 5 481 -9 101 -19 197 -22 213 l-6 29 63 -6 c78 -7 169 -34 174 -50
2 -7 6 -25 10 -40 4 -19 15 -31 34 -38 23 -8 36 -28 74 -112 25 -56 59 -148
77 -205 17 -57 46 -138 64 -180 18 -42 43 -108 56 -147 12 -38 47 -131 76
-205 59 -150 99 -258 149 -400 18 -52 48 -133 67 -180 19 -47 50 -132 69 -190
19 -60 43 -114 56 -127 28 -29 67 -29 94 -2 18 18 30 20 82 16 92 -6 149 -32
224 -100 80 -72 128 -94 241 -113 68 -11 118 -12 236 -4 83 6 180 12 215 14
34 2 95 0 133 -5 43 -5 77 -5 88 1 15 8 23 1 52 -43 54 -81 66 -109 61 -143
-4 -25 2 -39 26 -66 17 -20 44 -41 61 -48 49 -20 145 -8 229 29 93 42 125 39
223 -21 128 -78 232 -120 325 -130 104 -13 165 -5 273 33 47 16 108 35 135 43
28 7 77 30 110 51 72 47 215 125 228 125 5 0 37 -24 70 -54 34 -30 92 -68 129
-85 37 -18 82 -46 99 -62 l33 -31 -24 -19 c-14 -11 -88 -51 -165 -89 -111 -55
-166 -75 -265 -99 -190 -45 -286 -56 -495 -55 -166 1 -214 5 -380 33 -182 31
-240 44 -420 96 -44 12 -141 40 -215 60 -174 49 -528 166 -616 204 -38 16
-112 46 -164 67 -192 74 -491 213 -660 307 -69 38 -172 95 -230 127 -58 32
-145 80 -195 107 -273 151 -526 320 -888 596 -111 84 -445 462 -582 660 -83
118 -181 297 -220 402 -14 38 -36 88 -49 110 -30 51 -65 134 -127 307 -27 75
-67 176 -89 224 -54 116 -54 116 11 84z m2304 -224 c33 -20 63 -36 67 -36 13
0 340 -200 473 -290 77 -51 211 -123 755 -402 215 -110 295 -155 345 -192 17
-13 67 -46 112 -74 129 -79 417 -306 678 -532 165 -143 245 -199 389 -269 77
-39 183 -82 233 -97 l93 -27 83 -146 c85 -149 116 -225 177 -446 26 -95 39
-195 26 -195 -28 0 -112 56 -201 135 -60 53 -135 113 -164 132 -57 37 -95 69
-340 289 -209 187 -288 243 -407 287 -266 101 -429 187 -609 321 -79 59 -166
132 -192 163 -26 31 -151 150 -276 265 -212 193 -327 292 -590 506 -56 46
-160 132 -231 190 -71 59 -161 131 -200 160 -61 45 -204 169 -350 305 l-41 38
55 -24 c30 -13 82 -40 115 -61z m-133 -588 c289 -299 638 -675 831 -895 153
-176 431 -532 498 -639 24 -38 64 -98 90 -134 25 -36 53 -76 62 -90 l16 -26
-117 3 c-64 1 -155 -3 -202 -8 -116 -15 -296 -14 -348 0 -27 8 -69 35 -117 77
-100 87 -201 126 -315 122 l-75 -3 -13 45 c-16 54 -37 108 -136 348 -41 101
-80 200 -87 220 -6 20 -22 62 -35 92 -12 30 -42 105 -65 165 -22 61 -66 172
-96 248 -30 77 -72 191 -94 255 -22 65 -65 162 -96 216 l-56 99 27 56 c38 78
54 101 70 101 8 0 124 -114 258 -252z m680 -80 c29 -23 96 -78 148 -122 52
-45 142 -120 200 -167 126 -103 402 -359 520 -483 83 -86 331 -285 400 -321
19 -10 54 -31 77 -47 46 -31 194 -96 361 -159 121 -45 194 -95 363 -249 246
-225 312 -282 365 -317 l55 -37 -23 -18 c-13 -10 -32 -21 -43 -24 -11 -4 -56
-28 -100 -54 -47 -28 -99 -50 -125 -54 -25 -4 -54 -13 -65 -20 -11 -7 -51 -24
-90 -37 -110 -37 -209 -31 -323 19 -48 21 -115 57 -150 79 -116 76 -201 79
-328 12 -92 -48 -124 -51 -124 -11 0 57 -85 206 -299 522 -68 102 -172 246
-230 320 -58 74 -122 156 -141 181 -56 75 -266 315 -375 429 -55 58 -149 158
-208 222 l-109 117 13 58 c11 53 18 64 88 130 42 40 79 73 83 73 3 0 30 -19
60 -42z"/>
</g>
</svg>
