<?xml version="1.0" standalone="no"?>
<!DOCTYPE svg PUBLIC "-//W3C//DTD SVG 20010904//EN"
 "http://www.w3.org/TR/2001/REC-SVG-20010904/DTD/svg10.dtd">
<svg version="1.0" xmlns="http://www.w3.org/2000/svg"
 width="1364.000000pt" height="1182.000000pt" viewBox="0 0 1364.000000 1182.000000"
 preserveAspectRatio="xMidYMid meet">
<metadata>
Created by potrace 1.16, written by Peter Selinger 2001-2019
</metadata>
<g transform="translate(0.000000,1182.000000) scale(0.100000,-0.100000)"
fill="#000000" stroke="none">
<path d="M345 11778 c-16 -6 -45 -17 -63 -24 -18 -8 -45 -14 -61 -14 -27 0
-71 -35 -71 -58 0 -7 -11 -6 -36 4 -32 14 -38 13 -60 -1 -44 -28 -33 -62 43
-132 54 -48 63 -60 43 -56 -29 5 -55 -13 -65 -45 -5 -19 6 -35 65 -96 61 -63
69 -75 55 -86 -20 -17 -19 -63 3 -88 9 -12 51 -52 93 -89 42 -37 157 -144 256
-238 98 -93 223 -210 277 -259 53 -48 95 -90 93 -93 -3 -2 -76 37 -163 87
-193 110 -230 125 -267 111 -15 -6 -32 -23 -37 -37 -13 -33 5 -69 75 -151 28
-33 87 -106 132 -164 91 -116 250 -280 736 -756 246 -242 327 -328 327 -346 0
-24 57 -145 111 -236 33 -54 28 -58 -26 -18 -18 14 -21 13 -32 -15 -20 -46
-16 -70 20 -142 28 -54 31 -68 20 -77 -19 -16 -16 -42 13 -110 14 -34 23 -63
21 -65 -2 -3 -32 34 -66 80 -58 80 -105 126 -130 126 -5 0 -13 -15 -17 -34 -7
-42 21 -108 91 -217 25 -39 43 -74 40 -77 -3 -3 -11 0 -17 6 -20 20 -37 14
-53 -18 -15 -30 -14 -34 26 -125 22 -52 64 -127 91 -166 44 -62 48 -73 34 -81
-33 -18 -20 -73 36 -150 17 -23 5 -32 -29 -21 -63 22 -105 -28 -78 -94 20 -47
19 -51 -10 -45 -36 6 -65 -23 -65 -65 0 -46 55 -104 152 -160 43 -25 78 -49
78 -52 0 -13 -39 -29 -58 -24 -11 2 -30 0 -42 -7 -24 -13 -24 -1 3 -173 l13
-88 69 -69 c57 -57 65 -70 48 -70 -12 0 -25 -4 -28 -10 -3 -5 -15 -10 -26 -10
-15 0 -19 -7 -19 -32 0 -37 44 -83 139 -145 l62 -40 -88 -70 c-48 -39 -106
-82 -128 -96 -175 -110 -417 -336 -542 -504 -55 -74 -113 -132 -168 -167 -70
-46 -90 -71 -90 -115 0 -46 25 -85 67 -107 29 -15 231 -54 358 -68 75 -9 807
18 1061 39 66 6 67 6 89 -26 l23 -31 -22 12 c-13 6 -29 9 -37 6 -36 -14 -9
-52 164 -229 97 -100 215 -227 262 -282 46 -55 143 -158 214 -229 72 -72 151
-153 176 -182 56 -65 283 -272 370 -339 36 -27 108 -83 160 -126 159 -127 437
-301 640 -399 83 -40 148 -77 152 -87 4 -10 29 -70 56 -133 28 -63 66 -164 86
-224 20 -60 42 -119 49 -131 7 -13 100 -106 207 -206 253 -238 862 -841 999
-989 234 -255 458 -529 591 -724 25 -37 62 -89 84 -117 21 -27 36 -53 33 -56
-4 -3 -28 2 -54 12 -26 9 -65 19 -86 22 -32 4 -39 2 -43 -14 -4 -14 -14 -20
-34 -20 -16 0 -41 -8 -57 -19 -15 -10 -50 -29 -78 -42 -27 -13 -58 -30 -67
-39 -22 -20 -242 -95 -246 -83 -2 4 -44 6 -95 3 -62 -3 -114 0 -162 11 -60 13
-73 13 -92 1 -19 -13 -24 -12 -45 4 -12 10 -31 20 -41 24 -25 9 -64 -8 -72
-32 -6 -20 -8 -20 -35 -6 -38 20 -52 19 -83 -6 -19 -14 -51 -23 -110 -29 -97
-10 -180 -36 -297 -92 -68 -33 -102 -58 -167 -123 -95 -96 -112 -126 -154
-272 -27 -95 -31 -124 -33 -243 -1 -114 2 -142 18 -178 14 -31 25 -42 41 -42
40 0 47 21 36 104 -11 81 -6 123 30 256 37 138 119 243 229 293 52 24 83 31
157 35 l93 5 -6 -46 c-10 -74 0 -95 59 -122 113 -51 232 -39 301 30 30 30 37
32 80 28 38 -5 46 -9 41 -22 -4 -9 -20 -65 -37 -125 -28 -101 -30 -119 -26
-221 6 -122 28 -192 81 -247 53 -57 73 -21 41 72 -11 31 -14 63 -10 102 7 70
63 292 83 333 24 47 93 127 140 163 45 33 63 40 63 22 0 -6 11 -15 24 -21 21
-10 34 -6 91 25 l66 37 44 -49 c57 -63 103 -86 156 -77 52 9 97 49 129 113 21
43 29 50 47 46 27 -7 60 10 68 35 5 16 10 18 34 8 24 -9 34 -7 65 12 20 13 36
26 36 31 0 17 187 100 224 100 21 0 64 7 95 15 32 8 74 17 95 19 20 3 71 21
114 40 69 31 83 34 138 29 76 -7 134 11 233 72 71 44 73 44 120 33 60 -13 171
3 186 28 88 146 89 146 232 164 79 10 84 9 131 -15 79 -41 135 -43 218 -7 38
16 129 49 202 72 73 22 177 60 230 84 289 128 477 198 554 205 44 4 74 13 87
25 29 26 44 80 39 138 l-5 49 71 -7 c74 -7 168 -38 299 -98 86 -40 97 -42 97
-23 0 31 -93 90 -235 149 -50 21 -93 31 -150 35 -44 2 -116 13 -159 24 -49 12
-94 17 -120 13 -62 -9 -189 -75 -338 -176 -16 -10 -45 -18 -69 -18 -23 0 -93
-16 -155 -36 -99 -30 -119 -34 -148 -24 -18 6 -91 15 -162 20 -131 10 -164 17
-446 103 -113 35 -147 48 -314 120 -152 66 -351 177 -569 317 -66 43 -178 115
-250 160 -71 46 -179 115 -240 155 -60 40 -121 78 -135 85 -55 28 -502 329
-615 413 -140 105 -261 206 -270 227 -4 8 -9 56 -12 105 -5 90 7 152 27 140
10 -6 357 -18 460 -16 30 1 105 9 165 18 61 9 117 16 125 16 27 -1 184 36 222
51 21 9 53 16 72 16 20 0 58 9 86 20 28 11 85 27 128 35 74 15 124 29 262 75
36 12 92 30 125 39 91 26 185 66 355 151 85 42 193 95 240 116 341 157 915
468 1133 616 220 148 652 491 752 597 218 231 277 298 321 363 27 40 83 115
124 168 40 52 98 136 128 185 54 89 156 295 193 388 10 26 30 69 43 95 24 46
136 379 174 517 29 101 89 323 102 372 6 23 25 75 42 115 17 40 45 116 63 168
51 150 152 406 200 510 56 120 91 212 143 370 39 118 50 169 102 497 27 172
56 254 183 513 89 184 153 326 220 491 14 34 21 39 94 62 84 27 230 61 303 72
53 7 227 41 285 55 22 5 112 25 200 45 88 19 198 46 245 59 234 66 336 99 348
114 16 21 15 47 -3 66 -27 26 -175 66 -350 93 -182 28 -358 32 -999 25 l-248
-3 -72 71 c-39 38 -104 91 -144 117 -40 27 -120 83 -177 125 -142 105 -211
146 -399 234 -281 132 -532 230 -723 283 -458 126 -852 140 -1298 46 -60 -13
-186 -35 -279 -50 -380 -60 -965 -243 -1234 -386 -168 -89 -500 -320 -747
-519 -110 -89 -356 -273 -510 -383 -77 -55 -174 -126 -215 -157 -41 -31 -119
-77 -172 -102 -53 -26 -141 -72 -195 -104 -54 -32 -165 -94 -248 -137 -82 -44
-211 -112 -285 -151 -74 -40 -171 -92 -215 -118 -44 -25 -119 -67 -167 -94
-48 -27 -158 -92 -245 -145 -87 -53 -183 -109 -213 -124 -30 -15 -62 -33 -70
-41 -28 -24 -328 -170 -401 -195 l-70 -24 -112 59 c-62 32 -143 78 -182 103
-251 159 -347 227 -412 293 -40 39 -91 86 -114 104 -22 18 -91 87 -152 154
-62 66 -139 142 -172 168 -33 27 -121 100 -195 164 -74 63 -182 154 -240 202
-58 47 -183 159 -279 248 -95 88 -217 197 -270 240 -53 43 -136 114 -186 159
-49 44 -211 185 -360 312 -286 245 -459 399 -639 567 -169 157 -203 176 -281
150z m5728 -8972 c125 -69 457 -279 577 -363 250 -175 403 -284 450 -320 30
-23 130 -99 222 -167 92 -69 194 -146 225 -171 32 -25 63 -45 70 -45 6 0 32
-30 57 -67 25 -38 63 -86 85 -107 22 -21 38 -42 36 -46 -4 -7 -62 -24 -225
-65 -58 -15 -122 -36 -142 -46 l-38 -19 -37 33 c-21 19 -83 71 -138 117 -334
279 -600 549 -991 1007 -101 119 -217 283 -199 283 4 0 25 -11 48 -24z"/>
</g>
</svg>
