<?xml version="1.0" encoding="UTF-8" standalone="no"?>
<svg
   width="1249.8329"
   height="2745.4343"
   viewBox="0 0 1249.8329 2745.4343"
   version="1.1"
   id="svg4"
   xmlns="http://www.w3.org/2000/svg"
   xmlns:svg="http://www.w3.org/2000/svg">
  <defs
     id="defs8" />
  <path
     d="m 737.38384,0.53706653 c -0.285,0.286 -5.648,0.90599997 -11.917,1.37999997 -12.479,0.943 -19.694,2.985 -37.114,10.5040005 -27.08,11.689 -39.845,17.504 -42.444,19.335 -1.562,1.101 -4.731,2.959 -7.041,4.128 -5.347,2.706 -22.356,25.037 -24.856,32.635 -3.088,9.381 -14.231,26.364 -23.294,35.500003 -13.137,13.244 -19.251,21.897 -24.451,34.611 -18.249,44.612 -50.318,93.082 -82.612,124.862 -3.897,3.835 -7.086,7.703 -7.086,8.595 0,2.048 3.125,4.932 5.344,4.932 0.927,0 4.092,-1.358 7.032,-3.017 4.444,-2.508 6.353,-4.573 11.325,-12.25 3.29,-5.078 7.239,-11.878 8.777,-15.112 1.537,-3.233 4.702,-8.22 7.033,-11.081 2.331,-2.862 5.516,-7.192 7.078,-9.622 1.563,-2.43 4.532,-6.491 6.6,-9.025 3.689,-4.523 9.174,-13.481 13.097,-21.393 1.091,-2.2 3.209,-5.8 4.706,-8 1.497,-2.2 5.509,-9.175 8.916,-15.5 6.87,-12.756 10.615,-17 15.001,-17 3.671,0 4.171,1.295 4.828,12.5 0.354,6.027 1.167,10.268 2.461,12.838 1.775,3.525 1.843,4.67 0.84,14 -2.16,20.09 -5.819,42.355 -8.489,51.662 -3.56,12.403 -5.733,27.59 -5.89,41.157 -0.148,12.725 -0.005,13.865 2.091,16.709 2.033,2.758 2.251,4.192 2.255,14.844 0.006,12.726 -0.271,11.858 6.995,21.936 l 3.5,4.854 0.323,15.396 c 0.235,11.222 0.71,15.988 1.753,17.579 0.787,1.201 2.148,4.623 3.025,7.604 0.876,2.982 2.263,6.174 3.081,7.093 0.818,0.92 1.735,3.62 2.037,6 0.303,2.381 2.057,6.803 3.898,9.828 1.841,3.025 3.807,7.93 4.368,10.901 0.561,2.97 1.46,5.931 1.998,6.579 1.878,2.263 5.79,14.065 6.47,19.52 0.377,3.025 1.089,6.85 1.581,8.5 0.493,1.65 1.377,6.6 1.966,11 1.689,12.633 3.285,18.637 6.335,23.824 2.16,3.674 3.054,6.885 3.759,13.499 1.32,12.398 2.307,17.213 4.313,21.041 4.292,8.193 4.628,9.847 8.051,39.636 0.758,6.6 2.09,14.461 2.96,17.468 0.87,3.007 1.596,8.857 1.613,13 0.017,4.143 0.678,12.932 1.469,19.532 2.359,19.696 3.469,43.312 4.44,94.49 0.87,45.862 0.819,48.789 -0.925,54 -2.616,7.818 -4.015,16.28 -4.015,24.289 0,4.28 -0.569,7.923 -1.494,9.567 -1.424,2.531 -5.513,24.166 -7.587,40.154 -0.536,4.125 -1.861,10.175 -2.946,13.444 -1.085,3.269 -1.973,7.896 -1.973,10.282 0,2.386 -1.317,7.812 -2.926,12.056 -13.716,36.173 -15.472,41.77 -16.565,52.806 -0.376,3.802 -1.155,8.712 -1.73,10.912 -0.574,2.2 -2.066,8.5 -3.313,14 -1.248,5.5 -2.731,11.35 -3.295,13 -4.815,14.076 -7.733,23.218 -9.613,30.109 -1.217,4.46 -3.582,10.33403 -5.256,13.05503 -1.674,2.72 -3.386,6.046 -3.804,7.391 -0.419,1.345 -4.109,9.195 -8.2,17.445 -6.292,12.687 -8.7,16.415 -15.618,24.178 -4.499,5.048 -11.278,11.573 -15.064,14.5 -3.787,2.927 -8.94,7.065 -11.453,9.195 -2.513,2.13 -8.64,6.92 -13.616,10.644 -10.625,7.952 -10.749,8.081 -17.802,18.592 -8.441,12.581 -17.76,24.497 -22.594,28.891 -2.42,2.2 -6.671,6.19 -9.446,8.867 -5.321,5.132 -20.712,17.589 -26.813,21.701 -4.861,3.277 -6.794,5.729 -19.752,25.062 -6.13,9.147 -11.82,17.189 -12.643,17.873 -0.823,0.683 -1.497,1.796 -1.497,2.473 0,2.328 -4.782,6.388 -8.796,7.469 -2.211,0.595 -6.198,2.556 -8.862,4.357 -2.663,1.802 -7.816,4.519 -11.45,6.039 -4.103,1.716 -8.083,4.312 -10.5,6.848 -17.082,17.927 -30.032,29.507 -37.058,33.139 -8.3,4.29 -20.298,17.19 -24.341,26.172 -2.395,5.323 -6.742,9.825 -12.103,12.537 -9.839,4.979 -19.573,12.82 -24.019,19.351 -2.404,3.532 -5.357,7.027 -6.562,7.767 -2.569,1.577 -14.409,15.512 -18.254,21.483 -3.092,4.802 -15.734,17.198 -21.555,21.136 -2.2,1.488 -9.553,7.435 -16.341,13.216 -6.788,5.78 -13.45,11.185 -14.805,12.01 -1.355,0.825 -4.544,4.65 -7.088,8.5 -15.975,24.185 -14.333,22.343 -24.442,27.408 -5.725,2.868 -7.615,4.413 -9.382,7.665 -1.217,2.241 -4.177,6.984 -6.578,10.541 -2.4,3.556 -6.389,9.748 -8.864,13.759 -2.475,4.01 -5.461,8.496 -6.635,9.967 -1.174,1.471 -3.096,5.787 -4.271,9.59 -1.174,3.803 -2.536,7.4 -3.025,7.993 -0.49,0.592 -1.205,2.763 -1.59,4.824 -0.385,2.06 -2.451,6.648 -4.59,10.195 -2.139,3.547 -3.889,6.828 -3.889,7.291 0,0.463 -1.539,4.547 -3.42,9.075 -2.675,6.438 -4.91,9.829 -10.249998,15.551 -6.822,7.31 -24.449,35.186 -26.556,41.997 -0.535,1.729 -2.281,5.844 -3.88,9.144 -4.492,9.27 -5.893,14.219 -5.909,20.876 -0.008,3.368 -0.652,7.924 -1.429,10.124 -0.98,2.771 -1.243,6.312 -0.854,11.527 0.385,5.179 0.051,9.762 -1.071,14.697 -0.897,3.944 -1.631,9.107 -1.631,11.474 0,5.079 2.19,15.467 4.6,21.813 2.293,6.04 1.377,10.243 -3.709,17.012 -2.255,3.001 -5.232,7.711 -6.615,10.467 -1.383,2.755 -4.546,7.874 -7.028,11.375 -2.482,3.5 -5.127,8.407 -5.879,10.903 -0.751,2.496 -2.425,5.932 -3.719,7.635 -3.462,4.555 -5.65,9.172 -5.65,11.922 0,4.093 -2.865,10.854 -7.581,17.891 -2.475,3.694 -4.942,6.989 -5.482,7.323 -1.871,1.156 -6.937,12.418 -6.937,15.422 0,1.66 -1.088,5.835 -2.418,9.278 -4.789,12.397 -3.99800001,31.478 1.551,37.416 1.302,1.393 5.385,4.299 9.073,6.457 9.257,5.418 9.794,6.4 9.794,17.908 v 9.574 l 3.998,3.904 3.998,3.904 14.252,-7.075 c 7.838,-3.891 16.144,-7.646 18.456,-8.345 5.061,-1.531 13.494,-0.737 17.071,1.606 1.947,1.276 3.777,1.505 8.028,1.005 7.503,-0.882 49.669998,-21.921 63.696998,-31.782 10.207,-7.176 28.351,-16.811 31.657,-16.811 1.008,0 9.011,-3.784 17.784,-8.408 8.773,-4.624 18.557,-9.383 21.743,-10.575 3.185,-1.192 6.247,-2.52 6.804,-2.951 0.557,-0.432 3.262,-1.604 6.012,-2.604 2.75,-1.001 6.125,-2.589 7.5,-3.53 5.413,-3.703 26.436,-12.911 31.699,-13.884 5.073,-0.938 13.737,-4.308 18.801,-7.313 5.525,-3.278 12.974,-6.735 14.514,-6.735 0.952,0 3.843,-0.934 6.423,-2.075 5.646,-2.498 8.796,-1.757 13.913,3.271 6.034,5.93 5.993,5.666 5.205,33.885 -0.622,22.239 -0.509,26.107 0.835,28.706 2.991,5.784 3.058,10.455 0.242,16.845 -1.422,3.227 -5.27,16.443 -8.551,29.368 -3.282,12.925 -7.144,26.875 -8.582,31 -6.827,19.571 -10.385,32.086 -11.086,39 -0.307,3.025 -1.153,7.075 -1.879,9 -2.192,5.812 -6.418,21.995 -7.966,30.5 -1.49,8.187 -10.974,33.609 -14.549,39 -1.095,1.65 -2.559,3.893 -3.255,4.984 -0.695,1.09 -2.501,3.872 -4.014,6.18 -2.27,3.464 -2.75,5.303 -2.75,10.542 0,3.491 -0.467,10.069 -1.037,14.619 -0.932,7.432 -0.778,9.534 1.521,20.689 1.406,6.83 3.67,15.695 5.03,19.702 2.165,6.378 2.472,9.025 2.473,21.284 0.001,7.7 -0.54,16.7 -1.201,20 -0.793,3.96 -1.216,17.903 -1.244,41 -0.042,35.236 -1.183,53.763 -4.083,66.312 -0.992,4.29 -1.461,12.138 -1.467,24.5 -0.007,18.66 -0.932,27.737 -3.568,35.03 -2.108,5.83 -8.104,39.699 -10.474,59.158 -0.536,4.4 -1.644,11.938 -2.462,16.75 -0.818,4.813 -1.487,10.663 -1.485,13 0.002,4.297 -1.893,14.016 -4.552,23.338 -0.998,3.499 -1.451,10.127 -1.451,21.227 0,14.872 -0.201,16.671 -2.554,22.912 -1.405,3.725 -2.961,9.698 -3.458,13.273 -0.497,3.575 -1.41,9.425 -2.03,13 -0.62,3.575 -1.426,10.144 -1.793,14.597 -0.366,4.453 -1.244,8.795 -1.952,9.647 -1.407,1.694 -9.866,4.756 -13.14,4.756 -1.128,0 -4.419,-0.9 -7.312,-1.999 -6.606,-2.511 -12.395,-2.53 -21.265,-0.071 -7.593,2.106 -11.202,5.212 -21.996,18.935 -8.025,10.202 -8.563,11.544 -7.858,19.613 0.744,8.517 1.875,10.231 2.777,4.212 0.368,-2.453 1.437,-5.147 2.375,-5.987 2.165,-1.939 12.306,-3.833 16.273,-3.04 2.225,0.445 3.6,0.074 5.226,-1.412 5.125,-4.684 15.651,-8.219 24.529,-8.239 3.905,-0.01 6.472,0.662 9.642,2.52 5.648,3.31 7.255,7.032 5.749,13.319 -0.613,2.557 -1.848,8.024 -2.746,12.149 -0.898,4.125 -2.051,8.546 -2.562,9.824 -0.511,1.279 -1.391,4.381 -1.954,6.894 -0.563,2.514 -2.578,7.222 -4.478,10.463 -1.899,3.241 -3.748,7.114 -4.107,8.606 -0.36,1.492 -1.868,5.188 -3.353,8.213 -1.484,3.025 -4.007,9.55 -5.606,14.5 -2.428,7.516 -2.891,10.566 -2.808,18.5 0.143,13.647 1.894,22.54 5.612,28.5 1.716,2.75 4.142,7.077 5.392,9.617 3.089,6.274 4.93,7.883 9.019,7.883 3.033,0 3.668,-0.45 4.945,-3.507 1.328,-3.177 1.274,-4.285 -0.572,-11.782 l -2.037,-8.276 2.109,-5.967 c 1.16,-3.283 2.493,-8.443 2.964,-11.468 1.279,-8.234 3.708,-20.234 4.555,-22.5 0.41,-1.1 1.938,-3.575 3.394,-5.5 5.449,-7.201 10.711,-16.691 12.478,-22.5 2.277,-7.488 7.636,-15.006 12.404,-17.401 8.778,-4.41 22.133,-5.043 46.638,-2.213 10.896,1.259 28.119,8.174 38.072,15.287 2.81,2.009 6.838,3.485 13,4.767 4.91,1.022 10.278,2.406 11.928,3.075 1.65,0.67 5.925,2.009 9.5,2.976 12.886,3.485 28.425,9.978 40.463,16.909 14.002,8.061 19.803,9.767 28.971,8.519 3.336,-0.455 10.647,-0.815 16.246,-0.802 9.308,0.023 10.522,0.251 14.172,2.666 2.195,1.453 5.667,5.166 7.715,8.252 2.685,4.045 3.959,5.242 4.563,4.288 1.419,-2.238 0.999,-4.111 -2.617,-11.656 -3.711,-7.743 -12.512,-17.278 -19.745,-21.392 -2.053,-1.168 -4.855,-3.819 -6.226,-5.89 -2.028,-3.065 -3.569,-4.079 -8.267,-5.44 -3.176,-0.92 -7.575,-2.282 -9.775,-3.027 -2.2,-0.746 -7.375,-1.863 -11.5,-2.482 -4.125,-0.62 -9.975,-1.966 -13,-2.992 -8.547,-2.898 -20.801,-9.743 -21.525,-12.023 -0.789,-2.487 1.913,-6.89 4.298,-7.002 0.95,-0.045 3.302,-0.176 5.227,-0.291 1.925,-0.116 9.967,-0.304 17.872,-0.419 l 14.372,-0.209 -1.45,-2.25 c -1.965,-3.049 -7.221,-5.448 -13.493,-6.16 -3.364,-0.381 -6.735,-1.626 -9.55,-3.525 -5.97,-4.03 -12.634,-6.46 -23.251,-8.483 -4.95,-0.942 -10.627,-2.134 -12.616,-2.648 -1.989,-0.514 -5.299,-0.934 -7.356,-0.934 -2.056,0 -6.279,-0.658 -9.384,-1.462 -3.104,-0.804 -9.694,-1.919 -14.644,-2.479 -9.183,-1.039 -27.595,-5.085 -35.251,-7.747 -2.778,-0.966 -5.522,-3.029 -7.917,-5.951 -2.016,-2.46 -5.129,-5.085 -6.918,-5.832 -2.438,-1.019 -4.274,-3.195 -7.335,-8.694 -2.246,-4.034 -4.579,-9.131 -5.184,-11.326 -0.606,-2.195 -2.068,-5.345 -3.248,-7 -1.696,-2.377 -2.198,-4.69 -2.391,-11.009 -0.134,-4.4 -1.005,-17.267 -1.936,-28.593 -1.364,-16.607 -1.473,-22.219 -0.565,-29 0.619,-4.624 1.837,-14.932 2.706,-22.907 0.869,-7.975 2.235,-19.225 3.035,-25 0.8,-5.775 2.119,-16.575 2.931,-24 2.634,-24.093 5.578,-44.285 7.209,-49.449 1.093,-3.462 1.826,-11.342 2.331,-25.051 0.405,-11 1.257,-21.35 1.894,-23 4.391,-11.379 7.411,-46.316 7.564,-87.5 l 0.114,-30.5 3.355,-9.5 c 3.241,-9.181 12.04,-27.929 14.549,-31 2.421,-2.965 5.734,-14.303 6.277,-21.485 0.525,-6.937 -1.269,-17.441 -3.875,-22.685 -1.756,-3.534 -4.148,-22.968 -4.559,-37.028 -0.342,-11.749 -0.086,-15.962 1.28,-21 0.94,-3.466 2.05,-9.453 2.467,-13.305 0.697,-6.439 8.842,-35.503 11.176,-39.88 1.459,-2.737 5.496,-17.877 7.235,-27.133 1.989,-10.592 15.079,-50.988 18.737,-57.822 0.554,-1.036 1.853,-4.935 2.887,-8.664 3.506,-12.653 5.714,-17.438 8.921,-19.332 2.04,-1.206 3.011,-2.566 3.011,-4.221 0,-1.343 1.755,-6.38 3.901,-11.194 2.145,-4.813 4.225,-10.326 4.622,-12.251 0.397,-1.925 1.983,-6.687 3.523,-10.583 1.54,-3.896 3.123,-8.8 3.516,-10.898 0.394,-2.098 3.087,-8.81 5.985,-14.917 4.026,-8.482 6.49,-12.282 10.442,-16.102 2.845,-2.75 6.033,-6.664 7.085,-8.698 2.211,-4.273 7.649,-8.91 15.16,-12.928 16.516,-8.834 22.984,-11.671 28.057,-12.305 4.864,-0.607 11.303,-2.624 25.709,-8.051 2.475,-0.932 8.775,-1.945 14,-2.25 7.545,-0.441 10.527,-1.088 14.491,-3.143 5.878,-3.046 15.657,-3.97 22.506,-2.126 6.124,1.649 9.785,5.896 15.965,18.518 4.205,8.59 6.776,12.309 13.372,19.343 12.787,13.636 19.58,23.119 27.485,38.365 4.026,7.763 8.576,15.951 10.113,18.195 4.241,6.192 6.62,11.329 9.07,19.58 1.225,4.125 3.467,9.975 4.982,13 1.516,3.025 3.989,9.1 5.497,13.5 1.508,4.4 3.533,9.575 4.501,11.5 0.969,1.925 2.296,6.618 2.95,10.429 0.654,3.81 1.577,7.654 2.052,8.541 0.475,0.888 1.374,5.34 1.997,9.893 0.624,4.554 2.696,12.635 4.606,17.958 5.465,15.233 9.229,28.09 10.404,35.535 0.595,3.771 3.543,13.221 6.552,21 3.009,7.779 7.533,19.544 10.055,26.144 2.521,6.6 6.322,16.5 8.447,22 5.026,13.014 9.475,28.627 11.541,40.5 0.91,5.225 2.337,12.65 3.173,16.5 1.185,5.457 1.608,16.469 1.921,49.967 0.354,37.763 0.598,43.182 2.016,44.749 0.887,0.981 2.128,3.813 2.759,6.295 1.01,3.979 2.893,6.16 15.916,18.435 8.124,7.657 17.102,16.981 19.95,20.721 2.848,3.739 8.685,10.147 12.97,14.24 5.943,5.677 9.451,10.238 14.793,19.235 3.852,6.487 7.405,12.042 7.896,12.346 1.987,1.228 10.527,14.425 13.274,20.512 1.614,3.575 4.155,7.85 5.647,9.5 2.622,2.898 10.099,14.674 10.099,15.906 0,1.402 12.867,26.1 17.502,33.594 1.87,3.025 5.981,9.55 9.135,14.5 3.154,4.95 7.832,13.05 10.396,18 2.563,4.95 6.96,12.6 9.77,17 2.81,4.4 7.914,12.95 11.342,19 3.428,6.05 7.723,13.244 9.544,15.987 1.821,2.742 3.311,5.507 3.311,6.144 0,0.636 2.548,4.917 5.662,9.513 8.133,12.004 16.102,29.26 20.753,44.941 2.363,7.967 6.078,15.188 13.266,25.781 2.375,3.502 4.319,6.807 4.319,7.346 0,1.853 7.267,16.291 10.965,21.786 2.037,3.026 5.24,8.867 7.119,12.979 3.233,7.076 3.415,8.068 3.404,18.5 -0.01,10.262 -0.241,11.558 -3.344,18.776 -4.467,10.391 -11.12,16.017 -25.835,21.848 -2.305,0.914 -5.377,2.594 -6.826,3.734 -1.45,1.14 -7.439,3.941 -13.309,6.225 -5.871,2.283 -11.523,4.891 -12.56,5.796 -3.409,2.972 -11.735,21.268 -11.409,25.067 0.319,3.7 2.795,5.635 2.795,2.183 0,-1.133 1.019,-2.728 2.265,-3.544 2.051,-1.344 2.892,-1.257 8.873,0.914 3.634,1.319 8.127,3.325 9.985,4.458 6.824,4.16 14.042,1.889 20.091,-6.321 6.267,-8.508 30.603,-24.613 37.191,-24.613 7.833,0 10.595,4.523 10.595,17.347 0,6.924 0.457,9.41 2.586,14.059 1.422,3.107 3.033,8.898 3.581,12.871 0.547,3.973 1.6,7.898 2.339,8.723 0.739,0.825 2.648,3.975 4.242,7 2.708,5.138 9.969,16.421 17.444,27.108 1.773,2.534 5.59,6.225 8.482,8.201 5.58696,3.817 14.41596,6.978 16.86696,6.037 0.811,-0.311 2.708,0.269 4.217,1.29 4.677,3.167 8.29,4.364 13.17,4.364 5.022,0 6.943,-1.413 12.064,-8.87 2.282,-3.322 2.394,-3.36 7.911,-2.712 4.808,0.565 6.202,1.251 9.886,4.866 4.607,4.521 6.163,4.185 6.196,-1.338 0.017,-2.829 -4.914,-11.202 -8.307,-14.106 -4.089,-3.499 -16.167,-8.469 -23.528,-9.681 -4.042,-0.666 -8.558,-1.836 -10.034,-2.599 -1.477,-0.764 -4.345,-1.7 -6.374,-2.081 -2.855,-0.535 -5.272,-2.357 -10.675,-8.046 -7.79896,-8.21 -10.61796,-12.993 -12.19896,-20.7 -1.294,-6.312 -1.207,-11.48 0.312,-18.483 l 1.138,-5.25 h 7.30596 c 6.362,0 7.449,0.267 8.412,2.068 0.609,1.138 3.864,3.85 7.234,6.028 3.37,2.178 9.248,7.348 13.063,11.487 3.815,4.14 9.363,9.08 12.33,10.978 2.967,1.898 7.294,5.157 9.616,7.243 2.322,2.085 5.571,4.634 7.221,5.664 4.258,2.659 12.385,9.478 15.698,13.172 2.826,3.152 13.946,10.295 21.161,13.595 2.267,1.037 6.24,1.765 9.628,1.765 3.172,0 9.017,0.734 12.989,1.631 6.39,1.443 8.083,2.363 14.715,8 7.929,6.737 9.351,7.214 14.778,4.947 3.099,-1.295 3.599,-1.253 5.586,0.47 1.201,1.041 3.008,2.155 4.017,2.475 2.294,0.728 8.853,9.549 9.837,13.23 1.053,3.936 3.424,3.422 4.511,-0.976 0.775,-3.139 0.343,-5.465 -2.75,-14.8 -2.019,-6.092 -3.67,-12.099 -3.67,-13.348 0,-4.478 -3.322,-12.197 -6.879,-15.985 -5.015,-5.34 -10.1,-8.398 -17.933,-10.786 -4.432,-1.351 -7.883,-3.188 -10.23,-5.448 -1.948,-1.876 -4.113,-3.41 -4.81,-3.41 -0.697,0 -6.729,-1.839 -13.404,-4.086 -13.907,-4.682 -25.204,-10.065 -26.117,-12.445 -1.424,-3.71 -0.618,-8.569 1.828,-11.014 2.853,-2.854 6.398,-3.124 12.545,-0.955 2.338,0.825 6.107,1.516 8.376,1.536 2.268,0.019 6.824,0.687 10.124,1.484 3.3,0.797 8.053,1.456 10.562,1.464 5.495,0.019 17.976,3.178 26.339,6.667 7.817,3.261 14.621,4.19 38.638,5.278 10.747,0.487 21.547,1.184 24,1.548 4.113,0.611 4.785,0.385 8.62,-2.907 2.287,-1.963 4.838,-3.57 5.667,-3.57 3.051,0 10.436,3.881 12.654,6.649 l 2.284,2.851 -0.702,-4 c -0.85,-4.849 -4.387,-10.303 -11.073,-17.076 -4.868,-4.932 -7.777,-6.429 -18.489,-9.513 -2.475,-0.713 -6.975,-2.672 -10,-4.353 -6.046,-3.361 -1.431,-2.882 -52,-5.407 -33.317,-1.664 -55.813,-7.905 -78.157,-21.68 -3.724,-2.296 -12.167,-6.319 -18.762,-8.939 -6.696,-2.66 -13.668,-6.183 -15.787,-7.976 -2.087,-1.767 -6.252,-4.527 -9.255,-6.134 -3.432,-1.836 -10.122,-7.566 -18.005,-15.422 -6.899,-6.875 -13.775,-13.296 -15.281,-14.268 -1.506,-0.972 -3.86996,-4.003 -5.25396,-6.734 -1.754,-3.462 -3.65,-5.546 -6.258,-6.88 -2.057,-1.052 -5.766,-3.676 -8.241,-5.83 -2.475,-2.154 -7.425,-5.674 -11,-7.822 -3.575,-2.148 -7.776,-5.269 -9.335,-6.936 -4.016,-4.293 -10.198,-13.477 -12.041,-17.887 -0.861,-2.06 -3.965,-7.435 -6.899,-11.944 -2.934,-4.51 -7.482,-12.924 -10.107,-18.699 -2.625,-5.775 -5.605,-12.3 -6.623,-14.5 -1.018,-2.2 -3.234,-7.503 -4.925,-11.783 -5.457,-13.811 -17.53,-36.003 -28.251,-51.932 -1.005,-1.493 -3.574,-6.218 -5.709,-10.5 -6.202,-12.437 -11.564,-22.579 -13.419,-25.38 -0.945,-1.428 -2.764,-5.253 -4.042,-8.5 -1.278,-3.248 -5.478,-11.08 -9.335,-17.405 -3.856,-6.325 -9.561,-16.225 -12.678,-22 -3.117,-5.775 -7.688,-12.975 -10.158,-16 -7.246,-8.877 -12.24,-16.769 -14.039,-22.185 -0.924,-2.782 -3.634,-8.362 -6.021,-12.399 -4.619,-7.813 -9.895,-18.613 -14.511,-29.704 -1.554,-3.733 -3.684,-8.008 -4.735,-9.5 -1.05,-1.492 -2.246,-3.793 -2.656,-5.114 -0.411,-1.321 -2.464,-6.136 -4.563,-10.7 -2.098,-4.564 -4.107,-10.458 -4.463,-13.098 -0.357,-2.64 -1.728,-8.175 -3.049,-12.3 -3.032,-9.474 -5.441,-20.986 -5.441,-25.999 0,-4.106 -2.425,-8.777 -11.161,-21.501 -2.643,-3.85 -6.501,-9.7 -8.572,-13 -2.072,-3.3 -5.837,-8.025 -8.367,-10.5 -3.314,-3.242 -6.212,-7.854 -10.369,-16.5 -7.923,-16.477 -15.14,-33.41 -16.006,-37.551 -0.397,-1.897 -1.827,-5.372 -3.179,-7.723 -2.387,-4.15 -2.897,-6.265 -5.838,-24.226 -0.765,-4.675 -2.266,-10.75 -3.334,-13.5 -1.069,-2.75 -2.269,-7.025 -2.667,-9.5 -0.397,-2.475 -2.718,-10.575 -5.156,-18 -2.437,-7.425 -4.677,-15.525 -4.976,-18 -0.299,-2.475 -1.14,-7.425 -1.869,-11 -0.729,-3.575 -1.852,-9.425 -2.494,-13 -0.643,-3.575 -1.98,-8.349 -2.972,-10.609 -0.992,-2.261 -2.569,-7.661 -3.505,-12 -0.937,-4.34 -2.378,-11.041 -3.204,-14.891 -0.826,-3.85 -2.741,-10.825 -4.256,-15.5 -6.951,-21.442 -7.524,-27.284 -7.552,-77 -0.029,-50.907 -1.072,-59.629 -10.535,-88.084 -4.506,-13.551 -5.238,-16.928 -6.05,-27.916 -0.508,-6.875 -1.563,-15.425 -2.343,-19 -0.781,-3.575 -2.167,-10.325 -3.079,-15 -0.913,-4.675 -2.415,-11.2 -3.338,-14.5 -1.113,-3.981 -1.655,-9.533 -1.61,-16.5 0.056,-8.818 0.479,-11.541 2.635,-17 3.612,-9.143 8.834,-19.89 15.169,-31.219 2.989,-5.345 6.389,-12.673 7.555,-16.283 1.167,-3.61 5.396,-12.962 9.399,-20.781 4.003,-7.819 8.758,-18.267 10.568,-23.217 4.63,-12.667 5.585,-14.745 11.943,-26 7.166,-12.687 11.058,-23.705 12.187,-34.5 0.488,-4.675 1.32,-9.939 1.847,-11.698 0.606,-2.018 0.617,-6.997 0.032,-13.5 -0.968,-10.748 -0.755,-14.022 1.609,-24.802 3.032,-13.824 4.966,-96.507 2.456,-105.007 -1.778,-6.023 -4.946,-28.211 -4.957,-34.724 -0.006,-3.428 -0.458,-9.278 -1.004,-13 -1.343,-9.151 -2.923,-25.891 -4.014,-42.518 -0.76,-11.595 -0.605,-15.765 0.985,-26.604 1.152,-7.848 2.917,-15.346 4.532,-19.251 3.664,-8.86 4.088,-15.638 1.967,-31.43 -1.583,-11.785 -1.658,-14.995 -0.607,-25.836 0.713,-7.355 2.405,-16.591 4.168,-22.755 1.632,-5.706 4.125,-16 5.54,-22.875 1.415,-6.875 3.413,-15.65 4.439,-19.5 2.154,-8.08 4.335,-20.132 5.972,-33 0.63,-4.95 1.543,-11.7 2.031,-15.00003 0.487,-3.3 1.387,-9.825 2,-14.5 0.613,-4.675 1.535,-10.938 2.048,-13.917 0.512,-2.979 0.93,-14.004 0.927,-24.5 -0.003,-10.496 0.462,-24.708 1.032,-31.583 1.482,-17.872 2.836,-36.999 3.963,-56 0.539,-9.075 1.64,-21.45 2.448,-27.5 2.398,-17.964 2.6,-26.899 1.616,-71.541 -0.637,-28.928 -0.608,-43.808 0.093,-46.5 2,-7.685 2.697,-26.472 1.242,-33.459 -0.745,-3.575 -1.365,-11.675 -1.378,-18 -0.012,-6.325 -0.695,-15.961 -1.517,-21.413 -0.822,-5.452 -1.494,-13.184 -1.494,-17.183 0,-3.999 -1.09,-13.263 -2.422,-20.587 -1.331,-7.325 -2.933,-19.167 -3.56,-26.317 -0.754,-8.612 -2.103,-16.207 -3.996,-22.5 -1.571,-5.225 -4.3,-14.675 -6.063,-21 -1.763,-6.325 -5.823,-18.475 -9.021,-27 -3.198,-8.525 -7.035,-20 -8.526,-25.5 -1.492,-5.5 -4.174,-12.937 -5.962,-16.526 -1.787,-3.589 -4.922,-10.991 -6.966,-16.45 -2.045,-5.458 -6.224,-14.446 -9.289,-19.974 -3.064,-5.527 -6.784,-13.294 -8.267,-17.259 -1.483,-3.966 -4.119,-9.007 -5.86,-11.205 -1.74,-2.197 -5.599,-9.159 -8.577,-15.471 -6.108,-12.951 -8.677,-21.964 -14.139,-49.615 -1.354,-6.859 -3.468,-35.703 -3.591,-49 -0.047,-5.088 1.056,-17.37 3.099,-34.5 0.459,-3.85 1.317,-8.35 1.907,-10 0.59,-1.65 1.364,-5.475 1.719,-8.5 0.355,-3.025 1.517,-7.471 2.582,-9.881 1.064,-2.41 2.375,-7.135 2.913,-10.5 2.393,-14.973 5.074,-20.772 15.861,-34.299 11.604,-14.552 21.664,-23.337 33.097,-28.903 15.847,-7.715 18.759,-8.629 29.208,-9.173 8.107,-0.421 10.82,-0.143 17,1.744 6.729,2.055 8.584,2.19 21.853,1.592 11.117,-0.502 15.783,-0.319 20,0.784 3.289,0.86 13.34,1.694 25,2.075 l 19.5,0.637 8.5,-3.073 c 11.123,-4.02 28.596,-9.299 38,-11.481 4.815,-1.117 9.47,-3.043 13.005,-5.381 7.018,-4.642 11.045,-6.313 23.995,-9.955 15.801,-4.445 27.304,-6.183 41.086,-6.21 6.828,-0.013 14.214,-0.491 16.414,-1.063 2.2,-0.572 14.12496,-1.232 26.49996,-1.467 12.881,-0.244 26.347,-1.056 31.5,-1.898 4.95,-0.809 14.24,-1.941 20.643,-2.514 18.236,-1.632 33.498,-5.911003 81.357,-22.806003 11,-3.883 21.575,-7.612 23.5,-8.286 5.184,-1.815 7,-3.799 7,-7.648 0,-2.943 -0.472,-3.593 -3.538,-4.874 -1.946,-0.813 -7.684,-1.879 -12.75,-2.369 -5.067,-0.49 -11.237,-1.344 -13.712,-1.897 -2.475,-0.554 -8.775,-1.296 -14,-1.649 -5.225,-0.353 -13.1,-1.253 -17.5,-2 -4.4,-0.747 -18.35,-1.626 -31,-1.953 -29.873,-0.774 -53.608,-2.367 -60.5,-4.06 -3.855,-0.948 -13.556,-1.388 -32.42796,-1.473 -14.811,-0.067 -27.411,-0.424 -28,-0.793 -1.121,-0.703 -29.781,-2.42 -37.572,-2.251 -2.475,0.053 -7.65,-0.57 -11.5,-1.385 -13.345,-2.826 -25.058,-4.754 -37,-6.089 -13.218,-1.478 -17.686,-2.737 -30.941,-8.718 -4.917,-2.218 -14.142,-5.359 -20.5,-6.979 -6.357,-1.62 -18.309,-4.687 -26.559,-6.815 -26.965,-6.9540005 -29.928,-7.6810005 -36.06,-8.8420005 -6.023,-1.13999997 -28.634,-1.61999997 -29.625,-0.62899997 M 4.168842,1758.6191 c -0.356,0.927 -0.422,1.911 -0.147,2.186 0.275,0.275 0.791,-0.259 1.147,-1.186 0.356,-0.927 0.422,-1.911 0.147,-2.186 -0.275,-0.275 -0.791,0.259 -1.147,1.186"
     stroke="none"
     fill="#000000"
     fill-rule="evenodd"
     id="path2" />
</svg>
