<?xml version="1.0" encoding="UTF-8" standalone="no"?>
<!-- Created with Inkscape (http://www.inkscape.org/) -->

<svg
   version="1.1"
   width="198.76849"
   height="459.67261"
   viewBox="0 0 198.76849 459.67262"
   id="svg2"
   xml:space="preserve"
   xmlns="http://www.w3.org/2000/svg"
   xmlns:svg="http://www.w3.org/2000/svg"><defs
   id="defs10" />
<g
   id="Layer_1"
   transform="translate(-23.314843,-16.638844)">
</g>
<g
   id="Layer_2"
   transform="translate(-23.314843,-16.638844)">
	<path
   d="m 103.85,475.68 c -1,-0.48 -1.24,-1.82 -1.26,-1.95 -0.1,-0.59 0.03,-0.92 0.11,-1.49 0.13,-0.94 -0.02,-1.71 -0.34,-3.21 -0.52,-2.41 -0.88,-2.34 -1.26,-4.24 -0.37,-1.87 -0.35,-3.61 -0.34,-3.9 0.03,-1.91 0.35,-2.46 -0.11,-3.44 -0.27,-0.58 -0.7,-1.05 -0.57,-1.72 0.08,-0.45 0.33,-0.56 0.57,-1.03 0.33,-0.66 0.19,-1.13 0.11,-2.41 -0.1,-1.67 0.11,-1.59 0,-3.1 -0.08,-1.15 -0.21,-1.26 -0.34,-2.41 -0.16,-1.35 -0.4,-3.51 0.34,-5.85 0.25,-0.78 0.69,-1.09 0.92,-2.06 0.19,-0.83 0.09,-1.26 0.11,-2.18 0.04,-1.65 0.39,-1.97 0.57,-3.55 0.19,-1.62 -0.13,-1.67 -0.11,-3.78 0.02,-2.29 0.39,-2.55 0.57,-5.27 0.08,-1.19 -0.02,-0.72 0,-4.24 0.02,-3.94 0.15,-4.46 -0.11,-5.96 -0.24,-1.4 -0.46,-1.57 -0.57,-2.87 -0.12,-1.38 0.02,-2.35 0.23,-3.9 0.7,-5.17 0.66,-4.81 0.69,-5.39 0.15,-2.72 -0.22,-3.18 0.23,-4.93 0.14,-0.53 0.36,-1.22 0.46,-2.29 0.09,-0.97 0.02,-1.5 0,-2.41 -0.03,-1.42 0.11,-2.29 0.23,-3.44 0.38,-3.75 -0.06,-4.83 0.23,-11.12 0.07,-1.5 0.17,-3.04 -0.34,-5.04 -0.28,-1.08 -0.56,-1.64 -0.92,-2.52 -0.6,-1.48 -0.89,-2.65 -2.06,-9.29 -0.87,-4.93 -0.71,-4.29 -0.92,-5.27 -0.74,-3.43 -1.32,-4.69 -2.29,-8.03 -1.62,-5.59 -1.12,-5.99 -2.41,-10.2 -1.01,-3.29 -2.06,-5.48 -3.67,-8.83 -1.52,-3.17 -3.95,-8.15 -8.14,-14.1 -4.06,-5.76 -7.84,-9.61 -10.78,-12.61 -3.79,-3.87 -8.5,-8.16 -9.86,-9.4 -1.92,-1.75 -3.82,-3.52 -5.73,-5.27 -4.68,-4.29 -5.08,-4.62 -5.85,-5.73 -1.69,-2.45 -1.73,-3.76 -3.67,-5.16 -0.77,-0.56 -1.68,-1.01 -2.64,-2.18 -0.77,-0.94 -0.88,-1.48 -1.49,-2.64 -2.05,-3.9 -4.23,-4.19 -4.59,-6.88 -0.07,-0.54 -0.06,-1.09 -0.34,-1.95 -0.41,-1.21 -0.88,-1.43 -1.38,-2.52 -0.67,-1.46 -0.09,-1.65 -0.69,-3.21 -0.6,-1.56 -1.25,-1.54 -1.72,-3.1 -0.29,-0.96 -0.03,-0.92 -0.34,-2.29 -0.24,-1.07 -0.58,-1.86 -1.15,-3.21 -0.65,-1.53 -0.74,-1.51 -0.92,-2.18 -0.3,-1.18 -0.07,-1.53 -0.23,-2.87 -0.16,-1.39 -0.45,-1.35 -0.92,-3.32 -0.13,-0.55 -0.45,-1.92 -0.57,-3.67 -0.15,-2.13 0.13,-2.73 -0.46,-3.55 -0.54,-0.75 -1.1,-0.71 -1.38,-1.49 -0.23,-0.67 0.12,-0.91 0.11,-2.18 0,-1.12 -0.27,-1.97 -0.34,-2.18 -0.37,-1.1 -0.71,-1.09 -1.03,-2.18 -0.28,-0.94 -0.04,-1.02 -0.34,-1.72 -0.2,-0.47 -0.34,-0.51 -1.26,-1.72 -0.57,-0.75 -0.85,-1.13 -0.92,-1.38 -0.19,-0.74 0.2,-1.02 0.11,-2.06 -0.04,-0.47 -0.14,-0.79 -0.34,-1.38 -0.38,-1.11 -0.65,-1.23 -1.03,-2.29 -0.32,-0.89 -0.49,-1.37 -0.34,-1.95 0.16,-0.61 0.55,-0.8 1.15,-1.49 0.83,-0.96 0.65,-1.25 1.38,-2.29 0.84,-1.21 1.2,-0.98 2.98,-2.87 0.83,-0.88 1.25,-1.33 1.49,-1.95 0.4,-1.02 0.09,-1.44 0.57,-2.29 0.47,-0.84 0.89,-0.64 1.61,-1.61 0.75,-1.01 0.44,-1.42 1.15,-2.18 0.68,-0.73 1.01,-0.4 1.83,-1.15 0.98,-0.88 0.71,-1.51 1.72,-2.29 0.71,-0.56 0.87,-0.25 1.49,-0.8 0.88,-0.78 0.67,-1.47 1.61,-2.18 0.5,-0.38 0.64,-0.24 1.15,-0.69 0.42,-0.37 0.45,-0.57 1.03,-1.38 0.8,-1.1 0.92,-0.97 1.15,-1.49 0.37,-0.86 0.04,-1.24 0.46,-1.72 0.33,-0.38 0.63,-0.25 1.38,-0.57 1.13,-0.49 1.79,-1.38 1.95,-1.61 0.66,-0.9 0.38,-1.22 1.03,-1.95 0.6,-0.67 0.9,-0.46 1.61,-1.15 0.83,-0.8 0.53,-1.18 1.38,-2.18 0.84,-0.99 1.38,-0.89 1.72,-1.72 0.27,-0.66 -0.01,-0.87 0.23,-1.61 0.3,-0.92 0.86,-0.97 1.49,-1.83 1.07,-1.46 0.96,-3.37 0.92,-4.13 0,0 0,-0.05 -0.23,-2.06 0.52,-0.7 0.72,-1.35 0.8,-1.72 0.33,-1.51 -0.25,-2.79 -0.34,-2.98 -0.37,-0.78 -0.68,-0.82 -0.8,-1.49 -0.14,-0.75 0.21,-0.94 0.11,-1.72 -0.02,-0.18 -0.1,-0.65 -0.92,-1.83 -0.83,-1.2 -0.99,-1.07 -1.38,-1.72 -0.98,-1.64 -0.12,-2.74 -1.15,-3.78 -0.44,-0.44 -0.74,-0.39 -1.26,-1.03 -0.44,-0.54 -0.4,-0.79 -0.8,-1.49 -0.7,-1.23 -1.17,-1.09 -1.61,-2.06 -0.1,-0.22 -0.63,-1.43 -0.11,-2.18 0.35,-0.5 0.83,-0.3 1.38,-0.92 0.46,-0.52 0.22,-0.79 0.69,-1.38 0.42,-0.53 0.7,-0.41 1.38,-1.03 0.4,-0.37 0.63,-0.71 0.92,-1.15 0.55,-0.83 0.48,-1.03 1.03,-1.83 0.35,-0.52 0.35,-0.4 0.8,-1.03 0.61,-0.87 0.62,-1.11 1.03,-1.49 0.56,-0.51 0.77,-0.28 1.26,-0.69 0.98,-0.82 0.38,-1.96 1.38,-2.98 0.53,-0.55 0.8,-0.31 1.26,-0.92 0.54,-0.7 0.34,-1.22 0.92,-1.72 0.48,-0.41 0.73,-0.17 1.15,-0.57 0.6,-0.59 0.24,-1.27 0.8,-1.72 0.4,-0.32 0.65,-0.03 1.26,-0.34 0.55,-0.28 0.83,-0.75 1.26,-1.49 0.55,-0.93 0.49,-1.24 0.92,-1.49 0.54,-0.31 0.85,0.06 1.26,-0.23 0.64,-0.45 0.07,-1.5 0.8,-2.29 0.38,-0.41 0.66,-0.26 0.92,-0.69 0.32,-0.52 -0.02,-0.89 0.23,-1.61 0.21,-0.62 0.51,-0.52 0.8,-1.15 0.36,-0.79 -0.02,-1.17 0.23,-2.06 0.19,-0.69 0.5,-0.77 1.03,-1.61 0.28,-0.43 0.86,-1.46 1.03,-2.75 0.06,-0.48 0.34,-2.59 -0.8,-3.55 -0.4,-0.34 -0.66,-0.27 -1.03,-0.69 -0.51,-0.58 -0.43,-1.17 -0.57,-1.95 -0.38,-2.01 -1.68,-2.1 -1.72,-3.78 -0.01,-0.29 -0.03,-1.1 0.46,-1.83 0.43,-0.65 0.84,-0.62 1.15,-1.26 0.36,-0.77 0.17,-1.61 0.11,-1.83 -0.18,-0.77 -0.51,-0.88 -0.46,-1.38 0.03,-0.26 0.14,-0.49 0.92,-1.26 1,-0.99 1.22,-1.02 1.72,-1.61 0.75,-0.87 0.45,-1.05 1.03,-1.61 0.87,-0.84 1.57,-0.45 2.52,-1.26 0.65,-0.55 0.41,-0.8 1.15,-1.72 0.64,-0.8 0.94,-0.76 2.64,-2.06 1.17,-0.9 1.77,-1.36 2.29,-2.06 0.58,-0.78 0.43,-0.92 1.15,-2.29 1.2,-2.3 1.91,-2.43 2.18,-3.9 0.08,-0.43 0.24,-1.32 -0.11,-2.29 -0.27,-0.73 -0.57,-0.82 -0.92,-1.72 -0.16,-0.42 -0.44,-1.17 -0.34,-2.06 0.1,-0.96 0.5,-0.89 0.69,-1.95 0.13,-0.75 0.07,-1.57 0,-2.52 -0.05,-0.61 -0.1,-0.94 0.11,-1.26 0.25,-0.38 0.55,-0.26 1.03,-0.69 0.53,-0.46 0.42,-0.8 0.92,-1.26 0.39,-0.36 0.7,-0.38 1.15,-0.57 0.7,-0.31 0.91,-0.69 1.95,-1.83 1.56,-1.72 1.65,-1.48 2.52,-2.64 0.21,-0.28 0.75,-1.01 1.26,-2.06 0.39,-0.8 0.58,-1.21 0.57,-1.72 -0.01,-0.95 -0.59,-1.1 -0.69,-2.06 -0.09,-0.91 0.42,-0.96 0.57,-2.18 0.19,-1.47 -0.48,-2.07 0,-2.75 0.31,-0.44 0.63,-0.25 1.38,-0.8 0.64,-0.48 0.72,-0.85 1.38,-1.72 0.98,-1.29 1.23,-1.02 1.95,-2.06 0.41,-0.59 1.07,-1.55 1.03,-2.75 -0.03,-0.85 -0.37,-0.84 -0.69,-2.29 -0.2,-0.93 -0.46,-2.11 0.11,-2.64 0.34,-0.31 0.63,-0.08 1.15,-0.46 0.44,-0.32 0.37,-0.59 0.92,-1.38 0.54,-0.78 0.74,-0.71 1.03,-1.26 0.08,-0.16 0.22,-0.45 0.34,-1.72 0.17,-1.7 0,-1.82 0.23,-2.52 0.25,-0.77 0.69,-1.33 0.92,-1.61 0.77,-0.95 1.32,-1.03 1.38,-1.61 0.06,-0.61 -0.55,-0.74 -0.57,-1.49 -0.02,-0.41 0.3,-0.89 0.92,-1.83 0.62,-0.94 0.7,-0.9 1.03,-1.49 0.53,-0.94 0.35,-1.07 0.8,-1.72 0.38,-0.55 0.79,-0.86 1.49,-1.38 0.63,-0.47 0.95,-0.71 1.26,-0.69 0,0 0.37,0.02 1.49,1.03 0.1,0.32 0.28,0.81 0.57,1.38 0.36,0.7 0.51,0.77 0.69,1.26 0.15,0.43 0.18,0.86 0.23,1.72 0.07,1.13 -0.03,1.21 0.11,1.61 0.14,0.37 0.26,0.39 0.92,1.26 0.57,0.75 0.85,1.12 0.92,1.38 0.24,0.88 -0.37,1.2 -0.11,2.06 0.11,0.39 0.23,0.3 0.8,1.26 0.47,0.79 0.38,0.82 0.69,1.26 0.6,0.85 0.94,0.73 1.26,1.38 0.32,0.63 0.26,1.29 0.23,1.72 -0.06,0.74 -0.26,0.87 -0.34,1.61 -0.07,0.69 0.03,1.22 0.11,1.61 0.4,1.95 1.73,3.33 1.95,3.55 1.05,1.07 1.75,1.12 2.18,2.18 0.1,0.23 0.3,0.74 0.23,1.38 -0.06,0.57 -0.28,0.7 -0.69,1.72 -0.32,0.8 -0.48,1.22 -0.46,1.72 0.01,0.25 0.07,0.57 0.57,1.49 0.6,1.1 0.81,1.19 1.49,2.29 0.7,1.15 0.7,1.43 1.26,1.95 0.3,0.27 0.32,0.22 1.03,0.8 0.35,0.29 0.77,0.64 1.26,1.15 0.54,0.56 0.44,0.56 0.8,0.92 0.94,0.91 1.49,0.77 1.95,1.49 0.31,0.49 0.33,0.99 0.34,1.38 0.04,0.95 -0.32,1.68 -0.46,1.95 -0.29,0.56 -0.44,0.55 -0.8,1.26 -0.27,0.53 -0.4,0.96 -0.46,1.15 -0.15,0.52 -0.3,1.04 -0.23,1.72 0.04,0.33 0.08,0.73 0.34,1.15 0.35,0.55 0.69,0.49 1.03,1.03 0.24,0.39 0.09,0.46 0.34,1.15 0.19,0.52 0.29,0.51 0.8,1.49 0.47,0.89 0.42,0.96 0.69,1.26 0.36,0.41 0.51,0.35 0.92,0.8 0.35,0.39 0.27,0.48 0.69,1.03 0.41,0.54 0.53,0.53 0.92,1.03 0.49,0.65 0.33,0.72 0.69,1.15 0.59,0.69 1.03,0.47 1.61,1.15 0.43,0.5 0.22,0.67 0.69,1.26 0.44,0.56 0.69,0.49 1.38,1.15 0.45,0.43 0.34,0.45 1.03,1.26 0.85,0.99 1.05,0.99 1.26,1.49 0.04,0.11 0.32,0.8 0.11,1.61 -0.15,0.57 -0.37,0.55 -0.69,1.26 -0.34,0.76 -0.15,0.94 -0.46,1.83 -0.26,0.75 -0.43,0.72 -0.8,1.61 -0.3,0.7 -0.42,1.24 -0.57,1.95 -0.24,1.11 -0.37,1.72 -0.23,2.52 0.07,0.41 0.15,0.8 0.46,1.15 0.39,0.43 0.68,0.28 1.26,0.69 0.82,0.58 1.11,1.49 1.15,1.61 0.19,0.63 -0.01,0.78 0.23,1.26 0.25,0.5 0.53,0.49 1.03,1.03 0.46,0.5 0.67,1.01 0.92,1.61 0.42,1.02 0.28,1.29 0.69,1.72 0.38,0.4 0.58,0.25 1.03,0.69 0.47,0.46 0.39,0.76 0.8,1.38 0.32,0.47 0.41,0.37 1.38,1.26 0.55,0.51 0.51,0.54 1.49,1.49 0.64,0.62 0.82,0.77 1.03,0.92 0.62,0.43 0.78,0.36 1.26,0.69 0.64,0.44 0.64,0.76 1.38,1.61 0.32,0.37 0.71,0.71 1.49,1.38 1.24,1.07 1.47,1.1 1.95,1.72 0.49,0.63 0.37,0.75 0.8,1.15 0.64,0.59 1.03,0.44 1.61,1.03 0.47,0.49 0.31,0.69 0.8,1.15 0.62,0.58 1.02,0.4 1.26,0.8 0.2,0.34 0.02,0.67 -0.61,2.37 -0.57,1.54 -0.55,1.59 -0.84,2.22 -0.51,1.09 -0.63,0.97 -0.84,1.61 -0.41,1.2 0.01,1.56 -0.38,2.6 -0.31,0.82 -0.65,0.78 -1.15,1.68 -0.46,0.83 -0.28,1.06 -0.69,2.75 -0.54,2.23 -1.08,2.77 -0.84,4.05 0.09,0.47 0.16,0.39 0.31,1.07 0.31,1.44 0.01,1.95 0.46,2.68 0.33,0.54 0.54,0.33 0.92,0.92 0.38,0.58 0.25,0.91 0.54,2.14 0.19,0.8 0.28,1.2 0.54,1.68 0.45,0.86 0.78,0.82 1.22,1.76 0.22,0.47 0.24,0.7 0.54,0.99 0.35,0.35 0.62,0.32 0.99,0.61 0.32,0.25 0.46,0.54 0.76,1.3 0.8,1.99 0.63,1.94 0.92,2.37 0.57,0.86 0.92,0.61 1.61,1.61 0.54,0.79 0.36,1.02 0.92,1.61 0.47,0.5 0.81,0.56 1.15,1.15 0.24,0.43 0.13,0.51 0.38,0.92 0.36,0.59 0.66,0.52 1.07,1.07 0.29,0.39 0.14,0.42 0.61,1.38 0.31,0.62 0.47,0.94 0.76,1.15 0.38,0.27 0.58,0.15 0.92,0.46 0.33,0.31 0.25,0.53 0.54,0.84 0.38,0.41 0.76,0.28 1.3,0.54 0.15,0.07 0.43,0.23 1.38,1.83 0.61,1.04 0.64,1.22 1.15,1.99 0.71,1.08 1.03,1.28 1.22,1.38 0.54,0.28 0.83,0.13 1.22,0.46 0.42,0.35 0.38,0.76 0.61,1.3 0.24,0.56 0.8,0.96 1.91,1.76 1.18,0.85 1.77,1.27 2.68,1.53 0.96,0.27 1.27,0.09 1.68,0.46 0.71,0.65 0.53,1.94 0.46,2.45 -0.17,1.19 -0.6,1.22 -1.15,3.06 -0.28,0.93 -0.23,1.14 -0.54,1.83 -0.37,0.84 -0.68,1.09 -1.07,1.76 -0.54,0.94 -0.41,1.3 -0.84,2.68 -0.75,2.41 -1.52,2.51 -1.83,4.43 -0.14,0.83 0.05,0.55 -0.08,2.22 -0.04,0.5 -0.09,1.01 -0.61,4.28 -0.21,1.32 -0.28,1.73 -0.38,2.52 -0.04,0.34 -0.14,1.09 -0.23,2.06 -0.14,1.46 -0.08,1.38 -0.15,1.91 -0.31,2.33 -1.27,2.88 -0.92,4.2 0.09,0.32 0.29,0.83 0.54,1.3 0.07,0.14 0.3,0.55 0.69,1.07 0.67,0.89 0.91,0.87 1.38,1.53 0.4,0.56 0.22,0.58 0.76,1.61 0.65,1.24 0.87,1.13 1.07,1.83 0.23,0.81 0,1.11 0.38,1.68 0.24,0.36 0.43,0.38 0.69,0.84 0.25,0.45 0.18,0.62 0.38,0.99 0.25,0.46 0.56,0.56 0.99,0.92 0.56,0.47 0.45,0.65 1.22,1.68 0.78,1.04 0.9,0.86 1.61,1.83 0.6,0.83 0.59,1.07 1.07,1.45 0.6,0.47 0.83,0.27 1.53,0.69 0.86,0.51 0.72,0.94 1.83,1.99 0.59,0.56 0.58,0.39 1.53,1.22 0.59,0.52 1.12,1.05 1.45,1.38 0.73,0.73 0.73,0.78 1.07,1.07 0.66,0.57 0.94,0.61 1.61,1.07 0.56,0.39 0.45,0.42 2.22,2.14 0.88,0.85 1.32,1.29 1.61,1.45 0.52,0.31 0.92,0.41 1.38,0.92 0.29,0.32 0.29,0.46 0.61,0.76 0.38,0.36 0.61,0.37 1.15,0.69 0.59,0.35 0.58,0.48 1.45,1.15 0.75,0.57 0.8,0.5 1.22,0.84 0.75,0.6 0.78,0.97 1.68,2.14 0.15,0.19 0.07,0.08 1.68,1.91 1.38,1.56 1.42,1.63 1.68,1.83 0.75,0.6 1.09,0.62 1.76,1.3 0.27,0.27 0.49,0.56 0.92,1.15 0.79,1.07 0.82,1.3 1.3,1.68 0.47,0.38 0.57,0.25 1.07,0.69 0.61,0.52 0.55,0.78 0.99,0.99 0.56,0.27 0.82,-0.06 1.38,0.23 0.29,0.15 0.23,0.25 0.84,0.84 0.3,0.29 0.55,0.53 0.92,0.76 0.58,0.37 0.68,0.23 1.15,0.53 0.49,0.33 0.41,0.51 1.07,1.15 0.65,0.63 0.78,0.49 1.07,0.92 0.19,0.28 0.3,0.67 0.54,1.45 0.13,0.45 0.2,0.68 0.23,0.84 0.1,0.54 0.01,1.09 -0.76,2.83 -0.6,1.34 -0.66,1.27 -0.99,2.14 -0.25,0.65 -0.44,1.17 -0.61,1.91 -0.25,1.1 -0.15,1.45 -0.54,1.91 -0.38,0.46 -0.67,0.35 -0.99,0.84 -0.28,0.43 -0.17,0.67 -0.38,1.45 -0.2,0.74 -0.39,0.83 -0.61,1.45 -0.3,0.86 -0.16,1.32 -0.23,2.14 -0.16,1.91 -1.1,1.84 -1.3,3.67 -0.14,1.25 0.27,1.52 0,2.98 -0.16,0.88 -0.33,0.89 -0.46,1.68 -0.25,1.53 0.33,1.85 0.23,3.13 -0.14,1.84 -1.4,1.96 -1.38,3.67 0.01,1.18 0.61,1.3 0.46,2.45 -0.12,0.95 -0.56,1.12 -0.76,2.37 -0.09,0.59 0,0.58 -0.08,1.76 -0.07,1.12 -0.17,1.45 -0.23,2.14 -0.12,1.51 0.23,1.8 0.23,3.06 0,1.83 -0.73,3.3 -1.22,4.28 -0.63,1.26 -1.15,1.72 -1.61,3.13 -0.09,0.29 -0.22,0.71 -0.46,1.38 -0.29,0.79 -0.57,1.41 -0.76,1.83 -1.07,2.3 -1.74,3.02 -2.75,5.27 -0.54,1.21 -0.72,1.84 -1.45,3.21 -0.27,0.51 -0.57,1.06 -0.99,1.68 -0.86,1.25 -1.65,1.92 -2.37,2.6 -2.54,2.42 -4.32,4.12 -4.74,6.27 -0.09,0.49 -0.2,1.41 -0.92,1.99 -0.43,0.34 -0.76,0.3 -1.45,0.69 -0.68,0.38 -1.08,0.82 -1.45,1.22 -0.64,0.7 -0.95,1.28 -2.37,4.2 -0.75,1.54 -0.79,1.64 -0.99,1.91 -0.42,0.55 -0.84,0.91 -2.6,2.22 -0.95,0.7 -1.42,1.06 -1.99,1.45 -2.03,1.43 -2.5,1.67 -3.36,2.29 -1.37,0.98 -4,2.86 -5.89,5.81 -0.51,0.8 -0.74,1.33 -1.45,1.91 -1.04,0.86 -1.75,0.72 -3.21,1.83 -0.46,0.35 -0.87,0.66 -1.3,1.22 -0.66,0.87 -0.52,1.25 -1.15,1.99 -0.51,0.61 -0.63,0.38 -1.68,1.3 -0.76,0.67 -1.29,1.3 -1.61,1.68 -0.48,0.58 -0.58,0.78 -0.92,1.22 -0.31,0.4 -0.67,0.82 -2.83,2.68 -1.7,1.47 -1.87,1.55 -2.22,2.06 -0.4,0.59 -0.25,0.59 -1.07,2.06 -0.68,1.21 -1.04,1.69 -1.38,2.06 -0.44,0.49 -0.47,0.4 -1.07,0.99 -0.67,0.66 -1.58,1.56 -2.14,2.9 -0.29,0.71 -0.16,0.76 -0.46,1.3 -0.41,0.75 -0.76,0.84 -1.53,1.76 -0.24,0.28 -0.72,0.87 -1.15,1.68 -0.45,0.86 -0.34,1.03 -0.76,1.91 -0.22,0.46 -0.28,0.48 -1.3,1.99 -1.11,1.65 -1.25,1.95 -1.38,2.29 -0.18,0.52 -0.07,0.45 -0.38,1.68 -0.12,0.47 -0.31,1.23 -0.61,2.06 -0.42,1.16 -0.56,1.1 -0.84,1.91 -0.48,1.38 -0.18,1.85 -0.54,3.29 -0.16,0.66 -0.33,0.97 -0.99,2.37 -0.29,0.61 -1.54,3.24 -2.45,5.35 -0.79,1.85 -1.53,3.75 -1.53,3.75 -0.73,1.88 -0.95,2.61 -1.68,3.67 -0.49,0.71 -0.7,0.82 -0.99,1.45 -0.48,1.02 -0.32,1.52 -0.61,2.98 -0.25,1.26 -0.62,2.17 -0.92,2.9 -0.56,1.38 -1.16,2.33 -1.38,2.68 -1.35,2.21 -2.17,4.93 -3.06,7.87 -0.96,3.19 -1.32,5.54 -1.91,9.4 -1.21,7.87 -0.46,8.26 -1.68,11.31 -0.47,1.17 -1.27,2.84 -1.53,5.27 -0.07,0.69 -0.17,2.1 -0.15,3.75 0.01,0.82 0.04,0.97 0.08,2.6 0.06,2.48 0.01,3.35 -0.61,3.97 -0.13,0.13 -0.37,0.26 -0.84,0.54 -1.34,0.77 -1.73,0.67 -2.52,1.15 -0.48,0.29 -0.98,0.88 -1.99,2.06 -0.62,0.73 -0.77,0.99 -1.38,1.61 -0.66,0.67 -0.75,0.64 -1.22,1.15 -0.94,1.01 -0.71,1.29 -1.45,2.06 -0.82,0.86 -1.19,0.59 -2.29,1.61 -0.9,0.83 -0.64,0.99 -1.3,1.45 -1.19,0.83 -2.09,0.35 -2.83,1.22 -0.43,0.51 -0.4,1.01 -0.76,1.07 -0.49,0.09 -0.73,-0.77 -1.38,-0.76 -0.57,0 -1.08,0.66 -1.3,1.07 -0.28,0.53 -0.18,0.85 -0.46,0.99 -0.22,0.11 -0.41,-0.01 -1.15,-0.23 -0.95,-0.34 -0.9,-0.23 -1.17,-0.36 z"
   id="path6" />
</g>
</svg>
