<?xml version="1.0" encoding="UTF-8" standalone="no"?>
<!-- Created with Inkscape (http://www.inkscape.org/) -->

<svg
   version="1.0"
   width="212.96597pt"
   height="129.3pt"
   viewBox="0 0 212.96597 129.3"
   id="svg2"
   xmlns="http://www.w3.org/2000/svg"
   xmlns:svg="http://www.w3.org/2000/svg">
  <defs
     id="defs12" />
  <g
     transform="matrix(0.1,0,0,-0.1,-36.971779,142.3)"
     id="g6"
     style="fill:#000000;stroke:none">
    <path
       d="m 1130,1380 c -17,-21 -37,-37 -44,-34 -7,3 -25,-11 -40,-31 -15,-19 -33,-35 -40,-35 -7,0 -25,-13 -40,-29 -15,-15 -45,-34 -68,-40 C 810,1184 696,1096 520,918 449,846 393,783 396,779 c 3,-5 -2,-9 -10,-9 -35,0 -10,-74 41,-122 41,-38 208,-137 267,-158 28,-10 72,-27 97,-39 26,-11 70,-24 99,-28 50,-8 55,-11 92,-63 132,-186 142,-199 175,-215 17,-8 34,-15 38,-15 14,0 -2,207 -19,240 l -16,32 31,-6 c 18,-3 49,-6 71,-6 34,0 47,-8 95,-52 46,-44 55,-49 50,-29 -5,21 -1,20 34,-15 38,-37 39,-38 39,-13 0,34 8,41 34,27 32,-17 251,-19 311,-3 81,23 155,113 155,190 0,76 -40,114 -138,130 -24,4 -41,9 -39,12 12,11 156,43 197,43 65,-1 134,-28 226,-92 131,-90 231,-108 261,-47 17,32 16,132 -1,197 -13,46 -13,59 0,94 18,53 18,151 -1,188 -27,52 -52,49 -208,-23 -165,-77 -225,-88 -324,-63 -33,9 -82,26 -109,38 -48,22 -48,23 -19,26 50,5 115,34 127,56 6,11 14,54 18,96 9,84 2,106 -47,153 -38,36 -131,46 -215,24 -50,-13 -58,-13 -71,1 -14,13 -19,13 -51,-6 -35,-21 -36,-21 -36,-2 0,26 -15,25 -33,0 -16,-23 -27,-16 -27,17 0,28 -11,29 -35,3 -21,-24 -35,-18 -35,16 0,26 -9,31 -27,13 -13,-13 -33,-4 -33,17 0,21 -28,17 -35,-6 -10,-30 -25,-24 -25,10 0,39 -12,38 -44,-2 l -26,-33 v 34 34 l -25,-23 -25,-23 v 21 c 0,32 -14,27 -50,-18 z"
       id="path8" />
  </g>
</svg>
