<?xml version="1.0" standalone="no"?>
<!DOCTYPE svg PUBLIC "-//W3C//DTD SVG 20010904//EN"
 "http://www.w3.org/TR/2001/REC-SVG-20010904/DTD/svg10.dtd">
<svg version="1.0" xmlns="http://www.w3.org/2000/svg"
 width="590.000000pt" height="760.000000pt" viewBox="0 0 590.000000 760.000000"
 preserveAspectRatio="xMidYMid meet">
<metadata>
Created by potrace 1.16, written by Peter Selinger 2001-2019
</metadata>
<g transform="translate(0.000000,760.000000) scale(0.100000,-0.100000)"
fill="#000000" stroke="none">
<path d="M1045 7578 c-41 -14 -85 -57 -85 -82 0 -39 -11 -44 -74 -35 -59 8
-86 4 -86 -12 0 -5 -15 -15 -34 -23 -47 -19 -139 -79 -166 -108 -26 -27 -70
-120 -70 -148 0 -16 -5 -18 -37 -13 -21 3 -53 11 -71 20 -22 10 -47 12 -80 7
-88 -12 -104 -24 -160 -121 -48 -83 -56 -92 -102 -112 -58 -25 -76 -53 -66
-104 8 -44 32 -65 87 -76 142 -30 162 -46 199 -154 23 -64 30 -74 69 -96 34
-19 49 -36 72 -85 16 -33 29 -67 29 -74 0 -7 16 -66 35 -132 19 -66 35 -124
35 -131 0 -6 13 -38 28 -72 16 -34 36 -98 46 -142 10 -44 28 -114 41 -155 13
-41 33 -109 45 -150 11 -41 40 -138 64 -215 24 -77 56 -185 71 -240 15 -55 38
-120 52 -145 13 -25 51 -135 83 -245 33 -110 75 -252 95 -315 20 -63 37 -131
37 -150 0 -35 25 -129 78 -295 43 -132 87 -285 95 -325 4 -19 24 -87 45 -150
36 -111 68 -218 109 -365 27 -95 56 -191 75 -245 25 -72 98 -321 107 -367 5
-24 15 -55 22 -70 8 -16 27 -73 42 -128 15 -55 35 -127 45 -160 10 -33 27 -89
38 -125 43 -142 182 -452 340 -760 74 -146 165 -323 202 -395 36 -71 82 -155
102 -185 19 -30 54 -89 77 -130 70 -125 241 -291 436 -425 164 -112 216 -134
313 -135 33 0 92 44 92 69 0 6 4 11 10 11 5 0 14 19 21 43 9 36 46 116 94 206
8 13 32 44 55 68 22 24 46 56 53 71 6 15 29 51 49 81 21 30 38 58 38 63 0 5
11 24 24 41 13 18 34 52 47 77 13 25 27 47 31 50 4 3 23 36 42 73 19 38 39 74
44 80 6 7 28 46 50 87 73 139 90 169 109 197 11 15 36 62 58 103 21 41 55 105
76 142 22 36 39 71 39 77 0 6 4 11 8 11 5 0 39 60 76 133 38 72 79 150 92 172
13 22 23 47 24 55 0 27 34 84 72 121 28 28 38 46 43 85 3 27 12 60 20 74 40
75 85 171 85 183 0 3 15 39 34 79 23 49 36 96 41 141 4 37 10 67 15 67 4 0 14
24 21 53 6 28 18 61 24 72 7 11 18 45 25 75 6 30 22 75 35 100 12 25 26 61 30
80 4 19 15 60 25 90 10 30 21 78 25 105 3 28 17 73 31 102 13 28 24 63 24 77
0 14 4 26 9 26 4 0 14 28 21 63 8 34 19 71 26 82 7 11 15 40 19 65 4 25 11 50
15 55 4 6 14 30 21 55 7 25 19 54 26 65 7 11 13 26 13 35 0 8 7 29 16 45 8 17
20 55 25 85 9 49 21 85 52 145 5 11 18 57 28 104 10 46 23 89 28 95 6 7 16 46
22 87 7 40 16 76 20 79 10 7 29 80 29 115 1 17 9 48 20 70 11 22 19 46 20 53
0 7 9 33 20 57 11 25 23 65 27 90 3 25 9 45 13 45 9 0 26 72 36 150 3 30 11
58 16 61 5 3 16 46 23 95 8 49 21 121 30 159 12 59 35 210 35 234 0 4 18 26
40 49 29 30 40 50 40 72 0 57 39 104 96 114 17 4 39 15 49 26 12 13 25 18 40
14 16 -4 32 3 54 23 25 23 32 40 40 91 9 56 7 75 -14 155 -21 77 -30 96 -61
124 -20 17 -48 34 -63 38 -46 9 -255 -1 -280 -14 -36 -20 -107 4 -145 48 -17
20 -65 72 -108 116 -43 44 -91 99 -106 122 -16 24 -46 60 -68 81 -46 45 -114
135 -114 151 0 6 -18 23 -40 37 -35 23 -50 27 -117 26 -124 0 -195 -44 -257
-155 -46 -82 -26 -137 51 -137 18 0 33 -4 33 -9 0 -5 15 -12 33 -16 47 -10
189 -80 211 -104 11 -12 23 -21 28 -21 10 0 61 -51 98 -98 14 -18 30 -32 35
-32 11 -1 75 -91 75 -107 0 -6 11 -26 24 -46 13 -19 30 -60 36 -90 14 -62 12
-65 -65 -122 -22 -16 -46 -36 -54 -43 -11 -11 -29 -13 -71 -8 -48 6 -61 3 -90
-16 -81 -55 -92 -107 -43 -197 l35 -63 -11 -75 c-6 -43 -7 -81 -2 -91 8 -17
-25 -280 -48 -372 -6 -25 -29 -178 -51 -340 -64 -461 -79 -566 -105 -705 -13
-71 -26 -159 -30 -195 -4 -36 -15 -83 -25 -105 -10 -22 -25 -105 -35 -185 -11
-95 -25 -166 -41 -205 -13 -33 -38 -105 -54 -160 -17 -55 -60 -190 -95 -300
-35 -110 -71 -227 -80 -260 -15 -53 -150 -404 -240 -620 -18 -44 -50 -125 -70
-180 -21 -55 -50 -127 -65 -160 -99 -210 -404 -842 -460 -955 -37 -74 -71
-145 -75 -157 -3 -13 -11 -23 -16 -23 -12 0 -11 7 1 30 6 10 10 38 11 62 0 45
21 221 40 344 6 40 8 77 5 83 -4 6 -4 16 0 22 3 6 8 68 10 138 6 179 57 821
67 837 5 10 15 142 22 324 2 41 9 167 16 280 7 113 12 327 11 475 -1 149 3
353 8 455 6 102 12 253 15 335 3 83 10 202 16 265 5 63 11 149 13 190 4 78 13
193 20 270 9 83 15 184 26 398 10 188 12 279 10 414 0 21 11 60 25 88 14 27
25 56 25 63 0 15 -101 97 -120 97 -14 0 -13 7 6 57 13 34 26 48 60 65 42 21
137 93 238 181 75 66 79 82 56 233 -14 94 -24 133 -38 147 -23 23 -152 50
-203 43 -20 -3 -49 -13 -65 -21 -16 -8 -37 -15 -46 -15 -9 0 -19 -4 -22 -9 -4
-5 -24 -5 -48 1 -24 5 -81 12 -128 14 -128 6 -145 11 -214 57 -20 14 -62 31
-92 38 -47 11 -60 10 -89 -4 -18 -9 -44 -30 -56 -47 -13 -16 -27 -30 -33 -30
-5 0 -17 -6 -25 -14 -9 -7 -47 -18 -85 -24 -76 -12 -102 -30 -142 -98 -27 -46
-49 -144 -40 -180 4 -13 22 -40 40 -59 19 -19 37 -50 40 -69 4 -19 13 -39 21
-46 8 -7 15 -18 15 -25 0 -20 52 -57 72 -52 10 3 18 1 18 -3 0 -5 10 -12 23
-16 12 -4 39 -21 59 -38 20 -17 48 -40 62 -51 14 -11 28 -25 30 -32 5 -12 -27
-46 -88 -96 -26 -21 -27 -26 -16 -48 7 -13 22 -35 35 -49 17 -20 26 -51 40
-150 9 -69 24 -156 32 -195 8 -38 23 -123 33 -188 11 -66 23 -133 29 -150 5
-18 12 -66 15 -107 10 -110 34 -366 51 -515 8 -71 16 -159 19 -195 3 -36 11
-85 17 -110 13 -52 17 -136 24 -460 8 -348 12 -448 24 -520 29 -184 29 -2080
0 -2220 -6 -25 -10 -62 -9 -82 0 -20 -4 -39 -10 -43 -5 -3 -10 2 -10 12 0 37
-69 690 -74 704 -3 7 -19 147 -36 309 -26 255 -100 766 -115 790 -3 4 -25 133
-50 287 -80 505 -96 596 -100 604 -9 14 -63 374 -85 569 -12 107 -33 258 -47
335 -29 165 -83 485 -118 710 -39 246 -73 415 -95 466 -33 79 -25 237 17 297
27 41 32 112 8 132 -8 7 -15 18 -15 24 0 7 -14 25 -31 42 -29 28 -34 29 -135
31 -92 1 -109 4 -148 27 -25 14 -48 26 -52 26 -9 0 -85 34 -129 58 -16 9 -52
33 -80 55 l-49 39 -86 -6 c-203 -12 -251 -28 -291 -92 -18 -29 -19 -39 -9 -68
11 -35 108 -128 147 -140 11 -4 68 1 125 10 56 10 113 17 125 17 27 -1 132
-42 154 -60 8 -7 21 -13 27 -13 7 0 12 -6 12 -12 0 -7 15 -23 34 -36 39 -26
53 -66 34 -90 -40 -53 -104 -127 -111 -131 -17 -7 -57 -82 -57 -108 -2 -56 87
-543 104 -567 9 -14 16 -37 16 -50 0 -14 11 -55 24 -90 30 -79 86 -335 121
-546 14 -85 31 -180 39 -210 15 -57 60 -316 96 -550 11 -74 32 -191 45 -260
14 -69 38 -210 55 -315 80 -500 100 -614 146 -835 8 -41 28 -145 45 -230 16
-85 54 -231 84 -325 29 -93 66 -215 80 -270 15 -55 37 -129 50 -165 37 -107
61 -189 95 -315 17 -66 40 -148 51 -182 30 -96 27 -100 -33 -57 -101 71 -144
122 -209 243 -34 64 -74 136 -89 161 -71 120 -309 642 -395 865 -25 66 -53
136 -62 155 -9 19 -46 125 -84 235 -37 110 -75 220 -84 245 -10 25 -21 72 -26
105 -4 33 -18 94 -29 135 -12 41 -26 102 -31 135 -6 33 -28 114 -51 180 -22
66 -46 145 -53 175 -7 30 -38 127 -68 215 -63 181 -127 417 -127 464 0 17 -18
86 -41 154 -22 67 -41 138 -41 157 1 19 -14 87 -33 150 -19 67 -31 126 -28
142 3 17 -10 76 -36 155 -79 248 -98 318 -112 413 -11 67 -28 139 -59 245 -17
57 -30 117 -51 233 -5 28 -14 76 -19 105 -6 28 -15 84 -21 122 -23 148 -27
171 -37 220 -6 28 -13 73 -16 100 -7 79 -25 187 -36 220 -6 16 -13 64 -16 105
-3 41 -14 130 -26 198 -13 80 -16 127 -10 135 27 34 33 85 17 142 -19 64 -56
95 -113 95 -40 0 -66 13 -102 50 -48 50 -47 71 11 184 29 56 70 126 93 156 22
30 41 57 43 59 1 2 32 10 69 17 118 25 170 88 144 171 -15 47 -44 79 -92 104
-42 21 -42 21 -83 7z"/>
</g>
</svg>
