<?xml version="1.0" standalone="no"?>
<!DOCTYPE svg PUBLIC "-//W3C//DTD SVG 20010904//EN"
 "http://www.w3.org/TR/2001/REC-SVG-20010904/DTD/svg10.dtd">
<svg version="1.0" xmlns="http://www.w3.org/2000/svg"
 width="1340.000000pt" height="1536.000000pt" viewBox="0 0 1340.000000 1536.000000"
 preserveAspectRatio="xMidYMid meet">
<metadata>
Created by potrace 1.16, written by Peter Selinger 2001-2019
</metadata>
<g transform="translate(0.000000,1536.000000) scale(0.100000,-0.100000)"
fill="#000000" stroke="none">
<path d="M1839 15348 c0 -2 -4 -145 -9 -318 -9 -322 -34 -625 -70 -845 -11
-66 -24 -208 -29 -315 -8 -172 -13 -207 -40 -295 -31 -104 -267 -954 -326
-1177 -31 -113 -138 -378 -341 -836 l-28 -63 38 -307 c28 -222 47 -343 72
-437 19 -71 49 -188 66 -260 28 -113 45 -155 130 -323 54 -106 109 -219 122
-252 35 -86 67 -123 197 -226 64 -51 134 -114 155 -141 74 -91 127 -134 229
-184 111 -53 502 -210 784 -315 l185 -68 160 18 c89 9 251 30 361 45 181 26
210 33 305 73 58 25 113 48 122 51 22 8 22 19 4 252 -7 94 -13 171 -12 172 2
2 329 -487 334 -499 2 -5 -11 -8 -30 -8 -73 -1 -176 -33 -377 -119 -117 -50
-215 -91 -218 -91 -32 0 -206 -121 -259 -181 -57 -64 -175 -259 -299 -493
-219 -413 -294 -539 -347 -579 -18 -14 -73 -48 -122 -76 -100 -57 -157 -102
-402 -313 -197 -170 -191 -160 -322 -475 -86 -205 -102 -264 -102 -382 0 -64
-5 -86 -31 -141 -17 -36 -86 -182 -153 -325 -68 -143 -148 -301 -179 -352 -72
-115 -220 -263 -327 -326 -267 -158 -575 -334 -695 -398 -127 -67 -149 -83
-241 -174 -55 -55 -111 -114 -123 -132 l-22 -32 23 -6 c16 -4 72 13 167 50
208 82 468 145 641 155 74 5 169 17 210 27 117 28 520 24 945 -11 447 -36 767
-65 845 -76 133 -19 172 -16 630 62 l245 42 300 -23 c165 -12 354 -27 420 -33
l120 -10 75 30 c115 45 224 79 347 107 101 23 129 25 315 23 193 -1 213 0 413
35 116 21 226 42 245 49 56 18 368 165 402 189 17 12 51 54 76 93 25 39 66 98
90 131 103 141 177 334 236 620 44 210 145 595 156 595 3 0 66 -24 140 -54
l135 -54 22 -123 c29 -170 28 -197 -12 -324 -19 -60 -52 -173 -73 -250 l-38
-139 -50 -41 c-28 -22 -104 -77 -170 -122 -72 -50 -175 -135 -259 -215 -77
-73 -171 -160 -208 -193 l-68 -60 -74 -242 c-87 -283 -87 -286 -121 -638 -14
-148 -32 -292 -40 -319 -9 -27 -49 -115 -89 -195 -62 -123 -87 -160 -156 -236
-45 -49 -176 -198 -292 -330 -239 -271 -448 -485 -813 -828 -365 -343 -807
-801 -1050 -1087 -114 -135 -300 -353 -413 -485 -113 -132 -212 -248 -219
-257 -12 -15 -3 -30 77 -121 l91 -105 163 -62 c209 -80 200 -78 222 -43 10 15
83 111 161 213 239 310 483 593 647 749 446 424 577 554 856 856 168 181 389
415 490 520 102 104 241 254 310 332 l126 141 65 167 c36 92 68 168 71 170 3
2 34 -46 70 -108 35 -62 79 -129 98 -150 19 -21 100 -86 180 -144 161 -118
196 -146 353 -279 109 -93 132 -104 214 -104 17 0 87 -18 155 -39 68 -21 149
-41 179 -44 112 -11 277 -84 423 -188 100 -71 147 -120 147 -152 0 -59 211
-359 334 -475 72 -68 106 -82 204 -82 82 0 249 -33 352 -68 30 -11 118 -48
195 -82 77 -34 182 -80 234 -101 51 -22 119 -54 150 -73 81 -50 195 -76 327
-76 l108 0 53 -55 c28 -31 68 -62 88 -71 24 -10 110 -20 238 -29 246 -18 497
-48 677 -81 74 -14 167 -28 205 -31 102 -8 355 32 355 55 -1 27 -98 60 -384
132 -171 43 -340 90 -376 104 -36 15 -121 62 -190 104 l-125 79 -70 129 c-102
187 -219 378 -281 460 -31 41 -89 98 -134 134 -92 70 -104 91 -136 215 -27
104 -30 193 -9 317 7 48 19 190 25 315 l12 228 -36 139 c-26 102 -50 167 -88
243 l-53 104 -87 46 -88 45 -99 137 c-54 75 -106 150 -115 168 -30 60 -15 249
28 346 13 30 29 93 35 140 6 47 21 112 32 144 38 107 44 525 9 617 -14 39
-161 271 -224 356 -40 53 -75 87 -125 120 -37 25 -129 102 -204 173 l-135 127
-176 45 c-160 41 -187 45 -294 45 -116 0 -360 -14 -459 -26 l-52 -6 -136 -167
c-76 -91 -141 -167 -144 -169 -8 -3 -35 176 -34 224 1 17 34 113 74 213 67
169 76 185 118 220 25 21 51 40 57 44 28 16 223 46 339 52 72 4 180 13 240 21
70 9 204 14 366 14 141 0 303 5 360 10 147 15 355 55 489 94 63 18 119 32 123
29 15 -9 116 -220 131 -274 8 -30 20 -88 26 -129 20 -123 28 -135 116 -177 82
-39 103 -58 229 -203 99 -115 173 -184 328 -308 129 -103 96 -87 522 -242 141
-51 197 -77 262 -122 29 -19 43 -24 43 -15 0 7 6 22 14 32 13 18 16 18 112 -4
59 -14 146 -45 214 -77 110 -51 120 -53 240 -64 130 -11 170 -19 257 -52 35
-13 53 -25 53 -36 0 -25 -45 -88 -115 -162 -34 -36 -86 -106 -117 -155 -42
-69 -87 -121 -183 -215 -89 -88 -155 -164 -220 -255 -102 -142 -112 -153 -200
-213 -88 -59 -121 -99 -161 -193 -60 -143 -261 -391 -408 -504 -41 -31 -103
-91 -137 -133 -35 -43 -86 -102 -115 -133 -57 -60 -76 -105 -53 -120 21 -13
26 -12 66 25 28 24 51 35 88 40 36 4 66 17 105 46 101 73 174 108 338 164 89
30 204 72 255 92 63 26 116 39 168 44 81 7 83 8 259 105 66 36 118 59 140 60
19 0 53 7 76 14 36 12 44 11 67 -4 25 -16 29 -16 91 6 55 20 70 22 95 12 26
-9 38 -7 87 17 40 20 63 26 78 21 11 -5 34 -4 49 2 21 7 40 6 69 -4 35 -11 55
-11 147 5 157 26 270 54 326 80 82 38 175 116 251 210 l72 89 -5 276 c-4 237
-9 304 -34 471 -16 106 -29 210 -29 228 0 19 13 76 29 126 53 164 58 204 39
315 -20 117 -85 289 -157 416 -28 49 -67 132 -87 183 -76 197 -319 690 -388
787 -11 17 -95 127 -186 245 -92 118 -247 323 -347 455 -99 132 -198 256 -219
276 -88 83 -482 289 -678 354 -184 62 -532 135 -685 144 -75 5 -156 5 -181 1
-25 -4 -166 -30 -313 -58 l-268 -51 -82 -50 c-137 -83 -163 -120 -197 -278
-20 -96 -21 -103 -4 -135 46 -91 196 -281 260 -329 l43 -32 -55 -23 c-30 -12
-61 -28 -70 -35 -45 -37 -84 -173 -84 -290 0 -60 -4 -90 -13 -98 -34 -27 -172
-74 -272 -92 -60 -10 -146 -25 -191 -33 -222 -40 -622 -51 -1009 -27 l-190 12
-155 -45 c-85 -25 -157 -42 -161 -38 -3 4 -16 55 -29 114 -32 149 -26 228 25
337 37 78 39 81 72 81 44 0 103 31 137 70 23 28 26 41 26 102 0 133 62 275
204 468 112 151 159 220 151 220 -38 0 -293 -187 -371 -272 -17 -18 -64 -80
-105 -138 -79 -112 -114 -199 -179 -440 -25 -93 -31 -105 -55 -113 -14 -5 -28
-7 -30 -5 -3 2 9 53 26 114 16 60 39 170 50 244 60 392 123 663 178 764 22 39
60 132 86 206 76 218 230 609 344 874 l21 49 35 -39 c25 -28 44 -67 65 -134
17 -52 34 -100 38 -106 11 -16 96 -64 115 -64 8 0 50 23 92 51 84 55 133 75
300 119 61 16 126 34 145 40 37 11 459 -13 790 -45 206 -20 268 -19 332 5 90
34 251 138 450 292 177 136 211 158 403 256 l210 107 52 115 c113 250 112 243
101 710 -6 228 -11 293 -38 470 -50 320 -38 400 98 643 83 149 86 156 133 345
l49 193 0 198 c0 251 -10 309 -104 598 -68 209 -87 285 -152 623 -2 14 0 111
5 215 9 188 10 192 80 472 67 269 91 411 91 537 l0 51 -20 -33 c-12 -19 -78
-136 -147 -260 -139 -250 -131 -239 -323 -472 -75 -91 -175 -213 -223 -272
-98 -120 -219 -223 -832 -708 -181 -144 -343 -274 -359 -288 -15 -15 -90 -99
-164 -187 -75 -88 -193 -225 -262 -304 l-125 -145 -10 35 c-17 58 -18 58 -113
53 l-87 -6 -75 45 -75 45 -175 12 c-96 6 -176 12 -177 14 -1 1 9 19 23 39 55
81 74 134 81 218 l6 82 -64 -7 c-35 -4 -81 -12 -101 -18 -42 -12 -132 -88
-169 -142 -23 -34 -27 -36 -79 -36 -50 0 -140 29 -140 45 0 3 15 24 32 46 29
36 33 49 36 114 2 40 0 80 -4 88 -5 8 -32 33 -60 55 l-51 40 -6 82 c-8 99 -17
113 -66 104 -61 -11 -90 -32 -116 -84 -14 -27 -36 -57 -50 -66 -24 -15 -27
-14 -91 23 -37 21 -81 46 -98 56 -32 18 -63 17 -118 -5 -22 -8 -28 -17 -28
-41 0 -33 -96 -210 -110 -202 -5 3 -12 27 -16 53 -8 56 -38 147 -59 179 -8 12
-35 34 -60 48 -43 26 -49 27 -142 20 -92 -7 -99 -10 -123 -37 -78 -93 -116
-128 -180 -172 -60 -41 -75 -48 -89 -38 -82 60 -123 71 -184 51 -114 -38 -146
-100 -147 -284 0 -97 5 -137 24 -209 l25 -88 -37 7 c-48 9 -55 17 -82 99 -21
64 -22 79 -15 231 l7 164 -32 45 c-36 50 -83 76 -145 84 -37 4 -44 1 -69 -29
-25 -29 -27 -39 -22 -78 l6 -45 -95 -94 c-52 -52 -95 -97 -95 -101 0 -3 -9
-60 -20 -126 -11 -66 -20 -123 -20 -128 0 -4 -34 19 -74 52 -81 64 -132 86
-176 78 -15 -4 -80 -40 -143 -82 l-116 -76 -31 -94 c-25 -76 -60 -236 -60
-279 0 -33 -13 17 -29 111 -46 265 -63 335 -92 367 -30 35 -170 116 -389 227
-127 64 -155 83 -228 153 -83 80 -83 82 -108 171 -25 89 -94 233 -124 259 -8
8 -74 32 -147 55 -72 23 -155 52 -185 65 -29 13 -111 40 -183 60 -73 21 -162
54 -202 76 -84 45 -573 403 -619 452 -50 54 -495 776 -535 868 -51 118 -175
420 -183 446 -8 27 -162 148 -167 132z m3449 -4390 c7 -7 12 -27 12 -45 0 -31
-2 -33 -34 -33 -36 0 -46 12 -46 55 0 33 44 47 68 23z m22 -364 l41 -17 -50
-33 c-28 -19 -53 -34 -56 -34 -6 0 0 41 11 83 6 21 4 21 54 1z m-110 -348 c0
-7 47 -55 105 -106 112 -98 144 -134 165 -190 22 -56 52 -95 106 -138 35 -28
57 -55 73 -91 12 -28 25 -51 29 -52 4 0 56 -10 117 -22 124 -25 121 -22 151
-137 23 -92 14 -133 -45 -195 l-48 -51 -12 -119 c-7 -66 -14 -126 -16 -132 -9
-28 -87 -11 -434 93 l-213 64 -142 0 c-144 0 -299 -11 -464 -32 l-93 -12 -47
54 c-26 30 -77 87 -113 127 -42 47 -88 114 -128 186 -33 62 -61 116 -61 120 0
3 38 -7 85 -23 147 -50 223 -62 353 -59 111 4 121 6 153 31 365 291 343 264
416 525 42 152 63 204 63 159z m1259 -652 c86 -64 131 -117 150 -179 19 -60
19 -61 -5 -200 -31 -180 -30 -215 6 -395 21 -104 29 -174 28 -232 -1 -61 3
-92 15 -115 9 -18 17 -34 17 -38 0 -15 -52 -1 -92 25 -44 29 -196 194 -210
228 -11 26 -48 297 -48 352 0 78 -19 147 -57 203 -37 55 -77 128 -71 131 2 1
15 7 31 14 51 22 25 82 -53 122 l-53 27 79 12 c45 7 104 24 139 40 75 37 80
37 124 5z m416 -264 c1 -191 3 -230 18 -257 9 -17 26 -56 37 -86 30 -81 99
-115 131 -66 9 12 31 24 56 28 l41 8 6 -36 c3 -20 6 -75 6 -123 0 -115 13
-130 103 -126 l62 3 0 42 c0 36 6 48 44 87 25 25 46 44 48 42 2 -1 -17 -201
-42 -442 -61 -588 -86 -902 -111 -1354 -5 -98 -9 -121 -18 -107 -6 10 -34 53
-62 95 -27 43 -53 85 -57 96 -4 10 -2 56 4 102 12 80 11 87 -16 166 -38 114
-44 124 -101 166 -57 43 -56 43 -113 287 -47 200 -50 218 -97 655 -42 383 -53
666 -34 875 13 141 20 168 53 203 l22 23 9 -28 c5 -15 10 -129 11 -253z m1166
-257 l20 -32 -29 -43 c-62 -91 -291 -629 -385 -908 -39 -115 -52 -178 -92
-435 -28 -176 -58 -333 -73 -380 l-26 -80 -9 185 c-13 298 -3 576 27 780 14
96 33 297 42 445 9 149 18 272 20 274 2 2 27 -6 55 -18 71 -29 108 -27 157 9
50 36 68 63 78 115 5 31 23 56 77 112 l70 73 24 -33 c13 -17 33 -47 44 -64z
m-1326 -1218 c10 -55 27 -117 37 -137 10 -21 18 -41 18 -46 0 -14 -227 -42
-340 -42 l-105 1 45 37 c108 90 239 214 275 261 26 34 41 47 46 39 3 -7 15
-58 24 -113z m382 -1117 l72 -71 -25 -20 c-25 -19 -25 -19 -114 3 -50 12 -90
24 -90 27 0 10 72 133 78 133 4 0 39 -32 79 -72z"/>
</g>
</svg>
