<?xml version="1.0" standalone="no"?>
<!DOCTYPE svg PUBLIC "-//W3C//DTD SVG 20010904//EN"
 "http://www.w3.org/TR/2001/REC-SVG-20010904/DTD/svg10.dtd">
<svg version="1.0" xmlns="http://www.w3.org/2000/svg"
 width="1475.000000pt" height="1536.000000pt" viewBox="0 0 1475.000000 1536.000000"
 preserveAspectRatio="xMidYMid meet">
<metadata>
Created by potrace 1.16, written by Peter Selinger 2001-2019
</metadata>
<g transform="translate(0.000000,1536.000000) scale(0.100000,-0.100000)"
fill="#000000" stroke="none">
<path d="M9090 15336 c-85 -62 -137 -86 -244 -111 -67 -15 -132 -38 -164 -56
-61 -34 -264 -228 -346 -328 -77 -95 -102 -152 -151 -347 -62 -242 -93 -307
-204 -414 -81 -79 -90 -91 -115 -164 -30 -86 -54 -128 -126 -220 -111 -144
-124 -188 -124 -441 l-1 -190 -43 -91 c-45 -99 -62 -165 -62 -251 0 -68 -16
-104 -74 -172 -87 -100 -102 -148 -115 -357 -10 -175 -24 -220 -98 -316 -93
-121 -116 -246 -99 -521 11 -183 5 -232 -49 -358 -51 -118 -73 -199 -90 -334
-12 -98 -21 -131 -47 -180 -81 -154 -82 -157 -82 -219 0 -34 3 -93 8 -132 8
-70 8 -72 -29 -143 -21 -39 -41 -71 -46 -71 -13 0 -39 43 -50 85 -6 22 -29 83
-51 135 l-41 95 7 200 c8 242 4 259 -90 396 -97 143 -106 200 -84 557 l9 153
-46 69 c-51 77 -49 54 -23 240 14 97 4 197 -31 340 -16 63 -29 136 -29 162 0
64 -12 91 -69 151 -26 29 -53 61 -59 72 -6 11 -18 74 -27 140 -21 152 -47 227
-118 339 -58 91 -69 116 -109 246 -21 69 -27 78 -83 123 -33 26 -144 100 -248
164 -279 171 -308 203 -368 391 -41 130 -67 162 -133 162 l-46 0 0 -227 0
-226 103 -201 c109 -212 124 -252 133 -369 l7 -73 -39 -33 c-81 -69 -98 -87
-115 -126 -25 -53 -24 -142 1 -230 35 -123 33 -132 -123 -455 -191 -398 -238
-608 -223 -999 7 -183 14 -214 60 -274 14 -18 37 -58 50 -88 30 -64 33 -113
21 -301 -6 -96 -5 -138 5 -174 18 -62 79 -125 145 -147 72 -25 85 -41 85 -102
0 -100 -59 -375 -80 -375 -6 0 -10 3 -10 6 0 31 -45 246 -59 284 -20 52 -196
360 -240 420 -14 19 -47 60 -73 92 -74 86 -110 154 -157 291 -35 104 -51 135
-92 183 -119 143 -142 173 -178 239 -114 207 -241 332 -542 538 -86 59 -182
133 -213 165 -32 31 -91 112 -134 182 -84 136 -171 235 -216 246 -18 4 -48 1
-81 -10 -29 -9 -59 -14 -66 -10 -8 3 -41 39 -74 81 -33 41 -75 87 -93 101 -33
25 -35 25 -103 14 -111 -19 -136 -16 -188 22 -72 53 -85 53 -171 2 l-75 -44
-225 -5 c-237 -6 -332 -20 -378 -54 -31 -23 -105 -145 -128 -211 -21 -62 -30
-205 -15 -259 23 -84 70 -95 166 -36 94 57 206 56 386 -3 305 -100 712 -494
1139 -1104 41 -58 106 -148 145 -200 40 -52 78 -111 86 -130 7 -19 36 -73 65
-120 163 -270 694 -1299 694 -1346 0 -15 -63 52 -205 216 -79 91 -163 184
-187 206 -101 97 -206 159 -373 219 -173 64 -189 73 -331 206 -106 99 -159
135 -314 215 -102 52 -126 70 -219 162 -57 56 -115 109 -130 116 -40 21 -96
34 -223 50 -128 16 -161 29 -253 101 -105 83 -166 103 -420 145 -167 27 -217
42 -345 100 -163 74 -208 84 -400 83 -235 -1 -508 -42 -545 -83 -38 -42 20
-91 155 -130 161 -46 212 -66 404 -157 110 -52 232 -105 272 -118 149 -49 231
-111 260 -198 27 -80 342 -533 509 -732 176 -208 623 -624 848 -789 413 -301
756 -496 1459 -830 103 -49 206 -104 228 -123 106 -91 575 -820 726 -1128 101
-208 184 -480 170 -564 -3 -20 -17 -64 -31 -98 -14 -35 -25 -73 -25 -85 0 -34
66 -196 95 -234 14 -18 75 -88 136 -156 125 -138 205 -254 303 -439 37 -69 77
-135 89 -147 12 -11 34 -32 50 -46 47 -43 28 -136 -28 -136 -56 0 -165 115
-251 266 -157 274 -301 453 -413 513 -130 69 -254 183 -334 307 -41 64 -57
105 -101 264 -29 104 -91 164 -218 206 -123 41 -157 84 -247 315 -69 178 -136
272 -230 322 -45 25 -131 45 -279 68 -90 14 -114 32 -175 138 -57 97 -152 201
-267 289 -102 79 -256 216 -314 281 -16 18 -94 75 -173 127 -200 130 -251 172
-543 442 -160 148 -267 221 -374 257 -69 23 -105 28 -263 35 -199 10 -189 7
-448 106 -98 37 -103 38 -235 38 -152 1 -162 -2 -325 -77 -60 -27 -152 -65
-204 -83 -141 -50 -192 -85 -347 -239 -214 -213 -262 -287 -215 -334 28 -28
52 -27 157 12 l89 32 265 0 c290 0 348 -7 525 -66 159 -53 421 -189 763 -396
67 -41 193 -106 279 -144 208 -93 247 -116 361 -217 53 -48 144 -127 202 -177
285 -245 1077 -1039 1381 -1385 223 -253 442 -457 724 -675 235 -182 238 -184
289 -289 26 -52 56 -100 69 -109 12 -8 46 -33 75 -56 l52 -41 -35 -52 c-19
-28 -38 -62 -41 -75 -13 -51 4 -132 49 -225 83 -177 125 -203 289 -184 66 8
68 8 95 -21 15 -17 37 -45 48 -64 11 -19 38 -43 60 -53 38 -19 41 -19 120 -2
150 34 166 31 242 -34 57 -50 121 -48 205 8 25 16 45 22 60 18 13 -3 60 -38
105 -78 549 -486 508 -447 499 -482 -10 -38 -63 -94 -123 -128 -29 -17 -60
-40 -68 -51 -26 -38 -18 -102 26 -206 40 -93 41 -99 36 -176 -8 -102 -19 -135
-60 -162 -17 -13 -49 -39 -70 -59 -35 -33 -38 -40 -32 -73 6 -35 3 -40 -39
-79 -42 -38 -80 -61 -128 -76 -21 -6 -23 -22 -5 -29 21 -8 82 17 150 62 74 48
102 53 93 17 -3 -14 -15 -66 -27 -116 -24 -106 -39 -124 -113 -140 -70 -15
-138 -5 -298 46 -228 71 -407 101 -448 74 -23 -16 6 -30 61 -30 69 0 192 -26
319 -66 116 -37 260 -98 260 -110 0 -4 -139 -5 -309 -1 l-308 5 -59 -59 c-88
-90 -137 -119 -198 -119 -28 0 -80 -7 -116 -15 -36 -8 -107 -24 -158 -35 -50
-11 -110 -29 -132 -40 -42 -22 -76 -62 -65 -80 11 -17 30 -11 60 20 32 33 59
43 158 60 38 6 94 20 125 32 41 15 77 21 126 20 80 -3 134 22 180 82 56 74
163 110 306 104 l75 -3 -75 -46 c-41 -26 -120 -71 -175 -100 -183 -96 -218
-132 -245 -246 -9 -40 -25 -67 -71 -119 -81 -92 -80 -131 2 -57 56 51 97 113
116 176 21 74 50 115 102 148 52 33 91 37 114 11 27 -30 20 -47 -35 -88 -56
-43 -68 -61 -44 -70 18 -7 132 79 141 106 3 9 -1 33 -10 53 -8 20 -12 43 -9
51 9 25 139 106 218 137 45 18 90 28 124 29 28 0 52 -2 52 -5 0 -2 -16 -36
-37 -74 -44 -84 -54 -160 -29 -210 16 -29 16 -33 -1 -61 -9 -16 -14 -32 -10
-36 13 -13 57 27 81 74 47 93 134 114 232 57 53 -31 74 -66 54 -90 -18 -22
-91 -58 -171 -84 -36 -12 -81 -33 -99 -46 -39 -29 -52 -27 -156 20 l-72 33
-35 -43 c-52 -62 -93 -77 -229 -86 -113 -7 -158 -19 -158 -40 0 -7 32 -8 95
-3 52 4 95 3 95 -1 0 -9 -35 -60 -82 -117 -33 -39 -46 -48 -83 -54 -61 -9 -62
-34 -1 -34 69 0 99 15 121 62 44 90 55 48 35 -135 -7 -69 -15 -99 -40 -143
-32 -55 -34 -89 -6 -78 9 3 29 34 46 68 31 65 50 174 50 295 l0 64 67 61 c36
33 85 76 109 94 l42 33 49 -25 c26 -14 57 -26 68 -26 11 0 26 -4 32 -8 13 -8
13 -12 -16 -242 -5 -36 -23 -99 -40 -139 -18 -40 -30 -80 -27 -88 10 -25 29
-1 67 79 29 64 34 87 39 183 7 121 15 142 63 180 27 20 236 115 253 115 7 0
-7 -72 -21 -107 -9 -20 -21 -33 -37 -35 -12 -2 -24 -11 -26 -21 -3 -16 2 -17
47 -11 44 6 51 4 51 -10 0 -35 -33 -77 -117 -149 -49 -41 -96 -84 -106 -95
-25 -27 -20 -77 8 -77 12 0 19 6 17 14 -6 30 13 55 81 105 147 110 175 167
140 290 -4 16 -1 17 38 11 134 -20 138 -32 53 -156 -52 -76 -61 -104 -37 -104
6 0 32 28 58 62 25 35 50 65 53 67 8 4 -2 -205 -13 -283 -13 -94 -65 -141
-157 -141 -24 0 -50 -5 -58 -10 -13 -9 -12 -13 8 -30 13 -11 39 -22 58 -26 28
-5 39 -2 55 15 11 11 29 21 40 21 12 0 27 12 37 32 19 35 48 68 60 68 5 0 17
-6 27 -14 27 -19 15 -39 -97 -169 -94 -108 -145 -178 -117 -162 39 24 129 110
201 192 45 51 87 93 95 93 26 0 53 -39 53 -77 0 -20 -16 -85 -35 -144 -35
-108 -43 -159 -26 -159 23 0 101 252 101 327 0 28 -8 43 -36 69 l-37 33 2 103
c2 113 11 166 35 202 22 34 114 76 182 83 l58 6 -37 -44 c-46 -54 -85 -134
-93 -193 -6 -44 -6 -44 61 -110 l68 -67 -25 -27 c-40 -42 -47 -64 -58 -164 -5
-51 -17 -118 -25 -148 -21 -77 -20 -90 9 -90 29 0 36 16 36 78 0 78 29 244 47
271 l17 26 9 -43 c14 -71 37 -48 37 36 0 91 33 150 70 127 29 -18 -18 -222
-80 -353 -22 -46 -40 -92 -40 -103 0 -42 27 -14 67 69 52 106 93 244 100 334
6 66 6 66 -26 82 -17 9 -31 21 -31 27 0 6 16 29 35 52 20 23 38 53 41 67 14
70 26 98 53 124 l29 28 7 -76 c9 -91 -4 -169 -46 -273 -34 -87 -35 -99 -9
-138 11 -16 20 -38 20 -48 0 -23 -26 -74 -56 -110 -29 -35 -30 -47 -5 -47 26
0 77 63 96 119 22 66 19 96 -12 119 l-27 19 38 79 c21 44 40 73 43 67 11 -31
103 -1 103 33 0 16 -16 19 -25 4 -3 -6 -13 -10 -21 -10 -34 0 -1 107 64 203
16 23 45 72 66 110 20 37 43 67 50 67 22 0 78 -69 72 -88 -21 -67 -26 -116
-16 -152 6 -22 15 -42 20 -45 19 -12 9 -289 -16 -420 -5 -28 -3 -35 10 -35 28
0 39 42 51 214 11 150 24 226 39 226 3 0 11 -24 20 -52 8 -29 29 -75 47 -103
35 -56 35 -38 4 -300 -19 -156 -16 -203 20 -346 14 -54 25 -115 25 -136 0 -21
5 -45 10 -53 9 -13 11 -13 20 0 13 19 5 105 -20 220 -57 258 -44 300 42 142
23 -41 52 -86 64 -101 42 -47 28 3 -42 150 -67 143 -85 201 -65 213 12 8 188
-59 210 -79 7 -7 16 -28 20 -46 8 -42 31 -51 31 -12 1 73 44 70 81 -6 18 -39
35 -59 62 -72 19 -10 39 -24 42 -29 5 -8 11 -7 21 1 22 18 17 27 -26 54 -22
14 -49 43 -60 64 -11 22 -43 66 -71 98 l-51 58 8 55 c9 68 9 118 -1 147 -12
38 11 27 74 -35 42 -41 72 -83 105 -150 45 -89 66 -113 66 -73 0 11 -21 72
-46 136 -25 64 -46 131 -47 148 -2 18 -13 53 -25 79 -13 26 -31 82 -40 126
-15 74 -15 82 1 128 44 128 65 185 70 190 2 3 9 -9 15 -25 12 -34 26 -40 36
-15 11 30 6 46 -26 76 -28 26 -30 30 -10 24 12 -3 32 -9 45 -12 12 -4 32 -16
45 -27 30 -27 27 -37 -54 -210 -70 -148 -85 -199 -63 -213 8 -5 40 -7 73 -6
56 3 60 2 98 -35 61 -58 69 -81 66 -181 -1 -48 2 -116 6 -152 7 -55 4 -80 -17
-160 -33 -122 -39 -162 -28 -179 12 -18 31 -5 31 22 0 35 51 190 72 219 24 34
63 37 110 8 18 -11 41 -20 51 -20 45 0 -34 63 -105 84 -12 3 -18 21 -23 63 -7
65 -39 182 -62 228 -9 17 -33 56 -55 88 -22 33 -38 60 -36 62 2 1 41 17 88 35
l84 32 18 -22 c26 -32 23 -47 -17 -91 -43 -48 -44 -71 -2 -114 17 -18 44 -48
58 -67 17 -21 46 -40 78 -52 28 -10 73 -36 99 -58 48 -41 233 -138 265 -138 9
0 17 7 17 15 0 9 -34 31 -87 55 -94 44 -133 73 -133 100 0 10 -18 29 -40 44
-24 15 -40 34 -40 46 0 10 18 40 40 65 22 25 43 57 46 71 3 13 10 24 16 24 5
0 39 -24 76 -54 136 -108 153 -94 32 26 -44 43 -88 96 -99 116 -23 47 -44 112
-38 118 3 3 32 -18 65 -46 99 -81 131 -100 173 -100 50 0 53 25 6 34 -52 10
-112 68 -151 148 -44 86 -47 112 -11 78 22 -20 38 -25 98 -28 103 -4 117 -9
117 -35 0 -34 50 -113 127 -202 64 -73 173 -175 187 -175 3 0 6 9 6 21 0 13
-45 67 -117 142 -65 67 -129 144 -143 170 -25 47 -25 48 -6 63 20 14 81 19
110 8 11 -4 13 -14 9 -34 -5 -25 -1 -31 35 -49 23 -11 104 -64 181 -116 133
-89 181 -112 181 -82 0 6 -19 22 -42 35 -24 12 -63 41 -88 63 l-45 40 95 -3
c92 -3 99 -5 216 -61 113 -54 154 -67 154 -49 0 15 -151 98 -234 129 -23 8
-98 19 -167 23 -137 8 -207 30 -229 70 -22 42 -3 45 167 32 87 -7 176 -15 198
-18 l40 -5 -28 25 c-15 14 -44 30 -65 35 -20 5 -172 9 -337 9 l-300 -1 -50 74
c-50 74 -50 74 -49 152 1 43 4 80 8 84 3 4 23 -10 44 -30 42 -41 64 -50 165
-73 40 -9 100 -28 135 -42 44 -17 67 -21 74 -14 17 17 -25 49 -89 69 l-58 17
118 7 c166 10 179 33 23 41 -53 3 -81 27 -59 49 8 8 23 7 60 -4 26 -9 98 -25
158 -37 61 -12 124 -26 141 -31 20 -6 40 -6 58 0 32 13 33 24 4 38 -13 6 -50
35 -82 65 l-60 53 -167 6 c-165 6 -169 6 -236 39 -43 21 -88 54 -123 91 -30
31 -74 66 -97 78 -32 16 -43 27 -43 44 0 13 -5 28 -11 34 -7 7 -1 17 22 33 30
22 33 22 44 6 7 -9 16 -37 19 -61 4 -24 13 -49 21 -55 22 -18 54 -2 73 38 22
46 36 44 111 -9 30 -21 56 -37 59 -34 3 2 -7 23 -22 45 -24 36 -33 60 -22 60
26 0 174 -58 220 -85 81 -49 105 -42 47 14 -24 23 -42 44 -40 45 15 13 128 36
179 36 93 0 143 -35 194 -137 39 -79 79 -119 130 -132 96 -24 118 0 30 32 -64
24 -78 38 -120 117 -54 104 -85 136 -145 150 -61 15 -155 9 -253 -16 -58 -14
-81 -15 -160 -6 -100 12 -227 6 -238 -12 -4 -6 -8 -24 -9 -41 -1 -25 -4 -20
-20 29 -19 58 -19 59 1 103 39 88 18 156 -66 214 -24 16 -44 36 -44 44 0 18
57 65 79 65 26 0 58 -26 92 -77 20 -29 46 -52 73 -63 45 -20 196 -54 204 -46
16 17 -16 35 -90 50 -82 18 -84 19 -149 86 -76 78 -98 92 -142 90 -56 -3 -66
0 -72 21 -4 12 -36 50 -71 85 -78 79 -89 111 -81 248 4 54 8 100 10 102 2 2
49 -14 105 -36 57 -22 109 -40 117 -40 23 0 52 -47 91 -146 40 -104 62 -137
104 -159 63 -33 85 -2 25 35 -19 12 -40 30 -46 41 -20 39 19 30 138 -30 122
-62 163 -75 170 -54 5 15 -218 126 -289 144 -48 13 -52 17 -75 67 -26 59 -29
82 -11 100 9 9 4 20 -23 48 -45 47 -82 66 -146 75 -80 11 -115 39 -189 150
l-67 100 -128 -3 c-70 -2 -130 0 -134 4 -8 8 199 421 254 505 30 46 64 80 133
131 115 85 182 156 214 227 20 44 27 84 39 218 11 138 18 176 44 243 71 182
352 630 560 893 42 53 119 152 171 221 140 184 336 378 485 477 150 101 267
191 420 326 66 58 154 126 195 151 41 24 115 81 164 125 103 95 214 166 422
271 217 110 421 188 729 280 367 110 433 123 625 123 167 1 261 -12 380 -50
115 -36 301 -132 443 -227 142 -95 178 -105 217 -64 28 30 22 57 -35 157 -61
108 -91 205 -104 334 -6 59 -18 121 -26 137 -22 43 -66 71 -193 125 -132 56
-179 85 -256 154 -61 55 -66 57 -179 65 -58 4 -108 17 -199 51 -185 70 -266
71 -363 5 -62 -42 -77 -44 -147 -15 -73 30 -180 43 -384 46 l-141 3 -67 -53
-66 -53 -79 41 c-69 36 -88 41 -143 41 -91 0 -192 -25 -250 -60 -53 -33 -96
-43 -239 -58 -73 -7 -103 -17 -210 -67 -224 -104 -256 -110 -363 -70 -118 44
-171 33 -275 -57 -31 -28 -65 -45 -188 -98 -61 -27 -116 -80 -139 -135 -9 -22
-20 -86 -25 -142 -6 -65 -20 -137 -39 -195 -33 -105 -50 -179 -79 -358 -38
-225 -61 -273 -173 -356 -107 -78 -131 -87 -255 -95 -143 -10 -185 -28 -269
-115 -92 -94 -136 -189 -142 -299 -4 -72 0 -97 27 -188 27 -89 30 -108 20
-131 -7 -14 -16 -26 -20 -26 -5 0 -37 16 -72 35 -49 27 -75 35 -114 35 -78 0
-84 -12 -94 -182 -26 -448 -60 -672 -120 -789 -10 -20 -36 -84 -58 -141 -72
-194 -214 -458 -305 -567 -57 -69 -65 -100 -37 -147 12 -19 21 -43 21 -52 0
-9 -21 -62 -46 -117 -25 -55 -62 -143 -83 -195 -45 -117 -46 -119 -87 -136
-29 -12 -33 -19 -39 -61 -8 -68 -24 -113 -52 -150 -22 -30 -63 -46 -63 -24 0
26 44 264 57 311 42 146 147 373 203 436 15 18 31 49 35 70 8 43 37 104 70
149 13 17 40 64 60 105 23 46 61 99 100 140 34 36 73 85 85 109 31 62 37 146
15 226 -17 64 -17 67 4 150 26 98 43 223 70 506 11 113 25 218 31 234 6 15 35
55 66 87 70 76 92 122 103 207 13 103 31 133 104 172 140 74 184 146 198 324
5 60 16 131 24 156 39 117 243 418 523 773 53 68 118 152 144 187 107 148 547
632 688 757 313 279 600 439 986 551 89 26 115 46 116 89 1 41 -30 76 -89 98
-57 22 -192 14 -283 -17 -56 -19 -99 -23 -320 -30 -301 -11 -395 -21 -450 -49
-50 -26 -72 -61 -107 -168 -30 -94 -66 -142 -108 -142 -55 0 -118 -23 -151
-56 -25 -26 -40 -57 -64 -133 -36 -118 -58 -142 -173 -190 -87 -36 -100 -38
-93 -13 2 9 8 46 11 82 17 157 84 318 185 443 84 105 194 185 376 273 210 102
222 117 263 354 11 63 29 140 39 170 18 53 20 55 63 62 24 4 134 10 244 14
367 11 516 -31 1040 -300 345 -177 380 -200 550 -372 83 -83 193 -198 245
-255 173 -190 241 -234 248 -161 4 39 -11 87 -130 412 -109 297 -165 409 -325
648 -67 101 -137 210 -155 244 -60 112 -158 203 -318 293 -192 108 -241 141
-319 210 -98 88 -138 104 -279 112 -91 5 -107 9 -137 32 -18 14 -57 45 -87 67
-60 48 -87 55 -191 56 -62 0 -86 -5 -145 -31 -121 -53 -126 -44 -49 83 155
256 393 553 652 812 330 331 560 501 958 709 308 161 486 227 838 314 376 93
646 128 781 102 146 -29 245 -106 292 -229 29 -76 48 -89 78 -54 24 28 37 77
49 194 14 137 8 239 -18 298 -24 55 -104 152 -271 329 -209 222 -261 245 -563
256 -184 7 -199 9 -296 41 -115 38 -212 45 -267 19 -18 -9 -62 -40 -97 -71
-82 -70 -169 -114 -225 -114 -39 0 -46 5 -94 58 -28 31 -81 99 -117 150 -78
110 -120 148 -217 196 -104 50 -222 79 -336 80 -93 1 -97 0 -202 -47 -74 -33
-134 -53 -195 -63 -250 -42 -304 -62 -401 -148 -99 -88 -124 -104 -196 -120
-135 -32 -183 -63 -366 -241 -175 -170 -206 -193 -332 -245 -42 -17 -82 -38
-88 -45 -7 -8 -19 -63 -27 -122 -25 -183 -52 -225 -226 -346 -134 -93 -207
-161 -233 -215 -24 -51 -76 -267 -139 -573 -30 -148 -62 -284 -71 -302 -9 -17
-48 -67 -86 -111 -125 -145 -177 -292 -145 -417 8 -34 13 -68 10 -75 -3 -7
-44 -42 -92 -78 -134 -97 -137 -105 -133 -376 l3 -216 -39 -59 c-63 -97 -249
-302 -522 -575 -140 -141 -273 -279 -295 -308 -21 -28 -42 -49 -46 -44 -12 13
-40 218 -33 238 4 10 32 55 61 98 142 208 164 305 123 555 -42 255 -40 281 31
448 l40 92 -3 178 c-3 205 -1 212 86 328 142 187 184 336 173 614 -5 120 -11
166 -36 256 -51 185 -41 237 57 297 92 55 139 104 163 166 18 49 20 70 16 157
-7 117 -24 185 -79 314 -40 96 -56 177 -44 227 4 15 48 69 97 120 111 114 134
161 126 250 -6 60 -15 85 -117 329 -23 55 -44 123 -47 150 -5 48 -4 51 21 63
50 23 69 116 45 222 -5 25 -26 80 -46 122 l-36 77 28 48 c33 56 242 267 332
337 130 98 245 127 430 107 129 -13 373 -62 486 -97 111 -35 128 -35 146 -2
13 23 14 36 4 83 -17 79 -58 163 -101 208 -81 84 -264 169 -402 186 -75 10
-91 16 -155 59 l-72 49 -229 7 c-126 3 -258 9 -294 12 -59 5 -68 4 -100 -20z
m-2342 -11544 c38 -61 104 -187 176 -337 l57 -120 -51 57 c-28 32 -79 74 -113
94 -88 51 -182 129 -208 170 -35 58 -13 134 53 174 39 24 51 19 86 -38z m641
22 c42 -35 57 -92 82 -313 11 -102 21 -193 22 -201 1 -8 -2 -17 -8 -19 -23 -9
-196 367 -211 457 -6 37 -3 44 24 72 37 37 52 37 91 4z m320 -33 c22 -17 24
-22 17 -82 -4 -35 -10 -87 -13 -116 -8 -76 1 -100 47 -123 22 -11 44 -30 51
-41 16 -31 23 -280 10 -383 -14 -114 -37 -144 -62 -80 -27 73 -109 648 -109
769 0 83 11 93 59 56z m1296 -641 c19 -16 75 -109 75 -126 0 -10 -151 -44
-193 -44 -23 0 -33 30 -42 121 l-7 75 75 -6 c42 -4 83 -13 92 -20z m80 -267
c-11 -128 -30 -163 -55 -98 -5 12 -35 42 -67 67 -32 24 -59 51 -61 60 -4 22
83 54 156 57 l34 1 -7 -87z m-64 -159 c11 -14 9 -15 -16 -12 -16 1 -30 9 -33
16 -6 18 33 15 49 -4z m60 -75 c60 -26 70 -52 44 -118 -51 -133 -53 -151 -13
-172 22 -12 68 -4 68 11 0 6 -12 15 -26 20 -23 9 -25 14 -19 43 12 51 57 167
64 163 3 -2 19 -29 35 -58 l29 -54 -26 -39 c-15 -22 -27 -43 -27 -47 0 -4 22
-19 48 -32 54 -27 122 -97 122 -124 0 -25 -16 -46 -29 -37 -7 3 -24 25 -38 48
-14 23 -31 45 -37 49 -20 14 -68 8 -137 -17 -79 -28 -68 -40 -98 110 -11 55
-32 133 -46 174 -14 41 -25 80 -25 88 0 20 54 16 111 -8z m-118 -116 c20 -46
35 -107 37 -148 3 -54 3 -55 -29 -44 -41 14 -107 89 -116 130 -7 30 -4 36 30
66 21 18 44 33 50 33 7 0 19 -17 28 -37z m-2137 -105 c15 -24 -103 -104 -123
-84 -12 12 17 56 49 76 37 23 63 25 74 8z m1904 -72 c0 -80 -21 -98 -59 -50
-28 36 -27 72 2 84 47 19 57 13 57 -34z m76 -10 c-22 -34 -36 -33 -36 2 0 38
19 57 39 38 12 -13 12 -18 -3 -40z m-1892 -54 c3 -34 13 -76 21 -92 16 -30 20
-162 6 -209 -10 -37 -30 -37 -44 -1 l-12 32 -82 -6 -83 -7 6 33 c15 91 28 137
51 176 23 40 23 45 9 61 -26 28 -20 38 46 70 72 36 72 36 82 -57z m1673 56
c11 -13 29 -36 39 -53 l19 -30 -43 33 c-48 38 -71 72 -49 72 7 0 23 -10 34
-22z m-1013 -39 c34 -27 33 -38 -8 -78 l-33 -32 -32 47 c-43 66 -41 84 8 84
24 0 48 -8 65 -21z m1379 -5 c49 -25 68 -45 61 -66 -10 -32 22 -31 119 2 52
18 103 30 113 28 25 -5 62 -93 48 -116 -29 -45 -62 -57 -160 -56 -87 0 -97 3
-119 25 -24 23 -115 176 -115 191 0 12 18 9 53 -8z m-65 -65 c58 -96 54 -131
-12 -109 -43 14 -106 70 -106 94 0 22 56 79 73 74 6 -3 27 -29 45 -59z m-392
17 c40 -35 82 -96 66 -96 -13 0 -110 88 -123 111 -16 31 12 23 57 -15z m-1180
-48 c-4 -29 -11 -57 -16 -62 -10 -10 -116 20 -126 36 -9 13 21 35 80 60 66 27
70 25 62 -34z m94 10 c11 -24 20 -58 20 -75 0 -35 -10 -39 -59 -26 -22 6 -23
9 -18 64 8 93 27 104 57 37z m200 -64 c0 -26 -17 -33 -26 -9 -8 20 3 48 16 40
5 -3 10 -17 10 -31z m885 -26 c12 -21 18 -57 21 -117 l4 -86 -14 58 c-8 36
-24 69 -41 87 -24 26 -49 93 -38 104 10 10 51 -17 68 -46z m-1432 15 c-14 -37
-76 -144 -80 -139 -12 12 10 119 28 137 25 25 61 26 52 2z m37 -86 c-12 -31
-30 -66 -40 -79 l-19 -23 -1 23 c0 34 70 166 77 145 2 -6 -6 -35 -17 -66z
m1500 22 c6 -11 17 -49 25 -85 9 -42 26 -84 49 -117 30 -44 71 -140 101 -236
7 -23 6 -24 -49 -19 -88 7 -107 29 -153 172 -3 10 0 22 8 27 12 7 12 12 0 31
-26 42 -27 248 -1 248 5 0 14 -9 20 -21z m345 -34 c39 -13 84 -25 100 -25 17
-1 39 -5 49 -9 18 -7 16 -9 -14 -19 -48 -17 -137 -15 -170 4 -33 20 -68 74
-48 74 7 0 45 -11 83 -25z m229 -5 c7 -7 5 -10 -7 -10 -21 0 -67 21 -67 31 0
10 60 -7 74 -21z m-1904 -24 c-1 -21 -1 -21 -15 -2 -21 27 -20 53 0 36 8 -7
15 -22 15 -34z m1180 9 c15 -18 27 -145 12 -130 -15 15 -53 125 -47 136 9 13
21 11 35 -6z m337 -7 c26 -24 30 -48 9 -48 -16 0 -46 37 -46 57 0 19 10 16 37
-9z m-1403 3 c10 -15 -82 -120 -106 -121 -11 0 31 113 45 122 16 10 55 10 61
-1z m1856 -22 c0 -10 -4 -19 -10 -19 -5 0 -10 12 -10 26 0 14 4 23 10 19 6 -3
10 -15 10 -26z m-1720 -46 c82 -91 83 -95 23 -155 l-51 -51 -32 63 c-29 57
-31 67 -21 100 6 21 11 51 11 69 0 17 4 31 9 31 5 0 33 -26 61 -57z m-300 -43
c0 -67 -20 -117 -42 -104 -12 8 -5 96 13 158 15 54 29 29 29 -54z m420 71 c0
-5 -9 -19 -19 -32 -19 -24 -19 -24 -41 -4 l-22 20 29 12 c34 15 53 16 53 4z
m-775 -35 c14 -15 35 -26 50 -26 24 0 23 -3 -30 -65 -30 -36 -58 -77 -61 -92
-4 -16 -9 -32 -11 -36 -7 -11 -42 22 -59 55 -7 14 -32 47 -54 73 -31 36 -38
50 -31 64 34 63 148 79 196 27z m856 -19 c-8 -8 -11 -7 -11 4 0 20 13 34 18
19 3 -7 -1 -17 -7 -23z m678 2 l16 -24 -24 16 c-14 9 -27 22 -29 29 -7 21 20
6 37 -21z m815 -33 c43 -41 55 -61 66 -104 13 -56 7 -106 -13 -100 -12 4 -25
27 -71 129 -15 33 -35 60 -49 66 -13 6 -62 14 -110 18 -83 7 -115 19 -84 31
21 8 180 21 195 16 7 -3 37 -27 66 -56z m-2608 29 c-11 -8 -31 -15 -44 -15
-21 0 -22 2 -12 15 7 8 27 15 44 15 29 -1 30 -1 12 -15z m2274 0 c17 -20 -9
-21 -36 0 -19 14 -19 14 2 15 12 0 27 -7 34 -15z m430 -2 c14 -10 52 -40 85
-68 33 -28 89 -68 125 -89 85 -51 110 -74 110 -102 0 -34 -28 -44 -118 -44
-66 0 -85 4 -112 23 -50 34 -69 66 -81 136 -11 73 -21 95 -57 134 l-26 27 25
0 c13 0 36 -8 49 -17z m-1610 -101 c0 -90 -65 -279 -92 -270 -7 3 -17 21 -22
42 -9 34 -6 45 33 120 44 85 47 108 25 201 -4 15 2 13 25 -13 26 -27 31 -41
31 -80z m-300 -4 c22 -35 40 -67 39 -73 0 -5 -34 -31 -75 -57 l-74 -48 6 58
c12 122 30 182 55 182 5 0 27 -28 49 -62z m-758 33 c40 -32 131 -171 131 -200
0 -14 -10 -43 -23 -64 l-23 -38 -36 34 c-41 40 -94 68 -167 90 -55 16 -53 17
-125 -30 -38 -26 -65 -29 -72 -10 -10 30 69 189 104 207 10 6 51 14 91 19 40
5 78 9 84 10 6 0 22 -8 36 -18z m488 -27 c16 -40 12 -120 -5 -134 -13 -10 -23
-10 -55 5 -43 19 -45 23 -55 89 -7 42 -5 47 16 55 13 5 39 10 57 10 26 1 34
-4 42 -25z m1314 -55 c67 -66 67 -62 -3 -101 -17 -9 -41 -33 -52 -53 -13 -22
-28 -35 -38 -33 -28 6 -23 32 19 88 47 63 49 87 14 129 -46 55 -3 33 60 -30z
m381 51 c44 0 57 -26 53 -101 -2 -37 -7 -71 -11 -76 -24 -23 -84 72 -94 148
-5 37 -4 42 11 36 10 -4 28 -7 41 -7z m-959 -61 c-9 -89 -25 -110 -26 -32 0
66 6 93 22 93 7 0 9 -21 4 -61z m1217 34 c13 -12 17 -32 17 -81 0 -51 8 -83
40 -163 50 -124 57 -166 36 -207 -19 -38 -25 -38 -94 -12 -69 26 -94 25 -131
-6 -17 -14 -36 -22 -42 -18 -18 11 -39 71 -39 113 0 38 26 111 40 111 3 0 14
-15 24 -32 43 -76 144 -158 195 -158 40 0 31 20 -21 47 -58 31 -106 76 -154
144 -35 50 -49 126 -38 211 6 43 9 48 21 35 16 -16 18 -39 8 -84 -9 -38 3 -43
30 -13 13 15 18 35 17 72 0 31 4 56 11 60 16 11 58 0 80 -19z m-763 -3 c28
-14 40 -27 40 -42 0 -24 -73 -123 -97 -132 -19 -8 -81 3 -88 15 -5 8 42 110
73 156 18 28 23 28 72 3z m-1341 -132 c6 -115 19 -143 33 -71 15 72 18 83 29
83 18 0 37 -62 58 -199 12 -73 21 -134 19 -136 -11 -8 -106 -35 -125 -35 -30
0 -43 33 -43 108 0 43 -8 73 -31 122 -29 61 -30 67 -16 95 9 17 17 53 20 82 4
56 23 91 40 74 6 -6 13 -61 16 -123z m289 95 c-2 -20 -8 -38 -14 -40 -16 -5
-25 36 -13 59 16 30 30 20 27 -19z m306 -30 c-23 -38 -28 -60 -28 -105 1 -66
-9 -72 -63 -38 -37 22 -43 52 -17 88 16 24 113 100 127 101 5 1 -4 -20 -19
-46z m391 22 c21 -20 25 -33 25 -87 0 -82 -8 -95 -48 -79 -57 24 -63 37 -46
111 22 93 28 97 69 55z m1923 -24 c45 -9 88 -39 74 -53 -9 -9 -181 18 -222 35
l-25 10 25 7 c34 11 96 11 148 1z m-2703 -249 c-9 -25 -33 6 -41 53 -7 47 9
140 29 163 10 12 13 -6 15 -93 1 -60 0 -115 -3 -123z m890 154 c14 -24 32 -64
41 -90 9 -26 25 -51 38 -58 51 -26 96 -70 96 -93 0 -25 -45 -85 -64 -85 -6 0
-22 18 -36 40 -14 23 -38 49 -53 58 -35 21 -66 104 -67 177 0 47 8 95 16 95 2
0 15 -20 29 -44z m-665 -6 c0 -28 -2 -30 -20 -20 -11 6 -20 20 -20 30 0 13 7
20 20 20 16 0 20 -7 20 -30z m1114 -31 c8 -72 -5 -96 -47 -85 -65 16 -77 79
-24 120 52 41 63 35 71 -35z m742 34 c-10 -10 -19 5 -10 18 6 11 8 11 12 0 2
-7 1 -15 -2 -18z m-1516 -58 c0 -62 -11 -84 -24 -49 -14 37 -4 114 15 114 5 0
9 -29 9 -65z m-477 34 c12 -19 2 -78 -17 -104 -13 -18 -15 -14 -21 38 -4 31
-5 64 -1 73 7 18 25 15 39 -7z m1507 -23 c73 -13 67 3 54 -131 -5 -49 -1 -72
19 -127 28 -72 24 -82 -25 -66 -39 14 -51 60 -43 161 l6 82 -71 39 c-39 22
-76 46 -82 53 -12 15 3 14 142 -11z m-542 -19 c28 -30 53 -90 43 -106 -6 -10
-17 -5 -45 19 -46 41 -79 87 -71 100 11 18 51 11 73 -13z m-553 -18 c4 -11 4
-23 0 -27 -7 -7 -25 17 -25 36 0 20 18 14 25 -9z m-793 -40 c20 -56 32 -150
20 -167 -8 -11 -18 -11 -62 2 -30 9 -68 16 -86 16 -61 0 -55 23 33 133 30 37
60 66 66 64 7 -2 19 -24 29 -48z m1041 35 c60 -30 77 -53 77 -103 0 -75 -10
-80 -69 -37 -63 46 -81 71 -81 112 0 49 18 56 73 28z m433 -30 c7 -25 -1 -92
-11 -102 -14 -14 -28 22 -33 83 -5 66 -5 67 16 56 12 -6 25 -23 28 -37z
m-1001 -8 c29 -38 69 -134 79 -188 7 -40 -8 -64 -50 -74 -37 -10 -51 1 -59 45
-4 22 -20 59 -36 81 -28 38 -29 44 -18 78 16 52 38 92 49 92 5 0 21 -15 35
-34z m215 -2 c10 -10 11 -14 2 -14 -16 0 -72 28 -72 36 0 10 54 -7 70 -22z
m-94 -16 c59 -35 62 -42 37 -70 -9 -10 -19 -44 -22 -80 l-6 -63 -14 60 c-11
52 -28 101 -56 168 -10 24 -1 22 61 -15z m1022 -46 c15 -20 10 -61 -14 -97
-20 -31 -22 -31 -58 -1 -31 24 -38 59 -23 119 l7 27 38 -15 c20 -9 43 -23 50
-33z m-813 24 c40 -17 40 -17 21 -55 -29 -55 -140 -132 -166 -116 -20 12 -10
72 16 100 20 22 30 26 52 20 64 -15 82 -17 82 -6 0 6 -12 18 -27 28 -16 9 -30
18 -32 19 -4 3 9 24 15 24 3 0 20 -7 39 -14z m-412 -208 c-31 -12 -103 -9
-104 5 -2 21 3 50 12 76 l10 24 50 -49 c42 -41 47 -50 32 -56z m510 45 c-39
-69 -129 -215 -146 -238 -15 -19 -16 -18 -22 19 -5 27 -3 48 8 70 17 35 163
196 178 196 6 0 -2 -21 -18 -47z m318 2 c23 -20 51 -41 61 -46 15 -8 19 -18
15 -42 -7 -45 16 -95 47 -103 58 -14 71 25 15 45 -39 13 -38 43 4 106 49 76
63 68 58 -32 -2 -54 1 -83 8 -83 10 0 18 23 41 118 13 50 34 63 61 35 15 -14
24 -47 34 -124 8 -57 21 -138 29 -179 8 -41 13 -76 11 -78 -1 -2 -36 13 -76
34 -55 27 -94 39 -154 46 -88 11 -118 24 -139 66 -17 33 -86 241 -86 259 0 23
27 14 71 -22z m964 -8 c40 -22 40 -23 41 -84 0 -48 8 -76 36 -136 l36 -75 -33
-32 c-29 -28 -52 -69 -69 -122 -8 -27 -44 -22 -77 11 -35 35 -40 76 -9 66 27
-9 36 19 45 133 l8 91 -30 28 c-16 15 -44 39 -62 53 l-34 25 31 33 c36 38 62
40 117 9z m153 -6 c3 -16 -1 -22 -10 -19 -7 3 -15 15 -16 27 -3 16 1 22 10 19
7 -3 15 -15 16 -27z m-2142 -63 c-34 -37 -78 -103 -111 -167 l-54 -106 -1 156
0 156 68 6 c38 4 86 13 108 21 21 7 41 9 42 5 2 -5 -21 -37 -52 -71z m1680 31
c3 -6 20 -19 36 -29 l29 -18 -28 -20 c-37 -25 -109 -62 -124 -62 -16 0 -3 44
28 97 24 42 45 54 59 32z m408 -99 c7 -24 6 -24 -8 -6 -9 11 -16 29 -16 40 1
17 2 18 9 6 5 -8 12 -26 15 -40z m-1714 -30 c0 -40 -22 -92 -58 -138 -38 -48
-62 -96 -62 -122 0 -26 -8 -25 -37 2 -32 30 -31 98 2 164 18 36 39 59 81 87
31 20 61 37 65 37 5 0 9 -14 9 -30z m545 -40 c8 -22 11 -40 7 -40 -14 0 -42
58 -42 87 1 23 2 25 11 11 5 -10 16 -36 24 -58z m-1005 -159 c0 -67 -17 -93
-44 -66 -9 9 -16 19 -16 21 0 15 44 104 51 104 5 0 9 -26 9 -59z m1157 17 c-3
-7 -5 -2 -5 12 0 14 2 19 5 13 2 -7 2 -19 0 -25z m176 1 c37 -28 51 -88 43
-185 -5 -55 -3 -90 5 -108 7 -14 10 -29 6 -32 -8 -8 -68 12 -144 47 -72 34
-83 56 -83 159 0 59 3 69 28 93 51 49 104 59 145 26z m521 -239 c6 -43 6 -44
-8 -20 -9 14 -15 43 -15 65 0 49 13 24 23 -45z"/>
</g>
</svg>
