<?xml version="1.0" standalone="no"?>
<!DOCTYPE svg PUBLIC "-//W3C//DTD SVG 20010904//EN"
 "http://www.w3.org/TR/2001/REC-SVG-20010904/DTD/svg10.dtd">
<svg version="1.0" xmlns="http://www.w3.org/2000/svg"
 width="518.000000pt" height="809.000000pt" viewBox="0 0 518.000000 809.000000"
 preserveAspectRatio="xMidYMid meet">
<metadata>
Created by potrace 1.16, written by Peter Selinger 2001-2019
</metadata>
<g transform="translate(0.000000,809.000000) scale(0.100000,-0.100000)"
fill="#000000" stroke="none">
<path d="M4305 8080 c3 -5 8 -10 11 -10 2 0 4 5 4 10 0 6 -5 10 -11 10 -5 0
-7 -4 -4 -10z"/>
<path d="M4190 7925 c0 -8 7 -15 15 -15 8 0 15 4 15 9 0 5 -7 11 -15 15 -9 3
-15 0 -15 -9z"/>
<path d="M4111 7916 c-9 -10 -8 -15 4 -20 10 -4 15 1 15 14 0 24 -4 25 -19 6z"/>
<path d="M4045 7910 c-3 -5 1 -10 10 -10 9 0 13 5 10 10 -3 6 -8 10 -10 10 -2
0 -7 -4 -10 -10z"/>
<path d="M3745 7890 c3 -6 -1 -13 -9 -16 -9 -3 -16 -10 -16 -16 0 -5 4 -7 9
-4 5 4 30 8 56 10 34 4 48 1 52 -10 3 -7 9 -11 15 -8 16 10 -13 34 -43 34 -15
0 -31 5 -34 10 -3 6 -13 10 -21 10 -8 0 -12 -5 -9 -10z"/>
<path d="M3546 7874 c-4 -10 1 -25 10 -35 11 -12 13 -25 8 -41 -6 -20 -5 -21
8 -10 12 10 13 20 5 57 -11 47 -21 56 -31 29z"/>
<path d="M4007 7877 c-34 -11 -35 -24 -2 -24 16 0 25 5 26 16 0 10 2 11 6 4 5
-15 29 -17 37 -4 8 13 -36 19 -67 8z"/>
<path d="M3940 7860 c-13 -8 -12 -10 3 -10 9 0 17 5 17 10 0 12 -1 12 -20 0z"/>
<path d="M4077 7840 c-3 -12 -14 -20 -26 -20 -11 0 -24 -6 -28 -12 -4 -7 -17
-13 -28 -14 -11 -1 -26 -3 -34 -5 -10 -3 -17 6 -21 26 -6 25 -8 27 -15 12 -4
-9 -5 -27 -2 -40 6 -21 6 -21 -9 -3 -8 11 -12 28 -8 38 4 15 0 18 -25 18 -16
0 -33 -5 -36 -11 -5 -6 -12 -4 -21 8 -13 17 -14 17 -20 -4 -7 -26 -6 -26 -56
-14 -37 9 -98 -10 -98 -30 0 -13 34 -11 47 2 18 18 42 4 36 -20 -5 -21 -43
-30 -43 -11 0 6 -4 10 -10 10 -5 0 -10 -10 -10 -22 -1 -21 -2 -22 -14 -5 -7 9
-16 17 -20 17 -3 0 -6 -8 -6 -17 -1 -18 -22 -53 -33 -53 -3 0 -1 15 4 32 11
40 11 38 -1 38 -5 0 -12 -11 -16 -25 -6 -24 -8 -25 -23 -10 -10 8 -25 15 -33
15 -9 0 -18 7 -22 15 -6 18 -31 19 -74 4 -20 -7 -29 -15 -25 -25 7 -18 29 -18
37 1 3 8 16 15 30 15 19 0 26 -7 31 -31 5 -21 3 -34 -5 -39 -8 -5 -10 -21 -5
-49 5 -28 3 -41 -4 -41 -7 0 -14 7 -17 15 -11 29 -25 15 -19 -19 9 -43 -9 -55
-31 -21 -10 15 -26 25 -40 25 -30 0 -31 -12 -2 -25 24 -11 36 -35 17 -35 -6 0
-17 8 -24 17 -11 15 -15 15 -30 3 -9 -8 -24 -15 -33 -17 -9 -1 -18 -7 -20 -12
-2 -6 -8 -11 -14 -11 -16 0 -48 41 -41 53 3 6 1 7 -5 3 -16 -10 -15 -26 2 -45
20 -22 9 -34 -41 -47 -40 -10 -43 -10 -43 8 0 11 -5 16 -10 13 -6 -4 -24 0
-40 9 -29 14 -31 13 -50 -12 -11 -15 -24 -32 -29 -38 -5 -6 -3 -20 5 -35 21
-38 17 -46 -22 -45 -22 1 -39 -4 -41 -12 -4 -9 2 -11 21 -6 18 4 28 2 32 -9 3
-8 13 -18 22 -21 9 -4 35 -17 57 -30 30 -17 39 -28 37 -44 -3 -17 1 -20 14
-15 12 4 15 2 12 -8 -3 -8 -12 -13 -21 -11 -10 1 -17 -6 -19 -20 -2 -18 -10
-23 -38 -25 -32 -2 -33 -1 -17 12 11 7 25 11 33 8 31 -12 12 38 -32 87 -45 47
-80 66 -68 36 9 -23 -16 -29 -37 -10 -10 9 -22 14 -26 11 -3 -4 -2 -7 4 -7 21
0 22 -41 2 -61 -10 -10 -19 -26 -19 -34 0 -9 -10 -15 -26 -15 -14 0 -23 -4
-19 -10 3 -5 -8 -16 -25 -25 -24 -13 -35 -14 -46 -5 -39 33 -54 -18 -33 -109
12 -54 -1 -73 -25 -37 -9 15 -23 26 -30 26 -18 0 -9 40 10 47 8 3 11 9 8 14
-3 6 -1 15 4 22 5 7 12 46 14 87 4 68 3 76 -14 77 -10 1 -18 -3 -18 -8 0 -6
-4 -7 -10 -4 -16 10 -12 25 7 25 13 0 14 3 5 12 -17 17 -15 28 4 28 14 0 14 3
3 16 -11 14 -9 15 22 12 29 -3 34 -7 37 -31 4 -35 26 -31 30 6 3 23 -2 27 -38
38 -37 11 -42 10 -64 -10 -14 -13 -29 -20 -35 -16 -16 10 -13 45 4 45 19 0 19
20 2 45 -18 24 -39 11 -28 -17 9 -25 3 -68 -10 -68 -5 0 -9 9 -9 20 0 13 -5
17 -14 14 -10 -4 -16 2 -18 18 -3 24 -24 31 -45 15 -9 -7 -13 -5 -13 7 0 22
-17 20 -30 -4 -6 -11 -22 -23 -35 -26 -20 -5 -25 -13 -25 -37 0 -17 9 -40 20
-52 l20 -21 -65 0 c-45 0 -65 4 -65 12 0 7 6 15 13 17 9 4 9 6 0 6 -7 1 -17
-7 -22 -18 -6 -10 -27 -22 -47 -26 -29 -5 -41 -2 -60 16 -18 17 -21 26 -14 40
6 10 10 20 10 23 0 12 -38 5 -50 -9 -12 -15 1 -31 54 -67 11 -8 -43 -60 -55
-52 -4 2 -14 -5 -24 -16 -14 -15 -22 -17 -43 -9 -32 12 -51 -3 -32 -26 9 -11
16 -12 25 -5 7 6 19 8 28 4 9 -3 20 2 26 14 14 27 51 18 51 -12 -1 -21 -1 -21
-15 -2 -13 17 -15 18 -15 3 0 -9 14 -29 31 -44 26 -23 29 -32 24 -60 -5 -26
-2 -33 10 -33 16 0 20 -27 6 -48 -7 -11 -9 -10 -14 3 -6 14 -10 14 -35 1 -42
-22 -56 -44 -59 -94 -3 -34 2 -53 19 -78 27 -39 62 -49 113 -35 35 9 38 8 76
-31 38 -40 40 -41 93 -35 67 7 87 19 116 73 l24 43 45 -47 c59 -62 86 -101
101 -146 6 -20 23 -44 36 -53 31 -20 30 -25 -7 -62 -36 -36 -39 -37 -39 -12 0
24 -29 92 -30 70 0 -13 -8 -17 -32 -15 -27 1 -34 -4 -52 -41 -24 -48 -36 -54
-36 -18 0 16 6 25 15 25 8 0 15 5 15 10 0 19 -28 10 -43 -13 -13 -21 -13 -27
2 -58 27 -57 46 -78 82 -91 19 -6 45 -24 59 -39 14 -15 41 -35 60 -45 l35 -18
-32 -9 c-18 -6 -33 -14 -33 -20 0 -5 6 -7 13 -4 31 11 57 18 57 14 0 -2 -22
-18 -48 -34 l-49 -30 -12 34 c-7 19 -22 44 -33 55 -19 19 -21 19 -39 2 -24
-21 -24 -34 -1 -34 32 -1 -31 -40 -65 -40 -40 0 -45 -15 -21 -62 38 -77 142
-62 265 38 28 22 34 24 39 10 6 -17 -9 -36 -44 -55 -25 -13 -62 -80 -62 -111
0 -23 13 -26 29 -6 7 8 23 17 36 20 13 3 36 18 51 32 l28 25 12 -48 c17 -61
17 -106 2 -121 -20 -20 4 -31 39 -16 40 17 57 68 43 129 -5 22 -10 51 -10 65
0 21 5 16 29 -25 27 -48 92 -105 119 -105 16 0 15 31 -3 54 -8 11 -15 27 -15
36 0 10 -13 37 -29 61 -17 24 -28 45 -26 47 1 2 20 -4 40 -12 53 -23 100 -20
130 6 15 13 80 39 148 59 67 20 130 40 140 44 13 6 6 -14 -27 -70 -44 -72 -53
-95 -41 -95 13 0 82 40 105 60 14 12 62 44 108 72 45 27 90 61 98 74 9 13 20
24 24 24 12 0 30 -167 30 -276 0 -92 -13 -335 -26 -499 -3 -38 -9 -163 -13
-277 -5 -113 -12 -211 -15 -217 -4 -5 -11 -70 -16 -143 -5 -73 -12 -159 -16
-190 l-6 -57 -66 46 c-80 54 -96 61 -190 78 -61 10 -74 10 -79 -1 -7 -20 30
-75 85 -125 53 -49 202 -219 202 -232 0 -4 -15 0 -32 9 -53 28 -98 34 -132 20
-63 -26 -62 -36 8 -115 36 -40 86 -109 112 -154 46 -78 48 -84 52 -172 4 -112
-21 -491 -51 -772 -18 -159 -28 -218 -42 -239 -13 -20 -19 -51 -21 -109 -2
-87 -21 -188 -84 -450 -22 -93 -50 -210 -61 -260 -11 -49 -35 -152 -54 -227
-33 -133 -44 -200 -69 -412 l-11 -100 -50 60 c-27 33 -81 106 -119 162 l-70
102 31 42 c98 137 155 324 178 576 8 90 17 167 20 173 17 26 25 224 25 604 0
348 4 452 20 605 31 285 40 352 52 373 17 33 47 146 39 151 -4 3 -27 -11 -51
-30 -143 -111 -190 -200 -226 -432 -14 -88 -17 -201 -20 -627 -1 -286 -6 -537
-11 -557 l-8 -38 -30 57 c-45 87 -118 208 -127 211 -4 2 -8 8 -8 13 0 9 -69
120 -80 129 -6 5 -17 28 -108 225 -30 66 -70 143 -88 172 -37 58 -102 133
-115 133 -4 0 -35 16 -68 35 -77 45 -93 46 -79 3 5 -18 12 -44 14 -58 14 -92
37 -165 59 -186 14 -13 25 -29 25 -35 0 -7 -7 -4 -15 7 -9 10 -1 -10 16 -46
18 -36 39 -69 46 -73 7 -4 13 -13 13 -18 0 -6 46 -94 102 -197 55 -103 115
-214 132 -247 79 -151 191 -286 251 -301 20 -5 23 -14 29 -84 4 -43 4 -96 1
-117 -24 -144 -64 -263 -98 -291 -14 -12 -19 -8 -44 30 -15 24 -41 59 -58 79
-16 19 -57 70 -90 113 -33 43 -65 84 -70 90 -6 6 -49 58 -97 116 -47 58 -99
119 -116 135 -26 27 -30 39 -35 110 -15 199 -70 315 -150 315 -55 0 -79 -27
-85 -94 -3 -36 -9 -55 -16 -53 -30 10 -47 93 -66 321 -5 65 -17 152 -25 192
-14 71 -14 80 6 172 41 189 40 173 24 592 -9 221 -62 490 -124 635 -22 50 -47
112 -57 139 l-18 48 -19 -38 c-11 -22 -25 -42 -31 -46 -8 -5 -8 -10 1 -19 8
-8 8 -19 2 -33 -4 -11 -18 -58 -29 -103 -45 -183 -49 -499 -8 -813 10 -85 22
-177 25 -205 3 -27 11 -80 18 -117 12 -67 12 -68 -9 -68 -21 1 -103 20 -165
39 -19 6 -73 33 -120 60 -181 103 -308 155 -455 186 -20 4 -66 43 -140 118
-113 114 -233 204 -337 252 -52 23 -173 48 -184 37 -16 -17 21 -80 82 -139 12
-12 18 -23 12 -25 -15 -5 36 -66 126 -150 86 -81 211 -220 265 -295 19 -26 42
-56 50 -65 8 -9 44 -74 80 -144 36 -70 76 -144 90 -163 14 -20 33 -48 42 -62
l17 -26 -77 -1 c-42 0 -92 -5 -110 -11 -20 -6 -44 -6 -65 0 -84 24 -342 15
-456 -17 -176 -49 -272 -93 -380 -174 -43 -33 -99 -85 -124 -116 l-47 -56 0
-110 0 -109 23 12 c32 17 129 93 152 119 41 47 159 133 238 176 82 43 176 76
252 88 22 4 52 9 68 12 15 3 27 1 27 -4 0 -21 -64 -81 -93 -87 -41 -9 -97 -35
-97 -45 0 -5 16 -14 35 -21 38 -14 41 -23 24 -66 -33 -83 -51 -260 -30 -292 8
-12 16 -11 48 11 64 43 144 119 192 186 l47 64 75 3 c40 2 119 11 174 20 159
28 375 10 375 -31 0 -13 -27 -27 -181 -93 -117 -51 -199 -118 -270 -219 -107
-156 -134 -302 -72 -400 17 -28 34 -18 63 38 25 50 176 201 285 285 111 86
118 89 73 34 -89 -110 -110 -222 -82 -426 7 -49 26 -79 43 -69 16 10 84 113
110 166 87 184 142 228 307 250 116 15 236 -5 351 -56 17 -8 55 -19 85 -24 53
-10 134 -60 263 -161 71 -55 271 -190 318 -214 25 -12 53 -39 74 -70 18 -27
72 -106 120 -174 49 -68 110 -156 137 -195 l49 -71 9 -125 c5 -69 16 -181 24
-250 9 -69 18 -190 19 -270 2 -80 5 -156 8 -170 10 -57 17 -143 23 -285 3 -82
7 -151 9 -153 3 -3 43 20 101 60 38 25 61 47 124 117 l30 33 2 267 c0 146 0
358 -2 471 -3 237 15 577 36 700 9 47 19 108 24 135 11 63 42 206 80 360 16
66 46 192 66 279 20 88 51 207 70 265 22 65 37 135 41 185 3 44 12 91 20 106
7 14 13 31 13 38 0 24 90 257 131 337 31 61 41 94 42 134 2 42 6 56 22 65 131
73 249 180 324 296 40 62 56 93 146 285 26 55 59 102 104 151 145 156 259 420
311 721 24 140 50 253 62 276 5 11 11 31 13 47 5 41 72 216 111 289 18 35 31
68 28 73 -11 18 -59 6 -100 -24 -84 -65 -188 -256 -227 -418 -9 -36 -25 -141
-37 -233 -12 -93 -25 -178 -30 -190 -5 -12 -16 -46 -25 -76 -19 -63 -79 -186
-95 -196 -6 -4 -16 -19 -22 -33 -20 -49 -21 2 -3 187 18 190 35 291 61 361 18
50 34 370 18 370 -25 0 -107 -71 -143 -125 -41 -61 -103 -229 -118 -318 -5
-36 -23 -62 -23 -35 0 27 -122 385 -145 423 -33 57 -92 113 -127 120 -16 4
-32 5 -35 2 -11 -11 -2 -231 13 -310 8 -45 19 -110 23 -144 5 -34 16 -81 24
-105 9 -24 28 -83 43 -131 14 -48 48 -138 76 -199 27 -60 48 -111 46 -112 -90
-64 -102 -52 -96 90 3 58 1 107 -3 110 -5 3 -29 -14 -54 -37 -55 -50 -123
-185 -181 -357 l-38 -114 -21 60 c-11 34 -23 64 -27 68 -11 10 -10 175 2 269
5 44 14 152 20 240 10 143 17 237 34 430 3 33 15 186 26 340 35 489 40 549 51
613 7 38 16 61 23 59 6 -2 33 -30 59 -63 26 -32 52 -60 57 -62 24 -8 20 83 -7
154 -6 16 -4 17 8 7 18 -15 255 -133 266 -133 4 0 24 -20 43 -44 43 -54 82
-69 136 -50 21 7 40 11 42 10 2 -2 -5 -22 -16 -45 -21 -42 -19 -51 9 -51 17 0
89 72 89 90 0 22 17 8 39 -34 28 -50 56 -72 68 -53 4 6 7 40 6 74 l-2 62 47
-30 c48 -30 102 -39 102 -16 0 7 -22 35 -50 62 -27 27 -47 51 -45 54 3 2 15
-5 28 -17 13 -12 45 -26 73 -31 40 -8 54 -6 79 8 39 22 66 76 63 125 -4 48
-28 62 -28 17 0 -24 -6 -34 -25 -43 -23 -10 -29 -8 -52 14 -30 30 -25 58 9 59
13 0 32 5 43 10 15 7 10 8 -22 6 -24 -1 -43 -1 -43 1 0 2 9 15 20 29 11 14 20
34 20 44 0 9 11 26 25 37 14 11 32 33 40 48 20 38 20 110 0 118 -9 3 -15 0
-15 -9 0 -17 -37 -20 -60 -5 -13 9 -13 11 0 20 8 5 20 11 25 13 6 3 7 8 3 12
-12 13 -49 -6 -58 -31 -9 -22 -15 -24 -55 -22 -51 3 -58 19 -22 48 12 10 18
22 14 26 -4 5 -12 2 -17 -6 -5 -8 -11 -12 -13 -10 -11 13 -16 46 -8 59 8 13
12 13 27 0 15 -12 17 -12 12 1 -2 8 -13 17 -22 18 -21 4 -60 41 -52 49 3 3 17
-2 31 -11 27 -18 35 -7 10 14 -23 19 -61 4 -75 -29 -11 -29 -52 -50 -58 -31
-6 17 -22 11 -22 -8 0 -9 -9 -23 -20 -29 -16 -11 -21 -10 -29 5 -8 14 -13 15
-30 5 -28 -17 -41 -16 -41 3 0 11 6 14 22 9 17 -6 20 -4 14 10 -7 20 23 75 41
75 12 0 17 13 14 32 0 4 6 5 14 2 10 -4 15 0 15 14 0 12 4 23 8 26 5 3 14 31
21 63 7 32 17 67 22 78 7 17 7 41 0 87 0 4 -11 13 -23 19 -23 12 -23 12 -4
-10 11 -12 14 -21 7 -21 -6 0 -17 12 -23 26 -11 24 -16 26 -57 21 -41 -5 -80
-32 -65 -46 3 -3 9 1 14 9 12 19 22 8 14 -14 -4 -9 -13 -15 -20 -12 -16 6 -20
-29 -4 -39 6 -3 10 -14 10 -23 -1 -16 -2 -16 -14 1 -18 23 -43 22 -56 -3 -11
-20 -60 -29 -60 -10 0 6 -9 10 -20 10 -11 0 -20 -7 -20 -15 0 -21 31 -95 40
-95 4 0 24 -27 44 -60 21 -34 47 -69 57 -79 19 -18 19 -18 -28 -25 -26 -4 -60
-8 -74 -10 -39 -4 -52 -15 -39 -32 9 -10 7 -20 -11 -45 l-22 -31 -18 23 c-16
20 -20 22 -29 9 -5 -8 -10 -18 -10 -23 0 -4 -8 -2 -19 4 -15 10 -22 8 -39 -9
-14 -14 -40 -23 -79 -27 -32 -4 -69 -8 -82 -10 -31 -5 -23 1 41 35 60 31 128
108 180 203 34 64 78 179 78 206 0 28 54 93 100 119 47 27 97 77 119 119 10
19 9 22 -4 17 -14 -6 -20 5 -16 31 1 6 -8 -1 -19 -15 -11 -14 -20 -19 -20 -12
0 7 -4 11 -9 8 -19 -12 -19 23 0 45 15 17 22 20 31 11 8 -8 14 -7 24 6 12 16
14 15 24 -8 10 -24 10 -24 4 5 -7 36 -13 43 -22 28 -4 -7 -18 -10 -30 -6 -24
6 -29 19 -9 26 6 3 1 6 -12 6 -17 1 -22 -3 -17 -14 8 -23 -15 -65 -36 -65 -12
0 -23 -11 -30 -31 -7 -19 -14 -27 -20 -21 -15 15 -5 57 14 57 28 0 30 12 3 17
-14 3 -25 1 -25 -3 0 -5 -14 -9 -31 -9 -24 0 -30 4 -27 18 2 11 13 17 31 17
20 0 33 8 42 25 18 31 19 74 3 87 -20 16 -89 23 -109 13 -12 -7 -20 -7 -24 0
-4 6 -11 8 -16 4 -5 -3 -7 -10 -3 -15 3 -6 -2 -16 -12 -24 -18 -13 -18 -15 -2
-47 12 -24 16 -52 13 -103 -2 -38 -4 -81 -4 -95 l-1 -24 -16 22 c-10 14 -25
22 -45 22 -19 0 -29 5 -30 15 -1 8 -3 20 -4 25 -1 6 -3 14 -4 20 0 5 -13 16
-28 24 -47 24 -93 -15 -93 -79 0 -38 -18 -39 -34 0 -18 42 -25 45 -23 9 1 -15
-4 -29 -12 -32 -11 -4 -13 3 -8 32 7 45 -10 48 -60 10 -35 -26 -41 -51 -21
-87 6 -12 13 -37 15 -56 2 -18 10 -46 18 -62 8 -15 12 -36 8 -46 -5 -15 -3
-16 8 -5 18 17 29 15 29 -6 0 -24 -19 -42 -36 -35 -11 4 -12 -2 -7 -28 10 -51
9 -72 -4 -76 -7 -3 -13 16 -16 54 -10 119 -34 156 -96 145 -26 -4 -33 -2 -29
9 6 18 61 24 88 9 11 -6 20 -7 20 -2 0 18 -25 32 -57 32 l-33 0 0 110 c0 106
1 110 21 110 12 0 36 9 53 19 17 10 46 22 64 26 17 3 32 12 32 20 0 16 -44 28
-71 20 -11 -4 -19 -2 -19 4 0 6 6 11 13 11 22 0 136 138 148 180 10 32 9 48
-1 80 -7 21 -16 38 -19 35 -4 -2 -12 5 -19 16 -10 16 -9 19 3 19 23 0 20 62
-4 77 -15 9 -23 8 -40 -3 -21 -15 -46 -10 -36 7 4 5 2 9 -3 9 -5 0 -12 -9 -15
-20z m97 -16 c11 -30 6 -37 -13 -18 -10 10 -17 22 -14 27 7 12 21 8 27 -9z
m-287 -19 c0 -8 -4 -15 -9 -15 -4 0 -8 7 -8 15 0 8 4 15 8 15 5 0 9 -7 9 -15z
m-100 -20 c0 -7 -9 -16 -19 -18 -10 -3 -18 -1 -18 3 0 5 -3 15 -6 23 -4 11 1
13 19 10 13 -3 24 -11 24 -18z m30 -12 c-16 -16 -17 -16 -17 3 0 11 3 24 7 27
4 4 11 3 17 -3 7 -7 5 -16 -7 -27z m250 5 c-8 -24 -12 -28 -15 -15 -5 23 4 47
17 47 6 0 5 -13 -2 -32z m-185 -16 c11 -8 18 -26 18 -45 0 -18 3 -43 7 -57 l7
-25 6 25 c3 14 14 26 23 28 23 5 23 -44 0 -56 -22 -13 -19 -85 6 -128 18 -31
19 -33 2 -48 -32 -29 -48 -20 -61 33 -6 28 -9 59 -5 70 4 13 -1 24 -13 33 -33
23 -45 56 -32 88 7 16 9 47 6 68 -5 38 4 67 13 40 2 -7 12 -19 23 -26z m133
-2 c-3 -5 -12 -10 -20 -10 -8 0 -17 5 -20 10 -4 6 5 10 20 10 15 0 24 -4 20
-10z m72 -20 c-5 -31 -17 -36 -17 -7 0 15 4 27 10 27 5 0 9 -9 7 -20z m-247
-8 c0 -34 -25 -72 -54 -82 -16 -5 -31 -9 -32 -7 -2 2 -1 20 3 40 4 27 11 37
24 37 11 0 19 -7 19 -15 0 -8 5 -15 10 -15 6 0 10 14 10 30 0 17 5 30 10 30 6
0 10 -8 10 -18z m94 -7 c-19 -30 -26 -28 -17 3 3 12 12 22 19 22 12 0 11 -5
-2 -25z m199 -11 c-8 -20 -33 -17 -33 4 0 10 3 22 7 25 10 11 32 -13 26 -29z
m33 -1 c-4 -4 -11 -1 -16 7 -16 25 -11 35 7 17 9 -9 13 -20 9 -24z m-599 -39
c-12 -13 -37 6 -37 28 l0 22 22 -21 c12 -13 19 -25 15 -29z m151 -20 c-5 -23
-22 -18 -30 8 -5 14 -6 7 -3 -17 l5 -40 -25 50 c-30 60 -30 58 -6 50 11 -3 23
0 27 6 9 15 37 -35 32 -57z m319 44 c-3 -8 -6 -5 -6 6 -1 11 2 17 5 13 3 -3 4
-12 1 -19z m-23 -14 c6 -17 -9 -44 -25 -44 -5 0 -9 14 -9 30 0 33 23 42 34 14z
m-392 -194 c8 0 25 -12 39 -26 13 -14 40 -34 59 -45 19 -10 29 -18 22 -19 -8
0 -27 9 -44 21 -33 24 -89 30 -95 11 -4 -9 1 -10 19 -3 17 6 29 5 43 -6 17
-13 17 -15 2 -10 -13 5 -20 0 -27 -18 -10 -27 -25 -32 -34 -12 -4 8 -9 7 -18
-6 -36 -51 -37 -52 -48 -41 -8 8 -5 18 10 36 17 23 18 27 4 32 -23 9 -36 7
-29 -4 3 -5 -1 -10 -10 -10 -14 0 -14 3 1 38 11 27 14 53 9 97 l-6 60 44 -47
c24 -27 51 -48 59 -48z m78 66 c0 -14 11 -38 25 -54 14 -17 25 -33 25 -36 0
-12 -58 23 -64 39 -10 26 -7 75 4 75 6 0 10 -11 10 -24z m-326 -61 c-3 -6 11
-33 30 -58 19 -26 31 -49 26 -52 -17 -11 -11 -32 11 -38 12 -3 18 -10 14 -17
-4 -7 -11 -8 -18 -2 -14 12 -48 0 -66 -22 -17 -20 -31 -21 -31 -1 0 8 7 15 15
15 17 0 19 18 6 38 -6 10 -10 9 -14 -7 -3 -12 -10 -21 -16 -21 -14 0 -14 17
-1 25 8 5 7 11 -1 21 -9 11 -8 14 4 14 20 0 26 30 21 98 -5 52 -4 55 10 39 8
-11 12 -25 10 -32z m1146 -5 c0 -5 -4 -10 -9 -10 -5 0 -18 -3 -28 -7 -16 -6
-16 -5 -4 10 15 19 41 23 41 7z m60 0 c12 -8 9 -10 -13 -10 -16 0 -26 4 -22
10 8 12 16 12 35 0z m-1461 -16 c36 -25 11 -37 -34 -15 -25 12 -33 20 -24 24
24 9 34 8 58 -9z m1465 -31 c-3 -35 -4 -36 -46 -28 -24 4 -49 7 -55 8 -16 0
-17 24 -2 29 29 10 104 2 103 -9z m-1484 -13 c0 -21 -36 -55 -44 -42 -3 5 -10
21 -15 35 -10 25 -9 26 24 25 26 -1 35 -6 35 -18z m-537 -75 c3 -41 -27 -46
-41 -7 -13 38 3 71 24 50 8 -8 16 -27 17 -43z m37 25 c0 -16 -2 -30 -5 -30 -2
0 -11 14 -20 30 -15 29 -15 30 5 30 16 0 20 -7 20 -30z m694 21 c3 -5 -1 -12
-10 -15 -22 -9 -24 -8 -24 9 0 16 25 21 34 6z m-800 -33 c11 -42 7 -55 -9 -34
-16 22 -20 56 -6 56 5 0 11 -10 15 -22z m981 12 c3 -6 -4 -10 -17 -10 -18 0
-20 2 -8 10 19 12 18 12 25 0z m135 -35 c0 -8 6 -15 14 -15 8 0 23 -16 35 -35
11 -19 32 -41 46 -47 24 -11 26 -16 20 -47 -4 -20 -15 -45 -26 -56 -28 -28
-44 -7 -46 63 -1 31 -2 59 -3 61 0 2 -6 -2 -14 -8 -8 -7 -12 -21 -9 -31 4 -16
1 -20 -21 -18 -17 2 -26 8 -26 20 0 10 5 18 10 18 16 0 55 39 47 47 -4 3 -7 1
-7 -6 0 -7 -4 -9 -10 -6 -5 3 -10 1 -10 -4 0 -6 -9 -11 -20 -11 -23 0 -26 25
-8 65 12 28 28 33 28 10z m872 -17 c-7 -7 -12 -20 -12 -30 0 -10 -4 -18 -10
-18 -5 0 -10 8 -10 17 0 18 30 56 38 48 3 -3 0 -11 -6 -17z m-1172 4 c0 -4 -5
-13 -12 -20 -9 -9 -8 -12 5 -12 9 0 17 -4 17 -10 0 -5 -13 -10 -30 -10 -22 0
-30 5 -30 18 0 10 5 23 12 30 14 14 38 16 38 4z m-675 -12 c17 -7 15 -9 -12
-9 -18 -1 -33 4 -33 9 0 12 17 12 45 0z m52 4 c-3 -3 -12 -4 -19 -1 -8 3 -5 6
6 6 11 1 17 -2 13 -5z m553 -9 c0 -8 -4 -15 -10 -15 -5 0 -10 7 -10 15 0 8 5
15 10 15 6 0 10 -7 10 -15z m286 4 c8 -14 -14 -29 -43 -29 -28 0 -29 8 -5 26
21 16 39 18 48 3z m290 -45 c-5 -47 -4 -55 8 -51 11 4 15 -6 18 -48 3 -60 0
-63 -59 -57 -30 4 -32 6 -21 26 7 11 15 44 20 71 13 88 20 115 31 115 6 0 7
-20 3 -56z m482 39 c-2 -12 -11 -17 -23 -15 -25 5 -29 8 -20 21 11 19 47 13
43 -6z m240 -17 c3 -25 1 -27 -24 -24 -33 4 -41 20 -18 42 22 23 38 15 42 -18z
m-833 14 c-3 -5 -12 -10 -18 -10 -7 0 -6 4 3 10 19 12 23 12 15 0z m861 -27
c-11 -11 -19 6 -11 24 8 17 8 17 12 0 3 -10 2 -21 -1 -24z m-1133 13 c18 -14
14 -46 -7 -46 -6 0 -3 -7 7 -14 24 -18 21 -26 -8 -26 -26 0 -27 2 -29 62 -1
40 8 46 37 24z m-750 -18 c6 -23 1 -38 -12 -38 -10 0 -21 47 -13 55 11 10 20
4 25 -17z m1637 0 c0 -16 -3 -19 -11 -11 -6 6 -8 16 -5 22 11 17 16 13 16 -11z
m-1865 -16 c-2 -10 -4 -21 -4 -27 -1 -5 -10 1 -20 15 -22 28 -19 40 8 33 11
-3 18 -12 16 -21z m185 0 c0 -21 -5 -28 -18 -27 -27 2 -42 14 -42 36 0 14 7
19 30 19 26 0 30 -4 30 -28z m590 18 c0 -5 8 -10 19 -10 20 0 34 -32 24 -56
-8 -22 -18 -16 -33 20 -10 27 -18 34 -37 32 -12 -2 -26 -6 -30 -9 -10 -10 -23
-8 -23 3 0 5 15 14 33 19 43 12 47 13 47 1z m895 0 c3 -5 1 -10 -4 -10 -6 0
-11 5 -11 10 0 6 2 10 4 10 3 0 8 -4 11 -10z m140 0 c3 -5 -1 -10 -10 -10 -9
0 -13 5 -10 10 3 6 8 10 10 10 2 0 7 -4 10 -10z m-1765 -20 c0 -5 -4 -10 -10
-10 -5 0 -10 5 -10 10 0 6 5 10 10 10 6 0 10 -4 10 -10z m833 -9 c5 -22 0 -31
-20 -31 -13 0 -18 31 -6 43 11 12 21 8 26 -12z m158 10 c-7 -5 -17 -15 -22
-22 -6 -10 -9 -8 -9 9 0 16 6 22 23 22 16 0 18 -3 8 -9z m-1075 -38 c4 -13 1
-30 -5 -36 -8 -8 -11 -8 -11 2 0 7 -7 19 -15 27 -17 17 -9 45 11 37 8 -3 17
-16 20 -30z m1120 13 c10 -43 -8 -57 -41 -32 -19 14 -19 15 -1 35 25 27 34 26
42 -3z m-1026 -5 c0 -18 -31 -40 -47 -34 -14 5 -13 9 7 25 24 20 40 23 40 9z
m1566 -18 c-10 -10 -19 5 -10 18 6 11 8 11 12 0 2 -7 1 -15 -2 -18z m278 1 c8
-20 -1 -34 -20 -34 -8 0 -14 8 -14 18 0 33 23 44 34 16z m54 -1 c-4 -24 -23
-27 -25 -3 -1 12 4 20 13 20 9 0 14 -7 12 -17z m-2108 -19 c0 -14 -4 -23 -10
-19 -5 3 -10 15 -10 26 0 10 5 19 10 19 6 0 10 -12 10 -26z m76 -21 c-11 -12
-36 7 -36 29 l0 22 21 -23 c12 -12 19 -25 15 -28z m224 -3 c0 -4 11 -24 25
-44 22 -32 23 -37 8 -43 -20 -8 -41 19 -49 63 -4 23 -13 34 -30 38 -13 4 -24
13 -24 21 0 11 7 10 35 -6 19 -12 35 -24 35 -29z m770 37 c0 -14 -20 -37 -32
-37 -12 0 -10 24 4 38 16 16 28 15 28 -1z m760 -11 c0 -19 -4 -23 -20 -19 -32
8 -23 38 13 42 4 1 7 -10 7 -23z m55 14 c3 -5 2 -10 -4 -10 -5 0 -12 -8 -14
-17 -3 -11 -5 -7 -6 10 -1 27 12 36 24 17z m405 -2 c-1 -17 -80 -107 -80 -91
0 7 16 28 35 47 19 20 35 40 35 46 0 5 2 10 5 10 3 0 5 -6 5 -12z m-2328 -33
c6 -29 -7 -34 -15 -6 -4 17 0 31 9 31 1 0 4 -11 6 -25z m928 11 c0 -16 -27
-29 -42 -20 -5 3 -1 12 9 20 23 17 33 17 33 0z m-759 -39 c-13 -13 -15 1 -4
30 7 17 8 17 11 -1 2 -10 -1 -23 -7 -29z m818 29 c7 -9 8 -17 2 -20 -14 -9
-41 4 -41 20 0 18 24 18 39 0z m236 -6 c0 -7 -6 -15 -12 -17 -8 -3 -13 4 -13
17 0 13 5 20 13 18 6 -3 12 -11 12 -18z m969 -28 c-4 -18 -11 -32 -16 -32 -6
0 -8 10 -4 23 3 12 6 31 6 42 0 13 3 16 10 9 6 -6 7 -25 4 -42z m-1506 15 c16
-17 19 -26 11 -34 -8 -8 -8 -13 0 -17 6 -4 11 0 11 8 0 23 23 19 39 -6 13 -22
13 -22 -4 -8 -17 14 -18 13 -12 -8 4 -17 2 -22 -8 -18 -9 3 -12 0 -9 -9 3 -8
12 -11 19 -8 8 3 29 -11 49 -33 35 -38 38 -54 10 -54 -13 0 -13 -4 0 -28 15
-30 24 -101 14 -118 -4 -5 7 -16 23 -23 22 -10 28 -18 24 -31 -5 -14 -2 -17
13 -13 25 6 36 -11 27 -45 l-7 -27 -20 25 c-21 26 -42 28 -65 5 -7 -8 -20 -12
-28 -9 -8 4 -15 1 -15 -5 0 -13 -56 -15 -64 -3 -5 9 29 52 41 52 3 0 12 -8 19
-17 12 -16 13 -16 14 -2 0 9 10 20 23 24 19 6 20 8 4 12 -11 3 -16 11 -13 19
3 8 1 14 -4 14 -6 0 -10 -5 -10 -11 0 -6 -5 -7 -12 -2 -7 4 -31 8 -53 8 -39 0
-45 5 -69 60 -3 6 -9 4 -14 -4 -12 -17 -58 -3 -99 29 -20 16 -22 21 -10 26 9
3 25 0 38 -6 21 -12 21 -11 17 21 -5 33 14 89 30 89 14 0 42 57 45 92 2 18 0
43 -5 56 -11 30 21 30 50 -1z m-408 -2 c-7 -8 -17 -15 -22 -15 -6 0 -5 7 2 15
7 8 17 15 22 15 6 0 5 -7 -2 -15z m1667 -7 c-3 -8 -6 -5 -6 6 -1 11 2 17 5 13
3 -3 4 -12 1 -19z m-1057 -28 c0 -20 -26 -34 -36 -19 -3 6 -3 22 0 35 6 21 9
24 21 14 8 -7 15 -20 15 -30z m274 -7 c-21 -16 -38 -12 -42 9 -4 22 40 40 52
20 6 -11 3 -19 -10 -29z m-337 17 c11 -16 10 -21 -6 -30 -30 -15 -51 -12 -51
8 0 20 18 42 35 42 5 0 16 -9 22 -20z m270 0 c-1 -11 -5 -20 -9 -20 -11 0 -20
19 -13 30 11 17 24 11 22 -10z m-857 2 c0 -15 -24 -32 -47 -32 -33 0 -29 28 5
33 15 2 30 5 35 6 4 0 7 -3 7 -7z m760 -17 c0 -8 -4 -17 -10 -20 -6 -4 -10 5
-10 20 0 15 4 24 10 20 6 -3 10 -12 10 -20z m980 -33 c0 -26 -25 -5 -28 24 -2
28 -2 28 13 10 8 -11 15 -26 15 -34z m-1861 16 c11 -10 14 -10 18 0 8 21 21
13 32 -18 5 -17 20 -44 31 -60 12 -17 17 -30 12 -30 -5 0 -18 12 -28 27 -28
43 -47 60 -76 67 -16 3 -28 11 -28 16 0 14 23 12 39 -2z m-69 -8 c0 -5 -7 -10
-15 -10 -8 0 -15 5 -15 10 0 6 7 10 15 10 8 0 15 -4 15 -10z m390 -5 c0 -8
-10 -20 -22 -26 -18 -9 -21 -9 -11 1 6 7 9 19 6 26 -3 8 1 14 11 14 9 0 16 -7
16 -15z m508 3 c15 -15 -3 -38 -29 -38 -14 0 -19 7 -19 25 0 27 26 35 48 13z
m646 -36 c6 -38 4 -43 -19 -54 -32 -15 -54 3 -53 43 1 24 8 33 32 43 17 7 31
13 32 12 1 -1 4 -20 8 -44z m926 -7 c0 -20 -11 -24 -31 -12 -22 14 -24 28 -7
45 10 10 15 9 25 -5 7 -9 13 -22 13 -28z m-1418 -10 c11 -20 11 -20 -11 -1
-11 11 -21 26 -21 35 0 14 2 14 10 1 6 -8 16 -24 22 -35z m976 -66 c-1 -30 2
-62 6 -71 6 -13 1 -19 -20 -24 -19 -5 -29 -3 -32 5 -3 8 -9 5 -18 -8 -8 -11
-21 -18 -29 -15 -8 4 -15 1 -15 -5 0 -6 -4 -11 -10 -11 -17 0 -11 20 7 27 21
8 53 35 53 45 0 4 -6 5 -14 2 -9 -3 -13 2 -12 17 1 13 8 23 19 25 36 5 47 14
47 38 0 35 -20 43 -42 16 -21 -26 -22 -21 -7 31 l12 38 28 -28 c24 -24 28 -36
27 -82z m492 97 c0 -7 -7 -19 -15 -26 -13 -11 -15 -8 -13 14 2 26 28 38 28 12z
m-2449 -28 c-4 -12 -14 -24 -21 -26 -9 -3 -11 1 -7 12 4 10 7 22 7 27 0 5 7 9
15 9 11 0 12 -6 6 -22z m249 2 c0 -11 -4 -20 -10 -20 -5 0 -10 9 -10 20 0 11
5 20 10 20 6 0 10 -9 10 -20z m887 -17 c-3 -10 -5 -4 -5 12 0 17 2 24 5 18 2
-7 2 -21 0 -30z m453 28 c0 -5 3 -16 6 -25 4 -11 1 -16 -10 -16 -10 0 -16 9
-16 25 0 14 5 25 10 25 6 0 10 -4 10 -9z m53 3 c3 -4 2 -16 -4 -26 -13 -24
-35 -9 -26 16 7 17 19 21 30 10z m194 -31 c-3 -3 -11 -2 -17 2 -8 5 -7 11 2
22 12 15 13 14 16 -1 2 -10 1 -20 -1 -23z m203 23 c0 -8 -4 -18 -10 -21 -5 -3
-10 3 -10 14 0 12 5 21 10 21 6 0 10 -6 10 -14z m40 -21 c0 -18 -5 -25 -19
-25 -14 0 -17 6 -13 25 2 14 11 25 18 25 8 0 14 -10 14 -25z m-1776 -8 c24
-18 18 -61 -9 -65 -31 -4 -43 10 -38 46 6 34 19 40 47 19z m-344 -28 c0 -16
-31 -22 -43 -10 -9 9 -9 14 2 20 16 10 41 4 41 -10z m1092 -34 c4 -5 4 -13 2
-17 -5 -8 -64 57 -64 70 0 6 51 -37 62 -53z m204 39 c-3 -9 -6 -21 -6 -27 0
-7 -7 -20 -14 -30 -11 -14 -19 -16 -40 -7 -35 13 -33 25 12 54 44 29 56 32 48
10z m674 1 c0 -8 -4 -15 -9 -15 -13 0 -22 16 -14 24 11 11 23 6 23 -9z m-136
-27 c-4 -34 -4 -34 -14 -16 -11 17 -3 51 9 43 4 -2 7 -14 5 -27z m39 12 c-3
-11 -9 -20 -13 -20 -5 0 -6 9 -3 20 3 11 9 20 13 20 5 0 6 -9 3 -20z m-1988 0
c-3 -5 -11 -10 -16 -10 -6 0 -7 5 -4 10 3 6 11 10 16 10 6 0 7 -4 4 -10z
m1119 -39 c-7 -7 -34 21 -34 36 0 10 6 8 19 -8 11 -13 18 -26 15 -28z m516 15
c0 -18 3 -61 6 -95 12 -110 -10 -74 -64 106 -3 10 15 19 46 22 7 1 12 -12 12
-33z m-1354 13 c3 -6 19 -9 35 -7 32 5 39 -11 15 -31 -21 -18 -75 13 -76 42 0
11 18 8 26 -4z m-262 -23 c-4 -11 -16 -15 -35 -14 -38 3 -37 12 4 24 38 12 39
11 31 -10z m996 -2 c14 -8 39 -25 55 -39 l30 -25 -25 -20 c-44 -35 -110 -22
-110 21 0 10 -11 31 -25 47 -13 16 -21 32 -18 36 9 9 61 -3 93 -20z m452 -16
c8 -13 24 -48 36 -79 l21 -56 -34 -30 c-23 -20 -37 -27 -44 -20 -7 7 -8 2 -4
-13 4 -16 3 -21 -5 -16 -16 10 -15 43 1 49 6 3 2 6 -10 6 -13 1 -23 4 -23 9 0
4 -18 26 -40 48 l-39 42 39 6 c52 8 90 -7 90 -36 0 -21 1 -21 15 6 11 21 12
32 4 42 -6 8 -15 11 -20 8 -5 -2 -20 1 -35 9 l-27 14 24 16 c30 22 34 21 51
-5z m448 2 c0 -11 -7 -20 -15 -20 -8 0 -15 9 -15 20 0 11 7 20 15 20 8 0 15
-9 15 -20z m84 -31 c-7 -12 -31 -11 -38 0 -4 5 -3 17 0 26 6 15 8 15 25 -1 10
-9 16 -21 13 -25z m494 -2 c7 -18 12 -41 12 -49 0 -11 7 -15 23 -11 21 4 21 3
-3 -11 -30 -18 -40 -20 -40 -5 0 6 -9 24 -20 40 -17 23 -19 33 -10 49 15 28
24 25 38 -13z m-551 -9 c-3 -8 -6 -5 -6 6 -1 11 2 17 5 13 3 -3 4 -12 1 -19z
m-1743 -1 c26 -19 24 -67 -4 -89 -32 -26 -53 -19 -61 22 -6 28 -3 39 13 58 25
26 28 26 52 9z m1706 -24 c0 -5 -4 -15 -10 -23 -11 -18 -25 -7 -17 15 6 15 27
21 27 8z m-1586 -18 c-4 -8 -10 -15 -15 -15 -5 0 -9 7 -9 15 0 8 7 15 15 15 9
0 12 -6 9 -15z m1626 -6 c0 -5 -4 -9 -10 -9 -5 0 -10 7 -10 16 0 8 5 12 10 9
6 -3 10 -10 10 -16z m190 11 c0 -9 -12 -13 -72 -25 -32 -6 -19 14 15 24 43 12
57 13 57 1z m-1565 -10 c3 -5 1 -10 -4 -10 -6 0 -11 5 -11 10 0 6 2 10 4 10 3
0 8 -4 11 -10z m1276 -33 c-8 -8 -11 -5 -11 9 0 27 14 41 18 19 2 -9 -1 -22
-7 -28z m-1221 -26 c0 -21 -16 -2 -25 29 -7 24 -7 24 9 5 8 -11 16 -27 16 -34z
m1520 44 c0 -12 -33 -55 -42 -55 -10 0 -38 25 -38 34 0 3 11 6 24 6 14 0 28 5
31 10 6 10 25 14 25 5z m-1576 -21 c26 -25 18 -39 -8 -15 -15 14 -30 20 -37
16 -8 -5 -10 -4 -5 3 10 17 32 15 50 -4z m496 6 c0 -5 -5 -10 -11 -10 -5 0 -7
5 -4 10 3 6 8 10 11 10 2 0 4 -4 4 -10z m870 -14 c0 -14 -5 -28 -12 -32 -6 -4
-8 -3 -5 3 4 6 0 16 -8 23 -17 14 -11 30 11 30 8 0 14 -10 14 -24z m80 14 c0
-5 -5 -10 -11 -10 -18 0 -38 -32 -39 -62 0 -30 -16 -40 -45 -25 -19 10 -19 10
1 18 12 4 24 20 27 36 7 34 67 72 67 43z m-1523 -32 c-3 -7 -5 -2 -5 12 0 14
2 19 5 13 2 -7 2 -19 0 -25z m1397 6 c9 -25 7 -34 -8 -34 -19 0 -29 17 -22 35
7 20 22 19 30 -1z m185 -11 c2 -2 -5 -3 -17 -3 -14 0 -22 6 -22 16 0 14 3 15
18 3 9 -7 19 -15 21 -16z m-809 -15 c13 -18 33 -43 44 -55 12 -12 21 -34 21
-49 0 -22 5 -27 29 -30 16 -2 36 -10 45 -19 15 -16 14 -17 -14 -11 -16 3 -61
10 -100 16 -66 9 -185 37 -193 44 -2 2 4 29 13 60 16 55 45 78 45 36 0 -30 31
-100 44 -100 7 0 12 14 12 33 0 45 13 107 23 107 4 0 18 -15 31 -32z m510 2
c0 -10 -4 -22 -10 -25 -6 -4 -10 7 -10 25 0 18 4 29 10 25 6 -3 10 -15 10 -25z
m-1214 3 c21 -28 16 -41 -16 -39 -23 1 -30 5 -30 22 0 37 24 46 46 17z m218 8
c3 -5 -5 -11 -19 -13 -26 -5 -35 6 -12 15 19 8 25 8 31 -2z m276 -46 c0 -43
-3 -55 -16 -55 -11 0 -14 6 -9 20 5 14 2 20 -10 20 -8 0 -18 -6 -21 -14 -3 -8
-15 -11 -30 -8 -29 5 -30 13 -5 43 16 20 22 22 43 12 20 -9 25 -8 25 3 0 8 -4
14 -9 14 -4 0 -8 5 -8 10 0 6 9 10 20 10 18 0 20 -7 20 -55z m597 49 c-3 -3
-12 -4 -19 -1 -8 3 -5 6 6 6 11 1 17 -2 13 -5z m363 -4 c0 -5 -4 -10 -10 -10
-5 0 -10 5 -10 10 0 6 5 10 10 10 6 0 10 -4 10 -10z m698 -23 c2 -10 -5 -17
-19 -19 -21 -3 -21 -4 10 -34 21 -20 29 -34 22 -39 -6 -3 -8 -11 -5 -17 4 -6
0 -14 -7 -19 -25 -15 -32 -10 -25 21 3 17 1 30 -4 30 -6 0 -10 6 -10 14 0 9
-10 13 -25 12 -14 0 -25 -4 -25 -7 0 -3 -7 -14 -15 -25 -14 -18 -14 -18 -15 6
0 19 9 31 33 45 17 10 38 27 45 37 16 22 35 19 40 -5z m-1010 -15 c2 -12 -1
-22 -7 -22 -6 0 -11 4 -11 9 0 5 -3 17 -7 27 -4 12 -2 15 8 12 8 -2 15 -14 17
-26z m119 22 c-3 -3 -12 -4 -19 -1 -8 3 -5 6 6 6 11 1 17 -2 13 -5z m-167 -34
c0 -11 -7 -20 -15 -20 -8 0 -15 9 -15 20 0 11 7 20 15 20 8 0 15 -9 15 -20z
m205 10 c3 -5 1 -10 -4 -10 -6 0 -11 5 -11 10 0 6 2 10 4 10 3 0 8 -4 11 -10z
m149 -21 c-8 -13 -24 -1 -24 18 0 13 3 13 15 3 8 -7 12 -16 9 -21z m-214 7 c0
-8 -4 -18 -10 -21 -5 -3 -10 3 -10 14 0 12 5 21 10 21 6 0 10 -6 10 -14z m630
-1 c-13 -16 -40 -20 -40 -7 0 14 12 22 33 22 16 0 17 -3 7 -15z m-840 -26 c0
-5 -4 -9 -10 -9 -5 0 -10 7 -10 16 0 8 5 12 10 9 6 -3 10 -10 10 -16z m258 -2
c2 -12 -3 -17 -17 -17 -23 0 -24 1 -15 25 8 19 28 15 32 -8z m-328 -29 c0 -11
-5 -15 -15 -12 -15 6 -20 35 -8 47 9 9 23 -13 23 -35z m36 12 c1 -27 0 -28
-12 -12 -17 22 -18 42 -1 42 6 0 12 -13 13 -30z m361 10 c-1 -21 -21 -27 -32
-10 -8 13 3 30 20 30 8 0 13 -9 12 -20z m447 -42 c-7 -11 -31 -10 -39 2 -3 5
2 21 12 36 l17 27 8 -28 c4 -16 5 -32 2 -37z m-894 42 c0 -5 -4 -10 -10 -10
-5 0 -10 5 -10 10 0 6 5 10 10 10 6 0 10 -4 10 -10z m493 -10 c-8 -31 -23 -34
-23 -6 0 16 6 26 14 26 9 0 12 -7 9 -20z m437 -7 c0 -22 -2 -25 -10 -13 -13
20 -13 40 0 40 6 0 10 -12 10 -27z m124 -2 c3 -5 -1 -14 -9 -21 -8 -7 -15 -10
-15 -7 0 3 -3 12 -6 21 -7 17 20 23 30 7z m-1834 -21 c0 -11 -4 -20 -10 -20
-5 0 -10 9 -10 20 0 11 5 20 10 20 6 0 10 -9 10 -20z m1788 -12 c4 -19 -21
-24 -52 -12 -13 5 -14 9 -5 21 16 19 53 13 57 -9z m188 -5 c17 -17 17 -18 -1
-21 -9 -2 -21 2 -26 10 -20 31 -1 39 27 11z m-286 -23 c0 -11 -7 -20 -15 -20
-13 0 -14 4 -5 20 6 11 13 20 15 20 3 0 5 -9 5 -20z m-1676 -15 c28 -21 33
-31 35 -75 1 -29 -2 -50 -8 -50 -15 0 -31 34 -31 64 0 16 -9 32 -25 42 -25 16
-34 44 -14 44 6 0 25 -11 43 -25z m1866 5 c0 -5 -6 -10 -14 -10 -8 0 -18 5
-21 10 -3 6 3 10 14 10 12 0 21 -4 21 -10z m213 -10 c-6 -21 -28 -27 -38 -10
-9 15 3 30 25 30 13 0 17 -5 13 -20z m47 -5 c0 -8 -4 -15 -9 -15 -13 0 -22 16
-14 24 11 11 23 6 23 -9z m-1927 -1 c5 -6 -7 -38 -19 -53 -8 -9 -35 31 -30 44
5 15 37 20 49 9z m1697 -4 c0 -5 -4 -10 -10 -10 -5 0 -10 5 -10 10 0 6 5 10
10 10 6 0 10 -4 10 -10z m-2142 -12 c18 -18 15 -36 -9 -48 -27 -15 -32 -8 -24
29 7 34 14 38 33 19z m1952 -41 c0 -20 -25 1 -28 24 -2 23 -2 23 13 5 8 -11
15 -24 15 -29z m325 33 c9 -14 -4 -52 -16 -45 -12 8 -12 55 0 55 6 0 13 -5 16
-10z m-2058 -6 c-3 -3 -12 -4 -19 -1 -8 3 -5 6 6 6 11 1 17 -2 13 -5z m246
-14 c-3 -11 -9 -20 -15 -20 -5 0 -4 9 2 20 6 11 12 20 14 20 2 0 2 -9 -1 -20z
m61 -5 c-9 -14 -18 -25 -20 -25 -2 0 -4 11 -4 25 0 18 5 25 20 25 20 0 20 -1
4 -25z m1240 10 c-4 -8 -10 -12 -15 -9 -14 8 -10 24 6 24 9 0 12 -6 9 -15z
m96 -16 c0 -9 -39 -23 -47 -16 -2 3 1 15 7 27 9 17 14 19 26 9 8 -6 14 -15 14
-20z m527 -6 c-3 -3 -11 -2 -17 2 -8 5 -7 11 2 22 12 15 13 14 16 -1 2 -10 1
-20 -1 -23z m-2025 -3 c-2 -16 -8 -30 -13 -30 -10 0 -12 43 -2 53 14 14 19 6
15 -23z m260 18 c7 -7 22 -14 33 -14 28 -2 196 -35 220 -44 15 -5 -3 -15 -75
-38 -118 -38 -280 -73 -280 -61 0 5 11 9 25 9 40 0 71 20 89 56 24 51 21 59
-21 59 -32 0 -39 4 -41 23 -3 16 2 22 17 22 11 0 26 -6 33 -12z m1459 -20 c14
-26 6 -32 -20 -16 -25 15 -29 51 -6 42 9 -4 20 -15 26 -26z m149 14 c0 -14 -8
-17 -39 -17 -45 0 -44 4 2 21 18 6 33 12 35 13 1 0 2 -7 2 -17z m-1743 -14
c-3 -8 -6 -5 -6 6 -1 11 2 17 5 13 3 -3 4 -12 1 -19z m1653 8 c0 -13 -20 -36
-31 -36 -7 0 -19 37 -13 42 9 10 44 5 44 -6z m-1760 -33 c-11 -17 -11 -17 -6
0 3 10 6 24 7 30 0 9 2 9 5 0 3 -7 0 -20 -6 -30z m1380 15 c11 -12 20 -29 20
-38 0 -26 49 -89 75 -96 13 -3 27 -14 30 -25 4 -10 31 -35 61 -55 30 -20 54
-42 54 -50 0 -19 -7 -18 -32 6 -12 11 -37 23 -56 26 -20 4 -51 17 -70 30 -19
13 -40 24 -46 24 -6 0 -67 27 -134 60 -68 33 -127 60 -130 60 -4 0 -18 9 -31
19 l-24 18 99 20 c135 27 159 28 184 1z m-1571 -12 c9 -10 8 -16 -4 -26 -21
-17 -51 6 -34 26 6 8 15 14 19 14 4 0 13 -6 19 -14z m257 -1 c20 -10 24 -16
13 -19 -8 -3 -26 -10 -41 -15 -31 -11 -35 -3 -18 30 13 23 11 23 46 4z m1579
5 c3 -5 -1 -10 -9 -10 -9 0 -16 5 -16 10 0 6 4 10 9 10 6 0 13 -4 16 -10z
m345 0 c0 -5 -12 -10 -27 -9 -25 0 -26 1 -8 9 27 12 35 12 35 0z m-2266 -22
c9 -34 8 -38 -9 -38 -10 0 -15 10 -15 30 0 35 15 40 24 8z m1863 16 c-3 -3
-12 -4 -19 -1 -8 3 -5 6 6 6 11 1 17 -2 13 -5z m223 -4 c0 -5 -4 -10 -10 -10
-5 0 -10 5 -10 10 0 6 5 10 10 10 6 0 10 -4 10 -10z m-975 -10 c3 -5 -1 -10
-9 -10 -9 0 -16 5 -16 10 0 6 4 10 9 10 6 0 13 -4 16 -10z m1019 -6 c11 -30 7
-54 -9 -48 -9 4 -15 19 -15 35 0 31 14 39 24 13z m-1741 -9 c-3 -9 -8 -14 -10
-11 -3 3 -2 9 2 15 9 16 15 13 8 -4z m1567 8 c0 -5 -5 -15 -10 -23 -7 -12 -12
-12 -22 -2 -10 10 -10 15 2 22 18 12 30 13 30 3z m90 -8 c0 -8 -7 -15 -16 -15
-14 0 -14 3 -4 15 7 8 14 15 16 15 2 0 4 -7 4 -15z m-196 -10 c7 -19 -3 -47
-15 -39 -12 7 -12 54 0 54 5 0 11 -7 15 -15z m143 -22 c1 -21 3 -49 5 -63 2
-18 -2 -25 -17 -27 -11 -1 -14 0 -7 3 18 8 15 34 -5 35 -11 0 -13 3 -5 6 6 2
12 9 12 14 0 4 -6 6 -14 3 -11 -4 -11 2 2 30 10 19 19 35 22 36 3 0 6 -17 7
-37z m-887 3 c0 -8 -4 -18 -10 -21 -5 -3 -10 3 -10 14 0 12 5 21 10 21 6 0 10
-6 10 -14z m65 -5 c6 -11 -33 -36 -42 -27 -3 3 -3 12 0 21 7 17 33 20 42 6z
m-905 -16 c0 -8 -2 -15 -4 -15 -2 0 -6 7 -10 15 -3 8 -1 15 4 15 6 0 10 -7 10
-15z m1660 6 c0 -5 -11 -11 -25 -13 -24 -5 -32 2 -18 15 9 10 43 8 43 -2z
m115 -28 c3 -13 2 -23 -3 -23 -11 0 -22 24 -22 48 0 21 15 5 25 -25z m-2020 7
c23 -26 8 -26 -25 0 -18 14 -21 20 -9 20 9 0 24 -9 34 -20z m215 -1 c0 -5 -4
-9 -10 -9 -5 0 -10 7 -10 16 0 8 5 12 10 9 6 -3 10 -10 10 -16z m1880 1 c0 -5
-6 -10 -14 -10 -8 0 -17 -6 -19 -12 -3 -7 -6 -3 -6 10 -1 16 5 22 19 22 11 0
20 -4 20 -10z m-1955 -10 c-3 -5 -13 -10 -21 -10 -8 0 -12 5 -9 10 3 6 13 10
21 10 8 0 12 -4 9 -10z m263 -61 c8 -12 19 -18 28 -15 8 3 14 1 14 -4 0 -6 -4
-10 -10 -10 -5 0 -10 -6 -10 -14 0 -17 -27 -28 -50 -21 -23 7 -35 52 -19 71
16 20 32 17 47 -7z m-204 -14 c-4 -8 -10 -15 -16 -15 -5 0 -7 4 -4 9 4 5 0 12
-6 14 -7 3 -3 6 9 6 16 1 21 -3 17 -14z m1876 5 c-8 -5 -19 -10 -25 -10 -5 0
-3 5 5 10 8 5 20 10 25 10 6 0 3 -5 -5 -10z m132 -25 c-5 -45 -16 -51 -43 -24
l-21 21 28 18 c39 25 41 25 36 -15z m-2090 0 c-5 -29 -32 -34 -32 -7 0 22 8
32 25 32 8 0 10 -10 7 -25z m1873 6 c-3 -6 -11 -11 -17 -11 -6 0 -6 6 2 15 14
17 26 13 15 -4z m105 -47 c0 -22 -2 -24 -14 -14 -8 6 -12 18 -9 26 9 23 23 16
23 -12z m-340 -25 c0 -19 -21 -49 -34 -49 -10 0 -7 30 4 51 14 25 30 24 30 -2z
m299 -11 c18 -11 18 -12 -6 -25 -41 -21 -55 -17 -41 12 13 28 20 30 47 13z
m-444 -1819 c4 -17 16 -46 26 -64 l19 -32 -54 -119 c-115 -257 -175 -349 -275
-424 -75 -56 -81 -54 -81 29 0 82 9 108 53 164 19 23 54 77 78 120 24 43 67
113 96 155 29 42 67 105 85 140 18 34 35 62 39 62 4 0 10 -14 14 -31z m-3040
-968 c101 -33 368 -91 418 -91 38 0 117 -34 117 -51 0 -6 8 -9 20 -6 41 11 60
-60 75 -277 l6 -89 -50 7 c-65 9 -233 58 -341 101 -47 19 -118 43 -158 55 -51
15 -77 28 -88 45 -16 25 -64 156 -69 190 -2 11 -8 40 -14 65 -19 77 -20 80
-14 80 3 0 47 -13 98 -29z m86 -500 c46 -16 129 -45 184 -64 55 -19 126 -40
158 -47 31 -7 57 -16 57 -20 0 -9 -77 -20 -134 -20 -26 0 -65 11 -103 30 -86
42 -249 80 -376 87 -59 3 -105 8 -103 11 3 2 34 15 68 27 88 32 148 31 249 -4z
m654 -274 c22 -17 59 -50 83 -72 42 -39 43 -42 40 -94 l-3 -54 -43 67 c-46 71
-84 110 -144 148 -46 28 -48 38 -5 38 21 0 45 -11 72 -33z m-457 -106 c18 -5
76 -15 130 -21 182 -21 328 -85 367 -160 l15 -29 -58 26 c-125 55 -215 75
-347 74 -112 -1 -171 -13 -250 -51 -62 -30 -86 -32 -45 -3 12 9 32 27 44 41
12 14 28 32 36 41 9 9 28 33 43 54 16 20 29 37 30 37 1 0 17 -4 35 -9z m857
-296 c29 -38 63 -79 75 -90 12 -11 32 -33 43 -50 21 -30 21 -30 -18 5 -22 19
-79 64 -128 100 -48 35 -87 70 -87 76 0 7 5 25 10 40 10 26 11 26 31 8 11 -10
45 -50 74 -89z"/>
<path d="M3870 7610 c0 -5 5 -10 10 -10 6 0 10 5 10 10 0 6 -4 10 -10 10 -5 0
-10 -4 -10 -10z"/>
<path d="M3680 6785 c0 -8 4 -15 10 -15 5 0 7 7 4 15 -4 8 -8 15 -10 15 -2 0
-4 -7 -4 -15z"/>
<path d="M3990 7830 c0 -5 5 -10 10 -10 6 0 10 5 10 10 0 6 -4 10 -10 10 -5 0
-10 -4 -10 -10z"/>
<path d="M3270 7585 c-7 -9 -10 -19 -6 -22 4 -4 11 -1 16 7 8 12 13 13 30 3
28 -18 32 -16 20 7 -13 24 -42 26 -60 5z"/>
<path d="M4476 7573 c-9 -22 12 -43 23 -24 10 15 4 41 -9 41 -4 0 -11 -8 -14
-17z"/>
<path d="M3170 7540 c0 -5 7 -10 15 -10 8 0 15 5 15 10 0 6 -7 10 -15 10 -8 0
-15 -4 -15 -10z"/>
<path d="M2366 7384 c-6 -17 9 -44 25 -44 5 0 9 9 9 21 0 11 -4 17 -10 14 -5
-3 -10 -2 -10 4 0 5 6 12 13 14 7 4 6 6 -4 6 -9 1 -20 -6 -23 -15z"/>
<path d="M2883 7283 c-21 -8 -15 -18 12 -19 15 -1 24 3 22 9 -4 13 -18 17 -34
10z"/>
<path d="M4972 7119 c-12 -18 -12 -23 -1 -30 16 -10 26 -1 31 25 4 27 -15 30
-30 5z"/>
<path d="M4635 7121 c-7 -12 12 -24 25 -16 11 7 4 25 -10 25 -5 0 -11 -4 -15
-9z"/>
<path d="M4991 7063 c-6 -10 -11 -12 -11 -5 0 14 -36 16 -45 2 -3 -5 1 -10 10
-10 11 0 15 -5 11 -15 -4 -11 2 -15 24 -15 23 0 30 -4 30 -20 0 -23 15 -27 24
-5 3 9 12 12 22 8 12 -4 15 -2 12 8 -3 8 -16 14 -29 14 -18 0 -24 5 -24 22 -1
31 -11 38 -24 16z"/>
<path d="M4887 6982 c-37 -40 -47 -67 -45 -114 1 -24 -2 -59 -7 -78 -8 -34 -8
-35 12 -17 11 9 25 17 31 17 7 0 12 4 12 8 0 5 18 17 40 27 45 20 134 110 125
125 -4 6 -12 7 -18 3 -22 -15 -52 -8 -74 16 -12 14 -20 27 -18 31 2 3 -5 6
-15 7 -9 1 -29 -10 -43 -25z"/>
<path d="M5010 6959 c0 -5 5 -7 10 -4 6 3 10 8 10 11 0 2 -4 4 -10 4 -5 0 -10
-5 -10 -11z"/>
<path d="M2635 6738 c-4 -9 -1 -27 6 -40 l12 -23 10 23 c8 18 7 27 -6 39 -15
15 -17 15 -22 1z"/>
<path d="M2676 6632 c-2 -4 -1 -14 5 -22 6 -10 9 -11 9 -2 0 6 7 12 15 12 8 0
15 5 15 10 0 12 -37 14 -44 2z"/>
<path d="M2475 6500 c-3 -5 -1 -10 4 -10 6 0 11 5 11 10 0 6 -2 10 -4 10 -3 0
-8 -4 -11 -10z"/>
<path d="M2387 6494 c-16 -16 -6 -35 16 -32 12 2 22 10 22 18 0 16 -26 25 -38
14z"/>
<path d="M2710 6286 c0 -21 21 -31 30 -15 5 7 6 17 4 21 -9 14 -34 9 -34 -6z"/>
</g>
</svg>
