<?xml version="1.0" encoding="UTF-8" standalone="no"?>
<!-- Created with Inkscape (http://www.inkscape.org/) -->

<svg
   version="1.1"
   width="49.356762"
   height="63.887783"
   viewBox="0 0 49.35676 63.887782"
   id="Capa_1"
   xml:space="preserve"
   xmlns="http://www.w3.org/2000/svg"
   xmlns:svg="http://www.w3.org/2000/svg"><defs
   id="defs11" />
<g
   id="g3"
   transform="translate(-275.068,-392.643)">
	<path
   d="m 275.18,392.643 c -0.05,0.024 -0.1,0.049 -0.112,0.112 0.481,1.894 0.878,3.313 1.566,4.588 0.696,1.287 1.96,1.972 3.245,2.854 1.122,0.77 2.333,1.806 3.525,2.629 1.197,0.828 2.958,1.243 3.861,2.238 0.261,0.287 0.623,0.776 0.392,1.287 -1.489,-0.256 -2.131,-1.856 -4.084,-1.287 -0.591,1.011 0.298,2.837 1.119,3.077 0.525,0.154 0.987,-0.098 1.566,0.112 -0.017,1.932 1.16,3.453 1.567,5.315 0.092,0.421 0.044,0.827 0.168,1.175 0.137,0.383 0.429,0.658 0.503,1.063 0.122,0.662 0.086,1.34 0.167,2.014 0.076,0.623 0.244,1.235 0.336,1.847 0.427,2.847 0.7,5.639 2.35,7.497 0.24,0.793 0.323,1.747 0.728,2.518 0.306,0.584 0.993,1.188 1.287,1.902 0.091,0.223 0.083,0.542 0.168,0.784 0.206,0.585 0.51,1.262 0.783,1.902 0.335,0.784 0.959,1.788 1.063,2.518 0.042,0.299 -0.042,0.545 -0.056,0.839 -0.092,2.034 0.043,4.497 0.224,6.267 0.341,3.331 -0.953,6.204 -1.343,9.009 -0.317,1.045 -1.053,1.967 -1.119,3.077 0.895,0.053 2.374,0.212 3.021,-0.168 0.203,-0.395 0.078,-1.115 0.112,-1.679 0.179,-0.344 0.569,-0.476 0.839,-0.728 0.119,-2.877 -0.225,-5.418 0.167,-7.889 0.173,-1.087 0.995,-2.188 1.007,-3.245 0.008,-0.68 -0.31,-1.268 -0.168,-2.07 0.205,-1.153 0.716,-2.278 0.839,-3.693 0.049,-0.564 -0.114,-1.085 0.168,-1.678 0.716,-0.151 1.485,0.114 2.294,0.056 0.59,2.758 0.832,6.098 0.84,9.399 0.001,0.784 -0.218,1.597 -0.28,2.406 -0.067,0.877 -0.054,1.768 -0.168,2.63 -0.135,1.022 -0.674,2.238 -0.839,3.188 -0.076,0.438 -0.033,0.788 -0.168,1.063 -0.223,0.453 -0.695,0.774 -0.951,1.231 -0.271,0.482 -0.512,0.914 -0.56,1.566 1.519,0.032 3.692,0.72 3.86,-1.008 0.055,-0.562 -0.283,-0.796 -0.279,-1.286 0.003,-0.461 0.383,-0.819 0.447,-1.175 0.227,-1.252 0.07,-2.672 0.168,-4.029 0.049,-0.676 0.255,-1.347 0.336,-2.014 0.087,-0.718 0.039,-1.464 0.168,-2.183 0.102,-0.565 0.546,-1.025 0.671,-1.566 0.118,-0.51 -0.063,-1.021 -0.112,-1.566 -0.166,-1.896 0.389,-3.479 0.783,-4.812 0.226,-0.758 0.404,-1.48 0.729,-2.183 1.197,-0.026 2.215,0.311 3.301,0.224 1.063,2.201 2.593,3.935 4.363,5.428 0.229,1.853 -0.357,3.082 -0.839,4.588 -0.606,1.901 -1.274,3.367 -2.015,5.035 -0.369,0.837 -0.596,1.785 -1.006,2.519 -0.223,0.395 -0.66,0.659 -0.896,1.063 -0.393,0.672 -0.475,1.414 -0.783,2.126 1.036,0.222 2.357,0.432 3.525,0.336 0.219,-0.323 0.354,-0.498 0.393,-0.839 0.061,-0.542 -0.322,-1.064 -0.281,-1.511 0.051,-0.542 0.531,-0.663 0.729,-1.119 -0.148,-2.963 1.053,-5.011 1.958,-7.105 0.345,-0.8 0.663,-1.603 1.175,-2.462 0.364,-0.613 1.275,-1.66 1.23,-2.351 -0.036,-0.572 -0.85,-1.069 -1.287,-1.622 -1.212,-1.534 -2.078,-4.885 -0.447,-6.994 0.408,0.266 0.449,0.82 0.56,1.231 0.632,2.33 1.591,4.237 2.63,6.322 0.627,1.257 1.137,2.199 1.23,3.86 0.113,1.973 -0.033,4.077 0.057,6.211 0.047,1.101 0.274,2.37 0.111,3.301 -0.162,0.93 -1.268,1.446 -1.119,2.63 0.628,0.402 2.404,0.45 3.078,0.111 0.319,-0.544 -0.104,-1.063 -0.057,-1.622 0.036,-0.417 0.505,-0.78 0.561,-1.119 0.146,-0.9 -0.556,-2.13 -0.784,-3.245 -0.247,-1.213 -0.249,-3.063 0,-4.309 0.237,-1.188 1.104,-2.046 0.839,-3.637 -0.139,-0.831 -0.875,-1.578 -1.006,-2.63 -0.128,-1.026 0.025,-2.132 0.167,-3.133 0.467,-3.284 1.862,-6.124 1.343,-10.071 -0.06,-0.454 -0.216,-0.896 -0.223,-1.398 0.588,0.069 0.938,0.771 1.063,1.454 0.232,1.275 -0.133,3.099 0.504,3.973 0.701,-0.715 0.131,-1.823 0,-2.518 -0.274,-1.452 0.43,-2.746 0,-4.141 -0.089,-0.287 -0.467,-0.928 -0.729,-1.23 -1.018,-1.179 -2.256,-1.729 -3.748,-2.798 -1.593,-1.14 -3.036,-2.114 -5.26,-2.294 -3.145,-0.255 -5.71,0.97 -8.729,0.447 -1.719,-0.297 -2.799,-1.555 -4.867,-1.566 -0.883,-0.005 -2.166,0.107 -3.134,0.112 -0.282,0.001 -0.686,0.019 -0.895,-0.057 -0.466,-0.167 -0.863,-1.219 -1.119,-1.846 -0.604,-1.484 -1.066,-3.164 -0.839,-5.26 2.308,0.242 3.795,-1.081 3.805,-3.133 -1.735,-0.713 -3.206,0.483 -4.252,1.175 -0.236,-0.137 -0.546,-0.199 -0.615,-0.504 0.921,-1.39 2.253,-2.201 4.028,-2.686 1.783,-0.486 3.602,-0.669 4.813,-1.847 1.145,-1.113 1.875,-2.592 2.797,-3.86 0.951,-1.31 1.751,-2.807 1.79,-4.867 -1.203,0.922 -1.304,2.947 -2.405,3.972 -0.305,-1.02 0.493,-2.186 0.279,-3.301 -0.619,0.261 -0.777,1.16 -0.951,1.847 -0.195,0.771 -0.338,1.576 -0.504,2.294 -0.333,1.441 -1.281,2.58 -2.35,3.188 -0.453,0.26 -1.17,0.475 -1.791,0.28 0.377,-1.376 1.126,-2.381 1.176,-4.085 -1.845,1.941 -1.812,5.761 -5.651,5.707 -0.29,-1.365 0.683,-3.26 0.112,-4.867 -0.384,0.769 -0.604,1.615 -0.839,2.462 -0.241,0.864 -0.329,1.833 -0.671,2.63 -0.423,0.981 -1.565,1.597 -2.07,2.573 -0.652,-0.001 -1.327,0.021 -1.902,-0.056 -0.287,-0.616 -0.434,-1.178 -0.727,-1.734 -0.824,-1.564 -1.904,-2.955 -2.07,-5.26 -0.712,1.136 0.076,3.154 -0.112,4.477 -1.086,-0.233 -2.034,-0.821 -2.854,-1.623 -0.372,-0.364 -0.824,-0.834 -1.007,-1.23 -0.442,-0.96 -0.117,-2.349 -0.56,-3.469 -0.46,0.863 -0.056,2.592 -0.448,3.524 -2.109,-0.894 -2.697,-3.308 -3.189,-5.819 -0.285,-0.312 -0.361,-0.832 -0.783,-1.007 -0.023,1.063 0.939,2.817 0.167,3.917 -0.868,-0.319 -1.099,-1.359 -1.455,-2.183 -0.382,-0.883 -0.814,-1.82 -1.343,-2.513 z"
   id="path5"
   style="fill:#ffffff;fill-rule:evenodd" />
	<path
   d="m 275.18,392.643 c -0.05,0.024 -0.1,0.049 -0.112,0.112 0.481,1.894 0.878,3.313 1.566,4.588 0.696,1.287 1.96,1.972 3.245,2.854 1.122,0.77 2.333,1.806 3.525,2.629 1.197,0.828 2.958,1.243 3.861,2.238 0.261,0.287 0.623,0.776 0.392,1.287 -1.489,-0.256 -2.131,-1.856 -4.084,-1.287 -0.591,1.011 0.298,2.837 1.119,3.077 0.525,0.154 0.987,-0.098 1.566,0.112 -0.017,1.932 1.16,3.453 1.567,5.315 0.092,0.421 0.044,0.827 0.168,1.175 0.137,0.383 0.429,0.658 0.503,1.063 0.122,0.662 0.086,1.34 0.167,2.014 0.076,0.623 0.244,1.235 0.336,1.847 0.427,2.847 0.7,5.639 2.35,7.497 0.24,0.793 0.323,1.747 0.728,2.518 0.306,0.584 0.993,1.188 1.287,1.902 0.091,0.223 0.083,0.542 0.168,0.784 0.206,0.585 0.51,1.262 0.783,1.902 0.335,0.784 0.959,1.788 1.063,2.518 0.042,0.299 -0.042,0.545 -0.056,0.839 -0.092,2.034 0.043,4.497 0.224,6.267 0.341,3.331 -0.953,6.204 -1.343,9.009 -0.317,1.045 -1.053,1.967 -1.119,3.077 0.895,0.053 2.374,0.212 3.021,-0.168 0.203,-0.395 0.078,-1.115 0.112,-1.679 0.179,-0.344 0.569,-0.476 0.839,-0.728 0.119,-2.877 -0.225,-5.418 0.167,-7.889 0.173,-1.087 0.995,-2.188 1.007,-3.245 0.008,-0.68 -0.31,-1.268 -0.168,-2.07 0.205,-1.153 0.716,-2.278 0.839,-3.693 0.049,-0.564 -0.114,-1.085 0.168,-1.678 0.716,-0.151 1.485,0.114 2.294,0.056 0.59,2.758 0.832,6.098 0.84,9.399 0.001,0.784 -0.218,1.597 -0.28,2.406 -0.067,0.877 -0.054,1.768 -0.168,2.63 -0.135,1.022 -0.674,2.238 -0.839,3.188 -0.076,0.438 -0.033,0.788 -0.168,1.063 -0.223,0.453 -0.695,0.774 -0.951,1.231 -0.271,0.482 -0.512,0.914 -0.56,1.566 1.519,0.032 3.692,0.72 3.86,-1.008 0.055,-0.562 -0.283,-0.796 -0.279,-1.286 0.003,-0.461 0.383,-0.819 0.447,-1.175 0.227,-1.252 0.07,-2.672 0.168,-4.029 0.049,-0.676 0.255,-1.347 0.336,-2.014 0.087,-0.718 0.039,-1.464 0.168,-2.183 0.102,-0.565 0.546,-1.025 0.671,-1.566 0.118,-0.51 -0.063,-1.021 -0.112,-1.566 -0.166,-1.896 0.389,-3.479 0.783,-4.812 0.226,-0.758 0.404,-1.48 0.729,-2.183 1.197,-0.026 2.215,0.311 3.301,0.224 1.063,2.201 2.593,3.935 4.363,5.428 0.229,1.853 -0.357,3.082 -0.839,4.588 -0.606,1.901 -1.274,3.367 -2.015,5.035 -0.369,0.837 -0.596,1.785 -1.006,2.519 -0.223,0.395 -0.66,0.659 -0.896,1.063 -0.393,0.672 -0.475,1.414 -0.783,2.126 1.036,0.222 2.357,0.432 3.525,0.336 0.219,-0.323 0.354,-0.498 0.393,-0.839 0.061,-0.542 -0.322,-1.064 -0.281,-1.511 0.051,-0.542 0.531,-0.663 0.729,-1.119 -0.148,-2.963 1.053,-5.011 1.958,-7.105 0.345,-0.8 0.663,-1.603 1.175,-2.462 0.364,-0.613 1.275,-1.66 1.23,-2.351 -0.036,-0.572 -0.85,-1.069 -1.287,-1.622 -1.212,-1.534 -2.078,-4.885 -0.447,-6.994 0.408,0.266 0.449,0.82 0.56,1.231 0.632,2.33 1.591,4.237 2.63,6.322 0.627,1.257 1.137,2.199 1.23,3.86 0.113,1.973 -0.033,4.077 0.057,6.211 0.047,1.101 0.274,2.37 0.111,3.301 -0.162,0.93 -1.268,1.446 -1.119,2.63 0.628,0.402 2.404,0.45 3.078,0.111 0.319,-0.544 -0.104,-1.063 -0.057,-1.622 0.036,-0.417 0.505,-0.78 0.561,-1.119 0.146,-0.9 -0.556,-2.13 -0.784,-3.245 -0.247,-1.213 -0.249,-3.063 0,-4.309 0.237,-1.188 1.104,-2.046 0.839,-3.637 -0.139,-0.831 -0.875,-1.578 -1.006,-2.63 -0.128,-1.026 0.025,-2.132 0.167,-3.133 0.467,-3.284 1.862,-6.124 1.343,-10.071 -0.06,-0.454 -0.216,-0.896 -0.223,-1.398 0.588,0.069 0.938,0.771 1.063,1.454 0.232,1.275 -0.133,3.099 0.504,3.973 0.701,-0.715 0.131,-1.823 0,-2.518 -0.274,-1.452 0.43,-2.746 0,-4.141 -0.089,-0.287 -0.467,-0.928 -0.729,-1.23 -1.018,-1.179 -2.256,-1.729 -3.748,-2.798 -1.593,-1.14 -3.036,-2.114 -5.26,-2.294 -3.145,-0.255 -5.71,0.97 -8.729,0.447 -1.719,-0.297 -2.799,-1.555 -4.867,-1.566 -0.883,-0.005 -2.166,0.107 -3.134,0.112 -0.282,0.001 -0.686,0.019 -0.895,-0.057 -0.466,-0.167 -0.863,-1.219 -1.119,-1.846 -0.604,-1.484 -1.066,-3.164 -0.839,-5.26 2.308,0.242 3.795,-1.081 3.805,-3.133 -1.735,-0.713 -3.206,0.483 -4.252,1.175 -0.236,-0.137 -0.546,-0.199 -0.615,-0.504 0.921,-1.39 2.253,-2.201 4.028,-2.686 1.783,-0.486 3.602,-0.669 4.813,-1.847 1.145,-1.113 1.875,-2.592 2.797,-3.86 0.951,-1.31 1.751,-2.807 1.79,-4.867 -1.203,0.922 -1.304,2.947 -2.405,3.972 -0.305,-1.02 0.493,-2.186 0.279,-3.301 -0.619,0.261 -0.777,1.16 -0.951,1.847 -0.195,0.771 -0.338,1.576 -0.504,2.294 -0.333,1.441 -1.281,2.58 -2.35,3.188 -0.453,0.26 -1.17,0.475 -1.791,0.28 0.377,-1.376 1.126,-2.381 1.176,-4.085 -1.845,1.941 -1.812,5.761 -5.651,5.707 -0.29,-1.365 0.683,-3.26 0.112,-4.867 -0.384,0.769 -0.604,1.615 -0.839,2.462 -0.241,0.864 -0.329,1.833 -0.671,2.63 -0.423,0.981 -1.565,1.597 -2.07,2.573 -0.652,-0.001 -1.327,0.021 -1.902,-0.056 -0.287,-0.616 -0.434,-1.178 -0.727,-1.734 -0.824,-1.564 -1.904,-2.955 -2.07,-5.26 -0.712,1.136 0.076,3.154 -0.112,4.477 -1.086,-0.233 -2.034,-0.821 -2.854,-1.623 -0.372,-0.364 -0.824,-0.834 -1.007,-1.23 -0.442,-0.96 -0.117,-2.349 -0.56,-3.469 -0.46,0.863 -0.056,2.592 -0.448,3.524 -2.109,-0.894 -2.697,-3.308 -3.189,-5.819 -0.285,-0.312 -0.361,-0.832 -0.783,-1.007 -0.023,1.063 0.939,2.817 0.167,3.917 -0.868,-0.319 -1.099,-1.359 -1.455,-2.183 -0.382,-0.883 -0.814,-1.82 -1.343,-2.513 z"
   id="path7"
   style="fill:#030104;fill-rule:evenodd" />
</g>
</svg>
