<?xml version="1.0" standalone="no"?>
<!DOCTYPE svg PUBLIC "-//W3C//DTD SVG 20010904//EN"
 "http://www.w3.org/TR/2001/REC-SVG-20010904/DTD/svg10.dtd">
<svg version="1.0" xmlns="http://www.w3.org/2000/svg"
 width="1016.000000pt" height="1536.000000pt" viewBox="0 0 1016.000000 1536.000000"
 preserveAspectRatio="xMidYMid meet">
<metadata>
Created by potrace 1.16, written by Peter Selinger 2001-2019
</metadata>
<g transform="translate(0.000000,1536.000000) scale(0.100000,-0.100000)"
fill="#000000" stroke="none">
<path d="M7815 15330 c-87 -42 -115 -88 -115 -192 0 -43 -3 -78 -6 -78 -3 0
-27 7 -54 16 -80 26 -108 -3 -139 -149 l-17 -82 -51 3 c-48 2 -57 -1 -113 -43
-59 -46 -64 -54 -74 -129 -7 -56 -29 -82 -73 -91 -54 -10 -70 -21 -78 -52 -10
-41 -24 -53 -61 -53 -23 0 -41 -8 -61 -29 -15 -16 -77 -60 -138 -96 -171 -104
-229 -149 -390 -300 -82 -78 -157 -144 -166 -147 -25 -10 -75 18 -109 60 -84
105 -288 203 -581 279 -102 26 -110 27 -487 30 -478 5 -540 0 -732 -66 -161
-54 -258 -106 -344 -181 -31 -27 -64 -50 -72 -50 -8 0 -45 16 -81 35 -36 19
-74 35 -83 35 -51 0 -60 -109 -16 -185 14 -24 26 -46 26 -49 0 -40 -185 105
-340 267 -52 54 -108 106 -125 114 -16 8 -59 46 -95 84 -50 53 -72 69 -93 69
-20 0 -30 7 -36 24 -23 59 -75 128 -111 146 -23 12 -56 44 -83 82 -66 92 -112
136 -157 148 -21 6 -43 9 -49 8 -6 -2 -53 42 -104 97 l-94 100 -34 -14 c-56
-22 -71 -19 -95 19 -40 62 -78 103 -123 132 -83 52 -148 31 -269 -87 l-75 -73
5 -119 c5 -132 20 -178 67 -206 36 -21 132 -22 214 -3 31 8 57 13 57 12 0 -1
-9 -19 -20 -41 -26 -52 -25 -77 6 -114 51 -61 185 -67 240 -10 15 16 31 29 36
29 4 0 8 -29 8 -65 0 -77 18 -127 54 -150 22 -14 42 -16 114 -12 48 3 97 8
110 12 19 6 22 4 22 -19 0 -45 17 -66 53 -66 53 0 77 -11 93 -42 10 -20 34
-38 72 -56 87 -39 159 -89 185 -126 26 -39 171 -146 264 -196 35 -18 88 -56
120 -84 l56 -52 -31 -75 c-41 -99 -72 -214 -72 -267 0 -54 20 -102 65 -154 40
-48 41 -55 20 -197 -16 -103 -15 -123 10 -241 8 -36 19 -96 25 -135 6 -38 21
-100 32 -137 l22 -68 -21 -27 c-26 -36 -50 -39 -129 -17 -74 20 -134 15 -197
-17 -73 -37 -96 -58 -171 -157 -41 -54 -89 -111 -108 -128 -28 -27 -41 -54
-76 -165 -57 -181 -68 -230 -92 -399 -20 -140 -35 -185 -67 -197 -8 -3 -48 4
-88 17 -64 20 -85 22 -167 16 -87 -6 -97 -10 -149 -46 -112 -78 -194 -74 -260
13 -61 82 -129 203 -184 330 -77 178 -216 453 -269 530 -25 37 -65 109 -89
159 -51 107 -280 421 -285 391 -2 -10 -8 -35 -13 -55 l-10 -38 -69 0 c-66 0
-70 1 -117 42 -26 23 -86 66 -133 96 -47 31 -112 81 -145 112 -33 32 -70 63
-83 69 -12 7 -33 29 -47 51 -13 21 -46 53 -72 71 -26 18 -68 50 -93 70 -71 60
-159 108 -244 135 l-79 25 -28 -27 c-20 -19 -47 -31 -91 -39 -62 -11 -63 -12
-69 -47 -3 -20 -26 -62 -52 -98 -26 -34 -47 -68 -47 -75 0 -59 47 -50 90 16
19 29 41 51 56 55 29 8 233 -52 350 -102 91 -40 123 -68 147 -134 13 -35 42
-69 132 -153 63 -59 124 -107 134 -107 12 0 26 -14 38 -37 15 -30 28 -40 81
-58 141 -51 178 -103 103 -146 -21 -12 -56 -41 -76 -66 l-37 -44 23 -26 c13
-14 55 -50 93 -81 38 -30 76 -68 85 -83 10 -19 24 -29 40 -29 26 0 64 -37 171
-165 117 -139 133 -156 171 -175 26 -14 41 -30 48 -53 6 -19 25 -47 42 -63 17
-16 83 -90 147 -164 203 -238 272 -300 412 -370 94 -47 147 -86 176 -130 35
-53 176 -175 252 -217 34 -19 97 -47 140 -62 l77 -27 6 -165 c4 -90 9 -175 13
-189 3 -14 10 -72 16 -129 11 -116 31 -188 94 -354 24 -62 51 -146 61 -187 10
-41 23 -86 30 -100 17 -32 59 -72 92 -85 24 -10 18 -14 -105 -73 -164 -77
-167 -81 -167 -216 0 -91 -3 -109 -32 -176 -17 -42 -35 -99 -39 -127 -8 -61
-16 -68 -129 -113 -233 -92 -403 -213 -480 -341 -25 -40 -43 -59 -56 -59 -29
0 -90 -28 -118 -53 -13 -12 -47 -54 -76 -92 -29 -39 -143 -167 -254 -285 -111
-117 -223 -243 -249 -279 -26 -36 -74 -93 -108 -126 -34 -33 -76 -87 -95 -120
-45 -81 -112 -146 -184 -179 -33 -15 -67 -30 -75 -35 -26 -14 -24 -60 5 -103
38 -57 31 -87 -25 -115 -24 -13 -60 -38 -80 -57 -19 -18 -71 -57 -115 -86 -44
-29 -109 -81 -145 -114 -36 -34 -117 -98 -180 -142 -131 -92 -280 -237 -380
-366 -85 -110 -97 -141 -76 -203 9 -25 16 -60 16 -79 0 -68 30 -139 80 -188
44 -44 51 -48 97 -48 27 0 53 3 56 7 4 3 -20 34 -53 69 -77 80 -80 108 -17
209 24 39 68 115 98 169 56 103 135 200 171 212 11 3 31 0 44 -7 22 -11 27
-10 55 17 17 16 45 51 62 77 22 34 35 46 46 41 51 -22 60 -18 127 54 40 44 76
73 94 77 16 3 30 14 33 25 3 10 26 34 53 52 26 18 90 77 142 130 51 53 106
101 122 106 25 9 29 8 34 -13 3 -13 11 -36 17 -52 l10 -27 23 40 c12 22 80
113 150 202 71 90 174 231 230 315 56 84 136 202 178 262 41 61 104 166 138
235 92 185 123 232 168 258 49 27 85 28 126 3 57 -36 113 -43 196 -27 41 8
102 26 134 40 32 14 67 26 77 26 49 0 63 -73 34 -180 -9 -35 -15 -103 -15
-185 -1 -71 -8 -202 -17 -290 -13 -129 -16 -334 -19 -1065 -3 -498 -7 -915 -9
-927 -3 -15 -13 -23 -25 -23 -11 0 -41 -21 -68 -47 -26 -27 -78 -66 -115 -87
-89 -52 -193 -150 -327 -306 -157 -184 -156 -183 -163 -285 -4 -79 -10 -97
-53 -184 l-48 -96 -1 -435 c0 -372 3 -448 18 -528 21 -112 21 -149 2 -186 -13
-25 -13 -33 0 -73 12 -35 14 -85 11 -246 -2 -111 -8 -213 -14 -227 -5 -14 -26
-47 -46 -73 l-36 -47 61 -30 c52 -27 59 -34 53 -53 -16 -54 -64 -126 -136
-203 l-77 -83 16 -29 17 -29 -67 -74 c-48 -53 -67 -81 -67 -100 0 -42 -14 -71
-59 -123 -23 -26 -55 -69 -73 -96 -17 -26 -48 -57 -67 -68 -20 -12 -47 -33
-61 -47 -14 -15 -76 -68 -138 -117 -70 -56 -120 -104 -132 -127 -10 -20 -37
-54 -59 -76 -39 -37 -42 -39 -74 -27 -54 19 -77 16 -77 -12 0 -46 58 -76 146
-76 l41 0 5 -72 c6 -83 21 -121 55 -143 22 -15 24 -14 35 10 9 20 8 28 -5 42
-28 32 -31 69 -7 90 87 72 287 299 360 408 61 91 74 105 98 105 43 0 63 21
107 112 31 64 47 87 72 99 56 28 63 38 63 89 0 56 33 104 85 126 25 10 41 34
88 126 32 63 60 132 64 152 12 78 104 176 164 176 21 0 29 -6 38 -30 7 -20 17
-30 31 -30 29 0 35 24 15 67 -15 32 -17 55 -11 167 5 101 2 170 -14 301 -11
94 -20 201 -20 238 0 44 -5 76 -16 92 -9 14 -17 53 -19 97 -2 40 -9 96 -15
123 -6 28 -16 90 -21 139 -5 49 -29 166 -54 261 -30 113 -45 192 -45 233 0 36
-7 75 -16 95 -15 32 -15 37 5 82 18 41 24 46 43 40 13 -4 48 -9 79 -12 55 -5
57 -4 110 41 148 126 237 183 325 210 20 6 22 2 27 -61 4 -38 7 -135 7 -218 0
-103 6 -188 20 -270 11 -66 20 -165 20 -220 0 -55 7 -138 15 -185 8 -47 20
-153 25 -237 6 -84 12 -158 15 -165 2 -7 9 -58 15 -113 6 -55 24 -140 39 -190
16 -49 46 -169 66 -265 20 -96 38 -177 40 -180 2 -3 33 -116 69 -251 83 -313
104 -378 183 -579 83 -209 116 -276 215 -426 43 -67 94 -158 112 -202 19 -44
63 -125 100 -180 37 -56 73 -116 81 -134 15 -37 175 -196 295 -294 164 -134
291 -206 520 -297 91 -36 203 -83 250 -104 l85 -38 270 1 270 0 170 63 c479
177 743 373 989 734 59 87 121 188 139 225 17 37 53 105 80 151 27 45 62 114
77 151 16 38 47 99 69 137 53 90 144 320 181 458 16 61 45 168 65 240 68 254
106 443 120 608 8 89 23 205 34 257 12 52 21 109 21 125 0 17 7 61 15 99 8 38
17 140 20 225 3 86 13 253 22 371 9 127 16 322 15 475 -1 284 3 305 54 305 33
0 126 -68 195 -143 l56 -61 94 -2 c86 -2 95 -4 115 -27 14 -17 23 -45 27 -88
4 -34 18 -95 31 -133 18 -52 28 -111 36 -221 6 -82 20 -190 30 -240 10 -49 21
-126 24 -170 3 -47 16 -107 30 -145 34 -92 61 -228 86 -425 11 -93 37 -249 56
-345 20 -96 39 -213 42 -260 l7 -85 49 58 c28 31 58 57 67 57 32 0 177 -116
199 -161 27 -52 112 -133 168 -161 43 -20 44 -20 78 -2 l36 19 19 -24 c10 -13
19 -34 19 -48 0 -13 7 -37 15 -52 15 -29 70 -81 85 -81 5 0 23 15 39 32 l31
33 61 -68 c69 -77 102 -97 156 -97 65 0 111 -36 198 -152 44 -58 97 -134 117
-168 27 -46 47 -67 79 -83 32 -16 47 -31 56 -57 15 -41 8 -137 -14 -188 -13
-31 -13 -36 2 -51 15 -15 18 -14 41 14 79 98 78 94 80 254 0 94 -4 157 -12
176 -14 35 -269 289 -334 332 -25 16 -69 42 -98 58 -39 21 -54 36 -60 59 -9
33 -76 76 -118 76 -14 0 -50 22 -86 53 -71 59 -139 107 -180 125 -16 6 -28 18
-28 26 0 27 -53 77 -114 108 -66 33 -196 108 -196 113 0 2 25 9 55 15 l56 12
-51 58 c-50 58 -80 113 -80 148 0 10 -9 35 -20 57 -11 22 -20 54 -20 73 0 19
-13 77 -30 130 -16 54 -43 160 -61 237 -17 77 -54 214 -81 305 -27 91 -63 212
-78 270 -16 58 -47 158 -69 222 -25 69 -44 144 -48 185 -3 37 -11 79 -18 93
-7 14 -20 58 -30 98 -12 50 -32 95 -65 145 -54 83 -70 124 -70 179 0 21 -6 53
-14 71 -40 97 -329 397 -525 546 -117 89 -119 95 -121 366 0 121 0 243 1 270
0 28 -1 223 -3 435 -4 326 -7 394 -22 445 -14 50 -17 97 -15 290 2 127 -1 237
-5 244 -5 7 -10 39 -11 70 -2 31 -8 76 -14 101 -5 25 -11 86 -11 135 -2 158
-25 387 -43 422 -18 33 -21 71 -10 112 6 24 7 24 112 18 63 -3 121 -12 143
-21 62 -26 106 -21 166 21 42 29 58 34 70 26 43 -26 100 -126 203 -358 61
-137 136 -292 165 -344 29 -52 63 -124 75 -160 31 -94 77 -183 177 -339 49
-75 100 -158 115 -184 30 -51 55 -60 110 -39 35 14 65 -22 76 -88 6 -37 17
-62 38 -84 17 -18 44 -53 61 -78 39 -59 55 -71 100 -78 28 -5 43 -16 67 -48
22 -31 37 -42 57 -42 16 -1 41 -15 65 -37 92 -87 114 -104 137 -104 13 0 43
-16 67 -36 23 -19 70 -48 104 -63 128 -58 241 -210 331 -442 46 -119 45 -133
-16 -189 -40 -37 -50 -53 -50 -78 0 -50 27 -40 102 36 80 82 98 116 128 255
27 126 26 129 -60 245 -84 112 -121 152 -164 179 -22 14 -86 69 -141 123 -81
78 -111 100 -153 114 -29 10 -73 36 -98 57 -25 22 -58 46 -72 53 -15 8 -40 28
-57 46 -16 17 -44 40 -62 51 -17 11 -48 44 -67 73 -51 77 -89 110 -133 116
-29 4 -39 10 -41 27 -3 20 13 37 107 111 l25 19 -55 35 c-66 43 -85 64 -139
153 -24 39 -69 100 -101 138 -39 45 -60 79 -65 105 -8 47 -27 84 -75 147 -20
27 -49 77 -63 109 -15 32 -66 111 -114 175 -48 64 -133 184 -189 266 -144 211
-182 257 -268 321 -46 35 -105 93 -151 150 -60 75 -86 99 -132 122 -31 16
-100 52 -153 80 -56 31 -121 57 -160 65 -35 7 -83 26 -106 42 -47 31 -55 49
-73 174 -28 195 -28 195 -59 222 -16 15 -47 30 -69 34 -77 13 -78 45 -10 192
61 132 125 300 154 405 19 71 27 126 31 233 l6 140 129 59 c218 100 392 228
441 323 11 21 28 33 59 42 128 39 208 108 328 285 49 72 149 203 221 291 72
88 156 195 186 238 30 43 71 90 92 104 65 48 90 75 97 106 7 33 98 124 169
169 23 14 53 41 65 60 13 18 34 43 47 54 l25 21 -86 74 -86 74 32 14 c18 7 67
16 109 20 62 5 82 11 108 33 44 38 76 41 305 35 204 -5 331 -21 466 -58 99
-27 118 -40 126 -89 8 -47 32 -60 56 -30 27 33 22 87 -12 147 -16 28 -34 54
-40 58 -20 12 -9 24 55 54 36 16 68 37 71 46 11 28 -15 45 -71 45 -29 0 -104
8 -167 19 -130 21 -303 22 -360 1 -35 -13 -39 -12 -77 14 -40 28 -41 28 -81
12 -31 -12 -77 -16 -203 -16 -180 0 -254 -12 -368 -58 -81 -32 -105 -30 -114
13 -3 14 -7 36 -10 49 -3 14 -13 32 -22 42 -16 16 -18 15 -33 -7 -8 -13 -43
-63 -77 -111 -37 -50 -63 -97 -63 -112 0 -13 -18 -47 -39 -74 -23 -29 -50 -81
-65 -123 -13 -41 -43 -105 -65 -144 -22 -38 -75 -144 -116 -235 -42 -90 -86
-183 -99 -205 -13 -22 -47 -94 -76 -160 -128 -291 -186 -385 -257 -417 -57
-25 -100 -18 -139 23 -46 50 -98 69 -190 69 -55 0 -86 -5 -100 -15 -27 -20
-51 -19 -91 6 -18 12 -40 18 -48 15 -8 -3 -18 0 -21 6 -4 7 -18 93 -30 192
-13 105 -34 219 -50 271 -14 50 -35 131 -45 180 -24 112 -64 196 -166 350 -84
126 -134 179 -205 217 -38 20 -62 23 -206 28 l-164 5 20 25 c45 59 52 85 52
207 0 65 7 163 15 218 9 55 18 143 21 195 6 87 9 99 41 147 49 73 62 116 63
201 0 100 -16 157 -55 195 -18 18 -51 69 -74 114 -41 82 -41 83 -26 121 13 32
25 43 68 61 29 12 86 51 127 87 41 36 88 72 103 81 16 8 64 40 106 72 114 84
287 182 333 188 29 4 42 12 53 33 18 34 32 40 101 40 52 0 58 3 108 50 50 47
56 50 107 50 39 0 71 8 119 31 85 40 110 64 110 106 0 45 30 73 79 73 34 0 49
9 125 75 47 42 86 78 86 80 0 3 -18 14 -40 25 -22 11 -40 24 -40 29 0 11 36
21 76 21 40 0 128 44 158 80 18 22 25 46 30 103 9 93 -4 148 -47 187 -42 40
-246 170 -266 170 -9 0 -43 -14 -76 -30z"/>
</g>
</svg>
