<?xml version="1.0" encoding="UTF-8" standalone="no"?>
<!-- Created with Inkscape (http://www.inkscape.org/) -->

<svg
   version="1.2"
   width="143.14709"
   height="228.77878"
   viewBox="0 0 143.14709 228.77877"
   id="Layer_1"
   xml:space="preserve"
   xmlns="http://www.w3.org/2000/svg"
   xmlns:svg="http://www.w3.org/2000/svg"><defs
   id="defs11" />
<g
   id="g3"
   transform="translate(-0.0232978,0.02093179)">
	<path
   d="m 70.5,30.6 c -0.4,0.3 -0.8,0.8 -0.9,1.1 -0.2,0.4 -0.7,0.7 -1.4,0.9 -0.9,0.2 -2.5,1.9 -2.5,2.8 0,0.5 2.3,0.2 3.7,-0.4 2,-0.8 5.5,-0.5 6.3,0.5 0.4,0.5 0.6,0.5 0.7,0.2 0.1,-0.2 0.4,-0.5 0.7,-0.5 0.3,0 0.5,-0.3 0.5,-0.6 0,-1 -1.6,-2.9 -2.5,-2.9 -0.4,0 -0.8,-0.3 -0.9,-0.8 -0.1,-0.4 -0.5,-0.9 -0.9,-1 -0.4,-0.2 -0.7,-0.6 -0.7,-1 0,-0.4 -0.2,-0.7 -0.5,-0.7 -0.7,0 -1,0.4 -1,1.2 0.1,0.4 -0.2,1 -0.6,1.2 z"
   id="path5"
   style="fill:none" />
	<path
   d="m 90.2,40.6 c 4.8,-0.4 5.9,-0.8 8.3,-3.1 1.2,-1.2 2.4,-2 3,-2.1 1.3,-0.1 2.8,-1.8 2.8,-3.1 0,-0.6 0.2,-0.9 0.6,-0.9 0.3,0 0.6,-0.2 0.6,-0.5 0,-0.5 0.4,-1 6.5,-7.8 5.6,-6.2 9.3,-9.6 10.4,-9.6 0.3,0 0.9,-0.4 1.5,-1 1.2,-1.1 6.2,-3.8 7.8,-4.2 0.6,-0.1 1.4,-0.6 1.8,-1 0.3,-0.4 1.6,-1 2.8,-1.4 4.9,-1.6 7.8,-3.9 6.6,-5.1 -0.8,-0.9 -4.5,-1.1 -6.9,-0.4 -1.2,0.4 -2.3,0.7 -2.5,0.9 -0.2,0.2 -1.4,0.5 -2.5,0.9 -2.9,0.7 -6,2.2 -8.4,4 -1.1,0.8 -2.1,1.5 -2.3,1.5 -0.8,0 -8.9,7.7 -11.1,10.7 -0.7,1 -1.8,2.3 -2.2,2.8 -0.5,0.6 -1,1.5 -1.3,2.1 -0.3,0.7 -0.6,1.2 -0.8,1.2 -0.5,0 -2.7,4.1 -2.7,5 0,0.4 -0.2,0.8 -0.5,0.8 -0.9,0 -1.9,1 -2.1,2.3 l -0.6,1.1 -5.4,0.1 c -3,0.1 -6.6,0.3 -8,0.4 L 83.1,34.5 82,32.7 c -0.6,-1 -1.3,-1.8 -1.4,-1.8 -0.2,0 -1.4,-1 -2.6,-2.3 -1.2,-1.2 -2.7,-2.5 -3.3,-2.9 -1.7,-1.1 -5.1,-0.9 -5.4,0.3 -0.1,0.3 -1.4,1.6 -3,2.9 -3.8,3.1 -4.9,4.3 -5.5,5.6 -0.5,1.1 -0.6,1.1 -2.3,0.9 -1,-0.1 -3.9,-0.3 -6.5,-0.5 -3.7,-0.2 -4.9,-0.2 -5.4,0.2 -0.7,0.6 -1.1,0.3 -1.8,-1.7 -0.3,-0.9 -0.9,-1.7 -1.6,-2.1 -0.7,-0.3 -1.2,-0.7 -1.2,-1 0,-0.2 -0.5,-1 -1,-1.8 -1.4,-1.8 -2.6,-3.9 -2.5,-4.3 0.1,-0.2 -0.4,-0.9 -1,-1.6 -0.6,-0.7 -1.4,-1.6 -1.7,-2 -0.3,-0.4 -1.5,-1.5 -2.6,-2.5 -1.1,-1 -2.8,-2.6 -3.8,-3.5 -0.9,-1 -2.2,-2 -2.8,-2.3 C 26,12 25.2,11.4 24.7,10.9 24.3,10.5 23.1,9.7 22.2,9.2 21.2,8.7 19.8,8 19.1,7.6 16.1,6 12.2,4.5 11.6,4.7 11.2,4.8 10,4.6 8.8,4.3 5.9,3.5 2,3.8 0.8,4.9 c -1.1,1 -1,1.1 0.1,2.4 0.9,1 3.5,1.9 6.8,2.5 1,0.2 2.1,0.5 2.6,0.8 0.5,0.3 1.5,0.7 2.3,0.8 2.5,0.5 6.5,2.3 7.9,3.6 0.7,0.7 1.5,1.2 1.8,1.2 0.3,0 1.3,0.8 2.3,1.8 2,2.1 3.4,3.2 4.4,3.9 0.4,0.2 1,1 1.4,1.7 0.4,0.7 1,1.6 1.6,2.1 0.5,0.5 1.8,1.8 2.8,2.8 1,1.1 2.5,2.6 3.4,3.5 0.9,0.8 1.6,1.8 1.6,2.2 0,0.8 2.1,2.5 3.6,2.8 0.6,0.2 1.2,0.6 1.3,1 0.7,2.2 5.4,3.8 10.3,3.4 1.9,-0.2 2.7,-0.1 2.7,0.2 0,0.2 -0.2,1.9 -0.5,3.7 -0.7,4.6 -0.5,15.6 0.5,21 0.6,3.2 1,4.5 2.1,6.2 0.7,1.1 1.5,2.1 1.7,2.1 0.2,0 0.6,0.2 0.9,0.5 0.8,0.8 2.6,1.4 4,1.4 1.1,0 1.3,0.1 1.1,0.7 -0.1,0.4 -0.6,1.1 -1.1,1.7 -2.1,2.3 -3,6.5 -2.1,9.6 0.3,1 0.2,1.5 -0.8,3 -1.4,2.3 -2.1,5.1 -1.8,8.3 0.1,1.4 0,2.4 -0.2,2.4 -0.4,0 -3,-3.5 -3.1,-4.2 0,-0.7 -2.7,-5.2 -3.8,-6.5 -0.5,-0.6 -2.1,-1.9 -3.5,-2.8 -4.8,-3.2 -5.6,-4.2 -7.1,-8.5 -3.1,-8.7 -6.3,-16.4 -7.4,-17.9 -0.8,-1.1 -1.1,-0.6 -0.7,1.5 0.5,2.5 0.1,2.9 -1.8,1.9 -1.8,-1 -2.5,-2 -2.8,-3.9 -0.3,-1.6 -1.4,-2.1 -1.8,-0.8 -0.2,0.8 -0.3,0.8 -0.9,0.2 -0.4,-0.3 -0.9,-0.6 -1.1,-0.6 -0.3,0 -0.5,-0.2 -0.5,-0.3 0,-0.2 -0.5,-0.9 -1,-1.5 -2.7,-3 -3.2,-3.7 -3.5,-4.6 C 22,53 22.7,52 23.7,52 c 0.4,0 0.7,-0.2 0.7,-0.4 0,-0.7 -1.8,-0.4 -2.5,0.4 -1.1,1.2 -1.8,1 -1.8,-0.7 0,-1.2 -0.1,-1.3 -0.4,-0.7 -0.7,1.3 0,4.8 1.4,6.6 0.7,0.9 1.2,1.8 1.1,2 -0.1,0.2 0,0.3 0.3,0.3 0.3,0 1.3,0.9 2.3,1.9 1,1 2.4,2.2 3.1,2.5 0.7,0.3 1.4,1 1.6,1.6 0.4,1.2 2.5,2.8 3.9,3.1 0.7,0.2 1.2,0.5 1.2,0.9 0,0.4 0.9,2.5 2.1,4.8 1.1,2.2 2.2,4.5 2.3,5.1 0.3,1.4 2.3,4.5 3.4,5.2 0.4,0.3 0.8,1 0.8,1.5 0,1.3 0.9,3.1 2.7,5.2 0.8,1 1.9,2.5 2.5,3.3 1,1.5 6.3,7.2 8.6,9.2 2.8,2.3 6.2,3.4 8.3,2.6 0.9,-0.4 1,-0.3 0.5,0.4 -2.1,2.9 -3.7,5.4 -3.9,5.9 -0.3,0.8 -2.5,0.7 -7.5,-0.2 -4.7,-0.9 -8.3,-0.6 -12.3,0.7 -4,1.4 -4.4,2 -10.8,13.7 -1.2,2.3 -3.3,7.9 -3.3,8.9 0,0.5 -3.6,3.9 -6.7,6.2 -1.8,1.4 -4,2.6 -4.8,2.6 -0.2,0 -0.6,0.2 -0.9,0.4 -0.7,0.7 -5.6,2.7 -6.5,2.7 -0.9,0 -1.8,0.7 -1.8,1.5 0,0.5 0.1,0.4 0.7,-0.1 0.8,-0.7 1.9,-0.9 2.3,-0.2 0.1,0.2 0,1.1 -0.2,2 -0.5,1.4 -0.4,1.6 0.1,2.2 0.6,0.6 0.6,0.5 0.4,-0.7 -0.2,-1.4 -0.2,-1.4 1.4,-2.2 0.9,-0.5 2.1,-1.1 2.7,-1.4 0.5,-0.3 1.9,-0.9 2.9,-1.4 1.7,-0.8 3.2,-1.7 5.8,-3.4 0.4,-0.3 1.3,-0.9 2,-1.3 0.7,-0.4 1.4,-1.1 1.5,-1.5 0.1,-0.4 1.5,-2 3,-3.6 3.3,-3.4 4.2,-5.2 6.4,-12.5 1.5,-4.8 1.6,-5 2.7,-5.2 0.6,0 4.2,-0.2 7.9,-0.4 7.2,-0.3 9,-0.8 11.2,-2.7 1,-0.9 3.3,-0.8 4.4,0.2 0.6,0.5 1.2,0.5 3.3,-0.1 0.5,-0.2 0.9,-0.1 0.9,0.2 0,0.4 -3.4,4.6 -5,6.2 -0.3,0.3 -0.5,1.1 -0.5,1.9 0,1.1 -0.2,1.4 -1.4,2 -0.8,0.4 -2.5,1 -3.6,1.4 -6.8,2.1 -7.1,2.3 -11.7,6.8 -1.8,1.8 -3.5,4 -4.3,5.5 -1.2,2.3 -1.4,3 -1.7,7.4 -0.7,9.9 -0.4,18 1,21.5 0.7,1.8 0.7,1.9 0,2.7 -0.4,0.5 -0.8,1 -0.8,1.3 0,0.3 -0.8,1.6 -1.7,3 -1,1.4 -2.5,4 -3.4,6 -1.7,3.3 -1.7,3.6 -1.7,7 0,2.3 0.2,3.7 0.5,4.1 0.2,0.2 0.5,0.9 0.5,1.4 0,2.1 2.6,5.6 4.2,5.6 0.5,0 0.8,-0.2 0.7,-0.4 -0.1,-0.2 -0.5,-0.4 -0.9,-0.4 -0.3,0 -0.9,-0.2 -1.1,-0.5 -0.6,-0.6 0.1,-1.5 1.2,-1.5 1.1,0 2.5,-1 2.1,-1.4 -0.2,-0.2 -0.5,-0.1 -0.7,0.2 -0.3,0.3 -0.8,0.5 -1.1,0.5 -1.2,0 -3.3,-5.7 -2.6,-7.2 0.2,-0.4 0.3,-1.4 0.3,-2.2 0,-0.8 0.2,-1.5 0.4,-1.6 0.2,-0.1 0.4,-0.9 0.6,-1.8 0.2,-1 0.5,-1.7 1,-2 0.4,-0.2 1.6,-2.1 2.5,-4.2 2.5,-5.3 4.1,-7.3 4.1,-5.3 0,0.4 0.2,1 0.4,1.3 0.9,1.4 -0.5,-12.6 -2.3,-22.8 -0.2,-1.3 -0.4,-2.6 -0.4,-2.9 0,-1 4.4,-5.2 7.7,-7.4 1.6,-1.1 4.3,-3.3 5.8,-5 1.6,-1.6 3.6,-3.7 4.5,-4.6 0.9,-0.9 2,-1.8 2.5,-1.9 0.5,-0.2 0.9,-0.4 0.9,-0.6 0,-0.2 0.5,-0.3 1.1,-0.1 1.5,0.3 3.5,-0.7 4.2,-2.3 0.9,-2 1.9,-3 2.8,-2.7 1.1,0.3 1.1,1.1 -0.2,1.8 -1.2,0.8 -1.8,2.8 -2.1,7.8 -0.3,3.5 -0.2,4 0.5,5.1 0.4,0.7 0.9,1.3 1.1,1.3 0.7,0 0.3,1.1 -0.5,1.4 -1.2,0.4 -2,2.7 -2.1,6.2 0,2.7 0.1,3.3 0.9,4.6 0.5,0.8 1.3,1.4 1.7,1.5 0.4,0 0.6,0.2 0.5,0.4 -0.1,0.2 -1.3,0.4 -2.6,0.4 -5,0 -6.8,3 -9,14.4 -0.8,4.2 -1,6 -1,13.6 0,7.9 0.1,9 0.8,10.9 0.4,1.2 1,3.2 1.1,4.5 0.7,4.9 2.8,10.6 4.5,12.1 0.5,0.4 2.5,5.6 2.8,7.3 0.1,0.6 0.7,1.5 1.4,2.1 1.5,1.4 5.6,7 6.2,8.4 0.5,1.4 1.2,1.1 1.9,-1 1,-2.9 2.8,-5.6 6,-9 1,-1.2 2.9,-4.9 2.9,-6.1 0,-0.5 0.5,-2 1.1,-3.3 1.6,-3.4 2.3,-5.8 2.8,-8.9 0.2,-1.6 0.6,-3.5 0.8,-4.4 0.9,-3.6 1.6,-8.7 1.6,-10.7 0,-6.3 -0.6,-11 -1.9,-16 -1.1,-4 -1.5,-5.3 -1.7,-5.6 -0.2,-0.2 -0.7,-1.5 -1.1,-2.9 -1.6,-4.7 -3.9,-6.5 -7.5,-6.1 -2.1,0.3 -2.8,-0.3 -1.2,-1 1.3,-0.6 2.1,-2.9 1.8,-5.4 -0.3,-2.3 -1.9,-5.8 -2.9,-6.7 l -0.8,-0.6 1,-1 c 0.5,-0.5 1,-1.4 1,-1.8 0,-0.4 0.2,-0.9 0.4,-1 0.6,-0.4 0.5,-1.9 -0.6,-6.1 -0.7,-3 -1.2,-4.2 -2,-4.8 -1.2,-1 -1,-1.5 0.6,-1.8 1,-0.2 1.4,0 3.4,2.1 2,2.1 2.4,2.3 3.7,2.3 0.8,0 1.6,0.2 1.7,0.4 0.2,0.2 1.1,0.8 2.1,1.2 2,1 6.8,5.3 8,7.1 0.4,0.6 1.6,1.6 2.6,2.3 1.1,0.7 1.9,1.3 1.9,1.5 0,0.2 0.9,0.8 1.9,1.5 1.1,0.7 2,1.4 2,1.5 0,0.2 2.5,2.2 3.8,3 0.1,0 -0.2,1.9 -0.7,4.1 -0.4,2.2 -0.9,5.7 -1.2,7.8 -1.1,10.6 -1.1,10.3 -0.5,11.2 0.4,0.7 0.5,1.4 0.3,2.5 -0.2,1.1 -0.2,1.5 0.1,1.2 0.2,-0.2 0.5,-0.9 0.5,-1.6 0.1,-0.7 0.3,-1.2 0.5,-1.2 0.4,0 3.1,4.3 4.7,7.6 0.6,1.2 1.4,2.6 2,3.1 0.9,1 1.2,2.3 1.5,5.8 0.3,4.2 0.3,5 -0.4,6.4 -0.6,1.2 -0.8,1.4 -1.7,1.2 -0.7,-0.2 -0.9,-0.1 -0.8,0.3 0.1,0.3 0.6,0.5 1.1,0.5 1.1,0 1.6,1.6 0.6,2 -0.4,0.1 -0.6,0.4 -0.6,0.6 0,0.6 0.8,0.4 1.5,-0.5 0.3,-0.4 1,-1.2 1.5,-1.8 1.1,-1.3 1.7,-3.8 1.8,-7.9 0,-2.8 -0.1,-3.5 -0.8,-4.7 -0.5,-0.8 -1,-1.5 -1.3,-1.6 -0.2,-0.1 -0.7,-1 -0.9,-2.2 -0.6,-2.3 -1.9,-4.6 -4.4,-7.5 -1.3,-1.6 -1.6,-2.1 -1.3,-2.8 0.6,-1.6 1.3,-14.3 1.1,-19.7 -0.2,-5.7 -0.9,-8 -3.1,-11.1 -0.5,-0.7 -1.2,-1.9 -1.7,-2.7 -0.8,-1.5 -5.3,-5.1 -8,-6.5 -0.9,-0.4 -3.5,-1.2 -5.9,-1.8 -5.1,-1.1 -5.7,-1.4 -5.9,-2.8 -0.4,-1.7 -3.2,-5.8 -4.5,-6.5 -0.7,-0.3 -1.2,-0.9 -1.2,-1.4 0,-0.8 0.9,-1 1.4,-0.4 0.4,0.7 2.3,0.4 3.3,-0.4 1.5,-1.2 3.2,-1 7.2,0.8 2.9,1.3 5.1,1.4 13.7,0.9 l 4.3,-0.3 0.6,3.1 c 0.8,3.9 1.2,5.2 2.6,8.1 0.6,1.3 1.2,2.8 1.3,3.3 0.4,1.7 1.8,3.1 3,3.1 1.1,0 2,0.8 2.2,1.8 0.1,0.7 1.6,2.3 2.9,3.1 0.5,0.3 1.1,0.9 1.4,1.4 0.2,0.4 0.7,1 1.1,1.2 0.4,0.2 1.2,0.7 1.7,1.1 0.5,0.4 1.4,0.7 2,0.7 0.6,0 1.4,0.2 1.8,0.5 0.5,0.4 0.9,0.4 1.2,0.2 0.3,-0.3 1,-0.1 2,0.4 0.9,0.5 1.9,0.8 2.3,0.8 0.7,0 2.1,1.4 2.5,2.5 0.1,0.3 0.3,0.4 0.4,0.2 0.4,-0.3 -0.3,-1.8 -1.4,-3 -1.1,-1.2 -0.4,-2 1.1,-1.3 0.8,0.4 1,0.3 1,-0.1 0,-0.3 -0.2,-0.6 -0.5,-0.6 -0.3,0 -0.6,-0.2 -0.7,-0.5 -0.1,-0.4 -0.4,-0.4 -1.1,0 -1,0.6 -3.1,0.2 -5.2,-0.9 -0.6,-0.3 -1.4,-0.6 -1.8,-0.6 -0.4,0 -0.7,-0.2 -0.9,-0.3 -0.1,-0.2 -0.7,-0.5 -1.4,-0.6 -0.7,-0.2 -1.2,-0.4 -1.2,-0.5 0,-0.2 -0.6,-0.6 -1.3,-1 -0.7,-0.4 -1.4,-1.1 -1.5,-1.6 -0.3,-1.2 -1.8,-2.9 -2.8,-3.3 -0.5,-0.2 -1.2,-0.9 -1.4,-1.7 -0.7,-1.5 -4.4,-9.4 -6.6,-13.9 -0.9,-1.8 -1.9,-3.3 -2.1,-3.4 -0.3,-0.1 -0.5,-0.4 -0.5,-0.7 0,-1.5 -4,-3.7 -8,-4.3 -0.8,-0.1 -1.8,-0.4 -2,-0.6 -0.6,-0.5 -3.8,-0.1 -7.9,1.1 -1.8,0.5 -4.2,1 -5.1,1.1 -1.7,0.1 -1.8,0 -2.4,-1.1 -0.8,-1.7 -2.6,-3.8 -3,-3.5 -0.2,0.1 -0.4,-0.1 -0.4,-0.4 0,-0.4 -0.1,-0.6 -0.4,-0.6 -0.2,0 -0.4,-0.2 -0.4,-0.4 0,-0.2 0.3,-0.2 0.8,0.1 0.6,0.4 0.9,0.4 1.6,0 0.4,-0.2 1.1,-0.5 1.4,-0.5 2.4,0 8.7,-4.6 9.9,-7.3 0.3,-0.7 0.7,-1.2 0.8,-1.2 0.2,0 0.3,-0.3 0.3,-0.6 0,-0.3 0.5,-1.3 1.1,-2.1 0.6,-0.8 1.5,-2.1 2.1,-3 0.5,-0.9 1.5,-2.2 2.2,-2.9 0.7,-0.7 1.3,-1.9 1.4,-2.7 0.2,-0.7 0.8,-2.2 1.4,-3.3 0.6,-1.1 1.1,-2.4 1.1,-2.8 0,-0.4 0.2,-0.9 0.3,-1 0.5,-0.3 3.8,-7.9 4.4,-10 0.4,-1.6 0.7,-1.9 2.5,-2.7 1.1,-0.5 2.2,-1.4 2.5,-1.9 0.8,-1.7 3.3,-4.4 4.4,-4.8 0.5,-0.2 1.3,-0.8 1.7,-1.4 0.3,-0.6 1.3,-1.9 2,-3 0.8,-1.1 1.4,-2.2 1.4,-2.5 0,-0.3 0.3,-0.9 0.6,-1.3 0.7,-0.9 0.8,-2.2 0.2,-2.2 -0.2,0 -0.4,0.3 -0.4,0.7 0,1.1 -0.8,1.4 -1.4,0.6 -1,-1.5 -1.7,-2.1 -2.1,-2.1 -0.2,0 0,0.6 0.5,1.2 0.8,1.1 0.8,1.3 0.3,2.8 -0.5,1.5 -1.6,3 -4.4,5.8 l -1.1,1.1 -0.7,-0.9 -0.7,-0.9 -0.2,0.9 c -0.1,0.5 -0.4,0.9 -0.5,0.9 -0.2,0 -0.5,0.6 -0.7,1.3 -0.5,1.3 -3,3.7 -4.4,4.2 -0.6,0.2 -0.7,0 -0.7,-1.9 0,-1.2 -0.2,-2.1 -0.3,-2.1 -0.4,0 -1.4,2.2 -2,4.5 -0.2,0.9 -1,3 -1.6,4.9 -1.6,4.3 -3,9 -3.3,11.5 -0.2,1.6 -0.5,2.1 -1.6,2.9 -3.2,2.4 -6.7,5.5 -7.6,6.7 -1,1.4 -3.3,5.6 -4.6,8.6 -0.4,1 -1.2,2 -1.6,2.2 -0.8,0.4 -0.8,0.4 -0.8,-2 0,-3.1 -0.9,-7.3 -1.8,-8.7 C 83.3,90.3 83,88.9 82.9,86.5 82.6,82.4 82,81 79.4,78.4 c -1,-1 -1.9,-2 -1.9,-2.2 0,-0.2 1,-0.5 2.1,-0.6 3.8,-0.4 6.2,-2.7 7.2,-6.9 1.7,-7.5 2.1,-11.5 1.8,-16.9 -0.1,-3 -0.5,-6.5 -0.8,-7.8 -0.3,-1.3 -0.6,-2.5 -0.6,-2.8 -0.4,-0.2 0.9,-0.5 3,-0.6 z m -18,-12.4 c 0.3,0 0.5,0.4 0.5,0.7 0,0.4 0.3,0.9 0.7,1 0.4,0.1 0.8,0.6 0.9,1 0.1,0.4 0.5,0.8 0.9,0.8 0.8,0 2.5,2 2.5,2.9 0,0.3 -0.2,0.6 -0.5,0.6 -0.3,0 -0.6,0.2 -0.7,0.5 -0.1,0.4 -0.3,0.3 -0.7,-0.2 -0.8,-1 -4.4,-1.3 -6.3,-0.5 -1.5,0.6 -3.7,0.9 -3.7,0.4 0,-0.9 1.5,-2.6 2.5,-2.8 0.6,-0.1 1.2,-0.5 1.4,-0.9 0.1,-0.3 0.5,-0.9 0.9,-1.1 0.4,-0.3 0.7,-0.8 0.7,-1.2 -0.1,-0.8 0.2,-1.2 0.9,-1.2 z"
   id="path7" />
</g>
</svg>
