<?xml version="1.0" encoding="UTF-8" standalone="no"?>
<!-- Created with Inkscape (http://www.inkscape.org/) -->

<svg
   version="1.1"
   width="168.3717mm"
   height="116.95745mm"
   viewBox="0 0 168.3717 116.95745"
   id="svg955"
   xmlns="http://www.w3.org/2000/svg"
   xmlns:svg="http://www.w3.org/2000/svg">
  <defs
     id="defs949" />
  <g
     id="layer1"
     transform="translate(-23.112842,-24.505346)">
    <path
       d="M 61.137648,101.6808 C 49.703868,97.995535 25.702381,81.931546 24.946428,81.648063 c -0.755952,-0.283482 -3.023809,-0.377975 -1.039434,1.228424 1.984375,1.606399 25.70238,16.725447 29.954613,18.237353 4.252232,1.5119 8.504465,3.02381 8.504465,3.02381 z"
       id="path1515"
       style="fill:#000000;fill-opacity:1;stroke:none" />
    <path
       d="m 62.177083,106.59449 c -3.590775,1.51191 -2.929316,1.79539 -3.685268,3.68527 -0.755951,1.88988 -6.992559,20.50521 -7.370535,24.00149 -0.377978,3.49628 -0.850447,7.18155 0.09449,7.18155 0.94494,0 1.511903,-5.66965 2.456844,-8.69346 0.94494,-3.02381 4.063246,-17.3869 5.669642,-19.84375 1.606399,-2.45684 1.984375,-3.68526 3.401788,-4.25223 1.41741,-0.56696 2.267857,-1.03943 2.267857,-1.03943 z"
       id="path1517"
       style="fill:#000000;fill-opacity:1;stroke:none" />
    <path
       d="m 59.400651,104.69957 c 0.868627,1.06908 4.34313,5.41221 7.416731,4.47677 3.073598,-0.93545 3.207234,-1.06908 4.075859,-2.47225 0.868627,-1.40316 -0.868625,-8.485802 -3.407686,-9.287611 -2.53906,-0.80181 -4.677216,0.53454 -6.080381,2.806331 -1.403165,2.27179 -2.33861,3.4745 -2.004523,4.47676 z"
       id="path1519"
       style="fill:#000000;fill-opacity:1;stroke:none" />
    <path
       d="m 64.090586,99.223956 c -0.259858,-0.755952 -1.181174,-1.700893 -1.913503,-0.968563 -0.73233,0.73233 -0.33073,1.299292 0.165364,1.41741 0.496094,0.118118 1.582775,-0.165365 1.748139,-0.448847 z"
       id="path1521"
       style="fill:#000000;fill-opacity:1;stroke:none" />
    <path
       d="m 64.610305,105.20071 c -0.212612,0.77957 -0.401601,1.55915 0.637833,1.58277 1.039434,0.0236 2.102493,-0.23624 1.842635,-0.92132 -0.259858,-0.68508 -0.354353,-1.2048 -1.039434,-1.22842 -0.685083,-0.0236 -1.441034,0.56697 -1.441034,0.56697 z"
       id="path1523"
       style="fill:#000000;fill-opacity:1;stroke:none" />
    <path
       d="m 69.490076,105.50138 c 2.672696,2.13816 7.483546,1.73725 8.285355,1.46998 0.80181,-0.26727 3.474503,-1.20271 3.875408,-2.00452 0.400905,-0.80181 2.138156,-5.479023 0.267271,-8.151717 -1.870887,-2.672696 -5.87993,-3.34087 -8.285355,-2.405425 -2.405428,0.935442 -5.746295,4.409945 -6.1472,5.612662 -0.400904,1.20271 2.004521,5.47902 2.004521,5.47902 z"
       id="path1525"
       style="fill:#000000;fill-opacity:1;stroke:none" />
    <path
       d="m 72.69731,97.884201 c 0.668173,-4.142679 6.984796,-10.424753 7.646254,-10.637364 0.661459,-0.212614 3.779761,0.472469 4.063244,0.968563 0.283482,0.496094 0,0 0,0 0,0 23.169172,-7.302815 25.908692,-8.973248 2.73951,-1.670437 9.15398,-6.548104 12.89575,-6.748555 3.74177,-0.200454 6.34765,-2.405428 6.01357,2.204971 -0.33409,4.610402 0.60135,5.545844 -4.00905,6.949009 -4.6104,1.403164 -8.28535,3.541321 -11.29214,5.813112 -3.00678,2.271792 -14.098462,7.951269 -16.169802,10.156243 -2.071339,2.204971 -6.681738,4.476768 -8.15172,5.011308 -1.469983,0.53453 -2.138156,1.80407 -2.605879,1.9377 -0.46772,0.13363 -2.271789,1.46998 -3.608139,1.13589 -1.336346,-0.33408 -5.011303,-2.53906 -5.612659,-3.74177 -0.601355,-1.20271 -5.078121,-4.075859 -5.078121,-4.075859 z"
       id="path1527"
       style="fill:#000000;fill-opacity:1;stroke:none" />
    <path
       d="m 72.162772,95.278322 c -1.870887,-0.334086 -2.53906,-0.801809 -3.875407,0.200454 -1.33635,1.00226 -1.002263,2.672694 -0.935445,3.006781 0.06682,0.334086 3.808592,1.00226 3.808592,1.00226 z"
       id="path1529"
       style="fill:#000000;fill-opacity:1;stroke:none" />
    <path
       d="m 69.490076,95.746045 c -2.004521,-2.405428 -9.15398,-9.153983 -10.089425,-8.285356 -0.935442,0.868625 3.073601,4.543581 4.944488,6.414469 1.870885,1.870887 5.412206,4.142676 5.144937,1.870887 z"
       id="path1531"
       style="fill:#000000;fill-opacity:1;stroke:none" />
    <path
       d="m 60.469729,88.663403 c 0.06682,1.336347 -6.195753,7.100057 -6.797111,7.300508 -0.601356,0.200454 -0.319922,-0.162514 0.481883,-2.033401 0.801806,-1.870885 4.845241,-6.870725 5.647051,-5.935283 0.801809,0.935445 0.668173,0.668176 0.668173,0.668176 z"
       id="path1533"
       style="fill:#000000;fill-opacity:1;stroke:none" />
    <path
       d="m 53.81436,95.160713 c -2.173364,0.472469 -2.645833,0.519718 -2.4096,1.27567 0.236236,0.755951 2.267858,-0.472472 2.267858,-0.472472 z"
       id="path1535"
       style="fill:#000000;fill-opacity:1;stroke:none" />
    <path
       d="m 77.174076,104.96684 c 0.935442,3.74178 4.81085,11.42577 4.142676,12.16077 -0.668173,0.73499 -2.472243,0.93544 -2.605878,-0.0668 -0.133633,-1.00226 -3.006781,-11.8935 -3.541321,-12.22758 -0.534538,-0.33409 2.004523,0.13363 2.004523,0.13363 z"
       id="path1537"
       style="fill:#000000;fill-opacity:1;stroke:none" />
    <path
       d="m 77.875658,105.86888 c 0.501129,0.90203 -0.03341,1.80407 -0.434313,1.90429 -0.400905,0.10023 -3.507912,-0.30068 -3.107008,-1.1693 0.400905,-0.86863 3.541321,-0.73499 3.541321,-0.73499 z"
       id="path1539"
       style="fill:#000000;fill-opacity:1;stroke:none" />
    <path
       d="m 80.314492,116.69329 c 0.501131,1.10249 -2.472243,8.61944 -3.006783,9.02035 -0.534538,0.4009 -1.737252,-0.33409 -1.102487,-1.06908 0.634767,-0.73499 3.474506,-7.55036 3.274052,-8.58603 -0.200451,-1.03567 0.835218,0.63476 0.835218,0.63476 z"
       id="path1541"
       style="fill:#000000;fill-opacity:1;stroke:none" />
    <path
       d="m 77.240894,125.07887 c 0.334086,1.60362 0.501128,3.57473 -0.167045,3.77519 -0.668173,0.20045 -0.06682,-3.10701 -0.434314,-3.70837 -0.367495,-0.60136 0.601359,-0.0668 0.601359,-0.0668 z"
       id="path1543"
       style="fill:#000000;fill-opacity:1;stroke:none" />
    <path
       d="m 85.092214,96.936234 c 2.460222,1.918341 3.679442,1.932631 3.79313,4.416686 0.113684,2.48404 -0.497624,6.8381 0.548686,6.6087 1.046311,-0.2294 0.513959,-5.4208 0.604498,-6.5842 0.09054,-1.16339 -0.842767,-5.887096 -2.696442,-5.194771 -1.853678,0.692317 -2.249872,0.753585 -2.249872,0.753585 z"
       id="path1545"
       style="fill:#000000;fill-opacity:1;stroke:none" />
    <path
       d="m 89.344171,106.7247 c 1.30159,1.42139 5.28159,14.26064 4.911263,14.92641 -0.370324,0.66577 -1.296823,1.45135 -1.348563,0.24233 -0.05174,-1.20901 -1.840065,-7.96406 -2.264852,-8.74352 -0.424787,-0.77946 -2.758053,-6.0304 -1.297849,-6.42523 z"
       id="path1547"
       style="fill:#000000;fill-opacity:1;stroke:none" />
    <path
       d="m 93.755084,121.69467 c 0.806006,1.05856 1.032696,1.86865 0.532686,2.35165 -0.500008,0.48299 -1.941833,1.65251 -1.95034,0.50443 -0.0085,-1.14808 1.110298,-2.87616 1.110298,-2.87616 z"
       id="path1549"
       style="fill:#000000;fill-opacity:1;stroke:none" />
    <path
       d="m 97.286108,95.812863 c 4.009042,-0.267272 10.757602,-1.670436 10.423512,-0.400905 -0.33409,1.269529 -13.29666,3.674954 -13.29666,3.674954 z"
       id="path1551"
       style="fill:#000000;fill-opacity:1;stroke:none" />
    <path
       d="m 106.70736,95.34514 c 2.87314,2.605879 15.30118,7.34991 15.43481,7.95127 0.13364,0.60135 -1.17504,2.83736 -1.50912,1.76828 -0.33409,-1.06908 -16.39794,-9.251827 -16.73202,-8.984558 -0.33409,0.267268 2.80633,-0.734992 2.80633,-0.734992 z"
       id="path1553"
       style="fill:#000000;fill-opacity:1;stroke:none" />
    <path
       d="m 121.56659,103.47619 c 2.05525,1.48828 2.88207,2.7167 3.00019,3.30729 0.11811,0.59059 -0.94494,1.44103 -1.41741,0.47247 -0.47247,-0.96856 -2.33873,-3.2128 -2.43323,-3.18917 -0.0945,0.0236 0.85045,-0.59059 0.85045,-0.59059 z"
       id="path1555"
       style="fill:#000000;fill-opacity:1;stroke:none" />
    <path
       d="m 88.435867,87.910367 c -0.453389,-2.226079 -1.299716,-3.599615 -2.962143,-2.983892 -1.662428,0.615724 -0.181356,4.404791 -0.181356,4.404791 z"
       id="path1557"
       style="fill:#000000;fill-opacity:1;stroke:none" />
    <path
       d="m 86.934523,85.805803 c -0.141742,-1.889882 -3.874257,-7.370538 -4.582962,-6.756326 -0.708705,0.614212 -1.130569,1.239886 -0.185631,2.279323 0.944941,1.039434 3.681912,4.996718 3.492923,5.043965 -0.188989,0.04725 1.27567,-0.566962 1.27567,-0.566962 z"
       id="path1559"
       style="fill:#000000;fill-opacity:1;stroke:none" />
    <path
       d="m 82.682291,79.994418 c 0.09449,-2.315104 -1.042792,-3.279616 -0.0034,-5.122248 1.039434,-1.842635 -1.225066,-4.705134 -1.839277,-3.334968 -0.614209,1.370163 0.236235,8.693452 1.086683,9.024181 0.850445,0.330729 0.755952,-0.566965 0.755952,-0.566965 z"
       id="path1561"
       style="fill:#000000;fill-opacity:1;stroke:none" />
    <path
       d="m 124.49591,74.655504 c 2.59858,-3.212798 11.00855,-12.189732 11.81175,-13.465402 0.8032,-1.27567 19.10957,-28.252396 19.37684,-29.856014 0.26727,-1.603616 4.20949,-6.080381 5.3788,-6.548103 1.1693,-0.467721 2.67269,-0.300678 2.60588,0.133635 -0.0668,0.434313 -1.33635,0.434313 -2.10475,1.035669 -0.7684,0.601358 -3.30746,2.806332 -4.51018,6.180608 -1.20271,3.374279 -7.3165,12.561668 -7.81763,13.463704 -0.50113,0.902033 -13.33007,20.880429 -14.5996,21.815874 -1.26953,0.935443 -8.15172,8.218538 -8.15172,8.218538 z"
       id="path1563"
       style="fill:#000000;fill-opacity:1;stroke:none" />
    <path
       d="m 126.00781,76.545386 c 4.96094,-0.803201 11.48103,-1.606399 12.80394,-1.559152 1.32292,0.04725 13.26461,0.04642 15.00186,-0.220848 1.73725,-0.267269 9.55489,-0.801807 10.69078,-0.734991 1.1359,0.06682 19.77795,0.53454 20.71339,0.267271 0.93544,-0.267271 1.87089,-1.670436 2.47224,-2.605879 0.60136,-0.935444 1.87089,-4.209494 2.53906,-4.476765 0.66818,-0.267269 1.46999,-0.133633 1.20272,0.467722 -0.26727,0.601356 -4.07586,7.283096 -5.07812,7.750815 -1.00226,0.467723 -2.93997,0.868627 -3.67496,0.734992 -0.73499,-0.133633 -20.33795,-1.135071 -27.5195,-0.19013 -7.18154,0.944941 -27.87574,1.41741 -28.34821,2.362351 -0.47247,0.944941 -0.8032,-1.795386 -0.8032,-1.795386 z"
       id="path1565"
       style="fill:#000000;fill-opacity:1;stroke:none" />
    <path
       d="m 79.011979,91.869526 c -1.960215,-0.510501 -0.868592,-0.806328 -1.547333,-2.158561 -0.678739,-1.352228 -1.888009,-1.074724 -2.46502,-0.712069 -0.577016,0.362648 -0.303017,0.854491 -0.07217,1.520151 0.230849,0.665662 1.955633,3.07574 2.907686,2.274669 0.952057,-0.801066 1.176832,-0.92419 1.176832,-0.92419 z"
       id="path1545-3"
       style="fill:#000000;fill-opacity:1;stroke:none" />
    <path
       d="m 75.220069,88.964052 c 0.653868,1.053793 0.477364,3.838549 0.170233,4.176481 -1.25346,0.657602 -1.275327,-0.403506 -1.436358,-0.844977 -0.177697,-0.531976 0.30746,-3.328145 1.266125,-3.331504 z"
       id="path1547-6"
       style="fill:#000000;fill-opacity:1;stroke:none" />
    <path
       d="m 84.72444,100.89098 c 3.541321,0.33409 16.43708,-1.336345 18.04069,-1.870883 1.60362,-0.53454 22.91195,-2.441975 23.85689,-2.441975 0.94494,0 11.9535,-1.700892 15.11905,-3.023809 3.16555,-1.322916 8.45722,-4.063243 9.5439,-6.614583 1.08668,-2.55134 2.74033,-8.740698 -2.55134,-12.803944 -5.29167,-4.063243 -13.22917,-6.850816 -22.2061,-6.142111 -8.97693,0.708705 -17.15067,3.449031 -23.15104,7.417781 -6.000374,3.96875 -7.843009,6.945312 -8.740703,8.457218 -0.897691,1.511904 -1.27567,1.984375 -1.322917,4.393973 -0.04725,2.409597 -0.09449,5.197173 -1.511903,6.189361 -1.417412,0.992187 -3.96875,1.464656 -3.96875,1.464656 z"
       id="path1588"
       style="fill:#000000;fill-opacity:0.387978;stroke:none" />
    <path
       d="m 80.31994,88.451636 c 0,0 5.953125,-5.953125 6.898066,-7.465031 0.94494,-1.511903 1.133927,-1.228421 2.456844,-2.173361 1.322916,-0.944941 17.95387,-15.308038 18.89881,-15.969496 0.94494,-0.661458 8.40997,-5.953125 11.24479,-7.559522 2.83482,-1.606399 5.76414,-2.834822 8.69345,-3.68527 2.92932,-0.850445 6.70908,-1.133927 8.59896,0 1.88988,1.13393 5.29167,7.465031 4.8192,9.638395 -0.47247,2.173362 -0.56697,3.874254 -2.07887,6.80357 -1.51191,2.929316 -3.68527,8.126489 -7.55952,11.055805 -3.87426,2.929313 -13.32366,5.858629 -17.95387,6.047618 -4.63021,0.188987 -21.946941,4.493791 -23.222612,3.643344 -1.664206,-0.777503 -6.495769,-1.469982 -7.960428,1.270347 -1.464657,2.740327 -2.83482,-1.606399 -2.83482,-1.606399 z"
       id="path1590"
       style="fill:#000000;fill-opacity:0.387978;stroke:none" />
  </g>
</svg>
