<?xml version="1.0" encoding="UTF-8" standalone="no"?>
<svg
   width="348.19553"
   height="860.61652"
   viewBox="0 0 348.19553 860.61652"
   version="1.1"
   id="svg4"
   xmlns="http://www.w3.org/2000/svg"
   xmlns:svg="http://www.w3.org/2000/svg">
  <defs
     id="defs8" />
  <path
     d="m 57.613099,0.55123882 c -0.297,0.48099998 4.846,7.36699998 11.428,15.30300018 24.917,30.043 33.570001,46.398 42.354001,80.045 7.496,28.718001 12.581,56.744001 16.126,88.885001 1.672,15.167 4.503,33.074 7.981,50.5 5.93,29.711 7.072,39.171 8.372,69.364 0.597,13.86 0.533,22.369 -0.199,26.645 l -1.077,6.282 -4.631,0.615 c -6.821,0.905 -12.599,5.572 -16.125,13.025 -3.268,6.908 -3.417,8.129 -1.48,12.165 0.767,1.597 1.699,6.634 2.073,11.193 0.644,7.871 0.538,8.527 -2.101,13 -2.557,4.335 -2.812,5.714 -3.185,17.276 l -0.405,12.565 -8.137,-0.302 c -4.476,-0.166 -13.088001,-0.456 -19.138001,-0.646 -12.135,-0.38 -17.938,-2.369 -21.132,-7.243 -1.647,-2.514 -1.62,-7.855 0.181,-34.939 0.363,-5.467 2.204,-20.736 3.357,-27.844 0.521,-3.215 1.267,-10.36 1.659,-15.88 0.575,-8.122 0.458,-9.95 -0.615,-9.593 -0.729,0.243 -1.953,2.326 -2.721,4.63 -0.768,2.303 -1.778,4.187 -2.244,4.187 -0.467,0 -1.86,-1.462 -3.097,-3.25 -1.236,-1.788 -4.079,-5.308 -6.318,-7.824 -6.228,-6.998 -13.018,-16.826 -15.839,-22.926 -3.083,-6.664 -4.332,-12 -2.81,-12 0.593,0 1.079,-0.675 1.079,-1.5 0,-2.081 -3.973,-1.903 -5.608,0.25 -1.244,1.639 -1.33,1.641 -1.36,0.031 -0.021,-1.108 -0.563,-1.515 -1.527,-1.145 -1.906,0.732 -1.03,7.302 1.647,12.349 1.016,1.917 1.848,3.938 1.848,4.492 0,0.553 1.514,3.26 3.364,6.014 1.85,2.755 5.044,7.596 7.097,10.759 2.054,3.162 4.14,5.75 4.636,5.75 0.497,0 0.903,0.958 0.903,2.129 0,1.171 1.597,3.896 3.549,6.057 2.199,2.434 3.349,4.573 3.024,5.621 -1.603,5.159 -2.201,19.808 -1.479,36.193 0.448,10.175 0.899,21.866 1.002,25.98 0.214,8.569 2.875,20.56 5.612,25.29 4.44,7.672 23.554,15.949 44.207001,19.142 6.244,0.966 7.631,1.515 7.9,3.13 0.179,1.077 1.513,2.949 2.963,4.161 2.565,2.143 2.594,2.293 1.071,5.5 -0.862,1.813 -2.364,6.672 -3.338,10.797 -2.579,10.922 -3.108,12 -5.891,12 -1.333,0 -7.53,2.078 -13.771001,4.619 -6.242,2.54 -13.149,5.211 -15.349,5.935 -9.175,3.018 -14.905,5.497 -19.457,8.418 -6.627,4.253 -9.081,10.194 -13.026,31.528 -1.528,8.264 -4.003,19.52 -6.157,28 -1.117,4.4 -2.433,11.874 -2.923,16.608 -0.643,6.207 -1.889,10.938 -4.466,16.96 -1.966,4.594 -3.991,8.854 -4.5,9.467 -0.509,0.613 -3.337,2.335 -6.284,3.826 -3.843,1.945 -6.007,3.863 -7.647,6.781 -1.258,2.238 -3.565,5.526 -5.128,7.305 -3.4360001,3.913 -5.1720001,8.159 -4.3700001,10.685 1.066,3.36 3.4580001,2.19 3.4580001,-1.691 0,-2.118 0.405,-3.309 1,-2.941 0.55,0.34 1,1.941 1,3.559 0,2.306 0.446,2.941 2.067,2.941 1.595,0 1.926,-0.446 1.449,-1.95 -0.341,-1.073 0.151,-3.435 1.093,-5.25 0.942,-1.815 1.829,-4.425 1.971,-5.8 0.16,-1.541 1.903,-3.842 4.546,-6 2.358,-1.925 8.49,-7.55 13.626,-12.5 5.137,-4.95 9.727,-9.136 10.201,-9.302 1.31,-0.46 4.047,3.952 4.047,6.525 0,1.438 0.6,2.277 1.63,2.277 1.345,0 1.54,-0.802 1.113,-4.586 -0.291,-2.582 0.108,-6.842 0.914,-9.75 0.863,-3.115 1.765,-13.696 2.272,-26.664 0.703,-17.979 1.282,-23.324 3.532,-32.634 l 2.692,-11.135 3.872,-0.619 c 2.13,-0.341 5.359,-1.472 7.174,-2.514 1.816,-1.043 8.251,-3.044 14.301,-4.449 6.05,-1.404 13.640001,-3.468 16.867001,-4.587 3.227,-1.119 6.237,-1.807 6.688,-1.528 0.45,0.278 0.735,10.06 0.632,21.736 -0.236,26.801 0.779,24.685 -24.655001,51.386 -15.546,16.32 -27.805,30.126 -37.156,41.844 -3.95,4.95 -12.37,14.625 -18.711,21.5 -13.557,14.701 -19.352,22.305 -21.719,28.501 -1.5670001,4.105 -1.6080001,5.794 -0.456,18.755 0.696,7.834 1.546,20.994 1.888,29.244 l 0.622,15 1.398,-6.302 c 0.768,-3.467 1.706,-5.942 2.082,-5.5 0.377,0.441 1.661,3.43 2.853,6.641 1.71,4.608 2.167,8.034 2.167,16.25 0,5.726 0.337,10.406 0.75,10.401 0.413,-0.006 1.546,-1.903 2.518,-4.216 l 1.768,-4.206 2.915,6.164 c 2.49,5.265 2.842,7.011 2.414,11.966 l -0.502,5.802 1.8,-2.75 c 0.99,-1.513 2.034,-2.746 2.319,-2.742 0.285,0.005 1.46,1.744 2.61,3.864 1.755,3.233 2.038,5.212 1.755,12.242 -0.319,7.923 -0.258,8.22 1.112,5.386 0.798,-1.65 1.471,-3.536 1.496,-4.191 0.112,-2.95 2.154,-1.979 4.594,2.184 2.599,4.435 2.637,4.746 1.642,13.274 -0.561,4.803 -0.839,8.914 -0.62,9.135 0.22,0.222 1.598,-2.253 3.063,-5.5 1.465,-3.246 2.823,-6.091 3.018,-6.323 0.196,-0.231 1.492,0.647 2.88,1.951 4.482,4.211 1.93,10.703 -6.136,15.609 -2.586,1.574 -7.446,5.367 -10.799,8.431 -3.353,3.063 -10.822,9.527 -16.597,14.365 -12.408,10.394 -22.8320001,21.049 -23.60400012,24.125 -0.915,3.645 -0.025,7.899 1.72200002,8.229 1.244,0.236 1.591,-0.457 1.5,-2.991 -0.15,-4.186 1.715,-5.155 2.388,-1.241 0.371,2.155 1.145,3.033 2.891,3.281 1.8460001,0.262 2.2400001,-0.02 1.7440001,-1.25 -0.353,-0.873 -0.9140001,-2.263 -1.2480001,-3.088 -0.334,-0.825 -0.115,-1.5 0.486,-1.5 0.6010001,0 2.2840001,-1.8 3.7400001,-4 1.456,-2.2 3.174,-4 3.818,-4 0.644,0 2.721,-1.615 4.617,-3.589 1.895,-1.974 7.792,-6.492 13.103,-10.041 11.245,-7.513 33.292,-25.664 37.767,-31.094 2.797,-3.393 3.288,-3.625 5.18,-2.443 2.902,1.812 3.143,1.147 1.426,-3.927 l -1.492,-4.406 3.758,4.25 c 2.067,2.337 4.041,4.25 4.386,4.25 0.345,0 0.378,-1.858 0.074,-4.13 -0.555,-4.138 -8.054,-17.457 -14.203,-25.228 -1.679,-2.122 -3.053,-4.285 -3.053,-4.805 0,-0.521 -2.216,-4.41 -4.923,-8.642 -6.713,-10.492 -18.69,-31.173 -23.018,-39.746 -1.957,-3.878 -4.627,-8.526 -5.933,-10.329 -2.304,-3.18 -2.338,-3.509 -1.156,-10.949 0.764,-4.812 2.282,-9.534 4.074,-12.671 3.99,-6.987 18.922,-21.348 28.456,-27.369 4.4,-2.779 9.575,-6.225 11.5,-7.659 1.925,-1.434 7.604,-5.164 12.619,-8.289 8.831,-5.503 12.058001,-7.958 22.239001,-16.914 l 4.809,-4.231 2.678,7.731 c 1.473,4.252 2.673,9.34 2.667,11.307 -0.014,4.33 2.278,20.622 4.913,34.924 2.927,15.888 3.255,17.132 4.66,17.671 0.931,0.357 1.157,1.967 0.794,5.664 -0.927,9.439 -0.949,9.478 -5.883,10.218 -2.473,0.371 -4.496,1.026 -4.496,1.455 0,0.43 1.688,0.39 3.75,-0.089 2.063,-0.479 4.038,-0.882 4.39,-0.895 0.352,-0.013 -0.123,3.014 -1.054,6.726 -1.657,6.603 -1.787,6.78 -5.945,8.112 -5.085,1.629 -4.865,2.708 0.264,1.292 3.554,-0.982 3.585,-0.964 2.931,1.677 -1.85,7.471 -1.978,7.665 -6.091,9.184 -2.262,0.835 -4.48,1.92 -4.929,2.411 -0.469,0.513 -0.032,0.61 1.027,0.229 1.013,-0.365 2.924,-0.935 4.246,-1.267 2.26,-0.567 2.367,-0.402 1.786,2.754 -0.913,4.955 -2.895,7.555 -6.85,8.985 -1.939,0.701 -3.525,1.64 -3.525,2.087 0,0.447 1.575,0.155 3.5,-0.65 4.053,-1.693 4.002,-1.832 1.853,4.984 -1.49,4.727 -2.021,5.336 -5.597,6.407 -2.173,0.651 -3.705,1.429 -3.404,1.73 0.3,0.3 1.919,0.068 3.597,-0.517 3.568,-1.244 3.51,-1.447 1.423,4.934 -1.34,4.096 -2.253,5.239 -5.154,6.451 -1.939,0.81 -3.27,1.729 -2.957,2.041 0.312,0.312 1.545,0.045 2.739,-0.594 2.898,-1.551 3.394,-0.808 2.121,3.175 -0.584,1.829 -1.448,4.668 -1.92,6.31 -0.622,2.165 -1.729,3.235 -4.029,3.895 -1.745,0.5 -3.172,1.283 -3.172,1.74 0,0.457 1.187,0.379 2.639,-0.173 1.451,-0.552 2.839,-0.803 3.083,-0.558 0.245,0.245 -0.447,2.461 -1.537,4.926 -1.564,3.536 -2.637,4.625 -5.084,5.163 -1.705001,0.374 -3.101001,1.084 -3.101001,1.577 0,0.507 1.113,0.472 2.565001,-0.08 1.411,-0.536 2.736,-0.975 2.944,-0.975 1.182,0 -4.117001,9.875 -6.349001,11.832 -2.65,2.324 -2.651,2.33 -0.259,1.635 2.064,-0.6 2.294,-0.436 1.637,1.168 -0.421,1.026 -0.982,2.616 -1.247,3.533 -0.265,0.918 -1.789,2.21 -3.386,2.871 -1.598,0.662 -2.905,1.615 -2.905,2.118 0,0.502 0.968,0.395 2.152,-0.238 1.91,-1.022 2.062,-0.942 1.358,0.715 -1.306,3.074 -1.799,7.366 -0.847,7.366 0.49,0 2.679,-3.804 4.864,-8.453 3.942001,-8.386 3.986001,-8.435 5.701001,-6.25 2.188,2.791 2.285,1.381 0.153,-2.229 -1.522,-2.576 -1.489,-3.036 0.547,-7.638 1.734,-3.92 2.372,-4.6 3.2,-3.413 0.778,1.116 0.885,0.803 0.433,-1.269 -0.392,-1.8 0.114,-4.152 1.467,-6.802 l 2.066,-4.051 1.92,2.302 c 2.319,2.783 2.601,1.672 0.421,-1.656 -1.422,-2.171 -1.42,-2.831 0.031,-7.215 2.764,-8.353 2.545,-8.066 4.071,-5.326 1.678,3.013 1.869,1.793 0.38,-2.429 -0.902,-2.556 -0.71,-3.904 1.145,-8.044 2.091,-4.666 2.283,-4.827 3.105,-2.605 0.482,1.303 1.104,2.14 1.382,1.862 0.279,-0.279 0.036,-1.746 -0.54,-3.261 -0.853,-2.242 -0.625,-3.655 1.222,-7.598 1.248,-2.663 2.571,-4.861 2.94,-4.884 0.368,-0.023 0.998,1.422 1.4,3.209 0.401,1.788 0.923,2.691 1.159,2.009 0.237,-0.683 -0.091,-2.822 -0.729,-4.755 -0.951,-2.884 -0.852,-4.437 0.558,-8.68 1.487,-4.478 1.879,-4.945 2.939,-3.496 1.682,2.301 2.806,2.109 1.537,-0.262 -1.485,-2.776 -1.298,-4.125 1.119,-8.066 l 2.147,-3.5 1.324,3.5 1.324,3.5 -0.563,-4.581 c -0.439,-3.573 -0.104,-5.333 1.522,-8 l 2.085,-3.419 0.003,4.794 c 0.002,2.637 0.637,7.587 1.411,11 2.275,10.036 4.526,23.686 5.146,31.206 0.317,3.85 1.199,11.95 1.959,18 0.761,6.05 1.918,19.663 2.573,30.25 0.655,10.588 1.548,19.25 1.985,19.25 1.553,0 2.1,-4.304 2.847,-22.372 0.415,-10.059 1.002,-18.702 1.304,-19.208 0.303,-0.506 0.869,-13.07 1.259,-27.92 0.39,-14.85 0.891,-27.188 1.114,-27.417 0.223,-0.229 0.399,1.796 0.392,4.5 -0.083,27.854 1.201,85.929 1.928,87.227 0.794,1.42 1.001,1.301 1.423,-0.824 1.484,-7.467 4.699,-27.671 5.648,-35.486 2.213,-18.225 4.787,-34.736 6.091,-39.071 0.508,-1.689 0.924,-4.266 0.924,-5.727 0,-2.858 5.71,-20.582 7.137,-22.152 1.422,-1.565 1.003,1.279 -0.663,4.5 -0.839,1.622 -1.112,2.95 -0.607,2.95 0.506,0 1.237,-0.788 1.626,-1.75 0.616,-1.523 0.845,-1.426 1.771,0.75 3.264,7.676 3.513,8.924 2.143,10.73 -2.086,2.749 -1.682,4.832 0.431,2.222 l 1.838,-2.27 1.021,4.021 c 0.86,3.389 0.732,4.396 -0.816,6.409 -1.01,1.313 -1.835,3.063 -1.832,3.888 0.002,0.848 0.745,0.305 1.709,-1.25 0.938,-1.512 2.011,-2.75 2.386,-2.75 1.281,0 2.02,7.825 0.931,9.859 -0.591,1.105 -1.059,2.602 -1.04,3.325 0.02,0.724 0.613,0.276 1.318,-0.995 1.236,-2.227 1.32,-2.146 2.326,2.249 0.809,3.538 0.745,4.952 -0.286,6.311 -2.003,2.639 -1.655,3.798 0.543,1.809 1.877,-1.699 1.958,-1.639 2.626,1.921 0.409,2.178 0.216,4.713 -0.474,6.227 -1.474,3.236 -0.661,4.233 0.969,1.188 1.18,-2.206 1.272,-2.138 2.936,2.164 1.471,3.807 1.523,4.759 0.362,6.657 -1.677,2.742 -1.762,4.092 -0.155,2.485 0.66,-0.66 1.51,-1.2 1.889,-1.2 0.874,0 2.273,6.705 2.085,10 -0.127,2.235 -0.052,2.288 0.701,0.5 0.751,-1.784 0.917,-1.663 1.535,1.122 0.381,1.717 0.408,4.417 0.06,6 -0.486,2.217 -0.383,2.533 0.449,1.378 1.391,-1.93 2.122,-0.886 5.603,8 1.4,3.575 3.19,7.625 3.976,9 1.381,2.413 1.432,2.424 1.467,0.312 0.03,-1.891 -0.539,-4.823 -3.521,-18.142 -0.457,-2.037 -0.234,-2.246 1.767,-1.667 2.194,0.635 2.18,0.566 -0.349,-1.671 -1.45,-1.282 -2.876,-3.363 -3.167,-4.623 -0.453,-1.959 -0.215,-2.205 1.638,-1.698 2.089,0.571 2.099,0.538 0.275,-0.923 -1.04,-0.834 -2.206,-1.645 -2.591,-1.802 -0.385,-0.157 -0.986,-1.755 -1.336,-3.549 -0.61,-3.128 -0.522,-3.241 2.091,-2.725 2.66,0.526 2.65,0.498 -0.401,-1.111 -2.132,-1.124 -3.486,-2.841 -4.25,-5.391 -1.551,-5.179 -1.523,-5.239 2.129,-4.602 l 3.25,0.566 -3.5,-1.584 c -4.24,-1.919 -3.641,-1.097 -4.472,-6.132 l -0.701,-4.243 3.336,0.506 3.337,0.505 -3.48,-1.346 c -2.803,-1.083 -3.715,-2.156 -4.686,-5.512 -1.279,-4.415 -0.749,-4.995 2.817,-3.087 1.111,0.595 2.276,0.825 2.588,0.513 0.313,-0.312 -1.045,-1.242 -3.017,-2.066 -4.179,-1.746 -4.243,-1.831 -5.154,-6.877 l -0.696,-3.848 4.314,0.559 4.314,0.558 -3.708,-1.218 c -4.683,-1.539 -5.395,-2.335 -6.215,-6.944 -0.662,-3.726 -0.653,-3.737 2.018,-2.722 1.475,0.561 2.918,0.784 3.206,0.496 0.288,-0.287 -0.867,-1.008 -2.566,-1.6 -3.421,-1.192 -5.235,-4.896 -5.235,-10.688 0,-2.677 0.339,-3.321 1.5,-2.851 4.388,1.776 5.057,1.817 3.059,0.189 -1.068,-0.87 -2.471,-1.582 -3.119,-1.582 -1.233,0 -2.41,-5.209 -2.429,-10.75 -0.013,-3.738 0.18,-3.826 3.555,-1.615 1.373,0.9 2.731,1.401 3.018,1.115 0.287,-0.287 -1.022,-1.475 -2.907,-2.641 -3.804,-2.351 -4.677,-4.931 -4.677,-13.828 0,-4.627 0.308,-5.549 2,-5.991 1.1,-0.288 2,-1.281 2,-2.207 0,-0.925 0.429,-2.112 0.953,-2.636 1.139,-1.139 6.202,-18.881 6.406,-22.447 0.079,-1.375 1.812,-7.675 3.852,-14 2.04,-6.325 4.647,-14.763 5.792,-18.75 1.229,-4.28 2.622,-7.25 3.4,-7.25 1.527,0 3.416,1.249 22.188,14.664 7.65,5.468 15.709,11.008 17.909,12.313 2.2,1.305 5.39,3.756 7.088,5.448 1.698,1.691 4.816,4.425 6.929,6.075 3.823,2.985 12.483,15.205 12.483,17.613 0,2.095 4.306,7.705 6.779,8.832 1.273,0.58 3.194,1.055 4.268,1.055 4.706,0 1.131,13.496 -9.128,34.459 -3.779,7.722 -8.23,16.291 -9.891,19.041 -1.661,2.75 -3.312,5.675 -3.67,6.5 -0.358,0.825 -2.301,3.75 -4.319,6.5 -3.913,5.335 -21.039,37.862 -21.039,39.96 0,0.689 -1.563,3.299 -3.473,5.801 -3.16,4.138 -5.898,12.739 -4.056,12.739 0.4,0 2.045,-1.412 3.657,-3.137 3.59,-3.844 4.389,-3.344 2.372,1.483 -1.685,4.033 -0.894,4.604 2.531,1.83 2.23,-1.806 2.299,-1.781 6.678,2.476 6.194,6.02 18.23,14.937 28.508,21.122 6.686,4.023 10.128,5.438 14.771,6.073 4.022,0.55 6.571,1.469 7.596,2.74 1.097,1.362 1.692,1.553 2.062,0.663 0.286,-0.687 1.436,-1.25 2.554,-1.25 1.621,0 1.911,-0.457 1.43,-2.25 -0.331,-1.237 -0.609,-2.576 -0.616,-2.974 -0.024,-1.274 -5.338,-3.511 -11.213,-4.722 -3.135,-0.646 -7.315,-2.271 -9.288,-3.61 -1.974,-1.339 -5.092,-3.224 -6.93,-4.189 -4.577,-2.403 -19.583,-16.726 -19.583,-18.691 0,-1.759 4.102,-8.532 5.18,-8.552 0.373,-0.006 2.398,3.177 4.5,7.076 2.101,3.898 3.96,6.403 4.131,5.566 0.17,-0.836 -0.65,-6.005 -1.823,-11.485 l -2.134,-9.963 2.238,-4.353 2.237,-4.353 3.018,6.452 c 1.66,3.549 3.194,5.924 3.409,5.279 0.215,-0.645 -0.318,-5.633 -1.184,-11.084 -1.335,-8.396 -1.37,-10.308 -0.227,-12.511 l 1.349,-2.6 3.253,4.048 c 1.79,2.227 3.407,3.895 3.595,3.707 0.188,-0.188 -0.476,-4.008 -1.475,-8.489 l -1.816,-8.148 2.515,-4.217 2.514,-4.217 2.355,3.89 c 1.295,2.139 2.52,4.34 2.723,4.89 1.051,2.853 1.223,-1.029 0.419,-9.5 -0.83,-8.753 -0.712,-10.05 1.501,-16.491 l 2.401,-6.991 1.862,5.491 c 2.246,6.627 2.838,4.883 1.667,-4.918 -0.934,-7.82 -0.436,-10.739 4.36,-25.591 4.376,-13.551 4.588,-14.442 4.35,-18.277 -0.127,-2.048 0.351,-5.603 1.063,-7.902 1.207,-3.9 1.122,-4.466 -1.265,-8.5 -1.407,-2.376 -4.772,-6.796 -7.479,-9.821 -2.706,-3.025 -6.099,-7.376 -7.54,-9.669 -1.441,-2.294 -7.813,-9.858 -14.159,-16.81 -6.346,-6.953 -11.538,-13.091 -11.538,-13.641 0,-0.55 -2.149,-3.335 -4.776,-6.19 -8.29,-9.008 -16.628,-19.789 -25.026,-32.36 -4.472,-6.694 -8.59,-12.454 -9.151,-12.801 -0.562,-0.347 -2.359,-2.576 -3.994,-4.952 -2.692,-3.913 -3.038,-5.349 -3.658,-15.199 -0.376,-5.983 -0.757,-15.828 -0.845,-21.878 -0.088,-6.05 -0.531,-14.712 -0.985,-19.25 -0.612,-6.13 -0.521,-8.25 0.354,-8.25 1.396,0 14.971,8.268 23.895,14.553 4.905,3.454 7.2,4.447 10.282,4.447 2.898,0 4.117,0.471 4.526,1.75 0.308,0.962 0.97,2.65 1.471,3.75 1.31,2.875 4.7,26.793 5.952,42 0.589,7.15 1.492,14.575 2.007,16.5 0.515,1.925 0.939,5.45 0.942,7.833 0.007,5.445 1.779,5.152 3.891,-0.643 0.841,-2.304 1.796,-4.19 2.124,-4.19 0.328,0 1.921,3.488 3.541,7.75 1.62,4.263 4.326,9.325 6.012,11.25 1.687,1.925 4.358,5.75 5.936,8.5 1.578,2.75 4.768,7.777 7.089,11.172 2.321,3.395 4.516,7.52 4.878,9.167 0.361,1.646 1.374,3.269 2.25,3.605 1.396,0.536 1.358,0.782 -0.31,2.002 -3.688,2.696 -0.436,2.762 4.135,0.083 4.127,-2.418 4.558,-3.001 3.966,-5.361 -0.366,-1.456 -0.966,-2.877 -1.335,-3.158 -0.715,-0.543 -2.165,-2.716 -4.95,-7.415 -0.946,-1.597 -4.525,-7.077 -7.952,-12.176 -3.427,-5.099 -7.549,-12.567 -9.159,-16.595 -1.611,-4.028 -4.157,-9.504 -5.658,-12.169 -2.406,-4.271 -2.602,-5.26 -1.655,-8.345 0.682,-2.221 0.737,-4.287 0.152,-5.655 -1.481,-3.461 -6.779,-23.182 -9.579,-35.652 -1.419,-6.323 -3.422,-13.144 -4.449,-15.158 -1.027,-2.014 -2.175,-5.579 -2.549,-7.922 -0.792,-4.95 -5.589,-10.849 -10.856,-13.348 -1.89,-0.897 -5.367,-3.083 -7.726,-4.857 -8.856,-6.659 -20.431,-13.601 -24.424,-14.648 -2.273,-0.597 -4.577,-1.644 -5.121,-2.327 -1.548,-1.948 -4.298,-15.992 -3.621,-18.493 0.433,-1.6 1.37,-2.257 3.243,-2.274 1.448,-0.013 7.808,-0.429 14.133,-0.925 19.253,-1.51 40,-9.51 40,-15.424 0,-0.854 0.838,-3.707 1.862,-6.34 3.816,-9.812 4.427,-16.829 3.21,-36.907 -1.204,-19.885 -4.649,-38.965 -8.143,-45.109 -1.818,-3.196 -1.812,-3.273 0.605,-7.5 1.343,-2.349 2.447,-4.874 2.454,-5.612 0.007,-0.738 1.587,-3.181 3.512,-5.43 1.925,-2.249 3.5,-4.683 3.5,-5.409 0,-0.726 0.642,-1.32 1.427,-1.32 0.786,0 2.368,-1.237 3.516,-2.75 3.69,-4.86 5.96,-7.646 10.184,-12.503 3.662,-4.211 4.067,-5.167 3.546,-8.374 -0.725,-4.469 -1.493,-5.321 -3.005,-3.335 -0.642,0.844 -1.956,1.373 -2.918,1.175 -1.378,-0.283 -1.75,0.323 -1.75,2.846 0,3.096 -3.382,9.941 -4.913,9.941 -0.412,0 -1.347,1.118 -2.078,2.483 -0.731,1.366 -2.045,2.716 -2.919,2.999 -0.875,0.283 -2.584,1.978 -3.798,3.766 -1.215,1.789 -4.702,5.952 -7.75,9.252 -3.048,3.3 -5.541,6.369 -5.542,6.82 0,0.45 -1.392,4.163 -3.093,8.25 -3.026,7.267 -4.907,9.372 -4.907,5.489 0,-2.351 -1.802,-3.657 -3.165,-2.294 -0.653,0.653 -0.476,3.156 0.521,7.362 0.831,3.505 1.795,8.623 2.144,11.373 0.348,2.75 1.484,7.925 2.525,11.5 2.588,8.891 5.912,31.581 6.221,42.464 l 0.254,8.964 -3,1.511 c -5.914,2.977 -29.55,2.62 -40.878,-0.618 -2.051,-0.587 -1.996,-3.633 0.366,-20.321 1.265,-8.936 0.592,-14.166 -2.142,-16.639 -1.861,-1.684 -1.956,-2.585 -1.309,-12.339 0.384,-5.787 1.031,-10.972 1.44,-11.522 1.625,-2.19 1.845,-7.487 0.521,-12.509 -1.689,-6.402 -6.422,-11.699 -11.268,-12.608 -2.875,-0.539 -3.304,-0.963 -2.789,-2.76 1.815,-6.345 1.794,-7.814 -0.153,-10.447 -1.865,-2.523 -1.909,-3.156 -0.706,-10.183 0.706,-4.121 2.017,-12.668 2.913,-18.993 3.29,-23.198 6.541,-36.371 15.586,-63.132 6.637,-19.64 10.44,-33.031 14.485,-51 3.614,-16.061 7.991,-31.868 12.838,-46.368 21.18,-63.363001 32.296,-80.809001 72.876,-114.371001 12.999,-10.751 16.033,-14.1290002 12.691,-14.1290002 -1.007,0 -21.311,16.6670002 -32.819,26.9400002 -13.995,12.494 -25.439,27.647 -34.408,45.56 -11.045,22.061001 -26.449,66.552001 -32.718,94.500001 -6.541,29.159 -8.479,36.16 -16.052,58 -10.093,29.106 -11.402,34.961 -18.163,81.225 -1.002,6.855 -3.684,11.775 -6.419,11.775 -0.804,0 -2.459,0.637 -3.677,1.416 -1.96,1.253 -3.181,1.134 -10.609,-1.034 -7.871,-2.298 -9.003,-2.384 -18.139,-1.378 -5.36,0.589 -11.135,1.47 -12.833,1.958 -2.363,0.677 -4.253,0.393 -8.05,-1.211 l -4.962,-2.096 -0.525,-6.078 c -0.289,-3.342 -0.789,-13.052 -1.111,-21.577 -0.884,-23.445 -2.106,-33.219 -7.551,-60.398 -4.619,-23.051 -5.906,-31.696 -10.437,-70.102 -1.953,-16.555 -9.984,-56.777 -14.902,-74.640001 -3.909,-14.195 -9.443,-29.571 -13.669001,-37.98 -4.761,-9.474 -16.228,-25.711 -28.109,-39.805 -11.124,-13.19500018 -13.098,-15.0490002 -14.174,-13.30800018"
     stroke="none"
     fill="#000000"
     fill-rule="evenodd"
     id="path2" />
</svg>
