<?xml version="1.0" standalone="no"?>
<!DOCTYPE svg PUBLIC "-//W3C//DTD SVG 20010904//EN"
 "http://www.w3.org/TR/2001/REC-SVG-20010904/DTD/svg10.dtd">
<svg version="1.0" xmlns="http://www.w3.org/2000/svg"
 width="4920.000000pt" height="1622.000000pt" viewBox="0 0 4920.000000 1622.000000"
 preserveAspectRatio="xMidYMid meet">
<metadata>
Created by potrace 1.16, written by Peter Selinger 2001-2019
</metadata>
<g transform="translate(0.000000,1622.000000) scale(0.100000,-0.100000)"
fill="#000000" stroke="none">
<path d="M5015 16215 c-5 -2 -100 -18 -210 -35 -340 -53 -413 -68 -506 -110
-134 -60 -162 -63 -619 -55 -428 7 -565 -1 -670 -40 -88 -33 -177 -56 -307
-80 -107 -20 -142 -31 -185 -58 -135 -86 -569 -312 -709 -370 -393 -163 -379
-160 -794 -197 -121 -11 -269 -27 -330 -34 -60 -8 -168 -22 -240 -31 -151 -18
-167 -26 -280 -139 -88 -88 -135 -175 -135 -250 0 -29 12 -85 27 -130 l27 -79
-31 -56 c-25 -46 -33 -76 -43 -168 -12 -111 -12 -113 25 -310 l37 -198 102
-155 c57 -85 125 -193 151 -240 73 -130 130 -205 234 -309 86 -85 114 -106
254 -185 134 -76 165 -98 210 -150 28 -33 130 -139 225 -233 154 -153 182
-177 250 -209 205 -97 701 -281 1078 -399 251 -79 624 -214 979 -354 l131 -52
121 -138 121 -138 106 -231 c58 -127 140 -311 181 -409 89 -207 144 -314 328
-634 189 -330 231 -397 359 -560 115 -147 184 -246 232 -331 25 -45 354 -365
1231 -1199 473 -450 732 -669 1270 -1074 571 -430 492 -347 675 -706 114 -225
201 -378 334 -589 218 -346 334 -537 372 -610 l29 -55 -2 -225 c-3 -265 -19
-519 -38 -610 -22 -108 -487 -1335 -536 -1414 -16 -27 -71 -106 -122 -177
l-91 -129 -346 7 c-190 5 -475 8 -635 7 -319 -1 -399 -11 -474 -58 -22 -14
-135 -74 -251 -132 -117 -59 -228 -123 -252 -144 -37 -33 -43 -43 -42 -77 2
-46 35 -115 66 -137 17 -12 49 -16 133 -16 l111 0 12 -34 c26 -70 164 -156
252 -156 60 0 381 56 424 74 18 8 52 30 74 50 l39 36 142 0 c78 0 183 -6 234
-14 145 -22 1047 -30 1203 -11 66 8 200 15 299 15 117 0 204 5 248 15 159 34
545 224 659 327 37 32 108 159 538 955 63 117 116 209 118 203 2 -5 -8 -161
-22 -347 -15 -186 -30 -403 -35 -483 -8 -135 -11 -151 -45 -229 -20 -46 -62
-131 -92 -188 -50 -92 -66 -113 -154 -192 -111 -101 -132 -114 -302 -177
l-122 -46 -328 13 c-243 9 -341 10 -380 1 -29 -6 -96 -16 -148 -22 -95 -11
-238 -39 -339 -67 -59 -16 -95 -47 -138 -120 -29 -50 -26 -82 12 -115 l25 -21
-77 -48 c-119 -73 -263 -245 -263 -313 0 -13 15 -44 33 -68 43 -57 104 -79
207 -76 71 3 80 6 186 66 l112 63 148 9 c82 6 163 12 179 15 28 4 24 -1 -40
-60 -41 -38 -102 -82 -147 -105 -97 -50 -113 -73 -113 -161 0 -59 4 -72 31
-111 71 -98 189 -132 321 -90 79 25 219 122 240 167 14 29 22 34 62 39 79 11
322 26 409 26 l82 0 0 -32 c0 -27 -15 -47 -89 -122 -92 -95 -151 -189 -151
-244 0 -15 12 -52 26 -81 21 -41 40 -62 85 -91 31 -20 78 -43 104 -50 41 -12
54 -11 122 9 99 29 135 48 263 136 120 82 312 204 447 282 62 36 103 53 126
53 50 0 219 45 285 75 44 21 93 31 217 46 158 18 390 51 493 69 72 13 191 66
319 142 121 72 108 55 328 418 122 201 193 341 240 468 23 61 45 94 127 190
199 233 311 390 485 682 297 497 393 661 424 723 17 33 91 240 164 460 l134
400 463 3 c925 4 1169 35 2258 283 195 44 569 125 830 178 l475 98 295 -2
c414 -2 1169 -50 1715 -108 237 -25 449 -48 471 -51 41 -6 42 -6 275 -332 134
-188 275 -372 329 -432 173 -190 224 -253 328 -405 56 -82 116 -169 134 -192
29 -39 31 -47 30 -128 -1 -83 -2 -88 -49 -173 -26 -48 -62 -117 -80 -154 -41
-83 -116 -148 -248 -213 -160 -78 -185 -82 -706 -100 -494 -18 -530 -18 -769
10 l-156 18 -219 -42 c-120 -23 -226 -46 -235 -51 -8 -5 -63 -45 -120 -90 -58
-45 -136 -98 -175 -117 -38 -20 -83 -45 -99 -56 -37 -26 -66 -90 -66 -149 0
-41 5 -52 35 -83 74 -73 141 -89 260 -60 33 8 63 14 67 15 4 0 4 -15 1 -33 -4
-29 0 -37 33 -67 62 -54 117 -73 224 -78 85 -4 107 -1 195 26 55 17 130 38
167 47 40 10 110 41 175 78 l108 62 95 -2 c70 -1 127 -10 214 -32 247 -65 379
-76 476 -40 30 11 75 26 100 33 25 7 83 30 130 51 174 77 166 75 424 69 206
-5 248 -9 386 -37 148 -30 166 -32 385 -31 321 0 358 11 569 159 149 104 379
282 457 354 60 54 72 75 196 312 72 140 166 325 209 411 l78 157 113 -110
c180 -175 206 -188 558 -297 165 -51 437 -138 605 -193 287 -94 319 -107 568
-231 l263 -131 -143 -74 c-79 -42 -210 -112 -293 -156 -219 -119 -343 -179
-495 -240 l-135 -55 -225 -11 c-124 -6 -468 -23 -765 -36 l-540 -25 -80 -46
c-93 -54 -183 -118 -207 -148 -9 -12 -20 -39 -23 -61 -14 -94 -14 -94 -88
-145 -93 -63 -198 -179 -199 -219 -2 -63 51 -108 170 -143 39 -12 72 -28 72
-35 0 -47 87 -122 185 -159 64 -24 196 -23 317 4 l87 19 6 -26 c20 -78 143
-156 267 -167 112 -11 287 31 446 108 54 26 148 56 275 89 191 49 193 49 427
59 405 17 687 43 847 76 39 8 159 46 265 85 188 69 374 127 471 149 26 6 103
15 171 20 136 11 313 40 601 99 105 22 273 51 375 66 255 38 318 58 585 190
284 140 289 145 377 340 l63 140 0 185 c-1 235 -6 262 -145 673 -112 334 -144
410 -233 551 -27 45 -64 110 -81 146 -36 77 -36 102 -7 330 24 181 37 234 55
227 8 -3 197 -128 422 -278 717 -478 1387 -914 1439 -936 152 -65 1546 -593
2145 -813 725 -266 741 -271 1380 -438 646 -169 1010 -249 1370 -302 241 -35
616 -97 820 -135 74 -14 254 -36 400 -50 557 -52 1665 -134 2080 -155 248 -12
3721 4 4170 20 1393 48 1467 48 2475 20 1710 -47 2361 -71 2565 -95 432 -50
854 -80 1030 -71 186 8 380 51 380 84 0 4 13 15 29 25 33 19 61 72 61 113 0
83 -92 187 -225 256 -316 162 -1227 455 -1516 488 -199 23 -570 83 -1539 250
-415 72 -792 129 -1355 204 -429 58 -1090 149 -1470 201 -547 76 -731 98 -885
105 -107 5 -640 28 -1185 50 l-990 41 -570 74 c-313 41 -626 81 -695 90 -319
39 -829 121 -1060 171 -140 30 -319 68 -396 84 -292 61 -683 175 -1424 413
-283 91 -569 181 -635 201 -189 57 -194 59 -700 261 l-480 191 -375 213 c-206
118 -458 264 -560 326 -615 373 -616 374 -999 662 -366 275 -391 297 -919 776
l-543 492 -317 355 c-175 195 -602 686 -948 1090 -347 404 -664 771 -705 816
-119 130 -848 903 -914 969 -174 174 -718 622 -1262 1040 -454 348 -492 374
-645 455 -90 47 -350 185 -578 305 -228 120 -499 265 -602 321 -221 121 -347
178 -793 359 -342 138 -611 255 -671 291 -135 82 -354 176 -775 333 -118 44
-290 112 -384 151 -222 94 -404 156 -496 169 -167 25 -1054 91 -1219 91 -206
0 -807 -50 -1160 -96 -300 -40 -397 -57 -745 -135 -220 -49 -764 -159 -1210
-243 -483 -92 -1048 -208 -1400 -286 -324 -72 -801 -174 -1060 -227 l-470 -95
-320 12 c-491 19 -958 24 -1056 12 -61 -8 -116 -8 -185 -1 -89 10 -130 23
-399 124 -748 282 -883 338 -1043 433 -64 38 -207 123 -317 188 -219 130 -288
179 -475 334 -215 178 -349 302 -422 389 -135 163 -351 456 -537 733 -113 169
-246 331 -461 568 -240 264 -251 274 -423 389 -177 118 -246 155 -595 317
-254 118 -321 140 -849 275 -332 85 -358 89 -713 109 -183 11 -1496 24 -1515
15z"/>
</g>
</svg>
