<?xml version="1.0" encoding="UTF-8" standalone="no"?>
<svg
   width="173.21277"
   height="136.88525"
   viewBox="0 0 173.21277 136.88525"
   version="1.1"
   id="svg4"
   xmlns="http://www.w3.org/2000/svg"
   xmlns:svg="http://www.w3.org/2000/svg">
  <defs
     id="defs8" />
  <path
     d="m 3.8327664,1.1422539 c -2.705,0.961 -3.57200005,1.874 -3.81900005,4.021 -0.513,4.466 13.45899965,43.9850001 17.26599965,48.8380001 1.129,1.439 2.556,3.464 3.171,4.5 1.01,1.701 2.323,1.866 13.5,1.7 13.952,-0.207 13.708,-0.915 2.434,7.067 -3.926,2.779 -5.818,4.91 -6.657,7.5 -0.645,1.989 -2.01,4.811 -3.034,6.271 -2.033,2.899 -2.439,6.371 -0.859,7.347 0.563,0.348 0.741,2.256 0.405,4.355 -0.526,3.291 -0.302,3.871 1.883,4.866 2.22,1.012 2.429,1.589 1.989,5.493996 -0.364,3.232 -0.075,4.708 1.115,5.696 2.611,2.167 1.862,7.164 -2.394,15.965 -3.915,8.096 -4.934,12.123 -3.067,12.123 0.513,0 1.249,-1.012 1.637,-2.25 1.348,-4.306 6.362,-10.49 9.847,-12.143 4.338,-2.059 7.486,-1.361 11.161,2.474 3.439,3.59 6.158,3.744 7.422,0.419 0.639,-1.681 1.715,-2.5 3.284,-2.5 2.388,0 4.382,-1.257 6.521,-4.11 0.664,-0.885 1.858,-6.544 2.653,-12.574 1.684,-12.762996 3.177,-17.695996 8.873,-29.315996 l 4.167,-8.5 0.607,13.5 c 0.593,13.197 1.576,18.067 3.945,19.530996 2.683,1.658 4.658,-5.413996 5.75,-20.595996 l 0.823,-11.435 4.182,8.5 c 4.429004,9 7.300004,19.368 8.993004,32.477996 0.863,6.684 1.459,8.346 3.672,10.25 1.453,1.25 3.506,2.272 4.563,2.272 1.056,0 2.658,1.125 3.559,2.5 2.058,3.141 3.451,3.148 6.381,0.029 6.844,-7.285 15.1,-4.399 20.995,7.34 1.636,3.257 2.483,4.08 3.328,3.235 0.846,-0.846 0.08,-3.262 -3.012,-9.496 -5.342,-10.771 -6.103,-14.557 -3.413,-16.991 1.679,-1.52 1.915,-2.627 1.431,-6.718 -0.458,-3.864996 -0.277,-4.898996 0.859,-4.898996 2.648,0 3.696,-2.011 2.756,-5.29 -0.66,-2.3 -0.507,-3.506 0.599,-4.727 1.93,-2.133 1.882,-2.615 -0.605,-6.107 -1.148,-1.614 -2.515,-4.479 -3.036,-6.368 -0.985,-3.567 -6.568,-8.834 -12.625,-11.909 -5.759,-2.924 -4.029,-3.873 5.661,-3.106 4.9,0.388 10.291,0.402 11.979,0.031 3.455,-0.759 7.822,-6.45 10.972,-14.299 5.826,-14.513 7.377,-18.736 10.641,-28.958 2.76,-8.6460001 3.347,-11.6780001 2.549,-13.1700001 -1.581,-2.954 -7.403,-4.40199995 -15.587,-3.87599995 -12.607,0.809 -27.684,9.85699995 -44.515,26.71500005 -4.702,4.71 -11.34,12.113 -14.750004,16.45 -4.082,5.192 -6.2,7.224 -6.2,5.95 0,-2.815 -1.957,-4.336 -5.578,-4.336 -3.658,0 -5.947,2.178 -4.98,4.737 0.828,2.191 0.576,1.923 -9.166,-9.737 -14.517,-17.375 -29.184,-29.763 -42.883,-36.2200001 -5.549,-2.616 -8.355,-3.29999995 -14.393,-3.50799995 -4.141,-0.142 -9.0679996,0.299 -10.9999996,0.98499995 M 59.832766,18.815254 c 0,0.938 3.119,3.07 4.493,3.07 1.104,0 -0.542,-1.956 -2.549,-3.03 -1.269,-0.679 -1.944,-0.693 -1.944,-0.04 m 50.000004,1.57 c -0.694,0.837 -0.803,1.5 -0.245,1.5 0.55,0 1.56,-0.675 2.245,-1.5 0.694,-0.837 0.803,-1.5 0.245,-1.5 -0.55,0 -1.56,0.675 -2.245,1.5"
     stroke="none"
     fill="#000000"
     fill-rule="evenodd"
     id="path2" />
</svg>
