<?xml version="1.0" standalone="no"?>
<!DOCTYPE svg PUBLIC "-//W3C//DTD SVG 20010904//EN"
 "http://www.w3.org/TR/2001/REC-SVG-20010904/DTD/svg10.dtd">
<svg version="1.0" xmlns="http://www.w3.org/2000/svg"
 width="2516.000000pt" height="1533.000000pt" viewBox="0 0 2516.000000 1533.000000"
 preserveAspectRatio="xMidYMid meet">
<metadata>
Created by potrace 1.16, written by Peter Selinger 2001-2019
</metadata>
<g transform="translate(0.000000,1533.000000) scale(0.100000,-0.100000)"
fill="#000000" stroke="none">
<path d="M9253 15248 c-153 -147 -205 -216 -293 -389 -82 -159 -136 -229 -178
-229 -26 1 -95 35 -115 58 -10 11 -24 43 -32 71 -37 142 -186 281 -301 281
-70 0 -131 -67 -222 -240 -80 -154 -112 -240 -112 -304 0 -25 -5 -57 -11 -73
-12 -34 -83 -109 -121 -129 -25 -13 -32 -13 -60 2 -18 9 -52 34 -75 54 -69 60
-244 97 -339 71 -51 -14 -112 -66 -154 -131 -29 -45 -33 -61 -39 -149 -8 -112
-36 -180 -141 -351 -32 -52 -85 -149 -117 -214 l-58 -119 -5 -182 c-5 -181 -5
-182 -34 -224 -35 -51 -104 -101 -171 -126 -27 -10 -102 -44 -166 -77 -64 -32
-122 -58 -129 -58 -14 0 -96 -34 -207 -86 -39 -19 -76 -34 -81 -34 -5 0 -38
-15 -73 -34 -35 -18 -79 -37 -98 -41 -18 -4 -54 -16 -80 -28 -25 -11 -59 -24
-76 -28 -51 -13 -173 -66 -331 -144 -82 -41 -153 -75 -157 -75 -6 0 -147 -77
-228 -124 -77 -45 -133 -83 -189 -131 -36 -30 -129 -86 -232 -139 -95 -49
-207 -111 -249 -137 -42 -26 -108 -63 -147 -83 -142 -72 -243 -138 -309 -204
-38 -37 -120 -112 -182 -167 -63 -55 -144 -127 -180 -159 -36 -32 -124 -104
-196 -159 -168 -130 -354 -317 -485 -487 -58 -74 -170 -203 -250 -285 -159
-165 -210 -234 -293 -401 -72 -143 -179 -285 -304 -405 -86 -81 -118 -104
-210 -149 -92 -46 -118 -65 -178 -128 -109 -115 -186 -193 -246 -247 -31 -27
-78 -84 -105 -125 -60 -91 -107 -138 -170 -170 -67 -34 -163 -133 -202 -207
-48 -92 -94 -145 -333 -388 -256 -260 -271 -283 -277 -420 -2 -49 1 -131 6
-181 8 -84 14 -101 81 -233 39 -79 71 -150 71 -160 0 -30 -55 -105 -99 -135
-36 -25 -55 -31 -132 -36 -78 -6 -94 -10 -131 -37 -23 -16 -55 -49 -72 -72
l-31 -43 0 -172 0 -171 39 -72 c30 -56 64 -97 155 -185 134 -129 248 -202 575
-369 120 -62 203 -111 230 -137 83 -80 147 -118 518 -303 338 -169 386 -190
451 -199 156 -22 231 -62 370 -199 60 -58 121 -126 135 -152 39 -66 218 -219
397 -339 62 -41 120 -82 178 -127 23 -18 71 -53 107 -78 36 -25 92 -66 125
-90 95 -70 250 -160 385 -226 292 -142 373 -179 399 -179 9 0 39 -12 66 -26
28 -14 72 -32 98 -40 26 -8 69 -26 94 -40 25 -13 52 -24 60 -24 12 0 83 -34
123 -60 8 -5 38 -20 65 -33 28 -13 64 -31 80 -40 48 -26 125 -60 190 -83 33
-12 76 -27 95 -34 39 -14 133 -46 230 -79 36 -12 88 -28 115 -35 28 -7 64 -20
81 -29 50 -26 316 -107 352 -107 12 0 50 -8 84 -19 69 -20 168 -45 265 -66 34
-8 76 -21 95 -31 48 -25 126 -44 183 -44 30 0 74 -11 110 -25 33 -14 69 -25
80 -25 11 0 40 -10 65 -21 144 -66 415 -124 690 -147 92 -8 145 -28 221 -83
26 -19 174 -156 330 -306 156 -150 302 -285 324 -301 22 -16 96 -68 165 -117
69 -49 165 -125 214 -169 49 -45 121 -109 159 -144 85 -77 217 -156 496 -297
144 -73 238 -127 288 -167 73 -58 216 -152 358 -235 39 -23 102 -69 140 -102
104 -90 238 -168 660 -379 338 -170 388 -199 455 -257 84 -74 202 -145 241
-145 36 0 70 29 102 87 25 48 26 56 28 219 l2 169 -36 91 c-55 139 -79 274
-75 420 3 115 5 123 32 163 37 52 99 99 145 107 58 11 137 -12 281 -81 74 -36
139 -65 145 -65 5 0 63 -25 128 -56 113 -54 120 -56 157 -45 21 6 51 26 65 43
36 43 30 73 -37 186 -29 50 -89 152 -133 226 -66 113 -104 164 -226 298 -123
137 -162 188 -241 318 -51 85 -116 181 -144 215 -68 80 -77 100 -77 165 0 93
32 135 139 180 98 41 234 55 519 55 l220 0 64 -33 c88 -46 152 -110 196 -194
33 -63 39 -83 45 -172 9 -117 19 -146 95 -295 63 -123 122 -196 187 -231 l44
-23 81 37 c95 43 163 48 227 16 39 -18 103 -88 288 -310 71 -85 168 -166 214
-179 84 -23 204 40 240 126 28 65 19 101 -66 272 -44 90 -80 175 -80 191 0 34
57 100 86 100 38 -1 101 -39 187 -113 69 -58 123 -93 240 -153 84 -42 166 -87
183 -99 31 -24 159 -85 177 -85 6 0 40 -13 76 -29 194 -84 237 -97 496 -146
39 -8 113 -28 165 -45 130 -43 193 -59 274 -70 38 -6 90 -20 115 -31 25 -12
72 -27 104 -35 32 -8 74 -22 95 -33 42 -21 123 -45 200 -61 29 -5 67 -17 84
-26 47 -24 84 -34 173 -45 76 -9 130 -17 329 -53 49 -8 93 -13 99 -9 6 3 101
11 211 18 237 13 268 24 380 123 51 45 110 82 220 138 83 42 174 94 201 115
28 21 111 100 185 176 387 396 514 588 570 857 22 105 32 135 94 270 43 94 50
122 75 301 5 39 21 124 35 190 23 107 26 142 26 334 0 198 -23 644 -36 701 -3
14 -12 63 -21 110 -8 47 -21 121 -29 165 -8 44 -18 112 -23 150 -5 39 -17 106
-26 150 -9 44 -22 109 -29 145 -7 36 -19 85 -26 110 -20 67 -151 337 -203 418
-89 138 -93 161 -42 248 24 41 38 50 199 131 l174 86 369 9 c370 9 635 5 728
-13 55 -10 184 -73 315 -154 47 -29 106 -64 132 -79 27 -15 78 -53 114 -85
111 -99 371 -250 462 -270 56 -12 118 -40 167 -76 20 -15 51 -24 93 -29 76 -7
136 -32 203 -83 26 -21 78 -56 115 -78 36 -22 89 -55 117 -74 29 -18 73 -44
98 -57 25 -12 59 -34 75 -47 16 -13 48 -34 72 -46 24 -12 60 -37 80 -55 54
-48 160 -127 213 -158 26 -15 58 -40 71 -55 32 -37 108 -99 185 -151 34 -23
65 -47 68 -53 4 -6 30 -26 59 -45 28 -19 71 -50 96 -69 25 -19 68 -52 95 -73
28 -21 66 -48 86 -60 19 -12 44 -31 55 -43 52 -59 182 -137 264 -159 25 -7 62
-21 82 -31 21 -11 68 -31 105 -45 165 -62 191 -74 248 -108 72 -44 128 -62
259 -81 54 -9 102 -18 107 -21 5 -3 82 -6 172 -7 148 -1 168 1 227 23 36 13
76 31 90 41 14 9 42 24 62 32 77 32 143 92 184 166 85 154 116 218 131 266 8
28 25 66 36 85 45 73 85 189 112 330 7 36 27 106 45 155 43 120 54 218 54 480
0 583 -18 742 -113 1005 -11 30 -20 62 -21 71 0 9 -9 36 -19 60 -11 24 -23 69
-26 99 -13 111 -39 198 -92 304 -30 60 -58 130 -63 155 -11 57 -43 152 -64
183 -8 12 -22 50 -30 82 -15 56 -24 67 -164 210 -120 122 -155 164 -182 219
-59 120 -49 209 40 372 21 39 49 102 63 141 14 39 105 231 203 425 101 201
181 373 185 399 5 25 15 83 23 130 8 47 19 98 25 113 6 16 11 43 11 62 0 19 5
46 11 62 6 15 13 87 15 158 2 72 8 157 13 190 6 33 15 92 20 130 6 39 16 99
22 135 35 201 35 194 -16 510 -15 95 -39 388 -36 445 1 17 -3 58 -9 93 -5 34
-14 95 -20 135 -6 39 -17 97 -25 127 -7 30 -16 78 -20 105 -14 97 -49 211 -96
310 -10 22 -27 65 -38 95 -45 128 -65 169 -112 225 -28 32 -68 92 -89 134 -41
80 -104 154 -171 198 -35 23 -52 27 -142 30 -56 3 -175 1 -263 -4 l-162 -9
-118 -58 c-171 -83 -338 -185 -417 -254 -38 -32 -106 -79 -150 -103 -136 -72
-234 -148 -422 -329 -77 -74 -180 -171 -230 -215 -157 -139 -249 -229 -276
-272 -15 -22 -51 -59 -81 -81 -29 -22 -62 -49 -73 -62 -11 -12 -48 -45 -83
-72 -34 -28 -72 -68 -83 -89 -11 -22 -36 -54 -57 -73 -20 -19 -121 -111 -224
-205 -103 -94 -207 -180 -230 -192 -24 -12 -56 -33 -72 -46 -16 -13 -54 -38
-85 -54 -82 -43 -153 -88 -181 -114 -14 -12 -47 -35 -75 -50 -27 -15 -57 -33
-65 -40 -8 -8 -40 -28 -71 -47 -85 -50 -166 -109 -249 -183 -41 -37 -104 -83
-140 -102 -36 -20 -101 -57 -145 -83 -44 -26 -118 -67 -165 -91 l-85 -43 -485
-8 c-267 -4 -567 -3 -668 1 l-184 7 -145 75 c-88 45 -152 84 -164 101 -21 29
-49 101 -49 126 0 8 53 69 119 136 65 66 122 132 126 146 4 14 18 48 30 75 51
109 78 172 96 224 11 30 25 64 33 75 7 12 19 46 26 76 7 30 30 98 50 150 21
52 49 136 62 185 25 88 25 97 23 400 -2 292 -8 377 -36 490 -5 22 -14 72 -19
110 -12 90 -48 269 -81 410 -10 45 -19 93 -19 108 0 15 -4 46 -9 69 -6 24 -15
70 -21 103 -32 167 -43 204 -80 278 -22 44 -40 88 -40 98 0 10 -35 49 -77 87
-43 38 -124 111 -181 162 -56 50 -140 135 -186 189 -46 53 -126 136 -179 184
-52 48 -112 113 -133 145 -63 92 -156 194 -194 210 -19 8 -53 26 -75 41 -22
15 -80 46 -130 70 -49 23 -112 54 -140 67 -75 36 -186 81 -220 88 -16 4 -52
18 -80 31 -27 12 -72 28 -100 34 -68 14 -152 35 -260 64 -94 25 -199 45 -300
57 -33 4 -87 13 -120 19 -69 14 -134 25 -220 40 -33 5 -80 14 -105 20 -25 5
-90 10 -145 11 -55 0 -115 4 -134 10 -19 5 -143 10 -275 11 l-241 1 -110 -40
c-60 -21 -135 -51 -165 -66 -103 -49 -131 -45 -314 37 -111 49 -129 48 -282
-29 -133 -66 -164 -69 -242 -30 -72 36 -125 93 -165 173 -41 84 -60 95 -152
90 -79 -4 -133 -28 -253 -108 -100 -69 -115 -73 -161 -50 -29 15 -107 87 -112
104 0 1 -4 52 -8 114 -6 99 -10 115 -35 151 -34 49 -93 92 -127 92 -49 0 -150
-61 -238 -144 -130 -121 -233 -206 -250 -206 -31 1 -97 38 -124 69 -22 26 -27
43 -27 85 0 93 -17 157 -59 216 -54 78 -94 103 -153 96 -60 -6 -131 -43 -193
-99 -147 -131 -232 -197 -254 -197 -39 0 -110 39 -126 71 -11 20 -15 63 -15
153 l0 126 -37 42 c-21 22 -56 49 -77 59 -45 20 -65 15 -177 -41 -104 -53
-189 -112 -295 -205 -139 -122 -195 -146 -260 -106 -47 28 -214 228 -239 286
-13 28 -26 72 -30 98 -4 27 -16 54 -29 66 -30 28 -95 54 -120 47 -12 -3 -91
-74 -176 -157 -248 -241 -298 -259 -402 -139 -34 39 -57 81 -87 160 -45 116
-84 166 -153 195 -72 29 -90 23 -185 -67z"/>
</g>
</svg>
