<?xml version="1.0" standalone="no"?>
<!DOCTYPE svg PUBLIC "-//W3C//DTD SVG 20010904//EN"
 "http://www.w3.org/TR/2001/REC-SVG-20010904/DTD/svg10.dtd">
<svg version="1.0" xmlns="http://www.w3.org/2000/svg"
 width="341.000000pt" height="600.000000pt" viewBox="0 0 341.000000 600.000000"
 preserveAspectRatio="xMidYMid meet">
<metadata>
Created by potrace 1.16, written by Peter Selinger 2001-2019
</metadata>
<g transform="translate(0.000000,600.000000) scale(0.100000,-0.100000)"
fill="#000000" stroke="none">
<path d="M1967 5917 c-7 -89 -30 -173 -55 -197 -13 -13 -14 -12 -9 10 3 14 8
63 11 110 6 96 -1 81 -34 -65 -10 -44 -29 -117 -43 -163 -41 -130 -75 -317
-81 -438 -3 -60 -10 -123 -16 -138 -6 -16 -6 -34 -1 -44 5 -9 11 -87 15 -172
10 -241 12 -264 26 -290 15 -28 16 -614 2 -1675 -4 -319 -6 -635 -5 -702 2
-120 -8 -160 -22 -85 -9 51 -59 285 -100 467 -30 134 -163 548 -181 564 -4 3
-4 -3 0 -14 20 -54 48 -199 71 -370 78 -579 94 -656 166 -836 71 -177 69 -156
69 -661 0 -284 -4 -458 -10 -458 -5 0 -12 17 -16 38 -66 381 -200 894 -326
1247 -27 77 -72 203 -98 280 -62 181 -186 511 -207 550 -15 29 -71 178 -160
425 -39 110 -44 131 -38 177 5 38 0 77 -15 140 -12 49 -25 93 -29 98 -3 6 -11
28 -17 50 -28 100 -87 317 -104 382 -10 40 -37 110 -60 157 -38 81 -58 109
-47 67 3 -13 1 -18 -8 -14 -7 2 -19 26 -25 53 -6 27 -18 57 -26 67 -14 16 -15
11 -10 -52 3 -38 8 -82 12 -97 4 -18 2 -28 -5 -28 -6 0 -11 11 -11 24 0 14 -4
28 -10 31 -12 8 -12 1 0 -51 5 -22 12 -71 15 -108 3 -39 14 -85 27 -109 25
-49 78 -229 78 -264 0 -14 6 -37 14 -51 8 -15 28 -56 44 -92 84 -184 106 -227
128 -245 16 -14 42 -73 84 -196 33 -97 60 -179 60 -184 0 -4 -30 32 -67 81
-94 125 -256 286 -320 318 -76 38 -128 35 -186 -9 -76 -58 -107 -130 -157
-360 -48 -221 -86 -321 -188 -494 -47 -80 -52 -110 -6 -36 16 25 45 67 65 93
50 65 200 336 238 430 17 42 50 133 74 202 55 161 58 161 170 48 45 -46 129
-139 187 -208 57 -69 144 -165 193 -213 76 -76 94 -100 124 -170 72 -168 259
-694 250 -704 -2 -1 -53 46 -113 105 -110 107 -131 139 -163 242 -9 31 -10 27
-7 -36 6 -129 56 -206 217 -335 48 -38 97 -85 108 -103 21 -33 89 -269 166
-571 51 -202 118 -534 140 -695 8 -63 17 -132 20 -152 3 -22 1 -38 -5 -38 -5
0 -10 5 -10 11 0 6 -25 74 -56 152 -31 77 -76 197 -100 266 -43 127 -101 248
-129 271 -10 8 -15 9 -15 2 0 -29 58 -192 115 -322 35 -80 77 -191 95 -248 17
-57 47 -138 66 -179 l34 -75 0 -164 0 -164 35 0 c28 0 35 4 35 19 0 11 24 66
54 123 31 60 67 148 85 211 17 59 51 148 76 197 25 50 42 90 37 90 -21 0 -171
-255 -193 -330 -18 -60 -32 -50 -24 18 13 108 66 376 111 562 l45 185 48 50
c45 47 121 145 188 245 17 25 59 76 94 114 74 81 55 74 -51 -16 -80 -69 -125
-119 -185 -210 -33 -50 -55 -71 -55 -52 0 3 25 86 55 185 83 267 203 599 233
643 14 21 70 80 123 130 53 50 150 154 216 231 114 133 149 166 200 194 20 10
24 8 37 -16 7 -16 31 -80 51 -143 21 -63 52 -149 70 -191 37 -87 159 -305 219
-392 23 -33 50 -74 61 -92 25 -41 47 -67 52 -62 2 2 -14 33 -35 68 -102 167
-144 276 -196 504 -57 249 -83 309 -158 364 -72 53 -142 43 -250 -36 -51 -37
-211 -213 -283 -311 -26 -35 -49 -62 -51 -59 -3 3 20 90 51 194 42 139 63 193
80 208 12 11 40 58 60 105 20 47 46 105 57 129 57 128 133 406 144 526 1 17 7
54 13 84 13 66 14 71 1 71 -5 0 -10 -9 -10 -20 0 -29 -17 -25 -22 5 -5 23 2
80 17 143 11 47 -12 19 -30 -35 -11 -34 -20 -51 -23 -40 -2 9 -7 17 -11 17
-18 0 -83 -177 -110 -300 -11 -52 -34 -153 -52 -225 -17 -71 -34 -143 -36
-160 -3 -16 -9 -35 -14 -40 -18 -23 -39 -161 -33 -216 5 -48 0 -75 -35 -190
-41 -134 -57 -181 -231 -679 -50 -146 -98 -285 -104 -310 -7 -25 -36 -119 -64
-210 -85 -280 -162 -594 -197 -815 -21 -132 -25 -148 -32 -141 -3 3 -5 167 -4
363 2 339 4 358 22 385 70 98 133 402 194 936 8 70 17 144 21 165 4 24 2 37
-5 37 -6 0 -11 -11 -11 -24 0 -50 -147 -671 -174 -737 -8 -19 -17 -55 -21 -81
-19 -124 -26 -27 -41 537 l-7 230 33 145 c38 170 109 464 139 569 11 41 28
151 36 245 9 94 18 179 21 189 3 9 1 17 -4 17 -10 0 -71 -245 -107 -430 -23
-121 -88 -366 -99 -378 -12 -11 -6 909 5 931 7 12 43 70 81 129 98 151 162
314 242 620 28 109 51 168 64 168 13 0 53 -47 107 -125 79 -114 148 -195 237
-280 136 -131 167 -159 173 -154 2 3 -28 56 -68 117 -39 62 -108 173 -152 248
-81 139 -157 229 -201 240 -45 11 -189 -6 -223 -27 -59 -36 -136 -240 -167
-444 -18 -117 -72 -346 -85 -359 -5 -6 -9 177 -9 432 0 363 3 449 14 477 8 19
11 37 6 40 -10 6 9 74 27 96 7 8 13 35 13 60 0 24 5 62 9 84 5 22 12 64 15 93
3 29 8 57 11 62 3 5 8 33 11 62 2 29 11 94 19 145 8 50 19 144 25 209 9 100
34 232 56 288 3 9 2 16 -3 16 -5 0 -15 -24 -23 -52 -20 -74 -25 -32 -6 50 21
95 31 255 18 278 -10 16 -11 12 -12 -24 0 -61 -21 -182 -31 -182 -12 0 -11 6
6 135 17 126 19 175 6 175 -4 0 -11 -37 -14 -83z"/>
<path d="M2435 1570 c-3 -5 -2 -10 4 -10 5 0 13 5 16 10 3 6 2 10 -4 10 -5 0
-13 -4 -16 -10z"/>
<path d="M2114 685 c-10 -8 -14 -15 -8 -15 6 0 17 7 24 15 16 19 9 19 -16 0z"/>
</g>
</svg>
