<?xml version="1.0" encoding="UTF-8" standalone="no"?>
<!-- Created with Inkscape (http://www.inkscape.org/) -->

<svg
   width="45.988728mm"
   height="51.583557mm"
   viewBox="0 0 45.988728 51.583557"
   version="1.1"
   id="svg2374"
   xmlns="http://www.w3.org/2000/svg"
   xmlns:svg="http://www.w3.org/2000/svg">
  <defs
     id="defs2371" />
  <g
     id="layer1"
     transform="translate(-9.3622858,-11.820451)">
    <g
       id="g295"
       transform="matrix(0.19600322,0,0,-0.19600322,34.337085,34.103881)">
      <path
         d="M 0,0 C 5.975,-6.963 16.604,-11.065 25.616,-11.772 28.63,-12.01 47.962,-9.713 45.893,-4.47 45.029,-2.283 26.238,0.672 22.562,2.313 14.767,5.795 8.333,9.871 5.888,18.321 17.403,11.027 35.991,-4.745 49.528,8.436 c 7.556,7.357 -8.506,7.964 -13.891,10.369 -4.441,1.982 -17.679,9.425 -15.989,15.23 7.611,-8.467 26.216,-17.253 36.697,-9.543 9.536,7.017 -1.559,7.606 -7.181,9.41 -7.057,2.266 -12.84,7.187 -15.845,14.039 5.964,-2.731 11.274,-6.897 17.715,-8.587 6.401,-1.678 16.859,0.63 20.017,7.332 -10.441,4.1 -18.579,1.353 -24.699,13.682 6.396,-2.518 12.75,-5.745 19.824,-4.361 4.521,0.884 12.259,5.746 13.173,10.535 -8.19,-1.057 -15.801,-6.717 -21.625,3.274 5.843,-2.941 13.126,-5.273 19.399,-2.127 2.558,1.283 4.571,3.47 6.778,5.001 2.848,1.975 5.351,2.693 7.311,5.986 -3.652,0.307 -11.943,-1.143 -12.385,4.192 2.915,-1.28 9.644,-3.507 12.564,-0.851 4.415,4.014 -3.688,3.088 -3.746,6.865 7.451,-2.299 12.573,0.629 5.511,6.505 5.176,-1.089 5.288,5.264 7.757,8.387 2.91,3.682 9.637,5.708 4.305,8.842 -4.979,2.925 -10.587,-0.776 -14.541,-3.402 -3.823,-2.539 -6.619,-2.991 -7.605,-8.281 -0.944,2.98 -3.192,5.635 -6.12,3.046 -2.341,3.149 -6.981,-4.049 -7.824,-6.88 -1.159,-3.898 -0.41,-7.553 1.096,-11.186 -0.232,-0.109 -0.462,-0.22 -0.694,-0.329 -3.107,3.647 -1.814,8.474 -1.267,12.802 -5.256,-3.95 -12.941,-12.805 -7.951,-19.693 -8.185,0.146 -4.55,15.011 -0.87,18.026 -6.163,1.31 -11.968,-4.175 -13.525,-9.583 -0.645,-2.237 1.668,-16.287 2.026,-15.928 -2.543,-2.548 -8.697,9.604 -9.029,11.244 -1.032,5.105 0.718,8.269 4.012,11.252 -8.202,2.142 -14.242,-8.169 -14.327,-14.691 -0.1,-7.545 3.249,-12.603 7.023,-18.734 -5.613,2.145 -10.651,8.747 -11.71,14.623 -0.954,5.289 4.391,16.742 -5.067,7.909 C 7.319,72.047 15.471,57.613 23.877,48.137 14.217,52.615 2.345,66.532 4.31,78.049 -4.853,77.179 -5.509,62.852 -3.621,56.365 -1.285,48.343 5.104,41.879 9.832,35.263 2.977,38.247 -2.94,42.978 -6.158,50.047 c -2.902,6.374 -1.618,14.48 -4.248,20.432 -7.223,-6.674 -11.18,-15.738 -8.49,-25.668 2.384,-8.804 12.417,-15.229 13.807,-23.884 -9.242,2.307 -15.194,8.443 -19.404,17.047 -0.814,1.663 -5.399,19.859 -5.41,19.856 -2.68,-0.672 -6.782,-8.869 -7.618,-11.264 -1.692,-4.843 -0.832,-10.299 0.685,-15.052 0.955,-2.994 17.92,-24.443 17.967,-24.366 -1.237,-2.064 -11.517,6.109 -12.475,7.208 -3.037,3.486 -4.409,8.187 -5.718,12.569 -1.383,4.634 -2.081,9.224 -2.584,13.967 -0.707,6.671 -1.535,10.051 -6.033,2.89 -5.535,-8.814 -7.489,-18.924 -3.735,-28.821 0.954,-2.516 17.184,-19.027 16.846,-19.591 -1.911,-3.189 -10.911,6.435 -11.67,7.613 -2.705,4.202 -4.389,9.258 -6.298,13.86 -1.692,4.078 -3.981,7.684 -5.961,11.629 -2.107,4.198 -2.994,11.99 -6.334,15.011 -6.194,-8.508 -5.55,-24.313 -2.215,-33.691 4.182,-11.758 11.317,-20.792 20.551,-28.938 -13.854,3.534 -16.917,14.643 -20.986,26.89 -1.691,5.089 -2.207,9.686 -2.853,14.953 -0.691,5.629 -1.767,8.542 -5.778,3.099 -7.481,-10.152 -8.743,-21.16 -3.336,-32.398 2.421,-5.03 5.066,-10.162 8.637,-14.486 1.148,-1.39 7.699,-10.044 8.645,-10.332 -11.783,3.574 -18.082,15.458 -24.136,25.056 -5.34,8.468 -13.611,18.477 -15.255,1.849 -2.047,-20.72 15.815,-30.675 29.237,-41.987 -9.828,1.346 -18.457,12.255 -23.938,19.907 -3.794,5.297 -11.962,20.824 -17.222,8.698 -3.416,-7.872 -0.488,-18.624 5.792,-24.166 6.198,-5.471 12.012,-12.528 18.948,-16.821 -7.619,0.43 -16.974,8.394 -22.489,13.227 -6.475,5.674 -16.031,13.357 -18.047,-0.527 -1.575,-10.836 10.088,-17.637 17.944,-22.665 2.84,-1.816 6.447,-4.429 9.553,-5.685 3.043,-1.231 8.158,-0.414 10.037,-2.725 -8.035,-3.022 -28.685,11.134 -31.146,-3.497 -1.797,-10.684 16.719,-19.727 25.579,-19.094 -5.089,-9.117 -11.064,-13.869 -11.165,-25.019 -0.046,-5.209 0.758,-9.752 1.675,-14.932 1.339,-7.558 0.561,-7.845 8.027,-9.687 -0.925,9.209 -6.414,19.716 -3.904,28.945 1.809,6.653 11.316,22.812 18.48,22.314 -1.727,-3.269 -4.393,-5.966 -2.889,-9.617 1.767,-4.286 6.981,-3.758 9.925,-6.764 2.62,-2.677 1.199,-5.718 3.19,-8.432 1.962,-2.673 6.492,-2.92 9.445,-3.652 8.655,-2.148 14.303,-2.265 14.179,8.256 -0.028,2.393 -2.577,2.236 -1.059,3.936 1.207,1.354 3.982,0.207 5.391,0.393 3.236,0.427 6.517,1.117 9.601,2.394 -2.559,4.306 -6.733,8.33 -10.272,11.865 5.159,-1.027 14.502,-2.449 14.179,5.222 -0.334,7.898 -11.209,13.215 -16.038,17.549 -1.921,1.724 -12.085,11.094 -9.082,12.835 2.574,1.493 9.33,-6.68 10.733,-7.984 3.21,-2.981 4.539,-3.498 9.239,-4.376 6.092,-1.136 11.3,-2.62 17.488,-1.636 1.266,0.2 7.629,0.576 8.094,2.591 0.376,1.634 -5.975,7.135 -7.209,8.276 -7.976,7.361 -31.903,13.234 -30.962,26.017 8.669,-8.438 17.204,-15.219 29.413,-17.624 5.019,-0.99 26.398,-0.195 28.132,6.109 1.028,3.736 -20.414,10.303 -24.332,11.522 -7.308,2.276 -24.956,3.647 -20.731,15.231 7.51,-7.257 14.595,-12.151 24.907,-14.682 8.644,-2.122 21.688,-3.625 29.216,2.765 4.649,3.944 0.396,4.898 -4.427,7.217 -4.819,2.315 -9.989,3.701 -15.07,5.304 -8.76,2.766 -21.915,3.999 -22.546,15.62 9.16,-3.073 16.113,-11.135 25.361,-14.697 9.371,-3.609 22.07,-1.537 30.675,3.59 5.765,3.434 3.45,5.228 -2.596,6.025 -5.48,0.723 -9.727,1.25 -15.196,3.023 C 4.433,-8.67 -5.639,-6.959 -9.152,4.615 -6.826,3.479 -1.685,1.964 0,0"
         style="fill:#231f20;fill-opacity:1;fill-rule:nonzero;stroke:none"
         id="path297" />
    </g>
  </g>
</svg>
