<?xml version="1.0" encoding="UTF-8" standalone="no"?>
<!-- Created with Inkscape (http://www.inkscape.org/) -->

<svg
   version="1.1"
   width="269.44983"
   height="314.39999"
   viewBox="0 0 269.44982 314.39999"
   id="Layer_1"
   xml:space="preserve"
   xmlns="http://www.w3.org/2000/svg"
   xmlns:svg="http://www.w3.org/2000/svg"><defs
   id="defs7" />
<path
   d="m 268.81676,159.9 c -1.9,0.2 -3.8,0.3 -5.6,0.6 -1.7,0.2 -3.4,1 -5.1,1 -0.8,0 -1,-0.2 -1.8,-0.5 -1.1,-0.4 -1.4,-0.2 -2.6,0.1 -1.7,0.4 -3.4,0.1 -5.2,-0.2 -1.7,-0.4 -3.3,-1.4 -5,-1.8 -1.8,-0.4 -3.9,-0.2 -5.7,-0.1 -1.2,0 -4,0.6 -5.1,0.1 -1.5,-0.8 -2.2,-3.4 -3.6,-4.4 -1.9,-1.4 -7.4,-2.1 -9.7,-1.3 -1.2,0.4 -2.7,2.8 -4,2.8 -0.7,0 -1.4,-1.2 -2,-1.4 -0.8,-0.3 -0.3,-0.2 -1.2,-0.1 -2,0.3 -4.2,1.7 -6.1,2.4 -1,0.4 -3.2,1.8 -4.3,1.7 -1,-0.2 -2.9,-2.2 -3.4,-3.1 -0.7,-1.2 -1.2,-2.9 -1.4,-4.3 -0.4,-2.4 -0.1,-5 -0.7,-7.4 -0.4,-1.5 -1.7,-1.7 -2.4,-3.1 -1.8,-3.3 -0.9,-7.7 -0.9,-11.2 -3.9,0.9 -8,3.5 -11.2,5.9 -1.5,1.1 -2.5,2.8 -3.7,4.2 -0.4,0.5 -0.9,1.1 -1.4,1.6 -1,1 -1.2,1.4 -2.3,0.9 -1.4,-0.6 -0.7,-1 -2.4,-0.3 -0.8,0.3 -1.6,0.6 -2.4,1 -0.9,0.5 -2.3,1 -3,1.8 -0.6,0.7 -0.4,2.1 -1,2.8 -1.1,1.1 -3.1,-0.3 -4.7,-0.1 -1.6,0.2 -4.1,1.7 -5.1,2.8 -0.7,0.9 -1,2.4 -1.9,3.1 -0.7,0.7 -2,0.4 -2.8,1 -1.3,1 -1.9,3.9 -2.8,5.4 -0.5,0.8 -1.2,1.5 -1.8,2.3 -0.4,0.5 -1.4,2.5 -2.1,2.7 -1.7,0.6 -4.4,-1.5 -6.2,-1.2 -1.3,0.2 -3.6,2.5 -4.5,3.5 -1.1,1.2 -1.6,3.3 -2.9,4.3 -0.7,0.5 -1.6,0.5 -2.1,1.1 -0.7,0.9 -0.6,3.2 -1.5,3.8 -0.5,0.3 -1.1,-0.1 -1.9,-0.4 -1.5,-0.6 -1.5,-0.2 -1.5,-1.5 0,-0.9 0.6,-1.9 0.8,-2.9 0.2,-1.5 0.1,-3.1 0.2,-4.6 0,-0.7 0.4,-2.4 0.1,-3 -0.3,-0.7 -1.7,-0.8 -2,-1.6 -0.3,-0.7 0.1,-2.3 0.1,-3 0,-1.7 0.1,-3.4 0.1,-5.1 0.1,-2.2 0.6,-4.3 -0.6,-6.2 -2.6,2.4 -5.1,5.1 -7.9,7.3 -1.5,1.2 -2.9,0.4 -4.6,1 -1.6,0.6 -2.7,2.4 -4.2,3.1 -1.7,0.8 -3.9,1.2 -5.7,1.7 -1.300003,0.3 -3.400003,0.4 -4.400003,1.2 -1.5,1.2 -2.5,3.4 -4,4.8 -1.4,1.3 -2.7,2.7 -3.9,4.1 -1.1,1.3 -2.2,2.5 -4,1.8 -1.6,-0.6 -2.5,-3.4 -3.8,-3.8 -1.3,-0.3 -3.1,1.4 -3.9,2.1 -1.4,1.1 -3.2,2.1 -4.5,3.4 -2.1,2.1 -4.7,6 -5.5,8.8 -0.9,3.5 -1.3,7.2 -2.5,10.6 -0.8,2.1 -2.6,4.4 -2.9,6.6 -0.2,1.6 0.7,3.8 1,5.4 0.3,1.8 0.1,4 0.7,5.7 0.6,1.5 2.5,2.8 3.7,3.9 -0.7,0.2 -1.4,0.4 -2.1,0.6 1.7,2.5 3.3,4.6 5.5,6.7 1,0.9 1.9,2.2 3,3 1.2,0.8 2.9,1.3 4.2,1.9 -4.2,5.5 -8.3,11.1 -12.5,16.6 -3.1,4.1 -6.2,8 -8.7,12.5 -1.9,3.4 -3.7,7 -5.8,10.3 -1.5,2.3 -3.8,4 -5.5,6.2 -0.6,0.8 -1,1.6 -1.4,2.6 -0.6,1.4 -1.5,4.8 -2.7,5.7 -2.1,1.6 -1.9,-5.9 -1.9,-6.9 0.2,-6.1 1,-12.2 1.6,-18.2 0.5,-5.5 0.7,-11 1.5,-16.4 1.9,-12.9 4.5,-25.6 7.4,-38.3 3,-13 7,-25.8 10.7,-38.7 5.1,1.9 9.7,3.7 15.3,2.6 2.3,-0.4 4.3,-1.9 6.6,-2.4 2.5,-0.5 5.3,-0.6 7.6,-1.5 2.7,-1.1 5.4,-2.9 8,-4.4 2.2,-1.2 4.700003,-2.3 6.800003,-3.7 4.2,-2.9 8.2,-6.5 11.4,-10.5 3.2,-4 7,-8.2 8.8,-13 0.3,-0.7 0.9,-1.8 1,-2.5 0,-0.6 -0.3,-0.8 -0.3,-1.4 -0.1,-1.1 0.4,-1.4 1.1,-2.4 1.8,-2.4 3.9,-4.8 5.5,-7.3 1.3,-2.2 2.7,-4.9 3.5,-7.2 0.3,-1 0.8,-2.5 0.8,-3.5 0,-1.5 -1.8,-2 -2.1,-3.4 -0.2,-0.9 0.9,-2.2 1.5,-3 1.2,-1.9 0.2,-1.1 -0.6,-3 -0.2,-0.6 -0.4,-3 0,-3.3 0.8,-0.7 2.9,0.1 3.6,-0.6 0.7,-0.9 0.6,-4.2 0.8,-5.3 0.2,-1.2 0.6,-2.6 0.2,-3.6 -0.7,-1.6 -1.5,-1.3 -1.1,-3 0.4,-1.9 1.3,-3.8 1.9,-5.6 0.3,-1 1.2,-2.6 1.2,-3.6 0,-1.7 -0.7,-2.6 -0.2,-4.4 1.1,-3.5 1.8,-7.1 2.7,-10.6 -5,0 -9.9,2.9 -14.5,4.8 0,-0.7 0,-1.3 0,-2 -3.1,1.5 -6.2,3 -9.3,4.5 -0.7,0.4 -2,1.3 -2.8,1.2 -0.7,0 -1.6,-1.1 -2.3,-1.4 -0.6,-0.2 -1.4,-0.3 -2,-0.4 -1.1,-0.2 -2.9,-0.2 -3.7,-1 -1,-1.1 -1.5,-4.3 -2,-5.7 -0.4,-1.1 -1,-2.4 -1.2,-3.5 -0.2,-1.5 0.1,-3 0,-4.5 -0.2,-1.5 -0.6,-3 -0.9,-4.4 -0.3,-1.4 -0.3,-3.8 -1,-5 -0.6,-0.9 -2.2,-1.5 -3,-2.3 -1.000003,-0.9 -2.100003,-2.1 -2.800003,-3.2 -1.6,-2.5 -2.7,-5.7 -3.5,-8.6 -0.3,-1.2 -0.4,-3.6 -1.2,-4.7 -0.8,-1.1 -2.7,-1.3 -3.5,-2.3 -1.2,-1.4 -1.7,-4 -2.5,-5.6 -0.8,-1.6 -2.1,-2.2 -3.2,-3.6 -1.9,-2.4 -2.8,-6.2 -4,-9 -1.2,2 -2.4,4 -3.6,6 -1.4,2.2 -3.4,3.6 -5.4,5.3 -1.9,1.5 -2.7,3.8 -3.8,6 -1.1,2.1 -2.7,3.3 -4.4,5 -1.8,1.9 -3.5,3.9 -5.3,5.8 -0.4,0.5 -1,1.3 -1.6,1.7 -1.3,0.7 -3.1,0.4 -4.3,1.1 -1.9,1 -2.3,4.6 -3.4,6.5 -0.8,1.4 -2,2.5 -2.7,4 -2.5,5.6 -4.9,11.3 -7.3,16.9 -1.7,-1.3 -3.8,-3.5 -5.9,-4 -2.4,-0.6 -6.1,0.8 -8.2,-0.4 -0.9,-0.5 -1.9,-2.4 -2.6,-3.2 -1,-1.2 -1.9,-2.9 -3.1,-3.9 -1.6,-1.4 -3.7,-1.1 -5.1,-3 -1,-1.4 -1.9,-2.7 -2.9,-4.1 -0.6,-0.9 -1.7,-3.2 -2.7,-3.8 -2.6,-1.6 -2.8,2.2 -3.2,3.9 -0.7,2.7 -1.7,5.3 -2.2,8.1 -0.6,3.1 -0.2,5.6 0.3,8.7 0.2,1.1 0.2,1.6 0,2.6 -0.4,1.6 -1.69999996,3.2 -1.89999996,4.8 -0.1,1.2 0.1,1.3 0.89999996,2.5 1.1,1.6 1.7,1.8 1,3.6 -0.9,2.6 0.3,5.6 0.7,8.2 0.5,2.7 -2.3,3.2 -2.99999996,5.6 -0.6,2.1 -0.3,5.4 0.5,7.4 0.99999996,2.6 2.89999996,5.4 3.49999996,8.1 0.3,1.3 -0.4,2.9 0,4.2 0.3,1.1 1.8,1.9 2.2,3 0.8,2.1 -0.5,4 0.8,6 2,3.1 4.9,6.4 6.2,9.8 0.5,1.3 0.2,1.1 -0.9,2.3 -1.2,1.3 -1.8,1.4 -1.5,3.1 0.4,1.8 1.3,3.4 1.6,5.2 0.2,0.9 -0.3,2.4 0.1,3.2 0.6,1.1 2.6,2.3 3.5,3.1 1.2,1 2.3,2.1 3.5,3.1 -0.6,0 -1.2,0 -1.8,0 2.3,2.2 4.7,4.5 7,6.8 -0.7,0 -1.3,0 -2,0 2.3,2.2 4.1,4.1 6.9,5.4 2.7,1.3 5.5,2.7 8.2,4 5.7,2.8 11.1,4.8 17.6,4.8 -2.3,9.3 -5.2,18.4 -7.3,27.7 -2.6,11.2 -5,22.7 -6.8,34 -1.6,9.9 -2.4,20 -3.5,29.9 -1.2,10.4 -2.1,20.9 -2.9,31.3 -0.4,4.9 -5.1,8.8 -7.2,13.2 -1.4,3 -2.3,6.3 -3.5,9.4 -0.2,0.7 -1.7,3.2 -1.4,3.9 0.2,0.6 2.7,1.3 3.3,1.6 1.3,-4 2.6,-7.7 4.8,-11.4 2.3,-3.9 4.7,-7.8 6.8,-11.7 2.3,-4.2 4.5,-8.3 7,-12.4 1.1,-1.7 2,-4 3.4,-5.5 1.4,-1.6 3.6,-2.7 5.2,-4 7,-5.5 15.4,-8.9 23.4,-12.7 7.3,-3.5 14.3,-7.4 21.2,-11.6 6.200003,-3.7 12.500003,-7.5 18.700003,-11.2 3.5,-2.1 6.9,-4.3 10.6,-5.8 1.1,3 2.4,5.5 4,8.2 2,3.5 3.7,7.6 6.1,10.7 1.8,2.3 5.2,3.9 7.6,5.6 1.1,0.7 2,1.5 3.2,2 0.6,0.3 2.5,1.2 3.1,1.1 0.6,-0.2 0.6,-0.9 0.9,-1.6 3.2,1.4 6.1,3 9.4,4 0.7,0.2 2.2,1 2.9,0.9 0.7,-0.1 0.4,-0.3 1.2,-0.7 1.3,-0.8 0.1,-0.7 1.3,-0.5 0.8,0.1 2.1,1.2 2.8,1.6 2.9,1.6 5.6,1.8 9,2.1 1.4,0.1 3,0.6 4.2,-0.2 1.4,-0.9 0.7,-2.2 0.5,-3.8 2.8,1 5.7,2.3 8.7,2.3 2.8,0 5.2,-0.8 7.8,-1.8 2.4,-0.9 5.1,-1 7.7,-1.3 1.2,-0.1 1.8,-0.1 2.7,-0.9 1.2,-1.1 0.6,-1.9 0.2,-3.6 2.5,-0.4 4.9,-0.8 7.4,-1.3 1.1,-0.2 2.1,-0.4 3.2,-0.7 0.8,-0.2 3.5,-0.7 4,-1.3 0.4,-0.5 -0.4,-1.2 -0.1,-1.8 0.3,-0.5 2.4,-1.1 2.8,-1.3 2.9,-1.4 5.9,-2.8 8.8,-4.2 1.5,-0.7 3.3,-1.4 2.7,-3.6 -0.7,-2.6 -3.1,-3.9 -5.3,-4.7 -2.2,-0.9 -3.9,-2.6 -5.8,-4.1 -0.8,-0.6 -1.8,-1.2 -2.6,-2 -1.2,-1.2 -0.6,-1.2 -0.6,-3 0,-1.2 -0.4,-1.8 -0.9,-3 -0.7,-1.6 -0.2,-1.4 1.2,-2.3 2,-1.3 3.9,-2.8 5.8,-4.4 0.5,-0.4 2.5,-1.5 2.7,-2.2 0.2,-0.9 -1.2,-1.5 -0.6,-2.3 0.4,-0.6 2,-1.1 2.7,-1.5 1.1,-0.6 2.3,-1.2 3.4,-2 0.9,-0.6 1.6,-1.5 2.4,-2.3 0.9,-0.8 2.5,-1.9 3.1,-3 0.5,-0.9 0.1,-2.3 -0.1,-3.2 -0.2,-0.7 -1.6,-2.4 -1.4,-3.1 0.2,-0.7 2.2,-2 2.8,-2.5 0.8,-0.7 1.7,-1.5 2.5,-2.2 1.7,-1.4 4,-3.6 4.7,-5.7 0.3,-1 -0.5,-2.1 -0.2,-3 0.3,-1 2.4,-2.4 3.1,-3.1 0.8,-0.8 1.8,-1.5 2.4,-2.4 0.7,-0.9 1,-2.1 1.7,-3 1.6,-2.2 3.7,-4.2 5.5,-6.3 0.8,-1 2,-2 2.6,-3.1 1.2,-1.9 0.7,-2.2 0.1,-3.7 z m -147.3,68 c -9,5.3 -18,10.6 -27.000003,16 -4.4,2.7 -8.7,5.3 -13.1,8 -4.5,2.8 -9.5,4.4 -14.3,6.6 -2.2,1 -4.2,2.3 -6.3,3.5 -0.8,0.4 -5.5,3.4 -4.8,0.4 0.3,-1.2 2.4,-2.5 3.2,-3.5 0.8,-1.2 0.7,-2.1 1.1,-3.5 0.6,-2.3 2.4,-4.4 3.8,-6.3 3.4,-4.5 6.3,-9.4 9.8,-13.9 0.4,-0.5 0.8,-1 1.2,-1.4 1,-1.1 2.4,-3.4 3.7,-4.1 0.3,-0.1 0.3,-0.5 0.6,-0.5 0.3,0 1.4,1.1 1.6,1.3 1,0.8 2,1.6 3.1,2.3 1.4,0.9 2.1,1.5 3.7,1.7 1.3,0.1 2.7,0.3 4,0.5 0.8,0.1 1.9,0.6 2.7,0.5 0.8,-0.1 0.8,-0.7 1.5,-1.1 1.2,-0.8 2.8,-0.4 4.300003,-0.4 0.9,0 3.1,0 3.7,-0.6 0.4,-0.4 -0.1,-1.1 0.2,-1.5 0.2,-0.3 1,-0.3 1.5,-0.3 1.9,-0.2 2.6,0.2 3.5,-1.4 0.9,-1.7 0.8,-2.2 0.3,-3.9 2.2,-0.6 3.5,-2.2 5.5,-3.2 0.6,-0.3 1.6,-0.5 2,-1 0.9,-1.1 0.3,-1.2 -0.7,-2.1 2.3,-0.7 3.5,-1.2 5.4,-2.8 1.1,2.5 1.8,6.3 4.1,7.8 -1.4,1 -2.8,1.9 -4.3,2.9 z"
   id="path3" />
</svg>
