<?xml version="1.0" encoding="UTF-8" standalone="no"?>
<svg
   width="278.05563"
   height="859.74292"
   viewBox="0 0 278.05563 859.74292"
   version="1.1"
   id="svg4"
   xmlns="http://www.w3.org/2000/svg"
   xmlns:svg="http://www.w3.org/2000/svg">
  <defs
     id="defs8" />
  <path
     d="m 97.994889,0.68587027 c -4.459,1.07000003 -14,10.96899973 -14,14.52599973 0,3.611 4.123,5.776 12.23,6.421 6.791001,0.539 7.047001,0.659 9.129001,4.26 2.12,3.67 2.122,3.72 0.18,5.142 -1.923,1.407 -1.905,1.517 0.898,5.562 3.214,4.637 4.509,12.456 2.641,15.945 -1.516,2.833 -3.078,2.732 -3.078,-0.199 0,-1.29 -0.907,-3.165 -2.015,-4.168 -1.108,-1.003 -3.245,-3.772 -4.750001,-6.153 -1.504,-2.382 -3.41,-4.331 -4.235,-4.332 -2.548,-0.003 -9.998,7.53 -10.022,10.132 -0.022,2.342 -3.439,10.866 -4.356,10.866 -0.261,0 -1.902,-2.494 -3.646,-5.543 -2.386,-4.17 -3.004,-6.213 -2.496,-8.25 0.989,-3.964 3.324,-6.092 7.407,-6.751 7.398,-1.194 8.113,-1.876 8.113,-7.735 0,-6.111 -1.147,-7.721 -5.5,-7.721 -3.492,0 -5.5,-1.533 -5.5,-4.2 0,-1.972 -4.383,-2.608 -5.501,-0.798 -0.357,0.577 -2.292,0.735 -4.559,0.372 l -3.94,-0.63 v 4.147 c 0,3.959 -0.117,4.118 -2.58,3.499 -1.818,-0.456 -3.432,-0.018 -5.46,1.481 -3.477,2.571 -3.98,2.598 -7.774,0.421 -2.452,-1.407 -3.436,-1.499 -5.581,-0.522 -3.268,1.489 -3.454,5.162 -0.467,9.203 l 2.139,2.893 -2.139,3.624 c -3.546,6.01 -2.425,10.51 2.619,10.51 2.235,0 2.276,0.114 0.8,2.223 -2.022,2.885 -2.008,7.39 0.025,8.17 0.87,0.334 3.779,0.607 6.465,0.607 4.042,0 5.496,-0.538 8.437,-3.12 l 3.553,-3.12 3.482,3.691 c 1.914,2.03 3.481,4.316 3.481,5.079 0,0.764 2.025,5.324 4.5,10.134 4.983,9.683 4.903,9.346 3.46,14.541 -0.697,2.509 -1.476,3.534 -2.414,3.174 -0.761,-0.292 -2.433,0.134 -3.715,0.947 -1.282,0.813 -3.837,1.792 -5.679,2.177 -3.081,0.643 -3.31,0.949 -2.882,3.848 0.255,1.732 1.486,5.447 2.735,8.256 3.013,6.776 2.266,11.624 -2.068,13.419 -3.794,1.572 -4.937,3.7 -4.937,9.197 0,2.394 -0.801,6.629 -1.781,9.411 l -1.781,5.057 -3.309,-4.311 c -4.619,-6.017 -7.134,-11.275 -7.099,-14.841 0.026,-2.548 0.195,-2.756 1.05,-1.289 2.374,4.076 7.46,0.881 6.712,-4.217 -0.34,-2.313 -0.156,-2.75 0.819,-1.941 0.692,0.575 2.75,0.901 4.574,0.726 4.664,-0.447 5.164,-4.623 1.045,-8.741 l -2.904,-2.905 2.25,-1.025 c 3.162,-1.44 4.023,-4.827 1.841,-7.238 -1.3,-1.437 -2.963,-1.915 -6.34,-1.823 -2.517,0.068 -5.882,-0.213 -7.478,-0.626 l -2.901,-0.751 0.663,4.146 0.663,4.145 -4.762,0.022 c -4.975,0.023 -8.426,1.926 -9.613,5.3 -1.025,2.911 1.023,5.52 4.602,5.865 2.598,0.25 3.319,0.814 3.6,2.813 0.193,1.375 0.813,2.787 1.378,3.138 1.123,0.698 0.191,2.862 -1.233,2.862 -0.487,0 -3.1,-2.25 -5.807,-5 -4.43,-4.5 -5.362,-5 -9.333,-5 -4.967,0 -8.856,2.187 -8.856,4.98 0,2.583 4.351,7.508 7.949,8.999 2.213,0.916 3.787,0.96 6.058,0.168 3.882,-1.353 8.432,0.356 7.403,2.781 -1.46,3.441 -1.583,6.159 -0.344,7.651 1.154,1.391 1.453,1.278 2.649,-1.005 2.077,-3.963 3.802,-3.124 7.556,3.676 2.535,4.59 3.242,6.816 2.661,8.379 -1.145,3.084 1.474,6.371 5.076,6.371 2.468,0 3.552,0.996 7.347,6.75 5.201,7.887 10.245,14.07 20.785,25.48 8.305,8.99 11.984,15.001 12.213,19.956 0.121,2.619 -0.293,3.286 -2.353,3.786 -2.094,0.509 -2.581,1.333 -3,5.068 l -0.5,4.46 -5,0.5 c -4.151,0.415 -5.006,0.84 -5.037,2.501 -0.064,3.412 -1.315,4.37 -8.503,6.511 -5.234,1.559 -6.96,2.515 -6.96,3.855 0,0.98 2.474,4.639 5.498,8.131 4.967,5.735 5.353,6.509 4,8.004 -2.251,2.487 -1.819,4.701 1.377,7.064 2.659,1.966 2.778,2.326 1.584,4.78 -0.711,1.46 -1.442,6.252 -1.625,10.649 l -0.334,7.994 5.991,2.031 c 4.001,1.355 6.108,2.635 6.342,3.854 0.275,1.424 0.935,1.686 3.009,1.193 5.046,-1.196 5.464,-1.075 6.261,1.814 1.052,3.817 4.728001,7.619 7.365001,7.619 1.243,0 4.044,-2.04 6.778,-4.937 3.75,-3.973 5.401,-4.998 8.457,-5.25 3.537,-0.292 3.783,-0.518 3.59,-3.313 -0.113,-1.65 0.043,-8.062 0.349,-14.25 0.497,-10.061 0.75,-11.25 2.398,-11.25 3.015,0 3.458,1.893 3.508,15 0.055,14.325 2.506,26.603 10.081,50.5 8.724,27.517 10.387,35.422 11.43,54.323 0.684,12.403 0.632,19.221 -0.183,24 -0.626,3.673 -1.417,15.227 -1.757,25.677 l -0.619,19 -2.271,-3.5 c -2.132,-3.286 -3.452,-7.227 -6.028,-18 -0.862,-3.602 -0.79,-4.942 0.361,-6.715 2.587,-3.985 1.775,-5.837 -4.126,-9.413 -5.242,-3.176 -5.53,-3.555 -4.971,-6.535 0.572,-3.049 0.384,-3.26 -5.151,-5.794 -3.835,-1.755 -7.053,-2.532 -9.678,-2.336 -5.565,0.415 -5.538,-1.42 0.074,-5.021 2.634,-1.691 6.337,-4.671 8.229,-6.622 l 3.438,-3.548 -2.21,-3.932 c -1.928,-3.432 -2.081,-4.507 -1.197,-8.449 1.286,-5.738 0.552,-7.635 -2.952,-7.635 -2.578,0 -2.863,-0.425 -4.138,-6.173 -1.707,-7.695 -2.968,-9.02 -8.213,-8.63 -3.885,0.288 -4.2,0.094 -6.476,-3.993 -2.36,-4.239 -2.449,-4.288 -6.650001,-3.658 -3.262,0.489 -5.219,0.149 -8.36,-1.454 -6.787,-3.462 -8.681,-2.922 -12.84,3.658 -1.998,3.163 -3.83,5.975 -4.071,6.25 -0.241,0.275 -3.1,0.384 -6.354,0.242 l -5.916,-0.257 v 3.436 c 0,4.296 -1.943,6.284 -7.515,7.687 -5.702,1.436 -7.914,3.881 -7.104,7.853 0.34,1.671 0.887,4.333 1.214,5.915 0.447,2.157 0.111,3.221 -1.341,4.25 -3.315,2.352 -4.251,5.087 -2.7,7.89 1.999,3.612 1.785,4.667 -1.554,7.642 -3.479,3.1 -3.838,6.273 -1,8.842 2.772,2.509 2.506,4.088 -1.041,6.183 -3.481,2.057 -4.631,5.192 -3.014,8.215 0.866,1.618 0.76,2.772 -0.475,5.161 -2.347,4.537 -1.563,7.151 2.78,9.273 2.063,1.008 3.75,2.423 3.75,3.143 0,1.644 2.228,2.525 6.382,2.525 4.442,0 5.389,1.332 4.86,6.837 -0.546,5.674 0.707,7.092 6.969,7.889 6.378,0.811 7.477,1.711 8.231,6.733 0.602,4.019 1.027,4.605 3.867,5.337 2.333,0.601 3.281,1.479 3.526,3.263 0.184,1.343 0.701,2.823 1.15,3.291 1.509,1.574 7.928,0.867 11.353,-1.25 1.869,-1.155 4.717,-2.1 6.33,-2.1 1.613,0 3.395,-0.463 3.961,-1.029 0.705,-0.705 1.84,-0.39 3.607001,1 3.349,2.635 4.186,2.56 6.227,-0.555 2.423,-3.698 7.453,-5.587 11.662,-4.38 5.953,1.707 8.818,1.244 9.9,-1.601 0.536,-1.411 0.975,-3.645 0.975,-4.965 0,-1.471 0.871,-2.858 2.25,-3.585 3.12,-1.643 3.697,-2.818 3.113,-6.338 -0.49,-2.947 -0.453,-2.981 1.123,-1.047 3.812,4.68 10.372,19.548 10.896,24.694 0.862,8.467 1.54,142.806 0.72,142.806 -0.408,0 -1.385,-1.462 -2.172,-3.25 -1.102,-2.506 -2.046,-3.25 -4.117,-3.25 -1.53,0 -3.631,-1.01 -4.876,-2.343 -2.436,-2.608 -3.236,-2.551 -12.356,0.883 -4.707,1.773 -6.299,1.993 -7.768,1.075 -1.492,-0.931 -2.609,-0.717 -5.785,1.111 -2.996,1.724 -4.215,1.987 -5.101,1.101 -3.864,-3.864 -10.065001,-43.888 -7.085001,-45.73 0.644,-0.397 4.673001,2.925 9.528001,7.857 4.627,4.7 9.092,8.546 9.924,8.546 0.832,0 2.793,-1.571 4.359,-3.491 l 2.847,-3.492 4.753,1.735 c 6.936,2.531 8.29,1.347 8.096,-7.079 l -0.15,-6.561 3,-0.306 c 2.499,-0.255 3.232,-0.974 4.386,-4.306 2.179,-6.292 1.812,-8.689 -1.781,-11.641 l -3.214,-2.642 2.705,-4.087 c 3.248,-4.907 3.432,-8.162 0.606,-10.719 -1.642,-1.486 -1.991,-2.706 -1.602,-5.604 0.627,-4.672 -0.972,-6.915 -5.288,-7.417 -4.348,-0.507 -6.418,-2.467 -7.93,-7.512 l -1.225,-4.09 -5.335,0.666 c -5.329,0.666 -5.336,0.663 -6.005,-2.381 -1.452,-6.612 -8.989,-8.913 -16.554001,-5.054 -2.445,1.248 -4.878,1.789 -6.364,1.416 -1.692,-0.425 -2.694,-0.085 -3.383,1.146 -0.915,1.635 -1.159,1.608 -3.732,-0.416 -3.909,-3.075 -6.879,-2.752 -9.872,1.073 l -2.535,3.238 -3.152,-1.862 c -2.487,-1.469 -4.278,-1.73 -8.478,-1.237 -2.928,0.345 -6.497,1.072 -7.931,1.617 -3.496,1.329 -6.465,8.067 -6.493,14.736 -0.022,5.114 -0.113,5.276 -4.15,7.335 l -4.127,2.106 0.636,5.414 c 0.617,5.246 0.561,5.415 -1.801,5.415 -3.176,0 -4.834,1.759 -6.997,7.422 l -1.768,4.63 3.613,4 c 2.954,3.269 3.428,4.349 2.593,5.909 -1.621,3.028 -1.209,5.233 1.505,8.066 l 2.526,2.637 -2.186,2.78 c -1.917,2.437 -2.044,3.175 -1.026,5.989 0.638,1.765 1.16,4.1 1.16,5.188 0,2.856 1.94,4.379 5.578,4.379 1.747,0 3.737,0.675 4.422,1.5 0.685,0.825 1.891,1.5 2.681,1.5 0.791,0 1.148,0.468 0.794,1.04 -0.405,0.655 -2.809,0.795 -6.494,0.378 l -5.851,-0.662 -1.85,3.872 c -1.844,3.861 -1.865,3.871 -7.315,3.605 -3.006,-0.147 -6.4,-0.045 -7.544,0.226 -2.426,0.576 -4.421,4.417 -4.421,8.511 0,1.862 -1.057,3.934 -3,5.876 -1.65,1.65 -3.016,4.047 -3.035,5.327 -0.02,1.28 -0.679,3.452 -1.465,4.827 -1.8459996,3.229 -1.8309996,7.978 0.032,10.441 0.807,1.068 1.468,3.153 1.468,4.635 0,1.8 0.866,3.261 2.609,4.403 l 2.608,1.709 -6.776,2.368 c -3.7269996,1.302 -7.0999996,2.892 -7.4959996,3.533 -0.396,0.641 -0.497,2.835 -0.223,4.876 0.314,2.337 -0.098,4.861 -1.112,6.823 -2.40499998,4.649 -2.09199998,8.078 0.838,9.192 3.321,1.263 5.202,4.549 6.022,10.52 1.061,7.731 2.6379996,9.5 8.4709996,9.5 6.244,0 7.996,0.703 9.121,3.662 1.195,3.144 3.53,3.934 7.335,2.48 2.965,-1.133 3.259,-1.006 6.603,2.851 1.925,2.221 4.075,4.031 4.777,4.022 0.703,-0.008 3.29,-2.153 5.751,-4.765 4.796,-5.093 6.423,-4.868 6.457,0.895 0.033,5.832 8.078,26.238 13.997,35.504 1.256,1.966 1.013,2.579 -2.856,7.2 -2.326,2.778 -5.817,6.033 -7.758,7.233 -2.568,1.587 -4.462,4.147 -6.956,9.401 -1.885,3.972 -4.324,8.033 -5.42,9.024 -2.922,2.645 -2.555,6.701 0.835,9.207 1.555,1.15 3.258,3.597 3.784,5.438 0.662,2.318 1.637,3.446 3.172,3.668 2.318,0.334 2.214,-0.131 2.771,12.341 0.327,7.316 0.118,7.214 13.281,6.47 11.688,-0.66 11.803,-0.645 14.149,1.852 3.652,3.887 7.174,3.36 9.895,-1.482 2.506,-4.459 4.721001,-6.001 8.621001,-6.001 4.975,0 6.5,-1.614 6.5,-6.88 0,-3.54 0.528,-5.288 2,-6.62 2.6,-2.353 2.537,-5.299 -0.174,-8.186 l -2.175,-2.314 3.925,0.01 c 4.938,0.012 12.012,3.326 20.641,9.67 l 6.718,4.939 -4.847,0.073 c -2.665,0.04 -5.688,0.598 -6.717,1.238 -1.674,1.043 -1.621,1.097 0.504,0.511 2.655,-0.732 2.501,-0.202 -1.523,5.242 -3.235,4.379 -2.947,5.008 0.939,2.044 l 3.291,-2.51 0.207,2.508 c 0.17,2.056 -0.152,2.413 -1.791,1.985 -1.099,-0.288 -1.998,-0.115 -1.998,0.384 0,0.498 -1.35,0.906 -3,0.906 -1.65,0 -3,0.45 -3,1 0,0.55 1.125,1 2.5,1 3.353,0 3.059,0.873 -1.661,4.935 -2.942,2.531 -4.198,3.101 -4.776,2.166 -0.603,-0.974 -0.926,-0.901 -1.392,0.315 -0.413,1.075 -1.877,1.584 -4.558,1.584 -4.378,0 -7.113,0.783 -7.113,2.037 0,0.453 1.424,0.415 3.165,-0.084 3.159,-0.906 7.835,-0.343 7.835,0.943 0,0.374 -1.332,2.238 -2.959,4.142 -1.628,1.904 -2.978,3.922 -3,4.484 -0.023,0.562 -1.424,2.7 -3.114,4.75 -3.443,4.178 -2.152,5.153 1.543,1.166 l 2.375,-2.562 0.441,2.312 c 0.43,2.251 0.445,2.246 0.578,-0.188 0.153,-2.807 6.597,-8.682 7.651,-6.976 1.131,1.831 -2.914,8.427 -6.117,9.976 -1.707,0.825 -2.937,1.971 -2.735,2.546 0.202,0.575 -1.552,2.009 -3.898,3.188 -5.396,2.71 -2.463,2.903 4.415,0.29 2.86,-1.087 5.303,-1.874 5.429,-1.749 0.839,0.839 -2.867,3.594 -6.859,5.099 -2.613,0.985 -4.75,2.259 -4.75,2.831 0,0.707 0.411,0.699 1.283,-0.025 0.705,-0.585 2.458,-1.511 3.894,-2.057 l 2.611,-0.993 -1.331,3.685 c -0.731,2.027 -1.584,4.888 -1.893,6.358 -0.711,3.371 -5.235,8.827 -7.32,8.827 -0.867,0 -1.298,0.279 -0.957,0.62 1.479,1.479 5.965,-0.985 8.722,-4.791 2.823,-3.897 2.991,-3.983 2.991,-1.538 0,1.425 0.356,2.811 0.791,3.08 0.435,0.269 0.621,-0.967 0.413,-2.747 -0.252,-2.16 0.177,-3.695 1.29,-4.619 1.521,-1.262 1.619,-1.037 1.112,2.555 l -0.555,3.94 1.074,-3.75 c 0.59,-2.062 1.704,-3.75 2.474,-3.75 0.771,0 1.401,-0.487 1.401,-1.083 0,-1.958 2.428,-0.322 3.201,2.157 0.504,1.619 0.581,1.174 0.23,-1.337 -0.393,-2.806 -0.137,-3.913 1.007,-4.352 1.361,-0.522 1.367,-0.826 0.048,-2.709 -1.899,-2.711 -1.878,-3.676 0.081,-3.676 1.138,0 1.402,0.617 0.964,2.25 -0.49,1.824 -0.307,1.73 0.964,-0.5 1.982,-3.475 2.615,-3.445 5.347,0.25 1.22,1.65 2.935,3 3.81,3 1.303,0 1.366,-0.273 0.348,-1.5 -0.774,-0.932 -0.846,-1.5 -0.19,-1.5 0.58,0 1.32,-0.836 1.645,-1.857 0.427,-1.347 1.269,-1.727 3.067,-1.384 2.261,0.433 2.465,0.18 2.328,-2.892 -0.134,-3.026 -0.192,-3.088 -0.566,-0.617 -0.229,1.513 -0.762,2.75 -1.184,2.75 -1.805,0 -1.936,-1.469 -0.369,-4.122 l 1.679,-2.842 2.538,2.232 c 2.226,1.958 2.324,1.977 0.795,0.153 -0.959,-1.143 -1.729,-3.393 -1.713,-5 0.028,-2.677 0.123,-2.754 1.137,-0.921 0.608,1.1 1.992,2.979 3.074,4.176 1.083,1.197 1.67,2.659 1.305,3.25 -0.365,0.591 -0.021,1.074 0.764,1.074 1.581,0 2.652,4.771 2.694,12 0.019,3.277 0.29,4.092 0.996,3 0.533,-0.825 0.976,-5.427 0.985,-10.227 0.014,-8.232 0.159,-8.821 2.553,-10.39 2.394,-1.568 2.618,-1.556 3.971,0.227 0.789,1.04 1.236,2.453 0.994,3.14 -0.861,2.443 1.197,1.205 2.405,-1.448 0.985,-2.16 1.412,-2.409 2.145,-1.25 0.687,1.085 0.92,1.12 0.932,0.139 0.008,-0.72 0.502,-1.008 1.098,-0.64 0.595,0.368 0.343,-0.76 -0.56,-2.507 -0.904,-1.747 -1.504,-4.372 -1.333,-5.833 l 0.31,-2.657 1.98,2.973 c 1.506,2.26 1.986,4.688 2,10.126 0.011,3.934 0.299,6.981 0.641,6.771 1.063,-0.654 2.101,-6.727 1.91,-11.174 -0.113,-2.636 0.254,-4.25 0.965,-4.25 0.682,0 0.511,-0.636 -0.425,-1.571 -1.733,-1.734 -2.111,-4.429 -0.621,-4.429 0.523,0 1.409,0.787 1.97,1.75 0.898,1.541 1.023,1.555 1.05,0.117 0.016,-0.899 0.955,-1.876 2.085,-2.171 2.272,-0.594 3.879,2.248 4.026,7.119 l 0.081,2.685 1.229,-2.774 c 0.676,-1.525 1.564,-2.437 1.975,-2.026 0.411,0.41 0.049,-0.592 -0.804,-2.227 l -1.551,-2.973 4.245,-0.6 4.244,-0.6 -4.25,-0.15 c -2.337,-0.082 -4.25,-0.586 -4.25,-1.119 0,-0.532 0.777,-0.67 1.728,-0.305 0.95,0.364 0.065,-1 -1.967,-3.032 -2.032,-2.032 -4.285,-3.694 -5.007,-3.694 -2.197,0 -13.754,-12.346 -13.754,-14.694 0,-1.177 1.556,-6.79 3.457,-12.473 1.902,-5.683 4.151,-14.608 4.998,-19.833 2.706,-16.693 3.696,-20.371 7.154,-26.591 1.862,-3.351 3.674,-8.301 4.027,-11 0.352,-2.7 1.088,-5.478 1.636,-6.173 1.434,-1.82 17.249,-11.236 18.873,-11.236 0.752,0 1.97,1.363 2.708,3.029 3.095,6.992 16.6,9.673 26.39,5.238 6.877,-3.115 9.503,-6.386 10.309,-12.84 1.035,-8.278 -0.188,-13.654 -4.611,-20.278 -4.317,-6.465 -8.213,-8.823 -12.683,-7.68 -1.517,0.388 -4.024,0.82 -5.571,0.959 -4.664,0.42 -7.199,3.841 -7.114,9.601 0.048,3.252 -0.344,4.971 -1.132,4.971 -0.663,0 -3.872,2.587 -7.132,5.75 -3.26,3.163 -9.21,7.489 -13.222,9.616 -8.743,4.632 -9.137,7.379 3.441,-23.966 5.098,-12.705 10.075,-26.655 11.059,-31 2.025,-8.935 2.43,-25.724 1.025,-42.506 -0.583,-6.965 -0.544,-10.818 0.114,-11.224 0.592,-0.366 1.237,1.37 1.577,4.243 1.162,9.808 4.758,14.779 8.845,12.227 1.483,-0.927 2.504,-0.854 4.817,0.342 4.074,2.107 5.776,1.914 9.302,-1.054 2.715,-2.284 3.61,-2.495 8.017,-1.889 5.643,0.776 6.676,-0.039 6.701,-5.289 0.016,-3.545 2.559,-6.746 6.567,-8.27 4.294,-1.632 5.129,-5.225 2.621,-11.276 -2.512,-6.061 -2.609,-7.034 -0.959,-9.675 1.027,-1.645 0.842,-2.341 -1.2,-4.514 -2.293,-2.441 -2.35,-2.808 -1.145,-7.292 l 1.269,-4.723 -3.281,-2.75 c -1.805,-1.513 -3.636,-2.75 -4.069,-2.75 -0.434,0 -0.788,-1.035 -0.788,-2.3 0,-3.148 -1.816,-4.7 -5.5,-4.7 -3.937,0 -5.5,-1.576 -5.5,-5.545 0,-3.517 -2.173,-5.968 -6.176,-6.967 -3.098,-0.773 -5.456,-3.128 -5.994,-5.988 -0.298,-1.584 -1.1,-1.967 -3.853,-1.841 -5.436,0.247 -12.975,1.537 -12.992,2.221 -0.009,0.341 -0.412,1.246 -0.897,2.012 -0.725,1.144 -1.432,0.999 -3.984,-0.818 -3.7,-2.635 -5.93,-2.153 -8.953,1.936 -2.618,3.54 -3.353,3.64 -6.996,0.946 -2.996,-2.214 -5.841,-1.821 -6.363,0.879 -0.242,1.258 -1.417,1.665 -4.803,1.665 h -4.482 l -1.233,4.985 c -1.564,6.317 -4.126,9.754 -8.126,10.901 -3.449,0.99 -3.712,2 -2.003,7.703 0.987,3.297 0.885,4.204 -0.75,6.616 l -1.895,2.795 -0.626,-9 c -0.344,-4.95 -1.211,-14.85 -1.926,-22 -1.606,-16.071 -1.629,-41.824 -0.063,-72 0.656,-12.65 1.461,-38.3 1.789,-57 0.525,-29.96 0.387,-35.045 -1.157,-42.799 -0.963,-4.84 -1.586,-8.938 -1.384,-9.108 0.202,-0.17 3.604,-3.072 7.56,-6.448 7.458,-6.366 9.997,-6.747 6.074,-0.911 -3.095,4.604 -7.25,17.066 -6.415,19.242 0.518,1.349 1.379,1.628 3.631,1.177 2.728,-0.545 3.101,-0.252 4.928,3.879 1.839,4.156 2.242,4.469 5.783,4.483 4.388,0.018 5.552,0.622 7.191,3.735 0.698,1.325 2.119,2.25 3.456,2.25 1.249,0 3.795,1.125 5.659,2.5 1.864,1.375 3.864,2.492 4.444,2.482 1.795,-0.031 7.816,-8.028 8.539,-11.342 0.443,-2.029 1.186,-3.003 2.101,-2.753 4.97,1.357 5.432,1.233 6.561,-1.758 0.943,-2.498 2.098,-3.289 6.804,-4.657 4.309,-1.253 5.893,-2.242 6.609,-4.125 2.097,-5.516 0.354,-13.658 -3.821,-17.846 l -2.737,-2.745 2.25,-1.5 c 3.016,-2.011 2.837,-4.661 -0.478,-7.076 l -2.728,-1.988 4.728,-8.967 c 2.6,-4.931 4.728,-9.695 4.728,-10.586 0,-2.213 -12.174,-7.639 -17.138,-7.639 -3.123,0 -3.862,-0.362 -3.862,-1.893 0,-1.993 -1.842,-3.107 -5.141,-3.107 -3.015,0 -1.268,-1.798 4.41,-4.537 5.926,-2.859 7.302,-3.023 8.093,-0.963 0.764,1.993 5.261,1.925 6.034,-0.09 0.336,-0.875 0.366,-1.987 0.066,-2.471 -0.299,-0.484 0.712,-1.156 2.247,-1.492 1.535,-0.337 4.096,-1.025 5.69,-1.53 5.572,-1.762 7.456,-1.192 9.351,2.833 1.455,3.091 2.286,3.75 4.726,3.75 2.609,0 3.146,-0.534 4.529,-4.5 l 1.569,-4.5 h 4.963 c 4.457,0 4.997,-0.241 5.298,-2.365 0.227,-1.605 -0.702,-3.434 -2.891,-5.692 -3.295,-3.4 -3.459,-4.734 -1.47,-11.943 0.304,-1.1 0.13,-2.646 -0.385,-3.436 -0.803,-1.23 -1.527,-1.17 -5.049,0.418 -4.083,1.841 -4.132,1.839 -6.826,-0.328 -4.076,-3.278 -6.896,-4.49 -8.773,-3.77 -1.378,0.529 -1.596,1.602 -1.194,5.882 0.271,2.879 0.8,5.96 1.177,6.848 0.514,1.21 -0.016,1.758 -2.119,2.188 -4.732,0.968 -6.719,3.079 -6.607,7.019 0.087,3.092 -0.291,3.69 -2.914,4.604 -3.573,1.246 -4.308,0.896 -6.332,-3.018 -1.701,-3.29 -1.342,-4.287 2.798,-7.771 3.213,-2.703 6.75,-9.042 6.75,-12.096 0,-1.122 -0.244,-2.04 -0.542,-2.04 -0.298,0 -3.935,-0.701 -8.082,-1.557 -9.741,-2.012 -13.16,-1.641 -15.643,1.701 -1.886,2.538 -1.898,2.842 -0.307,7.634 1.131,3.404 3.075,6.28 6.116,9.048 4.785,4.355 5.716,7.773 2.887,10.603 -2.169,2.168 -3.322,1.977 -5.608,-0.929 -1.081,-1.375 -2.833,-2.5 -3.894,-2.5 -2.121,0 -2.37,0.752 -0.978,2.952 0.648,1.023 0.348,1.852 -1.015,2.807 -2.486,1.741 -5.342,-0.064 -7.76,-4.906 -2.162,-4.33 -4.964,-4.682 -10.118,-1.271 -3.814,2.523 -4.204,2.594 -5.899,1.06 -2.398,-2.17 -3.982,-2.071 -5.997,0.372 -1.551,1.883 -2.043,1.934 -7.508,0.774 -5.411,-1.149 -5.952,-1.099 -7.25,0.676 -0.771,1.055 -1.402,3.374 -1.402,5.154 0,2.16 -0.53,3.343 -1.595,3.559 -0.9,0.182 -2.318,2.495 -3.25,5.3 -1.581,4.755 -6.024,8.987 -7.688,7.323 -1.115,-1.115 -4.48,-20.015 -4.682,-26.3 -0.106,-3.3 0.105,-22.533 0.47,-42.739 l 0.664,-36.74 3.917,-5.26 c 4.832,-6.49 5.436,-7.665 8.061,-15.676 3.165,-9.656 2.718,-15.047 -1.254,-15.129 -1.638,-0.034 -1.201,-0.542 1.857,-2.157 6.579,-3.474 30.825,-13.461 37.129,-15.293 4.246,-1.234 6.902,-2.79 9.595,-5.621 3.888,-4.087 7.872,-6.197 10.017,-5.306 0.693,0.288 2.165,1.957 3.272,3.711 1.108,1.753 2.853,3.349 3.878,3.547 1.567,0.302 1.792,-0.135 1.41,-2.739 -0.25,-1.704 -0.249,-3.098 0.003,-3.098 0.252,0 5.237,2.911 11.077,6.468 10.173,6.197 13.283,7.637 19.369,8.968 2.622,0.574 2.75,0.877 2.75,6.516 0,5.035 0.297,6.007 2,6.548 3.159,1.003 5.746,-0.331 6.864,-3.541 1.18,-3.385 1.267,-3.405 6.589,-1.553 5.359,1.865 6.546,1.184 6.553,-3.763 0.006,-3.573 0.428,-4.383 3.071,-5.887 4.788,-2.725 3.731,-5.834 -2.577,-7.584 -6.028,-1.672 -8.175,-3.416 -9.038,-7.343 -0.358,-1.63 -1.287,-3.208 -2.064,-3.507 -1.973,-0.756 -6.302,2.296 -7.418,5.23 -0.547,1.438 -1.732,2.448 -2.873,2.448 -3.665,0 -5.107,1.159 -5.107,4.107 0,1.591 -0.337,2.885 -0.75,2.876 -0.413,-0.009 -2.908,-1.288 -5.545,-2.84 -4.897,-2.884 -4.987,-4.402 -0.312,-5.285 1.881,-0.356 2.96,-1.736 4.012,-5.131 0.509,-1.64 0.708,-1.614 2.665,0.343 1.405,1.405 2.839,1.921 4.272,1.536 1.187,-0.318 2.465,-0.585 2.841,-0.592 1.351,-0.027 1.905,-3.981 0.837,-5.976 -0.891,-1.665 -2.08,-2.038 -6.503,-2.038 -5.028,0 -5.841,0.356 -11.421,5 -3.305,2.75 -6.816,4.993 -7.802,4.984 -2.299,-0.022 -9.794,-4.242 -9.794,-5.516 0,-0.532 2.085,-2.89 4.634,-5.238 l 4.634,-4.27 2.947,1.691 c 2.789,1.601 3.278,1.588 9.108,-0.23 5.842,-1.822 6.16,-2.084 6.168,-5.089 0.011,-3.833 -0.856,-6.332 -2.197,-6.332 -0.545,0 -2.547,-0.738 -4.447,-1.64 -4.558,-2.162 -5.841,-1.441 -18.421,10.355 -9.031,8.468 -10.249,9.285 -13.843,9.285 h -3.941 l -1.174,-5.75 c -0.646,-3.162 -2.739,-9.8 -4.651,-14.75 -1.911,-4.95 -3.728,-11.363 -4.036,-14.25 -0.349,-3.264 -1.038,-5.25 -1.823,-5.25 -0.694,0 -1.723,-1.322 -2.287,-2.939 -1.199,-3.44 -0.817,-3.87 6.109,-6.891 3.455,-1.506 5.152,-2.968 6.12,-5.269 1.615,-3.843 1.003,-6.901 -1.382,-6.901 -0.961,0 -2.954,-0.948 -4.427,-2.107 -1.823,-1.434 -3.637,-1.966 -5.679,-1.667 -1.65,0.242 -3.232,0.066 -3.515,-0.393 -1.429,-2.311 -12.397,1.122 -12.397,3.881 0,1.708 5.688,13.047 8.075,16.097 0.995,1.271 2.365,4.797 3.045,7.835 l 1.236,5.524 -3.143,2.461 c -5.265,4.12 -7.083,14.946 -2.99,17.812 2.937,2.058 4.37,1.964 6.777,-0.443 2.555,-2.555 2.524,-2.949 -0.599,-7.551 -2.473,-3.643 -2.511,-3.895 -0.791,-5.153 0.995,-0.728 2.258,-1.173 2.807,-0.99 1.251,0.417 8.457,18.056 8.817,21.582 0.232,2.282 -0.144,2.652 -2.984,2.925 -4.06,0.392 -4.589,3.634 -0.75,4.598 1.375,0.345 2.499,0.956 2.498,1.358 -10e-4,0.402 -2.138,2.164 -4.75,3.915 -4.365,2.928 -10.534,5.684 -29.913,13.362 -8.769,3.475 -18.75,8.462 -22.531,11.257 -1.742,1.288 -3.16,1.723 -3.715,1.14 -0.494,-0.519 -1.39,-5.218 -1.991,-10.443 -0.602,-5.225 -1.534,-13.325 -2.072,-18 -0.538,-4.675 -1.48,-10.993 -2.094,-14.039 -1.064,-5.28 -0.972,-5.822 1.949,-11.57 3.752,-7.384 5.739,-15.667 7.012,-29.239 0.809,-8.619 1.414,-10.987 3.62,-14.171 4.824,-6.961 14.704,-12.348 22.196,-12.103 5.995,0.196 9.291,-2.076 9.291,-6.403 0,-2.894 -3.026,-4.475 -8.565,-4.475 -1.889,0 -3.435,-0.45 -3.435,-1 0,-0.55 0.8,-1 1.777,-1 0.978,0 2.807,-0.721 4.065,-1.602 1.258,-0.881 2.392,-1.444 2.52,-1.25 0.128,0.194 0.765,1.589 1.414,3.102 1.451,3.377 4.698,3.635 6.314,0.5 2.401,-4.658 5.023,-6.677 7.916,-6.099 3.463,0.693 4.649,-1.058 2.913,-4.301 -1.085,-2.028 -1.086,-3.021 -0.009,-5.655 2.663,-6.513 2.268,-7.162 -4.563,-7.49 -5.587,-0.268 -6.21,-0.521 -6.769,-2.75 -0.905,-3.607 -5.289,-3.411 -6.602,0.295 -1.639,4.624 -2.504,5.695 -5.801,7.18 -3.768,1.698 -4.157,4.551 -1.143,8.383 l 2.031,2.583 -2.052,1.098 c -3.331,1.783 -4.271,0.279 -3.81,-6.096 0.325,-4.487 1.132,-6.84 3.472,-10.122 1.677,-2.352 3.661,-5.988 4.409,-8.081 1.172,-3.2809997 1.157,-3.9319997 -0.111,-4.7339997 -3.257,-2.06 -14.963,-0.56 -14.986,1.92 -0.012,1.272 -0.197,1.332 -0.863,0.282 -1.168,-1.842 -5.527,-1.055 -5.932,1.072 -0.182,0.954 2.063,5.1979997 4.99,9.4309997 4.321,6.251 5.32,8.47 5.32,11.817 0,5.226 -4.732,14.614 -12.061,23.93 -5.703,7.249 -7.192,8.259 -2.941,1.994 1.375,-2.025 2.98,-5.467 3.567,-7.65 0.588,-2.182 2.238,-4.974 3.667,-6.203 2.073,-1.783 2.749,-3.524 3.351,-8.622 0.414,-3.514 0.538,-6.736 0.276,-7.16 -0.924,-1.496 -5.008,-0.748 -7.232,1.324 -3.081,2.87 -4.127,6.056 -4.127,12.568 0,5.08 -2.072,11.645 -4.065,12.876 -0.452,0.28 -2.033,-1.557 -3.512,-4.082 -2.234,-3.81 -2.499,-4.961 -1.564,-6.774 0.62,-1.201 1.745,-3.984 2.5,-6.184 2.285,-6.658 -1.184,-11.779 -5.396,-7.966 -1.745,1.579 -1.963,1.596 -1.963,0.156 0,-2.526 3.291,-3.69 10.434,-3.69 6.293,0 6.566,-0.101 6.566,-2.439 0,-1.409 -1.69,-4.392 -4,-7.061 -2.2,-2.542 -4,-5.4039997 -4,-6.3609997 0,-2.656 -2.052,-4.139 -5.725,-4.139 -2.883,0 -3.404,0.393 -3.916,2.956 -0.677,3.3829997 -6.837,11.0439997 -8.881,11.0439997 -0.752,0 -2.629,-1.117 -4.172,-2.482 -2.316,-2.048 -2.552,-2.648 -1.352,-3.435 1.171,-0.768 1.226,-1.403 0.28,-3.2679997 -0.645,-1.273 -1.299,-3.89 -1.453,-5.815 -0.268,-3.33700003 -0.467,-3.50800003 -4.281,-3.67100003 -2.2,-0.093 -5.575001,0.208 -7.500001,0.669 M 119.00989,26.93787 c 0.013,1.819 0.201,1.963 0.985,0.75 1.253,-1.939 1.253,-3 0,-3 -0.55,0 -0.993,1.013 -0.985,2.25 m -54.350001,3.922 c -0.769,2.94 0.402,4.068 3.792,3.656 l 2.701,-0.328 -2.946,-2.81 -2.947,-2.811 -0.6,2.293 m 50.335001,8.483 c 0,5.592 0.022,5.635 2,3.845 2.222,-2.011 2.65,-6.45 0.8,-8.3 -2.2,-2.2 -2.8,-1.246 -2.8,4.455 m 6.495,6.705 c -4.423,6.044 -4.627,6.525 -3.589,8.465 0.781,1.459 0.648,2.761 -0.52,5.102 -1.443,2.893 -1.406,4.117 0.462,15.358 3.054,18.376 4.154,19.723 3.92,4.801 -0.177,-11.262 -0.018,-12.515 1.704,-13.5 1.045,-0.597 2.88,-2.098 4.078,-3.336 1.199,-1.238 2.69,-2.25 3.315,-2.25 0.624,0 1.135,-0.247 1.135,-0.55 0,-1.598 -8.072,-15.445 -9.005,-15.448 -0.278,-10e-4 -0.953,0.61 -1.5,1.358 m 33.783,0.89 c -2.406,3.111 -2.575,3.979 -0.566,2.904 1.074,-0.574 2.533,-1.744 3.243,-2.599 1.069,-1.289 1.033,-1.555 -0.21,-1.555 -0.825,0 -1.935,0.563 -2.467,1.25 m -104.112001,3.05 c -0.849,1.023 -0.353,1.3 2.334,1.3 2.687,0 3.183,-0.277 2.334,-1.3 -0.593,-0.715 -1.644,-1.3 -2.334,-1.3 -0.69,0 -1.741,0.585 -2.334,1.3 m 14.988,0.138 c 0.191,0.917 0.796,1.644 1.346,1.615 1.484,-0.079 1.212,-2.316 -0.346,-2.835 -0.841,-0.28 -1.215,0.177 -1,1.22 m 22.124,4.812 c -2.135,2.76 -2.392,3.731 -0.83,3.132 2.816,-1.081 1.857,4.959 -1.448,9.118 -3.227,4.061 -4.058,7.843 -1.508,6.865 2.023,-0.777 2.929,1.975 1.769,5.372 -0.518,1.52 -0.618,3.945 -0.221,5.39 0.396,1.445 5.794,9.32 11.994,17.5 13.636001,17.993 15.401001,20.141 18.637001,22.686 3.023,2.378 4.289,1.164 4.314,-4.137 0.012,-2.689 -1.076,-4.469 -5.693,-9.309 -4.205,-4.408 -7.3,-9.195 -11.75,-18.176 -4.875001,-9.837 -6.493001,-12.255 -8.377001,-12.522 -2.232,-0.316 -2.309,-0.602 -1.761,-6.5 0.879,-9.468 0.881,-9.816 0.074,-15.419 -0.581,-4.03 -1.161,-5.25 -2.495,-5.25 -0.956,0 -2.173,0.563 -2.705,1.25 m 12.750001,12.707 c -1.244001,0.791 -1.285001,1.677 -0.261,5.739 1.659,6.584 12.796,28.477 16.817,33.061 l 3.284,3.743 -1.467,-5.5 c -0.807,-3.025 -1.928,-7.215 -2.493,-9.312 -0.564,-2.097 -2.611,-5.567 -4.549,-7.712 -3.612,-3.998 -3.719,-6.542 -0.23,-5.435 1.835,0.582 1.917,0.279 1.274,-4.709 -1.066,-8.272 -1.907,-9.832 -5.296,-9.832 -1.619,0 -3.543,-0.22 -4.275,-0.489 -0.733,-0.27 -1.994,-0.069 -2.804,0.446 m 31.579,4.625 c -0.334,0.87 -0.607,2.439 -0.607,3.486 0,1.232 -1.237,2.422 -3.5,3.368 -3.329,1.39 -3.5,1.703 -3.5,6.391 0,3.278 0.531,5.369 1.585,6.243 1.211,1.006 1.44,2.388 0.973,5.873 -0.556,4.14 -0.477,4.386 0.862,2.689 1.822,-2.311 4.22,-12.744 5.144,-22.382 0.668,-6.973 0.325,-9.008 -0.957,-5.668 m -42.857001,35.08 c 0.688,0.278 1.813,0.278 2.5,0 0.688,-0.277 0.125,-0.504 -1.25,-0.504 -1.375,0 -1.937,0.227 -1.25,0.504 m 4.32,4.273 c -0.786,0.498 -1.505,1.931 -1.597,3.184 -0.093,1.254 -0.687,2.452 -1.321,2.664 -0.633,0.211 -1.152,2.234 -1.152,4.497 0,2.792 -0.828,5.308 -2.58,7.836 -1.982,2.86 -9.42,26.114 -9.42,29.451 0,0.288 1.575,0.228 3.5,-0.133 5.467,-1.026 4.49,1.958 -2,6.109 -3.025,1.935 -5.5,4.115 -5.5,4.844 0,0.729 4.497,6.198 9.993,12.155 5.496,5.956 11.211,12.659 12.7,14.894 4.439001,6.665 6.477001,8.533 10.490001,9.613 2.277,0.613 4.696,2.221 6.003,3.989 2.726,3.687 4.323,3.743 6.049,0.212 2.572,-5.259 8.839,-1.279 10.789,6.852 1.586,6.61 2.977,5.249 2.972,-2.911 -0.004,-7.979 -2.502,-13.191 -6.322,-13.191 -4.735,0 -12.017,-2.973 -19.802,-8.084 -10.047001,-6.596 -10.098001,-7.967 -0.441,-11.825 l 6.93,-2.769 -0.167,-5.911 c -0.22,-7.734 1.924,-17.81 3.868,-18.184 1.621,-0.313 7.22,4.532 10.717,9.273 2.042,2.768 2.013,2.537 -0.382,-3 -1.427,-3.3 -3.881,-9.825 -5.453,-14.5 -1.571,-4.675 -3.214,-8.394 -3.651,-8.265 -0.436,0.129 -1.018,3.279 -1.293,7 -0.481,6.509 -0.747,6.95 -3.879,6.415 -0.483,-0.083 -1.458,-1.613 -2.167,-3.4 -2.167,-5.463 -2.902,-6.014 -5.64,-4.22 -3.221,2.11 -11.798001,3.114 -12.797001,1.498 -1.209,-1.957 1.199,-5.237 6.996,-9.528 4.949001,-3.664 5.406001,-4.336 5.439001,-8 0.055,-6.009 -1.808,-11.51 -4.969001,-14.671 -3.059,-3.059 -3.731,-3.274 -5.913,-1.894 m -18.32,11.658 c 3.686,1.692 -1.279,12.141 -6.87,14.457 -6.548,2.712 -7.842,13.875 -2.539,21.89 1.478,2.233 3.094,4.06 3.592,4.06 1.015,0 3.308,-6.685 8.55,-24.937 3.846,-13.39 3.77,-14.19 -1.483,-15.446 -1.375,-0.329 -1.937,-0.34 -1.25,-0.024 m 48.365001,9.907 c -0.046,2.75 0.352,5.675 0.885,6.5 1.208,1.87 1.208,-5.227 0,-9 -0.639,-1.995 -0.818,-1.489 -0.885,2.5 m 18.635,32.568 c -2.062,1.089 -3.75,2.203 -3.75,2.476 0,0.273 1.8,-0.422 4,-1.544 2.2,-1.122 4,-2.257 4,-2.52 0,-0.654 -0.007,-0.652 -4.25,1.588 m -12.217,78.86 c -1.764,3.91 -1.473,9.771 0.426,8.597 0.973,-0.601 2.585,-11.314 1.818,-12.081 -0.255,-0.255 -1.265,1.312 -2.244,3.484 m 14.467,72.072 c 0,0.55 0.477,1 1.059,1 0.582,0 0.781,-0.45 0.441,-1 -0.34,-0.55 -0.816,-1 -1.059,-1 -0.243,0 -0.441,0.45 -0.441,1 m 3.526,11.082 c 0.37,1.167 1.514,5.061 2.542,8.654 1.027,3.593 2.048,6.714 2.269,6.935 0.221,0.22 1.445,-2.171 2.721,-5.315 2.215,-5.457 2.238,-5.763 0.507,-6.785 -0.997,-0.589 -3.366,-2.092 -5.263,-3.341 -3.438,-2.262 -3.447,-2.263 -2.776,-0.148 m 14.089,7.383 c -2.621,4 -1.849,5.134 1.385,2.035 1.65,-1.581 3,-3.24 3,-3.687 0,-1.756 -2.857,-0.68 -4.385,1.652 m -71.363001,233.035 c 0.011,2.2 0.216,2.982 0.455,1.738 0.239,-1.244 0.23,-3.044 -0.02,-4 -0.25,-0.956 -0.446,0.062 -0.435,2.262 m 0.555,12.312 c -0.349,2.372 -1.819,6.736 -3.268,9.698 -3.061,6.257 -6.149,7.963 -8.367,4.623 -1.318,-1.985 -5.272,-3.059 -5.091,-1.383 0.044,0.413 1.058,2.55 2.252,4.75 2.049,3.774 2.48,4.028 7.63,4.5 4.774,0.437 5.544,0.813 6.147,3 1.02,3.692 1.019,11.53 0,14.212 -0.695,1.827 -0.392,2.922 1.381,4.983 2.893,3.362 4.714,2.006 3.41,-2.54 -1.435,-5.002 -1.067,-8.851 1.264,-13.254 l 2.172,-4.099 -3.107,-11.901 c -1.708,-6.546 -3.26,-13.026 -3.448,-14.401 -0.248,-1.814 -0.516,-1.316 -0.975,1.812 m 68.876001,-1.162 c -1.13,1.13 -0.777,12.628 0.927,30.226 1.216,12.554 1.403,19.807 0.762,29.624 -0.82,12.561 -0.639,64.556 0.227,65.429 0.234,0.236 2.011,-0.326 3.947,-1.25 1.937,-0.923 5.042,-1.679 6.899,-1.679 4.483,0 7.578,-3.717 13.324,-16 9.061,-19.369 13.352,-32.826 16.71,-52.399 1.363,-7.944 1.366,-9.9 0.024,-18.239 -0.827,-5.137 -1.503,-11.62 -1.503,-14.407 v -5.067 l -2.273,2.643 c -1.859,2.161 -3.248,2.687 -7.614,2.883 -3.772,0.169 -5.615,0.731 -6.276,1.913 -1.291,2.306 -4.673,2.097 -6.707,-0.415 -1.02,-1.259 -3.664,-2.453 -6.661,-3.007 -9.227,-1.705 -12.935,-6.99 -10.71,-15.267 1.041,-3.873 0.468,-6.531 -1.076,-4.988 m -105.963001,7.963 c -1.164,1.165 3.439,4.387 6.266,4.387 3.514,0 4.427,-1.025 2.258,-2.533 -2.252,-1.564 -7.641,-2.737 -8.524,-1.854 m 147.280001,3.554 c 0,4.912 0.474,4.772 1.413,-0.417 0.429,-2.374 0.294,-3.75 -0.368,-3.75 -0.575,0 -1.045,1.875 -1.045,4.167 m -109.364001,40.34 c -0.386,1.005 -0.244,2.285 0.315,2.844 1.528,1.528 2.203,0.24 1.239,-2.366 -0.773,-2.091 -0.918,-2.135 -1.554,-0.478 m 51.364001,15.938 -5.5,1.168 0.023,8.944 c 0.013,4.918 0.789,13.893 1.726,19.943 0.936,6.05 2.2,19.775 2.808,30.5 1.261,22.244 1.776,25.585 6.137,39.81 3.669,11.971 4.759,11.738 5.524,-1.183 0.407,-6.877 0.086,-9.325 -2.089,-15.915 l -2.57,-7.787 2.076,-5.213 c 1.905,-4.782 2.027,-6.53 1.472,-21.212 -0.333,-8.8 -0.892,-23.763 -1.243,-33.25 -0.434,-11.758 -0.991,-17.206 -1.75,-17.112 -0.613,0.076 -3.589,0.664 -6.614,1.307 m -50.598001,10.365 c 2.488,4.812 2.055,6.972 -1.713,8.546 -1.821,0.761 -4.858,3.175 -6.75,5.365 -1.891,2.19 -4.429,4.502 -5.638,5.138 -1.21,0.636 -2.785,2.349 -3.5,3.807 -1.378,2.807 -2.486,3.564 -7.301,4.987 -2.033,0.601 -3.106,1.632 -3.33,3.198 -0.572,4.004 8.733,29.576 13.223,36.338 5.441,8.193 7.11,9.145 9.749,5.561 3.72,-5.051 10.858,-2.889 10.858,3.29 0,2.094 0.394,2.746 1.422001,2.352 1.933,-0.742 5.312,1.194 6.029,3.455 0.323,1.017 1.764,2.386 3.202,3.041 2.53,1.152 2.594,1.396 1.97,7.487 -0.805,7.861 -0.224,8.464 11.637,12.048 4.817,1.456 9.44,2.909 10.273,3.228 0.982,0.377 -0.089,-2.708 -3.049,-8.785 -4.691,-9.63 -5.251,-13.371 -2.279,-15.232 2.184,-1.367 6.094,2.103 8.847,7.851 1.058,2.208 1.74,3.115 1.516,2.015 -0.224,-1.1 -0.698,-5.15 -1.053,-9 -0.355,-3.85 -1.527,-10.796 -2.605,-15.436 -2.244,-9.655 -14.422,-52.43 -15.891,-55.814 -0.836,-1.927 -1.736,-2.25 -6.275,-2.25 -4.496,0 -5.684,-0.416 -7.846,-2.75 -1.4,-1.513 -4.920001,-4.725 -7.820001,-7.14 -5.147,-4.284 -5.236,-4.316 -3.676,-1.3 m 33.950001,10.238 c -1.169,1.169 2.036,18.378 4.927,26.452 1.372,3.833 1.418,3.542 1.088,-7 -0.189,-6.05 -0.699,-13.021 -1.132,-15.491 -0.799,-4.556 -2.725,-6.119 -4.883,-3.961 m 8.645,123.952 c -0.4,1.24 -1.093,6.413 -0.802,5.982 0.18,-0.265 1.222,-1.572 2.316,-2.904 1.094,-1.332 1.465,-2.117 0.824,-1.744 -0.64,0.373 -1.392,0.113 -1.671,-0.578 -0.278,-0.691 -0.579,-1.031 -0.667,-0.756 m 13.003,1.882 c 0,0.55 0.45,1.278 1,1.618 0.55,0.34 1,0.168 1,-0.382 0,-0.55 -0.45,-1.278 -1,-1.618 -0.55,-0.34 -1,-0.168 -1,0.382 m -15.5,8.063 c -2.995,1.418 -3.463,1.913 -1.861,1.974 1.177,0.045 3.202,-0.804 4.5,-1.886 2.956,-2.462 2.416,-2.48 -2.639,-0.088 m 20.956,6.31 c -0.336,0.874 -0.207,2.411 0.285,3.417 0.493,1.005 1.021,3.628 1.175,5.828 0.153,2.2 0.486,4.337 0.74,4.75 0.691,1.122 2.344,0.904 2.344,-0.309 0,-0.582 -0.562,-0.741 -1.25,-0.353 -1,0.564 -1,0.436 0,-0.641 1.78,-1.918 1.545,-4.676 -0.5,-5.867 -1.164,-0.678 -1.295,-1.029 -0.392,-1.05 0.978,-0.021 1.168,-0.802 0.68,-2.78 -0.9,-3.642 -2.309,-5.011 -3.082,-2.995 m 15.544,0.745 c 0.825,0.533 2.4,0.983 3.5,1 1.659,0.025 1.744,0.196 0.5,1 -1.213,0.784 -1.069,0.972 0.75,0.985 1.237,0.008 2.25,-0.345 2.25,-0.785 0,-1.715 -2.54,-3.199 -5.45,-3.185 -2.337,0.012 -2.699,0.242 -1.55,0.985 m 9,2 c 0,0.55 0.477,1 1.059,1 0.582,0 0.781,-0.45 0.441,-1 -0.34,-0.55 -0.816,-1 -1.059,-1 -0.243,0 -0.441,0.45 -0.441,1 m -15.645,5.024 c 0.355,1.774 0.645,4.295 0.645,5.601 0,1.48 0.585,2.375 1.552,2.375 1.244,0 1.492,-1.041 1.25,-5.241 -0.243,-4.213 -0.673,-5.311 -2.197,-5.601 -1.643,-0.313 -1.81,0.069 -1.25,2.866 m -15.355,-0.083 c 0,1.068 0.457,2.224 1.016,2.569 0.559,0.346 0.841,0.935 0.625,1.309 -0.215,0.375 -0.061,1.581 0.342,2.681 0.487,1.329 0.774,0.239 0.857,-3.25 0.095,-4.028 -0.221,-5.25 -1.358,-5.25 -0.815,0 -1.482,0.873 -1.482,1.941 m -8.701,5.951 c -1.264,2.024 -0.787,3.108 1.368,3.108 0.755,0 1.333,-1.083 1.333,-2.5 0,-2.976 -1.071,-3.217 -2.701,-0.608 m 29.716,2.299 c -0.008,0.93 0.435,1.969 0.985,2.309 1.266,0.782 1.266,-0.542 0,-2.5 -0.835,-1.293 -0.971,-1.266 -0.985,0.191 m -36.952,1.512 c -0.097,3.383 1.951,7.067 4.265,7.673 2.928,0.765 2.943,0.396 0.11,-2.659 -1.37,-1.478 -2.901,-3.707 -3.401,-4.952 l -0.91,-2.265 -0.064,2.203 m 23.937,-0.203 c 0,0.825 0.436,1.5 0.969,1.5 0.532,0 0.709,-0.675 0.393,-1.5 -0.317,-0.825 -0.753,-1.5 -0.969,-1.5 -0.216,0 -0.393,0.675 -0.393,1.5 m 9,1.5 c 0.589,1.1 1.28,2 1.535,2 0.256,0 0.465,-0.9 0.465,-2 0,-1.131 -0.667,-2 -1.535,-2 -1.225,0 -1.319,0.404 -0.465,2 m -25.93,0.25 c 0.096,1.704 1.769,5.499 1.873,4.25 0.047,-0.55 0.356,-2.013 0.687,-3.25 0.444,-1.654 0.175,-2.25 -1.013,-2.25 -0.89,0 -1.585,0.563 -1.547,1.25 m -3.677,8.332 c 0.334,0.87 0.607,1.825 0.607,2.122 0,0.298 0.696,-0.037 1.547,-0.743 1.236,-1.026 1.287,-1.45 0.25,-2.107 -2.049,-1.3 -3.064,-0.993 -2.404,0.728 m -11.912,6.479 c -0.365,1.149 -0.427,2.326 -0.139,2.614 0.834,0.835 2.658,-0.658 2.658,-2.175 0,-2.336 -1.817,-2.653 -2.519,-0.439"
     stroke="none"
     fill="#000000"
     fill-rule="evenodd"
     id="path2" />
</svg>
